<svg width="68" height="14" viewBox="0 0 68 14" fill="none" xmlns="http://www.w3.org/2000/svg">
<path d="M66.5 8H67.5V6H66.5V8ZM2.5 5.99999H1.5L1.5 7.99999H2.5L2.5 5.99999ZM7.20711 2.70711L7.91421 2L6.5 0.585786L5.79289 1.29289L7.20711 2.70711ZM1.5 7L0.792893 6.29289C0.402369 6.68342 0.402369 7.31658 0.792893 7.70711L1.5 7ZM5.79289 12.7071L6.5 13.4142L7.91421 12L7.20711 11.2929L5.79289 12.7071ZM66.5 6L2.5 5.99999L2.5 7.99999L66.5 8V6ZM5.79289 1.29289L0.792893 6.29289L2.20711 7.70711L7.20711 2.70711L5.79289 1.29289ZM0.792893 7.70711L5.79289 12.7071L7.20711 11.2929L2.20711 6.29289L0.792893 7.70711Z" fill="#19191A"/>
</svg>
