<svg width="68" height="14" viewBox="0 0 68 14" fill="none" xmlns="http://www.w3.org/2000/svg">
<path d="M1.5 6H0.5L0.5 8H1.5L1.5 6ZM65.5 7.99999H66.5V5.99999H65.5V7.99999ZM62.2071 1.29289L61.5 0.585786L60.0858 2L60.7929 2.70711L62.2071 1.29289ZM66.5 7L67.2071 7.70711C67.5976 7.31658 67.5976 6.68342 67.2071 6.29289L66.5 7ZM60.7929 11.2929L60.0858 12L61.5 13.4142L62.2071 12.7071L60.7929 11.2929ZM1.5 8L65.5 7.99999V5.99999L1.5 6L1.5 8ZM60.7929 2.70711L65.7929 7.70711L67.2071 6.29289L62.2071 1.29289L60.7929 2.70711ZM65.7929 6.29289L60.7929 11.2929L62.2071 12.7071L67.2071 7.70711L65.7929 6.29289Z" fill="#C09C5E"/>
</svg>
