<svg width="64" height="64" viewBox="0 0 64 64" fill="none" xmlns="http://www.w3.org/2000/svg">
<path d="M55.5488 12.2657L55.2673 11.9405L55.924 11.3678L56.2113 11.6993L55.5488 12.2657ZM7.90191 12.7507L7.22925 12.198L7.50938 11.8595L8.17805 12.4202L7.90191 12.7507ZM56.7131 13.7115L56.4529 13.3721L57.1397 12.8348L57.4079 13.1844L56.7131 13.7115ZM6.76548 14.223L6.06096 13.7106L6.32029 13.357L7.02082 13.8757L6.76548 14.223ZM57.7889 15.2245L57.5495 14.87L58.2686 14.3753L58.5142 14.7399L57.7889 15.2245ZM5.71933 15.7613L4.98427 15.2913L5.2228 14.9231L5.95387 15.3993L5.71933 15.7613ZM58.7722 16.7977L58.5531 16.4291L59.3006 15.9795L59.525 16.3574L58.7722 16.7977ZM4.7661 17.3589L4.00494 16.9345L4.22444 16.5481L4.97763 16.9885L4.7661 17.3589ZM59.6573 18.424L59.4626 18.0448L60.2352 17.6403L60.4366 18.0311L59.6573 18.424ZM62.1855 25.3811L62.0872 24.9687L62.9325 24.7567L63.0365 25.1886L62.1855 25.3811ZM1.52542 26.0401L0.672213 25.86L0.751427 25.4957L1.61658 25.6174L1.52542 26.0401ZM62.5537 27.2066L62.4798 26.784L63.3369 26.6273L63.4131 27.0623L62.5537 27.2066ZM1.20104 27.866L0.338097 27.7398L0.405362 27.3039L1.26609 27.4425L1.20104 27.866ZM62.8081 29.0444L62.759 28.6209L63.6242 28.5129L63.675 28.9546L62.8081 29.0444ZM0.983755 29.7135L0.114618 29.6352L0.156659 29.1998L1.02359 29.2838L0.983755 29.7135ZM62.9542 30.8978L62.9303 30.4694L63.8012 30.4154L63.8251 30.8557L62.9542 30.8978ZM0.877548 31.566L0.00663776 31.5425L0.0216858 31.1013L0.892592 31.1381L0.877548 31.566ZM63.8605 32.8808L62.9891 32.8693L62.9922 32.3236H63.8636L63.8605 32.8808ZM0.00973718 33.449L0 33.0091L0.870468 32.9972L0.880647 33.4251L0.00973718 33.449ZM63.7786 34.7863L62.9095 34.7261L62.9373 34.2951L63.8083 34.3491L63.7786 34.7863ZM0.124797 35.3559L0.0889513 34.9164L0.958089 34.8496L0.993935 35.278L0.124797 35.3559ZM63.5839 36.6875L62.7192 36.5733L62.7732 36.148L63.6379 36.2493L63.5839 36.6875ZM0.354914 37.253L0.29119 36.8136L1.1559 36.6994L1.21609 37.1207L0.354914 37.253ZM63.2759 38.5709L62.4187 38.4089L62.4988 37.9845L63.356 38.1412L63.2759 38.5709ZM0.695665 39.1311L0.607601 38.6983L1.46214 38.5306L1.54843 38.9493L0.695665 39.1311ZM62.8533 40.4362L62.0102 40.214L62.1142 39.802L62.9612 40.0065L62.8533 40.4362ZM1.15192 40.988L1.03553 40.5592L1.88166 40.3419L1.99097 40.7521L1.15192 40.988ZM62.3227 42.27L61.4916 42.005L61.6221 41.5925L62.4545 41.8505L62.3227 42.27ZM1.71571 42.8099L1.57543 42.3939L2.40429 42.1218L2.5406 42.5285L1.71571 42.8099ZM61.677 44.076L60.8658 43.7578L61.019 43.3565L61.8359 43.6618L61.677 44.076ZM2.38925 44.5978L2.22507 44.1902L3.03623 43.8698L3.19643 44.2668L2.38925 44.5978ZM60.9269 45.8364L60.1361 45.47L60.3135 45.0788L61.1101 45.4333L60.9269 45.8364ZM3.16855 46.3374L2.98003 45.9395L3.77084 45.5749L3.95317 45.9572L3.16855 46.3374ZM4.05052 48.0279C3.97751 47.8986 3.90537 47.7685 3.83545 47.6375L4.60591 47.2286C4.67184 47.3539 4.74 47.4756 4.80947 47.5995L4.05052 48.0279Z" fill="white"/>
<path d="M25.3319 15.045L25.5298 14.0993C25.466 14.0767 25.3824 14.0581 25.3045 14.0581C25 14.0581 24.7429 14.2949 24.7429 14.6768C24.7429 14.9193 24.866 15.087 25.1182 15.087C25.193 15.087 25.2735 15.0702 25.3319 15.045ZM24.5345 14.6905C24.5345 14.186 24.8916 13.882 25.2899 13.882C25.393 13.882 25.497 13.9019 25.5687 13.9267L25.7085 13.2602H25.9095L25.5045 15.176C25.4019 15.2229 25.2319 15.2623 25.0983 15.2623C24.777 15.2623 24.5345 15.0587 24.5345 14.6905Z" fill="white"/>
<path d="M27.0559 14.4477C27.0691 14.3982 27.0771 14.3424 27.0771 14.3004C27.0771 14.1827 27.0284 14.0517 26.8346 14.0517C26.6288 14.0517 26.458 14.2358 26.4137 14.457L27.0559 14.4477ZM26.1801 14.7018C26.1801 14.2336 26.4668 13.8822 26.8541 13.8822C27.1421 13.8822 27.2811 14.0632 27.2811 14.3088C27.2811 14.4026 27.2554 14.5208 27.2227 14.6044L26.3863 14.6159C26.3832 14.6407 26.381 14.6686 26.381 14.6933C26.381 14.9447 26.5204 15.089 26.7262 15.089C26.8625 15.089 26.9828 15.0421 27.0855 14.9863L27.1421 15.1372C27.0218 15.2146 26.8541 15.2629 26.7093 15.2629C26.4058 15.2629 26.1801 15.0646 26.1801 14.7018Z" fill="white"/>
<path d="M28.0027 15.0869C28.3536 15.0869 28.5798 14.8045 28.5798 14.4456C28.5798 14.1921 28.4368 14.058 28.1868 14.058C28.1142 14.058 28.0412 14.0681 27.9912 14.0819L27.7885 15.0501C27.8549 15.078 27.9491 15.0869 28.0027 15.0869ZM27.8213 13.9398C27.9328 13.9071 28.0673 13.8814 28.1974 13.8814C28.6019 13.8814 28.7891 14.1274 28.7891 14.4288C28.7891 14.9612 28.4098 15.2621 28.016 15.2621C27.9045 15.2621 27.8297 15.2484 27.7487 15.2236L27.6066 15.8954H27.4057L27.8213 13.9398Z" fill="white"/>
<path d="M29.1493 14.9417C29.1493 14.889 29.155 14.8138 29.1802 14.6881L29.3418 13.9154H29.5422L29.3789 14.7023C29.3595 14.7828 29.3502 14.8629 29.3502 14.8996C29.3502 15.0337 29.4227 15.0837 29.5117 15.0837C29.7546 15.0837 29.9356 14.839 29.9883 14.5903L30.1312 13.9154H30.3317L30.1702 14.685C30.1397 14.8359 30.122 14.9479 30.122 15.0399C30.122 15.1032 30.1312 15.159 30.1428 15.2116L29.9715 15.2484C29.9551 15.1953 29.9356 15.0952 29.941 14.9837H29.9356C29.8241 15.1453 29.6343 15.263 29.4617 15.263C29.2864 15.263 29.1493 15.1709 29.1493 14.9417Z" fill="white"/>
<path d="M30.909 13.5C30.909 13.4017 30.9838 13.3411 31.0626 13.3411C31.1396 13.3411 31.1842 13.3911 31.1842 13.4575C31.1842 13.5531 31.1099 13.6173 31.0311 13.6173C30.9541 13.6173 30.909 13.5664 30.909 13.5ZM30.8585 13.9146H31.0595L30.7811 15.2347H30.5793L30.8585 13.9146Z" fill="white"/>
<path d="M31.3144 15.0056C31.3923 15.0526 31.4949 15.0888 31.6122 15.0888C31.7547 15.0888 31.8857 15.0225 31.8857 14.8835C31.8857 14.6317 31.4617 14.6091 31.4617 14.2591C31.4617 14.0493 31.6073 13.8821 31.8963 13.8821C31.9861 13.8821 32.0999 13.8922 32.2043 13.9347L32.1729 14.1024C32.1061 14.0768 32.0003 14.0524 31.9082 14.0524C31.7742 14.0524 31.6684 14.1082 31.6684 14.2471C31.6684 14.4928 32.0897 14.5096 32.0897 14.8778C32.0897 15.1203 31.8857 15.2628 31.6153 15.2628C31.4648 15.2628 31.34 15.2234 31.2418 15.1623L31.3144 15.0056Z" fill="white"/>
<path d="M34.1558 13.8124C34.1558 13.6385 34.0359 13.5584 33.8571 13.5584C33.7009 13.5584 33.5447 13.6141 33.4195 13.673L33.3748 13.5084C33.4942 13.45 33.6845 13.3822 33.8854 13.3822C34.1691 13.3822 34.3674 13.5332 34.3674 13.7987C34.3674 14.3642 33.531 14.3748 33.3694 15.0586H34.2364L34.1979 15.2347H33.1044C33.2455 14.2558 34.1558 14.2859 34.1558 13.8124Z" fill="white"/>
<path d="M35.8059 13.9688C35.8059 13.6923 35.7169 13.5577 35.5306 13.5577C35.2182 13.5577 34.9611 14.0857 34.9611 14.6738C34.9611 14.9504 35.0531 15.0845 35.2412 15.0845C35.5528 15.0845 35.8059 14.557 35.8059 13.9688ZM34.7465 14.6459C34.7465 14.0299 35.0443 13.3829 35.5408 13.3829C35.8515 13.3829 36.0214 13.5909 36.0214 13.9963C36.0214 14.6158 35.7231 15.2628 35.2288 15.2628C34.9195 15.2628 34.7465 15.0526 34.7465 14.6459Z" fill="white"/>
<path d="M37.4213 13.9688C37.4213 13.6923 37.3319 13.5577 37.1456 13.5577C36.8331 13.5577 36.5765 14.0857 36.5765 14.6738C36.5765 14.9504 36.6685 15.0845 36.8557 15.0845C37.1681 15.0845 37.4213 14.557 37.4213 13.9688ZM36.3618 14.6459C36.3618 14.0299 36.6597 13.3829 37.1562 13.3829C37.466 13.3829 37.6363 13.5909 37.6363 13.9963C37.6363 14.6158 37.3381 15.2628 36.8438 15.2628C36.5344 15.2628 36.3618 15.0526 36.3618 14.6459Z" fill="white"/>
<path d="M39.114 13.8289C39.114 13.6359 38.9605 13.5501 38.7764 13.5501C38.5888 13.5501 38.4002 13.6558 38.4002 13.874C38.4002 14.0236 38.5148 14.1639 38.7034 14.2165C38.9237 14.155 39.114 14.0408 39.114 13.8289ZM39.0246 14.7325C39.0246 14.5489 38.86 14.4373 38.606 14.3727C38.3719 14.4396 38.2099 14.5847 38.2099 14.7794C38.2099 15.0118 38.4104 15.0919 38.5812 15.0919C38.8268 15.0919 39.0246 14.9587 39.0246 14.7325ZM37.9958 14.7945C37.9958 14.5232 38.1962 14.3643 38.4299 14.2829V14.2785C38.3051 14.2055 38.1843 14.0798 38.1843 13.8789C38.1843 13.5948 38.4299 13.3823 38.787 13.3823C39.1078 13.3823 39.3282 13.5532 39.3282 13.8151C39.3282 14.0625 39.1171 14.2249 38.91 14.2979V14.3028C39.1109 14.3749 39.2388 14.5148 39.2388 14.7237C39.2388 15.0675 38.9162 15.2622 38.5786 15.2622C38.2321 15.2622 37.9958 15.087 37.9958 14.7945Z" fill="white"/>
<path d="M24.9274 8.02446C24.9274 8.38115 24.7314 8.70862 24.338 9.00778C23.9707 9.29587 23.6016 9.43969 23.2285 9.43969C22.8457 9.43969 22.6541 9.29277 22.6541 8.99981C22.6541 8.78961 22.7019 8.68428 22.7957 8.68428C22.8329 8.68428 22.8519 8.70862 22.8519 8.75509C22.8519 8.77102 22.8488 8.79448 22.8431 8.82634C22.8378 8.8582 22.8351 8.88166 22.8351 8.89714C22.8351 9.10204 22.9697 9.20426 23.2369 9.20426C23.5144 9.20426 23.8295 9.07018 24.1809 8.80333C24.5314 8.53515 24.707 8.27096 24.707 8.00853C24.707 7.75142 24.4893 7.62353 24.0547 7.62353C23.9649 7.62353 23.8791 7.62795 23.7945 7.63902C23.344 7.68548 22.8298 7.87621 22.2536 8.209C21.6761 8.54223 21.1969 8.93166 20.8141 9.3773C20.3897 9.88002 20.1777 10.3633 20.1777 10.8244C20.1777 11.1129 20.2737 11.3337 20.4676 11.4847C20.641 11.6214 20.8773 11.6891 21.1752 11.6891C22.1302 11.6891 23.0559 11.3165 23.9525 10.5726C23.9733 10.5571 23.9954 10.5491 24.0154 10.5491C24.0782 10.5491 24.1092 10.5828 24.1092 10.6518C24.1092 10.6779 24.0986 10.7014 24.0782 10.7222C23.6954 11.0735 23.2418 11.3718 22.7178 11.6187C22.1403 11.8913 21.619 12.0281 21.1522 12.0281C20.7694 12.0281 20.46 11.9493 20.2237 11.7918C19.9458 11.6086 19.8073 11.3351 19.8073 10.974C19.8073 10.5434 19.9825 10.0747 20.3339 9.56493C20.7481 8.96308 21.2858 8.46169 21.9478 8.06385C22.6541 7.62795 23.352 7.41022 24.0384 7.41022C24.6309 7.41022 24.9274 7.61468 24.9274 8.02446Z" fill="white"/>
<path d="M27.1224 7.48938C27.1224 7.31591 27.064 7.22962 26.9494 7.22962C26.6661 7.22962 26.2652 7.66463 25.7461 8.5351C25.389 9.1334 25.0925 9.71799 24.8571 10.2898C25.1974 10.0694 25.6465 9.63878 26.2019 8.99976C26.8166 8.28639 27.1224 7.78323 27.1224 7.48938ZM27.3972 7.4261C27.3972 7.76774 27.1251 8.23594 26.579 8.83425C26.3488 9.08561 25.9346 9.48478 25.3363 10.0295C25.1952 10.1508 24.9956 10.3415 24.7385 10.6044C24.707 10.646 24.6508 10.7703 24.5699 10.9779C24.4884 11.185 24.4482 11.3125 24.4482 11.3594C24.4526 11.3647 24.4561 11.3718 24.4561 11.3833C24.5707 11.2306 24.7628 11.0075 25.0297 10.7141C25.3244 10.3893 25.5262 10.1871 25.6359 10.1088C25.6833 10.0773 25.7244 10.0614 25.7612 10.0614C25.882 10.0614 25.9422 10.1167 25.9422 10.2269C25.6904 10.7721 25.5647 11.123 25.5647 11.2797C25.5647 11.4634 25.6465 11.5554 25.8085 11.5554C25.9607 11.5554 26.1174 11.4802 26.2816 11.3279C26.3913 11.2332 26.5139 11.0921 26.6507 10.9031C26.7604 10.7509 26.8228 10.6748 26.8392 10.6748C26.8551 10.6748 26.8622 10.6902 26.8622 10.7221C26.8622 10.7588 26.8498 10.8031 26.8228 10.8549C26.4714 11.4479 26.0997 11.7439 25.7063 11.7439C25.4231 11.7439 25.2819 11.5735 25.2819 11.2332C25.2819 11.0075 25.339 10.738 25.4545 10.4234C25.3076 10.5548 25.1283 10.7491 24.9164 11.0093C24.7035 11.2686 24.5477 11.4846 24.4482 11.6581C24.3897 11.7006 24.322 11.7214 24.2428 11.7214C24.1017 11.7214 24.0309 11.6864 24.0309 11.6187C24.0309 11.4983 24.1441 11.1863 24.3694 10.6827C24.7044 9.92245 25.0801 9.21439 25.4939 8.55944C26.1347 7.54736 26.6551 7.04021 27.0596 7.04021C27.2844 7.04021 27.3972 7.16855 27.3972 7.4261Z" fill="white"/>
<path d="M27.5148 10.2108C27.5148 10.0953 27.4971 9.97754 27.4604 9.85628C27.4073 9.68901 27.3396 9.60537 27.2559 9.60537C27.1356 9.60537 27.0408 9.67883 26.9727 9.82575C26.9196 9.94081 26.897 10.0669 26.9019 10.2023C26.9855 10.1037 27.0692 10.0541 27.1537 10.0541C27.2316 10.0541 27.29 10.0802 27.3267 10.1315V10.1714C27.332 10.1864 27.3347 10.201 27.3347 10.2108C27.3347 10.2267 27.3077 10.2347 27.2559 10.2347C27.1608 10.2347 27.0621 10.3338 26.9563 10.5334C27.0249 10.7329 27.1457 10.8954 27.3188 11.021C27.4502 10.6909 27.5148 10.421 27.5148 10.2108ZM27.2559 11.1312C27.0829 11.0157 26.9519 10.8825 26.8621 10.7303C26.705 11.0604 26.6266 11.2994 26.6266 11.4459C26.6266 11.5503 26.666 11.603 26.7444 11.603C26.8178 11.603 26.9152 11.5406 27.0355 11.4144C27.14 11.3149 27.2134 11.2197 27.2559 11.1312ZM28.4432 10.8091C28.4432 10.8192 28.4379 10.829 28.4278 10.84C28.3543 10.9657 28.2432 11.0728 28.0941 11.1622C27.9441 11.252 27.798 11.2963 27.6564 11.2963C27.5515 11.2963 27.4546 11.2702 27.3661 11.2171C27.124 11.6008 26.8753 11.791 26.6187 11.791C26.4355 11.791 26.3439 11.684 26.3439 11.4698C26.3439 11.1706 26.4744 10.8192 26.7368 10.4152C26.7262 10.3581 26.7209 10.3001 26.7209 10.2417C26.7209 10.0541 26.7837 9.86956 26.9099 9.69166C27.0355 9.51376 27.1909 9.42481 27.3732 9.42481C27.494 9.42481 27.5909 9.49518 27.6644 9.63634C27.7228 9.7576 27.7516 9.88372 27.7516 10.0143C27.7516 10.297 27.6409 10.6568 27.4205 11.0914C27.4998 11.1392 27.5883 11.1622 27.6887 11.1622C27.8618 11.1622 28.0237 11.0945 28.176 10.9578C28.3277 10.8219 28.3985 10.7537 28.3888 10.7537C28.426 10.7537 28.4432 10.7723 28.4432 10.8091Z" fill="white"/>
<path d="M30.033 10.7302C30.033 10.751 30.0171 10.7793 29.9861 10.8161C29.8024 11.0842 29.5471 11.3281 29.2227 11.548C29.0338 11.6684 28.8337 11.729 28.6249 11.729C28.2359 11.729 28.0425 11.5219 28.0425 11.1077C28.0425 10.8501 28.185 10.5678 28.4713 10.258C28.7567 9.94825 29.0258 9.79425 29.2776 9.79425C29.4453 9.79425 29.5294 9.8593 29.5294 9.98985C29.5294 10.043 29.4905 10.1328 29.4152 10.2616C29.3396 10.3899 29.2776 10.4545 29.2307 10.4545C29.2094 10.4545 29.1984 10.4417 29.1984 10.4151C29.1984 10.3943 29.2077 10.3603 29.2267 10.3133C29.2444 10.2656 29.2541 10.2288 29.2541 10.2032C29.2541 10.0934 29.186 10.0381 29.0488 10.0381C28.8616 10.0381 28.6908 10.1611 28.5381 10.4076C28.397 10.6324 28.3266 10.8457 28.3266 11.0449C28.3266 11.3697 28.4673 11.5321 28.7514 11.5321C29.1072 11.5321 29.4794 11.2887 29.8671 10.8006C29.9202 10.7382 29.9649 10.7059 30.0016 10.7059C30.0224 10.7059 30.033 10.7143 30.033 10.7302Z" fill="white"/>
<path d="M30.6532 10.2108C30.6532 10.0953 30.6355 9.97754 30.5983 9.85628C30.5456 9.68901 30.4779 9.60537 30.3943 9.60537C30.2739 9.60537 30.1792 9.67883 30.1106 9.82575C30.058 9.94081 30.0354 10.0669 30.0403 10.2023C30.1235 10.1037 30.2075 10.0541 30.2921 10.0541C30.3699 10.0541 30.4279 10.0802 30.4651 10.1315V10.1714C30.4704 10.1864 30.4731 10.201 30.4731 10.2108C30.4731 10.2267 30.4461 10.2347 30.3943 10.2347C30.2991 10.2347 30.2005 10.3338 30.0947 10.5334C30.1633 10.7329 30.2841 10.8954 30.4571 11.021C30.5886 10.6909 30.6532 10.421 30.6532 10.2108ZM30.3943 11.1312C30.2208 11.0157 30.0903 10.8825 30.0004 10.7303C29.8429 11.0604 29.765 11.2994 29.765 11.4459C29.765 11.5503 29.8044 11.603 29.8827 11.603C29.9562 11.603 30.0535 11.5406 30.1739 11.4144C30.2783 11.3149 30.3518 11.2197 30.3943 11.1312ZM31.5816 10.8091C31.5816 10.8192 31.5763 10.829 31.5661 10.84C31.4927 10.9657 31.3816 11.0728 31.2324 11.1622C31.0824 11.252 30.9364 11.2963 30.7948 11.2963C30.6899 11.2963 30.593 11.2702 30.5045 11.2171C30.2624 11.6008 30.0133 11.791 29.757 11.791C29.5738 11.791 29.4822 11.684 29.4822 11.4698C29.4822 11.1706 29.6123 10.8192 29.8752 10.4152C29.8646 10.3581 29.8593 10.3001 29.8593 10.2417C29.8593 10.0541 29.9221 9.86956 30.0482 9.69166C30.1739 9.51376 30.3292 9.42481 30.5116 9.42481C30.6324 9.42481 30.7293 9.49518 30.8027 9.63634C30.8612 9.7576 30.8895 9.88372 30.8895 10.0143C30.8895 10.297 30.7793 10.6568 30.5589 11.0914C30.6381 11.1392 30.7266 11.1622 30.8271 11.1622C30.9997 11.1622 31.1621 11.0945 31.3143 10.9578C31.4661 10.8219 31.5369 10.7537 31.5272 10.7537C31.5644 10.7537 31.5816 10.7723 31.5816 10.8091Z" fill="white"/>
<path d="M33.8391 7.41081C33.8391 7.31036 33.805 7.26079 33.7373 7.26079C33.5846 7.26079 33.3992 7.40772 33.1788 7.70112C32.9266 8.04275 32.6407 8.5229 32.3207 9.14113C31.9694 9.81688 31.76 10.324 31.6914 10.6595C31.9804 10.4072 32.3685 9.9461 32.8558 9.27522C33.3594 8.57247 33.6638 8.064 33.7683 7.74891C33.8156 7.60243 33.8391 7.48958 33.8391 7.41081ZM34.1772 7.37939C34.1772 7.73519 33.8391 8.34191 33.1624 9.19556C32.6274 9.86246 32.1291 10.4099 31.6684 10.84C31.6684 11.4118 31.8118 11.6981 32.1003 11.6981C32.3898 11.6981 32.7973 11.4016 33.3284 10.809C33.3492 10.782 33.3691 10.7692 33.3908 10.7692C33.4169 10.7692 33.4302 10.7878 33.4302 10.8245C33.4302 10.8458 33.4226 10.8666 33.4058 10.8869C33.2222 11.1281 33.0129 11.3383 32.7779 11.5162C32.4787 11.7477 32.2132 11.8627 31.9831 11.8627C31.5897 11.8627 31.3927 11.5406 31.3927 10.8953C31.3927 10.4546 31.6105 9.86246 32.0455 9.11723C32.4026 8.50874 32.7823 7.98213 33.1863 7.53605C33.4744 7.22141 33.7156 7.06475 33.9099 7.06475C33.9727 7.06475 34.0325 7.10015 34.0904 7.17096C34.148 7.24088 34.1772 7.31036 34.1772 7.37939Z" fill="white"/>
<path d="M34.6178 9.95148C34.5962 9.94573 34.5727 9.94263 34.547 9.94263C34.3373 9.94263 34.1196 10.0772 33.8934 10.3445C33.5739 10.733 33.4142 11.0494 33.4142 11.2964C33.4142 11.4065 33.4509 11.4614 33.5243 11.4614C33.639 11.4614 33.789 11.3411 33.9726 11.0999C34.2297 10.7742 34.4448 10.3918 34.6178 9.95148ZM35.7737 10.7773C35.7737 10.8043 35.7574 10.841 35.7264 10.8879C35.4958 11.2641 35.2781 11.5048 35.0737 11.6101C34.9798 11.6575 34.8851 11.6818 34.7909 11.6818C34.4709 11.6818 34.3107 11.4543 34.3107 10.9994C34.3107 10.9255 34.3156 10.8459 34.3267 10.7618C33.9753 11.3853 33.6633 11.6973 33.3916 11.6973C33.2278 11.6973 33.1464 11.6083 33.1464 11.4304C33.1464 11.1578 33.2783 10.8277 33.5394 10.4427C33.8023 10.0572 34.0567 9.82314 34.3032 9.7395C34.3917 9.70277 34.4793 9.68419 34.5621 9.68419C34.7515 9.68419 34.8873 9.74968 34.9719 9.88067C34.9869 9.9059 34.9958 9.92448 34.9958 9.93599C34.9958 9.94086 34.9772 9.94882 34.9405 9.95944C34.9037 9.97007 34.8767 9.98821 34.8617 10.0143C34.7351 10.2188 34.6723 10.5255 34.6723 10.9348C34.6723 11.3123 34.7546 11.5008 34.9161 11.5008C35.0325 11.5008 35.1958 11.3738 35.4082 11.1198C35.6206 10.8644 35.7344 10.7374 35.7512 10.7374C35.7658 10.7374 35.7737 10.7516 35.7737 10.7773Z" fill="white"/>
<path d="M37.2687 10.7535C37.2687 10.7748 37.2594 10.8005 37.2373 10.8323C37.101 11.0208 36.8886 11.2151 36.6 11.4143C36.2801 11.6293 36.0186 11.7373 35.8141 11.7373C35.5145 11.7373 35.3649 11.5187 35.3649 11.0841C35.3649 10.7482 35.4601 10.3867 35.6482 9.99858C35.2817 9.99858 35.0981 9.93043 35.0981 9.79413C35.0981 9.76271 35.1238 9.74678 35.1769 9.74678C35.2397 9.74678 35.3393 9.75165 35.4751 9.76271C35.6114 9.77289 35.7136 9.7782 35.7818 9.7782C35.8141 9.72642 35.9292 9.51578 36.1287 9.14892C36.2801 8.86082 36.4067 8.67186 36.5058 8.58291C36.5792 8.50945 36.6815 8.47272 36.8125 8.47272C36.928 8.47272 36.985 8.49573 36.985 8.54308C36.985 8.54884 36.9828 8.55636 36.9784 8.56698C36.9049 8.6608 36.7996 8.79444 36.6629 8.96792C36.4323 9.27769 36.246 9.55561 36.1044 9.8021C36.1779 9.80652 36.2827 9.80918 36.419 9.80918C36.4558 9.80918 36.5111 9.80652 36.5846 9.8021H36.7496C36.8125 9.8021 36.8439 9.81759 36.8439 9.84901C36.8439 9.92778 36.5713 9.97424 36.0252 9.98973C35.9424 10.1212 35.8632 10.3048 35.7898 10.5416C35.7163 10.7774 35.6796 10.9708 35.6796 11.1231C35.6796 11.3961 35.7818 11.5324 35.9871 11.5324C36.1602 11.5324 36.3726 11.4435 36.6244 11.2642C36.8381 11.1129 37.0094 10.9527 37.1351 10.7845C37.1718 10.7381 37.2054 10.7142 37.2373 10.7142C37.2594 10.7142 37.2687 10.727 37.2687 10.7535Z" fill="white"/>
<path d="M38.0392 9.97479C38.0392 9.9115 38.0078 9.88053 37.945 9.88053C37.8662 9.88053 37.7507 10.0013 37.5994 10.2421C37.4675 10.4465 37.3865 10.6072 37.3555 10.7213C37.4918 10.6647 37.6334 10.562 37.7804 10.4151C37.9534 10.2469 38.0392 10.1 38.0392 9.97479ZM38.8097 10.809C38.8097 10.8187 38.8053 10.8346 38.7947 10.855C38.6637 11.0603 38.4667 11.2493 38.2052 11.4223C37.9264 11.606 37.6728 11.698 37.4414 11.698C37.1117 11.698 36.9457 11.4909 36.9457 11.0758C36.9457 10.8037 37.0643 10.5045 37.2998 10.1797C37.5516 9.83318 37.8113 9.66014 38.0786 9.66014C38.1317 9.66014 38.1773 9.68404 38.2167 9.73051C38.2561 9.7783 38.2756 9.82831 38.2756 9.88053C38.2756 10.0429 38.1521 10.2399 37.9056 10.4704C37.6852 10.6753 37.4834 10.8116 37.2998 10.8793C37.263 11.0108 37.2453 11.121 37.2453 11.2099C37.2453 11.4241 37.3423 11.5325 37.5365 11.5325C37.7193 11.5325 37.9264 11.4568 38.1583 11.3042C38.3565 11.1736 38.5274 11.0236 38.6685 10.855C38.7053 10.8037 38.742 10.7767 38.7787 10.7767C38.8 10.7767 38.8097 10.7877 38.8097 10.809Z" fill="white"/>
<path d="M41.1854 10.722C41.1854 10.7645 41.1704 10.8083 41.1394 10.8557C40.7296 11.5057 40.3238 11.8314 39.9193 11.8314C39.6259 11.8314 39.4799 11.6611 39.4799 11.3203C39.4799 10.9946 39.5901 10.6516 39.8091 10.2892C39.7777 10.3003 39.7436 10.3056 39.7069 10.3056C39.6237 10.3056 39.5418 10.279 39.4631 10.2268C39.3693 10.1688 39.3215 10.1038 39.3215 10.0303C39.2644 10.1604 39.1568 10.3467 38.9997 10.5879C38.8055 10.8924 38.6762 11.0446 38.6134 11.0446C38.593 11.0446 38.5824 11.034 38.5824 11.0128C38.5824 10.992 38.5957 10.9632 38.6218 10.9265C38.8263 10.6485 39.0334 10.2892 39.2427 9.84845C39.233 9.80198 39.2276 9.74401 39.2276 9.67586C39.2276 9.55505 39.2507 9.41653 39.298 9.25855C39.3507 9.05985 39.421 8.96072 39.5109 8.96072C39.5684 8.96072 39.6184 9.00763 39.6604 9.10189C39.6963 9.17535 39.7153 9.24616 39.7153 9.31387C39.7153 9.44486 39.6082 9.63647 39.3923 9.88783C39.4401 10.0502 39.5317 10.1321 39.6675 10.1321C39.7627 10.1321 39.8538 10.0812 39.9432 9.97811C40.0331 9.87677 40.095 9.82588 40.1317 9.82588C40.18 9.82588 40.2211 9.84535 40.2579 9.88385C40.2946 9.92323 40.3127 9.97014 40.3127 10.0224C40.3127 10.0162 40.2211 10.1927 40.0375 10.5485C39.8538 10.9061 39.7627 11.1809 39.7627 11.3752C39.7627 11.5588 39.8485 11.6504 40.0215 11.6504C40.1685 11.6504 40.3362 11.5659 40.5252 11.3982C40.646 11.288 40.7885 11.1314 40.95 10.9265C41.081 10.7587 41.1487 10.6755 41.1487 10.6755C41.1761 10.6755 41.1854 10.691 41.1854 10.722Z" fill="white"/>
<path d="M41.9642 9.32999C41.9642 9.39283 41.939 9.44948 41.8889 9.49904C41.8398 9.54905 41.7805 9.57383 41.7133 9.57383C41.5863 9.57383 41.5234 9.51099 41.5234 9.38531C41.5234 9.32114 41.5491 9.26538 41.5986 9.21537C41.6478 9.16625 41.7071 9.14103 41.7752 9.14103C41.9013 9.14103 41.9642 9.20431 41.9642 9.32999ZM42.4912 10.7536C42.4912 10.7904 42.4722 10.8324 42.4355 10.8793C41.9589 11.5143 41.5522 11.8307 41.2176 11.8307C40.9282 11.8307 40.7839 11.6767 40.7839 11.367C40.7839 11.2099 40.837 10.9952 40.9415 10.7222C41.0357 10.4704 41.1353 10.2739 41.2402 10.1319C41.2725 10.085 41.3092 10.0606 41.3504 10.0606C41.3982 10.0606 41.4407 10.0823 41.4805 10.1243C41.5199 10.1668 41.5398 10.2102 41.5398 10.258C41.5398 10.2837 41.5296 10.3133 41.5084 10.3443C41.2455 10.7536 41.115 11.0939 41.115 11.367C41.115 11.5555 41.1827 11.6502 41.319 11.6502C41.4716 11.6502 41.6416 11.5666 41.831 11.3988C41.9562 11.2886 42.0952 11.1364 42.2483 10.943C42.3788 10.7749 42.4465 10.6908 42.4527 10.6908C42.478 10.6908 42.4912 10.712 42.4912 10.7536Z" fill="white"/>
<path d="M43.2853 9.97479C43.2853 9.9115 43.2539 9.88053 43.191 9.88053C43.1123 9.88053 42.9968 10.0013 42.8454 10.2421C42.7136 10.4465 42.6326 10.6072 42.6016 10.7213C42.7379 10.6647 42.8795 10.562 43.0264 10.4151C43.1995 10.2469 43.2853 10.1 43.2853 9.97479ZM44.0558 10.809C44.0558 10.8187 44.0513 10.8346 44.0407 10.855C43.9097 11.0603 43.7128 11.2493 43.4513 11.4223C43.1725 11.606 42.9189 11.698 42.6874 11.698C42.3578 11.698 42.1918 11.4909 42.1918 11.0758C42.1918 10.8037 42.3104 10.5045 42.5458 10.1797C42.7976 9.83318 43.0574 9.66014 43.3247 9.66014C43.3778 9.66014 43.4234 9.68404 43.4628 9.73051C43.5021 9.7783 43.5216 9.82831 43.5216 9.88053C43.5216 10.0429 43.3982 10.2399 43.1517 10.4704C42.9313 10.6753 42.7295 10.8116 42.5458 10.8793C42.5091 11.0108 42.4914 11.121 42.4914 11.2099C42.4914 11.4241 42.5883 11.5325 42.7826 11.5325C42.9654 11.5325 43.1725 11.4568 43.4039 11.3042C43.6026 11.1736 43.7734 11.0236 43.9146 10.855C43.9513 10.8037 43.9881 10.7767 44.0248 10.7767C44.0465 10.7767 44.0558 10.7877 44.0558 10.809Z" fill="white"/>
<path d="M5.25449 50.7321L6.34135 52.0708L6.66706 51.8009L5.9236 50.8857L8.07476 49.2284L7.77163 48.8571L5.25449 50.7321Z" fill="white"/>
<path d="M9.19283 53.3994L9.88008 53.0768C10.1235 52.9653 10.2558 52.8945 10.3523 52.837L10.3593 52.8432C10.3107 52.9423 10.2443 53.0768 10.1239 53.3224L9.81193 54.0225L9.19283 53.3994ZM7.60722 53.5247L7.99798 53.9194L8.79499 53.5791L9.64067 54.4314L9.32028 55.2501C9.31098 55.2612 9.74821 55.6263 9.74821 55.6263C9.74821 55.6263 9.8168 55.428 9.92036 55.1293C10.0199 54.8368 10.1708 54.4336 10.3301 54.0314C10.6435 53.2291 10.9829 52.4511 10.9829 52.4511L10.7231 52.19C10.7231 52.19 9.96682 52.5462 9.18663 52.879C8.4091 53.2149 7.60722 53.5247 7.60722 53.5247Z" fill="white"/>
<path d="M12.4967 57.8706C12.9959 58.2047 13.4676 58.2671 13.8487 58.0281C14 57.9356 14.139 57.794 14.2615 57.6064L15.3511 55.9447L14.9519 55.6796L13.8637 57.2833C13.7668 57.4258 13.6646 57.5334 13.5508 57.5953C13.3141 57.7418 13.0406 57.725 12.7432 57.5263C12.4467 57.3227 12.3201 57.0895 12.3901 56.8081C12.4162 56.6815 12.4861 56.5496 12.5834 56.4195L13.7535 54.8622L13.3844 54.5569L12.1657 56.1261C12.0312 56.2983 11.9378 56.4753 11.8993 56.6452C11.7864 57.0917 11.9732 57.5427 12.4967 57.8706Z" fill="white"/>
<path d="M17.0772 58.6688L17.5729 57.7337L17.8056 57.8567C17.9733 57.9452 18.0592 58.0408 18.1035 58.1386C18.184 58.2785 18.1743 58.4466 18.0968 58.6042C18.0039 58.7909 17.8516 58.8834 17.6857 58.8936C17.568 58.8949 17.4534 58.867 17.3135 58.7931L17.0772 58.6688ZM15.8266 59.8964L16.2939 60.1451L16.8838 59.0343L17.1485 59.175C17.2171 59.2321 17.2587 59.4052 17.2741 59.7211L17.3498 60.7031C17.3498 60.7031 17.8853 60.9943 17.8928 60.9793C17.8928 60.9793 17.8578 60.7146 17.8344 60.4363C17.8105 60.1628 17.787 59.8897 17.787 59.8897C17.7596 59.5569 17.7246 59.3432 17.6614 59.2516L17.6658 59.2441C18.0574 59.3166 18.3911 59.1799 18.5717 58.7976C18.7022 58.5219 18.7142 58.2156 18.5203 57.9351C18.4225 57.7806 18.2641 57.6363 18.0065 57.4987L17.3418 57.1473L15.8266 59.8964Z" fill="white"/>
<path d="M20.0492 61.8573C20.0492 61.8573 20.4607 62.0232 20.8714 62.1896L21.722 62.4423L21.8507 62.0387C21.8507 62.0387 21.556 61.9524 21.2617 61.8653C21.113 61.825 20.9674 61.7767 20.8621 61.7294C20.7555 61.6856 20.6851 61.6573 20.6851 61.6573L21.0117 60.7518L21.1608 60.8125C21.2493 60.8496 21.3679 60.8988 21.4932 60.9297L21.9866 61.0749L22.1176 60.6722L21.6308 60.5297C21.5073 60.4991 21.3901 60.4496 21.3024 60.4124C21.2144 60.3766 21.1555 60.3536 21.1555 60.3536L21.4631 59.5021C21.4631 59.5021 21.5206 59.5247 21.6074 59.561C21.6923 59.5973 21.8065 59.6442 21.9269 59.6738C22.1641 59.7437 22.4017 59.8132 22.4017 59.8132L22.6641 59.449C22.6641 59.449 22.2827 59.3362 21.9016 59.2238C21.533 59.0733 21.1644 58.9219 21.1644 58.9219L20.0492 61.8573Z" fill="white"/>
<path d="M26.9422 63.6685L27.3962 60.5619L26.9276 60.473L26.6413 62.2325C26.613 62.425 26.5873 62.5989 26.5638 62.7649L26.555 62.7631C26.4767 62.5918 26.3806 62.4011 26.2536 62.1643C26.2536 62.1643 26.0023 61.6621 25.7513 61.1598C25.5181 60.6619 25.2858 60.1636 25.2858 60.1636L24.8242 60.0778L24.0976 63.1308L24.618 63.2308L25.0216 61.4036C25.0658 61.2036 25.0959 61.0434 25.1176 60.908L25.126 60.9098C25.1995 61.073 25.2792 61.2625 25.3924 61.4873C25.3924 61.4873 25.654 62.0095 25.916 62.5316L26.4811 63.5827L26.9422 63.6685Z" fill="white"/>
<path d="M30.1592 63.9796C30.1592 63.9796 30.2911 63.9894 30.423 64C30.5557 63.9991 30.6876 63.9982 30.6876 63.9982L30.7717 61.2837L31.5997 61.2766L31.7382 60.8514C31.7382 60.8514 31.1625 60.8567 30.5863 60.8629C30.0123 60.8146 29.4388 60.7655 29.4388 60.7655L29.4065 61.1877L30.2862 61.2669L30.1592 63.9796Z" fill="white"/>
<path d="M36.7963 63.6296L37.3154 63.5252L36.9999 61.6895C36.9787 61.567 36.9481 61.3895 36.9163 61.2594L36.9251 61.2576C37.0061 61.3638 37.1097 61.463 37.1911 61.5444C37.1911 61.5444 37.4216 61.7723 37.6526 61.9989C37.8894 62.225 38.1266 62.452 38.1266 62.452L38.3665 62.4033L38.805 61.2408C38.8404 61.1412 38.9077 60.9567 38.9338 60.8447L38.9387 60.8439C38.9696 60.9802 39.009 61.1496 39.04 61.2851L39.4746 63.0857C39.4746 63.0857 39.9928 62.9795 39.9897 62.9667L39.2046 59.9274C39.2077 59.9384 38.7749 60.0269 38.7749 60.0269C38.7749 60.0269 38.6599 60.3584 38.5452 60.6903C38.4235 61.0235 38.301 61.3567 38.301 61.3567C38.2328 61.5554 38.1788 61.7139 38.1346 61.8427L38.1248 61.8444C38.0235 61.74 37.9213 61.6347 37.7735 61.4829C37.7735 61.4829 37.5119 61.2235 37.2504 60.9633C36.9973 60.7014 36.7437 60.4394 36.7437 60.4394L36.3135 60.5274L36.7963 63.6296Z" fill="white"/>
<path d="M43.7464 61.3218C43.1463 61.5696 42.5941 61.3125 42.3502 60.6213C42.106 59.9287 42.325 59.3486 42.8764 59.1202C43.4508 58.883 43.9916 59.176 44.277 59.8265C44.5718 60.4978 44.3492 61.0731 43.7464 61.3218ZM43.9031 61.7161C44.7877 61.351 45.1785 60.5031 44.77 59.6229C44.3731 58.7666 43.5278 58.3936 42.7211 58.7268C42.3157 58.8901 42.0325 59.1994 41.8719 59.553C41.709 59.8973 41.6824 60.3266 41.8351 60.7779C41.9891 61.236 42.2785 61.567 42.6503 61.7458C43.018 61.9166 43.4548 61.8958 43.9031 61.7161Z" fill="white"/>
<path d="M47.2431 58.2271L46.72 57.3071L46.9532 57.1841C47.1196 57.0929 47.2524 57.0827 47.3524 57.0881C47.5086 57.0876 47.6431 57.1819 47.7339 57.3314C47.8427 57.5107 47.8423 57.6943 47.767 57.8474C47.7077 57.9523 47.6179 58.0267 47.4794 58.1019L47.2431 58.2271ZM47.6011 59.9287L48.0684 59.6795L47.448 58.5869L47.7131 58.4466C47.7985 58.4201 47.9715 58.4865 48.2441 58.6383L49.096 59.0733L49.6053 58.7369L48.6428 58.2661C48.3534 58.1205 48.1591 58.043 48.0512 58.0519L48.0463 58.0444C48.3043 57.7315 48.36 57.3629 48.1339 57.0044C47.9715 56.7464 47.7232 56.5787 47.3935 56.6106C47.2161 56.6181 47.0223 56.6955 46.7589 56.823L46.0943 57.1748L47.6011 59.9287Z" fill="white"/>
<path d="M51.5297 57.4281L52.9077 56.3098L52.636 55.9841L51.6824 56.7589L51.0929 55.9978L51.8908 55.3495L51.6208 55.022L50.834 55.6628L50.28 54.9472L51.0478 54.3219L50.884 53.9095L49.6494 54.914L51.5297 57.4281Z" fill="white"/>
<path d="M56.7251 52.5498L54.3461 50.5018L54.0429 50.8708L55.3749 52.0551C55.5228 52.1825 55.6555 52.2967 55.7825 52.4056L55.7768 52.4117C55.5958 52.3909 55.3887 52.3746 55.1285 52.3613C55.1285 52.3613 54.5602 52.2962 53.9925 52.2303C53.438 52.152 52.8839 52.0723 52.8839 52.0723L52.5507 52.4029L54.7404 54.6523L55.1161 54.2788L53.7898 52.9596C53.6446 52.8153 53.526 52.7043 53.4225 52.6131L53.4282 52.6069C53.6088 52.6343 53.815 52.672 54.0695 52.7016L55.2502 52.8366C55.5537 52.8711 55.8485 52.891 56.0622 52.8968C56.2808 52.9056 56.4264 52.9109 56.4264 52.9109L56.7251 52.5498Z" fill="white"/>
<path d="M58.8834 49.0652C58.5227 49.6078 57.9169 49.7082 57.3226 49.279C56.726 48.8506 56.5809 48.2527 56.9128 47.7544C57.2575 47.2376 57.8731 47.1747 58.4785 47.5447C59.1033 47.9284 59.2436 48.524 58.8834 49.0652ZM59.2365 49.2993C59.7654 48.505 59.6118 47.5916 58.7741 47.1013C57.9594 46.6238 57.0446 46.7928 56.5601 47.5203C56.0786 48.243 56.2609 49.1551 57.0238 49.7277C57.7961 50.3083 58.698 50.107 59.2365 49.2993Z" fill="white"/>
<path d="M12.0459 11.2475L12.6881 10.666C13.0363 10.4084 13.3851 10.1518 13.3851 10.1518L13.0877 9.76633C13.0877 9.76633 12.8421 9.94733 12.5965 10.1274C12.3411 10.296 12.1287 10.5173 12.1287 10.5173L10.1315 8.12231L9.69122 8.51838L12.0459 11.2475Z" fill="white"/>
<path d="M15.2267 8.79712L16.7623 7.89037L16.5175 7.46996L15.4232 8.11695L14.8302 7.18409L15.8068 6.60702L15.559 6.1875L14.5686 6.77386L14.0106 5.89675L15.0359 5.28871L14.9355 4.78334L13.2401 5.78922L15.2267 8.79712Z" fill="white"/>
<path d="M21.939 4.97595L21.566 3.91785L22.043 3.74969C22.4103 3.62047 22.7086 3.7342 22.8117 4.06345C22.9316 4.45066 22.7431 4.69096 22.347 4.83169L21.939 4.97595ZM21.4075 3.46956L21.0562 2.4743L21.3819 2.3588C21.7979 2.21232 22.0448 2.36322 22.1364 2.6491C22.2346 2.95711 22.0992 3.22528 21.7235 3.35804L21.4075 3.46956ZM21.5961 5.60126L22.5422 5.2667C23.2596 5.01224 23.4972 4.42146 23.341 3.88245C23.2175 3.4616 22.8706 3.20935 22.4506 3.25759L22.4475 3.24785C22.6759 3.02791 22.7458 2.69645 22.6493 2.3765C22.5134 1.92069 22.0514 1.61888 21.2974 1.8844L20.3393 2.2225L21.5961 5.60126Z" fill="white"/>
<path d="M27.4115 3.61204C26.7552 3.71293 26.2096 3.26199 26.0427 2.45215C25.8702 1.61133 26.2494 1.04002 26.9694 0.929387C27.7173 0.817868 28.2399 1.29359 28.3404 2.10211C28.4444 2.9385 28.0682 3.51424 27.4115 3.61204ZM27.4907 4.09219C28.4236 3.95367 29.0436 3.12392 28.9285 2.01493C28.8179 0.937795 27.9775 0.286383 26.8902 0.449678C25.8029 0.582439 25.2174 1.52902 25.4608 2.59642C25.7069 3.67665 26.5366 4.20326 27.4907 4.09219Z" fill="white"/>
<path d="M34.48 3.67083L34.6902 0.0712483L34.0977 0.0464664L34.0127 2.09009C34.0078 2.31446 34.0025 2.51714 33.9976 2.70787L33.987 2.70743C33.8848 2.5282 33.7556 2.32552 33.5825 2.07637C33.5825 2.07637 33.2064 1.54754 32.8307 1.01827C32.4448 0.472627 32.0332 0 32.0332 0L31.4526 0.0292072L31.5743 3.63233L32.1049 3.604L32.0686 1.45373C32.0646 1.21918 32.0562 1.03376 32.0421 0.875776L32.054 0.874891C32.1815 1.03863 32.3253 1.22449 32.501 1.4493C32.501 1.4493 32.8904 2.0007 33.2803 2.55121L34.0096 3.65047L34.48 3.67083Z" fill="white"/>
<path d="M37.0643 3.93228L37.5905 4.00574L37.841 2.42899L38.7114 2.55069C39.1429 2.6299 39.5677 2.74408 39.5677 2.74408L39.2341 4.30666L39.7509 4.43146L40.5639 0.919065L39.9873 0.781438L39.67 2.26747C39.67 2.26747 39.2385 2.15197 38.8004 2.07187C38.3592 2.00903 37.9175 1.94751 37.9175 1.94751L38.156 0.445554L37.5697 0.363243L37.0643 3.93228Z" fill="white"/>
<path d="M42.2563 5.11386L43.9411 5.69845L44.1154 5.24485L42.9148 4.82799L43.2702 3.78095L44.3411 4.154L44.5137 3.69864L43.4273 3.31983L43.7605 2.33695L44.8863 2.72771L45.2191 2.32899L43.3569 1.68068L42.2563 5.11386Z" fill="white"/>
<path d="M47.3632 7.30274C47.8796 7.60942 48.3624 7.61606 48.7691 7.31026C48.9293 7.18857 49.0789 7.01686 49.2095 6.79515L50.3636 4.8272L49.8529 4.52628L48.7585 6.46414C48.6625 6.63673 48.5558 6.77126 48.4381 6.85313C48.193 7.04519 47.9084 7.06156 47.592 6.87216C47.2698 6.69027 47.1083 6.46547 47.1326 6.15038C47.1388 6.00877 47.1911 5.84636 47.2743 5.67997L48.2726 3.67794L47.7345 3.42791L46.7512 5.48614C46.6428 5.71316 46.5795 5.93044 46.572 6.12648C46.5348 6.64735 46.818 7.01731 47.3632 7.30274Z" fill="white"/>
<path d="M52.2596 8.08194L52.9734 7.09863L53.2292 7.28759C53.4128 7.42345 53.5 7.54868 53.5341 7.66817C53.604 7.84297 53.5593 8.02706 53.4345 8.18638C53.2876 8.37755 53.0933 8.45145 52.9039 8.4342C52.7681 8.41605 52.6446 8.3656 52.5021 8.25984L52.2596 8.08194ZM50.7023 9.31882L51.1307 9.63479L51.9799 8.46606L52.2445 8.6621C52.3078 8.736 52.3198 8.9347 52.2658 9.28209L52.0994 10.3468L52.5937 10.7093L52.7884 9.53788C52.8402 9.17544 52.849 8.93736 52.7999 8.82628L52.8061 8.81787C53.2279 8.95771 53.6478 8.87363 53.9523 8.49438C54.1713 8.22045 54.255 7.88855 54.0718 7.52877C53.9824 7.33317 53.8138 7.13359 53.5226 6.91984L52.7729 6.368L50.7023 9.31882Z" fill="white"/>
<path d="M10.0429 36.4569L11.2165 37.2632C10.8864 36.6034 10.4098 35.8334 10.2996 36.017C10.1898 36.2002 9.52955 36.017 9.52955 36.017C7.95236 35.7971 8.35595 32.9728 8.35595 32.9728C6.92568 37.3734 10.0429 36.4569 10.0429 36.4569ZM8.31922 32.2763C7.40229 32.0926 7.58594 30.8451 7.58594 30.8451C7.58594 30.8451 8.39268 30.4787 8.09928 30.0021C7.80588 29.5255 6.92568 30.1857 6.92568 30.1857C6.85222 32.8994 8.31922 32.2763 8.31922 32.2763ZM56.5825 32.4962C57.7924 31.5793 56.179 28.9387 56.6193 30.2225C57.0592 31.5058 55.9223 32.4227 55.9223 32.4227C56.5458 33.4131 56.4356 35.0266 56.4356 35.0266C57.5358 34.5491 56.5825 32.4962 56.5825 32.4962ZM29.0967 39.5334L29.0905 39.5281L29.0883 39.5352C29.0905 39.5334 29.0936 39.5334 29.0967 39.5334ZM27.5106 24.3151C27.485 24.1203 27.3757 24.004 27.2256 23.9292C27.0756 23.857 26.8871 23.8225 26.699 23.7911C26.7092 24.0053 26.8154 24.1234 26.9685 24.1947C27.1208 24.262 27.3164 24.2872 27.5106 24.3151ZM25.0776 27.08C25.136 26.6534 26.4512 26.7618 26.8521 26.8384C26.4548 26.4503 25.2568 25.9458 24.6222 26.2308C24.3005 26.3768 24.1399 26.7579 24.2257 27.1123C24.2456 27.188 24.2731 27.2628 24.3173 27.3331C24.5899 27.0092 24.8678 27.0256 24.9254 27.2876L24.9236 27.2907C24.9254 27.2969 24.9307 27.2991 24.9307 27.2991C24.8638 27.5341 24.6005 27.5916 24.6085 27.9182C24.8129 27.8606 24.8174 27.8598 24.9435 27.8368C25.1342 27.8182 25.1754 27.7991 25.2214 27.881C25.2409 27.9155 25.3418 28.1943 25.702 28.0562C25.7892 27.5491 26.1069 27.7314 26.3888 27.6832C26.3893 27.5978 26.3729 27.5283 26.3459 27.4703C26.133 27.0805 25.3351 27.2623 25.0842 27.0964L25.0904 27.0844C25.0869 27.0822 25.0802 27.0818 25.0776 27.08ZM26.295 20.6456C25.9175 19.8419 24.7138 19.0082 24.0536 18.1563C24.4027 19.3755 25.4325 19.9264 26.295 20.6456ZM26.1892 21.0704C25.8396 20.669 25.6263 20.1304 24.9661 20.0287C25.1887 20.5132 25.8042 21.0686 26.1892 21.0704ZM24.1629 17.7354C24.3939 18.22 25.0112 18.8086 25.4648 18.7754C24.8722 18.5816 24.7727 17.912 24.1629 17.7354ZM24.5979 17.1128C24.9984 17.6407 25.2825 18.1275 25.8264 18.5298C26.3609 18.9237 27.1017 19.1573 27.7523 18.9405C27.7872 18.9161 27.7886 18.8644 27.7439 18.8489C27.6266 18.8086 27.5164 18.7829 27.4093 18.7568C27.1739 18.5979 27.0159 18.447 26.9256 18.166C26.8623 17.9664 26.7933 17.8062 26.6619 17.6403C26.615 17.5801 26.5596 17.5199 26.4999 17.4606C26.5101 17.4646 26.5202 17.4673 26.5304 17.4704C26.5225 17.462 26.5167 17.4536 26.5079 17.4451C26.7459 17.5182 26.9902 17.5766 27.2124 17.6589C27.5204 17.7735 27.8359 17.889 28.1435 18.0204C28.2054 18.0541 28.2691 18.0926 28.3311 18.1284C28.5873 18.2479 28.8378 18.3776 29.0662 18.5382C29.0772 18.5435 29.0852 18.5298 29.0785 18.5227C28.2169 17.6483 27.1265 17.4075 26.01 17.1031C25.8542 17.0261 25.6883 16.98 25.5228 16.9853C25.5108 16.9853 25.5029 17.0013 25.5126 17.0088C25.5617 17.05 25.606 17.0893 25.6529 17.1292C25.6631 17.1314 25.6715 17.1323 25.6816 17.1345C25.8246 17.2553 25.9604 17.3783 26.0733 17.5438C26.214 17.7545 26.2977 18.0293 26.4654 18.22C26.4764 18.2311 26.4879 18.2457 26.4999 18.2603C26.4857 18.2497 26.4707 18.2417 26.457 18.2311L26.4578 18.2324C26.4689 18.2461 26.4813 18.2607 26.4928 18.274C26.3149 18.1448 26.1277 18.0284 25.9445 17.9032C25.529 17.6199 25.0922 17.2668 24.6191 17.1013C24.6112 17.0986 24.6027 17.1022 24.5988 17.1075L24.5979 17.1128ZM29.6583 22.8219C29.4042 22.8941 29.1476 22.9888 28.8816 22.9888L28.8785 22.9879C28.8741 22.9879 28.8706 22.9888 28.8666 22.9888C28.5041 22.9897 28.3674 22.6861 28.0727 22.6237C27.8142 23.0122 28.5864 23.3848 28.8776 23.4172C29.1498 23.4415 29.3503 23.3548 29.5782 23.2025C29.7751 23.0693 30.0393 22.8224 30.3004 22.8211C30.3371 22.8188 30.3734 22.8215 30.4097 22.8295C30.4336 22.829 30.4593 22.8095 30.45 22.7843C30.4088 22.6883 30.3137 22.6609 30.2004 22.6675C30.0052 22.6843 29.7658 22.7914 29.6583 22.8219ZM23.6106 29.7804C23.6132 29.722 23.6084 29.675 23.6008 29.6317C23.5685 29.4963 23.4814 29.4418 23.357 29.4724C23.1596 29.5215 23.107 29.5595 23.1318 29.6896C23.1437 29.7392 23.1649 29.8012 23.1937 29.8813C23.3685 29.891 23.5128 29.86 23.6106 29.7804ZM30.0141 31.6775C30.0278 31.6903 30.0402 31.7054 30.0619 31.7072C30.2521 31.72 30.3725 31.5917 30.5088 31.4731C30.6699 31.3332 30.7721 31.169 30.8655 30.9788C30.8699 30.9712 30.8633 30.9637 30.8633 30.9637C30.8549 30.9544 30.8505 30.9487 30.8429 30.9526C30.7071 31.054 30.5571 31.1314 30.4287 31.2376C30.28 31.3571 30.0906 31.4248 30.0141 31.6049C30.0017 31.631 30.0052 31.6554 30.0141 31.6775ZM38.5262 31.6926C38.5846 31.7386 38.6413 31.7775 38.6997 31.8129C38.7723 31.8461 38.8475 31.8753 38.9316 31.893C38.9604 31.8983 38.9829 31.9098 38.9997 31.924C39.098 31.951 39.1152 32.0448 39.0798 32.1196C39.1365 32.2338 39.2144 32.3126 39.306 32.367C39.5817 32.4958 39.9614 32.4382 40.2919 32.4006C40.3291 32.3984 40.3658 32.3931 40.4039 32.3891C40.4092 32.3882 40.4141 32.3882 40.4194 32.3873C40.4398 32.3847 40.4592 32.3834 40.4805 32.3785C40.7048 32.3356 40.6831 32.0581 40.526 31.959C40.5097 31.9537 40.4951 31.9479 40.4765 31.947C40.2614 31.936 40.0494 31.9652 39.8335 31.9607C39.7498 31.9607 39.6476 31.9528 39.5449 31.936C39.5427 31.9302 39.5414 31.9231 39.5392 31.916C39.5219 31.9138 39.5073 31.9147 39.4896 31.9121C39.4808 31.8855 39.4733 31.8581 39.4666 31.8311C39.8884 31.181 41.5377 31.7824 41.6713 30.8402C40.6079 31.1053 39.2905 30.9774 38.5262 31.6926ZM39.98 29.5591C39.9485 29.7038 40.0056 29.7954 40.0866 29.837C40.2189 29.8636 40.3712 29.7737 40.3389 29.5618L39.98 29.5591ZM40.5402 26.8207C40.9863 26.6415 41.4377 26.4671 41.8329 26.2348C41.747 26.0741 41.6244 25.9927 41.4899 25.9679C41.0832 25.94 40.5898 26.3826 40.5402 26.8207ZM41.4797 22.7595C41.0757 22.2298 41.2195 21.1562 40.6482 20.792C40.3942 21.5815 40.7686 22.5918 41.4797 22.7595ZM43.5574 21.6191C43.3543 20.2977 41.8948 20.2353 41.4793 19.1334C40.8248 20.8969 42.9228 20.7934 43.5574 21.6191ZM42.8666 26.2175C42.8224 26.2215 42.7746 26.2312 42.7228 26.2476C43.2096 26.8278 42.4674 26.8096 42.5006 27.4863C43.2105 27.4398 43.437 26.2538 42.8666 26.2175ZM42.6232 22.6573C42.8927 22.4807 43.1498 22.2838 43.141 21.8271C42.2068 22.0342 42.1086 21.4098 41.4793 21.308C41.3921 22.2298 41.8426 22.6069 42.6232 22.6573ZM42.3435 26.7601C42.2595 26.7424 42.178 26.7331 42.0988 26.7269C40.9668 26.6671 40.3402 27.654 41.1058 27.8456C41.2983 27.881 41.5611 27.8739 41.916 27.7965C42.113 27.6155 41.8749 27.4956 41.8222 27.2778C42.0351 27.1464 42.3488 27.1159 42.3435 26.7601ZM38.7802 20.6858C38.5687 21.1616 38.2049 21.4957 38.054 22.0342C38.6156 22.0227 39.3347 21.1332 38.7802 20.6858ZM18.4095 33.2118C18.6529 32.6582 19.0441 32.251 19.53 32.2294C20.6474 32.182 21.27 33.9229 22.2033 34.65C22.6065 34.9558 23.014 34.8284 23.0503 35.0735C23.0747 35.1395 23.064 35.2412 23.0008 35.4059C22.7109 36.1719 22.4272 35.2284 21.8873 35.5231C21.8993 36.021 22.1878 35.8471 22.2228 36.2644C22.2308 36.3188 22.2334 36.3856 22.2294 36.4671C21.8971 36.7012 21.5479 37.1866 21.3913 37.7163C21.4656 37.7606 21.5373 37.8124 21.601 37.8712C21.8108 37.4831 22.1139 37.1441 22.3772 36.8322C23.3951 35.6289 24.8966 34.3035 26.1525 33.4384C26.8132 32.983 27.2513 32.59 27.4478 32.3626C26.9792 32.5382 26.4468 32.7706 25.6516 32.8856C25.3626 32.9259 25.0077 32.8285 24.7585 33.0166C24.6815 33.0728 24.5288 33.3733 24.2518 33.5154C23.9642 33.6605 23.6924 33.7481 23.376 33.7039C23.0388 33.6579 22.9459 33.4605 22.9503 33.2954C22.9424 33.1843 22.9791 33.0817 23.0255 33.0392C23.3194 32.7781 23.7695 32.7785 23.9721 32.3949C23.9938 32.3143 23.9978 32.2519 23.992 32.1988C23.9828 32.1528 23.9673 32.1143 23.9385 32.0882C23.9173 32.0736 23.8938 32.0599 23.8708 32.0417C23.6066 31.9293 23.0388 32.132 22.9755 31.805C22.9614 31.7634 22.9574 31.7103 22.9658 31.6448C23.3977 31.6718 23.6309 31.4965 23.9938 31.4531C24.2469 31.412 24.4956 31.3735 24.7209 31.2301C24.9041 31.1146 24.9625 31.0146 24.9214 30.911C24.9001 30.8743 24.8674 30.8371 24.8218 30.7982C23.9252 30.973 22.3989 31.2695 22.3525 30.2902C22.348 30.2256 22.3498 30.1548 22.3586 30.0769C22.695 30.0893 22.4264 30.6986 22.8715 30.6022C22.9202 30.4101 22.941 30.2477 22.941 30.1074C22.9269 29.2892 22.1985 29.2967 22.2166 28.9006C22.2144 28.8333 22.2334 28.7568 22.283 28.6603C22.5821 28.0819 22.7507 27.7137 22.7857 27.3548C22.8158 27.0008 22.7189 26.653 22.4874 26.1206C22.04 25.0864 21.5939 25.0833 20.5451 25.6882C20.5509 25.6803 20.5589 25.6763 20.5642 25.6692C21.2085 24.839 22.5481 24.8337 23.342 25.2081C23.3451 24.3779 22.5233 24.2336 22.1135 23.7433C23.0702 23.7991 23.6442 24.5695 24.0602 24.5226C23.8261 24.2881 23.6907 24.0606 23.6601 23.9106C23.6265 23.7592 23.6978 23.684 23.8796 23.757C24.6147 24.0518 25.5343 24.4589 26.264 24.3022C25.0271 23.7924 23.6106 23.1946 22.8587 22.0803C22.8671 22.0205 22.9092 21.9931 22.9671 21.9829C22.9755 21.9811 22.9848 21.982 22.9937 21.9811C23.0154 21.978 23.0379 21.9754 23.0636 21.9758C23.1096 21.9776 23.1415 21.9798 23.1734 21.9816C23.1477 21.4496 22.3958 21.0961 22.5538 20.7208C22.5812 20.7367 22.6029 20.7544 22.6255 20.7686C22.6498 20.7854 22.6751 20.8 22.7012 20.8195C22.7388 20.8487 22.7782 20.8823 22.8176 20.9159C22.8291 20.9244 22.8388 20.9328 22.8494 20.9416C23.1495 21.1987 23.476 21.4943 23.9049 21.258C23.5681 20.8792 22.9092 20.4393 22.4348 19.9468C21.9582 19.4551 21.6648 18.9113 22.0626 18.3222L22.0652 18.3422C22.0772 18.6143 22.1347 18.8471 22.2489 19.0241C22.3662 19.2002 22.5396 19.3193 22.7804 19.3733C22.6419 18.9489 22.533 18.497 22.2542 18.2098C22.2281 18.1837 22.2091 18.1505 22.1803 18.1271C22.406 17.5845 23.1375 17.4195 23.6486 17.2066C23.6809 17.1889 23.7101 17.1681 23.7425 17.1509C23.8075 17.1212 23.8637 17.0885 23.9177 17.0548C23.7734 17.0579 23.6371 17.0708 23.4991 17.0823C25.2847 16.4809 27.3438 17.0261 28.9653 17.9788C29.4215 18.247 29.8247 18.5528 30.1809 18.8887C30.5371 18.986 30.8319 19.2936 30.9576 19.6428C30.9708 19.6795 30.9819 19.7198 30.9938 19.7587C30.6827 19.4237 30.2964 19.1971 29.7831 19.1489C30.808 20.0968 31.5134 21.3541 31.8121 23.0087C31.8006 23.0087 31.7939 23.0056 31.7838 23.0047C31.7284 23.01 31.6833 23.0003 31.6404 22.9866C31.6351 22.9804 31.6289 22.9728 31.6249 22.9689C31.4722 22.8277 31.2465 22.6932 31.0248 22.6737C30.9571 22.6706 30.889 22.6741 30.8248 22.6958C30.8027 22.7038 30.8027 22.733 30.8248 22.7418C30.9673 22.7927 31.1045 22.9175 31.2102 23.0689C31.2275 23.1074 31.2496 23.1397 31.2771 23.1689C31.366 23.3211 31.4249 23.4866 31.4222 23.6287C31.4222 23.6566 31.4249 23.688 31.4302 23.7176C31.4222 23.7092 31.4111 23.7026 31.4032 23.6946L31.4036 23.7083C31.1567 23.4946 30.8204 23.2795 30.5208 23.2707C30.3433 23.2724 30.1796 23.3481 30.0579 23.5428C31.1616 23.7504 31.6262 25.0492 31.8408 26.0184C31.9271 26.4144 31.8612 26.853 31.7966 27.2991C31.7948 27.311 31.8046 27.3159 31.8103 27.3234C31.8205 27.3221 31.8307 27.3256 31.8386 27.3154C32.0612 26.9831 32.2573 26.4534 32.2891 26.0215C32.2958 26.0489 32.2993 26.0852 32.3064 26.114C32.3091 26.0865 32.317 26.0578 32.3188 26.0308C32.3856 26.2927 32.4215 26.6162 32.4564 26.9543C32.3573 27.1291 32.2608 27.3044 32.1794 27.5031C31.9754 28.0027 31.7125 28.4806 31.4067 28.9258C31.4098 28.9055 31.4054 28.8833 31.4054 28.8617C31.3957 28.8763 31.3877 28.8922 31.3775 28.9068C31.3903 28.8218 31.3771 28.7324 31.3178 28.6298C30.8363 28.4594 30.5217 29.4759 30.2685 29.1537C30.2614 29.1427 30.2521 29.1449 30.2437 29.1343C30.2424 28.7466 30.916 28.5085 30.7987 27.9965C30.5796 27.9053 30.3725 28.1465 30.3172 28.0554C30.2968 28.0492 30.2809 28.031 30.2791 27.9828C30.7164 27.7319 31.5479 26.4109 30.6341 26.021C30.4008 26.2419 30.696 26.9933 30.2088 26.9543C29.9517 26.5946 29.9556 25.6462 29.5016 25.5077C29.2007 27.573 29.229 27.8306 29.1803 29.6038C29.1542 30.6438 28.8285 30.8752 28.3988 31.4142C28.9299 30.9973 29.6614 30.334 30.5885 29.8959C30.631 29.8777 30.6978 29.8848 30.7257 29.9184C30.7677 29.9344 30.7907 29.9707 30.7372 30.0344C30.3606 30.4849 30.0424 30.5194 29.7003 31.0969C30.0937 31.2155 31.0593 29.9242 31.2859 30.1543C31.301 30.1707 31.3085 30.1707 31.3133 30.176C31.4266 30.291 31.4187 30.4096 31.3859 30.5765C31.2753 31.1509 31.0257 31.8536 30.0512 32.8409C29.7707 33.1255 28.7905 33.5322 28.4032 33.8849C28.0275 34.1845 27.0274 36.0064 26.9252 36.314C26.4897 37.1517 26.2954 38.0168 25.7339 38.7833C25.9157 38.8696 26.9039 38.978 27.2978 38.6727C27.5407 38.4837 27.5363 38.2819 27.458 38.0726C27.3783 37.8889 27.2522 37.7013 27.1894 37.5115C27.111 37.3083 27.0942 37.1039 27.281 36.9021C27.7709 36.3688 28.4971 36.1024 28.8639 35.4563C29.1038 35.1386 29.6065 33.88 29.9459 33.3609C30.1902 32.983 31.0947 32.2422 31.5399 31.712C31.6554 31.5748 32.0316 30.2627 32.2108 30.4986C32.2489 30.5114 32.2812 30.5698 32.3042 30.7013C32.4038 31.2783 31.9121 32.6312 31.3536 33.3804C30.8146 34.1057 30.5186 34.9855 30.1313 36.6609C29.8879 37.7071 28.786 39.5887 28.7728 39.6285C28.3497 40.9796 28.9299 41.1982 29.1188 42.6696C29.2197 42.9825 29.8583 42.7577 29.8446 43.1896C29.0378 43.2117 28.9484 44.7615 27.9722 44.9531C26.576 44.3986 25.9901 42.5325 26.31 40.5964C25.2267 40.865 24.1859 42.0643 23.9226 43.5007C24.0739 43.66 24.4554 43.5932 24.7514 43.6047C25.6622 45.154 27.7213 45.5523 29.5326 46.1971C27.2093 45.994 25.5838 45.0912 23.8195 44.3327C24.2726 45.4691 25.8551 45.4758 26.7238 46.1971C26.4193 46.2272 26.095 45.9077 26.0007 46.3042C27.03 46.7095 28.9453 46.9264 29.8446 46.8237C31.1766 46.6693 33.045 47.0569 34.0004 46.3042C32.2121 46.4299 31.1903 45.7904 30.3615 44.9531C30.6031 44.7766 30.2645 44.0247 30.7788 44.1234C30.9739 44.2752 30.7934 44.8027 30.9868 44.9531C31.4346 45.0899 31.1124 44.4601 31.5058 44.5367C31.3744 45.0584 31.22 45.328 31.6081 45.6798C32.8317 45.328 34.3726 45.682 35.3502 44.9531C34.839 44.6876 34.0951 44.985 33.5831 45.0584C33.4906 44.8721 33.2937 44.7934 33.3756 44.4323C34.0482 44.3128 34.4483 43.9154 34.7257 43.3963C34.5133 43.1772 33.8862 43.6021 33.5831 43.2927C33.7544 43.0418 33.8517 42.7891 33.688 42.4661H32.9644C32.8069 41.6846 32.4808 41.0761 31.9223 40.6981C31.7833 40.0242 32.3834 39.232 32.6768 38.9878C32.9228 38.8448 33.1808 38.6842 33.422 38.5266C34.7235 37.6663 35.5927 37.2411 36.2317 36.3542C36.3636 36.1139 36.4937 35.8497 36.6348 35.5311C36.8269 35.5771 36.9955 35.7891 37.1548 35.7471C36.9911 33.9849 34.2314 33.9937 35.0227 30.8363C35.0337 30.8522 35.0475 30.8699 35.0581 30.8863C35.0603 30.8765 35.0612 30.8686 35.0634 30.8588C35.594 31.6793 36.5932 32.706 37.2548 33.0657C37.3478 33.1122 37.4336 33.1463 37.5084 33.1613C35.0979 30.4163 35.6338 29.7073 36.2963 28.9537C36.5446 28.6705 35.8299 28.501 36.2981 28.4638C36.8995 28.4125 37.1008 28.0191 37.8633 28.1687C37.8819 28.1784 37.8952 28.1779 37.9124 28.181C38.3258 28.9696 37.862 30.6154 38.6422 31.0376C38.6811 31.0553 38.7192 31.0735 38.7639 31.0845C39.0356 30.7716 39.2608 30.5309 39.2015 29.8689C39.1896 29.8352 39.1475 29.8149 39.094 29.7985C39.0396 29.7848 38.9794 29.7697 38.9188 29.7512C38.6975 29.6936 38.4625 29.5865 38.6771 29.1086C39.3144 27.6907 38.7758 26.4069 37.6084 26.1126C36.9344 26.3343 35.8369 26.7747 35.2085 27.4243C35.224 27.3955 35.2329 27.3681 35.2475 27.3398C35.2218 27.3646 35.1926 27.3876 35.1683 27.4128C35.7042 26.4352 35.91 25.4179 35.948 24.5646C35.7865 24.7598 35.4749 24.9567 35.2979 25.0045C35.1944 25.032 35.0935 25.0373 34.9975 25.0306C34.7262 25.0231 34.4916 24.8873 34.358 24.6509C34.3447 24.6266 34.3562 24.5952 34.3872 24.6031C34.3969 24.6054 34.4071 24.6067 34.4168 24.6089C34.5045 24.6248 34.5872 24.6421 34.6713 24.6532C34.7585 24.662 34.8465 24.6642 34.943 24.6452C35.1439 24.6067 35.4068 24.4854 35.5537 24.1513C35.5736 24.1066 35.5949 24.0672 35.6157 24.023H35.6551C36.5114 22.2126 37.669 22.2121 38.2943 20.885C37.9058 21.0961 37.034 21.3102 36.5158 21.0903C36.6596 20.9721 36.795 20.8562 36.9158 20.7659C37.6535 20.2185 38.2594 19.745 38.7347 18.9489C38.7763 18.8754 38.6931 18.7966 38.6209 18.8369C38.4629 18.9263 38.3089 19.013 38.1602 19.1007C38.0182 19.1662 37.8863 19.2564 37.7615 19.3454C37.6571 19.4109 37.5553 19.4786 37.4553 19.5503C37.2907 19.6428 37.1283 19.6901 36.9548 19.6206C37.3752 19.0007 37.9832 18.6152 38.601 18.0824C37.2535 17.8399 36.9552 19.314 36.1312 19.9127C35.7427 20.469 35.197 20.8925 34.5983 20.723C34.577 20.7172 34.5717 20.6916 34.5855 20.6761C34.92 20.3013 35.3032 19.9875 35.6613 19.6326C35.729 19.5649 35.7958 19.4932 35.8631 19.4211C35.9308 19.3157 36.0202 19.2259 36.1144 19.1471C36.2684 18.9781 36.422 18.8139 36.5844 18.6608C36.6145 18.6028 36.6406 18.5431 36.6561 18.4732C35.6834 18.6161 35.4338 20.026 34.5549 19.9087C34.6691 18.909 35.9817 18.2745 36.78 17.9749C37.0805 17.862 38.0554 17.2973 38.3404 17.5098C38.3213 17.4947 38.2983 17.485 38.2753 17.4735C39.1878 17.365 40.2552 17.4593 41.6594 17.7983C42.5232 18.2629 43.4339 18.7347 43.9433 19.1728C44.4659 19.6237 44.8275 20.2468 45.1231 20.8527C45.3426 21.3036 45.2908 21.4598 44.9616 21.5828C46.0918 22.46 45.4072 24.0517 44.2093 24.1075C44.0778 24.1212 43.9398 24.1141 43.7964 24.0867C43.9283 24.6031 44.4035 24.8589 44.8726 24.8753C45.1421 24.8704 45.4041 24.7926 45.5895 24.6337L45.6174 24.6576C45.6311 24.647 45.6484 24.6408 45.6612 24.6293C45.6612 24.6293 46.5299 25.2847 46.1595 26.6331C46.133 26.6264 46.1117 26.6207 46.0865 26.6149C45.4714 26.4751 45.2621 26.437 44.9925 25.748C44.8894 26.075 44.8058 26.4724 44.8766 26.8517C44.9718 27.4442 45.2545 28.0213 45.8506 28.1155C45.9276 28.1231 46.0077 28.1262 46.0945 28.116C46.799 28.0394 47.0804 26.8092 47.0835 26.9322C47.0849 27.0079 47.0853 27.0937 47.0844 27.1845C47.1052 27.3022 47.1265 27.4199 47.149 27.5385C47.1083 28.1571 46.9605 28.8891 46.4821 29.1927C46.1883 29.3794 45.9188 29.4126 45.6718 29.3666C45.4585 29.3418 45.2621 29.2533 45.0802 29.1427C45.0395 29.3338 44.97 29.6702 45.178 30.1065C45.4754 30.7411 45.8595 30.6495 45.9157 31.3549C45.9652 31.6014 45.9891 31.8005 45.9891 31.8005C45.9365 32.4781 45.4966 33.2405 45.4966 33.2405C45.0563 33.6083 44.4965 34.1601 43.4623 34.8483C44.1716 36.0661 47.099 38.4386 47.7456 39.3219C48.6505 40.0967 48.5625 40.984 48.6466 41.2181C48.3005 41.9063 47.3477 42.0151 46.5693 41.8403C45.8294 41.373 44.966 40.7898 44.2371 40.018C44.2163 40.0171 44.196 40.0158 44.1756 40.0149C44.0885 39.9073 44.0053 39.7923 43.9203 39.6803C43.9092 39.6684 43.9052 39.6604 43.8995 39.6538C43.3534 38.9329 42.8622 38.1403 42.4582 37.3349C42.2882 36.9574 42.1386 36.5839 42.0138 36.2241C41.5333 34.8399 41.8395 34.331 42.5887 33.7503C43.3879 33.1295 44.8492 32.3134 44.8465 31.4554C44.8461 31.0805 44.723 30.9562 44.6443 30.9137C44.5629 31.1106 44.4473 31.2615 44.2553 31.5009C43.383 32.5745 41.4793 34.392 40.4517 34.4615C39.8662 34.504 39.1029 34.1097 38.6351 33.8366C38.4674 33.7393 38.3408 33.661 38.2585 33.6101C38.2324 33.595 38.2107 33.5835 38.212 33.5884C38.2505 33.7477 38.4647 33.9305 38.5121 34.2367C38.5829 34.6828 38.5789 34.8731 38.5762 35.32C38.4992 36.691 38.0328 38.1018 37.4487 39.2807C37.3827 39.4489 37.3172 39.6126 37.2508 39.771C37.1207 40.1742 36.8871 40.888 36.6972 41.2177C36.283 41.9541 35.4378 42.4798 35.4546 43.2927C37.1203 43.3277 37.9983 41.6531 38.1554 39.8272C38.1828 39.5861 38.2027 39.3422 38.2085 39.0966C38.2519 38.7528 38.3054 38.42 38.3674 38.208C39.1821 37.973 39.5671 37.2008 39.3272 36.1856C39.5777 35.913 39.8476 35.3598 40.2734 35.5714C40.2902 35.5798 40.2995 35.5922 40.315 35.6001C40.322 35.6032 40.3287 35.6028 40.3349 35.6068C40.4274 35.6524 40.5079 35.7156 40.5831 35.7873C40.5884 35.7935 40.5942 35.8006 40.5999 35.8055C40.68 35.886 40.7531 35.9798 40.8194 36.0865C40.8239 36.0931 40.8283 36.0989 40.8327 36.1064C40.8982 36.2126 40.9588 36.329 41.0168 36.4573C41.0934 36.6171 41.173 36.7945 41.2664 36.999C41.3284 37.1765 41.3961 37.361 41.4797 37.557C41.87 38.451 42.4312 39.1302 42.706 39.956C42.683 39.9551 42.6599 39.9547 42.6369 39.9538C42.7206 40.187 42.7923 40.4278 42.8308 40.6981C42.032 41.4239 41.366 42.2776 40.2362 42.6701C40.0105 41.7731 40.9898 40.7924 41.1128 39.9034C41.0805 39.9016 41.0482 39.9003 41.015 39.8994C41.0664 39.544 40.9681 39.1966 40.5951 38.863C40.4539 39.0422 40.3035 39.1838 40.1521 39.398C40.1048 39.4679 40.0636 39.5436 40.0424 39.6108C39.702 40.0441 39.375 40.4654 39.09 40.9075C38.7563 41.4199 38.6665 41.9634 38.3629 42.4661C37.6208 43.6857 36.106 43.3896 35.0382 44.3331C35.4988 44.6345 35.8126 44.0349 36.2861 44.0225C37.7213 44.6549 38.2988 43.0175 40.0286 43.2923C40.0176 43.6304 39.4069 43.3649 39.5069 43.8154C41.212 45.3868 43.611 42.7975 44.9085 42.3599C43.9871 44.9996 39.9512 44.5345 37.7434 45.8869C39.1303 46.0988 40.1078 45.3505 41.1677 45.5744C40.7358 46.1834 39.6799 46.1648 38.8825 46.4055C38.8395 47.137 37.9872 47.0583 37.5854 47.4304C37.3119 47.684 36.3184 47.7194 35.9489 47.7814C35.4108 47.8708 34.8691 47.9278 34.3248 47.9721C32.2197 48.1473 30.1114 48.1009 28.1178 47.3503C27.7 47.1941 27.2588 47.0149 26.807 47.0003C25.8095 46.968 25.3639 46.6945 24.4921 46.24C23.9102 45.9378 23.2796 45.7032 22.7777 45.2673C22.2861 44.8372 21.9214 44.2659 21.6329 43.8154C21.9117 43.8154 22.2268 43.8548 22.3635 43.7078C22.2989 43.1976 22.5166 42.8887 22.7777 42.4661C21.4205 42.2466 22.7556 40.5499 21.6652 40.0919H21.6245C21.4103 40.4194 21.3452 40.9026 21.0111 41.1155C20.7531 40.7296 20.4425 40.3534 20.1367 39.9622C20.1606 39.9609 18.4847 38.2934 18.7489 36.2206C18.0723 35.597 17.993 34.4234 18.2904 33.5158C18.2984 33.4901 18.3099 33.4662 18.3183 33.4415C18.3471 33.3627 18.3758 33.2852 18.4095 33.2118ZM36.8322 27.1181C36.372 27.1769 36.0126 27.3331 35.8887 27.727C36.3729 27.6974 36.6096 27.4119 36.8322 27.1181ZM45.7316 35.3249C46.9871 36.6459 48.4426 38.3806 48.9386 39.5595C49.1024 39.3537 49.2781 39.1515 49.4657 38.9581C50.1361 37.2915 49.7737 35.855 49.5524 34.9293C49.1435 33.2122 47.7522 32.217 47.5893 33.0418C47.5101 33.4423 48.4302 35.694 48.6116 36.6786C48.3009 36.1409 46.4144 35.3337 45.7316 35.3249ZM25.8525 48.9983C25.4666 48.8926 25.5591 49.2585 25.228 49.2068C25.2714 49.0599 25.3546 49.036 25.228 48.8948C24.9165 48.9598 24.7001 49.1262 24.7116 49.5201C24.9767 49.6281 25.0745 49.0696 25.228 49.413C24.8767 49.5772 24.9054 50.1259 24.6094 50.3472C24.1098 49.8785 23.7367 49.2878 23.3636 48.6886C22.3547 48.3376 20.8567 49.4285 21.5997 50.1396C21.7816 49.1723 22.691 49.2196 23.5721 49.413C23.5119 49.7976 23.8934 50.0131 23.677 50.2405C23.2627 50.0741 23.0583 49.686 22.5321 49.6223C22.2684 49.6998 22.175 49.9516 22.2254 50.3472C23.0309 50.2317 22.7574 51.1951 23.1583 51.4849C23.4362 51.3854 23.2627 50.8326 23.4672 50.6574H23.7818C23.8442 51.3765 23.5482 51.735 23.0534 51.8978C22.8556 51.8549 22.8671 51.6018 22.5321 51.6929C22.1847 51.7708 21.9621 52.3598 22.2254 52.7294C22.6529 52.7798 22.6826 52.4258 23.1583 52.5214C22.9853 52.9365 22.4184 52.9533 21.8117 52.9356C22.0918 54.0592 23.6354 52.9422 23.8841 52.4174C24.9373 52.986 24.6412 54.9049 26.0596 55.108C24.5753 53.8724 24.8183 50.6539 25.8525 48.9983ZM18.2864 45.9979C18.5922 46.7259 18.3143 48.0354 18.9078 48.485C19.2476 47.8978 18.9241 47.2127 19.1131 46.4099C18.8126 46.298 18.7259 45.9758 18.2864 45.9979ZM29.5835 52.0014C29.4498 51.5854 29.1719 51.3097 28.6488 51.2805C28.7781 51.6929 29.2786 51.9655 28.9577 52.5214C29.3427 52.5214 29.3587 52.1598 29.5835 52.0014ZM28.5479 52.3116C28.528 52.02 28.3678 51.8704 28.0275 51.8978C28.0479 52.1917 28.2125 52.3399 28.5479 52.3116ZM31.4466 54.5911C32.1312 54.8402 32.6976 55.2053 33.3167 55.5217C33.0715 56.0962 31.8192 55.4948 31.5519 55.108C30.8416 55.689 29.3202 56.0169 28.7573 55.108C28.4435 55.2845 27.7425 55.4956 27.404 55.3146C27.5452 54.7641 28.5117 55.0394 28.6488 54.4875C27.3513 54.5898 25.875 54.2189 26.1614 52.4174C26.9101 52.4913 27.8678 52.8108 28.2355 53.5569C27.8987 53.6144 27.7496 53.4839 27.5089 53.4494C27.6182 53.9711 28.3072 53.9631 28.7573 53.8653C28.9706 53.9751 28.8498 54.4229 29.2091 54.3889C29.144 54.334 29.1069 54.2534 29.1007 54.1397C29.1463 54.1468 29.1918 54.1525 29.2343 54.1632C29.206 53.5449 29.9083 53.1905 29.895 52.2098C29.4715 52.5103 29.2144 52.9781 28.6488 53.1436C28.0545 52.8033 27.527 52.4028 26.8889 52.1054C26.6565 51.4748 26.7349 50.5353 26.0596 50.3472C26.3092 49.9825 26.5486 49.143 26.9911 49.3121C27.0601 49.7214 26.7145 49.7259 26.7818 50.1396C27.1832 50.4206 27.6651 49.2811 28.1342 49.9312C28.3807 50.3078 27.6292 50.4206 27.5089 50.7596C27.7589 50.8897 27.4531 51.5779 27.7177 51.6929C27.8253 51.612 27.7381 50.9442 27.9266 50.6574C28.3913 50.8088 29.106 50.7194 29.4813 50.9689C29.5737 50.1861 28.5807 50.4839 28.3391 50.0348C28.5002 49.5772 29.1582 49.6099 29.6879 49.5201C29.7162 49.7276 29.968 49.7214 29.9981 49.9312C30.1017 50.2423 29.7649 50.1153 29.5835 50.1396C30.4482 51.1309 31.7014 53.059 29.6879 53.6587C29.7202 53.7963 29.8711 53.822 29.895 53.9711C31.8904 53.3431 30.9766 50.2534 30.1017 49.1037C30.9146 49.086 30.6332 50.16 31.6545 49.9312C31.743 50.0241 31.7687 50.1657 31.7594 50.3472C32.1847 50.3397 32.3161 49.6564 32.6914 49.9312C32.5507 50.1418 32.4361 50.3759 32.3334 50.6247C32.4657 50.587 32.6011 50.58 32.7206 50.6273C32.6795 50.9397 32.2741 50.8871 32.2975 51.2615C32.2409 51.2486 32.1789 51.2402 32.117 51.2336C31.6191 52.8019 31.3757 54.6274 29.4813 54.8009C29.9295 55.5111 31.0009 54.8279 31.4466 54.5911ZM36.6295 55.108C36.2135 55.1819 36.0387 55.0097 35.6984 55.0058C35.6086 55.6169 36.5614 55.462 36.6295 55.108ZM37.3566 51.5863C36.8986 51.6451 36.6251 51.8916 36.5269 52.3116C36.699 52.5214 36.807 52.794 37.1517 52.8303C36.8464 52.3143 37.2579 52.008 37.3566 51.5863ZM39.4272 53.3485C39.444 53.6144 39.6193 53.7105 39.7401 53.8653C39.5768 54.603 38.751 54.6708 37.9797 54.8009C38.158 55.2713 39.0077 55.0841 39.0126 55.7284C38.5249 55.9408 37.5013 55.8846 37.2513 55.5217C36.807 55.901 35.3904 56.0227 34.9736 55.5217C34.5576 55.7793 34.1792 55.8652 33.6243 55.6262C33.6929 55.2775 33.9951 55.166 34.0411 54.8009C33.8539 54.4012 33.8221 53.8432 33.2114 53.8653C33.1543 54.3393 33.6013 54.303 33.5229 54.8009C32.7874 54.7761 32.6135 54.1862 32.0696 53.9711C32.1077 53.521 32.3051 53.2383 32.4874 52.936C32.8127 52.8869 32.76 53.213 33.0078 53.2458C33.1123 52.8705 33.3074 52.5842 33.834 52.624V53.0374C34.5682 52.6072 34.5014 51.4796 34.0411 50.8636C34.2071 50.872 34.4328 50.8141 34.4558 50.9694C34.6987 50.7304 33.9062 50.5317 34.2469 50.1396C34.6315 50.0671 34.6921 50.3171 35.0758 50.2405C35.3148 50.2764 35.19 49.944 35.3869 49.9308C35.4471 49.5674 35.0183 49.679 35.0758 49.3121C35.386 49.0665 35.6834 49.6418 36.1118 49.3121C35.1501 50.5441 34.439 53.1352 36.0086 54.2796C36.4693 54.3296 36.2666 53.7069 36.8388 53.8653C36.8601 54.1888 36.7663 54.6287 36.9424 54.8009C37.1946 54.7393 37.1738 54.4079 37.2513 54.1787C37.5792 54.1548 38.0155 54.2455 38.1833 54.0738C38.1629 53.6958 38.043 53.6764 38.1833 53.3485C38.9586 53.1754 39.7835 52.5444 39.325 51.4849C39.0688 52.4028 38.3377 52.8422 37.6708 53.3485C36.318 53.3246 35.074 51.3717 36.5269 50.6574C36.5167 50.3671 36.137 50.2171 36.422 49.9308C36.6769 49.9277 37.8111 49.8338 37.6708 50.5525C37.0849 50.4897 36.8318 50.7499 36.6295 51.0703C37.084 51.1619 37.7509 51.1088 38.1833 50.9694C38.3908 51.6982 38.1306 52.1523 37.5593 52.5214C38.2116 52.6537 38.6957 51.9133 38.6041 51.28C38.5103 50.6906 37.8341 50.8238 37.8757 50.2405C38.2673 50.0502 38.5333 50.437 38.9117 50.5525C39.2117 50.4034 38.6855 49.9387 39.0126 49.7259C39.6281 49.8684 39.8149 50.4437 40.1592 50.8636C39.6596 51.4964 40.2636 52.9019 39.4272 53.3485ZM16.5698 41.2354C16.7057 41.5049 16.9358 41.6846 17.2115 41.793C17.2306 41.2345 17.1633 40.6402 16.746 40.4056C16.6159 40.7924 16.6159 41.1097 16.5698 41.2354ZM14.7174 46.1577C14.5846 46.9313 14.6408 47.1056 14.4665 47.723C14.4466 47.846 14.4107 47.9907 14.3496 48.1704C14.3426 48.1673 14.3368 48.1619 14.3302 48.158L14.328 48.1664C13.6283 47.8495 13.9673 46.7622 13.7022 46.202C13.523 45.8355 13.1132 45.6032 12.8729 45.3762C11.8533 44.4203 12.021 42.8949 11.6812 41.677C11.532 41.2655 12.0259 40.5765 12.0241 40.4056C12.0184 40.1193 10.8665 39.2714 11.0736 38.7342C11.2877 38.8851 11.6104 39.0953 12.0277 39.3148C12.0294 39.363 12.037 39.413 12.0591 39.4621C12.2326 39.8542 12.8818 39.9879 13.365 39.9981C13.4827 40.0007 13.6013 39.9994 13.7199 39.9985C14.2195 40.145 14.7674 40.2592 15.3582 40.3065C16.8035 40.4242 16.6694 39.4276 18.136 41.9704C18.2878 42.9223 18.9241 44.0831 17.9714 42.7891C17.9475 42.7829 17.9249 42.7763 17.901 42.7705L18.205 44.9708C17.9678 44.8602 17.7324 44.754 17.5001 44.6535C17.4753 45.058 17.8727 45.0399 17.8089 45.482C17.427 45.3815 17.0863 45.2399 17.0863 44.7535C17.0035 44.3278 17.5824 44.5606 17.5001 44.1344C17.3182 43.9362 17.1142 43.7623 16.7761 43.7193C16.6969 43.9561 16.9602 44.5283 16.5698 44.4429C15.6383 43.7127 16.2154 42.7564 16.5698 41.7509C16.5455 41.2434 15.3033 40.3822 15.1157 41.3394C15.4002 41.4721 15.8467 41.4363 15.8428 41.8558C15.9795 42.3112 15.2281 41.6713 15.1157 42.0651C15.036 42.4524 15.2414 42.559 15.2219 42.8918C14.6979 42.8267 14.701 42.7002 14.2833 42.6834C14.4413 42.1705 14.5461 42.0957 14.0793 41.8558C14.2474 41.3708 14.4443 41.023 14.5966 40.5654C14.3474 40.5906 14.0965 40.6119 13.8469 40.6371C13.6142 40.6596 13.3637 40.6844 13.0968 40.7097C13.3743 40.9376 13.8337 40.9818 13.8713 41.4407C13.3402 41.7598 13.33 41.0504 12.7353 41.1332C12.4299 41.3496 12.4184 41.8607 12.1587 42.1227C12.1542 42.1475 12.1489 42.1731 12.1449 42.1983C12.7047 42.6586 12.1498 43.0644 12.526 43.7193C13.1641 44.1141 13.5438 43.4534 13.977 43.3056C14.2151 43.6786 13.9315 43.9592 14.0793 44.3424C14.7462 43.8733 14.9325 45.0788 15.4241 44.7535C15.4334 44.0627 14.6785 44.1238 14.497 43.6167C14.6652 43.4087 14.7745 43.1361 15.1157 43.1002C15.4334 43.691 16.3353 43.8583 15.9463 44.8571C15.537 45.0399 15.1223 45.2067 15.0126 45.6855C14.4413 45.3293 13.6823 45.1527 13.5628 44.3424C13.5084 44.4123 13.4447 44.4712 13.3885 44.5398C13.3787 44.7031 13.3827 44.8558 13.3978 44.9974C13.6128 45.7134 14.2151 46.1073 14.7174 46.1577ZM48.6523 44.4429C49.3936 43.8623 49.1798 43.1392 48.8833 42.3612C48.4912 42.7697 47.118 44.2101 47.118 44.3039C47.118 44.3615 46.491 44.9558 45.8962 45.5063C46.5153 45.208 47.1265 44.9093 47.723 44.6535C47.7464 45.058 47.3495 45.0403 47.4132 45.4824C47.7965 45.3815 48.1359 45.2399 48.1359 44.7535C48.2195 44.3278 47.6398 44.5606 47.723 44.1344C47.9044 43.9362 48.1093 43.7623 48.4461 43.7193C48.5253 43.9561 48.262 44.5283 48.6523 44.4429ZM4.50634 27.9053C4.6984 27.4062 5.03959 27.2969 5.35291 26.8818C4.99401 26.5777 4.44925 26.3574 3.90936 26.1157C3.8682 26.4706 3.59826 26.9034 3.49205 27.5796C3.41593 28.0678 4.25808 29.8839 4.74575 29.8786C4.81567 29.8777 4.87763 29.8821 4.94445 29.8835C4.89621 29.8109 4.85284 29.7357 4.81965 29.6516C4.81965 29.6516 4.13151 28.8736 4.50634 27.9053ZM12.1587 30.3906C12.4578 30.5048 12.2277 31.1531 12.7857 31.0084C12.645 30.2733 12.214 29.8397 11.6196 29.5644C11.5475 29.2453 11.9113 29.3631 11.825 29.0396C11.5081 28.7032 10.843 28.7183 10.1633 28.7448C10.0889 29.5631 10.3527 29.7923 9.96943 30.6207C10.5731 30.1809 11.2563 30.18 12.1587 30.3906ZM11.1793 25.5944C11.1961 24.8881 10.5744 24.3907 10.6877 23.5096C10.797 22.6609 11.5068 22.2838 11.9546 21.7519C11.1346 21.0036 10.604 20.5044 9.88535 20.3486C9.2574 20.2128 8.04485 20.4256 8.00591 21.2983C8.72591 21.1921 9.70878 21.5589 9.87119 21.9395C9.07197 23.1875 9.67825 24.4828 10.4646 25.2731C10.165 25.4294 9.63045 25.3378 9.72737 25.8865C10.188 26.1396 10.6177 25.5679 11.1793 25.5944ZM10.8833 34.2168C10.8448 34.2106 10.8089 34.207 10.7757 34.2062C10.177 34.1898 10.3544 34.9709 9.83181 35.0355C9.60611 34.9209 9.34634 34.8593 9.07109 34.8301C9.07109 34.8301 9.15428 32.0572 9.9774 31.3996C9.90305 31.1823 9.77826 31.0965 9.62824 31.0633C9.47468 31.0288 9.2959 31.0496 9.10915 31.0425C8.98524 31.0385 8.85956 31.0226 8.73653 30.9712C8.65909 30.8721 8.60643 30.7659 8.56881 30.6557C8.45685 30.2981 8.53695 29.8729 8.67767 29.3825C8.85779 28.8842 9.20031 28.5625 9.66807 28.3187C9.81765 28.2421 9.7756 28.0239 9.76144 27.893C9.74949 27.7757 9.76498 27.7929 9.60523 27.7009C9.3074 27.5265 8.86487 27.9859 8.67856 28.1872C8.67413 28.1802 8.67059 28.1704 8.66528 28.1638C7.48416 28.6019 7.0102 29.7671 5.42371 29.7914C5.58834 29.1475 5.05198 29.194 5.01835 28.7466C5.31928 28.4271 5.73039 28.2151 5.75827 27.6093C6.12469 27.2469 7.07747 27.4916 7.42397 27.1114C7.13455 26.7163 6.49288 26.8225 5.97732 26.8888C5.77597 26.3941 5.31308 26.1613 5.15465 25.632C5.29228 25.2492 6.0561 25.4971 6.20169 25.1231C5.88174 24.4974 5.1281 23.7884 5.07809 23.2393C5.82554 22.9795 6.01892 23.8035 6.62874 23.9845C6.98985 23.7083 6.05211 23.5194 6.42871 23.2534C7.4399 23.3579 7.5439 23.6858 8.29311 24.1088C8.6259 24.2965 9.12862 24.6226 9.33617 24.3713C8.8569 23.9132 8.60908 22.8724 7.99219 22.5431C6.43712 23.0892 4.82673 22.0807 4.06115 20.9421C3.26503 21.004 2.75124 20.7872 2.40828 20.4057C2.47422 20.0194 2.24897 19.3317 2.62733 19.2626C3.43098 19.5746 3.61684 20.492 4.5829 20.638C4.73469 20.2203 3.98459 19.8786 3.98149 19.2777C4.39349 19.2511 4.25498 19.7605 4.59263 19.8052C4.62361 19.622 4.50014 19.2825 4.80947 19.3919C5.03694 19.4755 5.06437 19.7592 5.21661 19.9171C4.87674 19.9552 4.70194 20.1588 4.79708 20.6394C5.54674 20.5832 5.58435 20.3769 6.15257 20.2371C6.12425 19.8127 5.76712 19.7224 5.84899 19.1976C6.15257 19.348 6.07601 19.8645 6.465 19.9295C6.82301 19.8008 6.07424 19.3724 6.47429 19.2051C7.01374 19.0489 6.75265 19.6822 7.08942 19.726C7.33591 19.6021 7.57178 19.5202 7.80278 19.4649C7.90412 19.4879 7.99219 19.4573 8.05636 19.3972C8.21213 19.4202 8.37764 19.4304 8.56793 19.4104C9.02949 19.364 9.49504 19.4228 9.94156 19.2808C9.96988 19.271 9.97652 19.221 9.94156 19.2153C9.49636 19.1489 9.06578 19.0551 8.62501 18.9737C8.44269 18.9391 8.26302 18.9657 8.07981 18.9493C8.06122 18.9321 8.04219 18.9157 8.01697 18.9029C7.94882 18.8657 7.88952 18.8378 7.82845 18.8068C13.1929 18.2824 13.7708 21.6421 14.8851 22.8441C15.1143 23.0932 15.4582 23.2388 15.8051 23.2618C15.8773 23.2888 15.9503 23.3132 16.0264 23.3322C16.1056 23.3517 16.1742 23.3008 16.1963 23.2344C16.3658 23.1977 16.5225 23.1207 16.6561 23.0131C16.7708 22.9516 16.8787 22.8755 16.9433 22.7808C16.9557 22.7618 16.9557 22.7441 16.95 22.7277C16.9526 22.7237 16.9557 22.7215 16.9557 22.7215C16.9907 22.7091 17.0234 22.6971 17.0571 22.683C17.0783 22.6737 17.0832 22.6547 17.0801 22.6361C17.4695 22.4391 17.7457 22.356 18.0094 22.3077C17.6979 22.7755 17.3018 23.1839 16.8376 23.4526C17.1766 23.3725 17.52 23.257 17.8563 23.3773C17.3177 23.7796 17.2084 24.088 17.0119 24.5093C16.8181 24.9235 16.9509 25.9308 17.4093 26.3888C16.5619 26.2905 16.1525 25.598 16.272 24.5545C15.7848 25.0621 15.1803 24.3978 14.4749 23.7433C14.3771 23.6344 14.2607 23.5322 14.1324 23.4375C13.5017 22.9056 12.7999 22.5126 12.0365 23.0007C11.6396 23.2512 11.3099 23.7482 11.6135 24.35C12.2777 23.3924 13.7089 23.7915 13.7124 24.7315C13.7164 26.1042 12.5941 26.5441 11.4909 26.0117C11.6369 27.0928 10.878 27.6358 10.8819 27.6381C11.9741 28.1116 12.5397 27.1738 13.3088 27.6465C13.6248 27.8403 13.9244 28.0142 14.0009 28.4444C14.0527 28.4178 14.104 28.432 14.1682 28.5333C14.0664 29.2135 14.2846 29.5834 14.3541 30.0968C13.9518 30.1893 13.931 29.6874 13.6296 29.9817C13.6934 30.8451 14.2616 31.2124 14.3324 32.0696C14.0036 32.8648 12.5764 32.4104 12.0374 32.667C11.9878 32.1475 12.6844 31.986 12.364 31.5293C11.3143 31.6111 11.2554 32.7064 10.7886 33.3835C11.39 34.4699 12.1078 35.4475 12.202 37.034C11.5006 37.2172 10.9089 34.7868 10.8833 34.2168ZM43.4729 48.4854C43.5366 48.6222 43.6937 48.6735 43.8867 48.689C44.1464 48.5018 44.3788 48.2881 44.408 47.8624C44.273 47.8566 44.2593 47.73 44.0951 47.7557C44.0535 48.1606 43.5003 48.0641 43.4729 48.4854ZM32.51 51.4022C32.2869 51.6221 32.6436 51.9801 32.8618 51.7558C32.8675 51.515 32.6547 51.4938 32.51 51.4022ZM1.76483 22.6206C1.45993 23.3968 1.73917 24.0354 2.15825 24.4961C2.13125 24.327 2.12771 24.1434 2.16356 23.9358C2.25339 23.3972 2.71407 23.3233 3.10748 22.9078C2.90082 22.6812 2.6707 22.3728 2.46227 22.0241C2.21356 22.1542 1.86131 22.375 1.76483 22.6206ZM17.266 30.3362C17.1947 31.2275 16.4955 32.1143 17.2398 32.8281C16.8464 32.8595 16.3021 32.5166 16.195 32.6108C15.8118 32.4732 16.1685 31.6133 15.4821 31.7696C15.2073 31.8855 15.6166 32.174 15.6812 32.2904C15.6498 32.648 15.1307 32.4966 15.055 32.8033C14.6678 34.5447 16.6495 35.4037 15.3241 36.5529C14.6643 35.6541 14.5922 34.1796 14.1191 33.106C13.3035 33.2569 13.1557 34.0858 12.5397 34.438C12.6928 35.5962 12.8592 36.7339 13.5491 37.3636C13.1654 38.3328 11.9847 37.0092 11.3612 37.9624C11.3891 38.4306 11.9626 38.3474 12.4591 38.3523C12.4618 38.3483 12.4644 38.3452 12.4675 38.3408C12.5804 38.3483 12.6919 38.3589 12.7933 38.3797C13.0946 38.566 12.8778 39.2595 13.3061 39.3205C13.9704 39.3666 14.2209 38.9939 14.559 38.7156C14.7842 39.1187 15.1024 39.4303 15.1577 39.9998C15.5467 39.9697 16.0007 39.8564 16.2747 39.5604C17.1394 38.6235 17.728 37.2185 17.3102 35.4307C17.0487 35.1324 16.884 35.8245 16.4778 35.7289C16.5464 34.8231 17.1124 34.4217 17.5377 33.8694C17.3244 31.9143 19.0494 31.0181 18.3174 29.2029C17.4664 29.1719 17.2567 28.5222 16.557 28.3519C16.7752 28.982 17.3306 29.3803 17.266 30.3362ZM2.73531 18.6418C3.93547 18.7564 4.8347 18.4745 5.59984 18.3723C3.90405 17.9275 1.86883 17.4297 1.63606 18.3355C1.46037 19.0184 1.61127 19.7361 1.84847 20.3486C1.77899 19.6667 1.98699 19.0276 2.73531 18.6418ZM33.7008 30.8212C34.2478 30.7624 34.4434 29.8875 34.1066 29.5821C33.438 30.137 33.2105 30.8734 33.7008 30.8212ZM21.5572 28.1009C21.5493 28.0368 21.4736 27.8536 21.1156 27.7779C21.0961 27.773 20.3491 27.5562 20.1756 27.5819C20.1548 27.5854 20.1513 27.6155 20.1637 27.6305C20.2039 27.6708 20.2991 27.7903 20.558 27.943C20.7549 28.0589 21.0063 28.1439 21.0089 28.1594C21.0195 28.2364 20.8456 28.5214 20.562 28.7555C20.3615 28.9201 19.9937 29.1121 19.9889 29.1241C19.9446 29.2436 19.9225 29.3617 19.9743 29.664C20.1318 30.603 20.5248 31.3761 21.4563 31.778C21.7546 31.4337 20.8987 30.5517 21.0364 30.0423C21.5068 29.086 21.5705 28.2195 21.5572 28.1009ZM53.0985 22.1002C53.3565 22.2905 53.2786 22.8127 53.7149 22.8326C53.8477 22.2595 54.2526 21.4266 54.1424 20.9677C53.7782 21.324 53.3219 21.5948 53.0985 22.1002ZM53.9357 31.3584C53.5543 30.5291 53.818 30.299 53.7441 29.483C53.0666 29.4551 52.4001 29.4387 52.0828 29.7764C51.9961 30.099 52.359 29.9817 52.2873 30.3003C51.6943 30.5747 51.2628 31.008 51.1217 31.7439C51.6793 31.8868 51.4496 31.2381 51.7487 31.1252C52.6515 30.9159 53.3339 30.9164 53.9357 31.3584ZM61.5531 22.7808C61.9049 23.4605 62.4541 24.5797 61.273 25.213C61.5518 24.4505 61.4801 23.5557 60.7738 23.1162C61.5593 22.3418 62.5395 19.9716 61.2407 18.9661C59.8201 19.1529 58.6926 18.5329 57.6424 18.6055C57.2463 18.6329 56.8374 18.6382 56.4595 18.6909C55.8369 18.7781 54.1566 19.3489 53.5339 20.2322C53.9003 20.0658 54.3995 20.0349 54.7735 19.8751C55.1275 19.7831 55.882 19.4556 55.9205 19.4423C56.7211 19.2511 57.1025 19.5149 57.8053 19.4472C57.7115 19.6724 57.5305 19.7981 57.588 20.1738C57.9849 20.1561 57.7778 19.5308 58.2213 19.5569C57.8668 20.4101 57.5703 21.3262 56.7423 21.3094C56.0692 21.2908 55.8842 20.2977 55.1939 20.4592C55.0518 21.4284 55.1155 21.9077 55.5868 22.4356C56.4263 22.2834 56.9237 21.9856 57.8765 22.2493C57.7022 22.5356 57.5424 22.7264 57.5349 22.9627C58.9714 22.3099 60.0662 21.5594 60.5932 20.6194C60.8229 21.2642 60.6778 21.6023 60.3127 22.0125C59.9024 22.4759 59.6042 22.6117 59.1422 23.133C58.7381 23.5778 57.9186 24.2965 58.3682 24.9585C57.6123 25.0669 57.0189 25.3373 56.4874 25.6692C56.236 25.5736 56.3825 25.0864 55.9754 25.1444C56.0143 25.9374 55.1545 26.3153 55.4386 27.007C56.0391 27.0335 56.163 26.6738 56.6843 26.7087C56.926 26.7618 57.5614 26.8158 57.9248 27.1389C58.0894 27.2862 57.9495 27.623 58.1314 27.8686C58.5266 28.432 58.9519 28.1992 59.0537 28.6068C59.2099 29.2108 58.8474 30.3787 58.1053 30.2605C57.8778 30.2238 57.5508 30.1786 57.6924 29.7357C57.3442 29.737 57.1733 29.9038 56.756 29.8277C56.2989 29.3883 56.0391 28.7466 55.2094 28.6687C55.3045 29.0121 55.6824 29.9029 55.4961 30.8557C55.3324 31.454 54.1074 30.9765 54.0256 31.6709C54.3938 31.8979 54.8226 32.2152 55.0469 32.6679C55.1518 32.8794 55.208 33.11 55.2687 33.3397C55.3333 33.5844 55.3611 33.8358 55.362 34.0876C55.362 34.1504 55.2757 34.5053 55.1903 34.5797C55.0996 34.6575 54.9832 34.6252 54.8956 34.5133C54.777 34.361 54.6478 34.246 54.4708 34.1646C54.3415 34.1057 54.1703 34.2345 54.2597 34.3761C54.3088 34.4535 54.3796 34.6217 54.4084 34.7084C54.5562 35.1408 54.0747 35.1523 53.6822 35.2023C53.2702 36.0706 52.8582 37.4579 51.893 37.2588C51.7443 37.2278 51.5943 37.0242 51.5545 36.8892C52.521 36.3458 51.4611 34.8642 52.2439 34.25C52.7825 34.2137 53.4162 34.1809 53.5972 33.5344C53.1445 33.0529 53.083 32.1878 52.3656 31.9643C52.2054 32.9241 52.2466 34.0756 51.5049 34.4482C50.518 34.1141 50.4879 32.8414 49.9724 32.0404C50.7557 30.7517 49.5843 29.6211 50.3273 28.5112C50.5486 28.7426 50.8269 28.9126 51.3606 28.8342C51.3739 28.3426 51.0336 28.197 51.0668 27.6885C51.5974 27.3756 52.517 28.008 52.9312 27.5018C53.1051 26.9588 52.3851 26.9088 52.8436 26.2511C52.5564 25.9507 52.1616 26.6131 51.8014 26.2396C51.6089 25.3984 52.6542 25.0629 51.9293 24.581C51.6018 24.6372 51.7899 25.1315 51.6315 25.3599C50.6437 25.2988 50.4371 27.754 49.6047 27.8801C49.2081 27.943 48.4244 27.5863 48.5824 26.6202C48.9926 26.9468 49.3382 26.7008 49.7166 27.0504C49.7896 25.0222 51.0159 24.1743 52.2519 23.3375C51.0787 22.9905 50.1096 23.726 49.5369 24.3469C49.1241 23.9349 48.5669 24.2535 48.3766 24.6253C48.1031 25.1616 48.2753 26.306 47.3358 26.2945C47.4911 25.7883 47.4933 25.1519 47.4672 24.635C47.4358 24.0336 47.1654 23.7247 46.9946 23.3747C47.5035 23.3915 47.9921 23.8557 48.1846 24.1925C48.2093 23.0109 49.2466 22.2674 50.0096 21.9417C50.9053 21.5612 51.161 21.4669 51.8718 20.8221C50.7906 20.9075 50.2698 21.1885 49.2573 21.7466C49.0325 21.8696 48.8355 21.9878 48.6598 22.098C49.629 21.2735 51.0805 20.6872 52.0231 20.3623C54.4031 19.541 55.2744 18.1373 57.884 18.2289C59.0112 18.2678 62.3129 16.9734 62.5877 20.1805C62.663 21.0576 62.097 22.0196 61.5531 22.7808ZM21.5723 26.7149C21.3922 26.3104 20.7611 26.3454 20.4996 26.6468C20.4973 26.6503 20.4973 26.6539 20.4996 26.6565C20.5797 26.753 20.7633 26.6729 20.8753 26.6955C21.0514 26.7326 21.2833 26.6981 21.4302 26.8247C21.5112 26.8955 21.6134 26.8079 21.5723 26.7149ZM21.4231 42.7166C20.8027 41.7235 19.4972 40.8336 18.8538 39.4582C18.8538 39.4582 18.5852 38.6421 18.4183 38.1443C18.3541 37.9553 18.2546 37.9544 18.1023 38.0398C17.8886 38.1611 17.7673 38.3664 17.6992 38.5775L17.6952 38.574L17.6908 38.6001C17.6598 38.701 17.6368 38.8028 17.6297 38.8961C17.6257 38.9386 17.6279 38.9833 17.6328 39.0276C17.6226 39.1772 17.6266 39.3205 17.6364 39.4582C17.6364 39.4582 17.6952 39.8476 17.7386 40.0361C17.743 40.0525 17.7465 40.0706 17.7519 40.0866C17.7519 40.0866 18.5617 41.5053 19.2481 41.8881C19.4043 42.8697 20.0026 43.41 20.8036 43.753C21.1421 43.3542 20.6283 43.1569 20.592 42.8192C20.7726 42.8347 21.4461 43.1569 21.4231 42.7166ZM21.1328 18.5988C20.2101 18.7887 20.0141 19.0471 19.6641 19.383C19.5477 19.5436 19.441 19.7056 19.3454 19.868C19.2742 20.4075 19.2742 20.6885 19.3437 20.7973C19.6804 19.4233 20.5562 18.9909 21.1328 18.5988ZM33.1034 23.4778C33.1123 23.3494 33.1255 23.2211 33.1485 23.0954C33.1631 22.9689 33.1817 22.8414 33.2047 22.7153C33.1928 22.7109 33.1826 22.702 33.1764 22.6914C33.0494 22.7578 32.9149 22.8135 32.7246 22.8118C32.9976 22.4958 33.1853 22.0603 33.357 21.5877C33.0861 21.99 32.7786 22.3338 32.3945 22.571C32.5755 22.9746 32.775 23.3499 33.0295 23.6464C33.0596 23.5955 33.0826 23.5389 33.1034 23.4778ZM34.5226 29.1737C34.6169 28.5705 34.3036 28.3594 33.8092 28.3324C33.6318 28.559 33.3738 29.0723 33.5884 29.3688C33.9478 29.1975 34.2602 29.2122 34.5226 29.1737ZM43.8871 52.2103C44.2916 51.4982 44.2407 50.5937 43.8791 50.0427C43.8198 50.1573 43.772 50.2817 43.8043 50.4861C43.6499 50.5472 43.561 50.6707 43.3069 50.6269C43.3322 50.6034 43.3463 50.5808 43.3565 50.5583C43.0069 50.7915 42.8622 51.2261 42.7449 51.6929C42.1696 51.858 42.7046 50.9057 42.2294 50.9694C41.6828 51.28 42.3573 52.0492 42.6436 52.2103C43.0764 51.8726 43.2857 52.2014 43.8871 52.2103ZM42.1249 50.4472C42.6153 50.3861 42.8312 50.0516 43.1591 49.8285C43.2348 49.9458 43.3795 49.9936 43.4809 50.0834C43.5915 50.037 43.6911 49.9812 43.8145 49.9476C43.4782 49.5188 42.9233 49.3656 42.2294 49.8285C42.3033 50.1432 42.0506 50.1326 42.1249 50.4472ZM44.2013 53.5569C43.2565 53.8937 42.2595 53.4383 42.0205 52.7294C40.9973 52.8811 41.4722 54.5269 40.5716 54.8C40.711 53.8357 41.0469 53.0635 41.2934 52.2103C41.2226 51.7943 40.811 52.2041 40.6725 52.0009C40.8456 50.5884 40.1309 50.0582 39.845 49.1037C40.5553 49.3948 40.5893 49.2192 41.1912 49.413C41.4722 49.1776 41.4554 48.6372 42.0205 48.6886C41.9674 49.3294 41.5554 49.6051 41.3978 50.1396C41.1266 50.0303 41.0504 49.7276 40.777 49.6228C40.6792 49.8285 41.0774 50.4202 41.2934 50.6574C41.6386 50.3786 41.6257 49.7449 42.2294 49.7245C42.136 49.4214 42.136 49.409 42.2294 49.1037C43.5136 48.3168 44.8952 50.1007 44.8195 51.28C44.7753 51.985 44.2597 52.0625 44.2013 52.9356H43.7822C43.7017 53.3613 44.2787 53.1307 44.2013 53.5569ZM22.2254 48.1708C21.9312 47.9849 21.6975 47.7305 21.3922 47.549C21.2882 48.0894 21.9139 48.701 22.2254 48.1708ZM33.0556 37.6677C33.3933 37.4008 34.3062 36.5529 34.3115 36.5476C34.9227 36.0759 34.3881 33.4406 34.3018 33.2459C33.4357 34.1402 33.0693 37.0592 33.0556 37.6677ZM48.6519 48.9983C48.7926 48.6496 49.2219 48.5987 49.379 48.2779C49.0962 48.0447 48.9108 48.5629 48.4457 48.2779C48.3496 48.5359 48.2456 48.9855 48.6519 48.9983ZM46.2701 50.3472C46.1808 50.6764 46.4348 50.6654 46.4795 50.8636C46.7397 50.7455 47.0636 50.6915 47.2017 50.4468C46.7848 50.5211 46.6113 50.3512 46.2701 50.3472ZM49.4847 45.5815C49.6892 45.8948 50.2074 46.336 49.8989 46.8277C49.1413 46.5945 48 45.4408 47.5137 46.7224C48.0726 46.864 47.9491 46.3281 48.4457 46.4104C49.5325 46.9025 50.0574 48.1973 49.4847 49.5201C48.8723 49.8918 48.0177 49.5316 47.6141 49.1037C47.8761 48.5399 47.5097 47.9743 47.6141 47.2419C46.895 47.2963 47.2681 47.8 47.2017 48.4854C46.8932 48.6912 46.6906 49.0041 46.5799 49.413C47.473 49.7498 48.2509 49.8874 49.2754 50.2405C49.1984 50.5441 49.1112 50.8406 48.8647 50.9694C48.5753 50.8804 48.3346 50.4056 48.0323 50.6574C47.7305 51.3588 47.6217 52.2488 46.6892 52.312C46.3901 51.9691 46.972 51.8328 46.995 51.4849C46.8649 51.4429 46.2852 51.5088 46.1701 51.1752C45.5205 51.3916 45.5652 52.2997 44.7173 52.312C45.2302 50.8499 46.5596 49.3444 45.7524 47.653C45.3988 47.9902 45.5426 48.8284 44.9226 48.897C45.1027 48.389 45.3023 47.8951 45.3364 47.2419C45.7241 47.349 45.6364 46.9813 45.9595 47.0308C46.1002 47.2419 46.1573 47.526 46.2701 47.7557C46.776 47.4933 46.2578 46.8312 46.2701 46.4104C47.2791 46.0701 47.8659 45.3156 49.4847 45.5815ZM16.938 46.9304C16.6734 46.9414 16.5344 47.0826 16.5229 47.3433C16.7849 47.3295 16.9256 47.1906 16.938 46.9304ZM16.938 47.653C16.6619 47.5827 16.7376 47.8703 16.6274 47.9655C16.4207 47.7207 16.0804 47.6154 15.9025 47.3433C15.9264 46.6396 16.7265 46.714 16.8332 46.1011C16.3796 45.8196 16.1025 46.6131 15.6936 46.7219C14.8165 45.2766 16.9695 44.4345 17.4567 45.7917C17.142 46.6914 18.0705 47.8641 18.182 48.9988C17.5943 49.086 17.1695 49.3948 16.5229 49.5201C16.0561 49.1541 15.3954 48.9859 15.3852 48.1708C16.1247 48.7837 17.847 48.9306 16.938 47.653ZM19.738 48.689C19.9119 49.205 20.1796 49.625 20.6717 49.8285C20.9071 49.7214 20.8863 49.3506 20.8757 48.9983C20.1663 49.3232 19.9141 48.2204 19.738 48.689ZM34.319 27.6841C34.3394 27.7089 34.3779 27.6929 34.373 27.6606C34.3487 27.5159 34.2783 27.3699 34.2066 27.234L34.2111 27.2358C34.0872 27.022 34.2876 26.653 34.3487 26.3631C34.0956 26.3547 33.9363 26.4388 33.8371 26.5853C33.7207 26.6928 33.6566 26.8468 33.6783 27.0101C33.7296 27.3969 34.115 27.4106 34.319 27.6841ZM14.8674 49.1037C14.9922 49.4103 15.3378 49.5028 15.0719 49.9312C15.333 50.0193 15.4768 50.2166 15.7959 50.2405C15.668 49.7891 15.7702 49.7803 15.9025 49.4126C15.5896 49.278 15.3392 49.0789 14.8674 49.1037ZM52.6471 38.8652C52.4776 38.7382 52.2572 38.6784 52.055 38.7612C51.7368 38.8913 50.8499 39.5533 50.8225 39.5732C50.545 39.7887 50.6535 40.0047 50.9624 39.9994C51.2606 39.995 51.5584 40.0047 51.8572 39.9981C52.3404 39.9879 52.9896 39.8542 53.1631 39.4621C53.2989 39.1564 53.0144 38.8315 52.6471 38.8652ZM52.9622 43.9915C52.9582 43.9999 52.9533 44.0074 52.9484 44.0149C52.9507 44.0096 52.9551 44.0083 52.9573 44.0039C52.9573 44.0039 52.96 43.9959 52.9622 43.9915ZM54.0136 36.2724L55.4448 35.8006L56.1639 36.1307C55.7497 36.3104 54.7752 36.4401 54.7801 36.4418C54.7801 36.4418 54.4239 37.022 54.3849 36.9693C54.2194 37.2362 54.0579 37.5566 53.9685 37.9009C53.8494 38.3607 54.6566 39.7007 54.6487 40.1675C54.646 40.3384 54.5708 40.6442 54.4221 41.0548C54.0831 42.2727 53.3689 44.4203 52.3506 45.3762C52.1085 45.6032 51.6992 45.8355 51.5213 46.202C51.2549 46.7622 51.5952 47.8495 50.896 48.1708C50.5495 47.1512 50.665 47.0906 50.5057 46.1581C51.0885 46.0988 51.808 45.5775 51.8974 44.6256C51.831 44.5177 51.7359 44.4398 51.6593 44.3424C51.5399 45.1527 50.7809 45.3293 50.2096 45.6855C50.1012 45.2067 49.6852 45.0403 49.2754 44.8571C48.8869 43.8583 49.7887 43.691 50.1065 43.1002C50.4472 43.1361 50.557 43.4087 50.7256 43.6167C50.5442 44.1238 49.7887 44.0627 49.798 44.7535C50.2897 45.0788 50.476 43.8738 51.1429 44.3424C51.2907 43.9592 51.007 43.6786 51.2451 43.3056C51.6784 43.4534 52.0576 44.1141 52.6962 43.7193C53.0799 43.0507 52.4913 42.6422 53.1095 42.1705C52.8006 41.9266 52.8117 41.3624 52.4864 41.1332C51.8921 41.0504 51.8819 41.7598 51.3505 41.4407C51.3885 40.9818 51.8474 40.9376 52.1253 40.7097C51.8585 40.6844 51.608 40.6601 51.3752 40.6371C51.1256 40.6123 50.8761 40.5906 50.6256 40.5654C50.7778 41.023 50.9747 41.3708 51.1429 41.8558C50.6756 42.0957 50.7809 42.1705 50.9389 42.6834C50.5211 42.7002 50.5256 42.8267 50.0003 42.8918C49.9808 42.559 50.1861 42.4524 50.1065 42.0651C49.9936 41.6713 49.2427 42.3112 49.3798 41.8558C49.3754 41.4363 49.8224 41.4726 50.1065 41.3394C50.0308 40.9548 49.7852 40.8668 49.5157 40.9283L50.272 38.8399L52.2156 37.9597L53.0591 37.5924C53.1777 37.523 53.4012 37.0871 53.4994 36.9689L54.0136 36.2724ZM60.0255 26.4968C59.1369 26.6844 58.8293 26.4503 58.5496 27.0411C59.2718 27.7142 59.5657 28.2452 59.5267 29.1166C59.521 29.2502 59.4834 29.398 59.4303 29.548C59.5165 29.4272 59.5936 29.2989 59.6577 29.1635C59.8892 28.6785 60.4353 27.361 60.11 26.4702C60.0817 26.4777 60.0547 26.4906 60.0255 26.4968ZM19.4264 49.1037C19.0671 49.4015 18.4232 49.4103 17.9709 49.6223C17.9656 49.4599 17.9877 49.2634 17.766 49.3121C17.5142 49.8157 16.6154 49.679 16.3118 50.1396C16.5725 50.691 17.0035 50.2193 17.5598 50.2405C17.7567 50.5631 17.7926 51.042 18.1824 51.1752C18.2617 50.8238 18.1342 50.4056 18.4913 50.1396C18.8538 50.2852 19.1534 49.8489 19.3215 50.1396C19.2012 50.745 18.8449 50.3963 18.3909 50.3472C18.3307 50.8552 18.5236 51.1088 18.9078 51.1752C19.2795 51.2008 19.2857 50.8636 19.6335 50.8636C20.0336 51.2535 20.1982 51.8819 20.8757 52.0009C20.2371 51.192 20.4292 49.5475 19.4264 49.1037Z" fill="white"/>
</svg>
