<svg width="642" height="396" viewBox="0 0 642 396" fill="none" xmlns="http://www.w3.org/2000/svg">
<path d="M635.645 267.579C608.963 170.887 514.435 33.4768 407.177 5.17711C344.848 -11.268 346.577 17.3298 311.706 38.2449C276.834 59.16 164.278 19.211 75.6062 23.9384C-13.0657 28.6658 -41.0802 148.752 88.9912 292.858C167.301 379.618 285.975 379.343 345.158 357.094C409.955 332.734 513.306 398.439 554.865 394.95C596.424 391.46 662.328 364.271 635.645 267.579Z" fill="#EEE9E6"/>
<path d="M289.471 336.303C345.686 328.515 378.036 305.365 432.981 244.388C441.344 224.264 422.209 216.36 407.694 199.61C393.178 182.86 410.519 133.592 402.556 93.1629C394.592 52.7338 291.311 57.3125 242.685 87.2332C194.06 117.154 207.804 169.853 219.16 200.554C230.516 231.255 204.207 274.975 208.701 293.98C213.194 312.985 233.256 344.09 289.471 336.303Z" fill="#E9DED6"/>
</svg>
