<svg width="1600" height="936" viewBox="0 0 1600 936" fill="none" xmlns="http://www.w3.org/2000/svg">
<path d="M1247.1 115.573C1296.01 200.272 1272.16 316.432 1193.77 435.873C1115.4 555.287 982.59 677.839 813.912 775.198C645.233 872.556 472.666 926.262 330.034 934.409C187.369 942.557 74.8177 905.126 25.9025 820.427C-23.0126 735.728 0.837559 619.568 79.2284 500.127C157.601 380.713 290.41 258.161 459.088 160.802C627.766 63.444 800.334 9.73762 942.966 1.59113C1085.63 -6.5572 1198.18 30.8738 1247.1 115.573Z" stroke="white"/>
<path d="M351.922 115.573C302.969 200.272 326.838 316.432 405.29 435.873C483.725 555.287 616.638 677.839 785.449 775.197C954.259 872.556 1126.96 926.262 1269.71 934.409C1412.48 942.557 1525.12 905.126 1574.08 820.427C1623.03 735.728 1599.16 619.568 1520.71 500.127C1442.28 380.713 1309.36 258.161 1140.55 160.803C971.741 63.444 799.037 9.73763 656.293 1.59113C513.516 -6.55721 400.876 30.8739 351.922 115.573Z" stroke="white"/>
</svg>
