<svg width="15" height="14" viewBox="0 0 15 14" fill="none" xmlns="http://www.w3.org/2000/svg">
<g clip-path="url(#clip0_3077_20659)">
<path d="M2.977 0.649695L1.479 2.2597H2.436C3.728 2.2597 4.978 2.7897 5.853 3.6937L10.853 8.93869C11.561 9.68369 12.583 10.1157 13.645 10.1157H14.583C14.813 10.1157 15 10.2917 15 10.5087C15 10.7257 14.813 10.9017 14.583 10.9017H13.646C12.354 10.9017 11.104 10.3717 10.229 9.4677L5.229 4.22269C4.519 3.47569 3.499 3.0427 2.436 3.0427H1.27L2.973 4.85069C3.125 5.01269 3.108 5.26069 2.933 5.40269C2.763 5.54269 2.503 5.52669 2.355 5.36569L0.137 2.98769C-0.000999451 2.83969 0 2.6177 0.139 2.4727L2.353 0.129695C2.503 -0.028305 2.761 -0.044305 2.931 0.094695L2.937 0.099695C3.109 0.239695 3.127 0.486695 2.977 0.649695Z" fill="#19191A" fill-opacity="0.5"/>
<path d="M10.605 5.03L9.775 5.867C9.611 6.032 9.333 6.045 9.152 5.897L9.146 5.891C8.964 5.741 8.95 5.483 9.116 5.317L9.94 4.48C10.87 3.55 12.195 3 13.564 3H14.558C14.802 3 15 3.182 15 3.406C15 3.63 14.802 3.812 14.558 3.812H13.564C12.438 3.812 11.356 4.258 10.604 5.029L10.605 5.03ZM3.03 8.886L1.294 10.794H2.46C3.542 10.794 4.582 10.339 5.303 9.554L6.183 8.601C6.341 8.431 6.613 8.417 6.788 8.571C6.963 8.725 6.978 8.991 6.818 9.161L5.938 10.113C5.048 11.063 3.798 11.623 2.461 11.623H1.507L3.031 13.319C3.185 13.489 3.167 13.751 2.991 13.901C2.815 14.049 2.551 14.031 2.397 13.861L0.14 11.357C0 11.202 0 10.969 0.14 10.814L2.39 8.334C2.546 8.162 2.815 8.148 2.99 8.3L2.998 8.307C3.17 8.459 3.185 8.717 3.031 8.887" fill="#19191A" fill-opacity="0.5"/>
</g>
<defs>
<clipPath id="clip0_3077_20659">
<rect width="15" height="14" fill="white" transform="matrix(-1 0 0 1 15 0)"/>
</clipPath>
</defs>
</svg>
