<svg width="16" height="16" viewBox="0 0 16 16" fill="none" xmlns="http://www.w3.org/2000/svg">
<path d="M15.3334 2.66797V6.66797H11.3334" stroke="#19191A" stroke-opacity="0.5" stroke-linecap="round" stroke-linejoin="round"/>
<path d="M0.666626 13.332V9.33203H4.66663" stroke="#19191A" stroke-opacity="0.5" stroke-linecap="round" stroke-linejoin="round"/>
<path d="M1.86873 5.83174C1.77661 6.09206 1.91297 6.37777 2.17329 6.46989C2.43361 6.56201 2.71933 6.42566 2.81145 6.16533L1.86873 5.83174ZM12.2401 3.75854L11.8864 4.112C11.8901 4.1157 11.8939 4.11933 11.8977 4.12291L12.2401 3.75854ZM14.991 7.02958C15.1923 7.21868 15.5087 7.20883 15.6978 7.00759C15.8869 6.80635 15.877 6.48992 15.6758 6.30083L14.991 7.02958ZM1.00914 8.96749C0.807897 8.7784 0.491467 8.78824 0.302372 8.98948C0.113276 9.19072 0.12312 9.50715 0.32436 9.69625L1.00914 8.96749ZM3.76008 12.2385L4.11372 11.8851C4.11003 11.8814 4.10628 11.8777 4.10247 11.8742L3.76008 12.2385ZM14.1314 10.1653C14.2236 9.90501 14.0872 9.6193 13.8269 9.52718C13.5666 9.43506 13.2808 9.57141 13.1887 9.83174L14.1314 10.1653ZM2.81145 6.16533C3.44143 4.38505 4.94072 3.05247 6.78262 2.63571L6.56194 1.66037C4.38515 2.1529 2.61326 3.72777 1.86873 5.83174L2.81145 6.16533ZM6.78262 2.63571C8.62452 2.21896 10.5514 2.77632 11.8864 4.112L12.5937 3.40507C11.016 1.82654 8.73873 1.16784 6.56194 1.66037L6.78262 2.63571ZM11.8977 4.12291L14.991 7.02958L15.6758 6.30083L12.5825 3.39416L11.8977 4.12291ZM0.32436 9.69625L3.41769 12.6029L4.10247 11.8742L1.00914 8.96749L0.32436 9.69625ZM3.40644 12.592C4.98418 14.1705 7.26144 14.8292 9.43823 14.3367L9.21755 13.3614C7.37565 13.7781 5.44873 13.2207 4.11372 11.8851L3.40644 12.592ZM9.43823 14.3367C11.615 13.8442 13.3869 12.2693 14.1314 10.1653L13.1887 9.83174C12.5587 11.612 11.0594 12.9446 9.21755 13.3614L9.43823 14.3367Z" fill="#19191A" fill-opacity="0.5"/>
</svg>
