<svg width="64" height="65" viewBox="0 0 64 65" fill="none" xmlns="http://www.w3.org/2000/svg">
<rect y="0.5" width="64" height="64" rx="32" fill="#ECE1CE"/>
<path fill-rule="evenodd" clip-rule="evenodd" d="M31.7668 16.5C33.4031 16.9047 36.0799 17.4696 36.8448 18.616L37.3442 19.9702C37.7597 20.5444 38.5571 20.8318 38.8427 21.5784C39.1396 22.3548 38.6025 22.9585 38.6762 23.6944C38.7394 24.3262 39.0772 24.9301 38.8427 25.7258C38.2761 27.6471 36.2506 28.3665 35.4296 30.0424L35.8458 30.7195C39.2676 30.5854 44.4854 24.9034 47.5002 25.6411C47.8325 26.1294 48.008 26.4422 47.9997 27.3339C47.4455 28.4376 46.641 30.0085 46.0851 31.1427C45.9463 31.9609 45.8076 32.7791 45.6688 33.5973L44.1704 34.7822L43.6709 36.3904C43.1681 36.9445 42.4171 36.808 41.7563 37.2368L40.3411 39.0142C39.585 39.589 38.5559 39.747 38.1767 40.707C37.3999 42.8335 40.2165 48.1169 37.3442 48.5C34.2642 48.9108 31.5676 49.124 27.6757 48.5C24.5752 48.0028 27.085 42.3575 25.8563 40.1145C25.0296 39.7892 23.4051 39.0682 22.9427 38.3371C22.6857 37.9308 22.8144 37.6062 22.4432 37.3214L20.5286 36.7289L19.7794 34.6976L18.5307 33.9358C17.9933 33.2806 18.4087 32.3433 18.1145 31.5659L17.1988 30.5502C17.171 30.0988 17.1433 29.6474 17.1155 29.196C16.8622 28.3496 15.6185 27.7885 16.1166 26.4875C16.7016 25.2738 18.3941 25.6603 19.3631 26.2336C21.1096 27.2668 26.4254 30.5358 28.3537 30.7195C28.6201 30.5822 28.7024 30.563 28.8532 30.2963C28.8809 30.127 28.9087 29.9578 28.9364 29.7885C27.6994 28.4681 26.2284 27.5268 25.5233 25.6411C25.2217 24.8344 25.6217 24.2481 25.6066 23.4405C25.5964 22.8973 25.33 22.1694 25.5233 21.4938C25.6465 21.0635 27.7651 18.0336 28.104 17.8542L29.4359 17.685C30.1287 17.448 30.9265 16.8788 31.7668 16.5Z" fill="#D6BF96"/>
</svg>
