<svg width="50" height="52" viewBox="0 0 50 52" fill="none" xmlns="http://www.w3.org/2000/svg">
<path d="M43.4902 10.548L43.2698 10.2934L43.784 9.84503L44.0089 10.1045L43.4902 10.548ZM6.18655 10.9274L5.65992 10.4947L5.87924 10.2296L6.40275 10.6689L6.18655 10.9274ZM44.4018 11.6799L44.198 11.4142L44.7357 10.9939L44.9457 11.2676L44.4018 11.6799ZM5.29682 12.0805L4.74524 11.6792L4.94827 11.4024L5.49673 11.8085L5.29682 12.0805ZM45.244 12.8645L45.0566 12.587L45.6196 12.1996L45.8119 12.4848L45.244 12.8645ZM4.47777 13.2851L3.90228 12.9168L4.08903 12.6282L4.6614 13.0014L4.47777 13.2851ZM46.0139 14.0966L45.8424 13.8079L46.4276 13.4552L46.6032 13.7515L46.0139 14.0966ZM3.73147 14.5355L3.13555 14.2033L3.3074 13.9005L3.89709 14.2455L3.73147 14.5355ZM46.7068 15.3695L46.5544 15.0726L47.1593 14.7559L47.3169 15.0622L46.7068 15.3695ZM48.6862 20.8163L48.6093 20.4934L49.271 20.3275L49.3525 20.6656L48.6862 20.8163ZM1.19428 21.3322L0.526288 21.1912L0.588307 20.9064L1.26565 21.0013L1.19428 21.3322ZM48.9744 22.2452L48.9166 21.9146L49.5877 21.792L49.6473 22.1326L48.9744 22.2452ZM0.940319 22.7617L0.264702 22.663L0.317366 22.3217L0.991248 22.4302L0.940319 22.7617ZM49.1737 23.6844L49.1352 23.3528L49.8126 23.2683L49.8524 23.6137L49.1737 23.6844ZM0.770201 24.2079L0.0897364 24.1469L0.122651 23.806L0.801384 23.8718L0.770201 24.2079ZM49.288 25.1354L49.2693 24.7997L49.9511 24.7574L49.9699 25.1025L49.288 25.1354ZM0.687049 25.6586L0.00519683 25.6402L0.0169782 25.2951L0.698828 25.3235L0.687049 25.6586ZM49.9976 26.6879L49.3154 26.6786L49.3178 26.2521H50L49.9976 26.6879ZM0.00762342 27.1331L0 26.7884L0.681506 26.7791L0.689475 27.1141L0.00762342 27.1331ZM49.9335 28.1798L49.253 28.1327L49.2748 27.7956L49.9567 27.8379L49.9335 28.1798ZM0.0977061 28.6257L0.0696417 28.2817L0.750106 28.2297L0.77817 28.5644L0.0977061 28.6257ZM49.781 29.6683L49.104 29.5789L49.1463 29.2456L49.8233 29.3256L49.781 29.6683ZM0.277869 30.111L0.227978 29.767L0.904977 29.6776L0.952098 30.0075L0.277869 30.111ZM49.5399 31.1432L48.8688 31.0164L48.9315 30.6841L49.6026 30.8064L49.5399 31.1432ZM0.544649 31.5815L0.475702 31.2426L1.14473 31.1113L1.2123 31.4387L0.544649 31.5815ZM49.209 32.6035L48.549 32.4296L48.6304 32.1067L49.2935 32.2668L49.209 32.6035ZM0.901861 33.0352L0.810739 32.6995L1.47319 32.5297L1.55876 32.8506L0.901861 33.0352ZM48.7936 34.039L48.1429 33.8318L48.2451 33.5082L48.8968 33.7105L48.7936 34.039ZM1.34326 34.462L1.23343 34.136L1.88237 33.9229L1.98908 34.2413L1.34326 34.462ZM48.2881 35.4529L47.653 35.2035L47.7729 34.8892L48.4125 35.129L48.2881 35.4529ZM1.87059 35.8614L1.74205 35.5423L2.37712 35.2915L2.50255 35.6026L1.87059 35.8614ZM47.7008 36.8315L47.0817 36.5446L47.2206 36.238L47.8443 36.5155L47.7008 36.8315ZM2.48072 37.2234L2.33312 36.9115L2.95226 36.6264L3.09501 36.9257L2.48072 37.2234ZM3.17123 38.5469C3.11406 38.4457 3.05759 38.3438 3.00285 38.2409L3.60605 37.9212C3.65768 38.0192 3.71103 38.1145 3.76543 38.2111L3.17123 38.5469Z" fill="#C09C5E"/>
<path d="M19.8329 12.7241L19.9877 11.9837C19.9378 11.9663 19.8724 11.9514 19.8114 11.9514C19.573 11.9514 19.3717 12.1368 19.3717 12.4358C19.3717 12.6257 19.468 12.7566 19.6655 12.7566C19.7241 12.7566 19.7871 12.7438 19.8329 12.7241ZM19.2085 12.4469C19.2085 12.0516 19.4881 11.8132 19.7999 11.8132C19.8807 11.8132 19.9621 11.8288 20.0182 11.8485L20.1277 11.3268H20.285L19.968 12.8266C19.8876 12.8637 19.7546 12.8945 19.6499 12.8945C19.3984 12.8945 19.2085 12.7348 19.2085 12.4469Z" fill="#C09C5E"/>
<path d="M21.1825 12.2563C21.1929 12.2175 21.1992 12.1739 21.1992 12.141C21.1992 12.0488 21.1611 11.9462 21.0093 11.9462C20.8482 11.9462 20.7145 12.0907 20.6798 12.2633L21.1825 12.2563ZM20.4969 12.4552C20.4969 12.0886 20.7214 11.8132 21.0245 11.8132C21.2501 11.8132 21.3589 11.9553 21.3589 12.1475C21.3589 12.2213 21.3388 12.3135 21.3132 12.379L20.6583 12.388C20.6559 12.4074 20.6542 12.4292 20.6542 12.4486C20.6542 12.6454 20.7633 12.7587 20.9244 12.7587C21.0311 12.7587 21.1254 12.7216 21.2057 12.678L21.2501 12.7961C21.1559 12.8571 21.0245 12.8945 20.9112 12.8945C20.6736 12.8945 20.4969 12.7393 20.4969 12.4552Z" fill="#C09C5E"/>
<path d="M21.9239 12.7569C22.1986 12.7569 22.3756 12.5362 22.3756 12.2552C22.3756 12.0567 22.2637 11.9517 22.068 11.9517C22.0112 11.9517 21.954 11.9601 21.9148 11.9708L21.7562 12.7285C21.8081 12.7504 21.8819 12.7569 21.9239 12.7569ZM21.7818 11.8596C21.8691 11.8336 21.9744 11.8135 22.0763 11.8135C22.393 11.8135 22.5395 12.0058 22.5395 12.2417C22.5395 12.6589 22.2426 12.8948 21.9342 12.8948C21.8469 12.8948 21.7884 12.8837 21.725 12.8643L21.6138 13.3906H21.4565L21.7818 11.8596Z" fill="#C09C5E"/>
<path d="M22.8215 12.643C22.8215 12.6014 22.826 12.5429 22.8458 12.4445L22.9722 11.8395H23.1292L23.0013 12.4552C22.9861 12.5186 22.9788 12.5817 22.9788 12.6101C22.9788 12.7151 23.0356 12.7546 23.1053 12.7546C23.2955 12.7546 23.4372 12.5626 23.4784 12.3679L23.5903 11.8395H23.7473L23.6208 12.442C23.5969 12.5602 23.583 12.6475 23.583 12.7199C23.583 12.7698 23.5903 12.8135 23.5993 12.8547L23.4652 12.8831C23.4524 12.8419 23.4372 12.7629 23.4413 12.6756H23.4372C23.3499 12.8024 23.2012 12.8945 23.0661 12.8945C22.9289 12.8945 22.8215 12.8225 22.8215 12.643Z" fill="#C09C5E"/>
<path d="M24.1992 11.5129C24.1992 11.436 24.2578 11.3886 24.3195 11.3886C24.3797 11.3886 24.4147 11.4277 24.4147 11.48C24.4147 11.5542 24.3565 11.6048 24.2949 11.6048C24.2346 11.6048 24.1992 11.5653 24.1992 11.5129ZM24.1597 11.8379H24.317L24.0991 12.8711H23.9411L24.1597 11.8379Z" fill="#C09C5E"/>
<path d="M24.5166 12.6932C24.5776 12.7303 24.658 12.7587 24.7498 12.7587C24.8613 12.7587 24.9639 12.7064 24.9639 12.5976C24.9639 12.4008 24.632 12.3831 24.632 12.1087C24.632 11.9445 24.746 11.8132 24.9722 11.8132C25.0426 11.8132 25.1316 11.8219 25.2134 11.8548L25.1888 11.9861C25.1364 11.9663 25.0536 11.9466 24.9816 11.9466C24.8766 11.9466 24.7938 11.9902 24.7938 12.0994C24.7938 12.2917 25.1236 12.3048 25.1236 12.5931C25.1236 12.783 24.9639 12.8945 24.7522 12.8945C24.6344 12.8945 24.5367 12.8637 24.4598 12.8155L24.5166 12.6932Z" fill="#C09C5E"/>
<path d="M26.7413 11.7575C26.7413 11.6217 26.6474 11.5587 26.5074 11.5587C26.3851 11.5587 26.2628 11.6023 26.1647 11.6484L26.1297 11.5195C26.2233 11.4734 26.3723 11.4211 26.5296 11.4211C26.7516 11.4211 26.9069 11.5386 26.9069 11.7465C26.9069 12.1896 26.252 12.1983 26.1256 12.7332H26.8043L26.7742 12.8711H25.918C26.0286 12.1047 26.7413 12.1286 26.7413 11.7575Z" fill="#C09C5E"/>
<path d="M28.0331 11.8811C28.0331 11.6649 27.9635 11.5599 27.8176 11.5599C27.573 11.5599 27.3717 11.9729 27.3717 12.4334C27.3717 12.6499 27.4438 12.7546 27.591 12.7546C27.8349 12.7546 28.0331 12.3419 28.0331 11.8811ZM27.2037 12.4116C27.2037 11.9293 27.4368 11.4227 27.8256 11.4227C28.0688 11.4227 28.2018 11.5859 28.2018 11.9026C28.2018 12.388 27.9683 12.8945 27.5813 12.8945C27.3391 12.8945 27.2037 12.7303 27.2037 12.4116Z" fill="#C09C5E"/>
<path d="M29.2978 11.8811C29.2978 11.6649 29.2278 11.5599 29.082 11.5599C28.8374 11.5599 28.6364 11.9729 28.6364 12.4334C28.6364 12.6499 28.7085 12.7546 28.855 12.7546C29.0996 12.7546 29.2978 12.3419 29.2978 11.8811ZM28.4684 12.4116C28.4684 11.9293 28.7015 11.4227 29.0903 11.4227C29.3328 11.4227 29.4662 11.5859 29.4662 11.9026C29.4662 12.388 29.2327 12.8945 28.8457 12.8945C28.6035 12.8945 28.4684 12.7303 28.4684 12.4116Z" fill="#C09C5E"/>
<path d="M30.6231 11.772C30.6231 11.6213 30.5029 11.5537 30.3588 11.5537C30.2119 11.5537 30.0643 11.6369 30.0643 11.807C30.0643 11.9244 30.154 12.0343 30.3016 12.0755C30.4741 12.0273 30.6231 11.9379 30.6231 11.772ZM30.5531 12.4795C30.5531 12.3357 30.4243 12.2484 30.2254 12.1978C30.0421 12.2501 29.9153 12.3637 29.9153 12.5165C29.9153 12.6977 30.0722 12.7611 30.206 12.7611C30.3983 12.7611 30.5531 12.6565 30.5531 12.4795ZM29.7476 12.528C29.7476 12.3156 29.9046 12.1912 30.0875 12.1278V12.1236C29.9898 12.0668 29.8952 11.9688 29.8952 11.8115C29.8952 11.5887 30.0875 11.4227 30.3671 11.4227C30.6183 11.4227 30.7908 11.5558 30.7908 11.7612C30.7908 11.9553 30.6256 12.0821 30.4634 12.1389V12.1434C30.6207 12.1999 30.7208 12.309 30.7208 12.4729C30.7208 12.7417 30.4683 12.8945 30.2039 12.8945C29.9326 12.8945 29.7476 12.7566 29.7476 12.528Z" fill="#C09C5E"/>
<path fill-rule="evenodd" clip-rule="evenodd" d="M25.7506 41.9941C25.7558 41.8011 25.5846 41.7838 25.4693 41.711C25.2901 41.8863 25.5763 42.1732 25.7506 41.9941Z" fill="#C09C5E"/>
<path fill-rule="evenodd" clip-rule="evenodd" d="M34.3237 17.9297C34.1615 16.8754 32.996 16.8251 32.6644 15.9451C32.1413 17.3535 33.8168 17.271 34.3237 17.9297Z" fill="#C09C5E"/>
<path fill-rule="evenodd" clip-rule="evenodd" d="M30.5094 17.1856C30.3407 17.5646 30.0507 17.8317 29.9298 18.2617C30.3785 18.252 30.9526 17.5421 30.5094 17.1856Z" fill="#C09C5E"/>
<path fill-rule="evenodd" clip-rule="evenodd" d="M32.6647 18.8398C32.3422 18.4168 32.4568 17.56 32.0009 17.2693C31.7982 17.8995 32.0969 18.7061 32.6647 18.8398Z" fill="#C09C5E"/>
<path fill-rule="evenodd" clip-rule="evenodd" d="M33.991 18.0947C33.2454 18.2603 33.1668 17.7614 32.6644 17.6799C32.5948 18.4158 32.9548 18.7169 33.578 18.7578C33.7932 18.6161 33.998 18.4592 33.991 18.0947Z" fill="#C09C5E"/>
<path fill-rule="evenodd" clip-rule="evenodd" d="M14.087 37.3849C14.3316 37.9676 14.1092 39.0154 14.5849 39.375C14.8562 38.9052 14.5974 38.3571 14.7484 37.7151C14.508 37.6257 14.4387 37.3672 14.087 37.3849Z" fill="#C09C5E"/>
<path fill-rule="evenodd" clip-rule="evenodd" d="M22.7119 39.125C22.3263 38.4331 21.3128 38.37 20.3888 38.2148C20.6528 38.9778 21.9829 39.1032 22.7119 39.125Z" fill="#C09C5E"/>
<path fill-rule="evenodd" clip-rule="evenodd" d="M17.2391 39.1257C17.0035 38.977 16.8164 38.7737 16.5721 38.6292C16.489 39.0609 16.9896 39.5508 17.2391 39.1257Z" fill="#C09C5E"/>
<path fill-rule="evenodd" clip-rule="evenodd" d="M34.9902 38.8783C34.8821 38.8731 34.871 38.7716 34.7397 38.7931C34.7057 39.1167 34.2636 39.0398 34.2418 39.3762C34.2921 39.4864 34.4189 39.5273 34.5724 39.5391C34.7809 39.3897 34.9666 39.2189 34.9902 38.8783Z" fill="#C09C5E"/>
<path fill-rule="evenodd" clip-rule="evenodd" d="M15.2486 39.5409C15.3875 39.9539 15.6023 40.2899 15.9949 40.4531C16.184 40.3675 16.1674 40.0706 16.1591 39.7889C15.5912 40.0491 15.3885 39.166 15.2486 39.5409Z" fill="#C09C5E"/>
<path fill-rule="evenodd" clip-rule="evenodd" d="M20.1411 39.7861C19.832 39.7015 19.9062 39.9943 19.6425 39.9527C19.6765 39.836 19.7426 39.8162 19.6425 39.704C19.3927 39.7556 19.2195 39.8886 19.2285 40.2036C19.4409 40.2898 19.5188 39.8432 19.6425 40.1183C19.3601 40.25 19.3834 40.6883 19.1471 40.8657C18.7469 40.4904 18.4482 40.0179 18.1496 39.5383C17.3427 39.2574 16.1432 40.1301 16.7384 40.6997C16.8839 39.926 17.6115 39.9631 18.3169 40.1183C18.2681 40.4256 18.574 40.5982 18.4001 40.7808C18.0695 40.647 17.9053 40.3363 17.4844 40.2853C17.2734 40.3473 17.1985 40.549 17.2391 40.8657C17.8831 40.7732 17.6652 41.544 17.9854 41.7758C18.2078 41.6972 18.0695 41.2544 18.2324 41.1137H18.4843C18.5345 41.6892 18.2968 41.9764 17.9019 42.1064C17.7435 42.0721 17.7522 41.8697 17.4844 41.9425C17.2058 42.0052 17.0277 42.4764 17.2391 42.7719C17.581 42.8121 17.6049 42.5291 17.9854 42.6053C17.8471 42.9382 17.3932 42.9518 16.9078 42.9375C17.1313 43.8363 18.3672 42.9421 18.5664 42.5228C19.4093 42.977 19.1724 44.5126 20.3074 44.6758C19.1197 43.6866 19.3134 41.111 20.1411 39.7861Z" fill="#C09C5E"/>
<path fill-rule="evenodd" clip-rule="evenodd" d="M33.5783 42.3568C33.3493 42.2286 32.8091 41.6129 33.247 41.3641C33.6271 41.3135 33.1989 42.0751 33.6593 41.9431C33.7532 41.5699 33.869 41.2217 34.1486 41.0357C34.1402 41.053 34.1288 41.071 34.1091 41.0901C34.3124 41.1251 34.3835 41.026 34.5068 40.9778C34.4808 40.8143 34.5193 40.7145 34.5671 40.623C34.856 41.0641 34.8966 41.7875 34.5726 42.3568C34.0921 42.3498 33.9247 42.0869 33.5783 42.3568ZM33.247 40.4512C33.8021 40.0812 34.2459 40.2031 34.5155 40.5468C34.4164 40.5735 34.3363 40.6182 34.2476 40.6549C34.1669 40.5832 34.0512 40.5454 33.9906 40.4512C33.7286 40.63 33.5554 40.8974 33.1632 40.9466C33.1036 40.6948 33.3063 40.7031 33.247 40.4512ZM34.4895 42.9381H34.8242C34.8713 42.2386 35.2839 42.1766 35.3193 41.6129C35.3799 40.6691 34.2743 39.2417 33.247 39.8712C33.1715 40.1151 33.1715 40.1255 33.247 40.3684C32.7637 40.3847 32.7741 40.8915 32.498 41.1147C32.3251 40.9245 32.0063 40.4512 32.0843 40.2863C32.3033 40.3712 32.3642 40.6126 32.5808 40.6999C32.7072 40.2721 33.0371 40.0517 33.0797 39.5386C32.6272 39.498 32.6411 39.9304 32.4159 40.1193C31.9343 39.9634 31.9072 40.1044 31.3383 39.8712C31.5674 40.6355 32.1394 41.0592 32.0008 42.1898C32.112 42.3523 32.4412 42.0245 32.498 42.3568C32.3001 43.0407 32.0316 43.6584 31.9201 44.4297C32.6411 44.2111 32.2606 42.8945 33.0797 42.7725C33.2706 43.3397 34.0685 43.7045 34.8242 43.4343C34.8865 43.0937 34.4243 43.2784 34.4895 42.9381Z" fill="#C09C5E"/>
<path fill-rule="evenodd" clip-rule="evenodd" d="M11.3511 39.8714C11.4502 40.1174 11.7271 40.1912 11.5147 40.5339C11.7232 40.6046 11.8386 40.7618 12.0943 40.7812C11.9918 40.4199 12.0735 40.413 12.1799 40.1191C11.929 40.0107 11.7281 39.8517 11.3511 39.8714Z" fill="#C09C5E"/>
<path fill-rule="evenodd" clip-rule="evenodd" d="M14.9992 39.8732C14.7113 40.1112 14.1961 40.1192 13.8347 40.2879C13.8306 40.1576 13.8479 40.0014 13.6705 40.0395C13.4688 40.4435 12.7496 40.3333 12.507 40.7019C12.7153 41.1433 13.06 40.7657 13.5052 40.783C13.6636 41.0411 13.6916 41.424 14.0031 41.5307C14.0675 41.2497 13.9657 40.915 14.2508 40.7019C14.5412 40.8187 14.7806 40.4695 14.9154 40.7019C14.8187 41.1866 14.5332 40.907 14.1704 40.8679C14.1219 41.275 14.2768 41.478 14.5845 41.5307C14.8814 41.5518 14.8866 41.2809 15.1652 41.2809C15.485 41.5934 15.617 42.0968 16.1592 42.1914C15.6478 41.5439 15.8013 40.2283 14.9992 39.8732Z" fill="#C09C5E"/>
<path fill-rule="evenodd" clip-rule="evenodd" d="M22.6266 42.6044C22.883 42.1602 22.4825 41.9416 22.3792 41.6117C22.7974 41.6353 23.0199 41.8553 23.1273 42.1886C22.9474 42.3157 22.9346 42.6044 22.6266 42.6044ZM21.882 42.1058C22.1547 42.0836 22.2822 42.2035 22.2989 42.437C22.0293 42.4592 21.898 42.3407 21.882 42.1058ZM23.0451 44.4289C24.5613 44.2896 24.756 42.8289 25.1545 41.5736C25.204 41.5798 25.2539 41.5861 25.2989 41.5965C25.2806 41.2975 25.6049 41.3387 25.6374 41.0889C25.5415 41.0511 25.4341 41.0567 25.328 41.0868C25.4091 40.8879 25.502 40.7002 25.6139 40.5328C25.3138 40.3121 25.2085 40.8588 24.8686 40.8647C24.8755 40.7196 24.8558 40.6063 24.7848 40.5328C23.9671 40.7147 24.1927 39.8555 23.5423 39.8697C24.2419 40.7895 24.9729 43.2626 23.3764 43.765C23.3566 43.6458 23.2367 43.6244 23.2108 43.5149C24.8222 43.0347 23.8192 41.4922 23.1273 40.6988C23.2724 40.6794 23.5423 40.7812 23.4588 40.5328C23.4349 40.3637 23.2333 40.3696 23.2108 40.2026C22.787 40.2747 22.26 40.2491 22.1312 40.6149C22.3241 40.9749 23.1193 40.7362 23.0451 41.3626C22.7451 41.163 22.1731 41.2341 21.8013 41.1128C21.651 41.3429 21.7199 41.8768 21.6343 41.9416C21.4219 41.8494 21.6672 41.2992 21.4666 41.1953C21.5636 40.9233 22.1641 40.8332 21.9676 40.5328C21.5927 40.0121 21.2064 40.9233 20.886 40.6988C20.8312 40.3679 21.1077 40.3637 21.0526 40.0363C20.6992 39.9009 20.5069 40.5737 20.3077 40.8647C20.8475 41.0158 20.7855 41.7669 20.9715 42.2721C21.4812 42.5105 21.9039 42.8306 22.3792 43.1022C22.8321 42.9702 23.0379 42.5964 23.3764 42.3552C23.3864 43.1403 22.8251 43.4241 22.848 43.9185C22.8137 43.9105 22.778 43.905 22.7409 43.8998C22.7458 43.9906 22.7763 44.0554 22.8269 44.099C22.54 44.1264 22.636 43.7678 22.4659 43.6798C22.1062 43.7584 21.5543 43.765 21.4666 43.3479C21.6596 43.3749 21.7785 43.4792 22.0484 43.4335C21.7542 42.8365 20.9882 42.5811 20.3888 42.5222C20.1598 43.9629 21.3412 44.2594 22.3792 44.178C22.2697 44.6198 21.4957 44.3994 21.3831 44.8401C21.6537 44.9853 22.2154 44.8159 22.4659 44.6752C22.9159 45.4021 24.1344 45.1395 24.7027 44.6752C24.9161 44.9839 25.9184 45.4651 26.1145 45.0057C25.6191 44.7528 25.1659 44.46 24.6178 44.2605C24.2616 44.4503 23.4037 44.9971 23.0451 44.4289Z" fill="#C09C5E"/>
<path fill-rule="evenodd" clip-rule="evenodd" d="M28.0199 44.595C28.2929 44.5985 28.4325 44.736 28.7655 44.6775C28.7108 44.9609 27.9482 45.0842 28.0199 44.595ZM29.1833 42.8544C28.9076 42.8253 28.8213 42.607 28.6834 42.4393C28.7624 42.1032 28.9803 41.9064 29.3472 41.8593C29.2686 42.1964 28.9391 42.4414 29.1833 42.8544ZM31.5899 41.2807C31.3152 40.945 31.1648 40.4842 30.6725 40.3705C30.4102 40.5403 30.8318 40.9121 30.5921 41.0316C30.2889 40.9391 30.0769 40.6297 29.7623 40.7825C29.7301 41.2488 30.2709 41.1421 30.3461 41.614C30.4192 42.1205 30.0318 42.7127 29.5097 42.607C29.9667 42.3118 30.1749 41.949 30.009 41.3652C29.6629 41.4771 29.1293 41.5194 28.7655 41.4467C28.9273 41.1896 29.1303 40.981 29.5988 41.0316C29.711 40.4565 28.8033 40.532 28.5999 40.5344C28.3712 40.7631 28.6758 40.883 28.6834 41.1154C27.521 41.6871 28.5167 43.25 29.5988 43.2691C30.1327 42.8644 30.7175 42.5127 30.9226 41.7775C31.2899 42.6253 30.6292 43.1308 30.009 43.2691C29.8967 43.5317 29.9927 43.547 30.009 43.8494C29.8749 43.9873 29.5253 43.9146 29.2634 43.9333C29.2003 44.1172 29.2176 44.3823 29.016 44.4311C28.875 44.2939 28.9502 43.9419 28.9332 43.6824C28.4752 43.5563 28.6373 44.0538 28.269 44.0143C27.0127 43.0986 27.582 41.0247 28.3511 40.039C28.0085 40.3026 27.7701 39.8425 27.5224 40.039C27.4759 40.3324 27.8196 40.2434 27.7708 40.5344C27.6135 40.5445 27.7133 40.8105 27.5224 40.7825C27.2154 40.8435 27.1669 40.6432 26.8589 40.7014C26.5862 41.015 27.2202 41.174 27.0262 41.3652C27.0079 41.2412 26.827 41.2876 26.694 41.2807C27.0619 41.7737 27.1167 42.6759 26.5284 43.02V42.6898C26.107 42.6579 25.9508 42.8862 25.8666 43.1866C25.6691 43.161 25.711 42.8994 25.4508 42.9392C25.3043 43.1811 25.1473 43.407 25.1168 43.7673C25.552 43.9399 25.6902 44.4121 26.2796 44.4311C26.3423 44.0327 25.984 44.0622 26.0308 43.6824C26.519 43.6648 26.5439 44.1114 26.694 44.4311C26.6576 44.7239 26.4157 44.813 26.3607 45.0922C26.8048 45.2831 27.1076 45.2142 27.4403 45.0077C27.7743 45.4089 28.9076 45.3119 29.2634 45.0077C29.4629 45.2987 30.2823 45.3441 30.6725 45.1733C30.669 44.6577 29.9892 44.8074 29.8461 44.4311C30.4635 44.3276 31.1239 44.2728 31.2549 43.6824C31.1586 43.5591 31.0179 43.4818 31.0047 43.2691C31.6738 42.9115 31.1901 41.7872 31.5899 41.2807Z" fill="#C09C5E"/>
<path fill-rule="evenodd" clip-rule="evenodd" d="M12.6751 38.4614C12.6851 38.2525 12.797 38.1402 13.0077 38.1309C12.998 38.3391 12.8854 38.451 12.6751 38.4614ZM11.7653 39.1232C11.7732 39.7756 12.3023 39.9111 12.6751 40.2031C13.1931 40.1033 13.5336 39.856 14.0028 39.786C13.9137 38.8789 13.1719 37.94 13.4228 37.2197C13.0333 36.1342 11.3107 36.8077 12.0116 37.9646C12.3394 37.8773 12.5614 37.2425 12.9239 37.4674C12.8383 37.9577 12.1983 37.8984 12.1793 38.4614C12.3213 38.6794 12.5947 38.7635 12.7593 38.9593C12.8473 38.8831 12.7866 38.653 13.0077 38.7092C13.7356 39.7323 12.357 39.6145 11.7653 39.1232Z" fill="#C09C5E"/>
<path fill-rule="evenodd" clip-rule="evenodd" d="M38.2215 39.2098C38.5932 39.4381 38.7415 39.0227 38.9678 39.2098C38.8423 39.4665 38.4983 39.5071 38.3864 39.7863C38.061 39.7759 38.1438 39.4163 38.2215 39.2098ZM37.2257 40.946C37.1155 41.141 36.8567 41.1843 36.6478 41.2789C36.6118 41.1206 36.4094 41.1289 36.4808 40.8656C36.7535 40.8694 36.8924 41.0052 37.2257 40.946ZM36.4808 37.7158C36.4701 38.0526 36.8855 38.582 36.4808 38.7923C36.3904 38.608 36.3443 38.3803 36.2317 38.2116C35.9729 38.1725 36.0432 38.4666 35.7328 38.3803C35.7054 38.9032 35.5453 39.2985 35.4019 39.7056C35.898 39.6502 35.7827 38.9801 36.0661 38.7098C36.7115 40.0631 35.6479 41.2682 35.238 42.4375C35.9157 42.4278 35.8804 41.7013 36.4001 41.528C36.4922 41.7951 36.9565 41.7428 37.0601 41.7761C37.0421 42.0547 36.5761 42.1631 36.8151 42.4375C37.5621 42.3869 37.6491 41.6749 37.8902 41.1136C38.1324 40.912 38.3251 41.2921 38.5561 41.3634C38.7536 41.2605 38.8236 41.0229 38.8849 40.7807C38.0655 40.4976 37.4429 40.3874 36.7278 40.1186C36.8169 39.7905 36.9787 39.5403 37.2257 39.3758C37.2787 38.8273 36.9804 38.424 37.5559 38.3803C37.472 38.9673 37.7658 39.4191 37.5559 39.8702C37.8785 40.2132 38.5627 40.5018 39.0526 40.2035C39.511 39.1457 39.0911 38.1094 38.2215 37.7158C37.8244 37.6493 37.9221 38.0779 37.4755 37.9653C37.8646 36.9394 38.7772 37.8627 39.3835 38.0488C39.6305 37.6562 39.2162 37.3028 39.0526 37.0516C37.7568 36.8389 37.2874 37.4428 36.4808 37.7158Z" fill="#C09C5E"/>
<path fill-rule="evenodd" clip-rule="evenodd" d="M40.4376 26.0263C40.8842 26.1417 40.7002 25.623 40.9393 25.5312C41.6614 25.3635 42.2081 25.3646 42.6914 25.7159C42.3844 25.0531 42.5961 24.8695 42.5362 24.215C41.9929 24.1931 41.4607 24.1814 41.2064 24.4506C41.1378 24.709 41.4282 24.6151 41.3707 24.8701C40.8953 25.0908 40.5502 25.4384 40.4376 26.0263Z" fill="#C09C5E"/>
<path fill-rule="evenodd" clip-rule="evenodd" d="M9.9287 25.598C10.1678 25.6894 9.98379 26.2081 10.4304 26.0927C10.3178 25.5044 9.9727 25.1573 9.49735 24.9369C9.43983 24.6816 9.73052 24.7758 9.66157 24.5173C9.40761 24.2478 8.87509 24.2596 8.33217 24.2814C8.27188 24.9359 8.48358 25.1198 8.17661 25.7826C8.65993 25.431 9.20666 25.4303 9.9287 25.598Z" fill="#C09C5E"/>
<path fill-rule="evenodd" clip-rule="evenodd" d="M21.9665 18.7307C21.9665 18.7287 21.9637 18.7307 21.962 18.7314C21.752 19.044 22.3843 19.3457 22.6113 19.3672C22.8337 19.389 22.9955 19.317 23.1784 19.195C23.3583 19.0755 23.6046 18.8368 23.8388 18.8974C23.8593 18.9033 23.8863 18.8822 23.8769 18.8593C23.7879 18.6476 23.3676 18.8503 23.2276 18.8908C23.0253 18.9476 22.8202 19.0239 22.6085 19.0239C22.3164 19.0249 22.208 18.7754 21.9665 18.7307Z" fill="#C09C5E"/>
<path fill-rule="evenodd" clip-rule="evenodd" d="M32.8738 25.277C32.016 25.5085 30.9305 25.3865 30.3075 25.9703C30.3581 26.0101 30.4077 26.0451 30.4589 26.0756C30.5255 26.1075 30.5965 26.1331 30.6744 26.1501C30.7642 26.1671 30.7787 26.2485 30.7489 26.3112C30.9322 26.6792 31.3899 26.5977 31.7637 26.5551C31.7942 26.5527 31.823 26.5503 31.8535 26.5451C31.8535 26.5451 31.8618 26.5451 31.8646 26.544C31.8822 26.5416 31.8989 26.5406 31.9151 26.5385C32.1303 26.4969 32.0652 26.1806 31.8635 26.173C31.6924 26.1647 31.5229 26.1875 31.3507 26.1837C31.2839 26.1837 31.2025 26.1782 31.12 26.1647C31.1134 26.1432 31.1082 26.1214 31.1027 26.0992C31.4439 25.5712 32.7983 26.0749 32.8738 25.277Z" fill="#C09C5E"/>
<path fill-rule="evenodd" clip-rule="evenodd" d="M20.8655 19.6622C20.8818 20.0059 21.2061 20.0381 21.5238 20.0859C21.4815 19.771 21.1725 19.7145 20.8655 19.6622Z" fill="#C09C5E"/>
<path fill-rule="evenodd" clip-rule="evenodd" d="M21.0019 22.1077C20.6966 21.7969 19.7206 21.3805 19.2075 21.6109C18.8915 21.754 18.7651 22.1825 18.967 22.5044C19.1857 22.2456 19.4084 22.2588 19.4542 22.4687C19.3991 22.6562 19.176 22.6957 19.194 22.9749C19.3676 22.9281 19.3676 22.9281 19.4712 22.908C19.6212 22.8942 19.6551 22.8776 19.6926 22.9441C19.7071 22.9715 19.7882 23.1935 20.0764 23.0823C20.1457 22.6766 20.4011 22.8228 20.6273 22.784C20.6291 22.2331 19.8079 22.4552 19.5765 22.3021C19.6233 21.9584 20.6848 22.0467 21.0019 22.1077Z" fill="#C09C5E"/>
<path fill-rule="evenodd" clip-rule="evenodd" d="M19.907 15.6601C19.406 15.5181 19.3381 14.9533 18.8329 14.8154C19.0162 15.2135 19.539 15.7135 19.907 15.6601Z" fill="#C09C5E"/>
<path fill-rule="evenodd" clip-rule="evenodd" d="M31.9085 22.1094C32.2824 21.9594 32.6628 21.8145 32.9944 21.6195C32.7099 21.0831 31.938 21.6164 31.9085 22.1094Z" fill="#C09C5E"/>
<path fill-rule="evenodd" clip-rule="evenodd" d="M33.4044 22.0388C32.1034 21.7626 31.417 23.2303 33.0652 22.8679C33.219 22.7237 33.0298 22.6267 32.9858 22.4521C33.1577 22.3475 33.4089 22.3236 33.4044 22.0388Z" fill="#C09C5E"/>
<path fill-rule="evenodd" clip-rule="evenodd" d="M42.5107 18.8867C42.6167 18.4301 42.9414 17.7621 42.853 17.3941C42.5613 17.6789 42.1964 17.8958 42.0156 18.3001C42.2224 18.4536 42.1608 18.8704 42.5107 18.8867Z" fill="#C09C5E"/>
<path fill-rule="evenodd" clip-rule="evenodd" d="M20.5569 17.1641C20.2617 16.5134 19.2785 15.8378 18.7473 15.148C19.0228 16.1413 19.8619 16.5803 20.5569 17.1641Z" fill="#C09C5E"/>
<path fill-rule="evenodd" clip-rule="evenodd" d="M28.2757 15.207C28.8799 15.2018 29.5787 14.6731 30.1591 14.6489C29.7426 14.3391 28.4004 14.8138 28.2757 15.207Z" fill="#C09C5E"/>
<path fill-rule="evenodd" clip-rule="evenodd" d="M20.1688 15.4615C20.5957 15.7757 21.1881 15.9632 21.7078 15.7885C21.7491 15.7733 21.7491 15.7199 21.7078 15.7064C21.6146 15.6732 21.5266 15.6524 21.4411 15.6333C21.2519 15.5055 21.1247 15.3842 21.0537 15.158C21.0017 14.9986 20.9467 14.8725 20.8406 14.7384C20.8043 14.6902 20.7596 14.6421 20.7128 14.5953C20.9027 14.6539 21.0977 14.7003 21.2748 14.7665C21.7841 14.9556 22.3208 15.1445 22.7684 15.4552C22.775 15.4615 22.7836 15.4507 22.7784 15.4438C22.0865 14.7453 21.2131 14.552 20.3202 14.3088C20.1941 14.2478 20.0611 14.2097 19.928 14.2135C19.9187 14.2135 19.9138 14.2274 19.9204 14.2332C20.0874 14.3739 20.2409 14.491 20.3653 14.6743C20.4782 14.843 20.5451 15.0623 20.6792 15.2138C20.6875 15.2235 20.6965 15.2345 20.7062 15.2463C20.5638 15.1438 20.4145 15.0502 20.2662 14.9491C19.9346 14.7225 19.5847 14.4401 19.205 14.307C19.1925 14.3029 19.1804 14.3199 19.188 14.3299C19.5078 14.7519 19.734 15.1403 20.1688 15.4615Z" fill="#C09C5E"/>
<path fill-rule="evenodd" clip-rule="evenodd" d="M31.801 24.2715L31.4677 24.2691C31.3984 24.5896 31.8637 24.5948 31.801 24.2715Z" fill="#C09C5E"/>
<path fill-rule="evenodd" clip-rule="evenodd" d="M23.9276 25.8196C24.0575 25.7077 24.1396 25.5757 24.2134 25.4229C24.2252 25.3983 24.1999 25.3647 24.1735 25.382C24.0648 25.4627 23.9456 25.5244 23.843 25.6096C23.7242 25.7042 23.5728 25.7586 23.5114 25.9024C23.4875 25.9509 23.5159 26.0025 23.57 26.007C23.7235 26.0178 23.8195 25.9135 23.9276 25.8196Z" fill="#C09C5E"/>
<path fill-rule="evenodd" clip-rule="evenodd" d="M33.6571 21.6255C34.0486 22.0925 33.4427 22.0728 33.479 22.6247C34.1529 22.6476 34.3352 21.4096 33.6571 21.6255Z" fill="#C09C5E"/>
<path fill-rule="evenodd" clip-rule="evenodd" d="M20.4689 17.4921C20.1848 17.1678 20.0151 16.7309 19.478 16.6512C19.654 17.0438 20.1602 17.4994 20.4689 17.4921Z" fill="#C09C5E"/>
<path fill-rule="evenodd" clip-rule="evenodd" d="M26.9663 27.2359C27.0349 27.3918 27.4645 29.5015 26.9763 29.8802C26.9708 29.8847 26.2397 30.5634 25.9712 30.7782C25.9813 30.2904 26.274 27.9521 26.9663 27.2359ZM26.8069 24.2996C27.0789 24.5456 26.9206 25.2465 26.484 25.2943C26.0908 25.3359 26.274 24.7459 26.8069 24.2996ZM26.5696 23.3007C26.9663 23.3208 27.2154 23.4903 27.1426 23.9746C26.9323 24.0051 26.6815 23.9933 26.3946 24.1323C26.2217 23.8939 26.4279 23.4826 26.5696 23.3007ZM26.5918 21.9017C26.6704 21.7846 26.7989 21.7163 27.0023 21.7243C26.9538 21.9557 26.7917 22.2513 26.8908 22.4224L26.8873 22.4211C26.9448 22.5292 27.0023 22.6473 27.0214 22.7623C27.0259 22.7887 26.9944 22.8015 26.9798 22.781C26.8149 22.5635 26.5069 22.5531 26.4656 22.2419C26.4483 22.1106 26.4992 21.9869 26.5918 21.9017ZM28.9897 22.3275C28.8123 22.5624 28.6231 22.7911 28.2351 22.8157C28.3341 22.4997 28.6231 22.3743 28.9897 22.3275ZM23.0456 35.9767C23.1111 35.8235 23.1825 35.6738 23.2106 35.4809C23.3938 35.8176 23.548 36.0421 23.6253 36.6412C23.1236 36.7257 23.4389 35.9978 23.0456 35.9767ZM24.9474 19.0392C24.9006 19.0392 24.8656 19.0302 24.8313 19.0194C24.8261 19.0146 24.8223 19.0094 24.8185 19.0052C24.654 18.8545 24.3854 18.7124 24.1588 18.789C24.1419 18.7949 24.1419 18.8185 24.1588 18.8254C24.2732 18.8663 24.382 18.9661 24.4669 19.0866C24.4804 19.1168 24.498 19.1435 24.5202 19.166C24.5909 19.2883 24.638 19.4203 24.6352 19.5332C24.6352 19.5561 24.638 19.5804 24.6422 19.6046C24.32 19.3163 23.8124 19.0399 23.5463 19.4653C23.5439 19.466 23.5463 19.4705 23.5463 19.4705C24.4281 19.6306 24.7991 20.6672 24.9703 21.4409C25.0392 21.7572 24.9862 22.1072 24.9349 22.4633C24.9304 22.4969 24.972 22.516 24.9925 22.4862C25.1692 22.2198 25.3268 21.7964 25.3517 21.4513C25.4051 21.6606 25.4339 21.918 25.4619 22.1886C25.3822 22.3275 25.305 22.4682 25.2412 22.6258C25.077 23.0253 24.8674 23.4064 24.6235 23.7626C24.6342 23.6905 24.6262 23.616 24.5701 23.5287C24.1751 23.3593 23.9201 24.205 23.715 23.9441C23.7133 23.632 24.2607 23.4407 24.1588 23.027C23.9524 22.9148 23.7538 23.2058 23.742 23.0225C24.0986 22.8202 24.7728 21.743 24.0085 21.4409C23.8183 21.6148 24.0573 22.2198 23.6676 22.1886C23.476 21.9062 23.4853 21.1218 23.1035 21.0317C22.8624 22.6816 22.8852 22.8871 22.8461 24.3031C22.8236 25.1956 22.527 25.338 22.1445 25.8466C22.5741 25.5206 23.1981 24.9298 23.9905 24.5543C24.0473 24.5293 24.1668 24.5543 24.0889 24.6475C23.7854 25.0102 23.5293 25.0331 23.2532 25.5077C23.5498 25.6765 24.3626 24.5719 24.549 24.7601C24.6397 24.8526 24.6335 24.9468 24.6065 25.0795C24.5192 25.5382 24.3193 26.0995 23.5411 26.8874C23.3176 27.1147 22.5353 27.4393 22.2255 27.7213C21.9259 27.9607 21.1272 29.4149 21.0458 29.6598C20.6948 30.3354 20.5407 31.0329 20.0833 31.6482C20.0331 31.7154 21.0018 31.8627 21.3594 31.5848C21.9065 31.1594 20.8958 30.6525 21.3441 30.1667C21.7367 29.7388 22.3191 29.5268 22.6129 29.0088C22.8038 28.7549 23.2057 27.7452 23.478 27.3291C23.6741 27.0274 24.3983 26.4332 24.7541 26.0087C24.8594 25.8833 25.2305 24.5498 25.3403 25.1796C25.4193 25.6401 25.0268 26.7207 24.5812 27.318C24.1505 27.897 23.9139 28.5996 23.6048 29.937C23.4108 30.7723 22.5311 32.2743 22.5211 32.3058C22.52 32.3079 22.5183 32.3103 22.5173 32.3121L22.5194 32.3117C22.1829 33.3847 22.6462 33.559 22.7976 34.7339C22.878 34.9833 23.3876 34.8049 23.3765 35.1489C22.7324 35.1666 22.6607 36.4035 21.8815 36.557C20.7673 36.1142 20.2995 34.624 20.5549 33.0788C19.6894 33.2929 18.8596 34.2505 18.6489 35.3974C18.7699 35.5249 19.0748 35.4712 19.3107 35.4809C20.0376 36.7174 21.6816 37.0348 23.1274 37.55C21.2724 37.3878 19.9752 36.6668 18.5668 36.0615C18.9285 36.9693 20.1918 36.9734 20.8854 37.55C20.6418 37.5739 20.3834 37.3196 20.3075 37.6352C21.1293 37.9588 22.6583 38.1324 23.3765 38.0499C24.4398 37.9266 25.9307 38.2363 26.694 37.6352C25.2665 37.7357 24.4509 37.225 23.7888 36.557C23.9818 36.4156 23.7119 35.8152 24.1225 35.8945C24.278 36.0155 24.1336 36.4371 24.2884 36.557C24.6456 36.6658 24.3892 36.1631 24.7028 36.2244C24.5978 36.6412 24.4741 36.856 24.7842 37.1366C25.7609 36.856 26.9905 37.1384 27.7711 36.557C27.3637 36.3446 26.7695 36.5823 26.361 36.6412C26.2876 36.4919 26.1299 36.4291 26.1947 36.1412C26.7324 36.0453 27.0519 35.7282 27.2733 35.3139C27.1035 35.1389 26.6028 35.4777 26.361 35.2314C26.4975 35.0308 26.5755 34.8292 26.4442 34.5714H25.8669C25.7415 33.9474 25.481 33.462 25.0354 33.1602C24.9239 32.6215 25.4034 31.9895 25.6376 31.7944C25.8337 31.6801 26.0402 31.5526 26.2325 31.4265C27.5393 30.5634 28.3044 30.2592 28.8376 29.0639C28.9904 29.1006 29.1258 29.2718 29.2516 29.2378C29.1199 27.8256 26.9105 27.8343 27.5428 25.3051C28.0376 26.0704 29.0461 27.0675 29.5354 27.1673C27.6038 24.9693 28.0317 24.4015 28.5621 23.7972C28.7607 23.571 28.1876 23.4352 28.5621 23.4047C29.0444 23.3641 29.2055 23.0478 29.817 23.1677C30.1691 23.8395 29.7235 25.2915 30.5394 25.5025C30.756 25.2534 30.9382 25.0594 30.8897 24.5293C30.8398 24.3855 30.1936 24.531 30.4701 23.9202C30.9839 22.7727 30.5405 21.7333 29.587 21.5119C29.0496 21.6876 28.164 22.041 27.6589 22.5635C28.0961 21.7648 28.2604 20.9326 28.2853 20.24C28.1713 20.4088 27.8834 20.59 27.7299 20.6315C27.4274 20.7112 27.1492 20.6004 27.0096 20.353C26.9978 20.3325 27.0079 20.3086 27.0314 20.3138C27.1724 20.345 27.3138 20.379 27.4759 20.3467C27.6374 20.3152 27.8477 20.2189 27.9659 19.9511C28.6529 18.3982 29.6109 18.4276 30.1216 17.3429C29.8115 17.5119 29.1158 17.6831 28.7021 17.5074C28.8164 17.4125 28.9249 17.32 29.0209 17.2483C29.6098 16.8107 30.0939 16.4334 30.4736 15.7969C30.5069 15.739 30.4403 15.676 30.3828 15.7082C30.2567 15.7792 30.1341 15.8489 30.0152 15.9192C29.9019 15.9705 29.7962 16.0429 29.6965 16.1139C29.6137 16.1666 29.5319 16.2199 29.4522 16.2775C29.3209 16.3513 29.1913 16.3894 29.0524 16.3336C29.3878 15.8385 29.8739 15.5312 30.3665 15.1054C29.2911 14.9124 29.0527 16.0886 28.3955 16.5675C28.085 17.0106 27.6499 17.3491 27.1714 17.2143C27.1544 17.2091 27.1503 17.1887 27.161 17.1762C27.4281 16.8772 27.7344 16.6267 28.0199 16.344C28.074 16.2892 28.128 16.2317 28.181 16.1742C28.2351 16.0904 28.3064 16.019 28.382 15.9556C28.5046 15.8208 28.6276 15.6895 28.7565 15.5672C28.7807 15.5215 28.8015 15.4733 28.814 15.4182C28.0376 15.5319 27.839 16.6575 27.1368 16.564C27.1908 16.0904 27.6994 16.0765 27.7309 15.5717C26.3918 16.0564 26.4449 18.0178 25.6986 18.8788C25.85 18.8815 25.9608 18.8358 26.0613 18.7838C26.0669 18.7914 26.0748 18.798 26.0831 18.8025C26.0662 18.9034 26.0509 19.0052 26.0391 19.1067C26.0211 19.2076 26.0093 19.3094 26.0035 19.4137C25.9858 19.4612 25.9678 19.5076 25.9442 19.5478C25.0098 18.4557 24.9557 16.0668 23.3142 15.9435C24.1398 16.7022 24.707 17.7101 24.9474 19.0392Z" fill="#C09C5E"/>
<path fill-rule="evenodd" clip-rule="evenodd" d="M41.9964 32.1568C41.8578 32.4704 41.3381 32.5771 40.9511 32.5854C40.7124 32.5906 40.4733 32.5826 40.2349 32.5864C39.9876 32.5906 39.9009 32.4184 40.1234 32.2455C40.1452 32.2296 40.8548 31.7002 41.1087 31.5955C41.2709 31.5294 41.4472 31.5779 41.5837 31.6794C41.8769 31.6524 42.1045 31.9119 41.9964 32.1568ZM41.8311 35.7906C41.8301 35.7951 41.8263 35.7961 41.8245 35.7999C41.8284 35.7937 41.8315 35.7875 41.8353 35.7816C41.8335 35.785 41.8325 35.7875 41.8311 35.7906ZM38.7697 32.496C38.4756 31.5578 37.204 30.0361 36.1217 28.8969C36.6694 28.9035 38.1804 29.5489 38.4298 29.9782C38.2847 29.1917 37.5456 27.3873 37.6094 27.0679C37.739 26.4065 38.8546 27.2033 39.1834 28.5774C39.3892 29.4453 39.7544 30.8673 38.7697 32.496ZM48.1649 19.1126C48.7938 18.4921 49.5771 16.5927 48.5363 15.7882C47.3978 15.94 46.4949 15.4418 45.6537 15.5013C45.3384 15.5228 45.0103 15.528 44.7075 15.5696C44.2093 15.6399 42.8626 16.0976 42.3647 16.8055C42.6592 16.6724 43.0576 16.6468 43.3566 16.5196C43.6397 16.4451 44.245 16.1832 44.2755 16.1704C44.9154 16.019 45.2227 16.2289 45.7854 16.1766C45.7095 16.3571 45.5664 16.4573 45.6125 16.7563C45.9302 16.7421 45.7639 16.2424 46.1187 16.2629C45.8356 16.9472 45.5983 17.6803 44.9341 17.6668C44.3957 17.6522 44.2457 16.8564 43.693 16.9867C43.5804 17.7631 43.6303 18.147 44.0101 18.57C44.6805 18.4463 45.0796 18.209 45.8422 18.4204C45.7036 18.648 45.5754 18.8015 45.5695 18.9906C46.7208 18.4675 47.596 17.8667 48.0184 17.1121C48.203 17.629 48.087 17.9 47.7935 18.2294C47.4657 18.5998 47.2281 18.7086 46.858 19.1261C46.5317 19.4837 45.8782 20.0602 46.2382 20.5889C45.634 20.6755 45.1579 20.8924 44.7321 21.1585C44.5298 21.083 44.6483 20.6915 44.3222 20.7389C44.3545 21.3747 43.665 21.6765 43.8926 22.2301C44.3735 22.252 44.4723 21.9637 44.8894 21.9924C45.0838 22.0333 45.5934 22.0763 45.8855 22.3358C46.0168 22.4546 45.9053 22.7228 46.0511 22.9199C46.3664 23.3717 46.7063 23.1843 46.7884 23.5107C46.9128 23.9937 46.6238 24.9295 46.0314 24.8352C45.8484 24.8058 45.5855 24.7701 45.6994 24.415C45.4216 24.4174 45.2847 24.5504 44.949 24.4895C44.5831 24.1374 44.3752 23.6243 43.7107 23.562C43.7862 23.836 44.0891 24.5504 43.9404 25.3123C43.8091 25.7925 42.8286 25.4114 42.7635 25.9651C43.0576 26.148 43.401 26.4027 43.5822 26.7651C43.665 26.9331 43.7492 27.1001 43.7935 27.2848C43.8476 27.512 43.8898 27.6822 43.8943 27.9479C43.8992 28.1568 43.8566 28.3044 43.788 28.3647C43.717 28.4264 43.6217 28.4011 43.5531 28.311C43.4585 28.1894 43.3549 28.0965 43.2118 28.0331C43.1075 27.9857 42.9727 28.0882 43.0431 28.2026C43.0829 28.2639 43.1397 28.3983 43.1626 28.4673C43.2811 28.8148 42.804 28.7555 42.4887 28.7954C42.1599 29.4911 41.8308 30.6022 41.0582 30.4432C41.0419 30.4394 41.0256 30.4335 41.0103 30.4252C41.1995 30.3843 41.3717 30.281 41.4372 30.0901C41.4625 30.0181 41.3994 29.9876 41.3274 30.0468C41.2352 30.1269 41.1538 30.175 41.0817 30.1979C41.0013 30.2235 40.9352 30.2325 40.8444 30.2006C40.8194 30.192 40.7886 30.1622 40.7862 30.1469C41.5588 29.7111 40.7664 28.5213 41.3956 28.0272C41.8252 28.0002 42.276 27.978 42.4215 27.4594C42.0574 27.0745 42.0082 26.3805 41.4337 26.2017C41.3055 26.9712 41.3395 27.8932 40.7446 28.1929C39.9543 27.9247 39.9318 26.9061 39.5157 26.2651C40.1435 25.2337 39.2042 24.3266 39.7994 23.4386C39.9775 23.6233 40.1993 23.7591 40.6275 23.6953C40.6386 23.3028 40.3656 23.1857 40.3926 22.7775C40.8174 22.5281 41.5553 23.0343 41.8845 22.6272C42.0241 22.1924 41.4472 22.1529 41.8145 21.6273C41.5837 21.3858 41.2681 21.9162 40.9809 21.6179C40.825 20.9433 41.6614 20.6745 41.0807 20.2889C40.8194 20.3332 40.9691 20.7306 40.8409 20.9129C40.052 20.8643 39.8885 22.8309 39.2205 22.9317C38.9035 22.9834 38.2757 22.6975 38.4007 21.9249C38.7295 22.1851 39.006 21.9883 39.3102 22.2672C39.367 20.6433 40.3486 19.9646 41.3395 19.2931C40.4009 19.0166 39.6238 19.6056 39.1654 20.1025C38.8349 19.7726 38.3883 20.028 38.2365 20.3263C38.0162 20.7559 38.154 21.672 37.4022 21.6647C37.5276 21.2579 37.5287 20.7472 37.5075 20.3349C37.4843 19.8523 37.2654 19.6042 37.1285 19.3253C37.5356 19.3378 37.9288 19.7099 38.0813 19.9788C38.101 19.0329 38.9312 18.437 39.5434 18.1768C40.2585 17.8709 40.464 17.7946 41.0336 17.2784C40.1688 17.348 39.7506 17.5732 38.9402 18.0198C38.1658 18.4446 37.7726 18.8032 37.5976 18.8378C36.4931 19.054 36.3659 17.7174 35.868 16.9063C35.1852 15.7841 34.0886 15.017 32.6452 14.7914C33.3807 15.1906 34.1932 15.5994 34.6315 15.9774C35.0486 16.3367 35.3369 16.8342 35.5735 17.3182C35.7482 17.6775 35.7073 17.8029 35.4447 17.9006C36.448 18.6795 35.6609 20.1693 34.5088 19.8863C34.6706 20.5698 35.5808 20.6949 36.0032 20.3332C36.0032 20.3332 36.6965 20.856 36.4009 21.9322C35.8843 21.8036 35.726 21.7825 35.4928 21.145C35.4007 21.4187 35.314 21.7728 35.3771 22.1068C35.4648 22.6577 35.7547 23.1961 36.4092 23.1233C36.9726 23.0613 37.1999 22.0756 37.1999 22.1747C37.2106 22.6798 37.178 23.6465 36.6583 23.976C36.2228 24.2525 35.8538 24.1149 35.5437 23.9122C35.5122 24.0616 35.4436 24.3412 35.6165 24.7056C35.8545 25.2115 36.1608 25.1387 36.2055 25.7014C36.2453 25.8989 36.2641 26.0576 36.2641 26.0576C36.2228 26.5984 35.8719 27.2075 35.8719 27.2075C35.5205 27.501 35.0739 27.941 34.2469 28.4908C34.8144 29.463 37.151 31.3565 37.6669 32.0619C38.3893 32.6803 38.3193 33.3892 38.3865 33.5756C38.11 34.1255 37.3492 34.2121 36.7276 34.0724C36.0503 33.6449 35.233 33.1072 34.609 32.3439C34.5109 32.2133 34.4156 32.082 34.3238 31.9475C33.8114 31.1912 33.4223 30.3631 33.1604 29.6113C32.7748 28.5026 33.0034 28.1028 33.6025 27.6375C34.2435 27.1399 35.4142 26.4855 35.4114 25.7998C35.4107 25.3574 35.1987 25.3463 35.1952 25.3404C35.1308 25.5025 35.0369 25.6238 34.8803 25.8185C34.1842 26.6753 32.6642 28.1263 31.8438 28.1821C31.1193 28.2341 30.0463 27.4466 30.0567 27.485C30.0872 27.6122 30.2573 27.7577 30.2958 28.0026C30.3526 28.3588 30.3491 28.5106 30.3464 28.8671C30.2819 30.0236 29.8717 31.2168 29.3683 32.188C29.3371 32.2448 29.0575 33.209 28.8472 33.5753C28.5163 34.1632 27.8417 34.5831 27.8556 35.2324C29.2255 35.2608 29.9303 33.8393 30.0231 32.3297C30.0418 32.3089 30.0574 32.2843 30.0675 32.2566C30.1846 31.9489 30.1329 31.5287 30.2241 31.2092C30.8779 31.0211 31.1866 30.4023 30.9939 29.5884C31.1949 29.3705 31.41 28.9274 31.751 29.0961C32.2291 29.331 32.377 30.0361 32.7297 30.8537C32.9674 31.3956 33.1978 31.8848 33.4927 32.3093C33.6066 32.5708 33.6988 32.8439 33.7435 33.1602C33.1056 33.7398 32.5742 34.422 31.6716 34.7345C31.4651 33.911 32.5305 32.9998 32.3652 32.2119C32.3652 32.2119 32.1667 31.8367 31.9727 31.6794C31.8559 31.8304 31.7305 31.9448 31.6051 32.1225C31.567 32.1783 31.5344 32.2386 31.5174 32.2926C31.2455 32.6391 30.9846 32.9745 30.7576 33.3275C30.4908 33.7367 30.4188 34.1708 30.1769 34.572C29.5845 35.5456 28.3746 35.3093 27.5226 36.0622C27.8902 36.3037 28.1407 35.8242 28.5187 35.8145C29.6645 36.3196 30.125 35.0124 31.5063 35.2321C31.4977 35.5013 31.0099 35.2899 31.0899 35.6489C32.4501 36.9034 34.3664 34.8364 35.402 34.4872C34.6665 36.5944 31.4447 36.223 29.6822 37.3026C30.7888 37.472 31.5691 36.8743 32.4158 37.0535C32.0714 37.5399 31.2281 37.5243 30.5917 37.7173C30.5518 38.3957 29.6354 38.1975 29.4306 38.711C31.118 38.6597 32.4567 37.8133 33.7435 37.6359C33.6406 37.9221 33.2099 37.876 33.0797 38.1327C34.6305 37.8846 36.1885 36.9329 37.6434 36.3117C37.6617 36.6346 37.3437 36.62 37.3953 36.9738C37.7016 36.8934 37.9735 36.7801 37.9735 36.391C38.0397 36.0504 37.5761 36.2368 37.6434 35.8956C37.7878 35.7372 37.9514 35.5979 38.2213 35.5633C38.285 35.7532 38.0744 36.2112 38.3865 36.1422C39.1321 35.5584 38.6699 34.7934 38.3865 33.9882C38.4059 33.5822 39.4 32.8931 39.55 33.6594C39.3223 33.7655 38.9651 33.7367 38.9683 34.0724C38.8588 34.4366 39.4602 33.9252 39.55 34.2398C39.6137 34.5495 39.4495 34.6348 39.4651 34.9012C39.885 34.8489 39.8815 34.7484 40.2162 34.7345C40.0894 34.324 40.0059 34.2644 40.3794 34.0724C40.245 33.684 40.0873 33.4062 39.9657 33.04C40.1656 33.0594 40.3659 33.0767 40.5655 33.0975C40.7515 33.1151 40.9521 33.1345 41.1659 33.1557C40.9435 33.3372 40.5759 33.3726 40.5457 33.7398C40.9708 33.9959 40.9788 33.4277 41.4552 33.4942C41.7151 33.6771 41.706 34.1293 41.9534 34.324C41.4587 34.7013 41.9302 35.0287 41.6222 35.5633C41.1119 35.8789 40.8077 35.3506 40.4615 35.2321C40.2713 35.5311 40.4979 35.7552 40.3794 36.0622C39.8459 35.6866 39.6969 36.6519 39.3036 36.391C39.296 35.8384 39.9006 35.8876 40.0451 35.4812C39.9103 35.3149 39.8233 35.0963 39.55 35.0675C39.296 35.5408 38.5743 35.6742 38.8854 36.4745C39.2129 36.62 39.5455 36.7545 39.6328 37.1373C40.0894 36.8518 40.6975 36.7111 40.7928 36.0622C40.8537 36.1398 40.9303 36.2022 40.9833 36.2885C40.9119 37.0507 40.3358 37.4675 39.8687 37.515C39.9969 38.2616 39.9048 38.3094 40.1823 39.125C40.7411 38.8686 40.4692 37.9983 40.6819 37.5503C40.8246 37.2575 41.152 37.0711 41.3454 36.8896C42.161 36.1246 42.7319 34.4057 43.0036 33.4311C43.1228 33.1023 43.1827 32.8577 43.1851 32.7212C43.1917 32.3474 42.5455 31.275 42.6405 30.9074C42.8265 30.1937 43.4027 29.5961 43.4027 29.5961C43.8611 29.7049 44.8686 29.5614 44.9119 28.8522C44.967 28.1118 44.1746 26.6306 44.2152 26.6188C44.8856 26.2897 44.7931 25.6837 44.7771 25.4644C44.7643 25.3227 44.7463 25.171 44.7356 25.0351C44.7311 24.9683 44.8128 24.9541 44.8534 24.988C44.9299 25.049 45.0044 25.1096 45.0796 25.1727C45.2341 25.349 45.4611 25.3348 45.5432 25.3556C45.5706 25.3556 45.5983 25.3532 45.627 25.3532C45.6423 25.3532 45.6603 25.3515 45.6773 25.3515C46.6027 25.2971 47.1435 24.4694 47.1681 23.9192C47.1979 23.2217 46.9623 22.7952 46.3851 22.2561C46.6086 21.7832 46.8553 21.9706 47.5666 21.8206C48.5433 21.6145 49.1953 19.7532 48.1649 19.1126Z" fill="#C09C5E"/>
<path fill-rule="evenodd" clip-rule="evenodd" d="M9.06458 18.0383C8.42811 17.4521 7.8256 16.7474 6.95666 16.8569C6.44561 16.922 5.93284 16.9781 5.90166 17.6756C6.47784 17.59 7.26536 17.8852 7.39494 18.1894C6.75501 19.1886 7.24145 20.2266 7.87272 20.8586C7.63296 20.9837 7.20334 20.9109 7.28199 21.3509C7.65098 21.5526 7.99502 21.0945 8.44509 21.116C8.4586 20.5516 7.96003 20.1525 8.05011 19.4471C8.13742 18.7673 8.70529 18.4645 9.06458 18.0383Z" fill="#C09C5E"/>
<path fill-rule="evenodd" clip-rule="evenodd" d="M8.25421 16.0466C9.13597 16.1464 9.78179 16.5947 10.2928 17.2194C10.6684 17.7789 10.9633 18.4272 11.4105 18.9122C11.5959 19.1104 11.8717 19.2268 12.1482 19.2459C12.2067 19.2674 12.2649 19.2861 12.3252 19.3013C12.3904 19.3169 12.4451 19.2764 12.4624 19.223C12.6024 19.1925 12.733 19.1315 12.8422 19.0401C12.9295 18.9926 13.0109 18.9313 13.0594 18.8596C13.0694 18.844 13.0694 18.8298 13.0653 18.8169C13.0684 18.8145 13.0694 18.8128 13.0719 18.8104C13.0982 18.8027 13.1249 18.7934 13.1509 18.7823C13.1924 18.7629 13.1671 18.7043 13.1287 18.7026C12.6668 18.6745 12.31 18.3433 11.9607 18.0748C11.7328 17.8995 11.5041 17.7204 11.2761 17.5423C11.1209 17.2925 10.982 17.0271 10.7606 16.8254C10.1369 16.2541 9.25377 15.6648 8.38829 15.9835C8.37686 15.9887 8.37062 16.004 8.37478 16.0168C8.3339 16.014 8.29405 16.014 8.25351 16.0151C8.23307 16.0168 8.23377 16.0438 8.25421 16.0466Z" fill="#C09C5E"/>
<path fill-rule="evenodd" clip-rule="evenodd" d="M13.3991 25.4375C13.4143 25.4375 13.4154 25.4136 13.4002 25.4136C13.3856 25.4136 13.3849 25.4375 13.3991 25.4375Z" fill="#C09C5E"/>
<path fill-rule="evenodd" clip-rule="evenodd" d="M18.1973 24.1989C17.9735 24.2546 17.9759 24.2844 18.0684 24.5453C18.2091 24.5537 18.3251 24.5284 18.4024 24.4653C18.4135 24.2557 18.3321 24.1666 18.1973 24.1989Z" fill="#C09C5E"/>
<path fill-rule="evenodd" clip-rule="evenodd" d="M14.1638 24.0044C14.7501 25.4578 13.3687 26.1771 13.5398 27.7421C13.201 28.1845 12.7464 28.5068 12.6924 29.2333C13.0184 29.3095 13.1483 28.7541 13.3593 28.9915C13.4927 29.56 13.4903 30.0454 13.3978 30.4657C13.3742 30.6365 13.3191 30.8364 13.2471 31.046C12.9141 31.5377 12.393 32.2951 12.3303 32.4953C11.3453 30.8673 11.7105 29.445 11.9166 28.5771C12.033 28.0913 12.5399 27.3031 12.866 26.8243C12.9075 26.8385 12.9498 26.852 12.9931 26.8642C12.9959 26.8624 12.9976 26.859 13 26.8555C13.0399 26.8195 13.077 26.7869 13.1185 26.7588C13.1126 26.72 13.1092 26.6805 13.1085 26.641C12.8653 26.1224 13.2748 25.5188 13.3219 24.9128C13.3728 24.1468 12.9294 23.8291 12.7534 23.3239C13.3136 23.4604 13.4823 23.9801 14.1638 24.0044ZM14.353 32.2116C14.8679 33.3119 15.9128 34.0246 16.409 34.8187C16.427 35.1707 15.8889 34.9133 15.7444 34.9008C15.7735 35.1707 16.1844 35.3291 15.9135 35.6485C15.2722 35.3738 14.7937 34.9414 14.6683 34.1563C14.1191 33.85 13.4705 32.7146 13.4705 32.7146C13.4671 32.7015 13.4643 32.6873 13.4605 32.6734C13.4259 32.523 13.3787 32.2116 13.3787 32.2116C13.3708 32.101 13.3676 31.9867 13.3767 31.8665C13.3722 31.8315 13.3704 31.7961 13.3728 31.7615C13.3791 31.6867 13.3974 31.6056 13.4224 31.5245C13.4238 31.5179 13.4241 31.511 13.4259 31.5041L13.429 31.5065C13.4837 31.3381 13.58 31.1732 13.7522 31.0765C13.8731 31.0079 13.9535 31.0086 14.0045 31.1604C14.1382 31.5588 14.353 32.2116 14.353 32.2116ZM12.7132 33.5753C12.7499 33.4744 12.7495 33.2212 12.8549 32.9114C13.1882 33.0992 13.2419 33.5746 13.227 34.0215C13.0063 33.9345 12.822 33.7915 12.7132 33.5753ZM10.9767 32.2455C11.1984 32.4184 11.1121 32.5902 10.8651 32.5864C10.6267 32.5826 10.388 32.5902 10.1486 32.5854C9.76194 32.5767 9.24259 32.4704 9.104 32.1565C8.99486 31.9115 9.22284 31.652 9.5163 31.6794C9.65246 31.5775 9.82881 31.5294 9.99096 31.5952C10.2449 31.6995 10.9545 32.2292 10.9767 32.2455ZM15.5019 23.9406C15.5047 23.9306 15.7995 23.7775 15.9599 23.6461C16.1879 23.457 16.3265 23.2283 16.3182 23.168C16.3158 23.1562 16.1148 23.0876 15.9572 22.9951C15.7503 22.8728 15.6748 22.7772 15.6419 22.7439C15.6308 22.7332 15.6342 22.7079 15.6512 22.7051C15.7902 22.6847 16.3878 22.8565 16.4038 22.861C16.6903 22.922 16.7516 23.0689 16.7561 23.1206C16.7675 23.2144 16.7173 23.9098 16.341 24.6752C16.2309 25.0833 16.9165 25.7911 16.6775 26.0655C15.9315 25.7437 15.6162 25.1256 15.4901 24.3737C15.4478 24.1305 15.4655 24.0366 15.5019 23.9406ZM15.9097 21.9561C16.12 21.7153 16.6238 21.6872 16.7675 22.0112C16.8029 22.0863 16.7201 22.1549 16.6546 22.1002C16.5382 21.9966 16.3521 22.0243 16.2104 21.9966C16.12 21.9769 15.9734 22.0423 15.9097 21.964C15.908 21.9627 15.908 21.9602 15.9097 21.9561ZM10.1749 36.5857C10.1628 36.4721 10.1597 36.3501 10.167 36.2195C10.2124 36.1655 10.2633 36.1173 10.3069 36.0622C10.4029 36.7108 11.0099 36.8515 11.4673 37.137C11.5542 36.7541 11.8868 36.6197 12.2143 36.4742C12.5254 35.6742 11.8037 35.5404 11.5497 35.0675C11.2767 35.0963 11.1894 35.3149 11.0546 35.4808C11.1991 35.8872 11.8037 35.838 11.7964 36.391C11.4028 36.6516 11.2545 35.6863 10.7206 36.0622C10.6018 35.7552 10.8287 35.5311 10.6382 35.2317C10.2917 35.3502 9.98784 35.8786 9.47784 35.563C9.17606 35.0391 9.62024 34.7141 9.1726 34.3462C9.17606 34.3257 9.17988 34.3056 9.18334 34.2855C9.39122 34.0759 9.39988 33.6667 9.64484 33.4942C10.1205 33.4273 10.1289 33.9959 10.554 33.7398C10.5238 33.3722 10.1566 33.3372 9.93414 33.1553C10.1476 33.1345 10.3478 33.1148 10.5339 33.0971C10.7345 33.0767 10.9344 33.0594 11.1343 33.0396C11.0124 33.4058 10.8547 33.6837 10.7206 34.0724C11.0941 34.264 11.0099 34.3236 10.8835 34.7345C11.2178 34.7481 11.2147 34.8485 11.6346 34.9008C11.6502 34.6348 11.486 34.5495 11.5497 34.2394C11.6398 33.9248 12.2406 34.4362 12.1318 34.0724C12.1353 33.7364 11.7774 33.7651 11.5497 33.6591C11.6997 32.8927 12.6941 33.5822 12.7132 33.9879C12.4298 34.7931 11.9672 35.5584 12.7132 36.1419C13.0257 36.2108 12.8147 35.7528 12.8781 35.563C13.1483 35.5976 13.3122 35.7369 13.457 35.8952C13.5236 36.2368 13.0596 36.0504 13.1265 36.391C13.1265 36.7798 13.3988 36.893 13.7048 36.9738C13.7557 36.6197 13.438 36.6342 13.457 36.3113C13.6438 36.391 13.8323 36.4766 14.0221 36.5649L13.7786 34.8038C13.7969 34.809 13.816 34.8139 13.835 34.8187C14.5973 35.8547 15.4759 37.2132 16.8213 37.3864C16.7038 37.1429 16.1519 36.8993 16.2437 36.724C17.3967 37.315 18.7694 38.1178 20.0573 38.2966C19.5369 37.5818 18.4258 37.4072 17.7356 36.8082C17.3427 36.4641 17.0513 36.0085 16.8213 35.6485C17.044 35.6485 17.2952 35.6801 17.4047 35.563C17.3531 35.1562 17.5263 34.9095 17.7356 34.5717C16.6397 34.3943 17.7436 33.0105 16.8213 32.663C16.6432 32.9242 16.596 33.3209 16.3248 33.4942C16.119 33.1858 15.8705 32.8851 15.6259 32.5726C15.646 32.5719 14.308 31.2411 14.5186 29.5857C13.5679 28.7101 14.0925 26.4744 15.136 26.4276C16.0303 26.3888 16.5302 27.7847 17.2776 28.3651C17.6881 28.6762 18.1091 28.4201 17.9133 28.9353C17.6812 29.5486 17.4549 28.7905 17.0219 29.0296C17.0174 29.5271 17.3226 29.2645 17.2973 29.7832C16.8732 30.0808 16.4148 30.8936 16.6023 31.5384C16.6678 30.9639 17.0828 30.5094 17.4182 30.113C18.2328 29.1484 19.4357 28.0872 20.4398 27.3929C21.0121 26.9993 21.3877 26.6545 21.5221 26.4837C21.1341 26.6251 20.6965 26.8267 20.0289 26.9234C19.7985 26.956 19.5154 26.8777 19.3162 27.028C19.2549 27.0727 19.1332 27.3135 18.9118 27.4261C18.6821 27.5422 18.4652 27.6118 18.213 27.5772C17.7869 27.5186 17.8475 27.1576 17.9355 27.0769C18.1701 26.8669 18.5311 26.8669 18.6932 26.56C18.7306 26.4176 18.7137 26.3354 18.6617 26.2869C18.644 26.2752 18.626 26.2648 18.6076 26.2502C18.3724 26.1494 17.8319 26.3666 17.888 25.9585C18.2328 25.98 18.4202 25.8396 18.7102 25.8046C18.9125 25.771 19.1125 25.7406 19.2933 25.6262C19.5033 25.4928 19.5196 25.3851 19.3664 25.2572C18.6083 25.4055 17.2838 25.664 17.4005 24.7022C17.6691 24.7122 17.4549 25.2021 17.8115 25.1231C18.1184 23.8946 17.0354 24.1568 17.3396 23.5689C17.8184 22.6414 17.878 22.3874 17.5031 21.5226C17.1462 20.6973 16.7894 20.6946 15.953 21.1779C16.4769 20.5071 17.5506 20.504 18.186 20.8034C18.195 20.1319 17.5343 20.0183 17.2048 19.6247C17.9719 19.6749 18.432 20.2982 18.7649 20.2549C18.3869 19.8793 18.3253 19.5242 18.6153 19.641C19.206 19.8766 19.9433 20.2029 20.5299 20.0765C19.5403 19.668 18.4022 19.1909 17.7997 18.2974C17.8132 18.2028 17.9293 18.2111 18.0509 18.2191C18.0301 17.7943 17.4303 17.5123 17.5565 17.2126C17.8617 17.3799 18.1753 17.8975 18.6371 17.6408C18.1008 17.0359 16.5285 16.2373 17.1643 15.2973C17.1757 15.7508 17.3489 16.0508 17.737 16.1364C17.615 15.7636 17.5322 15.3513 17.2523 15.132C17.4726 14.6012 18.3031 14.5229 18.6711 14.2717C16.9404 14.2787 15.7451 15.1015 15.1426 16.2272C15.4929 15.915 15.5944 15.6798 16.4131 15.5107C15.9513 15.8246 15.2514 16.1704 14.9825 17.2711C14.9264 17.1838 14.9247 16.9579 14.985 16.5144C14.4323 17.2638 14.3509 17.8878 14.0197 18.3247C13.7585 18.7665 13.4002 19.1545 12.9754 19.3988C13.2474 19.335 13.5215 19.2418 13.7917 19.3392C13.3604 19.6618 13.2738 19.9098 13.1165 20.2462C12.9599 20.5785 13.0686 21.384 13.4349 21.7517C12.7565 21.6734 12.4277 21.1176 12.5236 20.283C12.1332 20.689 11.6481 20.1579 11.0834 19.6326C11.0058 19.5464 10.9115 19.4643 10.8097 19.3894C10.3045 18.9629 9.74254 18.6494 9.13137 19.0395C8.81296 19.2418 8.54861 19.6392 8.79079 20.1219C9.32297 19.353 10.4708 19.6718 10.4739 20.425C10.4774 21.5254 9.57762 21.8778 8.69447 21.4516C8.81227 22.3171 8.20456 22.7526 8.20699 22.7543C9.08321 23.133 9.53362 22.3829 10.1514 22.7592C10.4053 22.9151 10.6437 23.0544 10.7064 23.3984C10.7473 23.378 10.7889 23.3894 10.8402 23.4698C10.758 24.0144 10.9337 24.3114 10.9895 24.7216C10.6666 24.7961 10.6503 24.3942 10.4088 24.6301C10.4466 25.1377 11.1648 25.7374 11.5684 26.2918C11.1184 27.3402 10.9607 27.9871 10.3554 28.1925C9.76021 27.8932 9.79451 26.9712 9.66666 26.2014C9.09153 26.3801 9.04267 27.0741 8.67888 27.4594C8.8237 27.978 9.27481 27.9999 9.70443 28.0269C10.3333 28.521 9.5409 29.7111 10.3139 30.1469C10.3114 30.1618 10.2806 30.1916 10.2553 30.2003C10.1645 30.2325 10.0991 30.2232 10.018 30.1975C9.94592 30.175 9.86484 30.1265 9.77199 30.0465C9.69993 29.9879 9.63791 30.0177 9.66285 30.0898C9.72799 30.2807 9.90018 30.3839 10.089 30.4248C10.0738 30.4335 10.0578 30.439 10.0422 30.4425C9.26857 30.6019 8.93977 29.4907 8.61097 28.795C8.29569 28.7548 7.81894 28.8144 7.93709 28.4669C7.9603 28.3983 8.01712 28.2635 8.05662 28.2022C8.12696 28.0879 7.99253 27.9853 7.88824 28.0328C7.7448 28.0965 7.64155 28.1887 7.54627 28.311C7.47767 28.4004 7.38309 28.4264 7.31171 28.3644C7.24277 28.3041 7.2005 28.1565 7.20569 27.9476C7.2102 27.6818 7.25247 27.5117 7.30652 27.2848C7.35086 27.1001 7.43471 26.9328 7.51752 26.7651C7.69907 26.4023 7.21297 26.148 7.50643 25.9647C7.49846 25.8968 7.47629 25.8431 7.44372 25.7998C7.45792 25.7887 7.46936 25.779 7.48391 25.7676C7.42466 25.593 7.32488 25.5233 7.20327 25.498C7.08166 25.4707 6.93857 25.4869 6.78889 25.4817C6.6898 25.4783 6.59002 25.4658 6.49127 25.4253C6.42891 25.3459 6.38664 25.2607 6.35684 25.1723C6.26607 24.8858 6.33051 24.5456 6.44242 24.1527C6.58725 23.7518 6.86096 23.4951 7.23653 23.3C7.35572 23.2384 7.33319 23.1025 7.25281 23.0339C7.30963 22.9591 7.31345 22.8791 7.18456 22.8053C6.94584 22.667 6.5921 23.0339 6.44311 23.195C6.43965 23.1898 6.43619 23.1826 6.43341 23.1763C5.48617 23.528 5.10817 24.4603 3.83663 24.4818C3.96829 23.9666 3.53832 24.0027 3.51233 23.6444C3.75278 23.3894 4.08089 23.2179 4.10376 22.7339C4.39756 22.4432 5.16083 22.6383 5.43766 22.3348C5.20622 22.0177 4.69137 22.1037 4.27768 22.1567C4.11727 21.76 3.74758 21.5753 3.61974 21.1509C3.72922 20.8439 4.34109 21.0421 4.45889 20.742C4.20111 20.2414 3.59618 19.6732 3.55737 19.2342C4.15538 19.0256 4.31129 19.685 4.79981 19.8291C5.09015 19.6087 4.33797 19.4573 4.63974 19.2446C5.45013 19.3284 5.5319 19.5904 6.13268 19.9303C6.40015 20.0792 6.80171 20.3405 6.96836 20.1378C6.58482 19.7723 6.3856 18.9383 5.8905 18.6757C4.64633 19.1122 3.35469 18.3046 2.74282 17.3941C2.10428 17.444 1.69337 17.2704 1.41723 16.9662C1.47128 16.6568 1.29008 16.1049 1.59255 16.0498C2.23559 16.2993 2.38665 17.0331 3.16032 17.1502C3.28089 16.8152 2.67977 16.5425 2.67769 16.0616C3.00787 16.0398 2.89666 16.4472 3.16656 16.4839C3.19116 16.3363 3.09172 16.0661 3.34118 16.1527C3.52342 16.2196 3.54455 16.4458 3.6672 16.5723C3.39453 16.6035 3.25456 16.7677 3.33078 17.1509C3.93017 17.1062 3.9617 16.9399 4.41662 16.8287C4.39375 16.4891 4.10757 16.416 4.1734 15.9968C4.41662 16.1177 4.35633 16.5307 4.66677 16.5823C4.95226 16.4787 4.35425 16.1357 4.67335 16.0016C5.10644 15.8762 4.89717 16.3848 5.16672 16.4202C5.3649 16.3194 5.55304 16.2535 5.73736 16.2102C5.81947 16.2289 5.88946 16.2033 5.94143 16.1551C6.06616 16.1735 6.19816 16.1832 6.35165 16.1662C6.7196 16.1281 7.0924 16.1745 7.44995 16.0602C7.47351 16.0536 7.47871 16.0127 7.44995 16.0086C7.09413 15.9563 6.75043 15.8814 6.39738 15.8159C6.24979 15.7889 6.10565 15.8094 5.9591 15.7976C5.94559 15.7837 5.92861 15.7702 5.90851 15.7602C5.57348 15.579 5.36248 15.5024 5.07629 15.4865C4.20111 14.9837 3.26807 15.7026 1.67916 15.5523C0.237159 16.2975 1.28038 18.2055 1.97886 18.9681C1.66461 19.3032 1.29562 19.3617 1.22356 19.7931C0.961973 21.3134 2.96664 21.4617 3.77842 22.1508C3.52827 22.4837 3.2556 22.5704 3.10107 22.9716C2.80034 23.747 3.354 24.3682 3.354 24.3682C3.48843 24.7077 3.77149 24.9302 4.23437 24.8979C4.44364 24.8834 4.7028 24.9932 4.8892 24.9537C4.8892 24.9537 6.185 24.1589 5.92029 25.2787L5.49102 25.4842C5.47196 25.7166 5.40128 26.2977 6.05472 26.6182C6.09526 26.6303 6.13268 28.1114 6.18777 28.8518C6.23108 29.5611 7.23896 29.7045 7.69733 29.5961C7.69733 29.5961 8.27351 30.1934 8.45922 30.9071C8.55484 31.2747 7.90799 32.347 7.91492 32.7209C7.917 32.8577 7.97693 33.1023 8.09577 33.4308C8.36775 34.4057 8.93873 36.1239 9.75432 36.8892C9.94765 37.0708 10.2751 37.2568 10.4178 37.5503C10.6305 37.9983 10.3589 38.8683 10.9178 39.125C10.9188 39.1219 10.9195 39.1191 10.9209 39.1156C10.9264 39.1184 10.9309 39.1222 10.9372 39.125C10.9853 38.9819 11.0141 38.8658 11.03 38.7668C11.169 38.2734 11.125 38.1331 11.2306 37.5143C10.8291 37.4737 10.3471 37.1588 10.1749 36.5857Z" fill="#C09C5E"/>
<path d="M19.5162 7.22488C19.5162 7.50413 19.3627 7.76052 19.0547 7.99438C18.7671 8.22028 18.4781 8.33323 18.1861 8.33323C17.8864 8.33323 17.7363 8.2182 17.7363 7.98849C17.7363 7.82392 17.7738 7.74181 17.8472 7.74181C17.8763 7.74181 17.8912 7.76052 17.8912 7.79724C17.8912 7.80937 17.8888 7.82808 17.8843 7.85268C17.8801 7.87762 17.878 7.89598 17.878 7.90811C17.878 8.06853 17.9834 8.14821 18.1926 8.14821C18.4099 8.14821 18.6566 8.04393 18.9317 7.83466C19.2061 7.62505 19.3436 7.41786 19.3436 7.2124C19.3436 7.0111 19.1732 6.91098 18.8329 6.91098C18.7626 6.91098 18.6954 6.91444 18.6292 6.9231C18.2765 6.95983 17.8739 7.10846 17.4228 7.36935C16.9706 7.63024 16.5954 7.93514 16.2957 8.28403C15.9635 8.67796 15.7975 9.05596 15.7975 9.41698C15.7975 9.64288 15.8727 9.81542 16.0244 9.93426C16.1603 10.041 16.3453 10.0943 16.5784 10.0943C17.3261 10.0943 18.0509 9.8026 18.7529 9.21984C18.7692 9.20771 18.7865 9.20148 18.8021 9.20148C18.8513 9.20148 18.8755 9.22816 18.8755 9.28151C18.8755 9.3023 18.8672 9.32032 18.8513 9.33695C18.5516 9.61204 18.1965 9.84591 17.7862 10.0389C17.3341 10.2523 16.926 10.3594 16.5604 10.3594C16.2607 10.3594 16.0185 10.2977 15.8335 10.1744C15.616 10.0309 15.5075 9.81715 15.5075 9.53409C15.5075 9.19732 15.6447 8.83006 15.9198 8.43128C16.2441 7.95974 16.6651 7.56719 17.1834 7.25571C17.7363 6.91444 18.2827 6.74432 18.8201 6.74432C19.284 6.74432 19.5162 6.90439 19.5162 7.22488Z" fill="#C09C5E"/>
<path d="M21.2346 6.80932C21.2346 6.67351 21.1889 6.60595 21.0992 6.60595C20.8774 6.60595 20.5635 6.94653 20.1571 7.62838C19.8775 8.09646 19.6454 8.55414 19.4611 9.00178C19.7275 8.82924 20.0792 8.49247 20.514 7.99182C20.9952 7.43331 21.2346 7.03938 21.2346 6.80932ZM21.4498 6.75978C21.4498 7.02691 21.2367 7.39416 20.8092 7.86224C20.629 8.05938 20.3047 8.37155 19.8363 8.79806C19.7258 8.89299 19.5695 9.04266 19.3682 9.24812C19.3436 9.28069 19.2996 9.37805 19.2362 9.54054C19.1725 9.70269 19.1409 9.80247 19.1409 9.8392C19.1444 9.84335 19.1472 9.84924 19.1472 9.85791C19.2369 9.73837 19.3873 9.5641 19.5962 9.33404C19.8269 9.07974 19.9849 8.9214 20.0709 8.86007C20.1079 8.83548 20.1401 8.823 20.1689 8.823C20.2635 8.823 20.3106 8.86596 20.3106 8.95224C20.1135 9.37909 20.0151 9.65418 20.0151 9.77718C20.0151 9.92096 20.0792 9.99303 20.206 9.99303C20.3252 9.99303 20.4478 9.93344 20.5763 9.8146C20.6623 9.74045 20.7582 9.62993 20.8653 9.48199C20.9512 9.3628 21.0001 9.30321 21.0129 9.30321C21.0254 9.30321 21.0309 9.31568 21.0309 9.34028C21.0309 9.36904 21.0212 9.40403 21.0001 9.44457C20.725 9.90884 20.434 10.1406 20.1259 10.1406C19.9042 10.1406 19.7937 10.0072 19.7937 9.74045C19.7937 9.5641 19.8384 9.35275 19.9288 9.10641C19.8138 9.20897 19.6735 9.36142 19.5075 9.56514C19.3408 9.76817 19.2189 9.93759 19.1409 10.0731C19.0952 10.1063 19.0422 10.1223 18.9802 10.1223C18.8696 10.1223 18.8142 10.0952 18.8142 10.0422C18.8142 9.94799 18.9029 9.70373 19.0793 9.30945C19.3415 8.71386 19.6357 8.15986 19.9596 7.64674C20.4613 6.85436 20.8688 6.458 21.1854 6.458C21.3614 6.458 21.4498 6.55848 21.4498 6.75978Z" fill="#C09C5E"/>
<path d="M21.5419 8.93819C21.5419 8.84811 21.528 8.7556 21.4992 8.66102C21.4577 8.5297 21.4047 8.46387 21.3392 8.46387C21.2449 8.46387 21.1708 8.52139 21.1174 8.63676C21.0759 8.72684 21.0582 8.82524 21.062 8.93195C21.1275 8.854 21.193 8.81519 21.2591 8.81519C21.3201 8.81519 21.3659 8.83564 21.3946 8.87652V8.90736C21.3988 8.91948 21.4009 8.93022 21.4009 8.93819C21.4009 8.95032 21.3797 8.9569 21.3392 8.9569C21.2647 8.9569 21.1874 9.03451 21.1046 9.19077C21.1583 9.34703 21.2529 9.47383 21.3884 9.57258C21.4913 9.31411 21.5419 9.10242 21.5419 8.93819ZM21.3392 9.65885C21.2037 9.56842 21.1012 9.46379 21.0308 9.34495C20.9078 9.60341 20.8465 9.79051 20.8465 9.90519C20.8465 9.98696 20.8773 10.0282 20.9387 10.0282C20.9962 10.0282 21.0724 9.97899 21.1666 9.88059C21.2484 9.80263 21.3059 9.72849 21.3392 9.65885ZM22.2688 9.40627C22.2688 9.41459 22.2646 9.42256 22.2566 9.43087C22.1991 9.52927 22.1122 9.61346 21.9954 9.6831C21.8779 9.75343 21.7636 9.78774 21.6527 9.78774C21.5706 9.78774 21.4947 9.76764 21.4254 9.72641C21.2359 10.0261 21.0412 10.1758 20.8403 10.1758C20.6968 10.1758 20.6251 10.0916 20.6251 9.9239C20.6251 9.68968 20.7273 9.41459 20.9328 9.09826C20.9245 9.05322 20.9203 9.00818 20.9203 8.96279C20.9203 8.81519 20.9695 8.67106 21.0682 8.53178C21.1666 8.3925 21.2882 8.32286 21.431 8.32286C21.5256 8.32286 21.6015 8.3776 21.659 8.48847C21.7047 8.58341 21.7272 8.6818 21.7272 8.78436C21.7272 9.00575 21.6406 9.28743 21.4681 9.62801C21.5301 9.66474 21.5994 9.6831 21.678 9.6831C21.8135 9.6831 21.9403 9.63009 22.0595 9.52338C22.1783 9.41632 22.2338 9.36331 22.2261 9.36331C22.2552 9.36331 22.2688 9.37751 22.2688 9.40627Z" fill="#C09C5E"/>
<path d="M23.5134 9.34302C23.5134 9.3593 23.5009 9.38182 23.4767 9.41058C23.3329 9.62019 23.133 9.8111 22.879 9.98329C22.7311 10.0775 22.5745 10.125 22.4109 10.125C22.1064 10.125 21.955 9.96285 21.955 9.63855C21.955 9.43726 22.0665 9.21586 22.2907 8.97333C22.5142 8.73115 22.7248 8.61023 22.922 8.61023C23.0533 8.61023 23.1191 8.66116 23.1191 8.76372C23.1191 8.80495 23.0886 8.87563 23.0297 8.9761C22.9705 9.07693 22.922 9.12716 22.8853 9.12716C22.8686 9.12716 22.86 9.11712 22.86 9.09633C22.86 9.08004 22.8672 9.05302 22.8821 9.01664C22.896 8.97957 22.9036 8.95081 22.9036 8.93037C22.9036 8.84444 22.8503 8.80113 22.7429 8.80113C22.5963 8.80113 22.4626 8.89745 22.343 9.09044C22.2325 9.26679 22.1774 9.4331 22.1774 9.58936C22.1774 9.84367 22.2876 9.97082 22.51 9.97082C22.7886 9.97082 23.08 9.78026 23.3835 9.39845C23.4251 9.34925 23.4601 9.32431 23.4888 9.32431C23.5051 9.32431 23.5134 9.33054 23.5134 9.34302Z" fill="#C09C5E"/>
<path d="M23.9989 8.93819C23.9989 8.84811 23.9851 8.7556 23.956 8.66102C23.9147 8.5297 23.8617 8.46387 23.7963 8.46387C23.702 8.46387 23.6279 8.52139 23.5742 8.63676C23.5329 8.72684 23.5153 8.82524 23.5191 8.93195C23.5842 8.854 23.65 8.81519 23.7162 8.81519C23.7772 8.81519 23.8226 8.83564 23.8517 8.87652V8.90736C23.8558 8.91948 23.8579 8.93022 23.8579 8.93819C23.8579 8.95032 23.8368 8.9569 23.7963 8.9569C23.7218 8.9569 23.6445 9.03451 23.5617 9.19077C23.6154 9.34703 23.71 9.47383 23.8455 9.57258C23.9484 9.31411 23.9989 9.10242 23.9989 8.93819ZM23.7963 9.65885C23.6604 9.56842 23.5582 9.46379 23.4879 9.34495C23.3646 9.60341 23.3036 9.79051 23.3036 9.90519C23.3036 9.98696 23.3344 10.0282 23.3957 10.0282C23.4533 10.0282 23.5295 9.97899 23.6237 9.88059C23.7055 9.80263 23.763 9.72849 23.7963 9.65885ZM24.7258 9.40627C24.7258 9.41459 24.7217 9.42256 24.7137 9.43087C24.6562 9.52927 24.5692 9.61346 24.4525 9.6831C24.335 9.75343 24.2207 9.78774 24.1098 9.78774C24.0277 9.78774 23.9518 9.76764 23.8825 9.72641C23.693 10.0261 23.4979 10.1758 23.2973 10.1758C23.1539 10.1758 23.0822 10.0916 23.0822 9.9239C23.0822 9.68968 23.184 9.41459 23.3898 9.09826C23.3815 9.05322 23.3774 9.00818 23.3774 8.96279C23.3774 8.81519 23.4266 8.67106 23.5253 8.53178C23.6237 8.3925 23.7453 8.32286 23.8881 8.32286C23.9827 8.32286 24.0585 8.3776 24.116 8.48847C24.1618 8.58341 24.184 8.6818 24.184 8.78436C24.184 9.00575 24.0977 9.28743 23.9251 9.62801C23.9872 9.66474 24.0565 9.6831 24.1351 9.6831C24.2702 9.6831 24.3974 9.63009 24.5166 9.52338C24.6354 9.41632 24.6908 9.36331 24.6832 9.36331C24.7123 9.36331 24.7258 9.37751 24.7258 9.40627Z" fill="#C09C5E"/>
<path d="M26.4933 6.74499C26.4933 6.66669 26.4666 6.62788 26.4136 6.62788C26.294 6.62788 26.1489 6.74291 25.9763 6.97262C25.7788 7.23975 25.555 7.61532 25.3045 8.09968C25.0294 8.62909 24.8655 9.02545 24.8118 9.28842C25.0381 9.09093 25.3419 8.72991 25.7234 8.20432C26.1177 7.65447 26.3561 7.25638 26.4378 7.00969C26.4749 6.89501 26.4933 6.80666 26.4933 6.74499ZM26.758 6.72039C26.758 6.9993 26.4933 7.47396 25.9635 8.14265C25.5446 8.66443 25.1545 9.09336 24.7938 9.42978C24.7938 9.87742 24.9061 10.1012 25.132 10.1012C25.3586 10.1012 25.6777 9.86945 26.0934 9.40518C26.1097 9.38474 26.1253 9.37434 26.1423 9.37434C26.1627 9.37434 26.1731 9.3889 26.1731 9.41765C26.1731 9.43394 26.1672 9.45057 26.1541 9.46685C26.0103 9.65568 25.8464 9.8199 25.6624 9.95953C25.4282 10.14 25.2203 10.2305 25.0402 10.2305C24.7322 10.2305 24.578 9.97789 24.578 9.47274C24.578 9.128 24.7484 8.66443 25.089 8.08098C25.3686 7.60458 25.6659 7.19228 25.9822 6.84304C26.2078 6.59705 26.3966 6.47405 26.5487 6.47405C26.5979 6.47405 26.6447 6.50177 26.6901 6.55686C26.7351 6.61229 26.758 6.66669 26.758 6.72039Z" fill="#C09C5E"/>
<path d="M27.103 8.73474C27.086 8.73023 27.0676 8.72815 27.0475 8.72815C26.8833 8.72815 26.7128 8.83313 26.5358 9.0424C26.2856 9.3466 26.1606 9.59468 26.1606 9.78731C26.1606 9.87358 26.1893 9.91689 26.2468 9.91689C26.3366 9.91689 26.454 9.82265 26.5978 9.63383C26.7991 9.37917 26.9675 9.07947 27.103 8.73474ZM28.0079 9.3816C28.0079 9.40238 27.9951 9.43114 27.9709 9.46821C27.7904 9.76237 27.6199 9.95085 27.4598 10.0333C27.3864 10.0707 27.3122 10.0894 27.2384 10.0894C26.9879 10.0894 26.8625 9.91135 26.8625 9.55518C26.8625 9.49732 26.8663 9.43495 26.875 9.36878C26.5999 9.85765 26.3556 10.1016 26.1429 10.1016C26.0147 10.1016 25.951 10.0319 25.951 9.89229C25.951 9.67921 26.0542 9.42109 26.2586 9.11932C26.4644 8.81789 26.6636 8.63391 26.8566 8.56843C26.9259 8.53967 26.9945 8.52547 27.0593 8.52547C27.2076 8.52547 27.314 8.5764 27.3801 8.6793C27.3919 8.6994 27.3988 8.71395 27.3988 8.72261C27.3988 8.72642 27.3843 8.73266 27.3555 8.74097C27.3268 8.74894 27.3056 8.76349 27.2939 8.78393C27.1948 8.944 27.1456 9.18411 27.1456 9.50459C27.1456 9.80013 27.21 9.94773 27.3365 9.94773C27.4276 9.94773 27.5555 9.84829 27.7218 9.64942C27.8881 9.44985 27.9771 9.35041 27.9903 9.35041C28.0017 9.35041 28.0079 9.36115 28.0079 9.3816Z" fill="#C09C5E"/>
<path d="M29.1784 9.36261C29.1784 9.37924 29.1711 9.39969 29.1538 9.42429C29.0471 9.57188 28.8808 9.72398 28.6549 9.87989C28.4044 10.0483 28.1996 10.1328 28.0395 10.1328C27.805 10.1328 27.6879 9.962 27.6879 9.62143C27.6879 9.35846 27.7624 9.07539 27.9096 8.77154C27.6227 8.77154 27.479 8.71818 27.479 8.61147C27.479 8.58653 27.4991 8.5744 27.5406 8.5744C27.5898 8.5744 27.6678 8.57856 27.7741 8.58653C27.8809 8.59484 27.9609 8.599 28.0143 8.599C28.0395 8.55812 28.1296 8.39354 28.2859 8.10632C28.4044 7.88077 28.5035 7.73283 28.5811 7.66284C28.6386 7.60533 28.7186 7.57657 28.8212 7.57657C28.9116 7.57657 28.9563 7.59494 28.9563 7.63201C28.9563 7.63651 28.9546 7.6424 28.9511 7.65072C28.8936 7.72451 28.8111 7.82915 28.7041 7.96462C28.5236 8.20714 28.3777 8.42438 28.2668 8.61771C28.3243 8.62152 28.4065 8.6236 28.5132 8.6236C28.5419 8.6236 28.5852 8.62152 28.6427 8.61771H28.772C28.8212 8.61771 28.8458 8.62983 28.8458 8.65409C28.8458 8.71611 28.6324 8.75283 28.2048 8.76496C28.14 8.86786 28.078 9.01164 28.0205 9.19631C27.963 9.38132 27.9342 9.53308 27.9342 9.65192C27.9342 9.86569 28.0143 9.9724 28.175 9.9724C28.3105 9.9724 28.4768 9.90241 28.6739 9.76278C28.8413 9.64395 28.9754 9.51852 29.0738 9.38687C29.1025 9.35049 29.1288 9.33178 29.1538 9.33178C29.1711 9.33178 29.1784 9.34217 29.1784 9.36261Z" fill="#C09C5E"/>
<path d="M29.7817 8.75276C29.7817 8.70356 29.7571 8.67896 29.7079 8.67896C29.6462 8.67896 29.5558 8.77355 29.4373 8.96203C29.334 9.12244 29.2706 9.24787 29.2464 9.3376C29.3531 9.29256 29.464 9.21253 29.579 9.0975C29.7144 8.96619 29.7817 8.85116 29.7817 8.75276ZM30.3849 9.40551C30.3849 9.41382 30.3814 9.4263 30.3731 9.44223C30.2705 9.60265 30.1164 9.75059 29.9116 9.88606C29.6933 10.0298 29.4948 10.1016 29.3136 10.1016C29.0555 10.1016 28.9255 9.93942 28.9255 9.61478C28.9255 9.4017 29.0184 9.16748 29.2027 8.91318C29.3999 8.64189 29.6032 8.50642 29.8125 8.50642C29.8541 8.50642 29.8898 8.52513 29.9206 8.56186C29.9514 8.59893 29.9667 8.63808 29.9667 8.67896C29.9667 8.80612 29.87 8.9603 29.677 9.14081C29.5045 9.30088 29.3465 9.40793 29.2027 9.46094C29.174 9.56384 29.1601 9.65011 29.1601 9.71941C29.1601 9.88779 29.236 9.97233 29.3881 9.97233C29.5312 9.97233 29.6933 9.91308 29.8749 9.79355C30.0301 9.691 30.1638 9.57389 30.2743 9.44223C30.3031 9.4017 30.3319 9.38091 30.3606 9.38091C30.3772 9.38091 30.3849 9.38922 30.3849 9.40551Z" fill="#C09C5E"/>
<path d="M32.2449 9.33878C32.2449 9.37204 32.2331 9.40634 32.2088 9.44341C31.888 9.95272 31.5703 10.207 31.2536 10.207C31.0239 10.207 30.9096 10.0736 30.9096 9.80686C30.9096 9.55255 30.9958 9.28334 31.1673 9.00027C31.1427 9.00859 31.1161 9.01275 31.0873 9.01275C31.0222 9.01275 30.9581 8.99196 30.8964 8.95073C30.8229 8.90569 30.7855 8.85441 30.7855 8.7969C30.7408 8.89945 30.6566 9.04497 30.5336 9.23414C30.3815 9.47217 30.2804 9.59135 30.2312 9.59135C30.2152 9.59135 30.2069 9.58304 30.2069 9.56675C30.2069 9.55012 30.2173 9.5276 30.2378 9.49885C30.3978 9.28126 30.56 9.00027 30.7239 8.65484C30.7162 8.61846 30.7121 8.57308 30.7121 8.51972C30.7121 8.42513 30.7301 8.31669 30.7672 8.19334C30.8084 8.03743 30.8635 7.95948 30.9338 7.95948C30.9789 7.95948 31.018 7.9962 31.0509 8.07035C31.079 8.12786 31.0939 8.1833 31.0939 8.23665C31.0939 8.33886 31.01 8.48888 30.841 8.68603C30.8784 8.81318 30.9501 8.87693 31.0565 8.87693C31.131 8.87693 31.2023 8.83709 31.2723 8.75671C31.3426 8.67702 31.3912 8.63717 31.4199 8.63717C31.4577 8.63717 31.4899 8.65242 31.5187 8.68256C31.5474 8.71374 31.5616 8.74978 31.5616 8.79101C31.5616 8.7865 31.4899 8.9244 31.3461 9.20331C31.2023 9.48256 31.131 9.69807 31.131 9.85017C31.131 9.99395 31.1982 10.0653 31.3336 10.0653C31.4487 10.0653 31.58 9.99984 31.7279 9.86853C31.8225 9.78226 31.9341 9.65926 32.0605 9.49885C32.1631 9.36753 32.2161 9.30205 32.2161 9.30205C32.2376 9.30205 32.2449 9.31452 32.2449 9.33878Z" fill="#C09C5E"/>
<path d="M32.8546 8.24913C32.8546 8.29833 32.8348 8.34268 32.7957 8.38149C32.7572 8.42064 32.7108 8.44004 32.6581 8.44004C32.5587 8.44004 32.5095 8.39084 32.5095 8.2921C32.5095 8.24255 32.5296 8.1989 32.5684 8.1594C32.6068 8.12059 32.6533 8.10119 32.7066 8.10119C32.8054 8.10119 32.8546 8.15039 32.8546 8.24913ZM33.2672 9.36373C33.2672 9.39248 33.2523 9.4254 33.2236 9.46212C32.8504 9.95896 32.532 10.207 32.2701 10.207C32.0435 10.207 31.9305 10.0865 31.9305 9.84393C31.9305 9.72059 31.9721 9.5529 32.0539 9.33913C32.1277 9.14199 32.2056 8.98781 32.2877 8.87694C32.313 8.84021 32.3418 8.8215 32.374 8.8215C32.4114 8.8215 32.4447 8.83813 32.4759 8.87105C32.5067 8.90431 32.5223 8.93861 32.5223 8.97568C32.5223 8.99612 32.5143 9.01899 32.4977 9.04324C32.2919 9.36373 32.1897 9.63051 32.1897 9.84393C32.1897 9.99187 32.2427 10.0653 32.3494 10.0653C32.4689 10.0653 32.602 10.0002 32.7503 9.86888C32.8483 9.78261 32.9571 9.66342 33.077 9.51167C33.1792 9.38036 33.2322 9.31453 33.2371 9.31453C33.2568 9.31453 33.2672 9.33081 33.2672 9.36373Z" fill="#C09C5E"/>
<path d="M33.8889 8.75276C33.8889 8.70356 33.8643 8.67896 33.8151 8.67896C33.7534 8.67896 33.663 8.77355 33.5445 8.96203C33.4412 9.12244 33.3778 9.24787 33.3536 9.3376C33.4603 9.29256 33.5712 9.21253 33.6862 9.0975C33.8217 8.96619 33.8889 8.85116 33.8889 8.75276ZM34.4921 9.40551C34.4921 9.41382 34.4886 9.4263 34.4803 9.44223C34.3778 9.60265 34.2236 9.75059 34.0188 9.88606C33.8005 10.0298 33.602 10.1016 33.4208 10.1016C33.1627 10.1016 33.0328 9.93942 33.0328 9.61478C33.0328 9.4017 33.1256 9.16748 33.3099 8.91318C33.5071 8.64189 33.7105 8.50642 33.9197 8.50642C33.9613 8.50642 33.997 8.52513 34.0278 8.56186C34.0587 8.59893 34.0739 8.63808 34.0739 8.67896C34.0739 8.80612 33.9772 8.9603 33.7843 9.14081C33.6117 9.30088 33.4537 9.40793 33.3099 9.46094C33.2812 9.56384 33.2673 9.65011 33.2673 9.71941C33.2673 9.88779 33.3432 9.97233 33.4953 9.97233C33.6384 9.97233 33.8005 9.91308 33.9817 9.79355C34.1373 9.691 34.271 9.57389 34.3816 9.44223C34.4103 9.4017 34.4391 9.38091 34.4678 9.38091C34.4848 9.38091 34.4921 9.38922 34.4921 9.40551Z" fill="#C09C5E"/>
<path d="M4.11385 40.6625L4.96477 41.7109L5.21978 41.4992L4.63771 40.7824L6.32189 39.4852L6.08456 39.1945L4.11385 40.6625Z" fill="#C09C5E"/>
<path d="M7.19724 42.752L7.73531 42.5001C7.92586 42.4124 8.02946 42.3573 8.10499 42.3116L8.11053 42.3171C8.07242 42.3944 8.02045 42.5001 7.92621 42.6924L7.68195 43.2405L7.19724 42.752ZM5.95584 42.8507L6.26177 43.1594L6.88576 42.8933L7.54787 43.5599L7.29702 44.2012C7.28975 44.2099 7.63206 44.4961 7.63206 44.4961C7.63206 44.4961 7.68576 44.3405 7.76684 44.107C7.84479 43.8776 7.96294 43.5617 8.08767 43.2471C8.33297 42.6193 8.59871 42.0102 8.59871 42.0102L8.39533 41.8051C8.39533 41.8051 7.80321 42.0843 7.19239 42.3452C6.58364 42.6075 5.95584 42.8507 5.95584 42.8507Z" fill="#C09C5E"/>
<path d="M9.78391 46.2522C10.1747 46.5134 10.5441 46.5626 10.8424 46.3759C10.9609 46.3035 11.0697 46.1919 11.1656 46.0457L12.0186 44.7447L11.7061 44.5368L10.8542 45.7924C10.7783 45.904 10.6982 45.9885 10.6092 46.0367C10.4238 46.1514 10.2097 46.1382 9.9769 45.9823C9.74476 45.8229 9.64567 45.641 9.70041 45.4203C9.72086 45.3216 9.7756 45.218 9.85182 45.1161L10.7679 43.8969L10.4789 43.6578L9.52475 44.8864C9.41943 45.0216 9.34632 45.1598 9.31618 45.2932C9.22783 45.6428 9.37404 45.9955 9.78391 46.2522Z" fill="#C09C5E"/>
<path d="M13.3701 46.8778L13.7581 46.1461L13.9404 46.2424C14.0717 46.312 14.1389 46.3862 14.1735 46.4631C14.2366 46.5726 14.229 46.7042 14.1683 46.8272C14.0956 46.9741 13.9764 47.0465 13.8465 47.0542C13.7543 47.0552 13.6646 47.0334 13.5551 46.9758L13.3701 46.8778ZM12.391 47.8396L12.7568 48.034L13.2187 47.1643L13.4259 47.2745C13.4796 47.3192 13.5121 47.4543 13.5243 47.7017L13.5835 48.4705C13.5835 48.4705 14.0027 48.6988 14.0086 48.6871C14.0086 48.6871 13.9813 48.4799 13.9629 48.2619L13.9258 47.8337C13.9043 47.5735 13.877 47.4065 13.8274 47.3348L13.8309 47.3282C14.1375 47.3854 14.3988 47.2787 14.5401 46.9786C14.6423 46.7631 14.6517 46.523 14.4999 46.3037C14.4234 46.1828 14.2993 46.0698 14.0977 45.9624L13.5773 45.687L12.391 47.8396Z" fill="#C09C5E"/>
<path d="M15.6969 49.374C15.6969 49.374 16.0191 49.5039 16.3406 49.6342C16.6736 49.7333 17.0065 49.832 17.0065 49.832L17.1074 49.5164C17.1074 49.5164 16.8766 49.4481 16.6462 49.3802C16.5298 49.3487 16.4158 49.3113 16.3333 49.2739C16.2498 49.2399 16.1948 49.2174 16.1948 49.2174L16.4505 48.5085L16.5672 48.556C16.6365 48.5851 16.7294 48.6235 16.8274 48.6481L17.2137 48.7618L17.3163 48.4462L16.9352 48.3346C16.8385 48.3103 16.7467 48.2719 16.6781 48.2431C16.6091 48.2151 16.5631 48.1967 16.5631 48.1967L16.8039 47.5301C16.8039 47.5301 16.8489 47.5481 16.9168 47.5758C16.9833 47.6042 17.0727 47.6413 17.167 47.6649C17.3527 47.7193 17.5387 47.7737 17.5387 47.7737L17.7442 47.4882L17.1472 47.3122C16.8586 47.1944 16.57 47.0762 16.57 47.0762L15.6969 49.374Z" fill="#C09C5E"/>
<path d="M21.0936 50.793L21.449 48.3611L21.0821 48.2911L20.858 49.6683C20.8358 49.8197 20.8157 49.9556 20.7973 50.0851L20.7904 50.0841C20.7291 49.9504 20.6539 49.8007 20.5545 49.615C20.5545 49.615 20.3577 49.2221 20.1612 48.8288C19.9786 48.4387 19.7967 48.0489 19.7967 48.0489L19.4354 47.9817L18.8665 50.3724L19.2739 50.4503L19.5899 49.0197C19.6245 48.8631 19.6481 48.7377 19.6651 48.6317L19.6717 48.6331C19.7292 48.7609 19.7915 48.9092 19.8802 49.0852C19.8802 49.0852 20.085 49.4941 20.2901 49.9025C20.5111 50.3138 20.7325 50.7258 20.7325 50.7258L21.0936 50.793Z" fill="#C09C5E"/>
<path d="M23.6122 51.0348C23.6122 51.0348 23.7155 51.0425 23.8187 51.0508C23.9227 51.0501 24.0259 51.0494 24.0259 51.0494L24.0917 48.9245L24.74 48.9183L24.8484 48.5857C24.8484 48.5857 24.3977 48.5898 23.9466 48.5947C23.4972 48.5569 23.0482 48.5188 23.0482 48.5188L23.0229 48.8493L23.7117 48.9113L23.6122 51.0348Z" fill="#C09C5E"/>
<path d="M28.8086 50.7617L29.215 50.68L28.9679 49.2431C28.9513 49.1468 28.9274 49.0079 28.9025 48.906L28.9094 48.9043C28.9728 48.9875 29.0539 49.0658 29.1176 49.1292C29.1176 49.1292 29.2981 49.3072 29.479 49.4853C29.6643 49.6624 29.8501 49.8398 29.8501 49.8398L30.0378 49.8017L30.3812 48.8915C30.4089 48.8135 30.4616 48.669 30.482 48.5814L30.4858 48.5807C30.5101 48.6871 30.5409 48.8201 30.5652 48.9265L30.9054 50.3363C30.9054 50.3363 31.3111 50.2528 31.3087 50.2427L30.6941 47.8632C30.6965 47.8722 30.3576 47.9415 30.3576 47.9415C30.3576 47.9415 30.2675 48.201 30.1778 48.4605C30.0825 48.7214 29.9866 48.9826 29.9866 48.9826C29.9332 49.1382 29.8909 49.2619 29.8563 49.3627L29.8487 49.3641C29.7693 49.2826 29.6893 49.2002 29.5736 49.0813C29.5736 49.0813 29.3688 48.878 29.164 48.6739C28.9659 48.4691 28.7673 48.264 28.7673 48.264L28.4306 48.333L28.8086 50.7617Z" fill="#C09C5E"/>
<path d="M34.2499 48.9552C33.7801 49.1489 33.3477 48.9479 33.1568 48.4067C32.9655 47.8645 33.137 47.4103 33.5687 47.2319C34.0185 47.0462 34.4419 47.2755 34.6653 47.7841C34.8961 48.3097 34.7218 48.7605 34.2499 48.9552ZM34.3726 49.2636C35.0652 48.9781 35.3711 48.3142 35.0513 47.6251C34.7405 46.9543 34.0788 46.6623 33.4471 46.9235C33.1298 47.0513 32.908 47.2935 32.7823 47.5704C32.6548 47.8403 32.634 48.176 32.7535 48.5294C32.8741 48.888 33.1007 49.1471 33.3917 49.2871C33.6796 49.4209 34.0216 49.4046 34.3726 49.2636Z" fill="#C09C5E"/>
<path d="M36.9875 46.5311L36.578 45.8108L36.7606 45.7145C36.8908 45.6431 36.9948 45.6348 37.0731 45.6393C37.1954 45.6386 37.3007 45.7127 37.3717 45.8299C37.457 45.9702 37.4566 46.114 37.3977 46.2338C37.3513 46.316 37.281 46.3738 37.1725 46.4331L36.9875 46.5311ZM37.2678 47.8633L37.6337 47.6686L37.1479 46.8128L37.3554 46.703C37.4223 46.6822 37.5578 46.7341 37.7712 46.853L38.4382 47.1936L38.8369 46.9306L38.0834 46.5616C37.8568 46.4476 37.7047 46.3866 37.6201 46.3939L37.6163 46.388C37.8183 46.1431 37.862 45.8545 37.6849 45.5738C37.5578 45.3722 37.3634 45.2409 37.1053 45.2655C36.9664 45.2717 36.8146 45.332 36.6085 45.4321L36.0881 45.7072L37.2678 47.8633Z" fill="#C09C5E"/>
<path d="M40.3436 45.9062L41.4225 45.0304L41.2097 44.7757L40.4631 45.3827L40.0016 44.7865L40.6263 44.2785L40.4149 44.0228L39.7989 44.5242L39.3651 43.9636L39.9663 43.4744L39.8381 43.1515L38.8714 43.9383L40.3436 45.9062Z" fill="#C09C5E"/>
<path d="M44.4112 42.0844L42.5486 40.4806L42.3112 40.7699L43.3541 41.697C43.4698 41.7968 43.5738 41.8859 43.6732 41.9714L43.6687 41.9766C43.527 41.96 43.3648 41.9472 43.1611 41.9368L42.2717 41.8346C41.8376 41.7726 41.4038 41.7106 41.4038 41.7106L41.1429 41.9694L42.8573 43.7305L43.1514 43.438L42.1131 42.4052C41.9994 42.2923 41.9066 42.2053 41.8255 42.1336L41.83 42.1291C41.9714 42.1506 42.1328 42.18 42.332 42.2032C42.332 42.2032 42.7942 42.2562 43.2564 42.3089C43.4941 42.3359 43.7248 42.3515 43.8922 42.356C44.0633 42.363 44.1773 42.3671 44.1773 42.3671L44.4112 42.0844Z" fill="#C09C5E"/>
<path d="M46.1009 39.3574C45.8185 39.7822 45.3442 39.8609 44.8789 39.5251C44.4119 39.189 44.2982 38.7213 44.5581 38.3312C44.828 37.9265 45.3099 37.8773 45.7839 38.167C46.2731 38.467 46.3829 38.934 46.1009 39.3574ZM46.3774 39.5411C46.7914 38.9188 46.6712 38.2037 46.0153 37.8198C45.3775 37.446 44.6613 37.5787 44.282 38.1476C43.905 38.7137 44.0477 39.4278 44.6451 39.8761C45.2496 40.3303 45.9557 40.1734 46.3774 39.5411Z" fill="#C09C5E"/>
<path d="M9.431 9.75L9.93372 9.29474C10.2064 9.09344 10.4794 8.89214 10.4794 8.89214L10.2466 8.59072C10.2466 8.59072 10.0543 8.73208 9.862 8.87274C9.66209 9.00509 9.49578 9.17798 9.49578 9.17798L7.93217 7.30324L7.58743 7.61333L9.431 9.75Z" fill="#C09C5E"/>
<path d="M11.9213 7.83203L13.1235 7.12212L12.9319 6.79297L12.0751 7.29951L11.6108 6.5695L12.3755 6.11736L12.1814 5.78891L11.4061 6.24798L10.9692 5.56163L11.7719 5.08558L11.6933 4.68957L10.366 5.47709L11.9213 7.83203Z" fill="#C09C5E"/>
<path d="M17.1765 4.83856L16.8844 4.0105L17.2579 3.8785C17.5455 3.77733 17.779 3.86672 17.8597 4.12414C17.9536 4.4273 17.806 4.61544 17.4959 4.72561L17.1765 4.83856ZM16.7604 3.65918L16.4853 2.87963L16.7403 2.78954C17.066 2.67486 17.2593 2.79301 17.331 3.01717C17.4079 3.25797 17.3019 3.46758 17.0078 3.57187L16.7604 3.65918ZM16.908 5.32812L17.6487 5.06654C18.2103 4.86697 18.3964 4.40409 18.2741 3.98278C18.1774 3.6526 17.9058 3.45546 17.577 3.49322L17.5746 3.48525C17.7534 3.31341 17.8081 3.05355 17.7326 2.8034C17.6262 2.44654 17.2645 2.2099 16.6741 2.41813L15.924 2.68283L16.908 5.32812Z" fill="#C09C5E"/>
<path d="M21.461 3.77283C20.9472 3.85182 20.52 3.49877 20.3894 2.86473C20.2542 2.20644 20.5512 1.7595 21.1149 1.67253C21.7004 1.58522 22.1096 1.95768 22.1882 2.59068C22.2697 3.2455 21.9752 3.6966 21.461 3.77283ZM21.523 4.14874C22.2534 4.04065 22.7388 3.39102 22.6487 2.52242C22.5621 1.67912 21.9041 1.16946 21.0529 1.29696C20.2016 1.4009 19.7432 2.142 19.9338 2.97768C20.1264 3.82376 20.776 4.23571 21.523 4.14874Z" fill="#C09C5E"/>
<path d="M26.995 3.81641L27.1596 0.998923L26.6957 0.978828L26.6292 2.57917C26.6254 2.75483 26.6212 2.91351 26.6174 3.06318L26.6091 3.06284C26.529 2.92217 26.4279 2.76349 26.2924 2.56843C26.2924 2.56843 25.9979 2.1544 25.7038 1.74002C25.4016 1.31317 25.0794 0.942795 25.0794 0.942795L24.6248 0.966008L24.7201 3.78661L25.1355 3.76444L25.1071 2.08129C25.104 1.89732 25.0974 1.75215 25.0863 1.62846L25.0957 1.62776C25.1955 1.75596 25.3081 1.90147 25.4456 2.07783C25.4456 2.07783 25.7505 2.50918 26.0558 2.93984C26.3409 3.3705 26.6268 3.80082 26.6268 3.80082L26.995 3.81641Z" fill="#C09C5E"/>
<path d="M29.0183 4.02325L29.4303 4.08076L29.6264 2.84629L30.3079 2.94157C30.6457 3.00324 30.9783 3.09333 30.9783 3.09333L30.7171 4.31601L31.1218 4.41406L31.7582 1.66414L31.3068 1.55605L31.0584 2.72018C31.0584 2.72018 30.7205 2.62941 30.3775 2.56669C30.0321 2.51784 29.6863 2.46934 29.6863 2.46934L29.8731 1.29342L29.414 1.22898L29.0183 4.02325Z" fill="#C09C5E"/>
<path d="M33.0833 4.94856L34.4023 5.40625L34.5388 5.05112L33.5988 4.72474L33.877 3.90534L34.7155 4.19707L34.8506 3.8402L34 3.54432L34.2609 2.77446L35.1423 3.08074L35.4029 2.76823L33.9449 2.26099L33.0833 4.94856Z" fill="#C09C5E"/>
<path d="M37.0816 6.66083C37.4859 6.90128 37.8639 6.90614 38.1823 6.66672C38.3077 6.57179 38.4248 6.43702 38.527 6.26343L39.4306 4.72303L39.0308 4.48708L38.174 6.00462C38.0988 6.1394 38.0153 6.24472 37.9231 6.30917C37.7312 6.45919 37.5084 6.47166 37.2607 6.32407C37.0085 6.18167 36.882 6.00566 36.9011 5.75863C36.9059 5.6481 36.9468 5.5206 37.0119 5.39033L37.7936 3.8229L37.3722 3.6268L36.6024 5.23858C36.5175 5.41632 36.468 5.58643 36.4621 5.73992C36.433 6.14771 36.6547 6.43771 37.0816 6.66083Z" fill="#C09C5E"/>
<path d="M40.915 7.27045L41.4739 6.50129L41.6741 6.64889C41.8179 6.75525 41.8862 6.8533 41.9129 6.9472C41.9676 7.08336 41.9326 7.22749 41.8349 7.35291C41.7199 7.50224 41.5678 7.5601 41.4195 7.54624C41.3131 7.53238 41.2164 7.49288 41.1049 7.41042L40.915 7.27045ZM39.6958 8.23918L40.0312 8.48655L40.6961 7.57188L40.9032 7.72467C40.9528 7.78288 40.9621 7.9381 40.9199 8.21042L40.7896 9.04437L41.1766 9.32812L41.3291 8.41033C41.3696 8.12692 41.3765 7.94052 41.3381 7.85356L41.3429 7.84663C41.6731 7.95646 42.0019 7.89063 42.2403 7.59371C42.4118 7.37959 42.4772 7.11905 42.3338 6.83771C42.2638 6.68457 42.1318 6.52866 41.9038 6.36097L41.3169 5.92893L39.6958 8.23918Z" fill="#C09C5E"/>
</svg>
