<svg width="27" height="32" viewBox="0 0 27 32" fill="none" xmlns="http://www.w3.org/2000/svg">
<path d="M1 31L0.250849 30.9643L0.213436 31.75H1V31ZM2 10V9.25H1.28486L1.25085 9.96433L2 10ZM25 10L25.7492 9.96433L25.7151 9.25H25V10ZM26 31V31.75H26.7866L26.7492 30.9643L26 31ZM8 7H8.75V6.97692L8.74858 6.95388L8 7ZM19 7L18.2514 6.95388L18.25 6.97692V7H19ZM1.74915 31.0357L2.74915 10.0357L1.25085 9.96433L0.250849 30.9643L1.74915 31.0357ZM24.2508 10.0357L25.2508 31.0357L26.7492 30.9643L25.7492 9.96433L24.2508 10.0357ZM26 30.25H1V31.75H26V30.25ZM8 7C8.74858 6.95388 8.7486 6.95421 8.74862 6.95453C8.74862 6.9546 8.74864 6.95489 8.74865 6.95504C8.74867 6.95533 8.74868 6.95554 8.74869 6.95566C8.7487 6.9559 8.74869 6.95579 8.74867 6.95533C8.74862 6.9544 8.7485 6.9521 8.74833 6.94845C8.748 6.94115 8.74748 6.92851 8.74697 6.91088C8.74594 6.87559 8.74496 6.82047 8.74555 6.74839C8.74675 6.60395 8.75428 6.39303 8.78013 6.13819C8.83225 5.62431 8.95671 4.95395 9.2385 4.29483C9.51891 3.63894 9.94665 3.01276 10.5991 2.54865C11.2463 2.0883 12.1667 1.75 13.5 1.75V0.25C11.8985 0.25 10.664 0.661704 9.72963 1.32635C8.80055 1.98724 8.22014 2.86106 7.85926 3.70517C7.49976 4.54605 7.34977 5.37569 7.28778 5.98681C7.25658 6.29447 7.24713 6.5523 7.24561 6.73599C7.24485 6.82797 7.24607 6.90176 7.2476 6.95436C7.24836 6.98067 7.2492 7.00172 7.24991 7.01712C7.25026 7.02483 7.25058 7.03113 7.25084 7.03598C7.25097 7.0384 7.25109 7.04046 7.25118 7.04215C7.25123 7.043 7.25128 7.04375 7.25132 7.04441C7.25134 7.04474 7.25136 7.04517 7.25137 7.04534C7.2514 7.04574 7.25142 7.04612 8 7ZM13.5 1.75C14.8333 1.75 15.7537 2.0883 16.4009 2.54865C17.0533 3.01276 17.4811 3.63894 17.7615 4.29483C18.0433 4.95395 18.1677 5.62431 18.2199 6.13819C18.2457 6.39303 18.2533 6.60395 18.2544 6.74839C18.255 6.82047 18.2541 6.87559 18.253 6.91088C18.2525 6.92851 18.252 6.94115 18.2517 6.94845C18.2515 6.9521 18.2514 6.9544 18.2513 6.95533C18.2513 6.95579 18.2513 6.9559 18.2513 6.95566C18.2513 6.95554 18.2513 6.95533 18.2513 6.95504C18.2514 6.95489 18.2514 6.9546 18.2514 6.95453C18.2514 6.95421 18.2514 6.95388 19 7C19.7486 7.04612 19.7486 7.04574 19.7486 7.04534C19.7486 7.04517 19.7487 7.04474 19.7487 7.04441C19.7487 7.04375 19.7488 7.043 19.7488 7.04215C19.7489 7.04046 19.749 7.0384 19.7492 7.03598C19.7494 7.03113 19.7497 7.02483 19.7501 7.01712C19.7508 7.00172 19.7516 6.98067 19.7524 6.95436C19.7539 6.90176 19.7552 6.82797 19.7544 6.73599C19.7529 6.5523 19.7434 6.29447 19.7122 5.98681C19.6502 5.37569 19.5002 4.54605 19.1407 3.70517C18.7799 2.86106 18.1995 1.98724 17.2704 1.32635C16.336 0.661704 15.1015 0.25 13.5 0.25V1.75ZM22 10.75H25V9.25H22V10.75ZM2 10.75H5V9.25H2V10.75ZM7.25 7V14H8.75V7H7.25ZM18.25 7V14H19.75V7H18.25ZM11 10.75H16V9.25H11V10.75Z" fill="white"/>
</svg>
