<svg width="359" height="455" viewBox="0 0 359 455" fill="none" xmlns="http://www.w3.org/2000/svg">
<path d="M327.625 49.1882C280.176 -4.89794 234.501 -9.77456 135.612 12.3919C109.892 31.0117 115.657 64.2614 109.449 104.604C103.24 144.947 42.488 194.157 8.34254 260.213C-25.8029 326.269 51.8004 439.318 115.657 453.504C179.513 467.691 221.641 377.695 243.813 321.392C265.986 265.09 327.625 234.056 343.146 202.137C358.666 170.217 375.074 103.274 327.625 49.1882Z" fill="#EEE9E6"/>
<path d="M266.911 202.176C289.086 149.233 287.407 94.7453 227.741 34.3172C200.863 7.43626 198.932 43.3069 176.517 43.3069C143.329 43.3069 114.536 18.3218 73.307 12.2631C32.0776 6.20446 1.57285 106.219 13.6793 162.682C25.7857 219.144 80.664 223.834 113.765 223.374C146.866 222.914 179.661 262.759 199.296 264.892C218.931 267.025 252.202 237.295 266.911 202.176Z" fill="#E9DED6"/>
</svg>
