<svg width="207" height="255" viewBox="0 0 207 255" fill="none" xmlns="http://www.w3.org/2000/svg">
<path d="M247.417 100.897C260.748 133.26 253.025 154.277 222.048 192.748C208.392 199.993 195.15 190.329 176.237 184.377C157.324 178.424 122.789 194.413 86.652 195.151C50.5146 195.888 17.9993 137.674 25.5869 106.709C33.1746 75.7439 81.4616 76.6596 110.769 79.0614C140.076 81.4632 166.884 61.1817 184.136 61.2534C201.387 61.3251 234.086 68.533 247.417 100.897Z" fill="#EEE9E6"/>
<path d="M174.891 74.9129C202.715 76.6858 226.114 89.1299 239.709 127.985C245.685 145.415 229.632 138.538 224.841 148.254C217.747 162.639 222.486 180.491 216.316 199.664C210.145 218.837 160.015 210.552 137.984 193.164C115.952 175.776 125.637 150.981 132.913 136.733C140.189 122.485 129.825 99.7029 133.092 90.7339C136.359 81.7649 156.434 73.7369 174.891 74.9129Z" fill="#E9DED6"/>
</svg>
