<svg width="4059" height="136" viewBox="0 0 4059 136" fill="none" xmlns="http://www.w3.org/2000/svg">
<path d="M12.3047 106.352L11.5887 107.05L11.5931 107.055L12.3047 106.352ZM12.3047 50.048L11.5888 49.3498L11.5844 49.3544L12.3047 50.048ZM71.0567 51.488L71.786 52.1722L72.4303 51.4855L71.7835 50.8011L71.0567 51.488ZM60.1127 63.152L59.3893 63.8425L60.1189 64.6068L60.8419 63.8362L60.1127 63.152ZM24.8327 60.704L25.5767 61.3721L25.5767 61.3721L24.8327 60.704ZM24.8327 95.408L24.0886 96.0762L24.0962 96.0844L24.8327 95.408ZM60.9767 93.104L61.6789 92.392L60.9718 91.6946L60.2696 92.3969L60.9767 93.104ZM71.4887 103.472L72.2335 104.139L72.8695 103.429L72.1909 102.76L71.4887 103.472ZM58.0967 114.128L58.5439 115.022L58.551 115.019L58.558 115.015L58.0967 114.128ZM40.3847 116.728C29.4041 116.728 20.3054 113.032 13.0163 105.649L11.5931 107.055C19.28 114.84 28.9013 118.728 40.3847 118.728V116.728ZM13.0207 105.654C5.71886 98.1648 2.07269 89.1051 2.07269 78.416H0.0726878C0.0726878 89.6149 3.91451 99.1792 11.5887 107.05L13.0207 105.654ZM2.07269 78.416V78.128H0.0726878V78.416H2.07269ZM2.07269 78.128C2.07269 67.4387 5.71919 58.3285 13.025 50.7416L11.5844 49.3544C3.91419 57.3195 0.0726878 66.9293 0.0726878 78.128H2.07269ZM13.0206 50.7462C20.4075 43.1723 29.6013 39.384 40.6727 39.384V37.384C29.0881 37.384 19.3699 41.3717 11.5888 49.3498L13.0206 50.7462ZM40.6727 39.384C52.3972 39.384 62.2624 43.6384 70.3299 52.1749L71.7835 50.8011C63.3389 41.8656 52.9482 37.384 40.6727 37.384V39.384ZM70.3274 50.8038L59.3834 62.4678L60.8419 63.8362L71.786 52.1722L70.3274 50.8038ZM60.836 62.4615C54.6495 55.9804 47.875 52.648 40.5287 52.648V54.648C47.1984 54.648 53.4799 57.6516 59.3893 63.8425L60.836 62.4615ZM40.5287 52.648C34.0006 52.648 28.4995 55.1238 24.0886 60.0359L25.5767 61.3721C29.6139 56.8762 34.5768 54.648 40.5287 54.648V52.648ZM24.0886 60.0359C19.6889 64.9356 17.4967 70.8903 17.4967 77.84H19.4967C19.4967 71.3497 21.5285 65.8804 25.5767 61.3721L24.0886 60.0359ZM17.4967 77.84V78.128H19.4967V77.84H17.4967ZM17.4967 78.128C17.4967 85.1697 19.6864 91.1736 24.0886 96.0761L25.5767 94.7399C21.531 90.2344 19.4967 84.7183 19.4967 78.128H17.4967ZM24.0962 96.0844C28.6134 101.003 34.3565 103.464 41.2487 103.464V101.464C34.8929 101.464 29.692 99.2209 25.5692 94.7316L24.0962 96.0844ZM41.2487 103.464C48.4941 103.464 55.3107 100.184 61.6838 93.8111L60.2696 92.3969C54.1627 98.5038 47.8273 101.464 41.2487 101.464V103.464ZM60.2745 93.816L70.7865 104.184L72.1909 102.76L61.6789 92.392L60.2745 93.816ZM70.7439 102.805C66.6849 107.336 62.3142 110.808 57.6353 113.241L58.558 115.015C63.4792 112.456 68.0365 108.824 72.2335 104.139L70.7439 102.805ZM57.6495 113.234C53.0241 115.546 47.2832 116.728 40.3847 116.728V118.728C47.5022 118.728 53.5692 117.51 58.5439 115.022L57.6495 113.234ZM87.3703 116H86.3703V117H87.3703V116ZM87.3703 39.968V38.968H86.3703V39.968H87.3703ZM104.794 39.968H105.794V38.968H104.794V39.968ZM104.794 88.64H103.794V91.6543L105.596 89.2377L104.794 88.64ZM141.082 39.968V38.968H140.581L140.281 39.3703L141.082 39.968ZM157.642 39.968H158.642V38.968H157.642V39.968ZM157.642 116V117H158.642V116H157.642ZM140.218 116H139.218V117H140.218V116ZM140.218 66.176H141.218V63.1526L139.416 65.5797L140.218 66.176ZM103.21 116V117H103.713L104.013 116.596L103.21 116ZM88.3703 116V39.968H86.3703V116H88.3703ZM87.3703 40.968H104.794V38.968H87.3703V40.968ZM103.794 39.968V88.64H105.794V39.968H103.794ZM105.596 89.2377L141.884 40.5657L140.281 39.3703L103.993 88.0423L105.596 89.2377ZM141.082 40.968H157.642V38.968H141.082V40.968ZM156.642 39.968V116H158.642V39.968H156.642ZM157.642 115H140.218V117H157.642V115ZM141.218 116V66.176H139.218V116H141.218ZM139.416 65.5797L102.408 115.404L104.013 116.596L141.021 66.7723L139.416 65.5797ZM103.21 115H87.3703V117H103.21V115ZM221.39 39.392L222.309 38.9966L222.049 38.392H221.39V39.392ZM254.366 116V117H255.886L255.285 115.605L254.366 116ZM235.358 116L234.431 116.375L234.684 117H235.358V116ZM213.038 60.848L213.965 60.4729L213.044 58.197L212.113 60.4687L213.038 60.848ZM190.43 116V117H191.101L191.356 116.379L190.43 116ZM171.998 116L171.08 115.605L170.479 117H171.998V116ZM204.974 39.392V38.392H204.316L204.056 38.9966L204.974 39.392ZM220.472 39.7874L253.448 116.395L255.285 115.605L222.309 38.9966L220.472 39.7874ZM254.366 115H235.358V117H254.366V115ZM236.285 115.625L213.965 60.4729L212.111 61.2231L234.431 116.375L236.285 115.625ZM212.113 60.4687L189.505 115.621L191.356 116.379L213.964 61.2273L212.113 60.4687ZM190.43 115H171.998V117H190.43V115ZM172.917 116.395L205.893 39.7874L204.056 38.9966L171.08 115.605L172.917 116.395ZM204.974 40.392H221.39V38.392H204.974V40.392ZM270.95 111.392L270.327 112.174L270.334 112.18L270.95 111.392ZM271.67 75.536L271.088 74.7232L271.081 74.7279L271.67 75.536ZM315.158 72.512L314.854 73.4647L316.158 73.8804V72.512H315.158ZM274.55 58.832L273.605 59.1601L273.954 60.1646L274.936 59.7547L274.55 58.832ZM269.798 45.152L269.406 44.2319L268.547 44.5978L268.853 45.4801L269.798 45.152ZM323.798 47.456L323.079 48.1508L323.085 48.157L323.091 48.1631L323.798 47.456ZM332.006 116V117H333.006V116H332.006ZM315.014 116H314.014V117H315.014V116ZM315.014 106.496H316.014V103.728L314.245 105.857L315.014 106.496ZM309.686 100.448L310.299 101.238L310.305 101.234L310.311 101.229L309.686 100.448ZM315.446 83.456H316.446V82.7719L315.809 82.524L315.446 83.456ZM284.918 83.744L284.346 82.9236L284.34 82.9277L284.334 82.932L284.918 83.744ZM284.486 101.888L283.882 102.685L283.891 102.691L283.9 102.698L284.486 101.888ZM290.246 116.584C282.854 116.584 276.647 114.577 271.566 110.604L270.334 112.18C275.813 116.463 282.47 118.584 290.246 118.584V116.584ZM271.573 110.61C266.657 106.695 264.174 101.239 264.174 94.112H262.174C262.174 101.769 264.875 107.833 270.327 112.174L271.573 110.61ZM264.174 94.112V93.824H262.174V94.112H264.174ZM264.174 93.824C264.174 86.0245 266.895 80.2537 272.259 76.3441L271.081 74.7279C265.117 79.0743 262.174 85.4955 262.174 93.824H264.174ZM272.253 76.3488C277.792 72.379 285.246 70.344 294.71 70.344V68.344C284.974 68.344 277.068 70.437 271.088 74.7232L272.253 76.3488ZM294.71 70.344C301.616 70.344 308.329 71.3843 314.854 73.4647L315.462 71.5593C308.739 69.4157 301.82 68.344 294.71 68.344V70.344ZM316.158 72.512V70.64H314.158V72.512H316.158ZM316.158 70.64C316.158 64.9296 314.526 60.4743 311.102 57.4685C307.703 54.4845 302.707 53.08 296.294 53.08V55.08C302.458 55.08 306.894 56.4355 309.782 58.9715C312.646 61.4857 314.158 65.3104 314.158 70.64H316.158ZM296.294 53.08C289.227 53.08 281.848 54.6997 274.165 57.9093L274.936 59.7547C282.42 56.6283 289.537 55.08 296.294 55.08V53.08ZM275.495 58.5039L270.743 44.8239L268.853 45.4801L273.605 59.1601L275.495 58.5039ZM270.19 46.0721C279.775 41.9911 289.243 39.96 298.598 39.96V37.96C288.945 37.96 279.213 40.0569 269.406 44.2319L270.19 46.0721ZM298.598 39.96C309.775 39.96 317.865 42.754 323.079 48.1508L324.517 46.7612C318.787 40.83 310.077 37.96 298.598 37.96V39.96ZM323.091 48.1631C328.322 53.394 331.006 60.9305 331.006 70.928H333.006C333.006 60.5735 330.218 52.4619 324.505 46.7489L323.091 48.1631ZM331.006 70.928V116H333.006V70.928H331.006ZM332.006 115H315.014V117H332.006V115ZM316.014 116V106.496H314.014V116H316.014ZM314.245 105.857C308.307 113 300.343 116.584 290.246 116.584V118.584C300.885 118.584 309.433 114.776 315.783 107.135L314.245 105.857ZM295.142 105.912C301.173 105.912 306.25 104.376 310.299 101.238L309.073 99.6576C305.443 102.472 300.823 103.912 295.142 103.912V105.912ZM310.311 101.229C314.381 97.9725 316.446 93.7523 316.446 88.64H314.446C314.446 93.1277 312.671 96.7795 309.061 99.6671L310.311 101.229ZM316.446 88.64V83.456H314.446V88.64H316.446ZM315.809 82.524C310.494 80.4573 304.609 79.432 298.166 79.432V81.432C304.395 81.432 310.03 82.4227 315.084 84.388L315.809 82.524ZM298.166 79.432C292.388 79.432 287.744 80.5558 284.346 82.9236L285.49 84.5644C288.429 82.5162 292.616 81.432 298.166 81.432V79.432ZM284.334 82.932C280.981 85.3419 279.31 88.7749 279.31 93.104H281.31C281.31 89.3691 282.711 86.5621 285.502 84.556L284.334 82.932ZM279.31 93.104V93.392H281.31V93.104H279.31ZM279.31 93.392C279.31 97.2508 280.844 100.38 283.882 102.685L285.09 101.091C282.56 99.172 281.31 96.6372 281.31 93.392H279.31ZM283.9 102.698C286.894 104.866 290.666 105.912 295.142 105.912V103.912C290.978 103.912 287.647 102.942 285.073 101.078L283.9 102.698ZM395.902 116H394.902V117H395.902V116ZM395.902 39.968V38.968H394.902V39.968H395.902ZM453.934 45.152L453.341 45.958L453.352 45.9657L453.934 45.152ZM449.038 76.544L448.659 75.6186L446.097 76.668L448.738 77.498L449.038 76.544ZM456.094 110.528L455.532 109.7L455.525 109.705L456.094 110.528ZM413.038 71.504H412.038V72.504H413.038V71.504ZM440.686 68.912L440.052 68.138L440.052 68.138L440.686 68.912ZM440.686 55.088L440.052 55.862L440.052 55.862L440.686 55.088ZM431.614 52.64V53.64H431.626L431.638 53.6397L431.614 52.64ZM413.038 52.64V51.64H412.038V52.64H413.038ZM413.038 83.744V82.744H412.038V83.744H413.038ZM413.038 103.328H412.038V104.328H413.038V103.328ZM443.422 86.336L442.816 87.1322L442.834 87.1456L442.852 87.1582L443.422 86.336ZM433.054 83.744V84.744H433.064L433.075 84.7438L433.054 83.744ZM396.902 116V39.968H394.902V116H396.902ZM395.902 40.968H434.638V38.968H395.902V40.968ZM434.638 40.968C442.667 40.968 448.865 42.6694 453.341 45.9579L454.526 44.3461C449.594 40.7226 442.928 38.968 434.638 38.968V40.968ZM453.352 45.9657C457.77 49.1212 459.99 53.6049 459.99 59.552H461.99C461.99 53.0191 459.505 47.9028 454.515 44.3383L453.352 45.9657ZM459.99 59.552V59.696H461.99V59.552H459.99ZM459.99 59.696C459.99 63.5064 459.04 66.692 457.186 69.3054C455.328 71.9242 452.511 74.0406 448.659 75.6186L449.417 77.4694C453.532 75.7834 456.691 73.4598 458.817 70.4626C460.947 67.46 461.99 63.8536 461.99 59.696H459.99ZM448.738 77.498C453.656 79.0436 457.248 81.262 459.609 84.0962C461.96 86.9165 463.158 90.4247 463.158 94.688H465.158C465.158 90.0233 463.836 86.0435 461.146 82.8158C458.468 79.602 454.499 77.2123 449.337 75.59L448.738 77.498ZM463.158 94.688V94.832H465.158V94.688H463.158ZM463.158 94.832C463.158 101.336 460.618 106.249 455.532 109.701L456.655 111.355C462.321 107.511 465.158 101.96 465.158 94.832H463.158ZM455.525 109.705C450.466 113.201 443.583 115 434.782 115V117C443.836 117 451.161 115.151 456.662 111.351L455.525 109.705ZM434.782 115H395.902V117H434.782V115ZM413.038 72.504H431.182V70.504H413.038V72.504ZM431.182 72.504C435.516 72.504 438.953 71.6214 441.319 69.686L440.052 68.138C438.194 69.6586 435.295 70.504 431.182 70.504V72.504ZM441.319 69.686C443.686 67.7493 444.854 65.101 444.854 61.856H442.854C442.854 64.563 441.909 66.6187 440.052 68.138L441.319 69.686ZM444.854 61.856V61.712H442.854V61.856H444.854ZM444.854 61.712C444.854 58.7188 443.659 56.2286 441.319 54.314L440.052 55.862C441.936 57.4034 442.854 59.3292 442.854 61.712H444.854ZM441.319 54.314C438.955 52.3796 435.66 51.541 431.589 51.6403L431.638 53.6397C435.439 53.547 438.193 54.3404 440.052 55.862L441.319 54.314ZM431.614 51.64H413.038V53.64H431.614V51.64ZM412.038 52.64V71.504H414.038V52.64H412.038ZM412.038 83.744V103.328H414.038V83.744H412.038ZM413.038 104.328H433.774V102.328H413.038V104.328ZM433.774 104.328C438.328 104.328 441.923 103.513 444.402 101.727C446.942 99.8979 448.166 97.1555 448.166 93.68H446.166C446.166 96.6365 445.158 98.7181 443.233 100.105C441.248 101.535 438.147 102.328 433.774 102.328V104.328ZM448.166 93.68V93.536H446.166V93.68H448.166ZM448.166 93.536C448.166 90.1405 446.76 87.4312 443.991 85.5138L442.852 87.1582C445.075 88.6968 446.166 90.7875 446.166 93.536H448.166ZM444.027 85.5398C441.377 83.5259 437.663 82.6457 433.032 82.7442L433.075 84.7438C437.469 84.6503 440.666 85.4981 442.816 87.1322L444.027 85.5398ZM433.054 82.744H413.038V84.744H433.054V82.744ZM545.879 116H544.879V117H545.879V116ZM545.879 55.52H546.879V54.52H545.879V55.52ZM518.807 55.52H517.807V56.52H518.807V55.52ZM518.807 39.968V38.968H517.807V39.968H518.807ZM590.375 39.968H591.375V38.968H590.375V39.968ZM590.375 55.52V56.52H591.375V55.52H590.375ZM563.303 55.52V54.52H562.303V55.52H563.303ZM563.303 116V117H564.303V116H563.303ZM546.879 116V55.52H544.879V116H546.879ZM545.879 54.52H518.807V56.52H545.879V54.52ZM519.807 55.52V39.968H517.807V55.52H519.807ZM518.807 40.968H590.375V38.968H518.807V40.968ZM589.375 39.968V55.52H591.375V39.968H589.375ZM590.375 54.52H563.303V56.52H590.375V54.52ZM562.303 55.52V116H564.303V55.52H562.303ZM563.303 115H545.879V117H563.303V115ZM608.973 106.784L608.266 107.491L608.275 107.5L608.973 106.784ZM608.397 49.904L609.132 50.5827L609.136 50.578L608.397 49.904ZM661.821 50.192L661.042 50.8191L661.051 50.8294L661.821 50.192ZM671.181 84.176V85.176H672.101L672.178 84.259L671.181 84.176ZM615.309 84.176V83.176H614.141L614.321 84.3304L615.309 84.176ZM622.653 98.432L623.302 97.6714L623.302 97.6714L622.653 98.432ZM657.789 94.4L658.453 93.652L657.764 93.0411L657.099 93.6766L657.789 94.4ZM668.013 103.472L668.776 104.119L669.409 103.373L668.677 102.724L668.013 103.472ZM615.165 72.656L614.173 72.53L614.03 73.656H615.165V72.656ZM654.189 72.656V73.656H655.292L655.184 72.5581L654.189 72.656ZM621.501 58.112L620.785 57.4143L620.775 57.4243L621.501 58.112ZM636.909 116.728C626.015 116.728 616.959 113.169 609.671 106.068L608.275 107.5C615.963 114.991 625.531 118.728 636.909 118.728V116.728ZM609.68 106.077C602.497 98.8941 598.885 89.6551 598.885 78.272H596.885C596.885 90.1209 600.665 99.8899 608.266 107.491L609.68 106.077ZM598.885 78.272V77.984H596.885V78.272H598.885ZM598.885 77.984C598.885 67.078 602.308 57.9667 609.132 50.5827L607.663 49.2253C600.47 57.0093 596.885 66.618 596.885 77.984H598.885ZM609.136 50.578C615.947 43.1136 624.555 39.384 635.037 39.384V37.384C624.015 37.384 614.863 41.3344 607.659 49.2299L609.136 50.578ZM635.037 39.384C646.302 39.384 654.924 43.2177 661.042 50.819L662.6 49.565C656.046 41.4223 646.812 37.384 635.037 37.384V39.384ZM661.051 50.8294C667.312 58.3994 670.469 67.8596 670.469 79.28H672.469C672.469 67.4684 669.194 57.5365 662.592 49.5546L661.051 50.8294ZM670.469 79.28C670.469 80.1941 670.377 81.789 670.185 84.093L672.178 84.259C672.37 81.955 672.469 80.2859 672.469 79.28H670.469ZM671.181 83.176H615.309V85.176H671.181V83.176ZM614.321 84.3304C615.31 90.6606 617.851 95.6476 622.004 99.1926L623.302 97.6714C619.583 94.4964 617.228 89.9794 616.297 84.0216L614.321 84.3304ZM622.004 99.1926C626.142 102.725 631.228 104.472 637.197 104.472V102.472C631.646 102.472 627.037 100.859 623.302 97.6714L622.004 99.1926ZM637.197 104.472C644.893 104.472 651.994 101.314 658.48 95.1234L657.099 93.6766C650.912 99.5821 644.285 102.472 637.197 102.472V104.472ZM657.125 95.148L667.349 104.22L668.677 102.724L658.453 93.652L657.125 95.148ZM667.251 102.825C659.38 112.101 649.293 116.728 636.909 116.728V118.728C649.869 118.728 660.518 113.851 668.776 104.119L667.251 102.825ZM615.165 73.656H654.189V71.656H615.165V73.656ZM655.184 72.5581C654.591 66.5274 652.555 61.5162 649.029 57.5881L647.541 58.9239C650.736 62.4837 652.635 67.0726 653.194 72.7539L655.184 72.5581ZM649.029 57.5881C645.458 53.6088 640.711 51.64 634.893 51.64V53.64C640.211 53.64 644.392 55.4152 647.541 58.9239L649.029 57.5881ZM634.893 51.64C629.264 51.64 624.536 53.5613 620.785 57.4144L622.218 58.8096C625.57 55.3667 629.77 53.64 634.893 53.64V51.64ZM620.775 57.4243C617.144 61.257 614.962 66.3172 614.173 72.53L616.157 72.782C616.904 66.8988 618.946 62.263 622.227 58.7997L620.775 57.4243ZM698.039 107.36L698.747 106.653L698.747 106.653L698.039 107.36ZM695.591 31.328L694.779 30.7444L694.778 30.746L695.591 31.328ZM726.695 14.048L726.857 15.0349L726.862 15.0341L726.695 14.048ZM754.055 9.44L755.041 9.27128L754.873 8.28825L753.889 8.45389L754.055 9.44ZM756.791 25.424L756.949 26.4115L757.948 26.2521L757.777 25.2553L756.791 25.424ZM729.719 29.744L729.562 28.7565L729.554 28.7577L729.546 28.7591L729.719 29.744ZM710.135 38.096L709.453 37.3649L709.445 37.3726L710.135 38.096ZM702.215 55.664L701.225 55.5278L700.785 58.7237L702.955 56.3367L702.215 55.664ZM755.639 54.224L754.922 54.9203L754.927 54.9258L755.639 54.224ZM753.911 106.784L753.214 106.068L753.209 106.072L753.911 106.784ZM741.527 96.272L740.805 95.5807L740.797 95.5891L741.527 96.272ZM741.959 63.728L741.235 64.4177L741.244 64.4265L741.959 63.728ZM709.559 64.016L708.852 63.3089L708.852 63.3089L709.559 64.016ZM725.111 116.728C714.2 116.728 705.444 113.351 698.747 106.653L697.332 108.067C704.458 115.193 713.75 118.728 725.111 118.728V116.728ZM698.747 106.653C690.835 98.7415 686.799 87.0358 686.799 71.36H684.799C684.799 87.3642 688.924 99.6585 697.332 108.067L698.747 106.653ZM686.799 71.36V71.216H684.799V71.36H686.799ZM686.799 71.216C686.799 53.8443 690.049 40.7894 696.405 31.91L694.778 30.746C688.078 40.1066 684.799 53.6437 684.799 71.216H686.799ZM696.403 31.9116C702.835 22.9637 712.935 17.3079 726.857 15.0349L726.534 13.0611C712.232 15.3961 701.596 21.2603 694.779 30.7444L696.403 31.9116ZM726.862 15.0341L754.222 10.4261L753.889 8.45389L726.529 13.0619L726.862 15.0341ZM753.07 9.60872L755.806 25.5927L757.777 25.2553L755.041 9.27128L753.07 9.60872ZM756.634 24.4365L729.562 28.7565L729.877 30.7315L756.949 26.4115L756.634 24.4365ZM729.546 28.7591C720.709 30.3129 713.969 33.1501 709.453 37.3649L710.818 38.8271C714.942 34.9779 721.258 32.2471 729.893 30.7289L729.546 28.7591ZM709.445 37.3726C705.011 41.6053 702.301 47.6973 701.225 55.5278L703.206 55.8002C704.241 48.2707 706.812 42.6507 710.826 38.8194L709.445 37.3726ZM702.955 56.3367C709.453 49.1895 718.38 45.576 729.863 45.576V43.576C717.923 43.576 708.418 47.3545 701.475 54.9913L702.955 56.3367ZM729.863 45.576C740.601 45.576 748.91 48.724 754.922 54.9203L756.357 53.5277C749.889 46.86 741.014 43.576 729.863 43.576V45.576ZM754.927 54.9258C761.053 61.1445 764.143 69.2314 764.143 79.28H766.143C766.143 68.7846 762.898 60.1675 756.352 53.5222L754.927 54.9258ZM764.143 79.28V79.424H766.143V79.28H764.143ZM764.143 79.424C764.143 90.1124 760.499 98.9696 753.214 106.068L754.609 107.5C762.3 100.006 766.143 90.6236 766.143 79.424H764.143ZM753.209 106.072C746.03 113.158 736.696 116.728 725.111 116.728V118.728C737.143 118.728 747.009 115.002 754.614 107.496L753.209 106.072ZM725.399 103.896C732.271 103.896 737.922 101.594 742.258 96.9549L740.797 95.5891C736.877 99.7822 731.776 101.896 725.399 101.896V103.896ZM742.25 96.9632C746.671 92.3418 748.863 86.5175 748.863 79.568H746.863C746.863 86.0585 744.832 91.3702 740.805 95.5808L742.25 96.9632ZM748.863 79.568V79.424H746.863V79.568H748.863ZM748.863 79.424C748.863 72.771 746.82 67.2751 742.675 63.0295L741.244 64.4265C744.971 68.2449 746.863 73.213 746.863 79.424H748.863ZM742.684 63.0383C738.622 58.7739 733.158 56.68 726.407 56.68V58.68C732.713 58.68 737.617 60.6181 741.235 64.4177L742.684 63.0383ZM726.407 56.68C719.184 56.68 713.296 58.865 708.852 63.3089L710.267 64.7231C714.271 60.719 719.615 58.68 726.407 58.68V56.68ZM708.852 63.3089C704.422 67.7388 702.223 73.3779 702.223 80.144H704.223C704.223 73.8541 706.248 68.7412 710.267 64.7231L708.852 63.3089ZM702.223 80.144V80.288H704.223V80.144H702.223ZM702.223 80.288C702.223 87.1387 704.367 92.8248 708.7 97.2589L710.131 95.8611C706.208 91.8472 704.223 86.6853 704.223 80.288H702.223ZM708.7 97.2589C713.037 101.697 718.633 103.896 725.399 103.896V101.896C719.109 101.896 714.05 99.8713 710.131 95.8611L708.7 97.2589ZM789.958 106.784L789.25 107.491L789.26 107.5L789.958 106.784ZM789.382 49.904L790.116 50.5827L790.12 50.578L789.382 49.904ZM842.806 50.192L842.026 50.8191L842.035 50.8294L842.806 50.192ZM852.166 84.176V85.176H853.086L853.162 84.259L852.166 84.176ZM796.294 84.176V83.176H795.125L795.306 84.3304L796.294 84.176ZM803.638 98.432L804.287 97.6714L804.287 97.6714L803.638 98.432ZM838.774 94.4L839.437 93.652L838.749 93.0411L838.083 93.6766L838.774 94.4ZM848.998 103.472L849.76 104.119L850.393 103.373L849.661 102.724L848.998 103.472ZM796.15 72.656L795.158 72.53L795.015 73.656H796.15V72.656ZM835.174 72.656V73.656H836.277L836.169 72.5581L835.174 72.656ZM802.486 58.112L801.769 57.4143L801.76 57.4243L802.486 58.112ZM817.894 116.728C807 116.728 797.944 113.169 790.655 106.068L789.26 107.5C796.947 114.991 806.516 118.728 817.894 118.728V116.728ZM790.665 106.077C783.482 98.8941 779.87 89.6551 779.87 78.272H777.87C777.87 90.1209 781.649 99.8899 789.25 107.491L790.665 106.077ZM779.87 78.272V77.984H777.87V78.272H779.87ZM779.87 77.984C779.87 67.078 783.293 57.9667 790.116 50.5827L788.647 49.2253C781.454 57.0093 777.87 66.618 777.87 77.984H779.87ZM790.12 50.578C796.932 43.1136 805.54 39.384 816.022 39.384V37.384C804.999 37.384 795.848 41.3344 788.643 49.2299L790.12 50.578ZM816.022 39.384C827.287 39.384 835.908 43.2177 842.027 50.819L843.585 49.565C837.031 41.4223 827.797 37.384 816.022 37.384V39.384ZM842.035 50.8294C848.297 58.3994 851.454 67.8596 851.454 79.28H853.454C853.454 67.4684 850.178 57.5365 843.576 49.5546L842.035 50.8294ZM851.454 79.28C851.454 80.1941 851.361 81.789 851.169 84.093L853.162 84.259C853.354 81.955 853.454 80.2859 853.454 79.28H851.454ZM852.166 83.176H796.294V85.176H852.166V83.176ZM795.306 84.3304C796.295 90.6606 798.836 95.6476 802.988 99.1926L804.287 97.6714C800.567 94.4964 798.212 89.9794 797.282 84.0216L795.306 84.3304ZM802.988 99.1926C807.126 102.725 812.212 104.472 818.182 104.472V102.472C812.631 102.472 808.021 100.859 804.287 97.6714L802.988 99.1926ZM818.182 104.472C825.877 104.472 832.979 101.314 839.464 95.1234L838.083 93.6766C831.896 99.5821 825.27 102.472 818.182 102.472V104.472ZM838.11 95.148L848.334 104.22L849.661 102.724L839.437 93.652L838.11 95.148ZM848.235 102.825C840.365 112.101 830.278 116.728 817.894 116.728V118.728C830.854 118.728 841.502 113.851 849.76 104.119L848.235 102.825ZM796.15 73.656H835.174V71.656H796.15V73.656ZM836.169 72.5581C835.576 66.5274 833.539 61.5162 830.014 57.5881L828.525 58.9239C831.72 62.4837 833.62 67.0726 834.178 72.7539L836.169 72.5581ZM830.014 57.5881C826.443 53.6088 821.696 51.64 815.878 51.64V53.64C821.195 53.64 825.376 55.4152 828.525 58.9239L830.014 57.5881ZM815.878 51.64C810.249 51.64 805.521 53.5613 801.769 57.4144L803.202 58.8096C806.554 55.3667 810.755 53.64 815.878 53.64V51.64ZM801.76 57.4243C798.129 61.257 795.946 66.3172 795.158 72.53L797.142 72.782C797.889 66.8988 799.931 62.263 803.212 58.7997L801.76 57.4243ZM898.58 134.432L897.681 133.993L896.979 135.432H898.58V134.432ZM963.668 1.08799V0.0879946H963.043L962.769 0.649342L963.668 1.08799ZM978.788 1.08799L979.686 1.52665L980.389 0.0879946H978.788V1.08799ZM913.7 134.432V135.432H914.324L914.598 134.871L913.7 134.432ZM899.478 134.871L964.566 1.52665L962.769 0.649342L897.681 133.993L899.478 134.871ZM963.668 2.08799H978.788V0.0879946H963.668V2.08799ZM977.889 0.649342L912.801 133.993L914.598 134.871L979.686 1.52665L977.889 0.649342ZM913.7 133.432H898.58V135.432H913.7V133.432ZM1038.45 106.352L1037.73 107.05L1037.73 107.055L1038.45 106.352ZM1038.45 50.048L1037.73 49.3498L1037.72 49.3544L1038.45 50.048ZM1097.2 51.488L1097.93 52.1722L1098.57 51.4855L1097.92 50.8011L1097.2 51.488ZM1086.25 63.152L1085.53 63.8425L1086.26 64.6068L1086.98 63.8362L1086.25 63.152ZM1050.97 60.704L1051.72 61.3721L1051.72 61.3721L1050.97 60.704ZM1050.97 95.408L1050.23 96.0762L1050.24 96.0844L1050.97 95.408ZM1087.12 93.104L1087.82 92.392L1087.11 91.6946L1086.41 92.3969L1087.12 93.104ZM1097.63 103.472L1098.37 104.139L1099.01 103.429L1098.33 102.76L1097.63 103.472ZM1084.24 114.128L1084.68 115.022L1084.69 115.019L1084.7 115.015L1084.24 114.128ZM1066.53 116.728C1055.54 116.728 1046.45 113.032 1039.16 105.649L1037.73 107.055C1045.42 114.84 1055.04 118.728 1066.53 118.728V116.728ZM1039.16 105.654C1031.86 98.1648 1028.21 89.1051 1028.21 78.416H1026.21C1026.21 89.6149 1030.06 99.1792 1037.73 107.05L1039.16 105.654ZM1028.21 78.416V78.128H1026.21V78.416H1028.21ZM1028.21 78.128C1028.21 67.4387 1031.86 58.3285 1039.17 50.7416L1037.72 49.3544C1030.05 57.3195 1026.21 66.9293 1026.21 78.128H1028.21ZM1039.16 50.7462C1046.55 43.1723 1055.74 39.384 1066.81 39.384V37.384C1055.23 37.384 1045.51 41.3717 1037.73 49.3498L1039.16 50.7462ZM1066.81 39.384C1078.54 39.384 1088.4 43.6384 1096.47 52.1749L1097.92 50.8011C1089.48 41.8656 1079.09 37.384 1066.81 37.384V39.384ZM1096.47 50.8038L1085.52 62.4678L1086.98 63.8362L1097.93 52.1722L1096.47 50.8038ZM1086.98 62.4615C1080.79 55.9804 1074.02 52.648 1066.67 52.648V54.648C1073.34 54.648 1079.62 57.6516 1085.53 63.8425L1086.98 62.4615ZM1066.67 52.648C1060.14 52.648 1054.64 55.1238 1050.23 60.0359L1051.72 61.3721C1055.75 56.8762 1060.72 54.648 1066.67 54.648V52.648ZM1050.23 60.0359C1045.83 64.9356 1043.64 70.8903 1043.64 77.84H1045.64C1045.64 71.3497 1047.67 65.8804 1051.72 61.3721L1050.23 60.0359ZM1043.64 77.84V78.128H1045.64V77.84H1043.64ZM1043.64 78.128C1043.64 85.1697 1045.83 91.1736 1050.23 96.0761L1051.72 94.7399C1047.67 90.2344 1045.64 84.7183 1045.64 78.128H1043.64ZM1050.24 96.0844C1054.75 101.003 1060.5 103.464 1067.39 103.464V101.464C1061.03 101.464 1055.83 99.2209 1051.71 94.7316L1050.24 96.0844ZM1067.39 103.464C1074.63 103.464 1081.45 100.184 1087.82 93.8111L1086.41 92.3969C1080.3 98.5038 1073.97 101.464 1067.39 101.464V103.464ZM1086.42 93.816L1096.93 104.184L1098.33 102.76L1087.82 92.392L1086.42 93.816ZM1096.88 102.805C1092.83 107.336 1088.45 110.808 1083.78 113.241L1084.7 115.015C1089.62 112.456 1094.18 108.824 1098.37 104.139L1096.88 102.805ZM1083.79 113.234C1079.16 115.546 1073.42 116.728 1066.53 116.728V118.728C1073.64 118.728 1079.71 117.51 1084.68 115.022L1083.79 113.234ZM1113.51 116H1112.51V117H1113.51V116ZM1113.51 39.968V38.968H1112.51V39.968H1113.51ZM1130.93 39.968H1131.93V38.968H1130.93V39.968ZM1130.93 88.64H1129.93V91.6543L1131.74 89.2377L1130.93 88.64ZM1167.22 39.968V38.968H1166.72L1166.42 39.3703L1167.22 39.968ZM1183.78 39.968H1184.78V38.968H1183.78V39.968ZM1183.78 116V117H1184.78V116H1183.78ZM1166.36 116H1165.36V117H1166.36V116ZM1166.36 66.176H1167.36V63.1526L1165.56 65.5797L1166.36 66.176ZM1129.35 116V117H1129.85L1130.15 116.596L1129.35 116ZM1114.51 116V39.968H1112.51V116H1114.51ZM1113.51 40.968H1130.93V38.968H1113.51V40.968ZM1129.93 39.968V88.64H1131.93V39.968H1129.93ZM1131.74 89.2377L1168.02 40.5657L1166.42 39.3703L1130.13 88.0423L1131.74 89.2377ZM1167.22 40.968H1183.78V38.968H1167.22V40.968ZM1182.78 39.968V116H1184.78V39.968H1182.78ZM1183.78 115H1166.36V117H1183.78V115ZM1167.36 116V66.176H1165.36V116H1167.36ZM1165.56 65.5797L1128.55 115.404L1130.15 116.596L1167.16 66.7723L1165.56 65.5797ZM1129.35 115H1113.51V117H1129.35V115ZM1247.53 39.392L1248.45 38.9966L1248.19 38.392H1247.53V39.392ZM1280.51 116V117H1282.03L1281.43 115.605L1280.51 116ZM1261.5 116L1260.57 116.375L1260.82 117H1261.5V116ZM1239.18 60.848L1240.11 60.4729L1239.18 58.197L1238.25 60.4687L1239.18 60.848ZM1216.57 116V117H1217.24L1217.5 116.379L1216.57 116ZM1198.14 116L1197.22 115.605L1196.62 117H1198.14V116ZM1231.12 39.392V38.392H1230.46L1230.2 38.9966L1231.12 39.392ZM1246.61 39.7874L1279.59 116.395L1281.43 115.605L1248.45 38.9966L1246.61 39.7874ZM1280.51 115H1261.5V117H1280.51V115ZM1262.43 115.625L1240.11 60.4729L1238.25 61.2231L1260.57 116.375L1262.43 115.625ZM1238.25 60.4687L1215.65 115.621L1217.5 116.379L1240.1 61.2273L1238.25 60.4687ZM1216.57 115H1198.14V117H1216.57V115ZM1199.06 116.395L1232.03 39.7874L1230.2 38.9966L1197.22 115.605L1199.06 116.395ZM1231.12 40.392H1247.53V38.392H1231.12V40.392ZM1297.09 111.392L1296.47 112.174L1296.47 112.18L1297.09 111.392ZM1297.81 75.536L1297.23 74.7232L1297.22 74.7279L1297.81 75.536ZM1341.3 72.512L1340.99 73.4647L1342.3 73.8804V72.512H1341.3ZM1300.69 58.832L1299.75 59.1601L1300.09 60.1646L1301.08 59.7547L1300.69 58.832ZM1295.94 45.152L1295.55 44.2319L1294.69 44.5978L1294.99 45.4801L1295.94 45.152ZM1349.94 47.456L1349.22 48.1508L1349.23 48.157L1349.23 48.1631L1349.94 47.456ZM1358.15 116V117H1359.15V116H1358.15ZM1341.15 116H1340.15V117H1341.15V116ZM1341.15 106.496H1342.15V103.728L1340.39 105.857L1341.15 106.496ZM1335.83 100.448L1336.44 101.238L1336.45 101.234L1336.45 101.229L1335.83 100.448ZM1341.59 83.456H1342.59V82.7719L1341.95 82.524L1341.59 83.456ZM1311.06 83.744L1310.49 82.9236L1310.48 82.9277L1310.48 82.932L1311.06 83.744ZM1310.63 101.888L1310.02 102.685L1310.03 102.691L1310.04 102.698L1310.63 101.888ZM1316.39 116.584C1309 116.584 1302.79 114.577 1297.71 110.604L1296.47 112.18C1301.95 116.463 1308.61 118.584 1316.39 118.584V116.584ZM1297.71 110.61C1292.8 106.695 1290.31 101.239 1290.31 94.112H1288.31C1288.31 101.769 1291.02 107.833 1296.47 112.174L1297.71 110.61ZM1290.31 94.112V93.824H1288.31V94.112H1290.31ZM1290.31 93.824C1290.31 86.0245 1293.04 80.2537 1298.4 76.3441L1297.22 74.7279C1291.26 79.0743 1288.31 85.4955 1288.31 93.824H1290.31ZM1298.39 76.3488C1303.93 72.379 1311.39 70.344 1320.85 70.344V68.344C1311.11 68.344 1303.21 70.437 1297.23 74.7232L1298.39 76.3488ZM1320.85 70.344C1327.76 70.344 1334.47 71.3843 1340.99 73.4647L1341.6 71.5593C1334.88 69.4157 1327.96 68.344 1320.85 68.344V70.344ZM1342.3 72.512V70.64H1340.3V72.512H1342.3ZM1342.3 70.64C1342.3 64.9296 1340.67 60.4743 1337.24 57.4685C1333.84 54.4845 1328.85 53.08 1322.43 53.08V55.08C1328.6 55.08 1333.03 56.4355 1335.92 58.9715C1338.79 61.4857 1340.3 65.3104 1340.3 70.64H1342.3ZM1322.43 53.08C1315.37 53.08 1307.99 54.6997 1300.31 57.9093L1301.08 59.7547C1308.56 56.6283 1315.68 55.08 1322.43 55.08V53.08ZM1301.64 58.5039L1296.88 44.8239L1294.99 45.4801L1299.75 59.1601L1301.64 58.5039ZM1296.33 46.0721C1305.92 41.9911 1315.38 39.96 1324.74 39.96V37.96C1315.09 37.96 1305.35 40.0569 1295.55 44.2319L1296.33 46.0721ZM1324.74 39.96C1335.92 39.96 1344.01 42.754 1349.22 48.1508L1350.66 46.7612C1344.93 40.83 1336.22 37.96 1324.74 37.96V39.96ZM1349.23 48.1631C1354.46 53.394 1357.15 60.9305 1357.15 70.928H1359.15C1359.15 60.5735 1356.36 52.4619 1350.65 46.7489L1349.23 48.1631ZM1357.15 70.928V116H1359.15V70.928H1357.15ZM1358.15 115H1341.15V117H1358.15V115ZM1342.15 116V106.496H1340.15V116H1342.15ZM1340.39 105.857C1334.45 113 1326.48 116.584 1316.39 116.584V118.584C1327.03 118.584 1335.57 114.776 1341.92 107.135L1340.39 105.857ZM1321.28 105.912C1327.31 105.912 1332.39 104.376 1336.44 101.238L1335.21 99.6576C1331.58 102.472 1326.96 103.912 1321.28 103.912V105.912ZM1336.45 101.229C1340.52 97.9725 1342.59 93.7523 1342.59 88.64H1340.59C1340.59 93.1277 1338.81 96.7795 1335.2 99.6671L1336.45 101.229ZM1342.59 88.64V83.456H1340.59V88.64H1342.59ZM1341.95 82.524C1336.63 80.4573 1330.75 79.432 1324.31 79.432V81.432C1330.54 81.432 1336.17 82.4227 1341.22 84.388L1341.95 82.524ZM1324.31 79.432C1318.53 79.432 1313.88 80.5558 1310.49 82.9236L1311.63 84.5644C1314.57 82.5162 1318.76 81.432 1324.31 81.432V79.432ZM1310.48 82.932C1307.12 85.3419 1305.45 88.7749 1305.45 93.104H1307.45C1307.45 89.3691 1308.85 86.5621 1311.64 84.556L1310.48 82.932ZM1305.45 93.104V93.392H1307.45V93.104H1305.45ZM1305.45 93.392C1305.45 97.2508 1306.98 100.38 1310.02 102.685L1311.23 101.091C1308.7 99.172 1307.45 96.6372 1307.45 93.392H1305.45ZM1310.04 102.698C1313.03 104.866 1316.81 105.912 1321.28 105.912V103.912C1317.12 103.912 1313.79 102.942 1311.21 101.078L1310.04 102.698ZM1422.04 116H1421.04V117H1422.04V116ZM1422.04 39.968V38.968H1421.04V39.968H1422.04ZM1480.07 45.152L1479.48 45.958L1479.49 45.9657L1480.07 45.152ZM1475.18 76.544L1474.8 75.6186L1472.24 76.668L1474.88 77.498L1475.18 76.544ZM1482.23 110.528L1481.67 109.7L1481.67 109.705L1482.23 110.528ZM1439.18 71.504H1438.18V72.504H1439.18V71.504ZM1466.83 68.912L1466.19 68.138L1466.19 68.138L1466.83 68.912ZM1466.83 55.088L1466.19 55.862L1466.19 55.862L1466.83 55.088ZM1457.75 52.64V53.64H1457.77L1457.78 53.6397L1457.75 52.64ZM1439.18 52.64V51.64H1438.18V52.64H1439.18ZM1439.18 83.744V82.744H1438.18V83.744H1439.18ZM1439.18 103.328H1438.18V104.328H1439.18V103.328ZM1469.56 86.336L1468.96 87.1322L1468.97 87.1456L1468.99 87.1582L1469.56 86.336ZM1459.19 83.744V84.744H1459.2L1459.22 84.7438L1459.19 83.744ZM1423.04 116V39.968H1421.04V116H1423.04ZM1422.04 40.968H1460.78V38.968H1422.04V40.968ZM1460.78 40.968C1468.81 40.968 1475.01 42.6694 1479.48 45.9579L1480.67 44.3461C1475.73 40.7226 1469.07 38.968 1460.78 38.968V40.968ZM1479.49 45.9657C1483.91 49.1212 1486.13 53.6049 1486.13 59.552H1488.13C1488.13 53.0191 1485.65 47.9028 1480.66 44.3383L1479.49 45.9657ZM1486.13 59.552V59.696H1488.13V59.552H1486.13ZM1486.13 59.696C1486.13 63.5064 1485.18 66.692 1483.33 69.3054C1481.47 71.9242 1478.65 74.0406 1474.8 75.6186L1475.56 77.4694C1479.67 75.7834 1482.83 73.4598 1484.96 70.4626C1487.09 67.46 1488.13 63.8536 1488.13 59.696H1486.13ZM1474.88 77.498C1479.8 79.0436 1483.39 81.262 1485.75 84.0962C1488.1 86.9165 1489.3 90.4247 1489.3 94.688H1491.3C1491.3 90.0233 1489.98 86.0435 1487.29 82.8158C1484.61 79.602 1480.64 77.2123 1475.48 75.59L1474.88 77.498ZM1489.3 94.688V94.832H1491.3V94.688H1489.3ZM1489.3 94.832C1489.3 101.336 1486.76 106.249 1481.67 109.701L1482.8 111.355C1488.46 107.511 1491.3 101.96 1491.3 94.832H1489.3ZM1481.67 109.705C1476.61 113.201 1469.72 115 1460.92 115V117C1469.98 117 1477.3 115.151 1482.8 111.351L1481.67 109.705ZM1460.92 115H1422.04V117H1460.92V115ZM1439.18 72.504H1457.32V70.504H1439.18V72.504ZM1457.32 72.504C1461.66 72.504 1465.09 71.6214 1467.46 69.686L1466.19 68.138C1464.33 69.6586 1461.44 70.504 1457.32 70.504V72.504ZM1467.46 69.686C1469.83 67.7493 1470.99 65.101 1470.99 61.856H1468.99C1468.99 64.563 1468.05 66.6187 1466.19 68.138L1467.46 69.686ZM1470.99 61.856V61.712H1468.99V61.856H1470.99ZM1470.99 61.712C1470.99 58.7188 1469.8 56.2286 1467.46 54.314L1466.19 55.862C1468.08 57.4034 1468.99 59.3292 1468.99 61.712H1470.99ZM1467.46 54.314C1465.1 52.3796 1461.8 51.541 1457.73 51.6403L1457.78 53.6397C1461.58 53.547 1464.33 54.3404 1466.19 55.862L1467.46 54.314ZM1457.75 51.64H1439.18V53.64H1457.75V51.64ZM1438.18 52.64V71.504H1440.18V52.64H1438.18ZM1438.18 83.744V103.328H1440.18V83.744H1438.18ZM1439.18 104.328H1459.91V102.328H1439.18V104.328ZM1459.91 104.328C1464.47 104.328 1468.06 103.513 1470.54 101.727C1473.08 99.8979 1474.31 97.1555 1474.31 93.68H1472.31C1472.31 96.6365 1471.3 98.7181 1469.37 100.105C1467.39 101.535 1464.29 102.328 1459.91 102.328V104.328ZM1474.31 93.68V93.536H1472.31V93.68H1474.31ZM1474.31 93.536C1474.31 90.1405 1472.9 87.4312 1470.13 85.5138L1468.99 87.1582C1471.22 88.6968 1472.31 90.7875 1472.31 93.536H1474.31ZM1470.17 85.5398C1467.52 83.5259 1463.8 82.6457 1459.17 82.7442L1459.22 84.7438C1463.61 84.6503 1466.81 85.4981 1468.96 87.1322L1470.17 85.5398ZM1459.19 82.744H1439.18V84.744H1459.19V82.744ZM1572.02 116H1571.02V117H1572.02V116ZM1572.02 55.52H1573.02V54.52H1572.02V55.52ZM1544.95 55.52H1543.95V56.52H1544.95V55.52ZM1544.95 39.968V38.968H1543.95V39.968H1544.95ZM1616.52 39.968H1617.52V38.968H1616.52V39.968ZM1616.52 55.52V56.52H1617.52V55.52H1616.52ZM1589.44 55.52V54.52H1588.44V55.52H1589.44ZM1589.44 116V117H1590.44V116H1589.44ZM1573.02 116V55.52H1571.02V116H1573.02ZM1572.02 54.52H1544.95V56.52H1572.02V54.52ZM1545.95 55.52V39.968H1543.95V55.52H1545.95ZM1544.95 40.968H1616.52V38.968H1544.95V40.968ZM1615.52 39.968V55.52H1617.52V39.968H1615.52ZM1616.52 54.52H1589.44V56.52H1616.52V54.52ZM1588.44 55.52V116H1590.44V55.52H1588.44ZM1589.44 115H1572.02V117H1589.44V115ZM1635.11 106.784L1634.41 107.491L1634.42 107.5L1635.11 106.784ZM1634.54 49.904L1635.27 50.5827L1635.28 50.578L1634.54 49.904ZM1687.96 50.192L1687.18 50.8191L1687.19 50.8294L1687.96 50.192ZM1697.32 84.176V85.176H1698.24L1698.32 84.259L1697.32 84.176ZM1641.45 84.176V83.176H1640.28L1640.46 84.3304L1641.45 84.176ZM1648.79 98.432L1649.44 97.6714L1649.44 97.6714L1648.79 98.432ZM1683.93 94.4L1684.59 93.652L1683.91 93.0411L1683.24 93.6766L1683.93 94.4ZM1694.15 103.472L1694.92 104.119L1695.55 103.373L1694.82 102.724L1694.15 103.472ZM1641.31 72.656L1640.31 72.53L1640.17 73.656H1641.31V72.656ZM1680.33 72.656V73.656H1681.43L1681.33 72.5581L1680.33 72.656ZM1647.64 58.112L1646.93 57.4143L1646.92 57.4243L1647.64 58.112ZM1663.05 116.728C1652.16 116.728 1643.1 113.169 1635.81 106.068L1634.42 107.5C1642.1 114.991 1651.67 118.728 1663.05 118.728V116.728ZM1635.82 106.077C1628.64 98.8941 1625.03 89.6551 1625.03 78.272H1623.03C1623.03 90.1209 1626.81 99.8899 1634.41 107.491L1635.82 106.077ZM1625.03 78.272V77.984H1623.03V78.272H1625.03ZM1625.03 77.984C1625.03 67.078 1628.45 57.9667 1635.27 50.5827L1633.8 49.2253C1626.61 57.0093 1623.03 66.618 1623.03 77.984H1625.03ZM1635.28 50.578C1642.09 43.1136 1650.7 39.384 1661.18 39.384V37.384C1650.16 37.384 1641 41.3344 1633.8 49.2299L1635.28 50.578ZM1661.18 39.384C1672.44 39.384 1681.06 43.2177 1687.18 50.819L1688.74 49.565C1682.19 41.4223 1672.95 37.384 1661.18 37.384V39.384ZM1687.19 50.8294C1693.45 58.3994 1696.61 67.8596 1696.61 79.28H1698.61C1698.61 67.4684 1695.33 57.5365 1688.73 49.5546L1687.19 50.8294ZM1696.61 79.28C1696.61 80.1941 1696.52 81.789 1696.33 84.093L1698.32 84.259C1698.51 81.955 1698.61 80.2859 1698.61 79.28H1696.61ZM1697.32 83.176H1641.45V85.176H1697.32V83.176ZM1640.46 84.3304C1641.45 90.6606 1643.99 95.6476 1648.14 99.1926L1649.44 97.6714C1645.72 94.4964 1643.37 89.9794 1642.44 84.0216L1640.46 84.3304ZM1648.14 99.1926C1652.28 102.725 1657.37 104.472 1663.34 104.472V102.472C1657.79 102.472 1653.18 100.859 1649.44 97.6714L1648.14 99.1926ZM1663.34 104.472C1671.03 104.472 1678.13 101.314 1684.62 95.1234L1683.24 93.6766C1677.05 99.5821 1670.43 102.472 1663.34 102.472V104.472ZM1683.27 95.148L1693.49 104.22L1694.82 102.724L1684.59 93.652L1683.27 95.148ZM1693.39 102.825C1685.52 112.101 1675.43 116.728 1663.05 116.728V118.728C1676.01 118.728 1686.66 113.851 1694.92 104.119L1693.39 102.825ZM1641.31 73.656H1680.33V71.656H1641.31V73.656ZM1681.33 72.5581C1680.73 66.5274 1678.7 61.5162 1675.17 57.5881L1673.68 58.9239C1676.88 62.4837 1678.78 67.0726 1679.33 72.7539L1681.33 72.5581ZM1675.17 57.5881C1671.6 53.6088 1666.85 51.64 1661.03 51.64V53.64C1666.35 53.64 1670.53 55.4152 1673.68 58.9239L1675.17 57.5881ZM1661.03 51.64C1655.4 51.64 1650.68 53.5613 1646.93 57.4144L1648.36 58.8096C1651.71 55.3667 1655.91 53.64 1661.03 53.64V51.64ZM1646.92 57.4243C1643.28 61.257 1641.1 66.3172 1640.31 72.53L1642.3 72.782C1643.04 66.8988 1645.09 62.263 1648.37 58.7997L1646.92 57.4243ZM1724.18 107.36L1724.89 106.653L1724.89 106.653L1724.18 107.36ZM1721.73 31.328L1720.92 30.7444L1720.92 30.746L1721.73 31.328ZM1752.84 14.048L1753 15.0349L1753 15.0341L1752.84 14.048ZM1780.2 9.44L1781.18 9.27128L1781.01 8.28825L1780.03 8.45389L1780.2 9.44ZM1782.93 25.424L1783.09 26.4115L1784.09 26.2521L1783.92 25.2553L1782.93 25.424ZM1755.86 29.744L1755.7 28.7565L1755.69 28.7577L1755.69 28.7591L1755.86 29.744ZM1736.28 38.096L1735.59 37.3649L1735.59 37.3726L1736.28 38.096ZM1728.36 55.664L1727.37 55.5278L1726.93 58.7237L1729.1 56.3367L1728.36 55.664ZM1781.78 54.224L1781.06 54.9203L1781.07 54.9258L1781.78 54.224ZM1780.05 106.784L1779.35 106.068L1779.35 106.072L1780.05 106.784ZM1767.67 96.272L1766.95 95.5807L1766.94 95.5891L1767.67 96.272ZM1768.1 63.728L1767.38 64.4177L1767.38 64.4265L1768.1 63.728ZM1735.7 64.016L1734.99 63.3089L1734.99 63.3089L1735.7 64.016ZM1751.25 116.728C1740.34 116.728 1731.59 113.351 1724.89 106.653L1723.47 108.067C1730.6 115.193 1739.89 118.728 1751.25 118.728V116.728ZM1724.89 106.653C1716.98 98.7415 1712.94 87.0358 1712.94 71.36H1710.94C1710.94 87.3642 1715.06 99.6585 1723.47 108.067L1724.89 106.653ZM1712.94 71.36V71.216H1710.94V71.36H1712.94ZM1712.94 71.216C1712.94 53.8443 1716.19 40.7894 1722.55 31.91L1720.92 30.746C1714.22 40.1066 1710.94 53.6437 1710.94 71.216H1712.94ZM1722.54 31.9116C1728.98 22.9637 1739.08 17.3079 1753 15.0349L1752.67 13.0611C1738.37 15.3961 1727.74 21.2603 1720.92 30.7444L1722.54 31.9116ZM1753 15.0341L1780.36 10.4261L1780.03 8.45389L1752.67 13.0619L1753 15.0341ZM1779.21 9.60872L1781.95 25.5927L1783.92 25.2553L1781.18 9.27128L1779.21 9.60872ZM1782.77 24.4365L1755.7 28.7565L1756.02 30.7315L1783.09 26.4115L1782.77 24.4365ZM1755.69 28.7591C1746.85 30.3129 1740.11 33.1501 1735.59 37.3649L1736.96 38.8271C1741.08 34.9779 1747.4 32.2471 1756.03 30.7289L1755.69 28.7591ZM1735.59 37.3726C1731.15 41.6053 1728.44 47.6973 1727.37 55.5278L1729.35 55.8002C1730.38 48.2707 1732.95 42.6507 1736.97 38.8194L1735.59 37.3726ZM1729.1 56.3367C1735.59 49.1895 1744.52 45.576 1756 45.576V43.576C1744.06 43.576 1734.56 47.3545 1727.62 54.9913L1729.1 56.3367ZM1756 45.576C1766.74 45.576 1775.05 48.724 1781.06 54.9203L1782.5 53.5277C1776.03 46.86 1767.15 43.576 1756 43.576V45.576ZM1781.07 54.9258C1787.19 61.1445 1790.28 69.2314 1790.28 79.28H1792.28C1792.28 68.7846 1789.04 60.1675 1782.49 53.5222L1781.07 54.9258ZM1790.28 79.28V79.424H1792.28V79.28H1790.28ZM1790.28 79.424C1790.28 90.1124 1786.64 98.9696 1779.35 106.068L1780.75 107.5C1788.44 100.006 1792.28 90.6236 1792.28 79.424H1790.28ZM1779.35 106.072C1772.17 113.158 1762.84 116.728 1751.25 116.728V118.728C1763.28 118.728 1773.15 115.002 1780.75 107.496L1779.35 106.072ZM1751.54 103.896C1758.41 103.896 1764.06 101.594 1768.4 96.9549L1766.94 95.5891C1763.02 99.7822 1757.92 101.896 1751.54 101.896V103.896ZM1768.39 96.9632C1772.81 92.3418 1775 86.5175 1775 79.568H1773C1773 86.0585 1770.97 91.3702 1766.95 95.5808L1768.39 96.9632ZM1775 79.568V79.424H1773V79.568H1775ZM1775 79.424C1775 72.771 1772.96 67.2751 1768.82 63.0295L1767.38 64.4265C1771.11 68.2449 1773 73.213 1773 79.424H1775ZM1768.82 63.0383C1764.76 58.7739 1759.3 56.68 1752.55 56.68V58.68C1758.85 58.68 1763.76 60.6181 1767.38 64.4177L1768.82 63.0383ZM1752.55 56.68C1745.32 56.68 1739.44 58.865 1734.99 63.3089L1736.41 64.7231C1740.41 60.719 1745.76 58.68 1752.55 58.68V56.68ZM1734.99 63.3089C1730.56 67.7388 1728.36 73.3779 1728.36 80.144H1730.36C1730.36 73.8541 1732.39 68.7412 1736.41 64.7231L1734.99 63.3089ZM1728.36 80.144V80.288H1730.36V80.144H1728.36ZM1728.36 80.288C1728.36 87.1387 1730.51 92.8248 1734.84 97.2589L1736.27 95.8611C1732.35 91.8472 1730.36 86.6853 1730.36 80.288H1728.36ZM1734.84 97.2589C1739.18 101.697 1744.77 103.896 1751.54 103.896V101.896C1745.25 101.896 1740.19 99.8713 1736.27 95.8611L1734.84 97.2589ZM1816.1 106.784L1815.39 107.491L1815.4 107.5L1816.1 106.784ZM1815.52 49.904L1816.26 50.5827L1816.26 50.578L1815.52 49.904ZM1868.95 50.192L1868.17 50.8191L1868.18 50.8294L1868.95 50.192ZM1878.31 84.176V85.176H1879.23L1879.3 84.259L1878.31 84.176ZM1822.43 84.176V83.176H1821.27L1821.45 84.3304L1822.43 84.176ZM1829.78 98.432L1830.43 97.6714L1830.43 97.6714L1829.78 98.432ZM1864.91 94.4L1865.58 93.652L1864.89 93.0411L1864.22 93.6766L1864.91 94.4ZM1875.14 103.472L1875.9 104.119L1876.53 103.373L1875.8 102.724L1875.14 103.472ZM1822.29 72.656L1821.3 72.53L1821.16 73.656H1822.29V72.656ZM1861.31 72.656V73.656H1862.42L1862.31 72.5581L1861.31 72.656ZM1828.63 58.112L1827.91 57.4143L1827.9 57.4243L1828.63 58.112ZM1844.03 116.728C1833.14 116.728 1824.08 113.169 1816.8 106.068L1815.4 107.5C1823.09 114.991 1832.66 118.728 1844.03 118.728V116.728ZM1816.81 106.077C1809.62 98.8941 1806.01 89.6551 1806.01 78.272H1804.01C1804.01 90.1209 1807.79 99.8899 1815.39 107.491L1816.81 106.077ZM1806.01 78.272V77.984H1804.01V78.272H1806.01ZM1806.01 77.984C1806.01 67.078 1809.43 57.9667 1816.26 50.5827L1814.79 49.2253C1807.59 57.0093 1804.01 66.618 1804.01 77.984H1806.01ZM1816.26 50.578C1823.07 43.1136 1831.68 39.384 1842.16 39.384V37.384C1831.14 37.384 1821.99 41.3344 1814.78 49.2299L1816.26 50.578ZM1842.16 39.384C1853.43 39.384 1862.05 43.2177 1868.17 50.819L1869.73 49.565C1863.17 41.4223 1853.94 37.384 1842.16 37.384V39.384ZM1868.18 50.8294C1874.44 58.3994 1877.59 67.8596 1877.59 79.28H1879.59C1879.59 67.4684 1876.32 57.5365 1869.72 49.5546L1868.18 50.8294ZM1877.59 79.28C1877.59 80.1941 1877.5 81.789 1877.31 84.093L1879.3 84.259C1879.49 81.955 1879.59 80.2859 1879.59 79.28H1877.59ZM1878.31 83.176H1822.43V85.176H1878.31V83.176ZM1821.45 84.3304C1822.44 90.6606 1824.98 95.6476 1829.13 99.1926L1830.43 97.6714C1826.71 94.4964 1824.35 89.9794 1823.42 84.0216L1821.45 84.3304ZM1829.13 99.1926C1833.27 102.725 1838.35 104.472 1844.32 104.472V102.472C1838.77 102.472 1834.16 100.859 1830.43 97.6714L1829.13 99.1926ZM1844.32 104.472C1852.02 104.472 1859.12 101.314 1865.6 95.1234L1864.22 93.6766C1858.04 99.5821 1851.41 102.472 1844.32 102.472V104.472ZM1864.25 95.148L1874.47 104.22L1875.8 102.724L1865.58 93.652L1864.25 95.148ZM1874.38 102.825C1866.51 112.101 1856.42 116.728 1844.03 116.728V118.728C1856.99 118.728 1867.64 113.851 1875.9 104.119L1874.38 102.825ZM1822.29 73.656H1861.31V71.656H1822.29V73.656ZM1862.31 72.5581C1861.72 66.5274 1859.68 61.5162 1856.15 57.5881L1854.67 58.9239C1857.86 62.4837 1859.76 67.0726 1860.32 72.7539L1862.31 72.5581ZM1856.15 57.5881C1852.58 53.6088 1847.84 51.64 1842.02 51.64V53.64C1847.34 53.64 1851.52 55.4152 1854.67 58.9239L1856.15 57.5881ZM1842.02 51.64C1836.39 51.64 1831.66 53.5613 1827.91 57.4144L1829.34 58.8096C1832.69 55.3667 1836.9 53.64 1842.02 53.64V51.64ZM1827.9 57.4243C1824.27 61.257 1822.09 66.3172 1821.3 72.53L1823.28 72.782C1824.03 66.8988 1826.07 62.263 1829.35 58.7997L1827.9 57.4243ZM1924.72 134.432L1923.82 133.993L1923.12 135.432H1924.72V134.432ZM1989.81 1.08799V0.0879946H1989.18L1988.91 0.649342L1989.81 1.08799ZM2004.93 1.08799L2005.83 1.52665L2006.53 0.0879946H2004.93V1.08799ZM1939.84 134.432V135.432H1940.46L1940.74 134.871L1939.84 134.432ZM1925.62 134.871L1990.71 1.52665L1988.91 0.649342L1923.82 133.993L1925.62 134.871ZM1989.81 2.08799H2004.93V0.0879946H1989.81V2.08799ZM2004.03 0.649342L1938.94 133.993L1940.74 134.871L2005.83 1.52665L2004.03 0.649342ZM1939.84 133.432H1924.72V135.432H1939.84V133.432ZM2064.59 106.352L2063.87 107.05L2063.87 107.055L2064.59 106.352ZM2064.59 50.048L2063.87 49.3498L2063.87 49.3544L2064.59 50.048ZM2123.34 51.488L2124.07 52.1722L2124.71 51.4855L2124.06 50.8011L2123.34 51.488ZM2112.39 63.152L2111.67 63.8425L2112.4 64.6068L2113.12 63.8362L2112.39 63.152ZM2077.11 60.704L2077.86 61.3721L2077.86 61.3721L2077.11 60.704ZM2077.11 95.408L2076.37 96.0762L2076.38 96.0844L2077.11 95.408ZM2113.26 93.104L2113.96 92.392L2113.25 91.6946L2112.55 92.3969L2113.26 93.104ZM2123.77 103.472L2124.51 104.139L2125.15 103.429L2124.47 102.76L2123.77 103.472ZM2110.38 114.128L2110.83 115.022L2110.83 115.019L2110.84 115.015L2110.38 114.128ZM2092.67 116.728C2081.69 116.728 2072.59 113.032 2065.3 105.649L2063.87 107.055C2071.56 114.84 2081.18 118.728 2092.67 118.728V116.728ZM2065.3 105.654C2058 98.1648 2054.35 89.1051 2054.35 78.416H2052.35C2052.35 89.6149 2056.2 99.1792 2063.87 107.05L2065.3 105.654ZM2054.35 78.416V78.128H2052.35V78.416H2054.35ZM2054.35 78.128C2054.35 67.4387 2058 58.3285 2065.31 50.7416L2063.87 49.3544C2056.2 57.3195 2052.35 66.9293 2052.35 78.128H2054.35ZM2065.3 50.7462C2072.69 43.1723 2081.88 39.384 2092.95 39.384V37.384C2081.37 37.384 2071.65 41.3717 2063.87 49.3498L2065.3 50.7462ZM2092.95 39.384C2104.68 39.384 2114.54 43.6384 2122.61 52.1749L2124.06 50.8011C2115.62 41.8656 2105.23 37.384 2092.95 37.384V39.384ZM2122.61 50.8038L2111.66 62.4678L2113.12 63.8362L2124.07 52.1722L2122.61 50.8038ZM2113.12 62.4615C2106.93 55.9804 2100.16 52.648 2092.81 52.648V54.648C2099.48 54.648 2105.76 57.6516 2111.67 63.8425L2113.12 62.4615ZM2092.81 52.648C2086.28 52.648 2080.78 55.1238 2076.37 60.0359L2077.86 61.3721C2081.9 56.8762 2086.86 54.648 2092.81 54.648V52.648ZM2076.37 60.0359C2071.97 64.9356 2069.78 70.8903 2069.78 77.84H2071.78C2071.78 71.3497 2073.81 65.8804 2077.86 61.3721L2076.37 60.0359ZM2069.78 77.84V78.128H2071.78V77.84H2069.78ZM2069.78 78.128C2069.78 85.1697 2071.97 91.1736 2076.37 96.0761L2077.86 94.7399C2073.81 90.2344 2071.78 84.7183 2071.78 78.128H2069.78ZM2076.38 96.0844C2080.89 101.003 2086.64 103.464 2093.53 103.464V101.464C2087.17 101.464 2081.97 99.2209 2077.85 94.7316L2076.38 96.0844ZM2093.53 103.464C2100.78 103.464 2107.59 100.184 2113.97 93.8111L2112.55 92.3969C2106.44 98.5038 2100.11 101.464 2093.53 101.464V103.464ZM2112.56 93.816L2123.07 104.184L2124.47 102.76L2113.96 92.392L2112.56 93.816ZM2123.03 102.805C2118.97 107.336 2114.6 110.808 2109.92 113.241L2110.84 115.015C2115.76 112.456 2120.32 108.824 2124.51 104.139L2123.03 102.805ZM2109.93 113.234C2105.31 115.546 2099.56 116.728 2092.67 116.728V118.728C2099.78 118.728 2105.85 117.51 2110.83 115.022L2109.93 113.234ZM2139.65 116H2138.65V117H2139.65V116ZM2139.65 39.968V38.968H2138.65V39.968H2139.65ZM2157.08 39.968H2158.08V38.968H2157.08V39.968ZM2157.08 88.64H2156.08V91.6543L2157.88 89.2377L2157.08 88.64ZM2193.36 39.968V38.968H2192.86L2192.56 39.3703L2193.36 39.968ZM2209.92 39.968H2210.92V38.968H2209.92V39.968ZM2209.92 116V117H2210.92V116H2209.92ZM2192.5 116H2191.5V117H2192.5V116ZM2192.5 66.176H2193.5V63.1526L2191.7 65.5797L2192.5 66.176ZM2155.49 116V117H2155.99L2156.29 116.596L2155.49 116ZM2140.65 116V39.968H2138.65V116H2140.65ZM2139.65 40.968H2157.08V38.968H2139.65V40.968ZM2156.08 39.968V88.64H2158.08V39.968H2156.08ZM2157.88 89.2377L2194.17 40.5657L2192.56 39.3703L2156.27 88.0423L2157.88 89.2377ZM2193.36 40.968H2209.92V38.968H2193.36V40.968ZM2208.92 39.968V116H2210.92V39.968H2208.92ZM2209.92 115H2192.5V117H2209.92V115ZM2193.5 116V66.176H2191.5V116H2193.5ZM2191.7 65.5797L2154.69 115.404L2156.29 116.596L2193.3 66.7723L2191.7 65.5797ZM2155.49 115H2139.65V117H2155.49V115ZM2273.67 39.392L2274.59 38.9966L2274.33 38.392H2273.67V39.392ZM2306.65 116V117H2308.17L2307.57 115.605L2306.65 116ZM2287.64 116L2286.71 116.375L2286.97 117H2287.64V116ZM2265.32 60.848L2266.25 60.4729L2265.33 58.197L2264.39 60.4687L2265.32 60.848ZM2242.71 116V117H2243.38L2243.64 116.379L2242.71 116ZM2224.28 116L2223.36 115.605L2222.76 117H2224.28V116ZM2257.26 39.392V38.392H2256.6L2256.34 38.9966L2257.26 39.392ZM2272.75 39.7874L2305.73 116.395L2307.57 115.605L2274.59 38.9966L2272.75 39.7874ZM2306.65 115H2287.64V117H2306.65V115ZM2288.57 115.625L2266.25 60.4729L2264.39 61.2231L2286.71 116.375L2288.57 115.625ZM2264.39 60.4687L2241.79 115.621L2243.64 116.379L2266.24 61.2273L2264.39 60.4687ZM2242.71 115H2224.28V117H2242.71V115ZM2225.2 116.395L2258.17 39.7874L2256.34 38.9966L2223.36 115.605L2225.2 116.395ZM2257.26 40.392H2273.67V38.392H2257.26V40.392ZM2323.23 111.392L2322.61 112.174L2322.62 112.18L2323.23 111.392ZM2323.95 75.536L2323.37 74.7232L2323.36 74.7279L2323.95 75.536ZM2367.44 72.512L2367.14 73.4647L2368.44 73.8804V72.512H2367.44ZM2326.83 58.832L2325.89 59.1601L2326.24 60.1646L2327.22 59.7547L2326.83 58.832ZM2322.08 45.152L2321.69 44.2319L2320.83 44.5978L2321.13 45.4801L2322.08 45.152ZM2376.08 47.456L2375.36 48.1508L2375.37 48.157L2375.37 48.1631L2376.08 47.456ZM2384.29 116V117H2385.29V116H2384.29ZM2367.3 116H2366.3V117H2367.3V116ZM2367.3 106.496H2368.3V103.728L2366.53 105.857L2367.3 106.496ZM2361.97 100.448L2362.58 101.238L2362.59 101.234L2362.59 101.229L2361.97 100.448ZM2367.73 83.456H2368.73V82.7719L2368.09 82.524L2367.73 83.456ZM2337.2 83.744L2336.63 82.9236L2336.62 82.9277L2336.62 82.932L2337.2 83.744ZM2336.77 101.888L2336.16 102.685L2336.17 102.691L2336.18 102.698L2336.77 101.888ZM2342.53 116.584C2335.14 116.584 2328.93 114.577 2323.85 110.604L2322.62 112.18C2328.09 116.463 2334.75 118.584 2342.53 118.584V116.584ZM2323.85 110.61C2318.94 106.695 2316.46 101.239 2316.46 94.112H2314.46C2314.46 101.769 2317.16 107.833 2322.61 112.174L2323.85 110.61ZM2316.46 94.112V93.824H2314.46V94.112H2316.46ZM2316.46 93.824C2316.46 86.0245 2319.18 80.2537 2324.54 76.3441L2323.36 74.7279C2317.4 79.0743 2314.46 85.4955 2314.46 93.824H2316.46ZM2324.53 76.3488C2330.07 72.379 2337.53 70.344 2346.99 70.344V68.344C2337.26 68.344 2329.35 70.437 2323.37 74.7232L2324.53 76.3488ZM2346.99 70.344C2353.9 70.344 2360.61 71.3843 2367.14 73.4647L2367.74 71.5593C2361.02 69.4157 2354.1 68.344 2346.99 68.344V70.344ZM2368.44 72.512V70.64H2366.44V72.512H2368.44ZM2368.44 70.64C2368.44 64.9296 2366.81 60.4743 2363.38 57.4685C2359.98 54.4845 2354.99 53.08 2348.58 53.08V55.08C2354.74 55.08 2359.17 56.4355 2362.06 58.9715C2364.93 61.4857 2366.44 65.3104 2366.44 70.64H2368.44ZM2348.58 53.08C2341.51 53.08 2334.13 54.6997 2326.45 57.9093L2327.22 59.7547C2334.7 56.6283 2341.82 55.08 2348.58 55.08V53.08ZM2327.78 58.5039L2323.02 44.8239L2321.13 45.4801L2325.89 59.1601L2327.78 58.5039ZM2322.47 46.0721C2332.06 41.9911 2341.52 39.96 2350.88 39.96V37.96C2341.23 37.96 2331.49 40.0569 2321.69 44.2319L2322.47 46.0721ZM2350.88 39.96C2362.06 39.96 2370.15 42.754 2375.36 48.1508L2376.8 46.7612C2371.07 40.83 2362.36 37.96 2350.88 37.96V39.96ZM2375.37 48.1631C2380.6 53.394 2383.29 60.9305 2383.29 70.928H2385.29C2385.29 60.5735 2382.5 52.4619 2376.79 46.7489L2375.37 48.1631ZM2383.29 70.928V116H2385.29V70.928H2383.29ZM2384.29 115H2367.3V117H2384.29V115ZM2368.3 116V106.496H2366.3V116H2368.3ZM2366.53 105.857C2360.59 113 2352.62 116.584 2342.53 116.584V118.584C2353.17 118.584 2361.71 114.776 2368.06 107.135L2366.53 105.857ZM2347.42 105.912C2353.45 105.912 2358.53 104.376 2362.58 101.238L2361.35 99.6576C2357.72 102.472 2353.1 103.912 2347.42 103.912V105.912ZM2362.59 101.229C2366.66 97.9725 2368.73 93.7523 2368.73 88.64H2366.73C2366.73 93.1277 2364.95 96.7795 2361.34 99.6671L2362.59 101.229ZM2368.73 88.64V83.456H2366.73V88.64H2368.73ZM2368.09 82.524C2362.78 80.4573 2356.89 79.432 2350.45 79.432V81.432C2356.68 81.432 2362.31 82.4227 2367.36 84.388L2368.09 82.524ZM2350.45 79.432C2344.67 79.432 2340.02 80.5558 2336.63 82.9236L2337.77 84.5644C2340.71 82.5162 2344.9 81.432 2350.45 81.432V79.432ZM2336.62 82.932C2333.26 85.3419 2331.59 88.7749 2331.59 93.104H2333.59C2333.59 89.3691 2334.99 86.5621 2337.78 84.556L2336.62 82.932ZM2331.59 93.104V93.392H2333.59V93.104H2331.59ZM2331.59 93.392C2331.59 97.2508 2333.12 100.38 2336.16 102.685L2337.37 101.091C2334.84 99.172 2333.59 96.6372 2333.59 93.392H2331.59ZM2336.18 102.698C2339.17 104.866 2342.95 105.912 2347.42 105.912V103.912C2343.26 103.912 2339.93 102.942 2337.35 101.078L2336.18 102.698ZM2448.18 116H2447.18V117H2448.18V116ZM2448.18 39.968V38.968H2447.18V39.968H2448.18ZM2506.21 45.152L2505.62 45.958L2505.63 45.9657L2506.21 45.152ZM2501.32 76.544L2500.94 75.6186L2498.38 76.668L2501.02 77.498L2501.32 76.544ZM2508.37 110.528L2507.81 109.7L2507.81 109.705L2508.37 110.528ZM2465.32 71.504H2464.32V72.504H2465.32V71.504ZM2492.97 68.912L2492.33 68.138L2492.33 68.138L2492.97 68.912ZM2492.97 55.088L2492.33 55.862L2492.33 55.862L2492.97 55.088ZM2483.89 52.64V53.64H2483.91L2483.92 53.6397L2483.89 52.64ZM2465.32 52.64V51.64H2464.32V52.64H2465.32ZM2465.32 83.744V82.744H2464.32V83.744H2465.32ZM2465.32 103.328H2464.32V104.328H2465.32V103.328ZM2495.7 86.336L2495.1 87.1322L2495.12 87.1456L2495.13 87.1582L2495.7 86.336ZM2485.33 83.744V84.744H2485.35L2485.36 84.7438L2485.33 83.744ZM2449.18 116V39.968H2447.18V116H2449.18ZM2448.18 40.968H2486.92V38.968H2448.18V40.968ZM2486.92 40.968C2494.95 40.968 2501.15 42.6694 2505.62 45.9579L2506.81 44.3461C2501.87 40.7226 2495.21 38.968 2486.92 38.968V40.968ZM2505.63 45.9657C2510.05 49.1212 2512.27 53.6049 2512.27 59.552H2514.27C2514.27 53.0191 2511.79 47.9028 2506.8 44.3383L2505.63 45.9657ZM2512.27 59.552V59.696H2514.27V59.552H2512.27ZM2512.27 59.696C2512.27 63.5064 2511.32 66.692 2509.47 69.3054C2507.61 71.9242 2504.79 74.0406 2500.94 75.6186L2501.7 77.4694C2505.81 75.7834 2508.97 73.4598 2511.1 70.4626C2513.23 67.46 2514.27 63.8536 2514.27 59.696H2512.27ZM2501.02 77.498C2505.94 79.0436 2509.53 81.262 2511.89 84.0962C2514.24 86.9165 2515.44 90.4247 2515.44 94.688H2517.44C2517.44 90.0233 2516.12 86.0435 2513.43 82.8158C2510.75 79.602 2506.78 77.2123 2501.62 75.59L2501.02 77.498ZM2515.44 94.688V94.832H2517.44V94.688H2515.44ZM2515.44 94.832C2515.44 101.336 2512.9 106.249 2507.81 109.701L2508.94 111.355C2514.6 107.511 2517.44 101.96 2517.44 94.832H2515.44ZM2507.81 109.705C2502.75 113.201 2495.86 115 2487.06 115V117C2496.12 117 2503.44 115.151 2508.94 111.351L2507.81 109.705ZM2487.06 115H2448.18V117H2487.06V115ZM2465.32 72.504H2483.46V70.504H2465.32V72.504ZM2483.46 72.504C2487.8 72.504 2491.23 71.6214 2493.6 69.686L2492.33 68.138C2490.48 69.6586 2487.58 70.504 2483.46 70.504V72.504ZM2493.6 69.686C2495.97 67.7493 2497.13 65.101 2497.13 61.856H2495.13C2495.13 64.563 2494.19 66.6187 2492.33 68.138L2493.6 69.686ZM2497.13 61.856V61.712H2495.13V61.856H2497.13ZM2497.13 61.712C2497.13 58.7188 2495.94 56.2286 2493.6 54.314L2492.33 55.862C2494.22 57.4034 2495.13 59.3292 2495.13 61.712H2497.13ZM2493.6 54.314C2491.24 52.3796 2487.94 51.541 2483.87 51.6403L2483.92 53.6397C2487.72 53.547 2490.47 54.3404 2492.33 55.862L2493.6 54.314ZM2483.89 51.64H2465.32V53.64H2483.89V51.64ZM2464.32 52.64V71.504H2466.32V52.64H2464.32ZM2464.32 83.744V103.328H2466.32V83.744H2464.32ZM2465.32 104.328H2486.05V102.328H2465.32V104.328ZM2486.05 104.328C2490.61 104.328 2494.2 103.513 2496.68 101.727C2499.22 99.8979 2500.45 97.1555 2500.45 93.68H2498.45C2498.45 96.6365 2497.44 98.7181 2495.51 100.105C2493.53 101.535 2490.43 102.328 2486.05 102.328V104.328ZM2500.45 93.68V93.536H2498.45V93.68H2500.45ZM2500.45 93.536C2500.45 90.1405 2499.04 87.4312 2496.27 85.5138L2495.13 87.1582C2497.36 88.6968 2498.45 90.7875 2498.45 93.536H2500.45ZM2496.31 85.5398C2493.66 83.5259 2489.94 82.6457 2485.31 82.7442L2485.36 84.7438C2489.75 84.6503 2492.95 85.4981 2495.1 87.1322L2496.31 85.5398ZM2485.33 82.744H2465.32V84.744H2485.33V82.744ZM2598.16 116H2597.16V117H2598.16V116ZM2598.16 55.52H2599.16V54.52H2598.16V55.52ZM2571.09 55.52H2570.09V56.52H2571.09V55.52ZM2571.09 39.968V38.968H2570.09V39.968H2571.09ZM2642.66 39.968H2643.66V38.968H2642.66V39.968ZM2642.66 55.52V56.52H2643.66V55.52H2642.66ZM2615.58 55.52V54.52H2614.58V55.52H2615.58ZM2615.58 116V117H2616.58V116H2615.58ZM2599.16 116V55.52H2597.16V116H2599.16ZM2598.16 54.52H2571.09V56.52H2598.16V54.52ZM2572.09 55.52V39.968H2570.09V55.52H2572.09ZM2571.09 40.968H2642.66V38.968H2571.09V40.968ZM2641.66 39.968V55.52H2643.66V39.968H2641.66ZM2642.66 54.52H2615.58V56.52H2642.66V54.52ZM2614.58 55.52V116H2616.58V55.52H2614.58ZM2615.58 115H2598.16V117H2615.58V115ZM2661.25 106.784L2660.55 107.491L2660.56 107.5L2661.25 106.784ZM2660.68 49.904L2661.41 50.5827L2661.42 50.578L2660.68 49.904ZM2714.1 50.192L2713.32 50.8191L2713.33 50.8294L2714.1 50.192ZM2723.46 84.176V85.176H2724.38L2724.46 84.259L2723.46 84.176ZM2667.59 84.176V83.176H2666.42L2666.6 84.3304L2667.59 84.176ZM2674.93 98.432L2675.58 97.6714L2675.58 97.6714L2674.93 98.432ZM2710.07 94.4L2710.73 93.652L2710.05 93.0411L2709.38 93.6766L2710.07 94.4ZM2720.29 103.472L2721.06 104.119L2721.69 103.373L2720.96 102.724L2720.29 103.472ZM2667.45 72.656L2666.45 72.53L2666.31 73.656H2667.45V72.656ZM2706.47 72.656V73.656H2707.57L2707.47 72.5581L2706.47 72.656ZM2673.78 58.112L2673.07 57.4143L2673.06 57.4243L2673.78 58.112ZM2689.19 116.728C2678.3 116.728 2669.24 113.169 2661.95 106.068L2660.56 107.5C2668.24 114.991 2677.81 118.728 2689.19 118.728V116.728ZM2661.96 106.077C2654.78 98.8941 2651.17 89.6551 2651.17 78.272H2649.17C2649.17 90.1209 2652.95 99.8899 2660.55 107.491L2661.96 106.077ZM2651.17 78.272V77.984H2649.17V78.272H2651.17ZM2651.17 77.984C2651.17 67.078 2654.59 57.9667 2661.41 50.5827L2659.94 49.2253C2652.75 57.0093 2649.17 66.618 2649.17 77.984H2651.17ZM2661.42 50.578C2668.23 43.1136 2676.84 39.384 2687.32 39.384V37.384C2676.3 37.384 2667.14 41.3344 2659.94 49.2299L2661.42 50.578ZM2687.32 39.384C2698.58 39.384 2707.21 43.2177 2713.32 50.819L2714.88 49.565C2708.33 41.4223 2699.09 37.384 2687.32 37.384V39.384ZM2713.33 50.8294C2719.59 58.3994 2722.75 67.8596 2722.75 79.28H2724.75C2724.75 67.4684 2721.48 57.5365 2714.87 49.5546L2713.33 50.8294ZM2722.75 79.28C2722.75 80.1941 2722.66 81.789 2722.47 84.093L2724.46 84.259C2724.65 81.955 2724.75 80.2859 2724.75 79.28H2722.75ZM2723.46 83.176H2667.59V85.176H2723.46V83.176ZM2666.6 84.3304C2667.59 90.6606 2670.13 95.6476 2674.29 99.1926L2675.58 97.6714C2671.86 94.4964 2669.51 89.9794 2668.58 84.0216L2666.6 84.3304ZM2674.29 99.1926C2678.42 102.725 2683.51 104.472 2689.48 104.472V102.472C2683.93 102.472 2679.32 100.859 2675.58 97.6714L2674.29 99.1926ZM2689.48 104.472C2697.17 104.472 2704.28 101.314 2710.76 95.1234L2709.38 93.6766C2703.19 99.5821 2696.57 102.472 2689.48 102.472V104.472ZM2709.41 95.148L2719.63 104.22L2720.96 102.724L2710.73 93.652L2709.41 95.148ZM2719.53 102.825C2711.66 112.101 2701.57 116.728 2689.19 116.728V118.728C2702.15 118.728 2712.8 113.851 2721.06 104.119L2719.53 102.825ZM2667.45 73.656H2706.47V71.656H2667.45V73.656ZM2707.47 72.5581C2706.87 66.5274 2704.84 61.5162 2701.31 57.5881L2699.82 58.9239C2703.02 62.4837 2704.92 67.0726 2705.48 72.7539L2707.47 72.5581ZM2701.31 57.5881C2697.74 53.6088 2692.99 51.64 2687.17 51.64V53.64C2692.49 53.64 2696.67 55.4152 2699.82 58.9239L2701.31 57.5881ZM2687.17 51.64C2681.55 51.64 2676.82 53.5613 2673.07 57.4144L2674.5 58.8096C2677.85 55.3667 2682.05 53.64 2687.17 53.64V51.64ZM2673.06 57.4243C2669.43 61.257 2667.24 66.3172 2666.45 72.53L2668.44 72.782C2669.19 66.8988 2671.23 62.263 2674.51 58.7997L2673.06 57.4243ZM2750.32 107.36L2751.03 106.653L2751.03 106.653L2750.32 107.36ZM2747.87 31.328L2747.06 30.7444L2747.06 30.746L2747.87 31.328ZM2778.98 14.048L2779.14 15.0349L2779.14 15.0341L2778.98 14.048ZM2806.34 9.44L2807.32 9.27128L2807.15 8.28825L2806.17 8.45389L2806.34 9.44ZM2809.07 25.424L2809.23 26.4115L2810.23 26.2521L2810.06 25.2553L2809.07 25.424ZM2782 29.744L2781.84 28.7565L2781.84 28.7577L2781.83 28.7591L2782 29.744ZM2762.42 38.096L2761.73 37.3649L2761.73 37.3726L2762.42 38.096ZM2754.5 55.664L2753.51 55.5278L2753.07 58.7237L2755.24 56.3367L2754.5 55.664ZM2807.92 54.224L2807.2 54.9203L2807.21 54.9258L2807.92 54.224ZM2806.19 106.784L2805.49 106.068L2805.49 106.072L2806.19 106.784ZM2793.81 96.272L2793.09 95.5807L2793.08 95.5891L2793.81 96.272ZM2794.24 63.728L2793.52 64.4177L2793.53 64.4265L2794.24 63.728ZM2761.84 64.016L2761.13 63.3089L2761.13 63.3089L2761.84 64.016ZM2777.39 116.728C2766.48 116.728 2757.73 113.351 2751.03 106.653L2749.61 108.067C2756.74 115.193 2766.03 118.728 2777.39 118.728V116.728ZM2751.03 106.653C2743.12 98.7415 2739.08 87.0358 2739.08 71.36H2737.08C2737.08 87.3642 2741.2 99.6585 2749.61 108.067L2751.03 106.653ZM2739.08 71.36V71.216H2737.08V71.36H2739.08ZM2739.08 71.216C2739.08 53.8443 2742.33 40.7894 2748.69 31.91L2747.06 30.746C2740.36 40.1066 2737.08 53.6437 2737.08 71.216H2739.08ZM2748.68 31.9116C2755.12 22.9637 2765.22 17.3079 2779.14 15.0349L2778.82 13.0611C2764.51 15.3961 2753.88 21.2603 2747.06 30.7444L2748.68 31.9116ZM2779.14 15.0341L2806.5 10.4261L2806.17 8.45389L2778.81 13.0619L2779.14 15.0341ZM2805.35 9.60872L2808.09 25.5927L2810.06 25.2553L2807.32 9.27128L2805.35 9.60872ZM2808.92 24.4365L2781.84 28.7565L2782.16 30.7315L2809.23 26.4115L2808.92 24.4365ZM2781.83 28.7591C2772.99 30.3129 2766.25 33.1501 2761.73 37.3649L2763.1 38.8271C2767.22 34.9779 2773.54 32.2471 2782.17 30.7289L2781.83 28.7591ZM2761.73 37.3726C2757.29 41.6053 2754.58 47.6973 2753.51 55.5278L2755.49 55.8002C2756.52 48.2707 2759.09 42.6507 2763.11 38.8194L2761.73 37.3726ZM2755.24 56.3367C2761.73 49.1895 2770.66 45.576 2782.14 45.576V43.576C2770.2 43.576 2760.7 47.3545 2753.76 54.9913L2755.24 56.3367ZM2782.14 45.576C2792.88 45.576 2801.19 48.724 2807.2 54.9203L2808.64 53.5277C2802.17 46.86 2793.3 43.576 2782.14 43.576V45.576ZM2807.21 54.9258C2813.33 61.1445 2816.42 69.2314 2816.42 79.28H2818.42C2818.42 68.7846 2815.18 60.1675 2808.63 53.5222L2807.21 54.9258ZM2816.42 79.28V79.424H2818.42V79.28H2816.42ZM2816.42 79.424C2816.42 90.1124 2812.78 98.9696 2805.49 106.068L2806.89 107.5C2814.58 100.006 2818.42 90.6236 2818.42 79.424H2816.42ZM2805.49 106.072C2798.31 113.158 2788.98 116.728 2777.39 116.728V118.728C2789.42 118.728 2799.29 115.002 2806.9 107.496L2805.49 106.072ZM2777.68 103.896C2784.55 103.896 2790.2 101.594 2794.54 96.9549L2793.08 95.5891C2789.16 99.7822 2784.06 101.896 2777.68 101.896V103.896ZM2794.53 96.9632C2798.95 92.3418 2801.14 86.5175 2801.14 79.568H2799.14C2799.14 86.0585 2797.11 91.3702 2793.09 95.5808L2794.53 96.9632ZM2801.14 79.568V79.424H2799.14V79.568H2801.14ZM2801.14 79.424C2801.14 72.771 2799.1 67.2751 2794.96 63.0295L2793.53 64.4265C2797.25 68.2449 2799.14 73.213 2799.14 79.424H2801.14ZM2794.96 63.0383C2790.9 58.7739 2785.44 56.68 2778.69 56.68V58.68C2784.99 58.68 2789.9 60.6181 2793.52 64.4177L2794.96 63.0383ZM2778.69 56.68C2771.46 56.68 2765.58 58.865 2761.13 63.3089L2762.55 64.7231C2766.55 60.719 2771.9 58.68 2778.69 58.68V56.68ZM2761.13 63.3089C2756.7 67.7388 2754.5 73.3779 2754.5 80.144H2756.5C2756.5 73.8541 2758.53 68.7412 2762.55 64.7231L2761.13 63.3089ZM2754.5 80.144V80.288H2756.5V80.144H2754.5ZM2754.5 80.288C2754.5 87.1387 2756.65 92.8248 2760.98 97.2589L2762.41 95.8611C2758.49 91.8472 2756.5 86.6853 2756.5 80.288H2754.5ZM2760.98 97.2589C2765.32 101.697 2770.91 103.896 2777.68 103.896V101.896C2771.39 101.896 2766.33 99.8713 2762.41 95.8611L2760.98 97.2589ZM2842.24 106.784L2841.53 107.491L2841.54 107.5L2842.24 106.784ZM2841.66 49.904L2842.4 50.5827L2842.4 50.578L2841.66 49.904ZM2895.09 50.192L2894.31 50.8191L2894.32 50.8294L2895.09 50.192ZM2904.45 84.176V85.176H2905.37L2905.44 84.259L2904.45 84.176ZM2848.57 84.176V83.176H2847.41L2847.59 84.3304L2848.57 84.176ZM2855.92 98.432L2856.57 97.6714L2856.57 97.6714L2855.92 98.432ZM2891.05 94.4L2891.72 93.652L2891.03 93.0411L2890.36 93.6766L2891.05 94.4ZM2901.28 103.472L2902.04 104.119L2902.67 103.373L2901.94 102.724L2901.28 103.472ZM2848.43 72.656L2847.44 72.53L2847.3 73.656H2848.43V72.656ZM2887.45 72.656V73.656H2888.56L2888.45 72.5581L2887.45 72.656ZM2854.77 58.112L2854.05 57.4143L2854.04 57.4243L2854.77 58.112ZM2870.17 116.728C2859.28 116.728 2850.22 113.169 2842.94 106.068L2841.54 107.5C2849.23 114.991 2858.8 118.728 2870.17 118.728V116.728ZM2842.95 106.077C2835.76 98.8941 2832.15 89.6551 2832.15 78.272H2830.15C2830.15 90.1209 2833.93 99.8899 2841.53 107.491L2842.95 106.077ZM2832.15 78.272V77.984H2830.15V78.272H2832.15ZM2832.15 77.984C2832.15 67.078 2835.57 57.9667 2842.4 50.5827L2840.93 49.2253C2833.74 57.0093 2830.15 66.618 2830.15 77.984H2832.15ZM2842.4 50.578C2849.21 43.1136 2857.82 39.384 2868.3 39.384V37.384C2857.28 37.384 2848.13 41.3344 2840.92 49.2299L2842.4 50.578ZM2868.3 39.384C2879.57 39.384 2888.19 43.2177 2894.31 50.819L2895.87 49.565C2889.31 41.4223 2880.08 37.384 2868.3 37.384V39.384ZM2894.32 50.8294C2900.58 58.3994 2903.73 67.8596 2903.73 79.28H2905.73C2905.73 67.4684 2902.46 57.5365 2895.86 49.5546L2894.32 50.8294ZM2903.73 79.28C2903.73 80.1941 2903.64 81.789 2903.45 84.093L2905.44 84.259C2905.64 81.955 2905.73 80.2859 2905.73 79.28H2903.73ZM2904.45 83.176H2848.57V85.176H2904.45V83.176ZM2847.59 84.3304C2848.58 90.6606 2851.12 95.6476 2855.27 99.1926L2856.57 97.6714C2852.85 94.4964 2850.49 89.9794 2849.56 84.0216L2847.59 84.3304ZM2855.27 99.1926C2859.41 102.725 2864.49 104.472 2870.46 104.472V102.472C2864.91 102.472 2860.3 100.859 2856.57 97.6714L2855.27 99.1926ZM2870.46 104.472C2878.16 104.472 2885.26 101.314 2891.75 95.1234L2890.36 93.6766C2884.18 99.5821 2877.55 102.472 2870.46 102.472V104.472ZM2890.39 95.148L2900.62 104.22L2901.94 102.724L2891.72 93.652L2890.39 95.148ZM2900.52 102.825C2892.65 112.101 2882.56 116.728 2870.17 116.728V118.728C2883.13 118.728 2893.78 113.851 2902.04 104.119L2900.52 102.825ZM2848.43 73.656H2887.45V71.656H2848.43V73.656ZM2888.45 72.5581C2887.86 66.5274 2885.82 61.5162 2882.3 57.5881L2880.81 58.9239C2884 62.4837 2885.9 67.0726 2886.46 72.7539L2888.45 72.5581ZM2882.3 57.5881C2878.72 53.6088 2873.98 51.64 2868.16 51.64V53.64C2873.48 53.64 2877.66 55.4152 2880.81 58.9239L2882.3 57.5881ZM2868.16 51.64C2862.53 51.64 2857.8 53.5613 2854.05 57.4144L2855.48 58.8096C2858.84 55.3667 2863.04 53.64 2868.16 53.64V51.64ZM2854.04 57.4243C2850.41 61.257 2848.23 66.3172 2847.44 72.53L2849.42 72.782C2850.17 66.8988 2852.21 62.263 2855.49 58.7997L2854.04 57.4243ZM2950.86 134.432L2949.96 133.993L2949.26 135.432H2950.86V134.432ZM3015.95 1.08799V0.0879946H3015.32L3015.05 0.649342L3015.95 1.08799ZM3031.07 1.08799L3031.97 1.52665L3032.67 0.0879946H3031.07V1.08799ZM2965.98 134.432V135.432H2966.61L2966.88 134.871L2965.98 134.432ZM2951.76 134.871L3016.85 1.52665L3015.05 0.649342L2949.96 133.993L2951.76 134.871ZM3015.95 2.08799H3031.07V0.0879946H3015.95V2.08799ZM3030.17 0.649342L2965.08 133.993L2966.88 134.871L3031.97 1.52665L3030.17 0.649342ZM2965.98 133.432H2950.86V135.432H2965.98V133.432ZM3090.73 106.352L3090.01 107.05L3090.01 107.055L3090.73 106.352ZM3090.73 50.048L3090.01 49.3498L3090.01 49.3544L3090.73 50.048ZM3149.48 51.488L3150.21 52.1722L3150.85 51.4855L3150.21 50.8011L3149.48 51.488ZM3138.53 63.152L3137.81 63.8425L3138.54 64.6068L3139.26 63.8362L3138.53 63.152ZM3103.25 60.704L3104 61.3721L3104 61.3721L3103.25 60.704ZM3103.25 95.408L3102.51 96.0762L3102.52 96.0844L3103.25 95.408ZM3139.4 93.104L3140.1 92.392L3139.39 91.6946L3138.69 92.3969L3139.4 93.104ZM3149.91 103.472L3150.66 104.139L3151.29 103.429L3150.61 102.76L3149.91 103.472ZM3136.52 114.128L3136.97 115.022L3136.97 115.019L3136.98 115.015L3136.52 114.128ZM3118.81 116.728C3107.83 116.728 3098.73 113.032 3091.44 105.649L3090.01 107.055C3097.7 114.84 3107.32 118.728 3118.81 118.728V116.728ZM3091.44 105.654C3084.14 98.1648 3080.49 89.1051 3080.49 78.416H3078.49C3078.49 89.6149 3082.34 99.1792 3090.01 107.05L3091.44 105.654ZM3080.49 78.416V78.128H3078.49V78.416H3080.49ZM3080.49 78.128C3080.49 67.4387 3084.14 58.3285 3091.45 50.7416L3090.01 49.3544C3082.34 57.3195 3078.49 66.9293 3078.49 78.128H3080.49ZM3091.44 50.7462C3098.83 43.1723 3108.02 39.384 3119.09 39.384V37.384C3107.51 37.384 3097.79 41.3717 3090.01 49.3498L3091.44 50.7462ZM3119.09 39.384C3130.82 39.384 3140.68 43.6384 3148.75 52.1749L3150.21 50.8011C3141.76 41.8656 3131.37 37.384 3119.09 37.384V39.384ZM3148.75 50.8038L3137.81 62.4678L3139.26 63.8362L3150.21 52.1722L3148.75 50.8038ZM3139.26 62.4615C3133.07 55.9804 3126.3 52.648 3118.95 52.648V54.648C3125.62 54.648 3131.9 57.6516 3137.81 63.8425L3139.26 62.4615ZM3118.95 52.648C3112.42 52.648 3106.92 55.1238 3102.51 60.0359L3104 61.3721C3108.04 56.8762 3113 54.648 3118.95 54.648V52.648ZM3102.51 60.0359C3098.11 64.9356 3095.92 70.8903 3095.92 77.84H3097.92C3097.92 71.3497 3099.95 65.8804 3104 61.3721L3102.51 60.0359ZM3095.92 77.84V78.128H3097.92V77.84H3095.92ZM3095.92 78.128C3095.92 85.1697 3098.11 91.1736 3102.51 96.0761L3104 94.7399C3099.95 90.2344 3097.92 84.7183 3097.92 78.128H3095.92ZM3102.52 96.0844C3107.04 101.003 3112.78 103.464 3119.67 103.464V101.464C3113.31 101.464 3108.11 99.2209 3103.99 94.7316L3102.52 96.0844ZM3119.67 103.464C3126.92 103.464 3133.73 100.184 3140.11 93.8111L3138.69 92.3969C3132.58 98.5038 3126.25 101.464 3119.67 101.464V103.464ZM3138.7 93.816L3149.21 104.184L3150.61 102.76L3140.1 92.392L3138.7 93.816ZM3149.17 102.805C3145.11 107.336 3140.74 110.808 3136.06 113.241L3136.98 115.015C3141.9 112.456 3146.46 108.824 3150.66 104.139L3149.17 102.805ZM3136.07 113.234C3131.45 115.546 3125.71 116.728 3118.81 116.728V118.728C3125.92 118.728 3131.99 117.51 3136.97 115.022L3136.07 113.234ZM3165.79 116H3164.79V117H3165.79V116ZM3165.79 39.968V38.968H3164.79V39.968H3165.79ZM3183.22 39.968H3184.22V38.968H3183.22V39.968ZM3183.22 88.64H3182.22V91.6543L3184.02 89.2377L3183.22 88.64ZM3219.5 39.968V38.968H3219L3218.7 39.3703L3219.5 39.968ZM3236.06 39.968H3237.06V38.968H3236.06V39.968ZM3236.06 116V117H3237.06V116H3236.06ZM3218.64 116H3217.64V117H3218.64V116ZM3218.64 66.176H3219.64V63.1526L3217.84 65.5797L3218.64 66.176ZM3181.63 116V117H3182.14L3182.43 116.596L3181.63 116ZM3166.79 116V39.968H3164.79V116H3166.79ZM3165.79 40.968H3183.22V38.968H3165.79V40.968ZM3182.22 39.968V88.64H3184.22V39.968H3182.22ZM3184.02 89.2377L3220.31 40.5657L3218.7 39.3703L3182.41 88.0423L3184.02 89.2377ZM3219.5 40.968H3236.06V38.968H3219.5V40.968ZM3235.06 39.968V116H3237.06V39.968H3235.06ZM3236.06 115H3218.64V117H3236.06V115ZM3219.64 116V66.176H3217.64V116H3219.64ZM3217.84 65.5797L3180.83 115.404L3182.43 116.596L3219.44 66.7723L3217.84 65.5797ZM3181.63 115H3165.79V117H3181.63V115ZM3299.81 39.392L3300.73 38.9966L3300.47 38.392H3299.81V39.392ZM3332.79 116V117H3334.31L3333.71 115.605L3332.79 116ZM3313.78 116L3312.85 116.375L3313.11 117H3313.78V116ZM3291.46 60.848L3292.39 60.4729L3291.47 58.197L3290.54 60.4687L3291.46 60.848ZM3268.85 116V117H3269.52L3269.78 116.379L3268.85 116ZM3250.42 116L3249.5 115.605L3248.9 117H3250.42V116ZM3283.4 39.392V38.392H3282.74L3282.48 38.9966L3283.4 39.392ZM3298.89 39.7874L3331.87 116.395L3333.71 115.605L3300.73 38.9966L3298.89 39.7874ZM3332.79 115H3313.78V117H3332.79V115ZM3314.71 115.625L3292.39 60.4729L3290.53 61.2231L3312.85 116.375L3314.71 115.625ZM3290.54 60.4687L3267.93 115.621L3269.78 116.379L3292.39 61.2273L3290.54 60.4687ZM3268.85 115H3250.42V117H3268.85V115ZM3251.34 116.395L3284.31 39.7874L3282.48 38.9966L3249.5 115.605L3251.34 116.395ZM3283.4 40.392H3299.81V38.392H3283.4V40.392ZM3349.37 111.392L3348.75 112.174L3348.76 112.18L3349.37 111.392ZM3350.09 75.536L3349.51 74.7232L3349.5 74.7279L3350.09 75.536ZM3393.58 72.512L3393.28 73.4647L3394.58 73.8804V72.512H3393.58ZM3352.97 58.832L3352.03 59.1601L3352.38 60.1646L3353.36 59.7547L3352.97 58.832ZM3348.22 45.152L3347.83 44.2319L3346.97 44.5978L3347.28 45.4801L3348.22 45.152ZM3402.22 47.456L3401.5 48.1508L3401.51 48.157L3401.51 48.1631L3402.22 47.456ZM3410.43 116V117H3411.43V116H3410.43ZM3393.44 116H3392.44V117H3393.44V116ZM3393.44 106.496H3394.44V103.728L3392.67 105.857L3393.44 106.496ZM3388.11 100.448L3388.72 101.238L3388.73 101.234L3388.73 101.229L3388.11 100.448ZM3393.87 83.456H3394.87V82.7719L3394.23 82.524L3393.87 83.456ZM3363.34 83.744L3362.77 82.9236L3362.76 82.9277L3362.76 82.932L3363.34 83.744ZM3362.91 101.888L3362.3 102.685L3362.31 102.691L3362.32 102.698L3362.91 101.888ZM3368.67 116.584C3361.28 116.584 3355.07 114.577 3349.99 110.604L3348.76 112.18C3354.23 116.463 3360.89 118.584 3368.67 118.584V116.584ZM3349.99 110.61C3345.08 106.695 3342.6 101.239 3342.6 94.112H3340.6C3340.6 101.769 3343.3 107.833 3348.75 112.174L3349.99 110.61ZM3342.6 94.112V93.824H3340.6V94.112H3342.6ZM3342.6 93.824C3342.6 86.0245 3345.32 80.2537 3350.68 76.3441L3349.5 74.7279C3343.54 79.0743 3340.6 85.4955 3340.6 93.824H3342.6ZM3350.67 76.3488C3356.21 72.379 3363.67 70.344 3373.13 70.344V68.344C3363.4 68.344 3355.49 70.437 3349.51 74.7232L3350.67 76.3488ZM3373.13 70.344C3380.04 70.344 3386.75 71.3843 3393.28 73.4647L3393.88 71.5593C3387.16 69.4157 3380.24 68.344 3373.13 68.344V70.344ZM3394.58 72.512V70.64H3392.58V72.512H3394.58ZM3394.58 70.64C3394.58 64.9296 3392.95 60.4743 3389.52 57.4685C3386.12 54.4845 3381.13 53.08 3374.72 53.08V55.08C3380.88 55.08 3385.32 56.4355 3388.2 58.9715C3391.07 61.4857 3392.58 65.3104 3392.58 70.64H3394.58ZM3374.72 53.08C3367.65 53.08 3360.27 54.6997 3352.59 57.9093L3353.36 59.7547C3360.84 56.6283 3367.96 55.08 3374.72 55.08V53.08ZM3353.92 58.5039L3349.16 44.8239L3347.28 45.4801L3352.03 59.1601L3353.92 58.5039ZM3348.61 46.0721C3358.2 41.9911 3367.66 39.96 3377.02 39.96V37.96C3367.37 37.96 3357.63 40.0569 3347.83 44.2319L3348.61 46.0721ZM3377.02 39.96C3388.2 39.96 3396.29 42.754 3401.5 48.1508L3402.94 46.7612C3397.21 40.83 3388.5 37.96 3377.02 37.96V39.96ZM3401.51 48.1631C3406.74 53.394 3409.43 60.9305 3409.43 70.928H3411.43C3411.43 60.5735 3408.64 52.4619 3402.93 46.7489L3401.51 48.1631ZM3409.43 70.928V116H3411.43V70.928H3409.43ZM3410.43 115H3393.44V117H3410.43V115ZM3394.44 116V106.496H3392.44V116H3394.44ZM3392.67 105.857C3386.73 113 3378.77 116.584 3368.67 116.584V118.584C3379.31 118.584 3387.85 114.776 3394.2 107.135L3392.67 105.857ZM3373.56 105.912C3379.59 105.912 3384.67 104.376 3388.72 101.238L3387.5 99.6576C3383.86 102.472 3379.25 103.912 3373.56 103.912V105.912ZM3388.73 101.229C3392.8 97.9725 3394.87 93.7523 3394.87 88.64H3392.87C3392.87 93.1277 3391.09 96.7795 3387.48 99.6671L3388.73 101.229ZM3394.87 88.64V83.456H3392.87V88.64H3394.87ZM3394.23 82.524C3388.92 80.4573 3383.03 79.432 3376.59 79.432V81.432C3382.82 81.432 3388.45 82.4227 3393.51 84.388L3394.23 82.524ZM3376.59 79.432C3370.81 79.432 3366.17 80.5558 3362.77 82.9236L3363.91 84.5644C3366.85 82.5162 3371.04 81.432 3376.59 81.432V79.432ZM3362.76 82.932C3359.4 85.3419 3357.73 88.7749 3357.73 93.104H3359.73C3359.73 89.3691 3361.13 86.5621 3363.92 84.556L3362.76 82.932ZM3357.73 93.104V93.392H3359.73V93.104H3357.73ZM3357.73 93.392C3357.73 97.2508 3359.27 100.38 3362.3 102.685L3363.51 101.091C3360.98 99.172 3359.73 96.6372 3359.73 93.392H3357.73ZM3362.32 102.698C3365.32 104.866 3369.09 105.912 3373.56 105.912V103.912C3369.4 103.912 3366.07 102.942 3363.49 101.078L3362.32 102.698ZM3474.32 116H3473.32V117H3474.32V116ZM3474.32 39.968V38.968H3473.32V39.968H3474.32ZM3532.36 45.152L3531.76 45.958L3531.77 45.9657L3532.36 45.152ZM3527.46 76.544L3527.08 75.6186L3524.52 76.668L3527.16 77.498L3527.46 76.544ZM3534.52 110.528L3533.95 109.7L3533.95 109.705L3534.52 110.528ZM3491.46 71.504H3490.46V72.504H3491.46V71.504ZM3519.11 68.912L3518.47 68.138L3518.47 68.138L3519.11 68.912ZM3519.11 55.088L3518.47 55.862L3518.47 55.862L3519.11 55.088ZM3510.04 52.64V53.64H3510.05L3510.06 53.6397L3510.04 52.64ZM3491.46 52.64V51.64H3490.46V52.64H3491.46ZM3491.46 83.744V82.744H3490.46V83.744H3491.46ZM3491.46 103.328H3490.46V104.328H3491.46V103.328ZM3521.84 86.336L3521.24 87.1322L3521.26 87.1456L3521.27 87.1582L3521.84 86.336ZM3511.48 83.744V84.744H3511.49L3511.5 84.7438L3511.48 83.744ZM3475.32 116V39.968H3473.32V116H3475.32ZM3474.32 40.968H3513.06V38.968H3474.32V40.968ZM3513.06 40.968C3521.09 40.968 3527.29 42.6694 3531.76 45.9579L3532.95 44.3461C3528.02 40.7226 3521.35 38.968 3513.06 38.968V40.968ZM3531.77 45.9657C3536.19 49.1212 3538.41 53.6049 3538.41 59.552H3540.41C3540.41 53.0191 3537.93 47.9028 3532.94 44.3383L3531.77 45.9657ZM3538.41 59.552V59.696H3540.41V59.552H3538.41ZM3538.41 59.696C3538.41 63.5064 3537.46 66.692 3535.61 69.3054C3533.75 71.9242 3530.93 74.0406 3527.08 75.6186L3527.84 77.4694C3531.95 75.7834 3535.11 73.4598 3537.24 70.4626C3539.37 67.46 3540.41 63.8536 3540.41 59.696H3538.41ZM3527.16 77.498C3532.08 79.0436 3535.67 81.262 3538.03 84.0962C3540.38 86.9165 3541.58 90.4247 3541.58 94.688H3543.58C3543.58 90.0233 3542.26 86.0435 3539.57 82.8158C3536.89 79.602 3532.92 77.2123 3527.76 75.59L3527.16 77.498ZM3541.58 94.688V94.832H3543.58V94.688H3541.58ZM3541.58 94.832C3541.58 101.336 3539.04 106.249 3533.95 109.701L3535.08 111.355C3540.74 107.511 3543.58 101.96 3543.58 94.832H3541.58ZM3533.95 109.705C3528.89 113.201 3522.01 115 3513.2 115V117C3522.26 117 3529.58 115.151 3535.08 111.351L3533.95 109.705ZM3513.2 115H3474.32V117H3513.2V115ZM3491.46 72.504H3509.6V70.504H3491.46V72.504ZM3509.6 72.504C3513.94 72.504 3517.38 71.6214 3519.74 69.686L3518.47 68.138C3516.62 69.6586 3513.72 70.504 3509.6 70.504V72.504ZM3519.74 69.686C3522.11 67.7493 3523.28 65.101 3523.28 61.856H3521.28C3521.28 64.563 3520.33 66.6187 3518.47 68.138L3519.74 69.686ZM3523.28 61.856V61.712H3521.28V61.856H3523.28ZM3523.28 61.712C3523.28 58.7188 3522.08 56.2286 3519.74 54.314L3518.47 55.862C3520.36 57.4034 3521.28 59.3292 3521.28 61.712H3523.28ZM3519.74 54.314C3517.38 52.3796 3514.08 51.541 3510.01 51.6403L3510.06 53.6397C3513.86 53.547 3516.61 54.3404 3518.47 55.862L3519.74 54.314ZM3510.04 51.64H3491.46V53.64H3510.04V51.64ZM3490.46 52.64V71.504H3492.46V52.64H3490.46ZM3490.46 83.744V103.328H3492.46V83.744H3490.46ZM3491.46 104.328H3512.2V102.328H3491.46V104.328ZM3512.2 104.328C3516.75 104.328 3520.35 103.513 3522.82 101.727C3525.36 99.8979 3526.59 97.1555 3526.59 93.68H3524.59C3524.59 96.6365 3523.58 98.7181 3521.65 100.105C3519.67 101.535 3516.57 102.328 3512.2 102.328V104.328ZM3526.59 93.68V93.536H3524.59V93.68H3526.59ZM3526.59 93.536C3526.59 90.1405 3525.18 87.4312 3522.41 85.5138L3521.27 87.1582C3523.5 88.6968 3524.59 90.7875 3524.59 93.536H3526.59ZM3522.45 85.5398C3519.8 83.5259 3516.08 82.6457 3511.45 82.7442L3511.5 84.7438C3515.89 84.6503 3519.09 85.4981 3521.24 87.1322L3522.45 85.5398ZM3511.48 82.744H3491.46V84.744H3511.48V82.744ZM3624.3 116H3623.3V117H3624.3V116ZM3624.3 55.52H3625.3V54.52H3624.3V55.52ZM3597.23 55.52H3596.23V56.52H3597.23V55.52ZM3597.23 39.968V38.968H3596.23V39.968H3597.23ZM3668.8 39.968H3669.8V38.968H3668.8V39.968ZM3668.8 55.52V56.52H3669.8V55.52H3668.8ZM3641.72 55.52V54.52H3640.72V55.52H3641.72ZM3641.72 116V117H3642.72V116H3641.72ZM3625.3 116V55.52H3623.3V116H3625.3ZM3624.3 54.52H3597.23V56.52H3624.3V54.52ZM3598.23 55.52V39.968H3596.23V55.52H3598.23ZM3597.23 40.968H3668.8V38.968H3597.23V40.968ZM3667.8 39.968V55.52H3669.8V39.968H3667.8ZM3668.8 54.52H3641.72V56.52H3668.8V54.52ZM3640.72 55.52V116H3642.72V55.52H3640.72ZM3641.72 115H3624.3V117H3641.72V115ZM3687.4 106.784L3686.69 107.491L3686.7 107.5L3687.4 106.784ZM3686.82 49.904L3687.55 50.5827L3687.56 50.578L3686.82 49.904ZM3740.24 50.192L3739.46 50.8191L3739.47 50.8294L3740.24 50.192ZM3749.6 84.176V85.176H3750.52L3750.6 84.259L3749.6 84.176ZM3693.73 84.176V83.176H3692.56L3692.74 84.3304L3693.73 84.176ZM3701.08 98.432L3701.72 97.6714L3701.72 97.6714L3701.08 98.432ZM3736.21 94.4L3736.87 93.652L3736.19 93.0411L3735.52 93.6766L3736.21 94.4ZM3746.44 103.472L3747.2 104.119L3747.83 103.373L3747.1 102.724L3746.44 103.472ZM3693.59 72.656L3692.6 72.53L3692.45 73.656H3693.59V72.656ZM3732.61 72.656V73.656H3733.71L3733.61 72.5581L3732.61 72.656ZM3699.92 58.112L3699.21 57.4143L3699.2 57.4243L3699.92 58.112ZM3715.33 116.728C3704.44 116.728 3695.38 113.169 3688.09 106.068L3686.7 107.5C3694.38 114.991 3703.95 118.728 3715.33 118.728V116.728ZM3688.1 106.077C3680.92 98.8941 3677.31 89.6551 3677.31 78.272H3675.31C3675.31 90.1209 3679.09 99.8899 3686.69 107.491L3688.1 106.077ZM3677.31 78.272V77.984H3675.31V78.272H3677.31ZM3677.31 77.984C3677.31 67.078 3680.73 57.9667 3687.55 50.5827L3686.08 49.2253C3678.89 57.0093 3675.31 66.618 3675.31 77.984H3677.31ZM3687.56 50.578C3694.37 43.1136 3702.98 39.384 3713.46 39.384V37.384C3702.44 37.384 3693.29 41.3344 3686.08 49.2299L3687.56 50.578ZM3713.46 39.384C3724.72 39.384 3733.35 43.2177 3739.46 50.819L3741.02 49.565C3734.47 41.4223 3725.23 37.384 3713.46 37.384V39.384ZM3739.47 50.8294C3745.73 58.3994 3748.89 67.8596 3748.89 79.28H3750.89C3750.89 67.4684 3747.62 57.5365 3741.01 49.5546L3739.47 50.8294ZM3748.89 79.28C3748.89 80.1941 3748.8 81.789 3748.61 84.093L3750.6 84.259C3750.79 81.955 3750.89 80.2859 3750.89 79.28H3748.89ZM3749.6 83.176H3693.73V85.176H3749.6V83.176ZM3692.74 84.3304C3693.73 90.6606 3696.27 95.6476 3700.43 99.1926L3701.72 97.6714C3698 94.4964 3695.65 89.9794 3694.72 84.0216L3692.74 84.3304ZM3700.43 99.1926C3704.56 102.725 3709.65 104.472 3715.62 104.472V102.472C3710.07 102.472 3705.46 100.859 3701.72 97.6714L3700.43 99.1926ZM3715.62 104.472C3723.31 104.472 3730.42 101.314 3736.9 95.1234L3735.52 93.6766C3729.33 99.5821 3722.71 102.472 3715.62 102.472V104.472ZM3735.55 95.148L3745.77 104.22L3747.1 102.724L3736.87 93.652L3735.55 95.148ZM3745.67 102.825C3737.8 112.101 3727.72 116.728 3715.33 116.728V118.728C3728.29 118.728 3738.94 113.851 3747.2 104.119L3745.67 102.825ZM3693.59 73.656H3732.61V71.656H3693.59V73.656ZM3733.61 72.5581C3733.01 66.5274 3730.98 61.5162 3727.45 57.5881L3725.96 58.9239C3729.16 62.4837 3731.06 67.0726 3731.62 72.7539L3733.61 72.5581ZM3727.45 57.5881C3723.88 53.6088 3719.13 51.64 3713.32 51.64V53.64C3718.63 53.64 3722.81 55.4152 3725.96 58.9239L3727.45 57.5881ZM3713.32 51.64C3707.69 51.64 3702.96 53.5613 3699.21 57.4144L3700.64 58.8096C3703.99 55.3667 3708.19 53.64 3713.32 53.64V51.64ZM3699.2 57.4243C3695.57 61.257 3693.38 66.3172 3692.6 72.53L3694.58 72.782C3695.33 66.8988 3697.37 62.263 3700.65 58.7997L3699.2 57.4243ZM3776.46 107.36L3777.17 106.653L3777.17 106.653L3776.46 107.36ZM3774.01 31.328L3773.2 30.7444L3773.2 30.746L3774.01 31.328ZM3805.12 14.048L3805.28 15.0349L3805.28 15.0341L3805.12 14.048ZM3832.48 9.44L3833.46 9.27128L3833.29 8.28825L3832.31 8.45389L3832.48 9.44ZM3835.21 25.424L3835.37 26.4115L3836.37 26.2521L3836.2 25.2553L3835.21 25.424ZM3808.14 29.744L3807.98 28.7565L3807.98 28.7577L3807.97 28.7591L3808.14 29.744ZM3788.56 38.096L3787.87 37.3649L3787.87 37.3726L3788.56 38.096ZM3780.64 55.664L3779.65 55.5278L3779.21 58.7237L3781.38 56.3367L3780.64 55.664ZM3834.06 54.224L3833.34 54.9203L3833.35 54.9258L3834.06 54.224ZM3832.33 106.784L3831.64 106.068L3831.63 106.072L3832.33 106.784ZM3819.95 96.272L3819.23 95.5807L3819.22 95.5891L3819.95 96.272ZM3820.38 63.728L3819.66 64.4177L3819.67 64.4265L3820.38 63.728ZM3787.98 64.016L3787.27 63.3089L3787.27 63.3089L3787.98 64.016ZM3803.53 116.728C3792.62 116.728 3783.87 113.351 3777.17 106.653L3775.75 108.067C3782.88 115.193 3792.17 118.728 3803.53 118.728V116.728ZM3777.17 106.653C3769.26 98.7415 3765.22 87.0358 3765.22 71.36H3763.22C3763.22 87.3642 3767.35 99.6585 3775.75 108.067L3777.17 106.653ZM3765.22 71.36V71.216H3763.22V71.36H3765.22ZM3765.22 71.216C3765.22 53.8443 3768.47 40.7894 3774.83 31.91L3773.2 30.746C3766.5 40.1066 3763.22 53.6437 3763.22 71.216H3765.22ZM3774.83 31.9116C3781.26 22.9637 3791.36 17.3079 3805.28 15.0349L3804.96 13.0611C3790.65 15.3961 3780.02 21.2603 3773.2 30.7444L3774.83 31.9116ZM3805.28 15.0341L3832.64 10.4261L3832.31 8.45389L3804.95 13.0619L3805.28 15.0341ZM3831.49 9.60872L3834.23 25.5927L3836.2 25.2553L3833.46 9.27128L3831.49 9.60872ZM3835.06 24.4365L3807.98 28.7565L3808.3 30.7315L3835.37 26.4115L3835.06 24.4365ZM3807.97 28.7591C3799.13 30.3129 3792.39 33.1501 3787.87 37.3649L3789.24 38.8271C3793.36 34.9779 3799.68 32.2471 3808.31 30.7289L3807.97 28.7591ZM3787.87 37.3726C3783.43 41.6053 3780.72 47.6973 3779.65 55.5278L3781.63 55.8002C3782.66 48.2707 3785.23 42.6507 3789.25 38.8194L3787.87 37.3726ZM3781.38 56.3367C3787.87 49.1895 3796.8 45.576 3808.29 45.576V43.576C3796.34 43.576 3786.84 47.3545 3779.9 54.9913L3781.38 56.3367ZM3808.29 45.576C3819.02 45.576 3827.33 48.724 3833.34 54.9203L3834.78 53.5277C3828.31 46.86 3819.44 43.576 3808.29 43.576V45.576ZM3833.35 54.9258C3839.47 61.1445 3842.57 69.2314 3842.57 79.28H3844.57C3844.57 68.7846 3841.32 60.1675 3834.77 53.5222L3833.35 54.9258ZM3842.57 79.28V79.424H3844.57V79.28H3842.57ZM3842.57 79.424C3842.57 90.1124 3838.92 98.9696 3831.64 106.068L3833.03 107.5C3840.72 100.006 3844.57 90.6236 3844.57 79.424H3842.57ZM3831.63 106.072C3824.45 113.158 3815.12 116.728 3803.53 116.728V118.728C3815.57 118.728 3825.43 115.002 3833.04 107.496L3831.63 106.072ZM3803.82 103.896C3810.69 103.896 3816.34 101.594 3820.68 96.9549L3819.22 95.5891C3815.3 99.7822 3810.2 101.896 3803.82 101.896V103.896ZM3820.67 96.9632C3825.09 92.3418 3827.29 86.5175 3827.29 79.568H3825.29C3825.29 86.0585 3823.25 91.3702 3819.23 95.5808L3820.67 96.9632ZM3827.29 79.568V79.424H3825.29V79.568H3827.29ZM3827.29 79.424C3827.29 72.771 3825.24 67.2751 3821.1 63.0295L3819.67 64.4265C3823.39 68.2449 3825.29 73.213 3825.29 79.424H3827.29ZM3821.11 63.0383C3817.04 58.7739 3811.58 56.68 3804.83 56.68V58.68C3811.13 58.68 3816.04 60.6181 3819.66 64.4177L3821.11 63.0383ZM3804.83 56.68C3797.61 56.68 3791.72 58.865 3787.27 63.3089L3788.69 64.7231C3792.69 60.719 3798.04 58.68 3804.83 58.68V56.68ZM3787.27 63.3089C3782.84 67.7388 3780.65 73.3779 3780.65 80.144H3782.65C3782.65 73.8541 3784.67 68.7412 3788.69 64.7231L3787.27 63.3089ZM3780.65 80.144V80.288H3782.65V80.144H3780.65ZM3780.65 80.288C3780.65 87.1387 3782.79 92.8248 3787.12 97.2589L3788.55 95.8611C3784.63 91.8472 3782.65 86.6853 3782.65 80.288H3780.65ZM3787.12 97.2589C3791.46 101.697 3797.06 103.896 3803.82 103.896V101.896C3797.53 101.896 3792.47 99.8713 3788.55 95.8611L3787.12 97.2589ZM3868.38 106.784L3867.67 107.491L3867.68 107.5L3868.38 106.784ZM3867.8 49.904L3868.54 50.5827L3868.54 50.578L3867.8 49.904ZM3921.23 50.192L3920.45 50.8191L3920.46 50.8294L3921.23 50.192ZM3930.59 84.176V85.176H3931.51L3931.58 84.259L3930.59 84.176ZM3874.72 84.176V83.176H3873.55L3873.73 84.3304L3874.72 84.176ZM3882.06 98.432L3882.71 97.6714L3882.71 97.6714L3882.06 98.432ZM3917.2 94.4L3917.86 93.652L3917.17 93.0411L3916.5 93.6766L3917.2 94.4ZM3927.42 103.472L3928.18 104.119L3928.81 103.373L3928.08 102.724L3927.42 103.472ZM3874.57 72.656L3873.58 72.53L3873.44 73.656H3874.57V72.656ZM3913.6 72.656V73.656H3914.7L3914.59 72.5581L3913.6 72.656ZM3880.91 58.112L3880.19 57.4143L3880.18 57.4243L3880.91 58.112ZM3896.32 116.728C3885.42 116.728 3876.37 113.169 3869.08 106.068L3867.68 107.5C3875.37 114.991 3884.94 118.728 3896.32 118.728V116.728ZM3869.09 106.077C3861.9 98.8941 3858.29 89.6551 3858.29 78.272H3856.29C3856.29 90.1209 3860.07 99.8899 3867.67 107.491L3869.09 106.077ZM3858.29 78.272V77.984H3856.29V78.272H3858.29ZM3858.29 77.984C3858.29 67.078 3861.71 57.9667 3868.54 50.5827L3867.07 49.2253C3859.88 57.0093 3856.29 66.618 3856.29 77.984H3858.29ZM3868.54 50.578C3875.35 43.1136 3883.96 39.384 3894.44 39.384V37.384C3883.42 37.384 3874.27 41.3344 3867.06 49.2299L3868.54 50.578ZM3894.44 39.384C3905.71 39.384 3914.33 43.2177 3920.45 50.819L3922.01 49.565C3915.45 41.4223 3906.22 37.384 3894.44 37.384V39.384ZM3920.46 50.8294C3926.72 58.3994 3929.88 67.8596 3929.88 79.28H3931.88C3931.88 67.4684 3928.6 57.5365 3922 49.5546L3920.46 50.8294ZM3929.88 79.28C3929.88 80.1941 3929.78 81.789 3929.59 84.093L3931.58 84.259C3931.78 81.955 3931.88 80.2859 3931.88 79.28H3929.88ZM3930.59 83.176H3874.72V85.176H3930.59V83.176ZM3873.73 84.3304C3874.72 90.6606 3877.26 95.6476 3881.41 99.1926L3882.71 97.6714C3878.99 94.4964 3876.63 89.9794 3875.7 84.0216L3873.73 84.3304ZM3881.41 99.1926C3885.55 102.725 3890.63 104.472 3896.6 104.472V102.472C3891.05 102.472 3886.44 100.859 3882.71 97.6714L3881.41 99.1926ZM3896.6 104.472C3904.3 104.472 3911.4 101.314 3917.89 95.1234L3916.5 93.6766C3910.32 99.5821 3903.69 102.472 3896.6 102.472V104.472ZM3916.53 95.148L3926.76 104.22L3928.08 102.724L3917.86 93.652L3916.53 95.148ZM3926.66 102.825C3918.79 112.101 3908.7 116.728 3896.32 116.728V118.728C3909.28 118.728 3919.92 113.851 3928.18 104.119L3926.66 102.825ZM3874.57 73.656H3913.6V71.656H3874.57V73.656ZM3914.59 72.5581C3914 66.5274 3911.96 61.5162 3908.44 57.5881L3906.95 58.9239C3910.14 62.4837 3912.04 67.0726 3912.6 72.7539L3914.59 72.5581ZM3908.44 57.5881C3904.86 53.6088 3900.12 51.64 3894.3 51.64V53.64C3899.62 53.64 3903.8 55.4152 3906.95 58.9239L3908.44 57.5881ZM3894.3 51.64C3888.67 51.64 3883.94 53.5613 3880.19 57.4144L3881.62 58.8096C3884.98 55.3667 3889.18 53.64 3894.3 53.64V51.64ZM3880.18 57.4243C3876.55 61.257 3874.37 66.3172 3873.58 72.53L3875.56 72.782C3876.31 66.8988 3878.35 62.263 3881.63 58.7997L3880.18 57.4243ZM3977 134.432L3976.1 133.993L3975.4 135.432H3977V134.432ZM4042.09 1.08799V0.0879946H4041.46L4041.19 0.649342L4042.09 1.08799ZM4057.21 1.08799L4058.11 1.52665L4058.81 0.0879946H4057.21V1.08799ZM3992.12 134.432V135.432H3992.75L3993.02 134.871L3992.12 134.432ZM3977.9 134.871L4042.99 1.52665L4041.19 0.649342L3976.1 133.993L3977.9 134.871ZM4042.09 2.08799H4057.21V0.0879946H4042.09V2.08799ZM4056.31 0.649342L3991.22 133.993L3993.02 134.871L4058.11 1.52665L4056.31 0.649342ZM3992.12 133.432H3977V135.432H3992.12V133.432Z" fill="#BABABA"/>
</svg>
