<svg width="24" height="24" viewBox="0 0 24 24" fill="none" xmlns="http://www.w3.org/2000/svg">
<path d="M2 16.1L2.19983 15.1202C1.76736 15.032 1.32822 15.2377 1.11922 15.6265C0.910221 16.0152 0.980799 16.495 1.29289 16.8071L2 16.1ZM5.9 20L5.19289 20.7071C5.50499 21.0192 5.98478 21.0898 6.37353 20.8808C6.76228 20.6718 6.96803 20.2326 6.87983 19.8002L5.9 20ZM2 12.05L2.11054 11.0561C1.68843 11.0092 1.28272 11.234 1.09872 11.6168C0.914721 11.9995 0.992579 12.4568 1.29289 12.7571L2 12.05ZM9.95 20L9.24289 20.7071C9.54321 21.0074 10.0005 21.0853 10.3832 20.9013C10.766 20.7173 10.9908 20.3116 10.9439 19.8895L9.95 20ZM1 8C1 8.55228 1.44772 9 2 9C2.55228 9 3 8.55228 3 8H1ZM14 19C13.4477 19 13 19.4477 13 20C13 20.5523 13.4477 21 14 21V19ZM1.80017 17.0798C3.3716 17.4003 4.59969 18.6284 4.92017 20.1998L6.87983 19.8002C6.39911 17.443 4.55698 15.6009 2.19983 15.1202L1.80017 17.0798ZM6.60711 19.2929L2.70711 15.3929L1.29289 16.8071L5.19289 20.7071L6.60711 19.2929ZM1.88946 13.0439C5.60756 13.4574 8.5426 16.3924 8.95613 20.1105L10.9439 19.8895C10.427 15.2418 6.75816 11.573 2.11054 11.0561L1.88946 13.0439ZM10.6571 19.2929L2.70711 11.3429L1.29289 12.7571L9.24289 20.7071L10.6571 19.2929ZM3 8V6H1V8H3ZM3 6C3 5.44772 3.44772 5 4 5V3C2.34315 3 1 4.34315 1 6H3ZM4 5H20V3H4V5ZM20 5C20.5523 5 21 5.44771 21 6H23C23 4.34315 21.6569 3 20 3V5ZM21 6V18H23V6H21ZM21 18C21 18.5523 20.5523 19 20 19V21C21.6569 21 23 19.6569 23 18H21ZM20 19H14V21H20V19Z" fill="black"/>
</svg>
