<svg width="20" height="21" viewBox="0 0 20 21" fill="none" xmlns="http://www.w3.org/2000/svg">
<path d="M8.06451 5.33871V10.2C8.07046 10.795 8.31099 11.3635 8.73382 11.7821C9.15664 12.2007 9.72759 12.4355 10.3226 12.4355H14.1935V10.5H10.3226C10.2408 10.5002 10.162 10.4693 10.1021 10.4136C10.0422 10.3579 10.0057 10.2816 10 10.2V5.33871H8.06451Z" fill="#B3B8CB"/>
<path d="M10 0.5C8.42841 0.501125 6.87921 0.872648 5.47805 1.58444C4.0769 2.29623 2.86323 3.32824 1.93548 4.59677V1.79032H0V7.91935H6.12903V5.98387H3.33226C4.41888 4.38669 6.04273 3.23262 7.9084 2.7316C9.77407 2.23059 11.7576 2.41591 13.4982 3.25387C15.2387 4.09183 16.6207 5.52674 17.3926 7.29758C18.1646 9.06842 18.2752 11.0575 17.7044 12.903C17.1336 14.7486 15.9193 16.3279 14.2824 17.3537C12.6455 18.3795 10.6948 18.7837 8.78504 18.4926C6.87532 18.2016 5.1335 17.2347 3.87645 15.7679C2.61941 14.3011 1.93065 12.4318 1.93548 10.5C1.93548 10.3903 1.93548 10.2839 1.93548 10.1774H0C0 10.2839 0 10.3903 0 10.5C0 12.4778 0.586489 14.4112 1.6853 16.0557C2.78412 17.7002 4.3459 18.9819 6.17316 19.7388C8.00043 20.4957 10.0111 20.6937 11.9509 20.3078C13.8907 19.922 15.6725 18.9696 17.0711 17.5711C18.4696 16.1725 19.422 14.3907 19.8078 12.4509C20.1937 10.5111 19.9957 8.50043 19.2388 6.67316C18.4819 4.8459 17.2002 3.28412 15.5557 2.1853C13.9112 1.08649 11.9778 0.5 10 0.5Z" fill="#B3B8CB"/>
</svg>
