<svg width="40" height="19" viewBox="0 0 40 19" fill="none" xmlns="http://www.w3.org/2000/svg">
<path d="M27.211 5.371L21.812 1.186V3.865H15.584V6.878H21.812V9.555L27.211 5.371Z" stroke="black" stroke-width="1.1487" stroke-miterlimit="10" stroke-linecap="round" stroke-linejoin="round"/>
<path d="M13.2869 13.442L18.6839 17.627V14.948H24.9119V11.935H18.6839V9.25702L13.2869 13.442Z" stroke="black" stroke-width="1.1487" stroke-miterlimit="10" stroke-linecap="round" stroke-linejoin="round"/>
<path d="M5.96806 8.616C7.79281 8.616 9.27206 7.13675 9.27206 5.312C9.27206 3.48725 7.79281 2.008 5.96806 2.008C4.14331 2.008 2.66406 3.48725 2.66406 5.312C2.66406 7.13675 4.14331 8.616 5.96806 8.616Z" stroke="black" stroke-width="1.1487" stroke-miterlimit="10" stroke-linecap="round" stroke-linejoin="round"/>
<path d="M10.776 17.627V12.855C10.776 11.044 9.30796 9.57599 7.49696 9.57599H4.43796C2.62696 9.57599 1.15796 11.044 1.15796 12.855V17.627H10.776Z" stroke="black" stroke-width="1.1487" stroke-miterlimit="10" stroke-linecap="round" stroke-linejoin="round"/>
<path d="M34.0328 8.61702C35.8581 8.61702 37.3378 7.13732 37.3378 5.31202C37.3378 3.48672 35.8581 2.00702 34.0328 2.00702C32.2075 2.00702 30.7278 3.48672 30.7278 5.31202C30.7278 7.13732 32.2075 8.61702 34.0328 8.61702Z" stroke="black" stroke-width="1.1487" stroke-miterlimit="10" stroke-linecap="round" stroke-linejoin="round"/>
<path d="M38.8409 17.627V12.855C38.8409 11.044 37.3729 9.57602 35.5639 9.57602H32.5029C30.6909 9.57602 29.2229 11.044 29.2229 12.855V17.627H38.8409Z" stroke="black" stroke-width="1.1487" stroke-miterlimit="10" stroke-linecap="round" stroke-linejoin="round"/>
</svg>
