<svg width="25" height="24" viewBox="0 0 25 24" fill="none" xmlns="http://www.w3.org/2000/svg">
<path fill-rule="evenodd" clip-rule="evenodd" d="M22.65 14.39L12 22.13L1.34999 14.39C1.0571 14.1746 0.936029 13.7952 1.04999 13.45L2.26999 9.67001L4.70999 2.16001C4.73365 2.09881 4.77133 2.04402 4.81999 2.00001C4.98422 1.84999 5.23575 1.84999 5.39999 2.00001C5.45137 2.04967 5.48923 2.11163 5.50999 2.18001L7.94999 9.67001H16.05L18.49 2.16001C18.5137 2.09881 18.5513 2.04402 18.6 2.00001C18.7642 1.84999 19.0158 1.84999 19.18 2.00001C19.2314 2.04967 19.2692 2.11163 19.29 2.18001L21.73 9.69001L23 13.45C23.1037 13.8063 22.9615 14.1884 22.65 14.39Z" stroke="black" stroke-width="2" stroke-linecap="round" stroke-linejoin="round"/>
</svg>
