<svg width="172" height="53" viewBox="0 0 172 53" fill="none" xmlns="http://www.w3.org/2000/svg">
<path d="M78.9141 31.9694H78.8732C78.172 34.6219 75.9842 36.3358 72.3096 36.3358C66.3653 36.3358 62.6908 32.0909 62.6908 25.6842C62.6908 19.6027 66.9424 15.521 72.5156 15.521C75.942 15.521 78.0479 16.8705 78.9141 19.1537H78.9563V15.8449H85.1935V44.0858H78.9141V31.9694ZM78.9141 26.1333V25.1125C78.9141 22.2147 76.8913 20.2554 73.8373 20.2554C70.9061 20.2554 68.9242 22.4638 68.9242 25.7247C68.9242 29.2348 70.8229 31.6013 73.7132 31.6013C76.8504 31.6013 78.9141 29.393 78.9141 26.1296V26.1333Z" fill="#1C373E"/>
<path d="M89.2341 15.8449H95.5098L95.2616 21.5988H95.3447C96.2134 17.7625 98.3988 15.5173 102.403 15.5173C106.573 15.5173 109.009 18.171 109.009 23.395C109.009 24.5372 108.885 26.3333 108.802 27.3945H103.106C103.188 26.413 103.23 25.3947 103.23 24.7825C103.23 21.8442 102.032 20.6603 100.051 20.6603C97.3675 20.6603 95.5098 22.8232 95.5098 27.3123V36.0058H89.2341V15.8449Z" fill="#1C373E"/>
<path d="M112.683 8.78174H118.957V13.7223H112.683V8.78174ZM112.683 15.8423H118.957V36.0056H112.683V15.8423Z" fill="#1C373E"/>
<path d="M124.819 29.068V20.6604H121.802V15.845H124.238C125.188 15.845 125.518 15.3137 125.642 14.0893L125.931 11.2676H131.091V15.845H137.614V20.6604H131.091V28.7416C131.091 30.8273 132.084 31.475 134.558 31.475C135.517 31.47 136.473 31.3743 137.413 31.1892V35.8831C136.11 36.1635 134.782 36.3139 133.449 36.3321C127.089 36.3321 124.819 33.557 124.819 29.068Z" fill="#1C373E"/>
<path d="M141.248 8.78174H147.523V13.7223H141.248V8.78174ZM141.248 15.8423H147.523V36.0056H141.248V15.8423Z" fill="#1C373E"/>
<path d="M151.279 25.9652C151.279 19.3954 155.614 15.5173 161.888 15.5173C167.875 15.5173 171.796 18.8237 171.796 24.4145H166.264C166.223 21.8025 164.651 20.2518 162.095 20.2518C159.164 20.2518 157.553 22.2515 157.553 25.9247C157.553 29.4752 159.205 31.5977 161.971 31.5977C164.654 31.5977 166.264 30.0874 166.306 27.5172H171.837C171.837 33.3116 167.667 36.3321 161.641 36.3321C155.531 36.3321 151.279 32.4957 151.279 25.9652Z" fill="#1C373E"/>
<path d="M49.1602 0H4.43278C1.98462 0 0 1.96203 0 4.38232V48.6005C0 51.0208 1.98462 52.9828 4.43278 52.9828H49.1602C51.6084 52.9828 53.593 51.0208 53.593 48.6005V4.38232C53.593 1.96203 51.6084 0 49.1602 0Z" fill="#00B2BB"/>
<path d="M30.1498 44.1152H12.9969C11.9439 44.1127 10.9343 43.6996 10.1874 42.9657C9.81731 42.6018 9.52399 42.1689 9.32439 41.6921C9.12479 41.2153 9.02288 40.7041 9.02456 40.1881V12.7226C9.02456 11.6813 9.44294 10.6828 10.1877 9.94651C10.9324 9.21025 11.9425 8.79663 12.9957 8.79663H40.5951C41.6483 8.79663 42.6584 9.21025 43.4031 9.94651C44.1479 10.6828 44.5663 11.6813 44.5663 12.7226V29.9291H37.4033V15.8792H16.1949V37.0314H30.1547L30.1498 44.1152Z" fill="white"/>
<path d="M44.5575 38.1821V37.0276H37.3772V44.1274H38.9793H44.5575V38.1821Z" fill="white"/>
<path d="M30.1498 44.1458H12.9969C11.9437 44.1427 10.9342 43.7292 10.1874 42.995C9.81735 42.6313 9.52404 42.1986 9.32444 41.722C9.12484 41.2454 9.02291 40.7344 9.02456 40.2186V12.7531C9.02456 11.7119 9.44294 10.7133 10.1877 9.97703C10.9324 9.24077 11.9425 8.82715 12.9957 8.82715H40.5951C41.6483 8.82715 42.6584 9.24077 43.4031 9.97703C44.1479 10.7133 44.5663 11.7119 44.5663 12.7531V29.9584H37.4033V15.9098H16.1949V37.0619H30.1547L30.1498 44.1458Z" fill="white"/>
<path d="M44.5575 38.2116V37.0583H37.3772V44.1569H38.9793H44.5575V38.2116Z" fill="white"/>
</svg>
