<svg width="24" height="24" viewBox="0 0 24 24" fill="none" xmlns="http://www.w3.org/2000/svg">
<path d="M11.3874 12.6032C10.9971 12.2125 10.3639 12.2122 9.97321 12.6026C9.58251 12.9929 9.58223 13.6261 9.97258 14.0168L11.3874 12.6032ZM14.09 15.91L13.5957 16.7793C13.987 17.0018 14.4788 16.9354 14.7971 16.6171L14.09 15.91ZM15.36 14.64L14.6569 13.9289L14.6529 13.9329L15.36 14.64ZM17.47 14.19L17.1181 15.1261L17.1204 15.1269L17.47 14.19ZM20.28 14.89L20.42 13.8998L20.4108 13.8986L20.28 14.89ZM22 16.89L21 16.8802V16.89H22ZM22 19.89H21L21 19.8941L22 19.89ZM21.3521 21.3719L20.676 20.635L21.3521 21.3719ZM19.82 21.89L19.712 22.8841C19.718 22.8848 19.724 22.8854 19.73 22.8859L19.82 21.89ZM11.19 18.82L11.7341 17.9809L11.726 17.9758L11.19 18.82ZM8.5675 15.4433C8.17719 15.0525 7.54403 15.0522 7.15329 15.4425C6.76255 15.8328 6.76219 16.466 7.1525 16.8567L8.5675 15.4433ZM4.35098 13.3541C4.65148 13.8175 5.27072 13.9495 5.7341 13.649C6.19748 13.3485 6.32952 12.7293 6.02902 12.2659L4.35098 13.3541ZM2.12 4.18L1.12406 4.27C1.1246 4.27601 1.1252 4.28202 1.12585 4.28802L2.12 4.18ZM2.63477 2.65162L3.37333 3.32581V3.32581L2.63477 2.65162ZM4.11 2V0.999999L4.10906 1L4.11 2ZM7.11 2V3.00005L7.11984 2.99995L7.11 2ZM9.11 3.72L10.1015 3.58924L10.1002 3.58005L9.11 3.72ZM9.81 6.53L8.8731 6.87961L8.87395 6.88186L9.81 6.53ZM9.36 8.64L10.0671 9.34712L10.0711 9.34314L9.36 8.64ZM7.38289 9.20289C6.99237 9.59342 6.99237 10.2266 7.38289 10.6171C7.77342 11.0076 8.40658 11.0076 8.79711 10.6171L7.38289 9.20289ZM9.97258 14.0168C11.0509 15.096 12.2695 16.0252 13.5957 16.7793L14.5843 15.0407C13.4141 14.3753 12.3388 13.5555 11.3874 12.6032L9.97258 14.0168ZM14.7971 16.6171L16.0671 15.3471L14.6529 13.9329L13.3829 15.2029L14.7971 16.6171ZM16.0631 15.3511C16.3407 15.0765 16.7527 14.9887 17.1181 15.1261L17.8219 13.2539C16.7255 12.8418 15.4897 13.1054 14.6569 13.9289L16.0631 15.3511ZM17.1204 15.1269C18.0983 15.4918 19.1144 15.7449 20.1492 15.8814L20.4108 13.8986C19.5255 13.7818 18.6562 13.5653 17.8196 13.2531L17.1204 15.1269ZM20.14 15.8802C20.6371 15.9504 21.005 16.3782 21 16.8802L23 16.8998C23.0148 15.394 21.911 14.1106 20.42 13.8998L20.14 15.8802ZM21 16.89V19.89H23V16.89H21ZM21 19.8941C21.0012 20.1756 20.8835 20.4446 20.676 20.635L22.0281 22.1087C22.6506 21.5377 23.0034 20.7307 23 19.8859L21 19.8941ZM20.676 20.635C20.4686 20.8253 20.1904 20.9194 19.91 20.8941L19.73 22.8859C20.5713 22.962 21.4057 22.6798 22.0281 22.1087L20.676 20.635ZM19.928 20.8959C17.0063 20.5784 14.1999 19.58 11.7341 17.981L10.6459 19.659C13.3741 21.4283 16.4793 22.5329 19.712 22.8841L19.928 20.8959ZM11.726 17.9758C10.5833 17.2502 9.5241 16.4009 8.5675 15.4433L7.1525 16.8567C8.21296 17.9184 9.38721 18.8599 10.654 19.6642L11.726 17.9758ZM6.02902 12.2659C4.42998 9.80013 3.43161 6.99365 3.11415 4.07198L1.12585 4.28802C1.47711 7.52068 2.58174 10.6259 4.35098 13.3541L6.02902 12.2659ZM3.11594 4.09C3.09068 3.81043 3.18408 3.53312 3.37333 3.32581L1.89621 1.97743C1.32847 2.59938 1.04827 3.43131 1.12406 4.27L3.11594 4.09ZM3.37333 3.32581C3.56257 3.11849 3.83024 3.00026 4.11094 3L4.10906 1C3.26695 1.00079 2.46395 1.35548 1.89621 1.97743L3.37333 3.32581ZM4.11 3H7.11V0.999999H4.11V3ZM7.11984 2.99995C7.62177 2.99501 8.04959 3.36293 8.11984 3.85995L10.1002 3.58005C9.88941 2.089 8.60596 0.985227 7.10016 1.00005L7.11984 2.99995ZM8.11859 3.85076C8.25507 4.88559 8.50819 5.90167 8.8731 6.8796L10.7469 6.18039C10.4347 5.34378 10.2182 4.47454 10.1014 3.58924L8.11859 3.85076ZM8.87395 6.88186C9.01132 7.2473 8.92346 7.65926 8.64895 7.93686L10.0711 9.34314C10.8946 8.51035 11.1582 7.27445 10.7461 6.17814L8.87395 6.88186ZM8.65289 7.93289L7.38289 9.20289L8.79711 10.6171L10.0671 9.34711L8.65289 7.93289Z" fill="black"/>
<path d="M23 1L1 23" stroke="black" stroke-width="2" stroke-linecap="round" stroke-linejoin="round"/>
</svg>
