<svg width="78" height="59" viewBox="0 0 78 59" fill="none" xmlns="http://www.w3.org/2000/svg">
<path d="M2.19188 27.9833L3.68948 29.0935C3.78958 29.1702 3.92218 29.1897 4.04048 29.1507L5.80978 28.567C6.16338 28.45 6.45978 28.8608 6.23618 29.1572L5.12728 30.6574C5.05188 30.7549 5.03108 30.8888 5.07008 31.0058L5.65378 32.7803C5.77078 33.1326 5.35998 33.4303 5.06488 33.2054L3.56338 32.0952C3.46328 32.0211 3.33198 31.999 3.21628 32.0393L1.44178 32.6204C1.08948 32.74 0.793082 32.3279 1.01408 32.0302L2.12688 30.5313C2.20098 30.4325 2.22178 30.3025 2.18278 30.1829L1.60038 28.411C1.47948 28.0535 1.88898 27.7584 2.19188 27.9833Z" fill="#00ADDD"/>
<path d="M62.2857 47.4885L63.5779 48.4427C63.6663 48.509 63.7729 48.5246 63.8756 48.4934L65.4044 47.9916C65.7086 47.8876 65.966 48.2412 65.7697 48.4986L64.8129 49.7908C64.7492 49.8766 64.7362 49.9858 64.7674 50.0885L65.2705 51.616C65.3693 51.9189 65.0196 52.1724 64.7596 51.9839L63.47 51.0258C63.3855 50.9634 63.2724 50.9452 63.171 50.9764L61.6422 51.4821C61.3393 51.5835 61.0832 51.2312 61.2769 50.9738L62.2337 49.679C62.2961 49.5932 62.3169 49.484 62.2818 49.38L61.7774 47.8564C61.6773 47.5483 62.0283 47.2948 62.2857 47.4885Z" fill="#F9C32C"/>
<path d="M8.60474 18.3594L9.65514 19.1394C9.72794 19.1875 9.81634 19.2057 9.89954 19.1771L11.141 18.7689C11.3867 18.6857 11.5947 18.9717 11.4387 19.1823L10.66 20.2314C10.608 20.3042 10.5937 20.3887 10.6184 20.4758L11.0266 21.7173C11.1111 21.963 10.8251 22.1723 10.6145 22.015L9.56284 21.2376C9.49265 21.1843 9.40554 21.1739 9.31974 21.1999L8.08084 21.6081C7.83254 21.6887 7.62454 21.4027 7.78314 21.1947L8.55924 20.1456C8.61254 20.0741 8.62554 19.9831 8.59824 19.9012L8.19134 18.6584C8.11074 18.4114 8.39934 18.2047 8.60474 18.3594Z" fill="#00ADDD"/>
<path d="M58.3753 54.6788L59.2788 55.3496C59.3412 55.3951 59.4192 55.4055 59.4894 55.3821L60.558 55.0311C60.7725 54.9583 60.9506 55.2053 60.8141 55.386L60.1446 56.2882C60.1004 56.348 60.0874 56.4286 60.1108 56.4975L60.4618 57.5661C60.5359 57.7819 60.2889 57.96 60.1069 57.8222L59.2034 57.1527C59.1449 57.1098 59.0656 57.0942 58.9941 57.1189L57.9268 57.4712C57.7136 57.5427 57.5355 57.2957 57.6694 57.1163L58.3389 56.2115C58.3844 56.1517 58.3974 56.075 58.3727 56.0022L58.0204 54.9336C57.9489 54.723 58.1959 54.5449 58.3753 54.6788Z" fill="#F9C32C"/>
<path d="M10.859 28.905L11.7066 29.5303C11.7625 29.5719 11.8353 29.5862 11.9016 29.5615L12.9026 29.2326C13.1015 29.1663 13.2679 29.3977 13.1444 29.5654L12.5191 30.4117C12.4736 30.4689 12.4632 30.5404 12.4866 30.6067L12.8168 31.609C12.8831 31.8079 12.6517 31.9743 12.4827 31.8508L11.6351 31.2216C11.5792 31.1787 11.5064 31.1683 11.4414 31.1917L10.4391 31.5219C10.2402 31.5882 10.0738 31.3568 10.1986 31.1891L10.8252 30.3415C10.8681 30.2856 10.8798 30.2115 10.8551 30.1465L10.5262 29.1455C10.4599 28.9453 10.69 28.7776 10.859 28.905Z" fill="#00ADDD"/>
<path d="M58.2895 40.982L44.256 27.0889L37.8782 21.1544C37.8782 21.1544 28.9862 21.755 24.5532 30.8186C20.8859 38.317 16.9976 52.7912 7.7312 46.1573C7.7312 46.1573 8.6568 47.5535 10.6276 49.1707C15.1464 52.8783 21.5606 52.8575 24.3322 48.9861C24.3322 48.9861 21.4332 53.3775 17.1302 53.826C19.8979 55.3418 25.9429 53.4867 26.9088 52.3232C26.9088 52.3232 25.2864 55.477 21.7894 56.6964C31.6382 61.0163 44.4991 60.2402 58.2895 40.982Z" fill="#F9C32C"/>
<path d="M58.2895 40.982C44.4991 60.2402 31.6382 61.0163 21.7894 56.6964C21.7894 56.6964 30.3356 61.3595 42.215 53.2397C52.1262 46.4654 55.2046 37.9504 55.2046 37.9504L58.2895 40.982Z" fill="#FFE978"/>
<path d="M76.7625 3.67459L74.754 1.71549C73.1901 0.190591 70.6564 0.330991 69.2706 2.02099L52.5552 22.3972C50.7313 21.7732 48.6916 21.9604 46.9964 22.9575L42.3112 18.3828C41.3037 17.4013 39.8581 17.023 38.5009 17.3857C36.885 17.8147 36.352 19.8427 37.548 21.0101L58.4117 41.3512C59.6116 42.5212 61.6279 41.9375 62.0153 40.3086C62.339 38.9449 61.9243 37.5084 60.922 36.5295L56.229 31.9548C57.1819 30.2349 57.3197 28.1965 56.6502 26.3869L76.6 9.16449C78.251 7.73449 78.3238 5.20209 76.7625 3.67459Z" fill="#00ADDD"/>
</svg>
