<svg width="30" height="27" viewBox="0 0 30 27" fill="none" xmlns="http://www.w3.org/2000/svg">
<path fill-rule="evenodd" clip-rule="evenodd" d="M19.8761 18.047C20.1399 18.321 20.1744 18.7429 19.9584 19.0561C17.3386 22.8553 15.0773 24.7925 12.8709 25.48C10.6291 26.1786 8.63263 25.5281 6.74363 24.6676C6.44777 24.5329 6.26288 24.2325 6.27588 23.9076C6.27692 23.8818 6.27919 23.8562 6.28265 23.8309C6.27106 23.8309 6.25947 23.8309 6.24789 23.8309C5.82303 23.8287 5.35175 23.7555 4.93138 23.5165C4.63389 23.3473 4.47743 23.008 4.54076 22.6727C3.78203 22.5174 3.02654 22.1771 2.36794 21.6159C1.95902 21.2675 1.65584 20.9406 1.45183 20.6961C1.34971 20.5738 1.27205 20.4716 1.21803 20.3971C1.19101 20.3599 1.16987 20.3295 1.15451 20.3068L1.13577 20.2788L1.12962 20.2694L1.12734 20.2659L1.1264 20.2644L1.12578 20.2635C1.12578 20.2635 1.12559 20.2632 1.7999 19.8327C1.7999 19.8327 2.14723 20.3768 2.88678 21.007C3.00509 21.1078 3.12723 21.2001 3.25241 21.2842C3.95694 21.7574 4.758 21.9703 5.51604 21.9734C6.55387 21.9776 8.04464 20.9168 8.56302 20.2635C8.56302 20.2635 7.59285 21.6218 6.86233 22.1696C6.51 22.4338 6.08932 22.6657 5.61625 22.7727C5.52184 22.794 5.42534 22.8104 5.32688 22.8211C5.81469 23.0985 6.51813 23.0679 7.19074 22.919C7.26113 22.9034 7.33119 22.8865 7.40063 22.8685C8.08026 22.6928 9.70416 21.6783 10 21.5C10 21.5 8.66229 22.9097 7.95582 23.4525C7.88751 23.505 7.81571 23.5562 7.7404 23.6055C7.54304 23.7347 7.32154 23.8504 7.07524 23.9396C7.40304 24.0889 7.72815 24.2288 8.05208 24.3545C11.3803 25.6459 14.584 25.4409 19.2998 18.6019L11.8408 10.856L12.0405 10.0813C12.1839 10.1183 12.3143 10.1944 12.417 10.3011L19.8761 18.047ZM8.11236 13.8555C7.89058 14.3264 7.66666 14.8679 7.43247 15.4342C6.48011 17.7371 5.35817 20.4502 3.52189 20.4925C3.45865 20.494 3.39458 20.4923 3.32963 20.4873C2.8666 20.4516 2.35935 20.2486 1.7999 19.8327L1.12578 20.2635C0.918035 19.9381 0.972152 19.5104 1.25469 19.2473C1.53722 18.9841 1.96737 18.9603 2.2772 19.1907C3.00679 19.7331 3.48245 19.7469 3.81181 19.6396C4.20251 19.5123 4.62714 19.1401 5.07909 18.4644C5.52101 17.8038 5.91718 16.9636 6.29891 16.0711C6.4264 15.773 6.55431 15.4638 6.68166 15.156C6.92151 14.5763 7.15936 14.0014 7.38861 13.5146C8.2831 11.6154 9.3416 10.6978 10.2869 10.2952C10.7524 10.097 11.1639 10.0356 11.4729 10.0282C11.6268 10.0245 11.7545 10.0342 11.8506 10.0465C11.8986 10.0527 11.9389 10.0595 11.9707 10.0657C11.9866 10.0688 12.0005 10.0718 12.0121 10.0745L12.028 10.0782L12.0346 10.0798L12.0377 10.0806L12.0391 10.081C12.0391 10.081 12.0405 10.0813 11.8408 10.856C11.8408 10.856 9.77584 10.3236 8.11236 13.8555Z" fill="black"/>
<path fill-rule="evenodd" clip-rule="evenodd" d="M19.9694 18.8274C20.4398 19.3123 21.514 18.8963 21.6964 18.2579C21.8488 17.7234 21.702 17.1469 21.309 16.7413L19.4689 14.8455C19.8828 14.181 19.9699 13.376 19.725 12.6472L28.1048 6.17927C28.7984 5.64214 28.8665 4.64019 28.2545 4.00728L27.467 3.19542C26.8538 2.56349 25.8207 2.57403 25.2311 3.21888L18.1194 10.9937C17.3867 10.7141 16.5539 10.7519 15.8489 11.1168L14.0121 9.22111C13.617 8.81435 13.0345 8.63876 12.4768 8.7583C12.2564 8.75802 10.7866 9.35948 11.7891 10.3978L19.9694 18.8274ZM12.3646 9.84221C12.3648 9.84243 12.3644 9.84198 12.3646 9.84221L20.5128 18.2387C20.5447 18.2402 20.6017 18.2351 20.6754 18.2092C20.7568 18.1806 20.8289 18.1366 20.8784 18.0916C20.9147 18.0588 20.9264 18.0374 20.9285 18.0335C20.9989 17.7801 20.9307 17.5006 20.7345 17.298C20.7345 17.298 20.7345 17.298 20.7345 17.298L18.459 14.9536L18.7899 14.4224C19.0758 13.9635 19.1365 13.4074 18.9667 12.902L18.7852 12.362L27.615 5.54677C27.6152 5.5466 27.6148 5.54695 27.615 5.54677C27.9272 5.30435 27.9634 4.85735 27.6796 4.56363C27.6795 4.56356 27.6797 4.5637 27.6796 4.56363L26.8928 3.75252C26.8928 3.75249 26.8929 3.75255 26.8928 3.75252C26.5956 3.44631 26.0956 3.45891 25.8215 3.75871L18.3425 11.9352L17.8341 11.7411C17.3093 11.5408 16.7143 11.5697 16.2166 11.8273L15.6884 12.1007L13.4382 9.77847C13.4381 9.77838 13.4382 9.77856 13.4382 9.77847C13.2365 9.57101 12.9346 9.47834 12.6444 9.54054L12.561 9.55841L12.5557 9.55841C12.5354 9.56587 12.5087 9.57671 12.478 9.59125C12.3917 9.63217 12.3168 9.68167 12.2681 9.72646C12.2868 9.75418 12.3173 9.79314 12.3646 9.84221Z" fill="black"/>
</svg>
