<svg width="130" height="130" viewBox="0 0 130 130" fill="none" xmlns="http://www.w3.org/2000/svg">
<path d="M32.1919 33.9833L33.6895 35.0935C33.7896 35.1702 33.9222 35.1897 34.0405 35.1507L35.8098 34.567C36.1634 34.45 36.4598 34.8608 36.2362 35.1572L35.1273 36.6574C35.0519 36.7549 35.0311 36.8888 35.0701 37.0058L35.6538 38.7803C35.7708 39.1326 35.36 39.4303 35.0649 39.2054L33.5634 38.0952C33.4633 38.0211 33.332 37.999 33.2163 38.0393L31.4418 38.6204C31.0895 38.74 30.7931 38.3279 31.0141 38.0302L32.1269 36.5313C32.201 36.4325 32.2218 36.3025 32.1828 36.1829L31.6004 34.411C31.4795 34.0535 31.889 33.7584 32.1919 33.9833Z" fill="#00ADDD"/>
<path d="M92.2857 53.4885L93.5779 54.4427C93.6663 54.509 93.7729 54.5246 93.8756 54.4934L95.4044 53.9916C95.7086 53.8876 95.966 54.2412 95.7697 54.4986L94.8129 55.7908C94.7492 55.8766 94.7362 55.9858 94.7674 56.0885L95.2705 57.616C95.3693 57.9189 95.0196 58.1724 94.7596 57.9839L93.47 57.0258C93.3855 56.9634 93.2724 56.9452 93.171 56.9764L91.6422 57.4821C91.3393 57.5835 91.0832 57.2312 91.2769 56.9738L92.2337 55.679C92.2961 55.5932 92.3169 55.484 92.2818 55.38L91.7774 53.8564C91.6773 53.5483 92.0283 53.2948 92.2857 53.4885Z" fill="#F9C32C"/>
<path d="M38.6047 24.3594L39.6551 25.1394C39.7279 25.1875 39.8163 25.2057 39.8995 25.1771L41.141 24.7689C41.3867 24.6857 41.5947 24.9717 41.4387 25.1823L40.66 26.2314C40.608 26.3042 40.5937 26.3887 40.6184 26.4758L41.0266 27.7173C41.1111 27.963 40.8251 28.1723 40.6145 28.015L39.5628 27.2376C39.4926 27.1843 39.4055 27.1739 39.3197 27.1999L38.0808 27.6081C37.8325 27.6887 37.6245 27.4027 37.7831 27.1947L38.5592 26.1456C38.6125 26.0741 38.6255 25.9831 38.5982 25.9012L38.1913 24.6584C38.1107 24.4114 38.3993 24.2047 38.6047 24.3594Z" fill="#00ADDD"/>
<path d="M88.3753 60.6788L89.2788 61.3496C89.3412 61.3951 89.4192 61.4055 89.4894 61.3821L90.558 61.0311C90.7725 60.9583 90.9506 61.2053 90.8141 61.386L90.1446 62.2882C90.1004 62.348 90.0874 62.4286 90.1108 62.4975L90.4618 63.5661C90.5359 63.7819 90.2889 63.96 90.1069 63.8222L89.2034 63.1527C89.1449 63.1098 89.0656 63.0942 88.9941 63.1189L87.9268 63.4712C87.7136 63.5427 87.5355 63.2957 87.6694 63.1163L88.3389 62.2115C88.3844 62.1517 88.3974 62.075 88.3727 62.0022L88.0204 60.9336C87.9489 60.723 88.1959 60.5449 88.3753 60.6788Z" fill="#F9C32C"/>
<path d="M40.859 34.905L41.7066 35.5303C41.7625 35.5719 41.8353 35.5862 41.9016 35.5615L42.9026 35.2326C43.1015 35.1663 43.2679 35.3977 43.1444 35.5654L42.5191 36.4117C42.4736 36.4689 42.4632 36.5404 42.4866 36.6067L42.8168 37.609C42.8831 37.8079 42.6517 37.9743 42.4827 37.8508L41.6351 37.2216C41.5792 37.1787 41.5064 37.1683 41.4414 37.1917L40.4391 37.5219C40.2402 37.5882 40.0738 37.3568 40.1986 37.1891L40.8252 36.3415C40.8681 36.2856 40.8798 36.2115 40.8551 36.1465L40.5262 35.1455C40.4599 34.9453 40.69 34.7776 40.859 34.905Z" fill="#00ADDD"/>
<path d="M88.2895 46.982L74.256 33.0889L67.8782 27.1544C67.8782 27.1544 58.9862 27.755 54.5532 36.8186C50.8859 44.317 46.9976 58.7912 37.7312 52.1573C37.7312 52.1573 38.6568 53.5535 40.6276 55.1707C45.1464 58.8783 51.5606 58.8575 54.3322 54.9861C54.3322 54.9861 51.4332 59.3775 47.1302 59.826C49.8979 61.3418 55.9429 59.4867 56.9088 58.3232C56.9088 58.3232 55.2864 61.477 51.7894 62.6964C61.6382 67.0163 74.4991 66.2402 88.2895 46.982Z" fill="#F9C32C"/>
<path d="M88.2895 46.982C74.4991 66.2402 61.6382 67.0163 51.7894 62.6964C51.7894 62.6964 60.3356 67.3595 72.215 59.2397C82.1262 52.4654 85.2046 43.9504 85.2046 43.9504L88.2895 46.982Z" fill="#FFE978"/>
<path d="M106.763 9.67459L104.754 7.71549C103.19 6.19059 100.656 6.33099 99.2706 8.02099L82.5552 28.3972C80.7313 27.7732 78.6916 27.9604 76.9964 28.9575L72.3112 24.3828C71.3037 23.4013 69.8581 23.023 68.5009 23.3857C66.885 23.8147 66.352 25.8427 67.548 27.0101L88.4117 47.3512C89.6116 48.5212 91.6279 47.9375 92.0153 46.3086C92.339 44.9449 91.9243 43.5084 90.922 42.5295L86.229 37.9548C87.1819 36.2349 87.3197 34.1965 86.6502 32.3869L106.6 15.1645C108.251 13.7345 108.324 11.2021 106.763 9.67459Z" fill="#00ADDD"/>
<path d="M5.69527 121.489C5.14537 121.489 4.64487 121.359 4.19637 121.101C3.74527 120.844 3.39167 120.488 3.13427 120.035C2.87817 119.582 2.74817 119.081 2.74817 118.531C2.74817 117.699 3.03027 117.007 3.59317 116.45C4.15607 115.892 4.86067 115.614 5.70567 115.614C6.42717 115.614 7.04467 115.822 7.56077 116.237C8.07557 116.653 8.40187 117.204 8.53967 117.89H7.04467C6.91987 117.623 6.74047 117.411 6.50387 117.257C6.26597 117.103 5.99687 117.025 5.69527 117.025C5.28967 117.025 4.95167 117.169 4.67997 117.458C4.40827 117.746 4.27307 118.106 4.27307 118.539C4.27307 118.972 4.41087 119.336 4.68517 119.632C4.95947 119.928 5.29747 120.076 5.69527 120.076C5.99687 120.076 6.26467 119.995 6.49867 119.833C6.73267 119.67 6.91337 119.439 7.04467 119.137H8.55917C8.42267 119.844 8.09247 120.412 7.56987 120.843C7.04857 121.274 6.42197 121.489 5.69527 121.489Z" fill="#1C373E"/>
<path d="M14.9486 118.531C14.9486 118.676 14.9369 118.824 14.9174 118.975H10.7119C10.7743 119.353 10.9238 119.644 11.1617 119.846C11.3983 120.048 11.7025 120.15 12.073 120.15C12.3265 120.15 12.5566 120.093 12.7633 119.98C12.9687 119.865 13.1299 119.709 13.2469 119.51H14.8342C14.6288 120.116 14.2778 120.596 13.7825 120.953C13.2885 121.309 12.7178 121.489 12.073 121.489C11.2488 121.489 10.5611 121.207 10.0112 120.644C9.46131 120.081 9.18701 119.383 9.18701 118.552C9.18701 118.223 9.23381 117.907 9.32611 117.604C9.41841 117.302 9.55231 117.031 9.72781 116.789C9.90331 116.549 10.1074 116.341 10.3414 116.167C10.5754 115.992 10.8393 115.857 11.1344 115.761C11.4295 115.665 11.7428 115.617 12.073 115.617C12.6294 115.617 13.1286 115.748 13.5719 116.008C14.0152 116.269 14.3558 116.624 14.5911 117.07C14.829 117.515 14.9486 118.002 14.9486 118.531ZM12.073 116.893C11.7363 116.893 11.4516 116.986 11.2228 117.172C10.994 117.357 10.8367 117.615 10.7548 117.944H13.4432C13.3743 117.718 13.2755 117.528 13.1455 117.373C13.0155 117.218 12.8582 117.1 12.6775 117.018C12.4929 116.934 12.2927 116.893 12.073 116.893Z" fill="#1C373E"/>
<path d="M19.0606 115.615C19.8991 115.615 20.5946 115.894 21.1458 116.451C21.6996 117.008 21.9765 117.708 21.9765 118.552C21.9765 119.397 21.6983 120.099 21.1406 120.66C20.5842 121.22 19.89 121.499 19.0593 121.499C18.4886 121.499 17.9764 121.345 17.5227 121.037V123.344H16.0186V115.77H17.0196L17.2757 116.276C17.7723 115.835 18.3664 115.615 19.0606 115.615ZM17.849 119.644C18.1337 119.933 18.4951 120.077 18.9306 120.077C19.3674 120.077 19.7288 119.933 20.0187 119.644C20.3073 119.356 20.4516 118.992 20.4516 118.551C20.4516 118.262 20.3853 118.002 20.2553 117.768C20.1253 117.534 19.9446 117.352 19.7145 117.221C19.4844 117.091 19.2257 117.026 18.9358 117.026C18.6472 117.026 18.3859 117.092 18.1519 117.221C17.9179 117.352 17.7385 117.534 17.6111 117.768C17.4837 118.002 17.4213 118.262 17.4213 118.551C17.4213 118.992 17.5643 119.356 17.849 119.644Z" fill="#1C373E"/>
<path d="M27.0465 118.377C27.3 118.494 27.4976 118.664 27.638 118.888C27.7784 119.111 27.8499 119.37 27.8499 119.666C27.8499 120.139 27.6822 120.537 27.3494 120.857C27.0166 121.176 26.5954 121.335 26.0871 121.335H23.0464V115.771H26.0546C26.5291 115.771 26.9191 115.904 27.2246 116.168C27.5288 116.433 27.6835 116.771 27.6835 117.183C27.6835 117.43 27.6263 117.659 27.5132 117.868C27.4001 118.078 27.2441 118.247 27.0465 118.377ZM26.2106 117.429C26.2106 117.318 26.1859 117.225 26.1378 117.144C26.0897 117.065 26.0234 117.005 25.9376 116.958C25.8518 116.914 25.753 116.892 25.6438 116.892H24.5206V117.963H25.6438C25.8089 117.963 25.9428 117.911 26.0494 117.809C26.156 117.706 26.2106 117.58 26.2106 117.429ZM25.7166 120.138C25.9025 120.138 26.0494 120.089 26.1599 119.99C26.2691 119.89 26.3237 119.752 26.3237 119.578C26.3237 119.404 26.2691 119.263 26.1599 119.161C26.0494 119.058 25.9025 119.007 25.7166 119.007H24.5206V120.139H25.7166V120.138Z" fill="#1C373E"/>
<path d="M33.0121 115.77H33.8571V121.334H32.4037V118.387L29.818 121.334H28.9626V115.77H30.416V118.686L33.0121 115.77Z" fill="#1C373E"/>
<path d="M37.8872 121.489C37.3373 121.489 36.8368 121.359 36.3883 121.101C35.9372 120.844 35.5836 120.488 35.3262 120.035C35.0701 119.582 34.9401 119.081 34.9401 118.531C34.9401 117.699 35.2222 117.007 35.7851 116.45C36.348 115.892 37.0526 115.614 37.8976 115.614C38.6191 115.614 39.2366 115.822 39.7527 116.237C40.2675 116.653 40.5938 117.204 40.7316 117.89H39.2379C39.1131 117.623 38.9337 117.411 38.6971 117.257C38.4592 117.103 38.1901 117.025 37.8885 117.025C37.4829 117.025 37.1449 117.169 36.8732 117.458C36.6015 117.746 36.4663 118.106 36.4663 118.539C36.4663 118.972 36.6041 119.336 36.8784 119.632C37.1527 119.928 37.4907 120.076 37.8885 120.076C38.1901 120.076 38.4579 119.995 38.6919 119.833C38.9259 119.67 39.1066 119.439 39.2379 119.137H40.7524C40.6159 119.844 40.2857 120.412 39.7631 120.843C39.2405 121.274 38.6139 121.489 37.8872 121.489Z" fill="#1C373E"/>
<path d="M46.8507 121.489C46.2813 121.489 45.7652 121.361 45.3063 121.107C44.8461 120.853 44.486 120.501 44.2286 120.051C43.9725 119.601 43.8425 119.102 43.8425 118.552C43.8425 117.708 44.1285 117.008 44.6979 116.451C45.2673 115.894 45.9849 115.615 46.8507 115.615C47.71 115.615 48.4237 115.894 48.9944 116.451C49.5638 117.008 49.8485 117.708 49.8485 118.552C49.8485 119.392 49.5612 120.09 48.9892 120.649C48.4159 121.208 47.7022 121.489 46.8507 121.489ZM46.8507 120.077C47.2836 120.077 47.6372 119.934 47.9115 119.649C48.1871 119.363 48.3236 118.998 48.3236 118.551C48.3236 118.105 48.1871 117.74 47.9115 117.454C47.6372 117.168 47.2823 117.026 46.8455 117.026C46.41 117.026 46.0538 117.168 45.7795 117.454C45.5052 117.74 45.3674 118.105 45.3674 118.551C45.3674 118.772 45.4038 118.977 45.4766 119.17C45.5481 119.362 45.6495 119.523 45.7795 119.655C45.9095 119.786 46.0668 119.889 46.2475 119.963C46.4308 120.039 46.631 120.077 46.8507 120.077Z" fill="#1C373E"/>
<path d="M55.7959 119.952H56.5187V122.612H55.1576V121.334H50.9326V115.77H52.4068V119.954H54.3243V115.77H55.7972V119.952H55.7959Z" fill="#1C373E"/>
<path d="M63.0408 118.531C63.0408 118.676 63.0291 118.824 63.0096 118.975H58.8054C58.8678 119.353 59.0173 119.644 59.2552 119.846C59.4918 120.048 59.796 120.15 60.1665 120.15C60.42 120.15 60.6501 120.093 60.8568 119.98C61.0622 119.865 61.2234 119.709 61.3404 119.51H62.9277C62.7223 120.116 62.3713 120.596 61.876 120.953C61.382 121.309 60.8113 121.489 60.1665 121.489C59.3423 121.489 58.6546 121.207 58.1047 120.644C57.5548 120.081 57.2805 119.383 57.2805 118.552C57.2805 118.223 57.3273 117.907 57.4196 117.604C57.5119 117.302 57.6458 117.031 57.8213 116.789C57.9968 116.549 58.2009 116.341 58.4349 116.167C58.6689 115.992 58.9328 115.857 59.2279 115.761C59.523 115.665 59.8363 115.617 60.1665 115.617C60.7229 115.617 61.2221 115.748 61.6654 116.008C62.1087 116.269 62.4493 116.624 62.6846 117.07C62.9212 117.515 63.0408 118.002 63.0408 118.531ZM60.1652 116.893C59.8285 116.893 59.5438 116.986 59.315 117.172C59.0862 117.357 58.9289 117.615 58.847 117.944H61.5354C61.4665 117.718 61.3677 117.528 61.2377 117.373C61.1077 117.218 60.9504 117.1 60.7697 117.018C60.5851 116.934 60.3849 116.893 60.1652 116.893Z" fill="#1C373E"/>
<path d="M67.635 115.77H69.1391V121.334H67.635V119.201H65.6148V121.334H64.1107V115.77H65.6148V117.831H67.635V115.77Z" fill="#1C373E"/>
<path d="M75.6951 121.334H73.8816L72.0876 118.676V121.334H70.5835V115.77H72.0876V118.243L73.7776 115.77H75.4884L73.6021 118.429L75.6951 121.334Z" fill="#1C373E"/>
<path d="M80.4036 115.77H81.2486V121.334H79.7952V118.387L77.2095 121.334H76.3541V115.77H77.8075V118.686L80.4036 115.77Z" fill="#1C373E"/>
<path d="M88.1426 115.77H89.6064V121.334H88.1426V119.531C87.8267 119.634 87.49 119.684 87.1338 119.684C86.4188 119.684 85.8506 119.474 85.4281 119.051C85.0056 118.629 84.795 118.057 84.795 117.337V115.77H86.2692V117.357C86.2692 118.037 86.5955 118.377 87.2481 118.377C87.5913 118.377 87.8904 118.305 88.1439 118.161V115.77H88.1426Z" fill="#1C373E"/>
<path d="M95.0976 115.77H95.9426V121.334H94.4892V118.387L91.9035 121.334H91.0481V115.77H92.5015V118.686L95.0976 115.77Z" fill="#1C373E"/>
<path d="M99.9726 121.489C99.4227 121.489 98.9222 121.359 98.4737 121.101C98.0226 120.844 97.669 120.488 97.4116 120.035C97.1555 119.582 97.0255 119.081 97.0255 118.531C97.0255 117.699 97.3076 117.007 97.8705 116.45C98.4334 115.892 99.138 115.614 99.983 115.614C100.705 115.614 101.322 115.822 101.838 116.237C102.353 116.653 102.679 117.204 102.817 117.89H101.322C101.197 117.623 101.018 117.411 100.781 117.257C100.543 117.103 100.274 117.025 99.9726 117.025C99.567 117.025 99.229 117.169 98.9573 117.458C98.6856 117.746 98.5504 118.106 98.5504 118.539C98.5504 118.972 98.6882 119.336 98.9625 119.632C99.2368 119.928 99.5748 120.076 99.9726 120.076C100.274 120.076 100.542 119.995 100.776 119.833C101.01 119.67 101.191 119.439 101.322 119.137H102.837C102.7 119.844 102.37 120.412 101.847 120.843C101.326 121.274 100.701 121.489 99.9726 121.489Z" fill="#1C373E"/>
<path d="M108.391 115.77V117.12H106.577V121.334H105.105V117.12H103.29V115.77H108.391Z" fill="#1C373E"/>
<path d="M111.946 121.489C111.376 121.489 110.86 121.361 110.401 121.107C109.941 120.853 109.581 120.501 109.323 120.051C109.067 119.601 108.937 119.102 108.937 118.552C108.937 117.708 109.223 117.008 109.793 116.451C110.362 115.894 111.08 115.615 111.946 115.615C112.805 115.615 113.519 115.894 114.089 116.451C114.659 117.008 114.943 117.708 114.943 118.552C114.943 119.392 114.656 120.09 114.084 120.649C113.511 121.208 112.798 121.489 111.946 121.489ZM111.946 120.077C112.378 120.077 112.732 119.934 113.006 119.649C113.282 119.363 113.418 118.998 113.418 118.551C113.418 118.105 113.282 117.74 113.006 117.454C112.732 117.168 112.377 117.026 111.94 117.026C111.505 117.026 111.149 117.168 110.874 117.454C110.6 117.74 110.462 118.105 110.462 118.551C110.462 118.772 110.499 118.977 110.571 119.17C110.643 119.362 110.744 119.523 110.874 119.655C111.004 119.786 111.162 119.889 111.342 119.963C111.526 120.039 111.726 120.077 111.946 120.077Z" fill="#1C373E"/>
<path d="M120.592 115.77V117.12H118.777V121.334H117.304V117.12H115.489V115.77H120.592Z" fill="#1C373E"/>
<path d="M123.889 117.295C124.535 117.295 125.053 117.481 125.445 117.851C125.836 118.223 126.032 118.711 126.032 119.315C126.032 119.92 125.836 120.407 125.445 120.779C125.053 121.15 124.535 121.335 123.889 121.335H121.498V115.772H122.972V117.296H123.889V117.295ZM123.735 120.087C123.989 120.087 124.189 120.019 124.332 119.881C124.476 119.744 124.549 119.557 124.549 119.319C124.549 119.081 124.476 118.894 124.332 118.752C124.189 118.612 123.989 118.54 123.735 118.54H122.972V120.086H123.735V120.087ZM126.959 115.77H128.463V121.334H126.959V115.77Z" fill="#1C373E"/>
<path d="M36.4572 104.841L31.7174 109.112L27.6809 105.076C25.1771 106.358 22.2833 107 18.9969 107C16.1811 107 13.6474 106.531 11.3932 105.591C9.14032 104.653 7.30212 103.386 5.87862 101.79C4.45382 100.194 3.37352 98.3788 2.64032 96.3456C1.90452 94.3124 1.53662 92.1674 1.53662 89.9158C1.53662 87.6629 1.90322 85.5192 2.64032 83.486C3.37352 81.4528 4.45512 79.6367 5.87862 78.0416C7.30212 76.4452 9.14032 75.179 11.3932 74.2391C13.6461 73.3005 16.1811 72.8312 18.9969 72.8312C21.814 72.8312 24.3477 73.3005 26.6019 74.2391C28.8535 75.179 30.6917 76.4452 32.1165 78.0416C33.54 79.638 34.6203 81.4528 35.3548 83.486C36.0893 85.5192 36.4585 87.6629 36.4585 89.9158C36.4585 94.2656 35.191 97.9888 32.656 101.087L36.4572 104.841ZM8.71652 89.9158C8.71652 92.9513 9.60962 95.4694 11.3932 97.4714C13.1768 99.4747 15.7105 100.476 18.9969 100.476C20.2488 100.476 21.4071 100.273 22.4705 99.866L18.5289 95.9231L23.0347 91.4641L27.5405 95.9231C28.6676 94.2331 29.2305 92.2311 29.2305 89.9158C29.2305 86.8803 28.3387 84.3466 26.5551 82.3108C24.7715 80.2776 22.2521 79.2597 18.9982 79.2597C15.7131 79.2597 13.1781 80.2685 11.3945 82.2874C9.61092 84.3063 8.71652 86.8491 8.71652 89.9158Z" fill="#00ADDD"/>
<path d="M40.7759 72.0785H47.3006V106.343H40.7759V72.0785Z" fill="#00ADDD"/>
<path d="M51.6633 95.0794C51.6633 93.0462 52.0221 91.2379 52.7436 89.6571C53.4625 88.0776 54.4089 86.8335 55.5841 85.9261C56.7567 85.02 57.993 84.3297 59.2917 83.8604C60.5904 83.3924 61.9125 83.1571 63.258 83.1571C65.5109 83.1571 67.4583 83.5796 69.1015 84.4246C70.7447 85.2696 71.9563 86.3564 72.7402 87.6876C73.5215 89.0175 74.0623 90.5203 74.3587 92.1934C74.6564 93.8678 74.5693 95.5331 74.1013 97.1919H58.2348C58.5793 98.7571 59.4867 99.9232 60.9583 100.689C62.4286 101.456 64.1654 101.839 66.1674 101.839C68.6387 101.839 70.9085 101.386 72.9729 100.477V105.594C70.7512 106.534 67.9978 107.003 64.7127 107.003C60.9583 107.003 57.8448 105.954 55.3722 103.857C52.8996 101.759 51.6633 98.8325 51.6633 95.0794ZM68.2318 92.9669C68.3878 91.9347 68.0914 90.8713 67.34 89.7754C66.5886 88.6795 65.3055 88.1322 63.4907 88.1322C62.0516 88.1322 60.8153 88.5625 59.7831 89.4231C58.7496 90.2837 58.2179 91.4641 58.1854 92.9669H68.2318Z" fill="#00ADDD"/>
<path d="M98.7415 100.522C98.7415 101.525 99.2732 102.025 100.338 102.025C100.776 102.025 101.183 101.962 101.559 101.837V106.107C100.369 106.545 99.164 106.765 97.9446 106.765C95.5656 106.765 93.9081 105.92 92.9695 104.23C90.6217 106.077 87.9151 107 84.8497 107C82.6267 107 80.7586 106.382 79.2402 105.145C77.7231 103.91 76.9639 102.228 76.9639 100.1C76.9639 98.3164 77.4956 96.8292 78.5603 95.6397C79.6237 94.4515 80.8613 93.6455 82.2692 93.223C83.6771 92.8018 85.2111 92.5899 86.8686 92.5899C88.7146 92.5899 90.4982 92.794 92.2194 93.2009V92.4027C92.2194 91.2457 91.7657 90.3214 90.8583 89.6337C89.9509 88.946 88.6366 88.6015 86.9154 88.6015C84.4116 88.6015 81.7518 89.1644 78.936 90.2915V84.6586C81.9403 83.6563 84.851 83.1571 87.6668 83.1571C95.0521 83.1571 98.7441 86.5514 98.7441 93.3426V100.522H98.7415ZM88.3701 96.4873C87.0233 96.4873 85.8975 96.7369 84.9901 97.2374C84.0814 97.7392 83.6277 98.5205 83.6277 99.5852C83.6277 100.399 83.9644 101.065 84.6365 101.579C85.3099 102.095 86.1458 102.354 87.1481 102.354C89.1202 102.354 90.8089 101.744 92.2168 100.524V97.0047C90.7777 96.6602 89.4959 96.4873 88.3701 96.4873Z" fill="#00ADDD"/>
<path d="M110.428 86.6775C112.462 84.3297 114.964 83.1571 117.937 83.1571C120.817 83.1571 123.061 84.0255 124.674 85.7623C126.285 87.4991 127.091 89.713 127.091 92.4027V106.344H120.566V93.2477C120.566 91.7774 120.167 90.6659 119.369 89.9158C118.572 89.1644 117.515 88.7887 116.199 88.7887C114.166 88.7887 112.492 89.7442 111.177 91.6526V106.344H104.653V83.8136H110.426V86.6775H110.428Z" fill="#00ADDD"/>
</svg>
