<svg width="32" height="32" viewBox="0 0 32 32" fill="none" xmlns="http://www.w3.org/2000/svg">
<circle cx="16" cy="16" r="16" fill="#B145F3"/>
<circle cx="16" cy="16" r="16" fill="white" fill-opacity="0.8"/>
<path d="M16.7331 9.00633C16.5026 8.29639 15.4982 8.29639 15.2669 9.00633L14.0961 12.6092C14.0456 12.7639 13.9475 12.8986 13.8159 12.9942C13.6842 13.0897 13.5257 13.1411 13.363 13.1411H9.57512C8.82895 13.1411 8.51753 14.0969 9.12187 14.5363L12.1867 16.7625C12.3184 16.8582 12.4163 16.9931 12.4666 17.1479C12.5169 17.3027 12.5168 17.4695 12.4665 17.6242L11.2964 21.2271C11.0651 21.9371 11.8784 22.5283 12.4819 22.0889L15.5468 19.8627C15.6785 19.767 15.8372 19.7154 16 19.7154C16.1629 19.7154 16.3215 19.767 16.4533 19.8627L19.5181 22.0889C20.1217 22.5283 20.9349 21.9378 20.7036 21.2271L19.5335 17.6242C19.4832 17.4695 19.4832 17.3027 19.5334 17.1479C19.5837 16.9931 19.6817 16.8582 19.8133 16.7625L22.8782 14.5363C23.4817 14.0969 23.1718 13.1411 22.4249 13.1411H18.6363C18.4737 13.141 18.3154 13.0895 18.1838 12.9939C18.0523 12.8984 17.9544 12.7637 17.904 12.6092L16.7331 9.00633Z" fill="#B145F3"/>
</svg>
