<svg width="24" height="24" viewBox="0 0 24 24" fill="none" xmlns="http://www.w3.org/2000/svg">
<path fill-rule="evenodd" clip-rule="evenodd" d="M12 14C13.1046 14 14 13.1046 14 12C14 10.8954 13.1046 10 12 10C10.8954 10 10 10.8954 10 12C10 13.1046 10.8954 14 12 14Z" stroke="black" stroke-width="2" stroke-linecap="round" stroke-linejoin="round"/>
<path d="M16.9467 7.05249C16.5559 6.66219 15.9227 6.66254 15.5324 7.05328C15.1421 7.44402 15.1425 8.07719 15.5332 8.46749L16.9467 7.05249ZM15.5332 15.5425C15.1425 15.9328 15.1421 16.566 15.5324 16.9567C15.9227 17.3474 16.5559 17.3478 16.9467 16.9575L15.5332 15.5425ZM7.05323 16.9475C7.44397 17.3378 8.07713 17.3374 8.46744 16.9467C8.85775 16.556 8.85739 15.9228 8.46665 15.5325L7.05323 16.9475ZM8.46665 8.45749C8.85739 8.06719 8.85775 7.43402 8.46744 7.04328C8.07713 6.65254 7.44397 6.65219 7.05323 7.04249L8.46665 8.45749ZM19.0699 4.92999L19.7772 4.22299C19.4912 3.93693 19.061 3.85132 18.6873 4.00608C18.3136 4.16085 18.0699 4.5255 18.0699 4.92999H19.0699ZM19.0699 19.07H18.0699C18.0699 19.4745 18.3136 19.8391 18.6873 19.9939C19.061 20.1487 19.4912 20.0631 19.7772 19.777L19.0699 19.07ZM4.92994 19.07L4.22273 19.777C4.5087 20.0631 4.93884 20.1487 5.31255 19.9939C5.68626 19.8391 5.92994 19.4745 5.92994 19.07H4.92994ZM4.92994 4.92999H5.92994C5.92994 4.5255 5.68626 4.16085 5.31255 4.00608C4.93884 3.85132 4.5087 3.93693 4.22273 4.22299L4.92994 4.92999ZM15.5332 8.46749C16.4721 9.40533 16.9997 10.6779 16.9997 12.005H18.9997C18.9997 10.1471 18.2611 8.36547 16.9467 7.05249L15.5332 8.46749ZM16.9997 12.005C16.9997 13.332 16.4721 14.6047 15.5332 15.5425L16.9467 16.9575C18.2611 15.6445 18.9997 13.8629 18.9997 12.005H16.9997ZM8.46665 15.5325C7.52777 14.5947 7.00022 13.322 7.00022 11.995H5.00022C5.00022 13.8529 5.73879 15.6345 7.05323 16.9475L8.46665 15.5325ZM7.00022 11.995C7.00022 10.6679 7.52777 9.39533 8.46665 8.45749L7.05323 7.04249C5.73879 8.35547 5.00022 10.1371 5.00022 11.995H7.00022ZM18.3627 5.63699C21.8762 9.15149 21.8762 14.8485 18.3627 18.363L19.7772 19.777C24.0714 15.4815 24.0714 8.51849 19.7772 4.22299L18.3627 5.63699ZM20.0699 19.07V4.92999H18.0699V19.07H20.0699ZM5.63715 18.363C2.12372 14.8485 2.12372 9.15149 5.63715 5.63699L4.22273 4.22299C-0.071475 8.51849 -0.071475 15.4815 4.22273 19.777L5.63715 18.363ZM3.92994 4.92999V19.07H5.92994V4.92999H3.92994Z" fill="black"/>
</svg>
