<svg width="65" height="64" viewBox="0 0 65 64" fill="none" xmlns="http://www.w3.org/2000/svg">
<path d="M54.9461 9.37134C48.8984 3.3237 40.8641 0 32.3174 0C23.7707 0 15.7364 3.3237 9.68872 9.37134C3.64108 15.419 0.317383 23.4533 0.317383 32C0.317383 40.5467 3.64108 48.581 9.68872 54.6287C15.7364 60.6763 23.7707 64 32.3174 64C40.8641 64 48.8984 60.6763 54.9461 54.6287C60.9937 48.581 64.3174 40.5467 64.3174 32C64.3174 23.4533 60.9937 15.419 54.9461 9.37134ZM53.6091 50.0679C52.1097 48.731 50.5103 47.5439 48.8234 46.5318C49.9355 42.6833 50.5977 38.4475 50.7602 34.0367H60.169C59.7442 39.9719 57.4701 45.5447 53.6091 50.0679ZM4.46576 34.0367H13.8746C14.0245 38.435 14.6868 42.6708 15.8113 46.5318C14.1245 47.5564 12.5251 48.731 11.0257 50.0679C7.16471 45.5447 4.8906 39.9719 4.46576 34.0367ZM11.0257 13.9321C12.5251 15.269 14.1245 16.4561 15.8113 17.4682C14.6993 21.3167 14.037 25.5525 13.8746 29.9633H4.46576C4.8906 24.0281 7.16471 18.4553 11.0257 13.9321ZM30.2807 17.893C26.957 17.6556 23.7457 16.8309 20.7719 15.4815C21.2842 14.182 21.8465 12.9449 22.4837 11.7829C24.6954 7.75947 27.4068 5.19797 30.2807 4.3608V17.893ZM30.2807 21.9789V29.9633H17.9605C18.0979 26.2398 18.6352 22.6662 19.5099 19.3924C22.8836 20.8669 26.5197 21.7415 30.2807 21.9789ZM30.2807 34.0367V42.0211C26.5197 42.2585 22.8836 43.1332 19.5099 44.6201C18.6352 41.3464 18.1104 37.7727 17.9605 34.0492H30.2807V34.0367ZM30.2807 46.107V59.6392C27.4068 58.8145 24.6954 56.2405 22.4837 52.2171C21.8465 51.0676 21.2842 49.8305 20.7719 48.5186C23.7457 47.1691 26.957 46.3444 30.2807 46.107ZM34.3541 46.107C37.6778 46.3444 40.889 47.1691 43.8629 48.5186C43.3506 49.818 42.7883 51.0551 42.151 52.2171C39.9394 56.253 37.228 58.8145 34.3541 59.6392V46.107ZM34.3541 42.0211V34.0367H46.6743C46.5368 37.7603 45.9995 41.3339 45.1249 44.6076C41.7512 43.1332 38.1151 42.2585 34.3541 42.0211ZM34.3541 29.9633V21.9789C38.1151 21.7415 41.7512 20.8669 45.1249 19.3799C45.9995 22.6537 46.5243 26.2273 46.6743 29.9508H34.3541V29.9633ZM34.3541 17.893V4.3608C37.228 5.18547 39.9394 7.75947 42.151 11.7829C42.7883 12.9324 43.3506 14.1695 43.8629 15.4815C40.889 16.8309 37.6778 17.6556 34.3541 17.893ZM45.7371 9.83366C45.0499 8.57165 44.3127 7.4346 43.5255 6.41C46.137 7.55955 48.5735 9.10894 50.7602 11.0332C49.7231 11.9453 48.6235 12.7825 47.474 13.5197C46.9492 12.2202 46.3619 10.9832 45.7371 9.83366ZM18.8976 9.83366C18.2604 10.9957 17.6856 12.2202 17.1608 13.5197C16.0113 12.7825 14.9242 11.9453 13.8746 11.0332C16.0612 9.10894 18.4978 7.55955 21.1093 6.41C20.3346 7.4346 19.5974 8.57165 18.8976 9.83366ZM17.1733 50.4928C17.6981 51.7798 18.2729 53.0168 18.9101 54.1788C19.5974 55.4409 20.3346 56.5779 21.1218 57.6025C18.5103 56.453 16.0737 54.9036 13.8871 52.9793C14.9242 52.0672 16.0238 51.23 17.1733 50.4928ZM45.7371 54.1663C46.3744 53.0043 46.9492 51.7798 47.474 50.4803C48.6235 51.2175 49.7106 52.0547 50.7602 52.9668C48.5735 54.8911 46.137 56.4405 43.5255 57.59C44.3002 56.5654 45.0374 55.4284 45.7371 54.1663ZM50.7602 29.9633C50.6102 25.565 49.948 21.3292 48.8234 17.4682C50.5103 16.4436 52.1097 15.269 53.6091 13.9321C57.4576 18.4553 59.7442 24.0281 60.169 29.9633H50.7602Z" fill="black"/>
</svg>
