<svg width="119" height="120" viewBox="0 0 119 120" fill="none" xmlns="http://www.w3.org/2000/svg">
<g clip-path="url(#clip0_209_653)">
<path d="M113.037 33.8415C118.163 44.4874 120.029 56.4208 118.399 68.1318C116.769 79.8429 111.717 90.8056 103.881 99.6331C96.0455 108.461 85.7784 114.756 74.3786 117.724C62.9789 120.691 50.9587 120.197 39.8386 116.304C28.7185 112.411 18.9982 105.293 11.9073 95.8523C4.81639 86.4113 0.673455 75.0706 0.00258438 63.265C-0.668287 51.4594 2.163 39.7191 8.13838 29.5295C14.1137 19.3398 22.9647 11.1586 33.5716 6.02065C47.7975 -0.778791 64.1199 -1.67112 78.9968 3.53733C93.8738 8.74578 106.105 19.6348 113.037 33.8415Z" fill="#FAB84C"/>
<path d="M29.8982 31.6416C26.9209 30.2725 24.4525 27.9909 22.8477 25.1247C22.3803 24.3044 22.2565 23.3312 22.5037 22.4193C22.7508 21.5073 23.3486 20.7313 24.1656 20.2619C24.9825 19.7925 25.9517 19.6682 26.86 19.9164C27.7682 20.1645 28.5411 20.7648 29.0086 21.5851C29.6718 22.8608 30.674 23.9271 31.9039 24.6657C33.1339 25.4044 34.5436 25.7865 35.9767 25.7698C37.411 25.6698 38.7912 25.1798 39.9693 24.3523C41.1475 23.5248 42.0792 22.391 42.6647 21.0724C43.1096 20.2811 43.8381 19.6898 44.7019 19.4189C45.5658 19.1479 46.5 19.2177 47.3144 19.6139C48.1289 20.0101 48.7623 20.7031 49.0859 21.5517C49.4095 22.4004 49.3988 23.3409 49.0561 24.1819C47.9104 26.6671 46.1119 28.7917 43.8539 30.3275C41.5958 31.8633 38.9636 32.7523 36.2402 32.8987C34.0579 32.9767 31.8873 32.5464 29.8982 31.6416Z" fill="#1C373E"/>
<path d="M77.126 31.6581C74.1518 30.2843 71.6847 28.0039 70.0755 25.1413C69.6081 24.3209 69.4843 23.3477 69.7315 22.4358C69.9786 21.5238 70.5765 20.7478 71.3934 20.2784C72.2104 19.809 73.1796 19.6847 74.0879 19.9329C74.9961 20.181 75.769 20.7813 76.2365 21.6016C76.8997 22.8773 77.9018 23.9436 79.1318 24.6822C80.3617 25.4209 81.7714 25.803 83.2045 25.7863C84.6417 25.6892 86.0253 25.2005 87.2066 24.3729C88.388 23.5452 89.3222 22.4098 89.9089 21.0889C90.3145 20.2584 91.0277 19.6203 91.8958 19.3112C92.764 19.0021 93.7183 19.0465 94.5543 19.4348H94.6366C95.4817 19.8453 96.1299 20.5759 96.4388 21.466C96.7476 22.3562 96.692 23.333 96.2839 24.1819C95.1382 26.6671 93.3397 28.7917 91.0817 30.3275C88.8236 31.8633 86.1914 32.7522 83.468 32.8987C81.2876 32.9741 79.1187 32.5499 77.126 31.6581Z" fill="#1C373E"/>
<path d="M43.2742 54.3845C42.4048 54.384 41.5632 54.0767 40.8966 53.5162C40.2301 52.9556 39.781 52.1777 39.6279 51.3184C39.4748 50.459 39.6274 49.573 40.0591 48.8152C40.4908 48.0574 41.174 47.4761 41.9893 47.173C42.6976 46.8918 59.7141 40.7057 77.0271 47.173C77.9468 47.5151 78.6934 48.2101 79.1027 49.105C79.5121 49.9999 79.5506 51.0214 79.2098 51.9449C78.869 52.8683 78.1769 53.6179 77.2856 54.0289C76.3944 54.4399 75.377 54.4786 74.4574 54.1364C59.6318 48.6285 44.7073 54.1364 44.5591 54.1364C44.1497 54.2982 43.7141 54.3823 43.2742 54.3845Z" fill="#1C373E"/>
</g>
<defs>
<clipPath id="clip0_209_653">
<rect width="119" height="120" fill="none"/>
</clipPath>
</defs>
</svg>
