<svg width="80" height="81" viewBox="0 0 80 81" fill="none" xmlns="http://www.w3.org/2000/svg">
<path d="M39.9401 80.3802C61.9984 80.3802 79.8802 62.4984 79.8802 40.4401C79.8802 18.3818 61.9984 0.5 39.9401 0.5C17.8818 0.5 0 18.3818 0 40.4401C0 62.4984 17.8818 80.3802 39.9401 80.3802Z" fill="#87F345"/>
<path d="M30.788 37.9441C29.4101 37.9441 28.2918 36.8257 28.2918 35.4478C28.2918 33.6139 26.8007 32.1195 24.9634 32.1195C23.1262 32.1195 21.6351 33.6139 21.6351 35.4478C21.6351 36.8257 20.5168 37.9441 19.1388 37.9441C17.7609 37.9441 16.6426 36.8257 16.6426 35.4478C16.6426 30.8614 20.3736 27.127 24.9634 27.127C29.5532 27.127 33.2843 30.8614 33.2843 35.4478C33.2843 36.8257 32.166 37.9441 30.788 37.9441Z" fill="#87F345"/>
<path d="M30.788 37.9441C29.4101 37.9441 28.2918 36.8257 28.2918 35.4478C28.2918 33.6139 26.8007 32.1195 24.9634 32.1195C23.1262 32.1195 21.6351 33.6139 21.6351 35.4478C21.6351 36.8257 20.5168 37.9441 19.1388 37.9441C17.7609 37.9441 16.6426 36.8257 16.6426 35.4478C16.6426 30.8614 20.3736 27.127 24.9634 27.127C29.5532 27.127 33.2843 30.8614 33.2843 35.4478C33.2843 36.8257 32.166 37.9441 30.788 37.9441Z" fill="black" fill-opacity="0.55"/>
<path d="M60.7431 37.9441C59.3652 37.9441 58.2469 36.8257 58.2469 35.4478C58.2469 33.6139 56.7558 32.1195 54.9185 32.1195C53.0813 32.1195 51.5902 33.6139 51.5902 35.4478C51.5902 36.8257 50.4718 37.9441 49.0939 37.9441C47.716 37.9441 46.5977 36.8257 46.5977 35.4478C46.5977 30.8614 50.3287 27.127 54.9185 27.127C59.5083 27.127 63.2394 30.8614 63.2394 35.4478C63.2394 36.8257 62.1211 37.9441 60.7431 37.9441Z" fill="#87F345"/>
<path d="M60.7431 37.9441C59.3652 37.9441 58.2469 36.8257 58.2469 35.4478C58.2469 33.6139 56.7558 32.1195 54.9185 32.1195C53.0813 32.1195 51.5902 33.6139 51.5902 35.4478C51.5902 36.8257 50.4718 37.9441 49.0939 37.9441C47.716 37.9441 46.5977 36.8257 46.5977 35.4478C46.5977 30.8614 50.3287 27.127 54.9185 27.127C59.5083 27.127 63.2394 30.8614 63.2394 35.4478C63.2394 36.8257 62.1211 37.9441 60.7431 37.9441Z" fill="black" fill-opacity="0.55"/>
<path d="M39.9419 60.4109C32.6728 60.4109 25.843 57.5818 20.7041 52.4395C19.7289 51.4643 19.7289 49.8834 20.7041 48.9082C21.6793 47.933 23.2602 47.933 24.2354 48.9082C28.4291 53.1085 34.0074 55.4184 39.9419 55.4184C45.8763 55.4184 51.4546 53.1085 55.6516 48.9115C56.6268 47.9363 58.2078 47.9363 59.183 48.9115C60.1582 49.8867 60.1582 51.4676 59.183 52.4429C54.0407 57.5818 47.211 60.4109 39.9419 60.4109Z" fill="#87F345"/>
<path d="M39.9419 60.4109C32.6728 60.4109 25.843 57.5818 20.7041 52.4395C19.7289 51.4643 19.7289 49.8834 20.7041 48.9082C21.6793 47.933 23.2602 47.933 24.2354 48.9082C28.4291 53.1085 34.0074 55.4184 39.9419 55.4184C45.8763 55.4184 51.4546 53.1085 55.6516 48.9115C56.6268 47.9363 58.2078 47.9363 59.183 48.9115C60.1582 49.8867 60.1582 51.4676 59.183 52.4429C54.0407 57.5818 47.211 60.4109 39.9419 60.4109Z" fill="black" fill-opacity="0.55"/>
</svg>
