<svg width="28" height="28" viewBox="0 0 28 28" fill="none" xmlns="http://www.w3.org/2000/svg">
<path d="M9.74295 4.58697C9.7963 4.18968 10.272 4.01355 10.5712 4.28031L13.8236 7.18007C13.9869 7.3256 14.2257 7.34818 14.4133 7.2358L18.1513 4.99659C18.4952 4.79059 18.9295 5.05272 18.9075 5.45298L18.6682 9.80377C18.6562 10.0221 18.7875 10.2229 18.9923 10.2995L23.0736 11.8259C23.4491 11.9663 23.5149 12.4693 23.1883 12.7017L19.6375 15.2273C19.4593 15.354 19.3841 15.5819 19.4519 15.7898L20.8032 19.9323C20.9275 20.3134 20.5753 20.6785 20.19 20.568L16.0015 19.3666C15.7913 19.3063 15.5663 19.3896 15.4461 19.5722L13.0498 23.2115C12.8294 23.5463 12.3243 23.4986 12.1705 23.1284L10.4983 19.1047C10.4144 18.9027 10.209 18.7788 9.99123 18.7986L5.65186 19.1942C5.25266 19.2306 4.97507 18.806 5.16857 18.4549L7.27191 14.6388C7.37746 14.4473 7.34632 14.2094 7.19501 14.0515L4.18016 10.9055C3.90281 10.6161 4.06172 10.1343 4.45684 10.0667L8.7518 9.33187C8.96735 9.29499 9.13392 9.12232 9.16303 8.90558L9.74295 4.58697Z" fill="#52B3BB"/>
<path d="M8.41818 15.213V12.413H8.95418L10.6062 14.429H10.3462V12.413H10.9862V15.213H10.4542L8.79818 13.197H9.05818V15.213H8.41818ZM12.2447 13.541H13.5927V14.045H12.2447V13.541ZM12.2927 14.693H13.8167V15.213H11.6487V12.413H13.7647V12.933H12.2927V14.693ZM14.9652 15.213L14.0492 12.413H14.7212L15.5172 14.893H15.1812L16.0132 12.413H16.6132L17.4132 14.893H17.0892L17.9052 12.413H18.5252L17.6092 15.213H16.9132L16.2052 13.037H16.3892L15.6612 15.213H14.9652Z" fill="white"/>
</svg>
