<svg width="65" height="64" viewBox="0 0 65 64" fill="none" xmlns="http://www.w3.org/2000/svg">
<circle cx="32.3174" cy="32" r="32" fill="#2787F5"/>
<path d="M48.1449 39.7865C46.838 37.4345 43.4715 34.6083 42.0817 33.3785C41.7013 33.0418 41.6606 32.4593 42.0068 32.0869C44.6591 29.2368 46.7806 25.9619 47.5107 23.983C47.8329 23.1089 47.166 22.1852 46.2264 22.1852H43.497C42.5973 22.1852 42.0708 22.5081 41.8199 23.0223C39.6156 27.5393 37.7247 29.4942 36.401 30.6368C35.66 31.2767 34.5043 30.7466 34.5043 29.7728C34.5043 27.8964 34.5043 25.471 34.5043 23.751C34.5043 22.9169 33.8222 22.242 32.9807 22.242L27.9946 22.1852C27.367 22.1852 27.0084 22.8958 27.3852 23.3939L28.2084 24.5757C28.5182 24.9852 28.6855 25.4834 28.6855 25.9946L28.6811 31.3167C28.6811 32.2426 27.559 32.6949 26.8928 32.0462C24.639 29.8513 22.6834 25.3692 21.9794 23.2259C21.7758 22.6056 21.1947 22.1867 20.5358 22.1852L17.8471 22.1787C16.8384 22.1787 16.1009 23.135 16.3751 24.0979C18.8318 32.7211 23.8725 40.9246 32.8556 41.8141C33.7407 41.9013 34.5043 41.1886 34.5043 40.3065V37.5094C34.5043 36.7072 35.1334 36.0178 35.9421 35.9974C35.9705 35.9967 35.9989 35.9967 36.0272 35.9967C38.4032 35.9967 41.0643 39.4548 41.9952 41.0723C42.2628 41.5377 42.7631 41.8213 43.3042 41.8213H46.9209C47.9762 41.8213 48.6533 40.7021 48.1449 39.7865Z" fill="white"/>
</svg>
