<svg width="24" height="24" viewBox="0 0 24 24" fill="none" xmlns="http://www.w3.org/2000/svg">
<path fill-rule="evenodd" clip-rule="evenodd" d="M12 19C15.866 19 19 15.866 19 12C19 8.13401 15.866 5 12 5C8.13401 5 5 8.13401 5 12C5 15.866 8.13401 19 12 19Z" stroke="black" stroke-width="2" stroke-linecap="round" stroke-linejoin="round"/>
<path d="M12 9V12L13.5 13.5" stroke="black" stroke-width="2" stroke-linecap="round" stroke-linejoin="round"/>
<path d="M17.5058 17.441C17.5561 16.891 17.151 16.4044 16.601 16.3541C16.051 16.3039 15.5644 16.709 15.5141 17.259L17.5058 17.441ZM16.16 21.18L15.1641 21.089L15.164 21.09L16.16 21.18ZM14.16 23L14.164 22H14.16V23ZM9.82998 23V22L9.82592 22L9.82998 23ZM7.82998 21.18L8.82592 21.09L8.82583 21.089L7.82998 21.18ZM8.47583 17.259C8.42557 16.709 7.93897 16.3039 7.38898 16.3541C6.83898 16.4044 6.43387 16.891 6.48413 17.441L8.47583 17.259ZM6.49414 6.55898C6.44388 7.10897 6.84899 7.59558 7.39899 7.64584C7.94898 7.6961 8.43558 7.29098 8.48584 6.74099L6.49414 6.55898ZM7.83999 2.81999L8.83584 2.91099L8.83593 2.90999L7.83999 2.81999ZM9.82999 0.999986V-1.41859e-05L9.82905 -1.33514e-05L9.82999 0.999986ZM14.18 0.999986V1.99999L14.184 1.99998L14.18 0.999986ZM16.18 2.81999L15.184 2.90998L15.1841 2.91099L16.18 2.81999ZM15.5341 6.74099C15.5844 7.29098 16.071 7.6961 16.621 7.64584C17.171 7.59558 17.5761 7.10897 17.5258 6.55898L15.5341 6.74099ZM15.5141 17.259L15.1641 21.089L17.1558 21.271L17.5058 17.441L15.5141 17.259ZM15.164 21.09C15.1173 21.6069 14.683 22.0021 14.164 22L14.1559 24C15.7128 24.0063 17.0158 22.8206 17.1559 21.27L15.164 21.09ZM14.16 22H9.82998V24H14.16V22ZM9.82592 22C9.30696 22.0021 8.87263 21.6069 8.82592 21.09L6.83404 21.27C6.97415 22.8206 8.27714 24.0063 9.83404 24L9.82592 22ZM8.82583 21.089L8.47583 17.259L6.48413 17.441L6.83413 21.271L8.82583 21.089ZM8.48584 6.74099L8.83584 2.91099L6.84414 2.72898L6.49414 6.55898L8.48584 6.74099ZM8.83593 2.90999C8.88247 2.39504 9.31388 2.00047 9.83093 1.99999L9.82905 -1.33514e-05C8.2779 0.00144756 6.98365 1.18514 6.84405 2.72999L8.83593 2.90999ZM9.82999 1.99999H14.18V-1.37687e-05H9.82999V1.99999ZM14.184 1.99998C14.703 1.99787 15.1373 2.39311 15.184 2.90998L17.1759 2.72999C17.0358 1.1794 15.7328 -0.00632262 14.1759 -5.54323e-06L14.184 1.99998ZM15.1841 2.91099L15.5341 6.74099L17.5258 6.55898L17.1758 2.72898L15.1841 2.91099Z" fill="black"/>
</svg>
