<svg width="24" height="24" viewBox="0 0 24 24" fill="none" xmlns="http://www.w3.org/2000/svg">
<path d="M8.8808 3.88499C8.49144 4.27667 8.49331 4.90983 8.88499 5.2992C9.27667 5.68856 9.90983 5.68669 10.2992 5.29501L8.8808 3.88499ZM11 8L11.0042 7H11V8ZM2 7C1.44772 7 1 7.44772 1 8C1 8.55228 1.44772 9 2 9V7ZM13.2992 18.705C12.9098 18.3133 12.2767 18.3114 11.885 18.7008C11.4933 19.0902 11.4914 19.7233 11.8808 20.115L13.2992 18.705ZM15.0074 19.7326L15.5069 20.5989L15.0074 19.7326ZM15.9393 17.4788L16.9048 17.2183L15.9393 17.4788ZM14 16V17L14.0042 17L14 16ZM2 15C1.44772 15 1 15.4477 1 16C1 16.5523 1.44772 17 2 17V15ZM17.0238 7.022C16.6328 7.41203 16.632 8.04519 17.022 8.43621C17.412 8.82723 18.0452 8.82803 18.4362 8.438L17.0238 7.022ZM19.5 12V13L19.5018 13L19.5 12ZM2 11C1.44772 11 1 11.4477 1 12C1 12.5523 1.44772 13 2 13V11ZM10.2992 5.29501C10.6189 4.97339 11.115 4.90718 11.5079 5.1337L12.5069 3.40108C11.3283 2.72152 9.83995 2.92014 8.8808 3.88499L10.2992 5.29501ZM11.5079 5.1337C11.9008 5.36023 12.092 5.82276 11.9739 6.26059L13.9048 6.78172C14.2593 5.46824 13.6855 4.08064 12.5069 3.40108L11.5079 5.1337ZM11.9739 6.26059C11.8557 6.69841 11.4577 7.00191 11.0042 7.00001L10.9958 8.99999C12.3563 9.0057 13.5503 8.09521 13.9048 6.78172L11.9739 6.26059ZM11 7H2V9H11V7ZM11.8808 20.115C12.84 21.0799 14.3283 21.2785 15.5069 20.5989L14.5079 18.8663C14.115 19.0928 13.6189 19.0266 13.2992 18.705L11.8808 20.115ZM15.5069 20.5989C16.6855 19.9194 17.2593 18.5318 16.9048 17.2183L14.9739 17.7394C15.092 18.1772 14.9008 18.6398 14.5079 18.8663L15.5069 20.5989ZM16.9048 17.2183C16.5503 15.9048 15.3563 14.9943 13.9958 15L14.0042 17C14.4577 16.9981 14.8557 17.3016 14.9739 17.7394L16.9048 17.2183ZM14 15H2V17H14V15ZM18.4362 8.438C18.9165 7.95895 19.6585 7.86184 20.2458 8.20115L21.2463 6.46935C19.8757 5.67761 18.1444 5.90421 17.0238 7.022L18.4362 8.438ZM20.2458 8.20115C20.8332 8.54047 21.1198 9.23175 20.9447 9.88712L22.877 10.4033C23.2854 8.87409 22.6168 7.26109 21.2463 6.46935L20.2458 8.20115ZM20.9447 9.88712C20.7697 10.5425 20.1765 10.9988 19.4982 11L19.5018 13C21.0846 12.9972 22.4685 11.9324 22.877 10.4033L20.9447 9.88712ZM19.5 11H2V13H19.5V11Z" fill="black"/>
</svg>
