<svg width="340" height="53" viewBox="0 0 340 53" fill="none" xmlns="http://www.w3.org/2000/svg">
<path d="M0.180471 51.5914C0.0200523 51.4845 -0.0334205 51.351 0.0200523 51.1908C0.0735251 51.0305 0.233943 50.9504 0.501307 50.9504C1.57076 50.6833 2.69369 50.4163 3.87009 50.1492C5.09997 49.8287 6.41005 49.535 7.80034 49.2679C8.60243 48.1462 9.67189 46.7041 11.0087 44.9414C12.3455 43.1254 13.7626 41.256 15.2598 39.3331C16.757 37.3568 18.2543 35.4339 19.7515 33.5645C21.2487 31.695 22.5321 30.1194 23.6016 28.8375L23.762 28.517H23.1203C19.4841 28.3567 15.9282 27.9294 12.4525 27.2351C9.03022 26.4873 6.11595 25.152 3.70967 23.2291C3.38884 23.1223 3.17495 22.962 3.068 22.7484C3.01453 22.5347 3.01453 22.3745 3.068 22.2677C3.17495 22.1074 3.33536 22.0273 3.54926 22.0273C3.81662 22.0273 4.08398 22.1608 4.35135 22.4279C5.52775 23.3893 6.83783 24.1905 8.2816 24.8315C9.72536 25.419 11.2493 25.8997 12.8535 26.2736C14.5112 26.6475 16.1956 26.9413 17.9067 27.1549C19.6713 27.3152 21.4092 27.4487 23.1203 27.5555H24.7245L26.1682 25.7929C28.5745 23.1757 31.1145 20.6119 33.7881 18.1015C36.4618 15.591 39.2423 13.2409 42.1299 11.0509C45.0174 8.86102 48.0119 6.88474 51.1133 5.12212C54.2147 3.35949 57.3963 1.91734 60.6582 0.795667C64.027 -0.486242 66.2194 -0.219176 67.2353 1.59686C67.7166 2.50488 67.8235 3.57314 67.5562 4.80164C67.2888 5.97672 66.7541 7.20522 65.952 8.48713C65.1499 9.92928 64.0537 11.4248 62.6634 12.9738C61.3266 14.5228 59.7224 16.0718 57.8509 17.6207C56.0328 19.1163 53.9741 20.5585 51.6748 21.9472C49.3754 23.2825 46.8622 24.4576 44.1351 25.4724C41.301 26.5941 38.3333 27.422 35.2319 27.9561C32.1305 28.4369 29.0023 28.6772 25.8474 28.6772H25.0453L24.2432 29.6386C23.2272 30.8137 22.0508 32.2559 20.714 33.9651C19.3772 35.6209 18.0136 37.3568 16.6234 39.1729C15.2331 40.9889 13.8695 42.7782 12.5327 44.5409C11.2493 46.2501 10.1531 47.7189 9.24411 48.9474C11.4365 48.4667 13.6823 48.0127 15.9817 47.5854C18.281 47.1047 20.5269 46.6774 22.7192 46.3035C24.9116 45.8762 26.9703 45.5023 28.8954 45.1818C30.8738 44.8613 32.585 44.5943 34.0287 44.3806C38.0392 43.7931 41.6219 43.4726 44.7768 43.4192C47.9317 43.3124 50.3914 43.4726 52.156 43.8999C52.4768 44.0601 52.5838 44.2738 52.4768 44.5409C52.3164 45.0216 52.1025 45.1284 51.8352 44.8613C50.3914 44.5409 48.0921 44.434 44.9372 44.5409C41.8358 44.5943 38.3066 44.8613 34.3496 45.342C32.7989 45.5557 30.9808 45.8495 28.8954 46.2234C26.8099 46.5438 24.6175 46.9177 22.3182 47.345C20.0189 47.7723 17.6661 48.253 15.2598 48.7872C12.907 49.2679 10.6077 49.7486 8.36181 50.2293C8.25486 50.3362 8.20139 50.4163 8.20139 50.4697C8.04097 50.8436 7.82708 50.897 7.55971 50.6299L7.3993 50.4697C6.16942 50.7368 4.99302 51.0038 3.87009 51.2709C2.80064 51.5379 1.78465 51.805 0.822144 52.0721C0.394362 52.0721 0.180471 51.9118 0.180471 51.5914ZM43.8143 24.511C46.4344 23.4962 48.8674 22.3211 51.1133 20.9858C53.4126 19.6504 55.4446 18.2617 57.2092 16.8195C59.0273 15.324 60.578 13.8284 61.8613 12.3329C63.1981 10.8373 64.2409 9.39515 64.9895 8.00641C65.7916 6.61768 66.2728 5.44259 66.4332 4.48116C66.6471 3.46631 66.5937 2.66512 66.2728 2.07758C66.0055 1.59686 65.444 1.27639 64.5884 1.11615C63.7863 0.955909 62.5297 1.16956 60.8186 1.7571C57.6637 2.82536 54.5623 4.2408 51.5143 6.00343C48.5199 7.76606 45.6056 9.74234 42.7715 11.9323C39.9375 14.0688 37.1836 16.3922 34.51 18.9027C31.8898 21.3596 29.4301 23.8701 27.1308 26.4339L26.1682 27.7158L28.5745 27.5555C31.2482 27.3953 33.8416 27.0748 36.3548 26.5941C38.9215 26.1134 41.408 25.419 43.8143 24.511Z" fill="white"/>
<path d="M47.8401 39.5735C47.1984 39.1996 46.9578 38.6387 47.1182 37.8909C47.2786 37.0897 47.6797 36.342 48.3213 35.6476C48.963 34.8998 49.7651 34.2589 50.7276 33.7247C51.6901 33.1372 52.6526 32.8434 53.6151 32.8434C54.2568 32.8434 54.8183 32.977 55.2995 33.244C55.8343 33.5111 56.1818 33.8049 56.3422 34.1253C56.4492 34.2856 56.3957 34.4458 56.1818 34.606C56.0214 34.7129 55.861 34.7129 55.7006 34.606C55.4332 34.4458 55.1658 34.2856 54.8985 34.1253C54.6846 33.9117 54.2568 33.8049 53.6151 33.8049C52.9735 33.8049 52.2783 34.0185 51.5297 34.4458C50.7811 34.8731 50.1127 35.3805 49.5245 35.9681C48.9897 36.5022 48.5887 37.0363 48.3213 37.5705C48.1074 38.0512 48.1609 38.3984 48.4817 38.612C48.963 38.7188 49.6047 38.612 50.4068 38.2915C51.2089 37.9177 52.0377 37.4903 52.8932 37.0096C53.8023 36.4755 54.6578 35.9147 55.4599 35.3271C56.3155 34.7396 57.0374 34.2322 57.6256 33.8049C58.1603 33.3776 58.5079 33.3241 58.6683 33.6446C58.8822 33.9651 58.8555 34.2322 58.5881 34.4458C57.8929 34.9265 57.4117 35.5408 57.1443 36.2886C56.9304 36.9829 57.0107 37.4102 57.385 37.5705C57.7593 37.7307 58.3742 37.6506 59.2298 37.3301C60.0853 36.9562 60.9676 36.5289 61.8767 36.0482C62.7857 35.5675 63.6413 35.0868 64.4434 34.606C65.2455 34.1253 65.7534 33.8049 65.9673 33.6446C66.2882 33.4844 66.5288 33.5645 66.6892 33.885C66.9031 34.2055 66.8764 34.4458 66.609 34.606C66.2347 34.8197 65.6465 35.1936 64.8444 35.7277C64.0423 36.2084 63.16 36.6892 62.1975 37.1699C61.2885 37.6506 60.3527 38.0512 59.3902 38.3717C58.4812 38.6921 57.7325 38.7723 57.1443 38.612C56.5561 38.4518 56.1818 38.1046 56.0214 37.5705C55.9145 37.0363 55.9947 36.5289 56.262 36.0482C55.6738 36.4755 54.9787 36.9562 54.1766 37.4903C53.3745 37.9711 52.5457 38.3984 51.6901 38.7723C50.8345 39.1461 50.0592 39.4399 49.364 39.6536C48.6689 39.8138 48.1609 39.7871 47.8401 39.5735Z" fill="white"/>
<path d="M73.4296 39.1729C72.7879 39.0126 72.3334 38.6654 72.0661 38.1313C71.7987 37.5972 71.7987 37.0363 72.0661 36.4488C70.5153 37.4102 69.2587 37.9978 68.2962 38.2114C67.3872 38.3717 66.7188 38.2381 66.291 37.8108C66.0236 37.5438 65.8365 37.1699 65.7295 36.6892C65.6226 36.2084 65.7563 35.5675 66.1306 34.7663L64.366 35.888C63.8847 36.0482 63.5639 35.9948 63.4035 35.7277C63.2965 35.4607 63.4035 35.247 63.7243 35.0868C64.3125 34.8197 64.9007 34.4992 65.4889 34.1253C66.1306 33.698 66.6118 33.3241 66.9327 33.0037L67.0931 32.8434C67.5209 32.4161 67.8952 32.3093 68.216 32.5229C68.5369 32.7366 68.4834 33.0571 68.0556 33.4844L67.7348 33.8049C66.8257 35.3004 66.6118 36.3687 67.0931 37.0096C67.5209 37.3301 68.2962 37.25 69.4192 36.7693C70.5421 36.2351 71.6383 35.5675 72.7077 34.7663C73.189 34.2856 73.5098 34.0452 73.6702 34.0452C73.8841 34.0452 74.0446 34.1253 74.1515 34.2856C74.3119 34.5526 74.3386 34.7396 74.2317 34.8464C74.1248 34.8998 73.9911 35.0868 73.8307 35.4072C73.189 36.3687 72.9216 37.063 73.0286 37.4903C73.1355 37.8642 73.4564 38.1046 73.9911 38.2114C74.5258 38.2648 75.114 38.2114 75.7557 38.0512C76.4508 37.8909 77.039 37.7307 77.5203 37.5705C78.1085 37.3568 78.6432 37.1432 79.1245 36.9295C79.6057 36.6624 80.087 36.3954 80.5682 36.1283C81.103 35.8613 81.6644 35.5675 82.2526 35.247C82.8408 34.8731 83.5092 34.4458 84.2578 33.9651C84.6856 33.698 84.9263 33.7247 84.9797 34.0452C85.0332 34.3123 85.0065 34.4992 84.8995 34.606C83.9905 35.3004 83.0012 35.9681 81.9318 36.609C80.8623 37.1966 79.7929 37.7307 78.7234 38.2114C77.7074 38.6387 76.7182 38.9592 75.7557 39.1729C74.8466 39.3331 74.0713 39.3331 73.4296 39.1729Z" fill="white"/>
<path d="M88.263 39.253C87.8352 38.612 87.8619 37.8642 88.3432 37.0096C88.8244 36.1016 89.4394 35.247 90.188 34.4458V34.2856C89.8672 33.8049 89.6533 33.4043 89.5463 33.0838C89.4929 32.7633 89.3859 32.3627 89.2255 31.882C87.7817 32.8434 86.6321 33.5912 85.7765 34.1253C84.9209 34.6595 84.2525 35.0868 83.7713 35.4072C83.3435 35.4072 83.1296 35.3538 83.1296 35.247C83.0227 35.0868 82.9959 34.9532 83.0494 34.8464C83.1029 34.6862 83.1831 34.5526 83.29 34.4458C83.5574 34.2322 83.8515 34.0452 84.1723 33.885C84.4931 33.6713 84.8675 33.431 85.2952 33.1639C85.7765 32.8434 86.3112 32.4962 86.8994 32.1223C87.4876 31.695 88.2095 31.1876 89.0651 30.6001L89.2255 30.1194C89.3859 29.2648 89.787 28.4636 90.4286 27.7158C91.0703 26.9146 91.7922 26.2469 92.5943 25.7128C93.3964 25.1253 94.1985 24.6712 95.0006 24.3508C95.8561 24.0303 96.5245 23.8968 97.0058 23.9502C97.3801 24.0036 97.5138 24.2974 97.4068 24.8315C97.2999 25.3122 96.8988 25.8463 96.2037 26.4339C95.4016 27.0748 94.7599 27.609 94.2787 28.0363C93.7974 28.4101 93.0755 28.9443 92.113 29.6386L90.188 31.0808C90.188 31.9354 90.6158 32.9502 91.4714 34.1253C91.6852 34.5526 91.6852 34.7663 91.4714 34.7663C90.9901 35.1936 90.4554 35.7277 89.8672 36.3687C89.3324 37.0096 89.0651 37.6506 89.0651 38.2915C89.1186 38.6654 89.4126 38.8524 89.9474 38.8524C90.5356 38.8524 91.2575 38.7456 92.113 38.5319C92.9686 38.2648 93.9044 37.9444 94.9203 37.5705C95.9898 37.1966 97.0325 36.796 98.0485 36.3687C99.0645 35.888 100 35.4607 100.856 35.0868C101.765 34.6595 102.487 34.2856 103.021 33.9651C103.289 33.8049 103.449 33.7781 103.503 33.885C103.61 33.9384 103.717 34.0185 103.824 34.1253C103.931 34.2322 103.957 34.3657 103.904 34.5259C103.85 34.6862 103.77 34.7663 103.663 34.7663C102.968 35.1936 101.872 35.7811 100.375 36.5289C98.8773 37.2767 97.2999 37.9711 95.6422 38.612C94.038 39.1996 92.5141 39.6002 91.0703 39.8138C89.68 40.0275 88.7442 39.8405 88.263 39.253ZM96.3641 24.9917C95.2947 25.2054 94.145 25.7662 92.9151 26.6742C91.7387 27.5822 90.9366 28.517 90.5088 29.4784C91.0436 28.9977 91.5516 28.5971 92.0328 28.2766C92.5141 27.9027 92.9686 27.5555 93.3964 27.2351C93.8241 26.8612 94.2787 26.514 94.7599 26.1935C95.2412 25.8196 95.7759 25.419 96.3641 24.9917Z" fill="white"/>
<path d="M99.4794 34.4458C99.8003 33.6446 100.335 32.9502 101.084 32.3627C101.832 31.7752 102.581 31.4013 103.329 31.241C103.918 31.1342 104.479 31.1609 105.014 31.3212C105.549 31.428 105.843 31.7218 105.896 32.2025C105.95 32.6832 105.736 33.1639 105.254 33.6446C104.827 34.0719 104.265 34.4725 103.57 34.8464C102.928 35.2203 102.287 35.5408 101.645 35.8078C101.003 36.0749 100.576 36.2351 100.362 36.2886C100.629 37.0363 101.191 37.5972 102.046 37.9711C102.902 38.345 103.891 38.4518 105.014 38.2915C107.046 38.0245 109.051 37.4636 111.03 36.609C113.008 35.701 114.719 34.7663 116.163 33.8049C116.484 33.5378 116.751 33.5378 116.965 33.8049C117.179 34.0719 117.125 34.339 116.805 34.606C116.056 35.1402 115.147 35.701 114.077 36.2886C113.062 36.8227 111.965 37.3301 110.789 37.8108C109.666 38.2381 108.49 38.612 107.26 38.9325C106.083 39.1996 104.934 39.3331 103.811 39.3331C103.062 39.3331 102.367 39.2263 101.725 39.0126C101.084 38.7455 100.522 38.3984 100.041 37.9711C99.6131 37.5438 99.319 37.0363 99.1586 36.4488C99.0516 35.8613 99.1586 35.1936 99.4794 34.4458ZM104.773 32.2025C103.811 31.9888 102.875 32.2826 101.966 33.0838C101.057 33.8316 100.469 34.6328 100.201 35.4874C100.415 35.3805 100.763 35.2203 101.244 35.0066C101.725 34.7396 102.233 34.4725 102.768 34.2055C103.303 33.885 103.757 33.5645 104.132 33.244C104.559 32.8701 104.773 32.5229 104.773 32.2025Z" fill="white"/>
<path d="M115.368 37.8108C115.528 37.5438 115.876 37.1699 116.41 36.6892C116.999 36.2084 117.4 35.7544 117.614 35.3271C117.881 34.8464 118.068 34.3924 118.175 33.9651C117.64 34.339 117.106 34.6595 116.571 34.9265C116.09 35.1936 115.608 35.4607 115.127 35.7277C114.806 35.888 114.539 35.8078 114.325 35.4874C114.165 35.1669 114.272 34.9265 114.646 34.7663C114.967 34.606 115.341 34.4191 115.769 34.2055C116.197 33.9384 116.571 33.698 116.892 33.4844C117.266 33.2707 117.56 33.0838 117.774 32.9235C118.041 32.7099 118.175 32.5229 118.175 32.3627V32.2025C118.282 31.9354 118.442 31.8019 118.656 31.8019C118.87 31.7485 119.031 31.882 119.138 32.2025C119.298 32.79 119.351 33.2974 119.298 33.7247C119.245 34.0986 119.138 34.4992 118.977 34.9265C120.581 34.0185 121.972 33.2707 123.148 32.6832C124.324 32.0956 125.287 32.0422 126.036 32.5229C126.303 32.6832 126.437 32.9235 126.437 33.244C126.437 33.5645 126.356 33.8583 126.196 34.1253C125.982 34.7663 125.768 35.3538 125.554 35.888C125.34 36.4221 125.207 36.8761 125.153 37.25C125.1 37.6239 125.153 37.8909 125.314 38.0512C125.528 38.2114 125.929 38.2381 126.517 38.1313C127.8 37.8642 129.378 37.3301 131.249 36.5289C133.121 35.6743 134.859 34.7129 136.463 33.6446C136.837 33.431 137.104 33.4844 137.265 33.8049C137.425 34.1253 137.372 34.339 137.104 34.4458C135.34 35.6743 133.548 36.7159 131.73 37.5705C129.912 38.3717 128.121 38.9325 126.356 39.253C125.287 39.4132 124.592 39.2797 124.271 38.8524C124.004 38.4251 123.897 37.8909 123.95 37.25C124.057 36.609 124.271 35.9414 124.592 35.247C124.913 34.4992 125.127 33.9117 125.233 33.4844C125.127 33.1639 124.752 33.1105 124.111 33.3241C123.469 33.5378 122.72 33.885 121.865 34.3657C121.063 34.793 120.26 35.2737 119.458 35.8078C118.656 36.342 118.041 36.7693 117.614 37.0897C117.346 37.4102 117.052 37.7307 116.731 38.0512C116.464 38.3182 116.25 38.5052 116.09 38.612C115.822 38.7188 115.582 38.7188 115.368 38.612C115.154 38.5052 115.154 38.2381 115.368 37.8108Z" fill="white"/>
<path d="M174.639 25.4724C175.12 25.6327 175.253 25.8463 175.04 26.1134C174.879 26.327 174.639 26.4339 174.318 26.4339C170.842 25.8463 167.072 25.4724 163.008 25.3122C158.998 25.0985 155.068 24.9917 151.217 24.9917C150.095 25.8997 148.811 26.9146 147.367 28.0363C145.977 29.1045 144.319 30.2796 142.394 31.5615L141.432 32.0422C140.469 32.6832 139.56 33.2173 138.705 33.6446C138.277 34.2856 137.876 34.9265 137.502 35.5675C137.127 36.2084 136.94 36.7426 136.94 37.1699C136.994 37.8108 137.448 38.2114 138.304 38.3717C139.159 38.4785 140.202 38.4518 141.432 38.2915C142.715 38.0779 144.106 37.7574 145.603 37.3301C147.154 36.9028 148.624 36.4488 150.014 35.9681C151.405 35.4339 152.634 34.9265 153.704 34.4458C154.827 33.9117 155.602 33.4844 156.03 33.1639C156.458 32.8968 156.779 32.8968 156.993 33.1639C157.206 33.431 157.099 33.698 156.672 33.9651C156.03 34.4992 154.88 35.1402 153.223 35.888C151.565 36.5823 149.774 37.25 147.849 37.8909C145.924 38.4785 144.025 38.9325 142.154 39.253C140.336 39.5735 138.919 39.5735 137.903 39.253C137.315 39.1461 136.833 38.9325 136.459 38.612C136.138 38.2381 135.978 37.7574 135.978 37.1699C135.978 36.8494 136.004 36.5022 136.058 36.1283C136.165 35.7544 136.352 35.3538 136.619 34.9265L136.78 34.7663L135.336 35.4072C135.229 35.5141 135.095 35.5408 134.935 35.4874C134.775 35.4339 134.694 35.3538 134.694 35.247C134.587 35.0334 134.641 34.8197 134.855 34.606L137.903 32.8434L138.063 32.6832C138.651 31.882 139.293 31.1342 139.988 30.4398C140.737 29.6921 141.432 28.9443 142.074 28.1965L145.122 24.9917C141.806 25.0985 138.919 25.2588 136.459 25.4724C134.053 25.6327 132.395 25.7929 131.486 25.9532C131.005 26.1134 130.737 26.0333 130.684 25.7128C130.63 25.3389 130.898 25.152 131.486 25.152C132.288 24.8315 134.079 24.5644 136.86 24.3508C139.641 24.1371 142.876 23.9769 146.565 23.8701C148.33 22.4279 149.934 21.3062 151.378 20.505C152.875 19.7038 153.945 19.1697 154.586 18.9027C154.586 18.7958 154.64 18.7424 154.747 18.7424C154.854 18.7424 154.961 18.7424 155.068 18.7424C155.335 18.7424 155.522 18.8492 155.629 19.0629C155.789 19.2231 155.87 19.3834 155.87 19.5436C155.709 20.4516 154.64 21.8938 152.661 23.8701C156.458 23.8701 160.308 24.0036 164.211 24.2706C168.115 24.4843 171.591 24.8849 174.639 25.4724ZM140.79 31.0808L140.469 31.5615L141.111 30.9206C142.876 29.8523 144.453 28.8375 145.843 27.876C147.287 26.8612 148.544 25.8997 149.613 24.9917H146.726C145.335 26.1668 144.052 27.4487 142.876 28.8375L140.79 31.0808ZM153.784 20.9858C153.891 20.8255 153.971 20.7454 154.025 20.7454C154.078 20.692 154.158 20.6119 154.265 20.505L154.586 20.0243L154.105 20.1846C152.768 20.7187 150.79 21.9472 148.17 23.8701H150.897L153.784 20.9858Z" fill="white"/>
<path d="M243.446 22.2677C245.051 20.7187 246.601 19.3032 248.099 18.0213C249.649 16.686 251.04 15.4842 252.269 14.416C253.339 13.3477 254.168 12.5465 254.756 12.0124C255.398 11.4248 255.852 10.9975 256.119 10.7305L256.28 10.5702V10.41C256.173 10.3032 256.066 10.2231 255.959 10.1696C255.906 10.1162 255.745 10.1429 255.478 10.2498C255.05 10.3566 254.569 10.5168 254.034 10.7305C253.499 10.8907 252.858 11.2112 252.109 11.6919C250.665 12.4397 248.981 13.4812 247.056 14.8166C245.131 16.0985 243.126 17.4605 241.04 18.9027C238.313 21.0926 235.666 23.2291 233.099 25.3122C230.533 27.3419 228.474 28.9977 226.923 30.2796L226.442 30.6001L226.121 30.9206C225.105 31.7752 224.571 32.2025 224.517 32.2025C224.25 32.3627 223.982 32.3627 223.715 32.2025C223.501 31.8286 223.555 31.5615 223.875 31.4013C223.929 31.3479 224.063 31.241 224.276 31.0808C224.383 30.974 224.544 30.8404 224.758 30.6802C224.972 30.52 225.212 30.333 225.48 30.1194L225.8 29.6386L230.292 25.7929C232.698 23.5496 234.998 21.3596 237.19 19.2231C239.436 17.0332 241.414 15.0035 243.126 13.1341C244.249 11.8521 245.264 10.6771 246.174 9.6088C247.083 8.48713 247.778 7.47229 248.259 6.56426C248.847 5.60283 249.141 4.93517 249.141 4.56128C249.195 4.18739 249.168 3.94703 249.061 3.84021C247.35 2.61171 243.393 3.94703 237.19 7.84618C235.105 9.28832 232.832 10.9441 230.372 12.8136C227.966 14.683 225.48 16.6593 222.913 18.7424L221.469 20.0243L220.988 20.505C219.705 22.1074 218.314 23.7365 216.817 25.3923C215.373 26.9947 213.876 28.517 212.325 29.9591C209.759 32.4695 207.165 34.8464 204.545 37.0897C201.925 39.2797 199.492 41.1758 197.246 42.7782C196.337 43.4726 195.401 44.1403 194.439 44.7812C193.476 45.4222 192.54 45.983 191.631 46.4637C190.776 46.9444 190 47.345 189.305 47.6655C188.664 47.9326 188.156 48.0127 187.781 47.9059C187.674 47.799 187.621 47.6922 187.621 47.5854C187.353 47.4786 187.247 47.345 187.3 47.1848C187.353 47.0246 187.514 46.891 187.781 46.7842C188.263 46.6774 189.332 45.9563 190.99 44.621C192.701 43.2322 195 41.2827 197.888 38.7723C200.615 36.4221 203.609 33.8316 206.871 31.0007C210.133 28.1698 213.502 25.2588 216.977 22.2677L220.667 19.2231L221.63 17.781C223.715 15.0569 225.212 12.5198 226.121 10.1696C227.03 7.81947 227.084 5.8699 226.282 4.32092L225.48 3.35949L224.998 2.87877C224.089 2.29123 222.886 1.91734 221.389 1.7571C219.945 1.54345 218.287 1.51674 216.416 1.67698C214.598 1.83722 212.646 2.1577 210.561 2.63841C208.529 3.11913 206.497 3.73338 204.465 4.48116C202.219 5.28236 200.107 6.19038 198.128 7.20522C196.203 8.16665 194.519 9.20821 193.075 10.3299C191.631 11.3981 190.508 12.4931 189.706 13.6148C188.958 14.7364 188.637 15.8047 188.744 16.8195C188.797 17.4071 189.198 17.8344 189.947 18.1015C190.696 18.3685 191.685 18.4753 192.915 18.4219C194.145 18.3151 195.562 18.0747 197.166 17.7009C198.823 17.327 200.561 16.8195 202.379 16.1786C204.197 15.4842 205.909 14.7364 207.513 13.9352C209.117 13.1341 210.507 12.3329 211.684 11.5317C212.86 10.7305 213.769 9.95598 214.411 9.2082C215.052 8.46042 215.32 7.79276 215.213 7.20522C215.213 7.09839 215.24 6.96486 215.293 6.80462C215.4 6.64438 215.534 6.56426 215.694 6.56426C215.961 6.56426 216.175 6.7245 216.336 7.04498C216.496 7.89959 216.175 8.7809 215.373 9.68892C214.625 10.5969 213.582 11.505 212.245 12.413C210.962 13.2676 209.491 14.0955 207.834 14.8967C206.176 15.6979 204.518 16.3922 202.861 16.9798C201.203 17.5673 199.492 18.1015 197.727 18.5822C196.016 19.0095 194.412 19.2765 192.915 19.3834C191.471 19.4368 190.241 19.3032 189.225 18.9828C188.263 18.6089 187.728 17.8878 187.621 16.8195C187.514 15.5376 187.888 14.2824 188.744 13.0539C189.653 11.772 190.883 10.5702 192.433 9.44856C193.984 8.27348 195.775 7.17851 197.807 6.16367C199.839 5.14882 201.952 4.26751 204.144 3.51973C206.283 2.71854 208.475 2.05087 210.721 1.51674C212.967 0.982613 215.106 0.662137 217.138 0.555312C219.17 0.395072 220.988 0.501898 222.592 0.87579C224.196 1.19627 225.426 1.81052 226.282 2.71854H226.442C227.725 4.10727 228.153 5.8699 227.725 8.00641C227.351 10.0895 226.442 12.3863 224.998 14.8967L223.875 16.4991L227.244 13.9352C228.955 12.6533 230.586 11.4248 232.137 10.2498C233.741 9.07467 235.265 8.00641 236.709 7.04498C238.046 6.13696 239.356 5.33577 240.639 4.6414C241.976 3.89362 243.206 3.33278 244.329 2.95889C245.452 2.53159 246.468 2.31794 247.377 2.31794C248.339 2.26452 249.115 2.45147 249.703 2.87877C250.237 3.30608 250.425 3.89362 250.264 4.6414C250.104 5.38918 249.729 6.27049 249.141 7.28534C248.553 8.24677 247.804 9.28832 246.895 10.41C245.986 11.5317 245.051 12.6533 244.088 13.775C243.446 14.416 242.805 15.0836 242.163 15.778C241.521 16.4724 240.88 17.1934 240.238 17.9412L238.153 19.8641L240.398 18.1015C242.484 16.5525 244.489 15.137 246.414 13.8551C248.339 12.5732 250.077 11.5317 251.628 10.7305C252.376 10.2498 253.045 9.90257 253.633 9.68892C254.275 9.42186 254.836 9.23491 255.317 9.12808C255.906 9.12808 256.36 9.23491 256.681 9.44856C257.055 9.66222 257.242 10.0895 257.242 10.7305V11.0509H257.082C256.975 11.3714 256.547 11.8788 255.799 12.5732C255.103 13.2676 254.168 14.1222 252.991 15.137C251.868 16.1519 250.532 17.327 248.981 18.6623C247.484 19.9976 245.853 21.4665 244.088 23.0689C243.339 23.8166 242.297 24.8582 240.96 26.1935C239.677 27.5288 238.34 28.9977 236.949 30.6001C235.559 32.2025 234.276 33.8049 233.099 35.4072C231.923 36.9562 231.067 38.345 230.533 39.5735C229.998 40.8019 229.918 41.7367 230.292 42.3776C230.72 42.9652 231.843 43.0453 233.661 42.618C234.303 42.5112 235.238 42.2708 236.468 41.8969C237.698 41.4696 239.062 40.9889 240.559 40.4548C242.056 39.9206 243.607 39.3331 245.211 38.6921C246.869 38.0512 248.419 37.4369 249.863 36.8494C251.307 36.2084 252.617 35.6476 253.793 35.1669C254.97 34.6328 255.852 34.1787 256.44 33.8049C256.868 33.6446 257.162 33.698 257.323 33.9651C257.537 34.1787 257.403 34.4458 256.922 34.7663C256.28 35.1402 255.317 35.6209 254.034 36.2084C252.804 36.7426 251.414 37.3301 249.863 37.9711C248.312 38.5586 246.682 39.1996 244.97 39.8939C243.313 40.5349 241.709 41.1224 240.158 41.6566C238.661 42.1907 237.297 42.6447 236.067 43.0186C234.891 43.3925 234.035 43.6328 233.5 43.7397C231.629 44.0601 230.346 43.9266 229.65 43.3391C229.009 42.7515 228.741 41.977 228.848 41.0156C229.009 39.7337 229.704 38.1847 230.934 36.3687C232.164 34.5526 233.554 32.7366 235.105 30.9206C236.709 29.0511 238.286 27.3419 239.837 25.7929C241.388 24.1905 242.591 23.0154 243.446 22.2677ZM196.604 41.977C198.85 40.2678 201.256 38.345 203.823 36.2084C206.443 34.0185 209.01 31.6683 211.523 29.1579L216.817 23.8701L212.646 27.5555L198.529 39.5735C197.567 40.3746 196.658 41.1758 195.802 41.977C195 42.7248 194.198 43.4192 193.396 44.0601L192.754 44.5409L193.396 44.2204L196.604 41.977Z" fill="white"/>
<path d="M255.497 38.4518C254.855 37.9176 254.588 37.3034 254.695 36.609C254.802 35.8613 255.123 35.1669 255.657 34.5259C256.192 33.8316 256.834 33.2173 257.582 32.6832C258.331 32.1491 258.999 31.7752 259.588 31.5615C259.695 31.5081 259.855 31.4814 260.069 31.4814C260.336 31.4814 260.47 31.5615 260.47 31.7218C260.577 31.9354 260.523 32.1491 260.309 32.3627C259.882 32.7366 259.32 33.1906 258.625 33.7247C257.983 34.2055 257.342 34.6595 256.7 35.0868C256.058 35.888 255.844 36.609 256.058 37.25C256.219 37.7307 256.7 37.9711 257.502 37.9711C258.304 37.9711 259.187 37.7307 260.149 37.25C259.561 36.7159 259.293 36.0482 259.347 35.247C259.454 34.4458 259.721 33.6713 260.149 32.9235C260.63 32.1758 261.218 31.5348 261.914 31.0007C262.609 30.4665 263.25 30.2262 263.839 30.2796C263.999 30.2796 264.133 30.3063 264.24 30.3597C264.347 30.3597 264.48 30.4398 264.641 30.6001C264.962 31.0274 265.042 31.5615 264.881 32.2025C264.774 32.8434 264.534 33.4844 264.159 34.1253C263.839 34.7663 263.464 35.3538 263.037 35.888C262.609 36.4221 262.288 36.7426 262.074 36.8494C262.609 36.9562 263.331 36.9028 264.24 36.6892C265.202 36.4221 266.165 36.1283 267.127 35.8078C268.143 35.4339 269.106 35.0334 270.015 34.606C270.924 34.1787 271.592 33.8049 272.02 33.4844C272.448 33.4844 272.662 33.5912 272.662 33.8049C272.769 34.0185 272.715 34.2322 272.501 34.4458C271.967 34.8197 271.218 35.247 270.255 35.7277C269.293 36.155 268.25 36.5556 267.127 36.9295C266.058 37.3034 264.962 37.5972 263.839 37.8108C262.769 37.9711 261.86 37.9711 261.112 37.8108C259.721 38.7188 258.545 39.1461 257.582 39.0927C256.62 39.0393 255.925 38.8257 255.497 38.4518ZM263.678 31.241C263.304 31.1876 262.876 31.4013 262.395 31.882C261.914 32.3093 261.486 32.8167 261.112 33.4043C260.791 33.9918 260.577 34.606 260.47 35.247C260.363 35.8345 260.523 36.2618 260.951 36.5289C261.379 36.155 261.807 35.701 262.234 35.1669C262.662 34.5793 263.01 34.0185 263.277 33.4844C263.598 32.8968 263.785 32.3894 263.839 31.9621C263.946 31.5348 263.892 31.2944 263.678 31.241Z" fill="white"/>
<path d="M275.548 39.253C275.12 38.612 275.147 37.8642 275.628 37.0096C276.11 36.1016 276.725 35.247 277.473 34.4458V34.2856C277.152 33.8049 276.939 33.4043 276.832 33.0838C276.778 32.7633 276.671 32.3627 276.511 31.882C275.067 32.8434 273.917 33.5912 273.062 34.1253C272.206 34.6595 271.538 35.0868 271.057 35.4072C270.629 35.4072 270.415 35.3538 270.415 35.247C270.308 35.0868 270.281 34.9532 270.335 34.8464C270.388 34.6862 270.468 34.5526 270.575 34.4458C270.843 34.2322 271.137 34.0452 271.458 33.885C271.778 33.6713 272.153 33.431 272.581 33.1639C273.062 32.8434 273.597 32.4962 274.185 32.1223C274.773 31.695 275.495 31.1876 276.35 30.6001L276.511 30.1194C276.671 29.2648 277.072 28.4636 277.714 27.7158C278.356 26.9146 279.077 26.2469 279.88 25.7128C280.682 25.1253 281.484 24.6712 282.286 24.3508C283.141 24.0303 283.81 23.8968 284.291 23.9502C284.665 24.0036 284.799 24.2974 284.692 24.8315C284.585 25.3122 284.184 25.8463 283.489 26.4339C282.687 27.0748 282.045 27.609 281.564 28.0363C281.083 28.4101 280.361 28.9443 279.398 29.6386L277.473 31.0808C277.473 31.9354 277.901 32.9502 278.757 34.1253C278.971 34.5526 278.971 34.7663 278.757 34.7663C278.275 35.1936 277.741 35.7277 277.152 36.3687C276.618 37.0096 276.35 37.6506 276.35 38.2915C276.404 38.6654 276.698 38.8524 277.233 38.8524C277.821 38.8524 278.543 38.7456 279.398 38.5319C280.254 38.2648 281.19 37.9444 282.206 37.5705C283.275 37.1966 284.318 36.796 285.334 36.3687C286.35 35.888 287.286 35.4607 288.141 35.0868C289.05 34.6595 289.772 34.2856 290.307 33.9651C290.574 33.8049 290.735 33.7781 290.788 33.885C290.895 33.9384 291.002 34.0185 291.109 34.1253C291.216 34.2322 291.243 34.3657 291.189 34.5259C291.136 34.6862 291.055 34.7663 290.948 34.7663C290.253 35.1936 289.157 35.7811 287.66 36.5289C286.163 37.2767 284.585 37.9711 282.928 38.612C281.323 39.1996 279.799 39.6002 278.356 39.8138C276.965 40.0275 276.03 39.8405 275.548 39.253ZM283.649 24.9917C282.58 25.2054 281.43 25.7662 280.2 26.6742C279.024 27.5822 278.222 28.517 277.794 29.4784C278.329 28.9977 278.837 28.5971 279.318 28.2766C279.799 27.9027 280.254 27.5555 280.682 27.2351C281.109 26.8612 281.564 26.514 282.045 26.1935C282.526 25.8196 283.061 25.419 283.649 24.9917Z" fill="white"/>
<path d="M286.765 34.4458C287.086 33.6446 287.62 32.9502 288.369 32.3627C289.118 31.7752 289.866 31.4013 290.615 31.241C291.203 31.1342 291.764 31.1609 292.299 31.3212C292.834 31.428 293.128 31.7218 293.181 32.2025C293.235 32.6832 293.021 33.1639 292.54 33.6446C292.112 34.0719 291.551 34.4725 290.855 34.8464C290.214 35.2203 289.572 35.5408 288.93 35.8078C288.289 36.0749 287.861 36.2351 287.647 36.2886C287.914 37.0363 288.476 37.5972 289.331 37.9711C290.187 38.345 291.176 38.4518 292.299 38.2915C294.331 38.0245 296.336 37.4636 298.315 36.609C300.293 35.701 302.004 34.7663 303.448 33.8049C303.769 33.5378 304.036 33.5378 304.25 33.8049C304.464 34.0719 304.411 34.339 304.09 34.606C303.341 35.1402 302.432 35.701 301.363 36.2886C300.347 36.8227 299.251 37.3301 298.074 37.8108C296.951 38.2381 295.775 38.612 294.545 38.9325C293.369 39.1996 292.219 39.3331 291.096 39.3331C290.347 39.3331 289.652 39.2263 289.011 39.0126C288.369 38.7455 287.807 38.3984 287.326 37.9711C286.898 37.5438 286.604 37.0363 286.444 36.4488C286.337 35.8613 286.444 35.1936 286.765 34.4458ZM292.059 32.2025C291.096 31.9888 290.16 32.2826 289.251 33.0838C288.342 33.8316 287.754 34.6328 287.487 35.4874C287.7 35.3805 288.048 35.2203 288.529 35.0066C289.011 34.7396 289.519 34.4725 290.053 34.2055C290.588 33.885 291.043 33.5645 291.417 33.244C291.845 32.8701 292.059 32.5229 292.059 32.2025Z" fill="white"/>
<path d="M302.653 37.8108C302.813 37.5438 303.161 37.1699 303.696 36.6892C304.284 36.2084 304.685 35.7544 304.899 35.3271C305.166 34.8464 305.353 34.3924 305.46 33.9651C304.926 34.339 304.391 34.6595 303.856 34.9265C303.375 35.1936 302.894 35.4607 302.412 35.7277C302.092 35.888 301.824 35.8078 301.61 35.4874C301.45 35.1669 301.557 34.9265 301.931 34.7663C302.252 34.606 302.626 34.4191 303.054 34.2055C303.482 33.9384 303.856 33.698 304.177 33.4844C304.551 33.2707 304.845 33.0838 305.059 32.9235C305.327 32.7099 305.46 32.5229 305.46 32.3627V32.2025C305.567 31.9354 305.728 31.8019 305.942 31.8019C306.155 31.7485 306.316 31.882 306.423 32.2025C306.583 32.79 306.637 33.2974 306.583 33.7247C306.53 34.0986 306.423 34.4992 306.262 34.9265C307.867 34.0185 309.257 33.2707 310.433 32.6832C311.61 32.0956 312.572 32.0422 313.321 32.5229C313.588 32.6832 313.722 32.9235 313.722 33.244C313.722 33.5645 313.642 33.8583 313.481 34.1253C313.267 34.7663 313.053 35.3538 312.84 35.888C312.626 36.4221 312.492 36.8761 312.439 37.25C312.385 37.6239 312.439 37.8909 312.599 38.0512C312.813 38.2114 313.214 38.2381 313.802 38.1313C315.085 37.8642 316.663 37.3301 318.534 36.5289C320.406 35.6743 322.144 34.7129 323.748 33.6446C324.122 33.431 324.39 33.4844 324.55 33.8049C324.711 34.1253 324.657 34.339 324.39 34.4458C322.625 35.6743 320.834 36.7159 319.016 37.5705C317.198 38.3717 315.406 38.9325 313.642 39.253C312.572 39.4132 311.877 39.2797 311.556 38.8524C311.289 38.4251 311.182 37.8909 311.235 37.25C311.342 36.609 311.556 35.9414 311.877 35.247C312.198 34.4992 312.412 33.9117 312.519 33.4844C312.412 33.1639 312.037 33.1105 311.396 33.3241C310.754 33.5378 310.006 33.885 309.15 34.3657C308.348 34.793 307.546 35.2737 306.744 35.8078C305.942 36.342 305.327 36.7693 304.899 37.0897C304.631 37.4102 304.337 37.7307 304.017 38.0512C303.749 38.3182 303.535 38.5052 303.375 38.612C303.108 38.7188 302.867 38.7188 302.653 38.612C302.439 38.5052 302.439 38.2381 302.653 37.8108Z" fill="white"/>
<path d="M322.782 38.4518C322.14 37.9176 321.873 37.3034 321.98 36.609C322.087 35.8613 322.407 35.1669 322.942 34.5259C323.477 33.8316 324.119 33.2173 324.867 32.6832C325.616 32.1491 326.284 31.7752 326.872 31.5615C326.979 31.5081 327.14 31.4814 327.354 31.4814C327.621 31.4814 327.755 31.5615 327.755 31.7218C327.862 31.9354 327.808 32.1491 327.594 32.3627C327.167 32.7366 326.605 33.1906 325.91 33.7247C325.268 34.2055 324.627 34.6595 323.985 35.0868C323.343 35.888 323.129 36.609 323.343 37.25C323.504 37.7307 323.985 37.9711 324.787 37.9711C325.589 37.9711 326.471 37.7307 327.434 37.25C326.846 36.7159 326.578 36.0482 326.632 35.247C326.739 34.4458 327.006 33.6713 327.434 32.9235C327.915 32.1758 328.503 31.5348 329.198 31.0007C329.894 30.4665 330.535 30.2262 331.124 30.2796C331.284 30.2796 331.418 30.3063 331.525 30.3597C331.632 30.3597 331.765 30.4398 331.926 30.6001C332.246 31.0274 332.327 31.5615 332.166 32.2025C332.059 32.8434 331.819 33.4844 331.444 34.1253C331.123 34.7663 330.749 35.3538 330.321 35.888C329.894 36.4221 329.573 36.7426 329.359 36.8494C329.894 36.9562 330.616 36.9028 331.525 36.6892C332.487 36.4221 333.45 36.1283 334.412 35.8078C335.428 35.4339 336.391 35.0334 337.3 34.606C338.209 34.1787 338.877 33.8049 339.305 33.4844C339.733 33.4844 339.946 33.5912 339.946 33.8049C340.053 34.0185 340 34.2322 339.786 34.4458C339.251 34.8197 338.503 35.247 337.54 35.7277C336.578 36.155 335.535 36.5556 334.412 36.9295C333.343 37.3034 332.246 37.5972 331.124 37.8108C330.054 37.9711 329.145 37.9711 328.396 37.8108C327.006 38.7188 325.83 39.1461 324.867 39.0927C323.905 39.0393 323.21 38.8257 322.782 38.4518ZM330.963 31.241C330.589 31.1876 330.161 31.4013 329.68 31.882C329.198 32.3093 328.771 32.8167 328.396 33.4043C328.076 33.9918 327.862 34.606 327.755 35.247C327.648 35.8345 327.808 36.2618 328.236 36.5289C328.664 36.155 329.092 35.701 329.519 35.1669C329.947 34.5793 330.295 34.0185 330.562 33.4844C330.883 32.8968 331.07 32.3894 331.124 31.9621C331.23 31.5348 331.177 31.2944 330.963 31.241Z" fill="white"/>
</svg>
