<svg width="32" height="32" viewBox="0 0 32 32" fill="none" xmlns="http://www.w3.org/2000/svg">
<path d="M22 14C22 19 16 24 16 24C16 24 10 19 10 14C10 12.4783 10.5665 11.089 11.5 10.0313C12.5994 8.78563 14.208 8 16 8C17.792 8 19.4006 8.78563 20.5 10.0313C21.4335 11.089 22 12.4783 22 14Z" stroke="#19191A" stroke-opacity="0.5" stroke-width="1.5"/>
<path d="M18 14C18 15.1046 17.1046 16 16 16C14.8954 16 14 15.1046 14 14C14 12.8954 14.8954 12 16 12C17.1046 12 18 12.8954 18 14Z" stroke="#19191A" stroke-opacity="0.5" stroke-width="1.5"/>
</svg>
