<svg width="16" height="20" viewBox="0 0 16 20" fill="none" xmlns="http://www.w3.org/2000/svg">
<path d="M8 19.2L7.5699 19.8144C7.82814 19.9952 8.17186 19.9952 8.4301 19.8144L8 19.2ZM8 1V0.25V1ZM10.05 8C10.05 9.13218 9.13218 10.05 8 10.05V11.55C9.96061 11.55 11.55 9.96061 11.55 8H10.05ZM8 10.05C6.86782 10.05 5.95 9.13218 5.95 8H4.45C4.45 9.96061 6.03939 11.55 8 11.55V10.05ZM5.95 8C5.95 6.86782 6.86782 5.95 8 5.95V4.45C6.03939 4.45 4.45 6.03939 4.45 8H5.95ZM8 5.95C9.13218 5.95 10.05 6.86782 10.05 8H11.55C11.55 6.03939 9.96061 4.45 8 4.45V5.95ZM14.25 8C14.25 10.88 12.6411 13.5072 10.934 15.4704C10.0897 16.4414 9.24337 17.2244 8.60801 17.7645C8.29086 18.0341 8.02764 18.2419 7.84535 18.3813C7.75425 18.4509 7.68347 18.5033 7.6364 18.5377C7.61288 18.5548 7.59529 18.5675 7.58406 18.5755C7.57845 18.5795 7.57442 18.5824 7.57205 18.5841C7.57086 18.5849 7.57008 18.5854 7.56972 18.5857C7.56954 18.5858 7.56947 18.5859 7.5695 18.5859C7.56951 18.5858 7.56961 18.5858 7.56962 18.5858C7.56975 18.5857 7.5699 18.5856 8 19.2C8.4301 19.8144 8.43031 19.8143 8.43054 19.8141C8.43065 19.814 8.43092 19.8138 8.43114 19.8137C8.4316 19.8134 8.43216 19.813 8.43283 19.8125C8.43417 19.8116 8.43593 19.8103 8.4381 19.8088C8.44245 19.8057 8.44847 19.8014 8.4561 19.796C8.47136 19.7851 8.49308 19.7694 8.52082 19.7492C8.5763 19.7087 8.65591 19.6497 8.75621 19.573C8.95674 19.4198 9.24039 19.1956 9.57949 18.9074C10.2566 18.3318 11.1603 17.4961 12.066 16.4546C13.8589 14.3928 15.75 11.42 15.75 8H14.25ZM8 19.2C8.4301 18.5856 8.43025 18.5857 8.43038 18.5858C8.43039 18.5858 8.43049 18.5858 8.4305 18.5859C8.43053 18.5859 8.43046 18.5858 8.43028 18.5857C8.42992 18.5854 8.42914 18.5849 8.42795 18.5841C8.42558 18.5824 8.42155 18.5795 8.41594 18.5755C8.40471 18.5675 8.38712 18.5548 8.3636 18.5377C8.31653 18.5033 8.24575 18.4509 8.15465 18.3813C7.97236 18.2419 7.70914 18.0341 7.39199 17.7645C6.75662 17.2244 5.91033 16.4414 5.06595 15.4704C3.35889 13.5072 1.75 10.88 1.75 8H0.25C0.25 11.42 2.14111 14.3928 3.93405 16.4546C4.83967 17.4961 5.74338 18.3318 6.42051 18.9074C6.75961 19.1956 7.04326 19.4198 7.24379 19.573C7.34409 19.6497 7.4237 19.7087 7.47918 19.7492C7.50692 19.7694 7.52864 19.7851 7.5439 19.796C7.55153 19.8014 7.55755 19.8057 7.5619 19.8088C7.56407 19.8103 7.56583 19.8116 7.56717 19.8125C7.56784 19.813 7.5684 19.8134 7.56886 19.8137C7.56908 19.8138 7.56935 19.814 7.56946 19.8141C7.56969 19.8143 7.5699 19.8144 8 19.2ZM1.75 8C1.75 6.3424 2.40848 4.75268 3.58058 3.58058L2.51992 2.51992C1.06652 3.97333 0.25 5.94457 0.25 8H1.75ZM3.58058 3.58058C4.75268 2.40848 6.3424 1.75 8 1.75V0.25C5.94457 0.25 3.97333 1.06652 2.51992 2.51992L3.58058 3.58058ZM8 1.75C9.6576 1.75 11.2473 2.40848 12.4194 3.58058L13.4801 2.51992C12.0267 1.06652 10.0554 0.25 8 0.25V1.75ZM12.4194 3.58058C13.5915 4.75268 14.25 6.3424 14.25 8H15.75C15.75 5.94457 14.9335 3.97333 13.4801 2.51992L12.4194 3.58058Z" fill="#19191A" fill-opacity="0.5"/>
</svg>
