<svg width="17" height="18" viewBox="0 0 17 18" fill="none" xmlns="http://www.w3.org/2000/svg">
<path d="M16.8782 5.70349C16.8407 4.85318 16.7032 4.26861 16.5062 3.76206C16.303 3.22438 15.9904 2.74299 15.5808 2.34281C15.1807 1.9364 14.6961 1.6206 14.1646 1.42057C13.6552 1.2236 13.0736 1.08609 12.2233 1.0486C11.3667 1.00794 11.0947 0.998535 8.922 0.998535C6.74928 0.998535 6.47732 1.00794 5.62384 1.04543C4.77353 1.08292 4.18896 1.22055 3.68253 1.4174C3.14473 1.6206 2.66334 1.93323 2.26316 2.34281C1.85675 2.74299 1.54107 3.22755 1.34092 3.75901C1.14395 4.26861 1.00644 4.85001 0.968953 5.70032C0.928287 6.55697 0.918884 6.82893 0.918884 9.00165C0.918884 11.1744 0.928287 11.4463 0.965778 12.2998C1.00327 13.1501 1.14089 13.7347 1.33787 14.2412C1.54107 14.7789 1.85675 15.2603 2.26316 15.6605C2.66334 16.0669 3.1479 16.3827 3.67936 16.5827C4.18896 16.7797 4.77036 16.9172 5.62079 16.9547C6.47415 16.9923 6.74623 17.0016 8.91895 17.0016C11.0917 17.0016 11.3636 16.9923 12.2171 16.9547C13.0674 16.9172 13.652 16.7797 14.1584 16.5827C15.2339 16.1669 16.0842 15.3166 16.5 14.2412C16.6969 13.7316 16.8345 13.1501 16.872 12.2998C16.9095 11.4463 16.9189 11.1744 16.9189 9.00165C16.9189 6.82893 16.9157 6.55697 16.8782 5.70349ZM15.4371 12.2373C15.4027 13.0188 15.2714 13.4409 15.162 13.7222C14.8931 14.4194 14.3398 14.9727 13.6426 15.2416C13.3612 15.351 12.9361 15.4823 12.1576 15.5166C11.3136 15.5542 11.0604 15.5635 8.92517 15.5635C6.78994 15.5635 6.53362 15.5542 5.69259 15.5166C4.91104 15.4823 4.489 15.351 4.20764 15.2416C3.8607 15.1134 3.54491 14.9102 3.28858 14.6445C3.02285 14.385 2.81965 14.0723 2.69142 13.7254C2.58201 13.4441 2.45073 13.0188 2.41642 12.2405C2.3788 11.3964 2.36952 11.1431 2.36952 9.00788C2.36952 6.87265 2.3788 6.61632 2.41642 5.77542C2.45073 4.99386 2.58201 4.57183 2.69142 4.29047C2.81965 3.94341 3.02285 3.62773 3.29176 3.37128C3.55113 3.10556 3.86376 2.90235 4.21081 2.77425C4.49217 2.66483 4.91739 2.53356 5.69577 2.49912C6.53985 2.46163 6.79312 2.45223 8.92823 2.45223C11.0666 2.45223 11.3198 2.46163 12.1608 2.49912C12.9424 2.53356 13.3644 2.66483 13.6458 2.77425C13.9927 2.90235 14.3085 3.10556 14.5648 3.37128C14.8305 3.63079 15.0338 3.94341 15.162 4.29047C15.2714 4.57183 15.4027 4.99692 15.4371 5.77542C15.4746 6.6195 15.484 6.87265 15.484 9.00788C15.484 11.1431 15.4746 11.3932 15.4371 12.2373Z" fill="#19191A" fill-opacity="0.5"/>
<path d="M8.922 4.89067C6.65244 4.89067 4.81102 6.73197 4.81102 9.00165C4.81102 11.2713 6.65244 13.1126 8.922 13.1126C11.1917 13.1126 13.033 11.2713 13.033 9.00165C13.033 6.73197 11.1917 4.89067 8.922 4.89067ZM8.922 11.6683C7.44962 11.6683 6.25531 10.4741 6.25531 9.00165C6.25531 7.52915 7.44962 6.33496 8.922 6.33496C10.3945 6.33496 11.5887 7.52915 11.5887 9.00165C11.5887 10.4741 10.3945 11.6683 8.922 11.6683Z" fill="#19191A" fill-opacity="0.5"/>
<path d="M14.1554 4.72814C14.1554 5.25813 13.7256 5.68786 13.1955 5.68786C12.6655 5.68786 12.2358 5.25813 12.2358 4.72814C12.2358 4.19802 12.6655 3.76841 13.1955 3.76841C13.7256 3.76841 14.1554 4.19802 14.1554 4.72814Z" fill="#19191A" fill-opacity="0.5"/>
</svg>
