<svg width="64" height="16" viewBox="0 0 64 16" fill="none" xmlns="http://www.w3.org/2000/svg">
<path d="M22.2617 15.8499C22.0729 15.8178 21.884 15.7782 21.6952 15.7335C21.6401 15.4344 21.61 15.1312 21.6052 14.8271C21.6089 14.5325 21.639 14.2389 21.6952 13.9497C21.9381 14.0277 22.1855 14.0907 22.4361 14.1385C22.9045 14.2282 23.3804 14.2733 23.8573 14.2732C24.476 14.3337 25.0941 14.1534 25.5832 13.7697C25.7669 13.5711 25.9077 13.3369 25.9969 13.0816C26.0862 12.8262 26.1219 12.5553 26.1019 12.2855V12.1364H26.0918C25.8388 12.2225 25.5795 12.2894 25.3163 12.3365C25.0259 12.3924 24.7309 12.4204 24.4351 12.4202C23.84 12.4389 23.247 12.3396 22.6904 12.1282C22.2564 11.9545 21.874 11.6728 21.5794 11.3099C21.2913 10.9392 21.0888 10.5093 20.9865 10.051C20.8631 9.5144 20.8029 8.96518 20.8071 8.41455V3.50505C21.1426 3.44951 21.4818 3.41942 21.8218 3.41503C22.1593 3.41881 22.496 3.44891 22.8288 3.50505V8.09984C22.8227 8.50037 22.8528 8.90066 22.9189 9.29576C22.963 9.5807 23.0649 9.85358 23.2185 10.0976C23.3553 10.3006 23.5507 10.4572 23.7787 10.5464C24.0562 10.6488 24.3509 10.6969 24.6466 10.688C24.9215 10.6871 25.1955 10.6591 25.4649 10.6043C25.6733 10.5661 25.8795 10.5161 26.0824 10.4545V3.5082C26.4202 3.45264 26.7616 3.42255 27.1039 3.41818C27.4389 3.42206 27.7731 3.45216 28.1034 3.5082V10.9606V11.979C28.1034 13.3637 27.7547 14.3752 27.0485 15.0191C26.127 15.7326 24.9726 16.0771 23.8108 15.9853C23.2915 15.9848 22.7732 15.9395 22.2617 15.8499ZM43.547 12.4957C42.8639 12.5107 42.1842 12.3947 41.5448 12.154C41.0118 11.9478 40.5333 11.622 40.1462 11.2016C39.7738 10.7869 39.4947 10.2971 39.3279 9.7653C39.1439 9.17972 39.053 8.56888 39.0586 7.95508C39.0443 7.26655 39.16 6.58151 39.3997 5.93588C39.6023 5.39811 39.9116 4.90693 40.3092 4.49198C40.6778 4.11519 41.1212 3.81975 41.6108 3.62464C42.0882 3.43203 42.598 3.33266 43.1127 3.33194C43.634 3.3027 44.1553 3.38758 44.6404 3.58065C45.1255 3.77372 45.5626 4.07034 45.9212 4.4498C46.6595 5.39811 47.0185 6.58727 46.9282 7.78574C46.9282 7.89715 46.9283 8.0218 46.9201 8.16342C46.9119 8.30504 46.9056 8.42713 46.8949 8.54106H41.1382C41.1471 8.84811 41.2174 9.15028 41.345 9.42972C41.4726 9.70916 41.6548 9.96023 41.8809 10.1681C42.4264 10.5862 43.1057 10.7907 43.7912 10.7434C44.2437 10.7481 44.6953 10.7035 45.1381 10.6106C45.4652 10.5461 45.7859 10.4523 46.0962 10.3305C46.1513 10.6241 46.1814 10.9219 46.1862 11.2205C46.1823 11.5109 46.1522 11.8004 46.0962 12.0854C46.0962 12.0854 45.6556 12.2352 45.237 12.3252C44.9709 12.3859 44.7008 12.428 44.4288 12.4511C44.138 12.4846 43.8454 12.5014 43.5527 12.5014L43.547 12.4957ZM42.3127 5.1944C42.0862 5.30562 41.8847 5.46173 41.7204 5.65325C41.5563 5.84567 41.4284 6.06615 41.3428 6.30407C41.2549 6.54532 41.1934 6.79545 41.1596 7.04998H44.9141C44.9151 6.78129 44.8759 6.51396 44.7977 6.2569C44.7267 6.02017 44.6106 5.79937 44.4559 5.60669C44.3059 5.4235 44.1177 5.27528 43.9045 5.17238C43.6615 5.06111 43.3963 5.00707 43.1291 5.01441H43.0988C42.8268 5.01358 42.5582 5.07403 42.3127 5.19128V5.1944ZM58.5191 12.4768C57.9879 12.4906 57.4587 12.4053 56.9588 12.2251C56.568 12.0777 56.2247 11.8269 55.9655 11.4994C55.7105 11.1583 55.5338 10.7653 55.4481 10.3482C55.3414 9.84077 55.2904 9.32325 55.2958 8.80479V1.46256C55.6364 1.40744 55.9806 1.37736 56.3256 1.37255C56.6566 1.37609 56.9869 1.4062 57.3131 1.46256V3.54657H59.2367C59.2925 3.78927 59.3227 4.03714 59.3267 4.28614C59.3222 4.5403 59.292 4.79335 59.2367 5.04146H57.3131V8.79346C57.2696 9.31637 57.3862 9.84014 57.6473 10.2953C57.7863 10.4555 57.9619 10.5799 58.1591 10.658C58.3563 10.7361 58.5693 10.7656 58.7803 10.744C59.1095 10.7494 59.4379 10.7103 59.7566 10.6276C59.9849 10.5661 60.2097 10.4924 60.43 10.4067C60.4852 10.6911 60.5154 10.9799 60.5201 11.2696C60.5162 11.5517 60.486 11.8328 60.43 12.1093C60.2418 12.1952 60.0466 12.2649 59.8466 12.3176C59.4399 12.4224 59.0215 12.4756 58.6016 12.4756L58.5191 12.4768ZM14.8074 12.312C14.4086 12.2275 14.031 12.0628 13.6978 11.8279C13.3899 11.6031 13.1431 11.305 12.9796 10.9606C12.7953 10.5463 12.7069 10.0958 12.7209 9.64255C12.7075 9.2027 12.8081 8.76686 13.013 8.3774C13.2047 8.03604 13.477 7.74673 13.806 7.53461C14.1609 7.30925 14.5541 7.15094 14.9661 7.06757C15.4178 6.96668 15.8798 6.91917 16.3427 6.92597C17.0583 6.9096 17.8275 6.92597 17.8275 6.92597C17.8175 6.65064 17.7895 6.37626 17.7437 6.10457C17.6908 5.89163 17.5863 5.69498 17.4395 5.53197C17.2926 5.36896 17.1078 5.24461 16.9015 5.16989C16.6257 5.0735 16.3345 5.02845 16.0424 5.03704C15.6116 5.0343 15.1814 5.06865 14.7565 5.13965C14.3518 5.19804 13.9506 5.27894 13.5549 5.38199C13.4998 5.11003 13.4697 4.83361 13.4649 4.55617C13.4693 4.28121 13.4994 4.00727 13.5549 3.73793C13.9207 3.62132 14.2945 3.5313 14.6734 3.46855C15.1909 3.37674 15.7157 3.33186 16.2413 3.33447C16.8137 3.31999 17.3843 3.40516 17.9275 3.58622C18.3434 3.7274 18.7185 3.96812 19.0202 4.28741C19.2998 4.59954 19.5004 4.9743 19.6049 5.3801C19.7274 5.83996 19.7877 6.31414 19.7843 6.79001V12.2748C19.7843 12.2748 18.9377 12.3333 18.0395 12.385C17.3346 12.4265 16.5956 12.4643 16.2438 12.4643H16.1871C15.7227 12.4629 15.2599 12.4108 14.8068 12.3088L14.8074 12.312ZM16.2092 8.40952C15.9138 8.41923 15.623 8.48547 15.3526 8.60464C15.1749 8.68929 15.0228 8.8196 14.9119 8.98228C14.7951 9.16321 14.7369 9.37575 14.7451 9.59096C14.7237 9.78157 14.754 9.97443 14.833 10.1492C14.912 10.324 15.0367 10.4743 15.1939 10.5842C15.5671 10.7849 15.9881 10.8798 16.4113 10.8586C16.8856 10.8502 17.3591 10.817 17.8299 10.7591L17.8337 8.43345C17.8337 8.43345 17.3113 8.39819 16.7562 8.39819H16.7096C16.5371 8.39567 16.3684 8.40008 16.2086 8.40952H16.2092ZM52.8562 12.2748L50.7974 9.31213C50.7974 9.31213 48.9657 11.8518 48.7202 12.2748C48.412 12.3343 48.0988 12.3645 47.7849 12.3648C47.4089 12.3581 47.0337 12.3281 46.6614 12.2748L49.7582 7.81409L46.7955 3.54723C47.1841 3.49341 47.5758 3.46335 47.9681 3.45722C48.3188 3.45931 48.6688 3.48941 49.0148 3.54723L50.8641 6.22036L52.719 3.54723C53.4201 3.42752 54.1365 3.42752 54.8376 3.54723L51.907 7.72785L55.0541 12.2748C54.6733 12.3295 54.2895 12.3596 53.9048 12.3648C53.5535 12.3626 53.2028 12.3325 52.8562 12.2748ZM29.1268 12.2748V0.711012C29.471 0.65547 29.8188 0.625383 30.1673 0.621001C30.5065 0.624376 30.8449 0.654476 31.1794 0.711012L36.1173 8.88789V0.711012C36.4677 0.655307 36.8218 0.625221 37.1766 0.621001C37.521 0.624499 37.8646 0.654595 38.2044 0.711012V12.2717C37.8503 12.3271 37.4928 12.3572 37.1344 12.3617C36.7831 12.3582 36.4326 12.3281 36.0858 12.2717L31.1971 4.16217V12.2742C30.8581 12.3306 30.5153 12.3607 30.1717 12.3642C29.8211 12.3606 29.4712 12.3307 29.125 12.2748H29.1268ZM9.82305 12.2748L9.84571 0.6613C10.1808 0.605791 10.5195 0.575699 10.8591 0.571289C11.1966 0.575156 11.5333 0.605253 11.8661 0.6613L11.8529 12.2748C11.5267 12.3314 11.1965 12.3615 10.8654 12.3648C10.5156 12.3606 10.1665 12.3306 9.82113 12.2748H9.82305ZM0.501921 12.2748V0.877819C1.03752 0.760108 1.58153 0.684782 2.12896 0.652503C2.72398 0.613478 3.27196 0.593955 3.77298 0.593955C5.12293 0.509582 6.46749 0.829059 7.6352 1.51166C8.08659 1.83443 8.44727 2.26797 8.68252 2.77055C8.91777 3.27313 9.01961 3.82781 8.97833 4.38118C8.99465 4.9827 8.8717 5.57987 8.61898 6.12597C8.38294 6.60625 8.02314 7.01491 7.57665 7.30991C7.06745 7.63759 6.50115 7.86669 5.90735 7.98528C5.16648 8.13869 4.41119 8.21152 3.65465 8.20245H2.60356V12.2742C2.25304 12.3293 1.89905 12.3594 1.54425 12.3642C1.19444 12.3606 0.845349 12.3307 0.5 12.2748H0.501921ZM3.9228 2.41362C3.38905 2.41362 2.94972 2.43018 2.60479 2.46333V6.40104H3.62384C4.42447 6.44187 5.22363 6.2962 5.95837 5.97553C6.23708 5.81637 6.46305 5.57909 6.60846 5.29297C6.75387 5.00685 6.81238 4.68443 6.77665 4.36547C6.78738 4.03564 6.71252 3.70865 6.55944 3.4163C6.41902 3.1642 6.21109 2.95623 5.95898 2.8158C5.67609 2.65954 5.36847 2.55309 5.0495 2.50109C4.69365 2.44117 4.33338 2.41106 3.97252 2.41108L3.9228 2.41362ZM60.5263 4.28426C60.5259 4.09243 60.5634 3.9024 60.6365 3.72506C60.7096 3.54772 60.817 3.38656 60.9524 3.25076C61.088 3.11502 61.249 3.00734 61.4263 2.9339C61.6035 2.86046 61.7935 2.82269 61.9854 2.82276C62.3724 2.82276 62.7434 2.97645 63.0171 3.25007C63.2907 3.52369 63.4444 3.89481 63.4444 4.28176C63.4444 4.66871 63.2907 5.0398 63.0171 5.31341C62.7434 5.58703 62.3724 5.74076 61.9854 5.74076C61.5987 5.7411 61.2276 5.58798 60.9537 5.31503C60.6798 5.04207 60.5255 4.67159 60.5245 4.28491L60.5263 4.28426ZM61.9401 4.38433H61.9746C61.9923 4.40636 62.2057 4.73241 62.2264 4.76766C62.2595 4.77495 62.2933 4.77875 62.3272 4.77899C62.3631 4.77839 62.3988 4.77459 62.4341 4.76766C62.4196 4.73052 62.1918 4.37364 62.1723 4.34972C62.2238 4.33204 62.2695 4.30077 62.3046 4.25921C62.3398 4.21765 62.3629 4.16737 62.3718 4.11369C62.3808 4.06009 62.3752 4.00508 62.3554 3.95445C62.3357 3.90381 62.3026 3.85946 62.2598 3.82606C62.1588 3.76675 62.0424 3.73891 61.9255 3.74611C61.8861 3.74611 61.8408 3.74779 61.7896 3.75114C61.7409 3.75434 61.6926 3.76106 61.6449 3.77128V4.76578C61.6754 4.773 61.7066 4.7768 61.738 4.77711C61.7675 4.77655 61.7968 4.77275 61.8255 4.76578V4.38372L61.9401 4.38433ZM61.9042 4.23704H61.823V3.90977C61.8589 3.90602 61.8951 3.90454 61.9312 3.90535C61.9645 3.90532 61.9977 3.90786 62.0307 3.91292C62.0582 3.91751 62.0848 3.92664 62.1093 3.93996C62.1305 3.95232 62.1479 3.97017 62.1597 3.9916C62.1713 4.01654 62.1773 4.04369 62.1773 4.0712C62.1773 4.0987 62.1713 4.12589 62.1597 4.15084C62.1478 4.17285 62.1296 4.1908 62.1075 4.20243C62.0803 4.21677 62.0506 4.22574 62.02 4.22886C61.9855 4.2335 61.9508 4.23584 61.9161 4.23581L61.9042 4.23704Z" fill="#19191A" fill-opacity="0.16"/>
</svg>
