<svg width="80" height="81" viewBox="0 0 80 81" fill="none" xmlns="http://www.w3.org/2000/svg">
<path d="M40 80.5C62.0914 80.5 80 62.5914 80 40.5C80 18.4086 62.0914 0.5 40 0.5C17.9086 0.5 0 18.4086 0 40.5C0 62.5914 17.9086 80.5 40 80.5Z" fill="#F35A45"/>
<path d="M39.9399 50.677C32.6708 50.677 25.8411 53.5061 20.7021 58.6484C19.7269 59.6236 19.7269 61.2045 20.7021 62.1797C21.6773 63.1549 23.2583 63.1549 24.2335 62.1797C28.4272 57.9794 34.0055 55.6695 39.9399 55.6695C45.8743 55.6695 51.4526 57.9794 55.6497 62.1764C56.6249 63.1516 58.2058 63.1516 59.181 62.1764C60.1562 61.2012 60.1562 59.6202 59.181 58.645C54.0388 53.5061 47.209 50.677 39.9399 50.677Z" fill="#F35A45"/>
<path d="M39.9399 50.677C32.6708 50.677 25.8411 53.5061 20.7021 58.6484C19.7269 59.6236 19.7269 61.2045 20.7021 62.1797C21.6773 63.1549 23.2583 63.1549 24.2335 62.1797C28.4272 57.9794 34.0055 55.6695 39.9399 55.6695C45.8743 55.6695 51.4526 57.9794 55.6497 62.1764C56.6249 63.1516 58.2058 63.1516 59.181 62.1764C60.1562 61.2012 60.1562 59.6202 59.181 58.645C54.0388 53.5061 47.209 50.677 39.9399 50.677Z" fill="black" fill-opacity="0.55"/>
<path d="M23.3327 40.4993C27.0146 40.4993 29.9993 37.5146 29.9993 33.8327C29.9993 30.1508 27.0146 27.166 23.3327 27.166C19.6508 27.166 16.666 30.1508 16.666 33.8327C16.666 37.5146 19.6508 40.4993 23.3327 40.4993Z" fill="#F35A45"/>
<path d="M23.3327 40.4993C27.0146 40.4993 29.9993 37.5146 29.9993 33.8327C29.9993 30.1508 27.0146 27.166 23.3327 27.166C19.6508 27.166 16.666 30.1508 16.666 33.8327C16.666 37.5146 19.6508 40.4993 23.3327 40.4993Z" fill="black" fill-opacity="0.55"/>
<path d="M56.6667 40.4993C60.3486 40.4993 63.3333 37.5146 63.3333 33.8327C63.3333 30.1508 60.3486 27.166 56.6667 27.166C52.9848 27.166 50 30.1508 50 33.8327C50 37.5146 52.9848 40.4993 56.6667 40.4993Z" fill="#F35A45"/>
<path d="M56.6667 40.4993C60.3486 40.4993 63.3333 37.5146 63.3333 33.8327C63.3333 30.1508 60.3486 27.166 56.6667 27.166C52.9848 27.166 50 30.1508 50 33.8327C50 37.5146 52.9848 40.4993 56.6667 40.4993Z" fill="black" fill-opacity="0.55"/>
<path d="M30.8322 24.9432C30.3555 24.9432 29.8722 24.8065 29.4455 24.5232L21.1122 18.9665C19.9622 18.2032 19.6522 16.6499 20.4189 15.4999C21.1822 14.3499 22.7355 14.0399 23.8855 14.8065L32.2189 20.3632C33.3689 21.1299 33.6789 22.6799 32.9122 23.8299C32.4289 24.5532 31.6389 24.9432 30.8322 24.9432Z" fill="#F35A45"/>
<path d="M30.8322 24.9432C30.3555 24.9432 29.8722 24.8065 29.4455 24.5232L21.1122 18.9665C19.9622 18.2032 19.6522 16.6499 20.4189 15.4999C21.1822 14.3499 22.7355 14.0399 23.8855 14.8065L32.2189 20.3632C33.3689 21.1299 33.6789 22.6799 32.9122 23.8299C32.4289 24.5532 31.6389 24.9432 30.8322 24.9432Z" fill="black" fill-opacity="0.55"/>
<path d="M49.1662 24.9431C48.3596 24.9431 47.5662 24.5531 47.0829 23.8298C46.3162 22.6798 46.6262 21.1298 47.7762 20.3631L56.1096 14.8064C57.2529 14.0398 58.8096 14.3464 59.5762 15.4998C60.3429 16.6498 60.0329 18.1998 58.8829 18.9664L50.5496 24.5231C50.1262 24.8098 49.6462 24.9431 49.1662 24.9431Z" fill="#F35A45"/>
<path d="M49.1662 24.9431C48.3596 24.9431 47.5662 24.5531 47.0829 23.8298C46.3162 22.6798 46.6262 21.1298 47.7762 20.3631L56.1096 14.8064C57.2529 14.0398 58.8096 14.3464 59.5762 15.4998C60.3429 16.6498 60.0329 18.1998 58.8829 18.9664L50.5496 24.5231C50.1262 24.8098 49.6462 24.9431 49.1662 24.9431Z" fill="black" fill-opacity="0.55"/>
</svg>
