<svg width="64" height="64" viewBox="0 0 64 64" fill="none" xmlns="http://www.w3.org/2000/svg">
<path d="M32 64C49.6731 64 64 49.6731 64 32C64 14.3269 49.6731 0 32 0C14.3269 0 0 14.3269 0 32C0 49.6731 14.3269 64 32 64Z" fill="#FFCF99"/>
<path d="M18.6658 29.3334C21.6114 29.3334 23.9992 26.9456 23.9992 24.0001C23.9992 21.0546 21.6114 18.6667 18.6658 18.6667C15.7203 18.6667 13.3325 21.0546 13.3325 24.0001C13.3325 26.9456 15.7203 29.3334 18.6658 29.3334Z" fill="#824500"/>
<path d="M45.3333 29.3334C48.2788 29.3334 50.6666 26.9456 50.6666 24.0001C50.6666 21.0546 48.2788 18.6667 45.3333 18.6667C42.3878 18.6667 40 21.0546 40 24.0001C40 26.9456 42.3878 29.3334 45.3333 29.3334Z" fill="#824500"/>
<path d="M54.2768 38.1466C53.8981 37.6346 53.3008 37.3333 52.6661 37.3333H11.3328C10.6981 37.3333 10.1008 37.6346 9.72209 38.1466C9.34609 38.6586 9.23409 39.3172 9.42342 39.9252C12.5141 49.8906 21.5888 56.5865 31.9994 56.5865C42.4101 56.5865 51.4848 49.8906 54.5754 39.9252C54.7648 39.3199 54.6528 38.6586 54.2768 38.1466Z" fill="#E53935"/>
</svg>
