<svg width="128" height="128" viewBox="0 0 128 128" fill="none" xmlns="http://www.w3.org/2000/svg">
<path d="M64 128C99.3462 128 128 99.3462 128 64C128 28.6538 99.3462 0 64 0C28.6538 0 0 28.6538 0 64C0 99.3462 28.6538 128 64 128Z" fill="#FFCF99"/>
<path d="M49.3319 54.6654C47.1239 54.6654 45.3319 52.8735 45.3319 50.6655C45.3319 47.7268 42.9426 45.3321 39.9986 45.3321C37.0546 45.3321 34.6653 47.7268 34.6653 50.6655C34.6653 52.8735 32.8733 54.6654 30.6653 54.6654C28.4573 54.6654 26.6653 52.8735 26.6653 50.6655C26.6653 43.3161 32.6439 37.3322 39.9986 37.3322C47.3533 37.3322 53.3319 43.3161 53.3319 50.6655C53.3319 52.8735 51.5399 54.6654 49.3319 54.6654Z" fill="#824500"/>
<path d="M97.3319 54.6654C95.1239 54.6654 93.3319 52.8735 93.3319 50.6655C93.3319 47.7268 90.9426 45.3321 87.9986 45.3321C85.0546 45.3321 82.6653 47.7268 82.6653 50.6655C82.6653 52.8735 80.8733 54.6654 78.6653 54.6654C76.4573 54.6654 74.6653 52.8735 74.6653 50.6655C74.6653 43.3161 80.6439 37.3322 87.9986 37.3322C95.3532 37.3322 101.332 43.3161 101.332 50.6655C101.332 52.8735 99.5399 54.6654 97.3319 54.6654Z" fill="#824500"/>
<path d="M62.6702 106.667C61.2035 106.667 59.7902 105.856 59.0862 104.453C58.0942 102.475 58.8995 100.075 60.8782 99.088L67.6888 95.68L60.6062 91.4293C59.4062 90.7093 58.6648 89.408 58.6648 88C58.6648 86.592 59.4062 85.2907 60.6062 84.5707L67.6888 80.32L60.8782 76.912C58.8995 75.92 58.0995 73.52 59.0862 71.5467C60.0835 69.5733 62.4835 68.7733 64.4515 69.76L77.7848 76.4267C79.0915 77.0827 79.9395 78.3947 79.9928 79.8507C80.0515 81.3067 79.3048 82.6827 78.0568 83.4347L70.4408 88L78.0568 92.5707C79.3048 93.3227 80.0515 94.6933 79.9928 96.1547C79.9395 97.6107 79.0915 98.928 77.7848 99.5787L64.4515 106.245C63.8808 106.533 63.2675 106.667 62.6702 106.667Z" fill="#824500"/>
</svg>
