<svg width="140" height="48" viewBox="0 0 140 48" fill="none" xmlns="http://www.w3.org/2000/svg">
<path d="M0 24C0 10.7452 10.7452 0 24 0H115.294C128.549 0 139.294 10.7452 139.294 24C139.294 37.2548 128.549 48 115.294 48H24C10.7452 48 0 37.2548 0 24Z" fill="white"/>
<path d="M19.2086 29.2086H26.0214V31.7861H16V16.2139H19.2086V29.2086Z" fill="#CDD0DC"/>
<path d="M39.9786 24.3529C39.9786 25.8859 39.7077 27.2299 39.1658 28.385C38.6239 29.5401 37.8467 30.4314 36.8342 31.0588C35.8289 31.6863 34.6738 32 33.369 32C32.0784 32 30.9269 31.6898 29.9144 31.0695C28.902 30.4492 28.1176 29.5651 27.5615 28.4171C27.0053 27.262 26.7237 25.9358 26.7166 24.4385V23.6684C26.7166 22.1355 26.9911 20.7879 27.5401 19.6257C28.0963 18.4563 28.877 17.5615 29.8824 16.9412C30.8948 16.3137 32.0499 16 33.3476 16C34.6453 16 35.7968 16.3137 36.8021 16.9412C37.8146 17.5615 38.5954 18.4563 39.1444 19.6257C39.7005 20.7879 39.9786 22.1319 39.9786 23.6578V24.3529ZM36.7273 23.6471C36.7273 22.0143 36.4349 20.7736 35.8503 19.9251C35.2656 19.0766 34.4314 18.6524 33.3476 18.6524C32.2709 18.6524 31.4403 19.0731 30.8556 19.9144C30.2709 20.7487 29.975 21.975 29.9679 23.5936V24.3529C29.9679 25.943 30.2603 27.1765 30.8449 28.0535C31.4296 28.9305 32.2709 29.369 33.369 29.369C34.4456 29.369 35.2727 28.9483 35.8503 28.107C36.4278 27.2585 36.7201 26.025 36.7273 24.4064V23.6471Z" fill="#CDD0DC"/>
<path d="M54.631 29.8182C54.0535 30.5098 53.2371 31.0481 52.1818 31.4332C51.1266 31.8111 49.9572 32 48.6738 32C47.3262 32 46.1426 31.7077 45.123 31.123C44.1105 30.5312 43.3262 29.6756 42.7701 28.5561C42.221 27.4367 41.9394 26.1212 41.9251 24.6096V23.5508C41.9251 21.9964 42.1854 20.6524 42.7059 19.5187C43.2335 18.3779 43.9893 17.508 44.9733 16.9091C45.9643 16.303 47.123 16 48.4492 16C50.2959 16 51.7397 16.4421 52.7808 17.3262C53.8217 18.2032 54.4385 19.4831 54.631 21.1658H51.508C51.3654 20.2745 51.0481 19.6221 50.5561 19.2086C50.0713 18.795 49.4011 18.5882 48.5455 18.5882C47.4545 18.5882 46.6239 18.9982 46.0535 19.8182C45.4831 20.6381 45.1943 21.8574 45.1872 23.4759V24.4706C45.1872 26.1034 45.4973 27.3369 46.1176 28.1711C46.738 29.0053 47.6471 29.4225 48.8449 29.4225C50.0499 29.4225 50.9091 29.1658 51.4225 28.6524V25.9679H48.5027V23.6043H54.631V29.8182Z" fill="#CDD0DC"/>
<path d="M70.0321 24.3529C70.0321 25.8859 69.7611 27.2299 69.2192 28.385C68.6774 29.5401 67.9002 30.4314 66.8877 31.0588C65.8824 31.6863 64.7273 32 63.4225 32C62.1319 32 60.9804 31.6898 59.9679 31.0695C58.9554 30.4492 58.1711 29.5651 57.615 28.4171C57.0588 27.262 56.7772 25.9358 56.7701 24.4385V23.6684C56.7701 22.1355 57.0446 20.7879 57.5936 19.6257C58.1497 18.4563 58.9305 17.5615 59.9358 16.9412C60.9483 16.3137 62.1034 16 63.4011 16C64.6988 16 65.8503 16.3137 66.8556 16.9412C67.8681 17.5615 68.6488 18.4563 69.1979 19.6257C69.754 20.7879 70.0321 22.1319 70.0321 23.6578V24.3529ZM66.7808 23.6471C66.7808 22.0143 66.4884 20.7736 65.9037 19.9251C65.3191 19.0766 64.4848 18.6524 63.4011 18.6524C62.3244 18.6524 61.4938 19.0731 60.9091 19.9144C60.3244 20.7487 60.0285 21.975 60.0214 23.5936V24.3529C60.0214 25.943 60.3137 27.1765 60.8984 28.0535C61.4831 28.9305 62.3244 29.369 63.4225 29.369C64.4991 29.369 65.3262 28.9483 65.9037 28.107C66.4813 27.2585 66.7736 26.025 66.7808 24.4064V23.6471Z" fill="#CDD0DC"/>
<path d="M83.1658 18.8128H78.3957V31.7861H75.1872V18.8128H70.4813V16.2139H83.1658V18.8128Z" fill="#CDD0DC"/>
<path d="M90.5454 23.2299L93.7861 16.2139H97.2941L92.1818 26.139V31.7861H88.9198V26.139L83.8075 16.2139H87.3262L90.5454 23.2299Z" fill="#CDD0DC"/>
<path d="M101.925 26.2995V31.7861H98.7166V16.2139H104.791C105.961 16.2139 106.988 16.4278 107.872 16.8556C108.763 17.2834 109.447 17.893 109.925 18.6845C110.403 19.4688 110.642 20.3636 110.642 21.369C110.642 22.8948 110.118 24.0998 109.07 24.984C108.029 25.861 106.585 26.2995 104.738 26.2995H101.925ZM101.925 23.7005H104.791C105.64 23.7005 106.285 23.5009 106.727 23.1016C107.176 22.7023 107.401 22.1319 107.401 21.3904C107.401 20.6275 107.176 20.0107 106.727 19.5401C106.278 19.0695 105.658 18.8271 104.866 18.8128H101.925V23.7005Z" fill="#CDD0DC"/>
<path d="M122.225 25.0374H116.064V29.2086H123.294V31.7861H112.856V16.2139H123.273V18.8128H116.064V22.5241H122.225V25.0374Z" fill="#CDD0DC"/>
<path d="M24 47C22.981 47 21.9779 46.9338 20.9947 46.8055L20.736 48.7887C21.8047 48.9281 22.8942 49 24 49V47ZM15.1961 45.2551C13.3268 44.48 11.5815 43.4651 9.99851 42.2487L8.77985 43.8345C10.4998 45.1562 12.3971 46.2595 14.43 47.1026L15.1961 45.2551ZM5.75133 38.0015C4.53487 36.4185 3.52002 34.6732 2.74486 32.8039L0.897405 33.57C1.74045 35.6029 2.84376 37.5002 4.16549 39.2201L5.75133 38.0015ZM1.19445 27.0053C1.06621 26.0221 1 25.019 1 24H-1C-1 25.1058 -0.928148 26.1953 -0.788745 27.264L1.19445 27.0053ZM1 24C1 22.981 1.06621 21.9779 1.19445 20.9947L-0.788745 20.736C-0.928147 21.8047 -1 22.8942 -1 24H1ZM2.74486 15.1961C3.52003 13.3268 4.53487 11.5815 5.75133 9.99851L4.16549 8.77985C2.84376 10.4998 1.74045 12.3971 0.897407 14.43L2.74486 15.1961ZM9.99851 5.75133C11.5815 4.53487 13.3268 3.52003 15.1961 2.74486L14.43 0.897405C12.3971 1.74045 10.4998 2.84376 8.77986 4.16549L9.99851 5.75133ZM20.9947 1.19445C21.9779 1.06621 22.981 1 24 1V-1C22.8942 -1 21.8047 -0.928148 20.736 -0.788745L20.9947 1.19445ZM24 1H26.8529V-1H24V1ZM32.5588 1H38.2647V-1H32.5588V1ZM43.9706 1H49.6765V-1H43.9706V1ZM55.3824 1H61.0882V-1H55.3824V1ZM66.7941 1H72.5V-1H66.7941V1ZM78.2059 1H83.9118V-1H78.2059V1ZM89.6176 1H95.3235V-1H89.6176V1ZM101.029 1H106.735V-1H101.029V1ZM112.441 1H115.294V-1H112.441V1ZM115.294 1C116.313 1 117.316 1.06621 118.299 1.19445L118.558 -0.788745C117.489 -0.928147 116.4 -1 115.294 -1V1ZM124.098 2.74486C125.967 3.52003 127.713 4.53487 129.296 5.75133L130.514 4.1655C128.794 2.84376 126.897 1.74045 124.864 0.897407L124.098 2.74486ZM133.543 9.99851C134.759 11.5815 135.774 13.3268 136.549 15.1961L138.397 14.43C137.554 12.3971 136.45 10.4998 135.129 8.77986L133.543 9.99851ZM138.1 20.9947C138.228 21.9779 138.294 22.981 138.294 24H140.294C140.294 22.8942 140.222 21.8047 140.083 20.736L138.1 20.9947ZM138.294 24C138.294 25.019 138.228 26.0221 138.1 27.0053L140.083 27.264C140.222 26.1953 140.294 25.1058 140.294 24H138.294ZM136.549 32.8039C135.774 34.6732 134.759 36.4185 133.543 38.0015L135.129 39.2201C136.45 37.5002 137.554 35.6029 138.397 33.57L136.549 32.8039ZM129.296 42.2487C127.713 43.4651 125.967 44.48 124.098 45.2551L124.864 47.1026C126.897 46.2596 128.794 45.1562 130.514 43.8345L129.296 42.2487ZM118.299 46.8055C117.316 46.9338 116.313 47 115.294 47V49C116.4 49 117.489 48.9281 118.558 48.7887L118.299 46.8055ZM115.294 47H112.441V49H115.294V47ZM106.735 47H101.029V49H106.735V47ZM95.3235 47H89.6176V49H95.3235V47ZM83.9118 47H78.2059V49H83.9118V47ZM72.5 47H66.7941V49H72.5V47ZM61.0882 47H55.3823V49H61.0882V47ZM49.6765 47H43.9706V49H49.6765V47ZM38.2647 47H32.5588V49H38.2647V47ZM26.853 47H24V49H26.853V47ZM24 46C23.0243 46 22.0644 45.9366 21.1241 45.8139L20.6067 49.7803C21.7182 49.9253 22.8509 50 24 50V46ZM15.5792 44.3314C13.7917 43.5902 12.1223 42.6196 10.6078 41.4557L8.17053 44.6274C9.959 46.0018 11.9322 47.1493 14.047 48.0263L15.5792 44.3314ZM6.54425 37.3922C5.38043 35.8777 4.40981 34.2083 3.66858 32.4208L-0.0263211 33.953C0.850661 36.0678 1.9982 38.041 3.37257 39.8295L6.54425 37.3922ZM2.18605 26.8759C2.06339 25.9356 2 24.9757 2 24H-2C-2 25.1491 -1.92533 26.2818 -1.78034 27.3933L2.18605 26.8759ZM2 24C2 23.0243 2.06339 22.0644 2.18605 21.1241L-1.78034 20.6067C-1.92533 21.7182 -2 22.8509 -2 24H2ZM3.66858 15.5792C4.40981 13.7917 5.38043 12.1223 6.54425 10.6078L3.37258 8.17053C1.9982 9.959 0.850663 11.9322 -0.0263192 14.047L3.66858 15.5792ZM10.6078 6.54425C12.1223 5.38043 13.7917 4.40981 15.5792 3.66858L14.047 -0.026321C11.9322 0.850661 9.95901 1.9982 8.17053 3.37257L10.6078 6.54425ZM21.1241 2.18605C22.0644 2.06339 23.0243 2 24 2V-2C22.8509 -2 21.7182 -1.92533 20.6067 -1.78034L21.1241 2.18605ZM24 2H26.8529V-2H24V2ZM32.5588 2H38.2647V-2H32.5588V2ZM43.9706 2H49.6765V-2H43.9706V2ZM55.3824 2H61.0882V-2H55.3824V2ZM66.7941 2H72.5V-2H66.7941V2ZM78.2059 2H83.9118V-2H78.2059V2ZM89.6176 2H95.3235V-2H89.6176V2ZM101.029 2H106.735V-2H101.029V2ZM112.441 2H115.294V-2H112.441V2ZM115.294 2C116.27 2 117.23 2.06339 118.17 2.18605L118.687 -1.78034C117.576 -1.92533 116.443 -2 115.294 -2V2ZM123.715 3.66858C125.502 4.40981 127.172 5.38043 128.686 6.54425L131.124 3.37258C129.335 1.9982 127.362 0.850664 125.247 -0.0263191L123.715 3.66858ZM132.75 10.6078C133.914 12.1223 134.884 13.7917 135.626 15.5792L139.32 14.047C138.443 11.9322 137.296 9.95901 135.922 8.17053L132.75 10.6078ZM137.108 21.1241C137.231 22.0644 137.294 23.0243 137.294 24H141.294C141.294 22.8509 141.219 21.7182 141.074 20.6067L137.108 21.1241ZM137.294 24C137.294 24.9757 137.231 25.9356 137.108 26.8759L141.074 27.3933C141.219 26.2818 141.294 25.1491 141.294 24H137.294ZM135.626 32.4208C134.884 34.2083 133.914 35.8777 132.75 37.3922L135.922 39.8295C137.296 38.041 138.443 36.0678 139.32 33.953L135.626 32.4208ZM128.686 41.4557C127.172 42.6196 125.502 43.5902 123.715 44.3314L125.247 48.0263C127.362 47.1493 129.335 46.0018 131.124 44.6274L128.686 41.4557ZM118.17 45.8139C117.23 45.9366 116.27 46 115.294 46V50C116.443 50 117.576 49.9253 118.687 49.7803L118.17 45.8139ZM115.294 46H112.441V50H115.294V46ZM106.735 46H101.029V50H106.735V46ZM95.3235 46H89.6176V50H95.3235V46ZM83.9118 46H78.2059V50H83.9118V46ZM72.5 46H66.7941V50H72.5V46ZM61.0882 46H55.3823V50H61.0882V46ZM49.6765 46H43.9706V50H49.6765V46ZM38.2647 46H32.5588V50H38.2647V46ZM26.853 46H24V50H26.853V46Z" fill="#CDD0DC"/>
</svg>
