<svg width="64" height="64" viewBox="0 0 64 64" fill="none" xmlns="http://www.w3.org/2000/svg">
<path d="M32 64C49.6731 64 64 49.6731 64 32C64 14.3269 49.6731 0 32 0C14.3269 0 0 14.3269 0 32C0 49.6731 14.3269 64 32 64Z" fill="#FFCF99"/>
<path d="M18.6663 29.3333C21.6119 29.3333 23.9997 26.9455 23.9997 24C23.9997 21.0544 21.6119 18.6666 18.6663 18.6666C15.7208 18.6666 13.333 21.0544 13.333 24C13.333 26.9455 15.7208 29.3333 18.6663 29.3333Z" fill="#824500"/>
<path d="M45.3333 29.3333C48.2788 29.3333 50.6667 26.9455 50.6667 24C50.6667 21.0544 48.2788 18.6666 45.3333 18.6666C42.3878 18.6666 40 21.0544 40 24C40 26.9455 42.3878 29.3333 45.3333 29.3333Z" fill="#824500"/>
<path d="M40.6663 48H23.333C22.229 48 21.333 47.104 21.333 46C21.333 44.896 22.229 44 23.333 44H40.6663C41.7703 44 42.6663 44.896 42.6663 46C42.6663 47.104 41.7703 48 40.6663 48Z" fill="#824500"/>
</svg>
