<svg width="65" height="64" viewBox="0 0 65 64" fill="none" xmlns="http://www.w3.org/2000/svg">
	<path d="M32.3174 64C49.9905 64 64.3174 49.6731 64.3174 32C64.3174 14.3269 49.9905 0 32.3174 0C14.6443 0 0.317383 14.3269 0.317383 32C0.317383 49.6731 14.6443 64 32.3174 64Z" fill="#1382E8"/>
	<path d="M43.6317 20.6857C40.6079 17.6619 36.5907 16 32.3174 16C28.0441 16 24.0269 17.6619 21.0031 20.6857C17.9792 23.7095 16.3174 27.7267 16.3174 32C16.3174 36.2733 17.9792 40.2905 21.0031 43.3143C24.0269 46.3382 28.0441 48 32.3174 48C36.5907 48 40.6079 46.3382 43.6317 43.3143C46.6555 40.2905 48.3174 36.2733 48.3174 32C48.3174 27.7267 46.6555 23.7095 43.6317 20.6857ZM42.9632 41.034C42.2135 40.3655 41.4138 39.772 40.5704 39.2659C41.1264 37.3417 41.4576 35.2237 41.5388 33.0184H46.2432C46.0308 35.9859 44.8937 38.7724 42.9632 41.034ZM18.3916 33.0184H23.096C23.171 35.2175 23.5021 37.3354 24.0644 39.2659C23.2209 39.7782 22.4212 40.3655 21.6715 41.034C19.741 38.7724 18.604 35.9859 18.3916 33.0184ZM21.6715 22.966C22.4212 23.6345 23.2209 24.228 24.0644 24.7341C23.5083 26.6583 23.1772 28.7763 23.096 30.9816H18.3916C18.604 28.0141 19.741 25.2276 21.6715 22.966ZM31.299 24.9465C29.6372 24.8278 28.0316 24.4155 26.5446 23.7407C26.8008 23.091 27.0819 22.4725 27.4006 21.8914C28.5064 19.8797 29.8621 18.599 31.299 18.1804V24.9465ZM31.299 26.9895V30.9816H25.1389C25.2077 29.1199 25.4763 27.3331 25.9136 25.6962C27.6005 26.4334 29.4185 26.8708 31.299 26.9895ZM31.299 33.0184V37.0105C29.4185 37.1292 27.6005 37.5666 25.9136 38.31C25.4763 36.6732 25.2139 34.8864 25.1389 33.0246H31.299V33.0184ZM31.299 39.0535V45.8196C29.8621 45.4073 28.5064 44.1203 27.4006 42.1086C27.0819 41.5338 26.8008 40.9153 26.5446 40.2593C28.0316 39.5845 29.6372 39.1722 31.299 39.0535ZM33.3357 39.0535C34.9976 39.1722 36.6032 39.5845 38.0901 40.2593C37.834 40.909 37.5528 41.5275 37.2342 42.1086C36.1284 44.1265 34.7727 45.4073 33.3357 45.8196V39.0535ZM33.3357 37.0105V33.0184H39.4958C39.4271 34.8801 39.1585 36.6669 38.7211 38.3038C37.0343 37.5666 35.2163 37.1292 33.3357 37.0105ZM33.3357 30.9816V26.9895C35.2163 26.8708 37.0343 26.4334 38.7211 25.69C39.1585 27.3268 39.4209 29.1136 39.4958 30.9754H33.3357V30.9816ZM33.3357 24.9465V18.1804C34.7727 18.5927 36.1284 19.8797 37.2342 21.8914C37.5528 22.4662 37.834 23.0847 38.0901 23.7407C36.6032 24.4155 34.9976 24.8278 33.3357 24.9465ZM39.0273 20.9168C38.6836 20.2858 38.315 19.7173 37.9214 19.205C39.2272 19.7798 40.4455 20.5545 41.5388 21.5166C41.0202 21.9727 40.4705 22.3913 39.8957 22.7599C39.6333 22.1101 39.3396 21.4916 39.0273 20.9168ZM25.6075 20.9168C25.2889 21.4979 25.0015 22.1101 24.7391 22.7599C24.1643 22.3913 23.6208 21.9727 23.096 21.5166C24.1893 20.5545 25.4076 19.7798 26.7133 19.205C26.326 19.7173 25.9574 20.2858 25.6075 20.9168ZM24.7453 41.2464C25.0077 41.8899 25.2951 42.5084 25.6138 43.0894C25.9574 43.7204 26.326 44.289 26.7196 44.8013C25.4138 44.2265 24.1956 43.4518 23.1022 42.4897C23.6208 42.0336 24.1706 41.615 24.7453 41.2464ZM39.0273 43.0832C39.3459 42.5022 39.6333 41.8899 39.8957 41.2401C40.4705 41.6087 41.014 42.0273 41.5388 42.4834C40.4455 43.4455 39.2272 44.2202 37.9214 44.795C38.3088 44.2827 38.6774 43.7142 39.0273 43.0832ZM41.5388 30.9816C41.4638 28.7825 41.1327 26.6646 40.5704 24.7341C41.4138 24.2218 42.2135 23.6345 42.9632 22.966C44.8875 25.2276 46.0308 28.0141 46.2432 30.9816H41.5388Z" fill="white"/>
</svg>
