<svg width="38" height="37" viewBox="0 0 38 37" fill="none" xmlns="http://www.w3.org/2000/svg">
<path d="M20.4661 4.51242C20.0052 3.09254 17.9964 3.09254 17.5339 4.51242L15.1921 11.7182C15.0912 12.0275 14.8951 12.297 14.6317 12.4881C14.3684 12.6791 14.0513 12.782 13.726 12.7819H6.15023C4.6579 12.7819 4.03507 14.6936 5.24373 15.5723L11.3734 20.0247C11.6367 20.2161 11.8327 20.4859 11.9332 20.7956C12.0337 21.1052 12.0337 21.4387 11.933 21.7482L9.59277 28.954C9.13027 30.3739 10.7567 31.5563 11.9639 30.6776L18.0935 26.2252C18.357 26.0337 18.6743 25.9306 19 25.9306C19.3257 25.9306 19.6431 26.0337 19.9065 26.2252L26.0362 30.6776C27.2433 31.5563 28.8698 30.3754 28.4073 28.954L26.067 21.7482C25.9664 21.4387 25.9663 21.1052 26.0669 20.7956C26.1674 20.4859 26.3633 20.2161 26.6266 20.0247L32.7563 15.5723C33.9634 14.6936 33.3437 12.7819 31.8498 12.7819H24.2725C23.9474 12.7817 23.6307 12.6787 23.3677 12.4876C23.1046 12.2966 22.9087 12.0273 22.8079 11.7182L20.4661 4.51242Z" fill="#8189A8"/>
</svg>
