<svg width="65" height="64" viewBox="0 0 65 64" fill="none" xmlns="http://www.w3.org/2000/svg">
    <circle cx="32.3174" cy="32" r="32" fill="#1DA1F2"/>
    <path fill-rule="evenodd" clip-rule="evenodd" d="M48.3174 22.0821C47.1382 22.6024 45.8731 22.9557 44.5459 23.1133C45.9017 22.3017 46.9425 21.0127 47.4294 19.4803C46.1595 20.2345 44.756 20.7788 43.2617 21.0748C42.0635 19.8001 40.3592 19.0029 38.4687 19.0029C34.8452 19.0029 31.9044 21.9436 31.9044 25.5671C31.9044 26.0827 31.9617 26.5839 32.0763 27.0613C26.6196 26.7892 21.7836 24.1731 18.5468 20.2011C17.9835 21.1702 17.6589 22.2969 17.6589 23.4999C17.6589 25.7771 18.8189 27.787 20.5805 28.9614C19.5064 28.928 18.4943 28.632 17.6064 28.1403C17.6064 28.1689 17.6064 28.1928 17.6064 28.2214C17.6064 31.4009 19.8692 34.0552 22.8721 34.6567C22.3231 34.8047 21.7406 34.8859 21.1439 34.8859C20.719 34.8859 20.3084 34.8429 19.9074 34.7665C20.7429 37.3731 23.168 39.2732 26.0372 39.3257C23.7887 41.0873 20.9625 42.1376 17.8832 42.1376C17.3533 42.1376 16.833 42.1041 16.3174 42.0469C19.22 43.9087 22.6716 44.9972 26.3809 44.9972C38.4543 44.9972 45.0568 34.9957 45.0568 26.3214C45.0568 26.0349 45.052 25.7533 45.0377 25.4716C46.3219 24.5454 47.4342 23.3901 48.3126 22.0725L48.3174 22.0821Z" fill="white"/>
</svg>
