<svg width="64" height="64" viewBox="0 0 64 64" fill="none" xmlns="http://www.w3.org/2000/svg">
<path d="M32 64C49.6731 64 64 49.6731 64 32C64 14.3269 49.6731 0 32 0C14.3269 0 0 14.3269 0 32C0 49.6731 14.3269 64 32 64Z" fill="#FFCF99"/>
<path d="M18.6658 45.3335C21.6114 45.3335 23.9992 42.9457 23.9992 40.0002C23.9992 37.0547 21.6114 34.6669 18.6658 34.6669C15.7203 34.6669 13.3325 37.0547 13.3325 40.0002C13.3325 42.9457 15.7203 45.3335 18.6658 45.3335Z" fill="#824500"/>
<path d="M45.3333 45.3335C48.2788 45.3335 50.6666 42.9457 50.6666 40.0002C50.6666 37.0547 48.2788 34.6669 45.3333 34.6669C42.3878 34.6669 40 37.0547 40 40.0002C40 42.9457 42.3878 45.3335 45.3333 45.3335Z" fill="#824500"/>
<path d="M45.3332 20.0958C44.8212 20.0958 44.3092 19.9011 43.9199 19.5091C40.7359 16.3251 36.5012 14.5704 31.9999 14.5704C27.4986 14.5704 23.2639 16.3251 20.0799 19.5091C19.2986 20.2904 18.0319 20.2904 17.2506 19.5091C16.4692 18.7278 16.4692 17.4611 17.2506 16.6798C21.1919 12.7411 26.4292 10.5704 31.9999 10.5704C37.5706 10.5704 42.8079 12.7384 46.7466 16.6798C47.5279 17.4611 47.5279 18.7278 46.7466 19.5091C46.3572 19.8984 45.8452 20.0958 45.3332 20.0958Z" fill="#824500"/>
</svg>
