<svg width="2897" height="288" viewBox="0 0 2897 288" fill="none" xmlns="http://www.w3.org/2000/svg">
<path d="M1318.07 91.332C1318.07 67.2573 1310.61 46.844 1296.65 31.4547C1278.55 11.8787 1249.77 0.61332 1212.27 0.61332H1084.76V287.08H1132.43V45.9187H1134.17V45.8747H1207.49C1226.33 45.8747 1241.26 50.192 1251.46 58.4C1261.8 66.424 1267.45 78.3253 1267.45 93.7933C1267.45 119.16 1250.8 136.416 1223.74 141.055C1218.97 141.873 1191.57 142.424 1191.57 142.424L1191.4 179.692L1268.27 286.697H1327.08L1249.67 178.157C1289.82 166.695 1318.07 138.435 1318.07 91.332Z" fill="#231F20"/>
<path d="M6.35625 45.8747H150.759L0 261.658V287.08H220.855V239.409H73.4708L220.855 25.4347V0.00134037H6.35625V45.8747Z" fill="#231F20"/>
<path d="M2257.13 202.6L2087.6 0.00248727H2054.13V287.08H2101.79V91.2792L2260.41 287.08H2305.65V0.00248727H2257.13V202.6Z" fill="#231F20"/>
<path d="M1652.19 287.693H1699.87V0.00134011H1652.19V287.693Z" fill="#231F20"/>
<path d="M627.711 0.00134037L612.415 30.7067L742.712 287.08H795.328L653.545 0.00134037H627.711Z" fill="#231F20"/>
<path d="M557.436 140.972V141.069L484.697 287.08H537.86L587.833 188.643H645.433L620.696 140.972H557.436Z" fill="#231F20"/>
<path d="M2754.23 0.000488281H2728.4L2713.08 30.7053L2843.4 287.08H2896.01L2754.23 0.000488281Z" fill="#231F20"/>
<path d="M2658.12 140.972V141.069L2585.38 287.08H2638.55L2688.51 188.642H2746.12L2721.38 140.972H2658.12Z" fill="#231F20"/>
</svg>
