<svg width="87" height="87" viewBox="0 0 87 87" fill="none" xmlns="http://www.w3.org/2000/svg">
<path d="M43.1208 86.0036C66.9358 86.0036 86.2416 66.751 86.2416 43.0018C86.2416 19.2526 66.9358 0 43.1208 0C19.3058 0 0 19.2526 0 43.0018C0 66.751 19.3058 86.0036 43.1208 86.0036Z" fill="#DF5630"/>
<path d="M58.9296 41.9942C58.5222 41.9939 58.1221 41.8868 57.7693 41.6837C57.4166 41.4807 57.1235 41.1887 56.9195 40.8371C55.522 38.4199 53.5107 36.4124 51.0881 35.0167C48.6654 33.6209 45.9169 32.886 43.119 32.886C40.3211 32.886 37.5725 33.6209 35.1499 35.0167C32.7272 36.4124 30.7159 38.4199 29.3184 40.8371C29.0102 41.3687 28.5028 41.7565 27.9079 41.915C27.313 42.0736 26.6793 41.99 26.1463 41.6827C25.6132 41.3753 25.2243 40.8694 25.0653 40.2761C24.9063 39.6829 24.9901 39.0509 25.2983 38.5193C27.1041 35.4 29.7015 32.8097 32.8294 31.0087C35.9572 29.2077 39.5054 28.2596 43.1172 28.2596C46.729 28.2596 50.2771 29.2077 53.405 31.0087C56.5328 32.8097 59.1302 35.4 60.936 38.5193C61.1393 38.8712 61.2463 39.2701 61.2464 39.6761C61.2464 40.0822 61.1395 40.4811 60.9363 40.833C60.7331 41.1849 60.4408 41.4774 60.0886 41.6812C59.7364 41.885 59.3367 41.9929 58.9296 41.9942V41.9942Z" fill="#1C373E"/>
<path d="M53.0066 21.5614C52.6328 21.56 52.265 21.467 51.9356 21.2908C51.6663 21.1489 51.4277 20.9554 51.2335 20.7214C51.0392 20.4874 50.8932 20.2175 50.8036 19.9271C50.7141 19.6368 50.6829 19.3317 50.7117 19.0293C50.7405 18.7269 50.8288 18.4332 50.9716 18.1648C52.8638 14.6045 56.4162 12.3793 60.2541 12.3793C64.0921 12.3793 67.6373 14.5974 69.5366 18.1648C69.818 18.7067 69.8733 19.3374 69.6906 19.9198C69.508 20.5022 69.1021 20.989 68.5612 21.2744C68.0204 21.5598 67.3884 21.6206 66.8029 21.4437C66.2173 21.2667 65.7255 20.8663 65.4345 20.3295C64.3634 18.2823 62.3677 17.0077 60.2613 17.0077C58.1549 17.0077 56.1734 18.2823 55.0881 20.3295C54.8881 20.7057 54.588 21.0197 54.2208 21.237C53.8537 21.4543 53.4336 21.5665 53.0066 21.5614Z" fill="#1C373E"/>
<path d="M33.2314 21.5614C32.8092 21.5617 32.395 21.4472 32.0332 21.2301C31.6715 21.013 31.376 20.7017 31.1785 20.3295C30.1075 18.2823 28.1082 17.0077 26.0053 17.0077C23.9025 17.0077 21.9175 18.2823 20.8286 20.3295C20.5376 20.8663 20.0458 21.2667 19.4602 21.4437C18.8746 21.6206 18.2426 21.5598 17.7018 21.2744C17.161 20.989 16.7551 20.5022 16.5724 19.9198C16.3897 19.3374 16.4451 18.7067 16.7264 18.1648C18.6186 14.6045 22.1745 12.3793 26.0089 12.3793C29.8433 12.3793 33.3921 14.5974 35.2914 18.1648C35.4341 18.4334 35.5222 18.7273 35.5508 19.0299C35.5793 19.3324 35.5478 19.6376 35.4579 19.928C35.368 20.2184 35.2216 20.4882 35.027 20.722C34.8324 20.9559 34.5935 21.1492 34.3239 21.2908C33.9881 21.4706 33.6125 21.5636 33.2314 21.5614Z" fill="#1C373E"/>
</svg>
