<svg width="124" height="119" viewBox="0 0 124 119" fill="none" xmlns="http://www.w3.org/2000/svg">
<g clip-path="url(#clip0_5:193)">
<path d="M69.2194 4.49772L82.1423 30.7443C82.7199 31.9174 83.5735 32.932 84.6294 33.7007C85.6854 34.4695 86.9121 34.9692 88.2037 35.1569L117.1 39.3666C123.703 40.329 126.339 48.4635 121.561 53.1315L100.659 73.5578C99.7252 74.4714 99.0263 75.5987 98.623 76.843C98.2196 78.0872 98.1239 79.411 98.3441 80.7005L103.279 109.546C104.409 116.139 97.5047 121.167 91.5968 118.057L65.7348 104.436C64.5798 103.827 63.2942 103.508 61.9889 103.508C60.6836 103.508 59.398 103.827 58.243 104.436L32.4234 118.054C26.5188 121.167 19.6148 116.139 20.7416 109.543L25.6763 80.6973C25.8972 79.4077 25.8019 78.0837 25.3985 76.8393C24.9951 75.5949 24.2957 74.4676 23.3608 73.5546L2.45949 53.1282C-2.31841 48.4602 0.320353 40.3257 6.92385 39.3633L35.8166 35.1536C37.1082 34.9659 38.3348 34.4662 39.3908 33.6975C40.4468 32.9287 41.3003 31.9141 41.8779 30.741L54.8008 4.49444C57.7335 -1.49926 66.2671 -1.49925 69.2194 4.49772Z" fill="#00B2BB"/>
<path d="M62.0017 80.563C58.6992 80.5553 55.4564 79.6802 52.5965 78.025C49.7366 76.3697 47.3594 73.992 45.7019 71.1289C45.5619 70.8872 45.4709 70.6202 45.4341 70.3432C45.3972 70.0662 45.4153 69.7846 45.4872 69.5145C45.5591 69.2445 45.6834 68.9914 45.8531 68.7696C46.0227 68.5478 46.2344 68.3618 46.4759 68.2221C46.9631 67.9396 47.5423 67.8627 48.0862 68.0081C48.63 68.1536 49.0939 68.5097 49.3759 68.9979C50.6596 71.216 52.5009 73.0581 54.7161 74.3406C56.9314 75.6231 59.4434 76.3013 62.0017 76.3076C64.5595 76.3014 67.071 75.6232 69.2857 74.3407C71.5005 73.0581 73.3411 71.216 74.624 68.9979C74.9067 68.5094 75.3712 68.1534 75.9155 68.0079C76.4599 67.8624 77.0397 67.9395 77.5274 68.2221C78.0139 68.5054 78.3684 68.9704 78.5135 69.5152C78.6586 70.0601 78.5823 70.6404 78.3013 71.1289C76.6436 73.9918 74.2664 76.3693 71.4065 78.0245C68.5467 79.6798 65.304 80.555 62.0017 80.563Z" fill="#1C373E"/>
<path d="M46.3452 61.7767C42.841 61.7767 39.5915 59.7373 37.8541 56.4573C37.7235 56.2106 37.6427 55.9405 37.6164 55.6625C37.59 55.3845 37.6186 55.104 37.7005 54.837C37.7824 54.5701 37.916 54.3219 38.0937 54.1068C38.2714 53.8916 38.4896 53.7137 38.7359 53.5832C38.9823 53.4522 39.252 53.3712 39.5296 53.3447C39.8072 53.3183 40.0874 53.3469 40.3539 53.4289C40.6205 53.511 40.8684 53.645 41.0833 53.8231C41.2983 54.0012 41.4761 54.22 41.6066 54.4671C42.5864 56.3526 44.412 57.5212 46.3388 57.5212C48.2656 57.5212 50.0781 56.3526 51.071 54.4671C51.2015 54.22 51.3792 54.0012 51.5942 53.8231C51.8091 53.645 52.057 53.511 52.3235 53.4289C52.5901 53.3469 52.8703 53.3183 53.1479 53.3447C53.4255 53.3712 53.6952 53.4522 53.9415 53.5832C54.1879 53.7137 54.4062 53.8916 54.5839 54.1068C54.7615 54.3219 54.8951 54.5701 54.977 54.837C55.0589 55.104 55.0875 55.3845 55.0611 55.6625C55.0348 55.9405 54.954 56.2106 54.8234 56.4573C53.099 59.7373 49.8495 61.7767 46.3452 61.7767Z" fill="#1C373E"/>
<path d="M77.658 61.7767C74.1538 61.7767 70.901 59.7373 69.1668 56.4573C68.9042 55.9585 68.8499 55.3756 69.0158 54.8367C69.1818 54.2977 69.5544 53.8469 70.0519 53.5832C70.298 53.4523 70.5675 53.3713 70.8449 53.3449C71.1223 53.3185 71.4021 53.3471 71.6684 53.4292C71.9348 53.5113 72.1823 53.6452 72.3969 53.8233C72.6116 54.0014 72.7891 54.2201 72.9193 54.4671C73.899 56.3526 75.7279 57.5212 77.6547 57.5212C79.5815 57.5212 81.3908 56.3526 82.3869 54.4671C82.5171 54.2201 82.6946 54.0014 82.9092 53.8233C83.1238 53.6452 83.3714 53.5113 83.6377 53.4292C83.904 53.3471 84.184 53.3185 84.4614 53.3449C84.7387 53.3713 85.0082 53.4523 85.2543 53.5832C85.5009 53.7135 85.7195 53.8912 85.8975 54.1062C86.0755 54.3212 86.2094 54.5693 86.2916 54.8363C86.3738 55.1032 86.4027 55.3838 86.3766 55.662C86.3505 55.9402 86.2698 56.2104 86.1393 56.4573C84.4117 59.7373 81.1589 61.7767 77.658 61.7767Z" fill="#1C373E"/>
</g>
<defs>
<clipPath id="clip0_5:193">
<rect width="124" height="119" fill="white"/>
</clipPath>
</defs>
</svg>
