<svg width="65" height="64" viewBox="0 0 65 64" fill="none" xmlns="http://www.w3.org/2000/svg">
    <circle cx="32.3174" cy="32" r="32" fill="url(#paint0_radial_1397:546)"/>
    <circle cx="32.3174" cy="32" r="32" fill="url(#paint1_radial_1397:546)"/>
    <path d="M48.2361 25.4069C48.1611 23.7063 47.8861 22.5371 47.4921 21.524C47.0857 20.4487 46.4605 19.4859 45.6413 18.6855C44.8409 17.8727 43.8718 17.2411 42.8089 16.8411C41.7899 16.4471 40.6269 16.1721 38.9263 16.0971C37.213 16.0158 36.6691 15.997 32.3236 15.997C27.9782 15.997 27.4343 16.0158 25.7273 16.0908C24.0267 16.1657 22.8575 16.441 21.8447 16.8347C20.7691 17.2411 19.8063 17.8664 19.0059 18.6855C18.1931 19.4859 17.5618 20.455 17.1615 21.5179C16.7675 22.5371 16.4925 23.6999 16.4175 25.4005C16.3362 27.1139 16.3174 27.6578 16.3174 32.0032C16.3174 36.3486 16.3362 36.8926 16.4112 38.5995C16.4861 40.3001 16.7614 41.4693 17.1554 42.4824C17.5618 43.5578 18.1931 44.5205 19.0059 45.3209C19.8063 46.1337 20.7754 46.7653 21.8383 47.1654C22.8575 47.5593 24.0203 47.8343 25.7212 47.9093C27.4279 47.9845 27.9721 48.0031 32.3175 48.0031C36.6629 48.0031 37.2069 47.9845 38.9138 47.9093C40.6144 47.8343 41.7836 47.5593 42.7964 47.1654C44.9474 46.3337 46.648 44.6331 47.4797 42.4824C47.8734 41.4632 48.1486 40.3001 48.2236 38.5995C48.2986 36.8926 48.3174 36.3486 48.3174 32.0032C48.3174 27.6578 48.311 27.1139 48.2361 25.4069ZM45.3538 38.4745C45.285 40.0376 45.0224 40.8817 44.8036 41.4444C44.2658 42.8387 43.1591 43.9454 41.7648 44.4832C41.2021 44.702 40.3519 44.9646 38.7949 45.0332C37.1067 45.1084 36.6004 45.127 32.33 45.127C28.0595 45.127 27.5469 45.1084 25.8648 45.0332C24.3017 44.9646 23.4576 44.702 22.8949 44.4832C22.201 44.2267 21.5694 43.8203 21.0568 43.2889C20.5253 42.7698 20.1189 42.1446 19.8625 41.4507C19.6436 40.888 19.3811 40.0376 19.3124 38.4808C19.2372 36.7927 19.2187 36.2861 19.2187 32.0157C19.2187 27.7452 19.2372 27.2326 19.3124 25.5507C19.3811 23.9876 19.6436 23.1436 19.8625 22.5808C20.1189 21.8867 20.5253 21.2554 21.0631 20.7425C21.5819 20.211 22.2071 19.8046 22.9012 19.5484C23.464 19.3296 24.3144 19.067 25.8712 18.9981C27.5593 18.9232 28.0659 18.9044 32.3361 18.9044C36.6129 18.9044 37.1192 18.9232 38.8012 18.9981C40.3643 19.067 41.2084 19.3296 41.7711 19.5484C42.465 19.8046 43.0966 20.211 43.6093 20.7425C44.1407 21.2615 44.5471 21.8867 44.8036 22.5808C45.0224 23.1436 45.285 23.9937 45.3538 25.5507C45.4288 27.2389 45.4476 27.7452 45.4476 32.0157C45.4476 36.2861 45.4288 36.7863 45.3538 38.4745Z" fill="white"/>
    <path d="M32.3236 23.7813C27.7845 23.7813 24.1017 27.4638 24.1017 32.0032C24.1017 36.5426 27.7845 40.2252 32.3236 40.2252C36.863 40.2252 40.5456 36.5426 40.5456 32.0032C40.5456 27.4638 36.863 23.7813 32.3236 23.7813ZM32.3236 37.3366C29.3789 37.3366 26.9902 34.9482 26.9902 32.0032C26.9902 29.0582 29.3789 26.6698 32.3236 26.6698C35.2686 26.6698 37.657 29.0582 37.657 32.0032C37.657 34.9482 35.2686 37.3366 32.3236 37.3366Z" fill="white"/>
    <path d="M42.7903 23.4562C42.7903 24.5162 41.9309 25.3756 40.8706 25.3756C39.8107 25.3756 38.9512 24.5162 38.9512 23.4562C38.9512 22.396 39.8107 21.5367 40.8706 21.5367C41.9309 21.5367 42.7903 22.396 42.7903 23.4562Z" fill="white"/>
    <defs>
        <radialGradient id="paint0_radial_1397:546" cx="0" cy="0" r="1" gradientUnits="userSpaceOnUse" gradientTransform="translate(17.3175 68.9293) rotate(-90) scale(63.4287 58.9937)">
            <stop stop-color="#FFDD55"/>
            <stop offset="0.1" stop-color="#FFDD55"/>
            <stop offset="0.5" stop-color="#FF543E"/>
            <stop offset="1" stop-color="#C837AB"/>
        </radialGradient>
        <radialGradient id="paint1_radial_1397:546" cx="0" cy="0" r="1" gradientUnits="userSpaceOnUse" gradientTransform="translate(-10.403 4.61045) rotate(78.6806) scale(28.3529 116.872)">
            <stop stop-color="#3771C8"/>
            <stop offset="0.128" stop-color="#3771C8"/>
            <stop offset="1" stop-color="#6600FF" stop-opacity="0"/>
        </radialGradient>
    </defs>
</svg>
