<svg width="86" height="86" viewBox="0 0 86 86" fill="none" xmlns="http://www.w3.org/2000/svg">
<path d="M43 85.7626C66.7483 85.7626 86 66.564 86 42.8813C86 19.1986 66.7483 0 43 0C19.2518 0 0 19.1986 0 42.8813C0 66.564 19.2518 85.7626 43 85.7626Z" fill="#00B2BB"/>
<path d="M43.0002 41.8766C39.4001 41.8682 35.865 40.9191 32.7473 39.1238C29.6297 37.3285 27.0382 34.7497 25.2313 31.6444C25.0724 31.3819 24.9676 31.0904 24.923 30.787C24.8783 30.4837 24.8947 30.1744 24.9713 29.8775C25.0478 29.5805 25.183 29.3017 25.3688 29.0574C25.5546 28.8131 25.7874 28.6081 26.0535 28.4545C26.3197 28.301 26.6138 28.2018 26.9188 28.1629C27.2238 28.124 27.5335 28.1461 27.8299 28.2278C28.1262 28.3096 28.4032 28.4495 28.6448 28.6393C28.8863 28.8291 29.0874 29.0649 29.2365 29.3331C30.6302 31.7435 32.6358 33.7454 35.0517 35.1373C37.4675 36.5292 40.2084 37.262 42.9985 37.262C45.7885 37.262 48.5294 36.5292 50.9452 35.1373C53.3611 33.7454 55.3668 31.7435 56.7604 29.3331C57.0677 28.803 57.5737 28.4163 58.1669 28.2582C58.7601 28.1001 59.392 28.1834 59.9236 28.4899C60.4552 28.7964 60.8429 29.301 61.0015 29.8925C61.1601 30.4841 61.0765 31.1143 60.7691 31.6444C58.962 34.7494 56.3705 37.328 53.2528 39.1233C50.1352 40.9186 46.6003 41.8678 43.0002 41.8766Z" fill="#1C373E"/>
<path d="M25.9324 21.501C22.1124 21.501 18.57 19.2891 16.676 15.7317C16.3889 15.1874 16.3304 14.5518 16.5134 13.9645C16.6963 13.3772 17.1057 12.8865 17.6514 12.6003C18.1972 12.314 18.8346 12.2557 19.4235 12.4381C20.0124 12.6206 20.5045 13.0288 20.7915 13.5731C21.8596 15.6181 23.8497 16.8856 25.9502 16.8856C28.0508 16.8856 30.0267 15.6181 31.109 13.5731C31.3991 13.0378 31.8896 12.6385 32.4735 12.462C33.0575 12.2856 33.6877 12.3462 34.227 12.6308C34.7663 12.9154 35.1711 13.4009 35.3532 13.9816C35.5354 14.5624 35.4802 15.1913 35.1996 15.7317C33.2949 19.2891 29.7525 21.501 25.9324 21.501Z" fill="#1C373E"/>
<path d="M60.064 21.501C56.2474 21.501 52.7015 19.2891 50.8075 15.7317C50.5269 15.1913 50.4717 14.5624 50.6539 13.9816C50.836 13.4009 51.2408 12.9154 51.7801 12.6308C52.3194 12.3462 52.9496 12.2856 53.5336 12.462C54.1175 12.6385 54.6079 13.0378 54.8981 13.573C55.9662 15.6181 57.9599 16.8855 60.0568 16.8855C62.1538 16.8855 64.1333 15.6181 65.2191 13.573C65.5093 13.0378 65.9998 12.6385 66.5837 12.462C67.1676 12.2856 67.7978 12.3462 68.3372 12.6308C68.8765 12.9154 69.2812 13.4009 69.4634 13.9816C69.6456 14.5624 69.5904 15.1913 69.3098 15.7317C67.43 19.2891 63.8698 21.501 60.064 21.501Z" fill="#1C373E"/>
</svg>
