<svg width="87" height="87" viewBox="0 0 87 87" fill="none" xmlns="http://www.w3.org/2000/svg">
<path d="M43.1208 86.0036C66.9358 86.0036 86.2416 66.751 86.2416 43.0018C86.2416 19.2526 66.9358 0 43.1208 0C19.3058 0 0 19.2526 0 43.0018C0 66.751 19.3058 86.0036 43.1208 86.0036Z" fill="#F0BE36"/>
<path d="M26.0052 24.9473C22.1744 24.9473 18.6221 22.7328 16.7227 19.1653C16.577 18.8964 16.4861 18.6014 16.4552 18.2973C16.4244 17.9932 16.4543 17.6861 16.5432 17.3936C16.6321 17.1011 16.7782 16.829 16.9731 16.5931C17.168 16.3572 17.4078 16.1622 17.6787 16.0192C17.9496 15.8762 18.2462 15.7882 18.5515 15.7602C18.8567 15.7322 19.1644 15.7648 19.4569 15.856C19.7494 15.9473 20.0209 16.0954 20.2557 16.2919C20.4905 16.4883 20.684 16.7292 20.8249 17.0006C21.8959 19.0478 23.8917 20.3189 25.9981 20.3189C28.1045 20.3189 30.086 19.0478 31.1713 17.0006C31.3122 16.7292 31.5057 16.4883 31.7405 16.2919C31.9753 16.0954 32.2468 15.9473 32.5393 15.856C32.8318 15.7648 33.1395 15.7322 33.4447 15.7602C33.7499 15.7882 34.0466 15.8762 34.3175 16.0192C34.5884 16.1622 34.8282 16.3572 35.0231 16.5931C35.218 16.829 35.3641 17.1011 35.453 17.3936C35.5419 17.6861 35.5718 17.9932 35.541 18.2973C35.5101 18.6014 35.4192 18.8964 35.2735 19.1653C33.3884 22.7328 29.8361 24.9473 26.0052 24.9473Z" fill="#1C373E"/>
<path d="M60.2327 24.9473C56.4055 24.9473 52.8496 22.7328 50.9502 19.1653C50.7882 18.8959 50.6828 18.5963 50.6406 18.2849C50.5983 17.9736 50.6202 17.6569 50.7047 17.3542C50.7892 17.0515 50.9346 16.7691 51.1321 16.5243C51.3296 16.2794 51.575 16.0773 51.8534 15.9301C52.1318 15.783 52.4373 15.6939 52.7514 15.6683C53.0654 15.6427 53.3814 15.6812 53.68 15.7813C53.9787 15.8815 54.2537 16.0413 54.4884 16.2509C54.7232 16.4605 54.9126 16.7156 55.0452 17.0006C56.1163 19.0478 58.1156 20.3189 60.2184 20.3189C62.3213 20.3189 64.3277 19.0407 65.3988 17.0006C65.6867 16.4577 66.179 16.051 66.7675 15.8701C67.356 15.6891 67.9925 15.7487 68.537 16.0358C69.0814 16.3228 69.4893 16.8138 69.6707 17.4007C69.8521 17.9876 69.7924 18.6224 69.5045 19.1653C67.6195 22.7328 64.0636 24.9473 60.2327 24.9473Z" fill="#1C373E"/>
<path d="M60.2327 40.5701H26.0053C25.3898 40.5701 24.7996 40.3263 24.3644 39.8923C23.9292 39.4583 23.6847 38.8696 23.6847 38.2558C23.6847 37.6421 23.9292 37.0534 24.3644 36.6194C24.7996 36.1854 25.3898 35.9416 26.0053 35.9416H60.2327C60.8482 35.9416 61.4385 36.1854 61.8737 36.6194C62.3089 37.0534 62.5534 37.6421 62.5534 38.2558C62.5534 38.8696 62.3089 39.4583 61.8737 39.8923C61.4385 40.3263 60.8482 40.5701 60.2327 40.5701Z" fill="#1C373E"/>
</svg>
