<svg width="87" height="87" viewBox="0 0 87 87" fill="none" xmlns="http://www.w3.org/2000/svg">
<path d="M43.1208 86.0036C66.9358 86.0036 86.2416 66.751 86.2416 43.0018C86.2416 19.2526 66.9358 0 43.1208 0C19.3058 0 0 19.2526 0 43.0018C0 66.751 19.3058 86.0036 43.1208 86.0036Z" fill="#98C21D"/>
<path d="M43.1208 41.9942C39.5105 41.9858 35.9655 41.034 32.8391 39.2337C29.7126 37.4333 27.1139 34.8473 25.3019 31.7333C25.1426 31.4701 25.0375 31.1778 24.9927 30.8735C24.948 30.5693 24.9644 30.2592 25.0412 29.9614C25.118 29.6636 25.2535 29.384 25.4398 29.139C25.6262 28.894 25.8596 28.6885 26.1265 28.5345C26.3933 28.3805 26.6883 28.281 26.9942 28.242C27.3 28.203 27.6106 28.2251 27.9078 28.3071C28.205 28.3892 28.4828 28.5294 28.725 28.7197C28.9672 28.9101 29.1689 29.1466 29.3184 29.4155C30.716 31.8327 32.7272 33.8402 35.1499 35.236C37.5725 36.6318 40.3211 37.3666 43.119 37.3666C45.9169 37.3666 48.6655 36.6318 51.0881 35.236C53.5108 33.8402 55.522 31.8327 56.9196 29.4155C57.2278 28.8839 57.7351 28.4962 58.33 28.3376C58.9249 28.179 59.5586 28.2626 60.0917 28.57C60.6248 28.8773 61.0136 29.3833 61.1726 29.9765C61.3316 30.5698 61.2478 31.2017 60.9396 31.7333C59.1274 34.8471 56.5286 37.4329 53.4022 39.2332C50.2758 41.0335 46.731 41.9855 43.1208 41.9942Z" fill="#1C373E"/>
<path d="M26.0053 21.5614C22.1745 21.5614 18.6222 19.3433 16.7228 15.7759C16.435 15.2301 16.3764 14.5926 16.5598 14.0037C16.7433 13.4148 17.1538 12.9227 17.7011 12.6357C18.2484 12.3486 18.8876 12.2901 19.4781 12.4731C20.0687 12.656 20.5621 13.0654 20.85 13.6112C21.921 15.6619 23.9168 16.933 26.0232 16.933C28.1296 16.933 30.1111 15.6619 31.1964 13.6112C31.4874 13.0744 31.9792 12.674 32.5648 12.497C33.1504 12.3201 33.7823 12.3809 34.3232 12.6663C34.864 12.9517 35.2699 13.4386 35.4526 14.0209C35.6353 14.6033 35.5799 15.234 35.2985 15.7759C33.3885 19.3433 29.8362 21.5614 26.0053 21.5614Z" fill="#1C373E"/>
<path d="M60.2328 21.5614C56.4055 21.5614 52.8496 19.3433 50.9503 15.7759C50.6689 15.234 50.6136 14.6033 50.7963 14.0209C50.9789 13.4385 51.3849 12.9517 51.9257 12.6663C52.4665 12.3809 53.0985 12.3201 53.684 12.497C54.2696 12.674 54.7614 13.0744 55.0524 13.6112C56.1235 15.6619 58.1228 16.933 60.2256 16.933C62.3285 16.933 64.3135 15.6619 65.4024 13.6112C65.6934 13.0744 66.1853 12.674 66.7708 12.497C67.3564 12.3201 67.9884 12.3809 68.5292 12.6663C69.07 12.9517 69.476 13.4385 69.6586 14.0209C69.8413 14.6033 69.7859 15.234 69.5046 15.7759C67.6195 19.3433 64.0493 21.5614 60.2328 21.5614Z" fill="#1C373E"/>
</svg>
