<svg width="61" height="58" viewBox="0 0 61 58" fill="none" xmlns="http://www.w3.org/2000/svg">
<path  d="M34.0146 2.19281L40.2553 14.9836C40.5351 15.5549 40.9474 16.0492 41.4572 16.4242C41.9669 16.7992 42.5588 17.0438 43.1823 17.1369L57.1361 19.1862C57.8511 19.2966 58.5216 19.6058 59.0729 20.0792C59.6242 20.5527 60.0347 21.1718 60.2584 21.8675C60.4821 22.5632 60.5103 23.308 60.3399 24.019C60.1695 24.73 59.8071 25.379 59.2933 25.8938L49.196 35.8494C48.7442 36.2942 48.4064 36.8437 48.2116 37.4502C48.0169 38.0568 47.9712 38.7022 48.0784 39.3306L50.459 53.3919C50.5773 54.1143 50.4945 54.8557 50.2201 55.5333C49.9457 56.2109 49.4903 56.7979 48.905 57.2287C48.3197 57.6595 47.6275 57.9172 46.9057 57.9729C46.1839 58.0287 45.4611 57.8802 44.8179 57.5442L32.3365 50.9012C31.7781 50.6056 31.1573 50.4512 30.5271 50.4512C29.8969 50.4512 29.276 50.6056 28.7176 50.9012L16.2362 57.5442C15.5936 57.8796 14.8716 58.0278 14.1506 57.9724C13.4296 57.9169 12.738 57.6598 12.153 57.23C11.5679 56.8001 11.1125 56.2142 10.8374 55.5378C10.5623 54.8613 10.4784 54.1209 10.5951 53.399L12.9792 39.3378C13.0846 38.7094 13.038 38.0645 12.8434 37.4582C12.6488 36.852 12.3119 36.3025 11.8617 35.8566L1.76441 25.901C1.24855 25.3867 0.884343 24.7374 0.712542 24.0257C0.540742 23.3139 0.568142 22.5679 0.791646 21.871C1.01515 21.1741 1.42594 20.5539 1.97808 20.0797C2.53021 19.6055 3.20191 19.2962 3.91798 19.1862L17.8718 17.1334C18.4959 17.0407 19.0886 16.7964 19.599 16.4214C20.1094 16.0464 20.5223 15.5518 20.8023 14.98L27.043 2.18922C27.3685 1.53622 27.8668 0.987467 28.4825 0.604187C29.0982 0.220908 29.807 0.0181678 30.5299 0.0185399C31.2528 0.0189121 31.9615 0.222399 32.5768 0.606312C33.1921 0.990225 33.6899 1.53947 34.0146 2.19281Z" fill="#80D9DD"/>
</svg>
