<svg width="65" height="64" viewBox="0 0 65 64" fill="none" xmlns="http://www.w3.org/2000/svg">
    <path d="M32.3174 64C49.9905 64 64.3174 49.6731 64.3174 32C64.3174 14.3269 49.9905 0 32.3174 0C14.6443 0 0.317383 14.3269 0.317383 32C0.317383 49.6731 14.6443 64 32.3174 64Z" fill="url('#paint0_linear_1397:551')"/>
    <path d="M17.2792 30.2935L36.3405 22.4399C38.2221 21.6218 44.6032 19.0039 44.6032 19.0039C44.6032 19.0039 47.5483 17.8586 47.3029 20.6401C47.221 21.7854 46.5666 25.794 45.9121 30.1298L43.8669 42.9737C43.8669 42.9737 43.7033 44.8553 42.3125 45.1826C40.9218 45.5098 38.6312 44.0372 38.2221 43.71C37.8949 43.4646 32.0865 39.7832 29.9595 37.9834C29.3868 37.4926 28.7324 36.5109 30.0413 35.3656C32.9864 32.6659 36.5042 29.3118 38.6312 27.1847C39.6129 26.203 40.5946 23.9124 36.5042 26.6939L24.9692 34.4657C24.9692 34.4657 23.6603 35.2838 21.206 34.5475C18.7518 33.8112 15.8885 32.8295 15.8885 32.8295C15.8885 32.8295 13.9251 31.6024 17.2792 30.2935Z" fill="white"/>
    <defs>
        <linearGradient id="paint0_linear_1397:551" x1="42.9865" y1="10.6691" x2="26.9865" y2="48" gradientUnits="userSpaceOnUse">
            <stop stop-color="#37AEE2"/>
            <stop offset="1" stop-color="#1E96C8"/>
        </linearGradient>
    </defs>
</svg>