<svg width="65" height="64" viewBox="0 0 65 64" fill="none" xmlns="http://www.w3.org/2000/svg">
    <circle cx="32.3174" cy="32" r="32" fill="#2787F5"/>
    <path d="M48.1449 40.6078C46.838 38.2558 43.4715 35.4297 42.0817 34.1999C41.7013 33.8631 41.6606 33.2806 42.0068 32.9082C44.6591 30.0581 46.7806 26.7832 47.5107 24.8043C47.8329 23.9302 47.166 23.0065 46.2264 23.0065H43.497C42.5973 23.0065 42.0708 23.3295 41.8199 23.8436C39.6156 28.3607 37.7247 30.3155 36.401 31.4581C35.66 32.0981 34.5043 31.5679 34.5043 30.5941C34.5043 28.7177 34.5043 26.2923 34.5043 24.5723C34.5043 23.7382 33.8222 23.0633 32.9807 23.0633L27.9946 23.0065C27.367 23.0065 27.0084 23.7171 27.3852 24.2153L28.2084 25.3971C28.5182 25.8065 28.6855 26.3047 28.6855 26.816L28.6811 32.1381C28.6811 33.0639 27.559 33.5162 26.8928 32.8675C24.639 30.6726 22.6834 26.1905 21.9794 24.0473C21.7758 23.4269 21.1947 23.008 20.5358 23.0065L17.8471 23C16.8384 23 16.1009 23.9564 16.3751 24.9192C18.8318 33.5424 23.8725 41.7459 32.8556 42.6354C33.7407 42.7227 34.5043 42.0099 34.5043 41.1278V38.3307C34.5043 37.5285 35.1334 36.8391 35.9421 36.8187C35.9705 36.818 35.9989 36.818 36.0272 36.818C38.4032 36.818 41.0643 40.2761 41.9952 41.8936C42.2628 42.359 42.7631 42.6427 43.3042 42.6427H46.9209C47.9762 42.6427 48.6533 41.5234 48.1449 40.6078Z" fill="white"/>
</svg>
