<svg width="65" height="64" viewBox="0 0 65 64" fill="none" xmlns="http://www.w3.org/2000/svg">
    <circle cx="32.3174" cy="32" r="32" fill="#00E676"/>
    <path d="M16.4506 31.8565C16.4497 34.6509 17.1798 37.3792 18.5678 39.7837L16.3174 48L24.7261 45.7952C27.043 47.0587 29.6513 47.7245 32.3059 47.7256H32.3127C41.0543 47.7256 48.1709 40.6113 48.1746 31.8688C48.1761 27.6315 46.5274 23.6475 43.5329 20.6504C40.5379 17.6533 36.5557 16.0018 32.3127 16C23.5693 16 16.4543 23.1135 16.4506 31.8565ZM21.4578 39.3695L21.1439 38.8709C19.824 36.7724 19.1274 34.3472 19.1284 31.8571C19.1313 24.5905 25.0453 18.6782 32.3174 18.6782C35.839 18.6796 39.1487 20.0525 41.6383 22.5434C44.1276 25.0345 45.4973 28.346 45.4963 31.8675C45.4931 39.1345 39.579 45.0473 32.3124 45.0473H32.3072C29.9411 45.0459 27.6207 44.4108 25.597 43.21L25.1154 42.9245L20.1253 44.2328L21.4578 39.3695ZM32.3127 47.7256C32.3124 47.7256 32.3125 47.7256 32.3127 47.7256V47.7256Z" fill="white"/>
    <path fill-rule="evenodd" clip-rule="evenodd" d="M28.3484 25.2267C28.0515 24.5667 27.739 24.5535 27.4566 24.5419C27.2255 24.5321 26.9611 24.5327 26.6971 24.5327C26.4327 24.5327 26.0033 24.6319 25.6402 25.0285C25.2768 25.4251 24.2529 26.3839 24.2529 28.3338C24.2529 30.2839 25.6733 32.1681 25.8712 32.4328C26.0695 32.697 28.6131 36.8266 32.6413 38.4151C35.9893 39.7353 36.6706 39.4727 37.3973 39.4066C38.124 39.3406 39.7423 38.4482 40.0724 37.5226C40.4028 36.5973 40.4028 35.804 40.3037 35.6384C40.2047 35.4732 39.9403 35.374 39.544 35.176C39.1475 34.9777 37.199 34.0188 36.8358 33.8866C36.4724 33.7545 36.2082 33.6885 35.9438 34.0853C35.6796 34.4816 34.9206 35.374 34.6893 35.6384C34.4581 35.9033 34.2268 35.9363 33.8305 35.7381C33.4341 35.5392 32.1576 35.1211 30.6433 33.7711C29.465 32.7206 28.6696 31.4232 28.4383 31.0264C28.2072 30.6301 28.4137 30.4154 28.6124 30.2178C28.7905 30.0402 29.0088 29.7551 29.2071 29.5238C29.4048 29.2923 29.4708 29.1271 29.6029 28.8628C29.7352 28.5982 29.669 28.3668 29.57 28.1685C29.4708 27.9703 28.7008 26.0105 28.3484 25.2267Z" fill="white"/>
</svg>
