<svg width="24" height="24" viewBox="0 0 24 24" fill="none" xmlns="http://www.w3.org/2000/svg">
<path d="M8.06857 2.02909C7.58758 2.3005 7.41767 2.91044 7.68908 3.39143C7.96049 3.87243 8.57043 4.04233 9.05143 3.77092L8.06857 2.02909ZM19 9.00001L18 8.99949V9.00001H19ZM18 13C18 13.5523 18.4477 14 19 14C19.5523 14 20 13.5523 20 13H18ZM17 18C17.5523 18 18 17.5523 18 17C18 16.4477 17.5523 16 17 16V18ZM2 16C1.44772 16 1 16.4477 1 17C1 17.5523 1.44772 18 2 18V16ZM5 9L6 9.00001L6 8.99874L5 9ZM6.66857 6.23874C6.92193 5.748 6.72948 5.14479 6.23874 4.89143C5.748 4.63808 5.14478 4.83052 4.89143 5.32126L6.66857 6.23874ZM14.595 21.5018C14.8721 21.0241 14.7095 20.4121 14.2318 20.135C13.754 19.8579 13.1421 20.0205 12.865 20.4982L14.595 21.5018ZM11.135 20.4982C10.8579 20.0205 10.246 19.8579 9.76823 20.135C9.2905 20.4121 9.12788 21.0241 9.405 21.5018L11.135 20.4982ZM9.05143 3.77092C10.9096 2.72243 13.1848 2.73956 15.0269 3.81592L16.0359 2.08908C13.5797 0.653935 10.5461 0.631093 8.06857 2.02909L9.05143 3.77092ZM15.0269 3.81592C16.8691 4.89228 18.0011 6.86593 18 8.99949L20 9.00052C20.0015 6.15576 18.4921 3.52422 16.0359 2.08908L15.0269 3.81592ZM18 9.00001V13H20V9.00001H18ZM17 16H2V18H17V16ZM2 18C4.20914 18 6 16.2091 6 14H4C4 15.1046 3.10457 16 2 16V18ZM6 14V9H4V14H6ZM6 8.99874C5.99879 8.0385 6.22807 7.09199 6.66857 6.23874L4.89143 5.32126C4.30409 6.45893 3.99839 7.72094 4 9.00127L6 8.99874ZM12.865 20.4982C12.6861 20.8066 12.3565 20.9965 12 20.9965V22.9965C13.0696 22.9965 14.0583 22.427 14.595 21.5018L12.865 20.4982ZM12 20.9965C11.6435 20.9965 11.3139 20.8066 11.135 20.4982L9.405 21.5018C9.9417 22.427 10.9304 22.9965 12 22.9965V20.9965Z" fill="black"/>
<path d="M1 1L23 23" stroke="black" stroke-width="2" stroke-linecap="round" stroke-linejoin="round"/>
</svg>
