<svg width="34" height="34" viewBox="0 0 34 34" fill="none" xmlns="http://www.w3.org/2000/svg">
<path d="M20.9267 25.4231L7.6725 17.7708C7.47 17.6539 7.33859 17.4446 7.32116 17.2115C7.053 13.6374 9.76696 8.62683 10.1796 7.88868C10.1955 7.85961 10.212 7.83041 10.2286 7.80155C10.4236 7.46394 10.855 7.34792 11.193 7.54221L11.1943 7.54294C11.5313 7.73749 11.6477 8.16819 11.4544 8.50605C11.452 8.51017 11.4313 8.54642 11.3957 8.61131C10.4441 10.3841 11.0694 12.6118 12.8239 13.6248C14.6125 14.6574 16.9076 14.0424 17.9402 12.2538C18.1354 11.9158 18.5678 11.8 18.9057 11.9951L20.3118 12.8069C20.6499 13.0021 20.7657 13.4344 20.5705 13.7724C19.5379 15.561 20.153 17.8562 21.9416 18.8889C23.6976 19.9027 25.942 19.3284 27.0004 17.6143C27.0368 17.5538 27.0569 17.5197 27.0592 17.5157C27.2552 17.1792 27.6863 17.0646 28.0234 17.2592L28.0245 17.2599C28.3618 17.4554 28.477 17.8871 28.2821 18.2247C28.2654 18.2538 28.2484 18.2824 28.2313 18.311C27.7982 19.0372 24.8159 23.893 21.5867 25.4479C21.3762 25.5492 21.1291 25.5399 20.9267 25.4231Z" fill="#F7CE22"/>
<path d="M20.8137 10.3127C19.7232 9.68314 18.3237 10.0581 17.6941 11.1486C17.0645 12.2391 17.4396 13.6384 18.5301 14.2681C19.6206 14.8977 21.02 14.5228 21.6496 13.4323C22.2792 12.3418 21.9042 10.9424 20.8137 10.3127Z" fill="#E4B800"/>
<path d="M11.5188 6.98071C10.4282 6.3511 9.02878 6.72609 8.39917 7.8166C7.76956 8.90712 8.14455 10.3066 9.23506 10.9362C10.3256 11.5658 11.7249 11.1907 12.3545 10.1002C12.9841 9.00969 12.6093 7.61032 11.5188 6.98071Z" fill="#E4B800"/>
<path d="M28.3467 16.6974C27.2562 16.0678 25.8569 16.4429 25.2273 17.5334C24.5978 18.6238 24.9726 20.0231 26.0631 20.6527C27.1536 21.2823 28.5531 20.9074 29.1826 19.817C29.8122 18.7265 29.4372 17.327 28.3467 16.6974Z" fill="#E4B800"/>
<path d="M19.7677 27.4315L6.51343 19.7791C6.17535 19.5839 6.05954 19.1517 6.25473 18.8136L7.30859 16.9883L21.787 25.3474L20.7332 27.1728C20.538 27.5108 20.1058 27.6266 19.7677 27.4315Z" fill="#E4B800"/>
</svg>
