<svg width="64" height="64" viewBox="0 0 64 64" fill="none" xmlns="http://www.w3.org/2000/svg">

        <path d="M43.4086 37.2023H26.6072C25.7316 37.2023 24.9643 37.788 24.7335 38.6326C24.5026 39.4771 24.8653 40.3717 25.619 40.8173C32.9394 45.1429 36.7418 50.1886 37.2433 56.2429C37.4182 58.344 39.2897 60.0223 41.414 59.9945C43.5817 59.9599 45.6125 59.091 47.1335 57.5476C48.6557 56.0029 49.4946 53.9572 49.4954 51.7877C49.4954 51.7874 49.4954 51.7872 49.4954 51.7869V51.1343C49.4954 45.8347 47.9256 42.4555 45.0293 38.0739C44.6693 37.5296 44.0609 37.2023 43.4086 37.2023Z" fill="#FFC380"/>
        <path d="M64.0002 35.0006C64.0002 38.3567 61.2699 41.0872 57.9136 41.0872H26.6081C26.2603 41.0872 25.9188 40.9938 25.6195 40.8167C23.422 39.5174 21.2031 38.4478 19.4202 37.5881C18.7984 37.2883 18.211 37.0051 17.6768 36.7381C17.0187 36.409 16.603 35.7365 16.603 35.0006V10.1363C16.603 9.40046 17.0187 8.72792 17.6768 8.39882C25.5258 4.47489 32.0503 4.00038 39.6587 4.00038C40.8369 4.00038 42.0418 4.01175 43.2809 4.02338C44.6513 4.03631 46.0682 4.04975 47.5536 4.04975H53.6946C57.0507 4.04975 59.7812 6.78011 59.7812 10.1363C59.7812 11.2648 59.4727 12.3224 58.9352 13.2294C60.6839 14.2999 61.8532 16.2281 61.8532 18.4245C61.8532 19.5529 61.5447 20.6105 61.0072 21.5175C62.756 22.588 63.9253 24.5162 63.9253 26.7126C63.9253 28.2911 63.3212 29.7312 62.3323 30.8137C63.4093 31.9488 64.0002 33.4292 64.0002 35.0006Z" fill="#FFCF99"/>
        <path d="M12.1736 14.2563V4.02569H8.28857V14.2563C8.28857 15.3285 9.15888 16.1989 10.2311 16.1989C11.3033 16.1989 12.1736 15.3285 12.1736 14.2563Z" fill="#73C3FF"/>
        <path d="M12.1736 14.2563V4.02569H8.28857V14.2563C8.28857 15.3285 9.15888 16.1989 10.2311 16.1989C11.3033 16.1989 12.1736 15.3285 12.1736 14.2563Z" fill="#73C3FF"/>
        <path d="M18.5186 41.0872H1.94251C0.870305 41.0872 0 40.2169 0 39.1446V5.99239C0 4.9189 0.870305 4.04988 1.94251 4.02532H14.3746C16.7561 4.04988 18.8216 5.42391 19.8202 7.42084C20.2307 8.23802 20.4612 9.16132 20.4612 10.1365V39.1446C20.4612 40.217 19.5909 41.0872 18.5186 41.0872Z" fill="#FF0000"/>
        <path d="M12.1736 14.3855V4.02532H8.28857V14.3855C8.28857 15.4577 9.15888 16.328 10.2311 16.328C11.3033 16.328 12.1736 15.4577 12.1736 14.3855Z" fill="#990000"/>


</svg>
