<svg width="128" height="128" viewBox="0 0 128 128" fill="none" xmlns="http://www.w3.org/2000/svg">
<path d="M125.912 51.6752V121.756C125.925 123.504 125.185 125.173 123.882 126.339L123.698 126.523C122.575 127.481 121.145 128.005 119.668 128H8.33358C6.86725 127.999 5.44912 127.476 4.33427 126.523C4.25825 126.478 4.19495 126.415 4.15019 126.339C2.83748 125.177 2.08656 123.508 2.08815 121.756V51.6752C2.07358 50.1173 2.66981 48.6154 3.74917 47.4918C4.18912 46.9724 4.71781 46.5349 5.31006 46.1993C6.2342 45.6936 7.27092 45.429 8.32431 45.4298H119.666C121.414 45.4613 123.076 46.1924 124.281 47.459C125.328 48.6141 125.909 50.1165 125.912 51.6752Z" fill="#FFD54F"/>
<path d="M124.287 47.453C123.848 47.9947 64.0325 95.5642 64.0325 95.5642L3.74561 47.506L3.77209 47.4811V47.4546L60.6188 1.2102C62.6027 -0.403401 65.4469 -0.403401 67.4311 1.2102L124.287 47.453Z" fill="#F7C33A"/>
<path d="M111.569 15.2078V57.6947L64.0266 95.5643L16.457 57.6433V15.2078H111.569Z" fill="#EEEFEE"/>
<path d="M123.875 126.335C123.821 126.402 123.76 126.463 123.694 126.517L70.1392 90.7919L75.0406 86.8442L123.875 126.335Z" fill="#F7C33A"/>
<path d="M57.8854 90.7656L4.33108 126.512C4.25241 126.473 4.18857 126.41 4.1499 126.331L52.9588 86.7925L57.8854 90.7656Z" fill="#F7C33A"/>
<path d="M26.9934 26.3593H101.004V29.5703H26.9934V26.3593Z" fill="#DBD8DD"/>
<path d="M26.9934 38.7443H101.004V41.9553H26.9934V38.7443Z" fill="#DBD8DD"/>
<path d="M26.9934 51.1305H101.004V54.3415H26.9934V51.1305Z" fill="#DBD8DD"/>
<path d="M39.4238 63.5156H88.5763V66.7267H39.4238V63.5156Z" fill="#DBD8DD"/>
</svg>
