<svg width="64" height="64" viewBox="0 0 64 64" fill="none" xmlns="http://www.w3.org/2000/svg">

<path d="M56.9766 63.9575H7.02246C5.71387 63.9575 4.65332 62.897 4.65332 61.5884V23.3896H59.3462V61.5884C59.3462 62.897 58.2852 63.9575 56.9766 63.9575Z" fill="#FFD54F"/>
<path opacity="0.5" d="M4.65332 23.3896H59.3462V31.3384H4.65332V23.3896Z" fill="#EFB025"/>
<path d="M64 15.103V24.9507C64 26.0024 63.1465 26.8545 62.0947 26.8545H1.90381C0.852051 26.8545 0 26.0024 0 24.9507V15.103C0 14.0513 0.852051 13.1992 1.90381 13.1992H62.0947C63.1465 13.1992 64 14.0513 64 15.103Z" fill="#FFD54F"/>
<path opacity="0.5" d="M29.8242 17.7266C29.4087 18.2104 29.001 18.7012 28.603 19.1973C27.1201 21.0425 25.7627 22.9761 24.5356 24.9829C24.1582 25.6001 23.7939 26.2236 23.4404 26.8545H10.4604C11.2187 25.1338 12.0503 23.4448 12.9512 21.7939C14.585 18.7988 16.4492 15.9248 18.5322 13.1992C19.0298 12.5483 19.5391 11.9053 20.061 11.272C20.3735 10.8901 20.6914 10.5137 21.0137 10.1387C22.1982 11.1592 23.3818 12.1787 24.5669 13.1992C24.7505 13.3564 24.9341 13.5156 25.1172 13.6733C26.5156 14.8774 27.9141 16.0811 29.312 17.2866C29.4834 17.4321 29.6533 17.5801 29.8242 17.7266Z" fill="#EFB025"/>
<path d="M49.1909 26.8545H36.21C35.8579 26.2236 35.4922 25.6001 35.1147 24.9829C33.8877 22.9761 32.5288 21.0425 31.0474 19.1973C30.6479 18.7012 30.2402 18.2104 29.8242 17.7266C29.9956 17.5801 30.1655 17.4331 30.3369 17.2866C31.7363 16.0811 33.1348 14.876 34.5327 13.6733C34.7163 13.5156 34.8999 13.3564 35.0835 13.1992C36.2681 12.1787 37.4531 11.1592 38.6367 10.1387C38.959 10.5127 39.2769 10.8901 39.5894 11.271C40.1123 11.9053 40.6221 12.5483 41.1182 13.1992C43.2012 15.9248 45.0654 18.7988 46.7002 21.7939C47.6011 23.4448 48.4326 25.1338 49.1909 26.8545Z" fill="#EFB025"/>
<path d="M31.999 17.7275C31.583 18.2109 31.1753 18.7017 30.7773 19.1978C29.2949 21.043 27.937 22.9766 26.71 24.9839C22.8145 31.3516 20.2271 38.4648 19.1357 45.9102C17.4956 43.7349 15.9819 41.3813 14.6201 38.8647C12.2246 40.4272 9.8833 42.2144 7.62891 44.2251C8.78662 36.3276 11.3374 28.7368 15.126 21.7944C17.1494 18.0845 19.5273 14.5596 22.2354 11.2725C22.5479 10.8906 22.8657 10.5146 23.188 10.1392C24.5562 11.3174 25.9233 12.4956 27.292 13.6738C28.6899 14.8779 30.0884 16.0815 31.4868 17.2871C31.6577 17.4326 31.8276 17.5806 31.999 17.7275Z" fill="#FF4440"/>
<path d="M56.3701 44.2251C54.1157 42.2144 51.7744 40.4272 49.3789 38.8647C48.0171 41.3813 46.5034 43.7349 44.8633 45.9102C43.772 38.4648 41.1851 31.3516 37.2891 24.9839C36.062 22.9766 34.7031 21.043 33.2217 19.1978C32.8223 18.7017 32.4146 18.2109 31.999 17.7275C32.1699 17.5806 32.3398 17.4336 32.5112 17.2871C33.9106 16.0815 35.3091 14.8765 36.7075 13.6738C38.0757 12.4941 39.4443 11.3174 40.811 10.1392C41.1333 10.5132 41.4512 10.8906 41.7637 11.2715C44.4722 14.5586 46.8501 18.0835 48.8745 21.7944C52.6621 28.7368 55.2124 36.3276 56.3701 44.2251Z" fill="#FF4440"/>
<path d="M26.9043 17.7275H37.0952V26.8545H26.9043V17.7275Z" fill="#FF4440"/>
<path d="M48.8745 21.7944L37.2891 24.9839C36.062 22.9766 34.7031 21.043 33.2217 19.1978L32.5112 17.2871L31.999 15.9092L36.7075 13.6738L41.7637 11.2715C44.4722 14.5586 46.8501 18.0835 48.8745 21.7944Z" fill="#EA2F2F"/>
<path d="M31.999 15.9092L31.4868 17.2871L30.7773 19.1978C29.2949 21.043 27.937 22.9766 26.71 24.9839L15.126 21.7944C17.1494 18.0845 19.5273 14.5596 22.2354 11.2725L27.292 13.6738L31.999 15.9092Z" fill="#EA2F2F"/>
<path d="M50.4893 0.442894L31.9995 9.22366L35.5513 18.7759L55.2866 13.3438C57.8677 12.6333 59.2857 9.8633 58.3525 7.35403L56.7236 2.97414C55.791 0.464866 52.9077 -0.705544 50.4893 0.442894Z" fill="#FF4440"/>
<path d="M13.51 0.442894L31.9997 9.22366L28.448 18.7759L8.71311 13.3438C6.13205 12.6333 4.71408 9.8633 5.64719 7.35403L7.27561 2.97414C8.20871 0.464866 11.0915 -0.705544 13.51 0.442894Z" fill="#FF4440"/>
<path d="M36.4147 13.0623C36.0788 13.0623 35.7492 12.8963 35.5553 12.5921C35.2521 12.118 35.3903 11.4881 35.8644 11.1849C36.0045 11.0955 39.3346 8.97637 43.1579 7.42998C48.6696 5.20049 52.3502 5.32012 54.0963 7.78545C54.422 8.24492 54.3131 8.88116 53.8537 9.20635C53.3942 9.53155 52.7584 9.42315 52.4332 8.96367C50.0661 5.62188 40.2238 10.8182 36.9625 12.9022C36.7926 13.0105 36.6027 13.0623 36.4147 13.0623Z" fill="#EA2F2F"/>
<path d="M27.4837 13.0623C27.2957 13.0623 27.1057 13.0105 26.9358 12.9022C23.6746 10.8182 13.8323 5.62188 11.4651 8.96367C11.1394 9.42315 10.5037 9.53155 10.0442 9.20635C9.58523 8.88067 9.47634 8.24492 9.80202 7.78545C11.5481 5.32012 15.2283 5.20049 20.7405 7.42998C24.5637 8.97588 27.8938 11.0955 28.034 11.1849C28.5081 11.4881 28.6463 12.118 28.3435 12.5921C28.1487 12.8963 27.8196 13.0623 27.4837 13.0623Z" fill="#EA2F2F"/>
<path d="M34.8989 5.94043H29.1001C27.5132 5.94043 26.2266 7.22705 26.2266 8.81445V17.2388C26.2266 18.8262 27.5132 20.1128 29.1001 20.1128H34.8989C36.4858 20.1128 37.7725 18.8262 37.7725 17.2388V8.81445C37.7725 7.22705 36.4858 5.94043 34.8989 5.94043Z" fill="#EA2F2F"/>
<path d="M26.9043 26.8545H37.0952V63.9575H26.9043V26.8545Z" fill="#FF4440"/>
<path d="M26.9043 26.8545H37.0952V31.3384H26.9043V26.8545Z" fill="#EA2F2F"/>

</svg>
