<svg width="64" height="64" viewBox="0 0 64 64" fill="none" xmlns="http://www.w3.org/2000/svg">
<path d="M43.4086 26.87H26.6072C25.7316 26.87 24.9643 26.2843 24.7335 25.4397C24.5026 24.5951 24.8653 23.7005 25.619 23.255C32.9394 18.9294 36.7418 13.8836 37.2433 7.82937C37.4182 5.72825 39.2897 4.04994 41.414 4.07773C43.5817 4.11237 45.6125 4.98126 47.1335 6.52462C48.6557 8.0694 49.4946 10.1151 49.4954 12.2846C49.4954 12.2848 49.4954 12.2851 49.4954 12.2853V12.938C49.4954 18.2376 47.9256 21.6167 45.0293 25.9984C44.6693 26.5427 44.0609 26.87 43.4086 26.87Z" fill="#FFC380"/>
<path d="M63.9997 29.0717C63.9997 25.7156 61.2694 22.9851 57.9132 22.9851H26.6076C26.2598 22.9851 25.9183 23.0784 25.619 23.2555C23.4215 24.5548 21.2026 25.6245 19.4198 26.4842C18.7979 26.7839 18.2105 27.0671 17.6763 27.3342C17.0182 27.6633 16.6025 28.3358 16.6025 29.0717V53.9359C16.6025 54.6718 17.0182 55.3443 17.6763 55.6734C25.5253 59.5974 32.0498 60.0719 39.6582 60.0719C40.8364 60.0719 42.0414 60.0605 43.2804 60.0489C44.6509 60.036 46.0677 60.0225 47.5531 60.0225H53.6941C57.0502 60.0225 59.7807 57.2922 59.7807 53.9359C59.7807 52.8075 59.4722 51.7499 58.9347 50.8429C60.6835 49.7724 61.8527 47.8442 61.8527 45.6478C61.8527 44.5194 61.5442 43.4618 61.0067 42.5548C62.7555 41.4842 63.9248 39.5561 63.9248 37.3597C63.9248 35.7812 63.3207 34.3411 62.3318 33.2585C63.4088 32.1235 63.9997 30.6431 63.9997 29.0717Z" fill="#FFCF99"/>
<path d="M12.1736 49.817V60.0477H8.28857V49.817C8.28857 48.7448 9.15888 47.8745 10.2311 47.8745C11.3033 47.8745 12.1736 48.7448 12.1736 49.817Z" fill="#73C3FF"/>
<path d="M12.1736 49.817V60.0477H8.28857V49.817C8.28857 48.7448 9.15888 47.8745 10.2311 47.8745C11.3033 47.8745 12.1736 48.7448 12.1736 49.817Z" fill="#73C3FF"/>
<path d="M18.5186 22.9851H1.94251C0.870305 22.9851 0 23.8554 0 24.9276V58.0799C0 59.1534 0.870305 60.0224 1.94251 60.0469H14.3746C16.7561 60.0224 18.8216 58.6484 19.8202 56.6514C20.2307 55.8342 20.4612 54.9109 20.4612 53.9358V24.9276C20.4612 23.8553 19.5909 22.9851 18.5186 22.9851Z" fill="#87F345"/>
<path d="M12.1736 49.6869V60.0471H8.28857V49.6869C8.28857 48.6147 9.15888 47.7444 10.2311 47.7444C11.3033 47.7444 12.1736 48.6147 12.1736 49.6869Z" fill="#87F345"/>
<path d="M12.1736 49.6869V60.0471H8.28857V49.6869C8.28857 48.6147 9.15888 47.7444 10.2311 47.7444C11.3033 47.7444 12.1736 48.6147 12.1736 49.6869Z" fill="black" fill-opacity="0.4"/>
</svg>
