<svg width="224" height="76" viewBox="0 0 224 76" fill="none" xmlns="http://www.w3.org/2000/svg">
<path d="M0 38C0 17.0132 17.0132 0 38 0H186C206.987 0 224 17.0132 224 38C224 58.9868 206.987 76 186 76H38C17.0132 76 0 58.9868 0 38Z" fill="white"/>
<path d="M36.3421 45.8128H46.5614V49.6791H31.5293V26.3209H36.3421V45.8128Z" fill="#B3B8CB"/>
<path d="M67.4972 38.5294C67.4972 40.8289 67.0908 42.8449 66.278 44.5775C65.4651 46.3102 64.2993 47.6471 62.7806 48.5882C61.2726 49.5294 59.54 50 57.5828 50C55.6469 50 53.9197 49.5348 52.401 48.6043C50.8822 47.6738 49.7058 46.3476 48.8715 44.6257C48.0373 42.893 47.6149 40.9037 47.6042 38.6578V37.5027C47.6042 35.2032 48.0159 33.1818 48.8395 31.4385C49.6737 29.6845 50.8448 28.3422 52.3528 27.4118C53.8715 26.4706 55.6042 26 57.5507 26C59.4972 26 61.2245 26.4706 62.7325 27.4118C64.2512 28.3422 65.4223 29.6845 66.2459 31.4385C67.0801 33.1818 67.4972 35.1979 67.4972 37.4866V38.5294ZM62.6202 37.4706C62.6202 35.0214 62.1817 33.1604 61.3047 31.8877C60.4277 30.615 59.1764 29.9786 57.5507 29.9786C55.9357 29.9786 54.6897 30.6096 53.8127 31.8717C52.9357 33.123 52.4919 34.9626 52.4812 37.3904V38.5294C52.4812 40.9144 52.9197 42.7647 53.7967 44.0802C54.6737 45.3957 55.9357 46.0535 57.5828 46.0535C59.1977 46.0535 60.4384 45.4225 61.3047 44.1604C62.171 42.8877 62.6095 41.0374 62.6202 38.6096V37.4706Z" fill="#B3B8CB"/>
<path d="M89.4758 46.7273C88.6095 47.7647 87.3849 48.5722 85.802 49.1497C84.2191 49.7166 82.4651 50 80.54 50C78.5186 50 76.7432 49.5615 75.2138 48.6845C73.6951 47.7968 72.5186 46.5134 71.6844 44.8342C70.8608 43.1551 70.4384 41.1818 70.417 38.9144V37.3262C70.417 34.9947 70.8074 32.9786 71.5881 31.2781C72.3796 29.5668 73.5132 28.262 74.9892 27.3636C76.4758 26.4545 78.2138 26 80.2031 26C82.9731 26 85.1389 26.6631 86.7004 27.9893C88.2619 29.3048 89.187 31.2246 89.4758 33.7487H84.7913C84.5774 32.4118 84.1015 31.4332 83.3635 30.8128C82.6362 30.1925 81.6309 29.8824 80.3475 29.8824C78.7111 29.8824 77.4651 30.4973 76.6095 31.7273C75.7539 32.9572 75.3207 34.7861 75.31 37.2139V38.7059C75.31 41.1551 75.7753 43.0053 76.7058 44.2567C77.6362 45.508 78.9999 46.1337 80.7967 46.1337C82.6042 46.1337 83.8929 45.7487 84.663 44.9786V40.9519H80.2833V37.4064H89.4758V46.7273Z" fill="#B3B8CB"/>
<path d="M112.577 38.5294C112.577 40.8289 112.171 42.8449 111.358 44.5775C110.545 46.3102 109.38 47.6471 107.861 48.5882C106.353 49.5294 104.62 50 102.663 50C100.727 50 98.9999 49.5348 97.4812 48.6043C95.9624 47.6738 94.786 46.3476 93.9517 44.6257C93.1175 42.893 92.6951 40.9037 92.6844 38.6578V37.5027C92.6844 35.2032 93.0961 33.1818 93.9197 31.4385C94.7539 29.6845 95.925 28.3422 97.433 27.4118C98.9518 26.4706 100.684 26 102.631 26C104.577 26 106.305 26.4706 107.813 27.4118C109.331 28.3422 110.503 29.6845 111.326 31.4385C112.16 33.1818 112.577 35.1979 112.577 37.4866V38.5294ZM107.7 37.4706C107.7 35.0214 107.262 33.1604 106.385 31.8877C105.508 30.615 104.257 29.9786 102.631 29.9786C101.016 29.9786 99.7699 30.6096 98.8929 31.8717C98.0159 33.123 97.5721 34.9626 97.5614 37.3904V38.5294C97.5614 40.9144 97.9999 42.7647 98.8769 44.0802C99.7539 45.3957 101.016 46.0535 102.663 46.0535C104.278 46.0535 105.519 45.4225 106.385 44.1604C107.251 42.8877 107.69 41.0374 107.7 38.6096V37.4706Z" fill="#B3B8CB"/>
<path d="M132.278 30.2193H125.123V49.6791H120.31V30.2193H113.251V26.3209H132.278V30.2193Z" fill="#B3B8CB"/>
<path d="M143.347 36.8449L148.208 26.3209H153.47L145.802 41.2086V49.6791H140.909V41.2086L133.241 26.3209H138.519L143.347 36.8449Z" fill="#B3B8CB"/>
<path d="M160.417 41.4492V49.6791H155.604V26.3209H164.716C166.47 26.3209 168.011 26.6417 169.337 27.2834C170.674 27.9251 171.7 28.8396 172.417 30.0267C173.134 31.2032 173.492 32.5455 173.492 34.0535C173.492 36.3422 172.706 38.1497 171.134 39.4759C169.572 40.7914 167.406 41.4492 164.636 41.4492H160.417ZM160.417 37.5508H164.716C165.989 37.5508 166.957 37.2513 167.62 36.6524C168.294 36.0535 168.631 35.1979 168.631 34.0856C168.631 32.9412 168.294 32.016 167.62 31.3102C166.946 30.6043 166.016 30.2406 164.829 30.2193H160.417V37.5508Z" fill="#B3B8CB"/>
<path d="M190.866 39.5562H181.626V45.8128H192.47V49.6791H176.813V26.3209H192.438V30.2193H181.626V35.7861H190.866V39.5562Z" fill="#B3B8CB"/>
<path d="M38 74C35.5932 74 33.2434 73.7641 30.972 73.3147L30.1957 77.2387C32.7214 77.7383 35.3311 78 38 78V74ZM17.9992 67.9375C14.0725 65.3087 10.6913 61.9275 8.06245 58.0008L4.73858 60.226C7.65832 64.5872 11.4128 68.3417 15.774 71.2614L17.9992 67.9375ZM2.68527 45.028C2.23591 42.7566 2 40.4068 2 38H-2C-2 40.6689 -1.73834 43.2786 -1.23868 45.8043L2.68527 45.028ZM2 38C2 35.5932 2.23591 33.2434 2.68527 30.972L-1.23868 30.1957C-1.73834 32.7214 -2 35.3311 -2 38H2ZM8.06245 17.9992C10.6913 14.0725 14.0725 10.6913 17.9992 8.06245L15.774 4.73858C11.4128 7.65832 7.65833 11.4128 4.73858 15.774L8.06245 17.9992ZM30.972 2.68527C33.2434 2.23591 35.5932 2 38 2V-2C35.3311 -2 32.7214 -1.73834 30.1957 -1.23868L30.972 2.68527ZM38 2H44.1667V-2H38V2ZM56.5 2H68.8333V-2H56.5V2ZM81.1667 2H93.5V-2H81.1667V2ZM105.833 2H118.167V-2H105.833V2ZM130.5 2H142.833V-2H130.5V2ZM155.167 2H167.5V-2H155.167V2ZM179.833 2H186V-2H179.833V2ZM186 2C188.407 2 190.757 2.23591 193.028 2.68527L193.804 -1.23868C191.279 -1.73834 188.669 -2 186 -2V2ZM206.001 8.06245C209.927 10.6913 213.309 14.0725 215.938 17.9992L219.261 15.774C216.342 11.4128 212.587 7.65833 208.226 4.73858L206.001 8.06245ZM221.315 30.972C221.764 33.2434 222 35.5932 222 38H226C226 35.3311 225.738 32.7214 225.239 30.1957L221.315 30.972ZM222 38C222 40.4068 221.764 42.7566 221.315 45.028L225.239 45.8043C225.738 43.2786 226 40.6689 226 38H222ZM215.938 58.0008C213.309 61.9275 209.927 65.3087 206.001 67.9376L208.226 71.2614C212.587 68.3417 216.342 64.5872 219.261 60.226L215.938 58.0008ZM193.028 73.3147C190.757 73.7641 188.407 74 186 74V78C188.669 78 191.279 77.7383 193.804 77.2387L193.028 73.3147ZM186 74H179.833V78H186V74ZM167.5 74H155.167V78H167.5V74ZM142.833 74H130.5V78H142.833V74ZM118.167 74H105.833V78H118.167V74ZM93.5 74H81.1667V78H93.5V74ZM68.8333 74H56.5V78H68.8333V74ZM44.1667 74H38V78H44.1667V74ZM38 72C35.7242 72 33.5044 71.777 31.3601 71.3528L29.8076 79.2007C32.4604 79.7255 35.2001 80 38 80V72ZM19.1119 66.2756C15.4024 63.7922 12.2078 60.5976 9.72439 56.8881L3.07664 61.3387C6.14183 65.9171 10.0829 69.8582 14.6613 72.9234L19.1119 66.2756ZM4.64725 44.6399C4.22304 42.4956 4 40.2758 4 38H-4C-4 40.7999 -3.72547 43.5396 -3.20066 46.1924L4.64725 44.6399ZM4 38C4 35.7242 4.22304 33.5044 4.64725 31.3601L-3.20066 29.8076C-3.72547 32.4604 -4 35.2001 -4 38H4ZM9.72439 19.1119C12.2078 15.4024 15.4024 12.2078 19.1119 9.72439L14.6613 3.07664C10.0829 6.14182 6.14183 10.0829 3.07664 14.6613L9.72439 19.1119ZM31.3601 4.64725C33.5044 4.22304 35.7242 4 38 4V-4C35.2001 -4 32.4604 -3.72547 29.8076 -3.20066L31.3601 4.64725ZM38 4H44.1667V-4H38V4ZM56.5 4H68.8333V-4H56.5V4ZM81.1667 4H93.5V-4H81.1667V4ZM105.833 4H118.167V-4H105.833V4ZM130.5 4H142.833V-4H130.5V4ZM155.167 4H167.5V-4H155.167V4ZM179.833 4H186V-4H179.833V4ZM186 4C188.276 4 190.496 4.22304 192.64 4.64725L194.192 -3.20066C191.54 -3.72547 188.8 -4 186 -4V4ZM204.888 9.72439C208.598 12.2078 211.792 15.4024 214.276 19.1119L220.923 14.6613C217.858 10.0829 213.917 6.14183 209.339 3.07664L204.888 9.72439ZM219.353 31.3601C219.777 33.5044 220 35.7242 220 38H228C228 35.2001 227.725 32.4604 227.201 29.8076L219.353 31.3601ZM220 38C220 40.2758 219.777 42.4956 219.353 44.6399L227.201 46.1924C227.725 43.5396 228 40.7999 228 38H220ZM214.276 56.8881C211.792 60.5976 208.598 63.7922 204.888 66.2756L209.339 72.9234C213.917 69.8582 217.858 65.9171 220.923 61.3387L214.276 56.8881ZM192.64 71.3528C190.496 71.777 188.276 72 186 72V80C188.8 80 191.54 79.7255 194.192 79.2007L192.64 71.3528ZM186 72H179.833V80H186V72ZM167.5 72H155.167V80H167.5V72ZM142.833 72H130.5V80H142.833V72ZM118.167 72H105.833V80H118.167V72ZM93.5 72H81.1667V80H93.5V72ZM68.8333 72H56.5V80H68.8333V72ZM44.1667 72H38V80H44.1667V72Z" fill="#B3B8CB"/>
</svg>
