<svg width="224" height="50" viewBox="0 0 224 50" fill="none" xmlns="http://www.w3.org/2000/svg">

<path d="M24.9998 50L198.642 50C212.449 50 223.642 38.8071 223.642 25C223.642 11.1929 212.449 -3.8147e-06 198.642 -3.8147e-06L24.9998 -3.8147e-06C11.1926 -3.8147e-06 -0.000259399 11.1929 -0.000259399 25C-0.000259399 38.8071 11.1926 50 24.9998 50Z" fill="white"/>
<path d="M102.062 21.1098H105.008V23.6697H102.152V32.3216H98.7981V23.6697H97.0264V21.1098H98.7981V20.6012C98.7684 20.0304 98.8563 19.4595 99.0563 18.924C99.2563 18.3885 99.5641 17.8998 99.9606 17.4881C100.4 17.0858 100.916 16.7765 101.478 16.5786C102.04 16.3808 102.636 16.2985 103.23 16.3368C103.706 16.3335 104.181 16.386 104.644 16.4933C105.041 16.5805 105.419 16.7355 105.762 16.9516L104.885 19.3605C104.491 19.0879 104.022 18.947 103.543 18.958C102.532 18.958 102.029 19.517 102.029 20.6348L102.062 21.1098Z" fill="#4D5265"/>
<path d="M102.062 21.1098H105.008V23.6697H102.152V32.3216H98.7981V23.6697H97.0264V21.1098H98.7981V20.6012C98.7684 20.0304 98.8563 19.4595 99.0563 18.924C99.2563 18.3885 99.5641 17.8998 99.9606 17.4881C100.4 17.0858 100.916 16.7765 101.478 16.5786C102.04 16.3808 102.636 16.2985 103.23 16.3368C103.706 16.3335 104.181 16.386 104.644 16.4933C105.041 16.5805 105.419 16.7355 105.762 16.9516L104.885 19.3605C104.491 19.0879 104.022 18.947 103.543 18.958C102.532 18.958 102.029 19.517 102.029 20.6348L102.062 21.1098Z" fill="black" fill-opacity="0.5"/>
<path d="M117.689 27.5264H109.015C109.155 28.2093 109.556 28.8107 110.133 29.2031C110.774 29.6341 111.535 29.8513 112.307 29.8235C112.848 29.833 113.386 29.742 113.894 29.5552C114.376 29.3623 114.815 29.0755 115.185 28.7113L116.951 30.6339C115.874 31.8709 114.298 32.4876 112.223 32.4839C111.035 32.5085 109.859 32.2498 108.791 31.7294C107.832 31.2662 107.028 30.5341 106.477 29.6223C105.929 28.7023 105.648 27.6473 105.667 26.5762C105.65 25.5104 105.926 24.4604 106.466 23.5413C106.987 22.646 107.748 21.9141 108.663 21.4287C109.613 20.942 110.665 20.6855 111.733 20.6797C112.801 20.6738 113.855 20.9189 114.811 21.3951C115.715 21.8679 116.466 22.5893 116.974 23.4743C117.507 24.4357 117.775 25.5217 117.751 26.6209C117.751 26.6712 117.728 26.973 117.689 27.5264ZM109.909 23.8376C109.392 24.2834 109.062 24.9083 108.987 25.587H114.632C114.546 24.9122 114.213 24.2931 113.698 23.8487C113.158 23.4322 112.495 23.2064 111.812 23.2064C111.13 23.2064 110.466 23.4322 109.926 23.8487L109.909 23.8376Z" fill="#4D5265"/>
<path d="M117.689 27.5264H109.015C109.155 28.2093 109.556 28.8107 110.133 29.2031C110.774 29.6341 111.535 29.8513 112.307 29.8235C112.848 29.833 113.386 29.742 113.894 29.5552C114.376 29.3623 114.815 29.0755 115.185 28.7113L116.951 30.6339C115.874 31.8709 114.298 32.4876 112.223 32.4839C111.035 32.5085 109.859 32.2498 108.791 31.7294C107.832 31.2662 107.028 30.5341 106.477 29.6223C105.929 28.7023 105.648 27.6473 105.667 26.5762C105.65 25.5104 105.926 24.4604 106.466 23.5413C106.987 22.646 107.748 21.9141 108.663 21.4287C109.613 20.942 110.665 20.6855 111.733 20.6797C112.801 20.6738 113.855 20.9189 114.811 21.3951C115.715 21.8679 116.466 22.5893 116.974 23.4743C117.507 24.4357 117.775 25.5217 117.751 26.6209C117.751 26.6712 117.728 26.973 117.689 27.5264ZM109.909 23.8376C109.392 24.2834 109.062 24.9083 108.987 25.587H114.632C114.546 24.9122 114.213 24.2931 113.698 23.8487C113.158 23.4322 112.495 23.2064 111.812 23.2064C111.13 23.2064 110.466 23.4322 109.926 23.8487L109.909 23.8376Z" fill="black" fill-opacity="0.5"/>
<path d="M131.136 27.5264H122.462C122.605 28.2082 123.006 28.8086 123.58 29.2031C124.22 29.6361 124.981 29.8552 125.754 29.8291C126.295 29.8391 126.834 29.7481 127.341 29.5608C127.825 29.3703 128.264 29.0831 128.632 28.7168L130.399 30.6395C129.322 31.8765 127.746 32.4932 125.67 32.4895C124.483 32.5134 123.306 32.2548 122.239 31.735C121.28 31.2686 120.476 30.5349 119.925 29.6223C119.376 28.7023 119.095 27.6473 119.114 26.5762C119.1 25.5108 119.376 24.4615 119.913 23.5413C120.434 22.646 121.195 21.9141 122.11 21.4287C123.061 20.942 124.112 20.6855 125.18 20.6797C126.248 20.6738 127.302 20.9189 128.258 21.3951C129.163 21.8664 129.914 22.5881 130.421 23.4743C130.954 24.4357 131.223 25.5217 131.198 26.6209C131.198 26.6712 131.181 26.973 131.136 27.5264ZM123.356 23.8376C122.829 24.2796 122.488 24.9043 122.401 25.587H128.051C127.96 24.9126 127.626 24.2945 127.112 23.8487C126.587 23.4099 125.919 23.1792 125.234 23.2004C124.552 23.1827 123.887 23.4086 123.356 23.8376Z" fill="#4D5265"/>
<path d="M131.136 27.5264H122.462C122.605 28.2082 123.006 28.8086 123.58 29.2031C124.22 29.6361 124.981 29.8552 125.754 29.8291C126.295 29.8391 126.834 29.7481 127.341 29.5608C127.825 29.3703 128.264 29.0831 128.632 28.7168L130.399 30.6395C129.322 31.8765 127.746 32.4932 125.67 32.4895C124.483 32.5134 123.306 32.2548 122.239 31.735C121.28 31.2686 120.476 30.5349 119.925 29.6223C119.376 28.7023 119.095 27.6473 119.114 26.5762C119.1 25.5108 119.376 24.4615 119.913 23.5413C120.434 22.646 121.195 21.9141 122.11 21.4287C123.061 20.942 124.112 20.6855 125.18 20.6797C126.248 20.6738 127.302 20.9189 128.258 21.3951C129.163 21.8664 129.914 22.5881 130.421 23.4743C130.954 24.4357 131.223 25.5217 131.198 26.6209C131.198 26.6712 131.181 26.973 131.136 27.5264ZM123.356 23.8376C122.829 24.2796 122.488 24.9043 122.401 25.587H128.051C127.96 24.9126 127.626 24.2945 127.112 23.8487C126.587 23.4099 125.919 23.1792 125.234 23.2004C124.552 23.1827 123.887 23.4086 123.356 23.8376Z" fill="black" fill-opacity="0.5"/>
<path d="M145.099 16.5046V32.3218H141.924V31.0027C141.48 31.5072 140.926 31.9035 140.305 32.1611C139.684 32.4188 139.013 32.5311 138.342 32.4894C137.32 32.5038 136.311 32.2555 135.413 31.7684C134.543 31.2913 133.829 30.5733 133.356 29.7005C132.864 28.7365 132.607 27.6696 132.607 26.5873C132.607 25.5051 132.864 24.4382 133.356 23.4742C133.829 22.6014 134.543 21.8834 135.413 21.4063C136.311 20.9172 137.319 20.6671 138.342 20.6797C138.98 20.6444 139.619 20.7504 140.212 20.9899C140.805 21.2295 141.338 21.5968 141.773 22.0658V16.4767L145.099 16.5046ZM141.002 28.9012C141.288 28.5903 141.509 28.2255 141.652 27.8282C141.795 27.4309 141.857 27.009 141.835 26.5873C141.857 26.1657 141.795 25.7438 141.652 25.3465C141.509 24.9492 141.288 24.5844 141.002 24.2735C140.733 23.993 140.409 23.7716 140.05 23.6234C139.691 23.4753 139.305 23.4035 138.917 23.4127C138.524 23.3996 138.133 23.4694 137.769 23.6177C137.405 23.766 137.076 23.9895 136.805 24.2735C136.521 24.5855 136.302 24.9506 136.16 25.3478C136.018 25.7449 135.956 26.1662 135.977 26.5873C135.956 27.0085 136.018 27.4298 136.16 27.8269C136.302 28.2241 136.521 28.5892 136.805 28.9012C137.076 29.1852 137.405 29.4087 137.769 29.557C138.133 29.7053 138.524 29.7751 138.917 29.762C139.305 29.7712 139.691 29.6994 140.05 29.5513C140.409 29.4031 140.733 29.1817 141.002 28.9012Z" fill="#4D5265"/>
<path d="M145.099 16.5046V32.3218H141.924V31.0027C141.48 31.5072 140.926 31.9035 140.305 32.1611C139.684 32.4188 139.013 32.5311 138.342 32.4894C137.32 32.5038 136.311 32.2555 135.413 31.7684C134.543 31.2913 133.829 30.5733 133.356 29.7005C132.864 28.7365 132.607 27.6696 132.607 26.5873C132.607 25.5051 132.864 24.4382 133.356 23.4742C133.829 22.6014 134.543 21.8834 135.413 21.4063C136.311 20.9172 137.319 20.6671 138.342 20.6797C138.98 20.6444 139.619 20.7504 140.212 20.9899C140.805 21.2295 141.338 21.5968 141.773 22.0658V16.4767L145.099 16.5046ZM141.002 28.9012C141.288 28.5903 141.509 28.2255 141.652 27.8282C141.795 27.4309 141.857 27.009 141.835 26.5873C141.857 26.1657 141.795 25.7438 141.652 25.3465C141.509 24.9492 141.288 24.5844 141.002 24.2735C140.733 23.993 140.409 23.7716 140.05 23.6234C139.691 23.4753 139.305 23.4035 138.917 23.4127C138.524 23.3996 138.133 23.4694 137.769 23.6177C137.405 23.766 137.076 23.9895 136.805 24.2735C136.521 24.5855 136.302 24.9506 136.16 25.3478C136.018 25.7449 135.956 26.1662 135.977 26.5873C135.956 27.0085 136.018 27.4298 136.16 27.8269C136.302 28.2241 136.521 28.5892 136.805 28.9012C137.076 29.1852 137.405 29.4087 137.769 29.557C138.133 29.7053 138.524 29.7751 138.917 29.762C139.305 29.7712 139.691 29.6994 140.05 29.5513C140.409 29.4031 140.733 29.1817 141.002 28.9012Z" fill="black" fill-opacity="0.5"/>
<path d="M157.853 21.4174C158.718 21.901 159.431 22.6174 159.91 23.4854C160.422 24.4376 160.678 25.5064 160.653 26.5874C160.678 27.6683 160.422 28.7371 159.91 29.6893C159.431 30.5573 158.718 31.2737 157.853 31.7573C156.963 32.2516 155.959 32.5041 154.941 32.4894C154.267 32.5333 153.592 32.4221 152.969 32.1643C152.345 31.9066 151.788 31.5092 151.342 31.0027V32.3218H148.167V16.5046H151.492V22.0937C151.929 21.6206 152.464 21.2488 153.06 21.0045C153.656 20.7602 154.298 20.6493 154.941 20.6797C155.959 20.6696 156.962 20.9238 157.853 21.4174ZM156.495 28.9012C157.064 28.2688 157.359 27.4369 157.316 26.5874C157.359 25.7378 157.064 24.9059 156.495 24.2735C155.935 23.7222 155.181 23.4132 154.396 23.4132C153.611 23.4132 152.857 23.7222 152.297 24.2735C151.724 24.9042 151.425 25.7362 151.465 26.5874C151.422 27.4369 151.717 28.2688 152.286 28.9012C152.846 29.4525 153.599 29.7615 154.385 29.7615C155.17 29.7615 155.924 29.4525 156.484 28.9012H156.495Z" fill="#4D5265"/>
<path d="M157.853 21.4174C158.718 21.901 159.431 22.6174 159.91 23.4854C160.422 24.4376 160.678 25.5064 160.653 26.5874C160.678 27.6683 160.422 28.7371 159.91 29.6893C159.431 30.5573 158.718 31.2737 157.853 31.7573C156.963 32.2516 155.959 32.5041 154.941 32.4894C154.267 32.5333 153.592 32.4221 152.969 32.1643C152.345 31.9066 151.788 31.5092 151.342 31.0027V32.3218H148.167V16.5046H151.492V22.0937C151.929 21.6206 152.464 21.2488 153.06 21.0045C153.656 20.7602 154.298 20.6493 154.941 20.6797C155.959 20.6696 156.962 20.9238 157.853 21.4174ZM156.495 28.9012C157.064 28.2688 157.359 27.4369 157.316 26.5874C157.359 25.7378 157.064 24.9059 156.495 24.2735C155.935 23.7222 155.181 23.4132 154.396 23.4132C153.611 23.4132 152.857 23.7222 152.297 24.2735C151.724 24.9042 151.425 25.7362 151.465 26.5874C151.422 27.4369 151.717 28.2688 152.286 28.9012C152.846 29.4525 153.599 29.7615 154.385 29.7615C155.17 29.7615 155.924 29.4525 156.484 28.9012H156.495Z" fill="black" fill-opacity="0.5"/>
<path d="M171.401 21.9538C172.351 22.7997 172.826 24.074 172.826 25.7768V32.3216H169.713V30.8908C169.087 31.9565 167.923 32.4893 166.22 32.4893C165.432 32.5101 164.65 32.3574 163.928 32.0422C163.326 31.7824 162.811 31.3533 162.447 30.807C162.103 30.2744 161.925 29.6522 161.933 29.0185C161.914 28.5325 162.014 28.0493 162.224 27.6108C162.434 27.1724 162.749 26.7922 163.14 26.5034C163.938 25.8923 165.177 25.5867 166.857 25.5867H169.501C169.522 25.2759 169.474 24.9641 169.36 24.6741C169.246 24.3841 169.069 24.1231 168.841 23.91C168.27 23.488 167.564 23.2893 166.857 23.3511C166.246 23.3511 165.639 23.4473 165.057 23.6362C164.514 23.8047 164.005 24.0677 163.554 24.413L162.363 22.0936C163.044 21.6254 163.8 21.2793 164.599 21.0708C165.476 20.8261 166.383 20.7039 167.293 20.7075C169.081 20.6795 170.468 21.1043 171.401 21.9538ZM168.562 29.8568C169.002 29.5953 169.335 29.185 169.501 28.6999V27.5262H167.22C165.857 27.5262 165.175 27.9733 165.175 28.8675C165.168 29.0646 165.211 29.2603 165.299 29.4368C165.386 29.6134 165.517 29.7654 165.678 29.8792C166.083 30.1506 166.566 30.2821 167.053 30.2536C167.583 30.2655 168.106 30.128 168.562 29.8568Z" fill="#4D5265"/>
<path d="M171.401 21.9538C172.351 22.7997 172.826 24.074 172.826 25.7768V32.3216H169.713V30.8908C169.087 31.9565 167.923 32.4893 166.22 32.4893C165.432 32.5101 164.65 32.3574 163.928 32.0422C163.326 31.7824 162.811 31.3533 162.447 30.807C162.103 30.2744 161.925 29.6522 161.933 29.0185C161.914 28.5325 162.014 28.0493 162.224 27.6108C162.434 27.1724 162.749 26.7922 163.14 26.5034C163.938 25.8923 165.177 25.5867 166.857 25.5867H169.501C169.522 25.2759 169.474 24.9641 169.36 24.6741C169.246 24.3841 169.069 24.1231 168.841 23.91C168.27 23.488 167.564 23.2893 166.857 23.3511C166.246 23.3511 165.639 23.4473 165.057 23.6362C164.514 23.8047 164.005 24.0677 163.554 24.413L162.363 22.0936C163.044 21.6254 163.8 21.2793 164.599 21.0708C165.476 20.8261 166.383 20.7039 167.293 20.7075C169.081 20.6795 170.468 21.1043 171.401 21.9538ZM168.562 29.8568C169.002 29.5953 169.335 29.185 169.501 28.6999V27.5262H167.22C165.857 27.5262 165.175 27.9733 165.175 28.8675C165.168 29.0646 165.211 29.2603 165.299 29.4368C165.386 29.6134 165.517 29.7654 165.678 29.8792C166.083 30.1506 166.566 30.2821 167.053 30.2536C167.583 30.2655 168.106 30.128 168.562 29.8568Z" fill="black" fill-opacity="0.5"/>
<path d="M178.208 31.7347C177.265 31.258 176.475 30.526 175.928 29.622C175.507 28.9427 175.232 28.1835 175.119 27.3924C175.007 26.6014 175.059 25.7955 175.273 25.0257C175.488 24.2559 175.859 23.5388 176.364 22.9197C176.869 22.3006 177.497 21.7928 178.208 21.4284C179.229 20.916 180.359 20.659 181.5 20.6795C182.602 20.6536 183.692 20.9136 184.664 21.434C185.546 21.9132 186.24 22.675 186.637 23.597L184.06 24.9831C183.824 24.5024 183.455 24.099 182.998 23.8199C182.541 23.5408 182.014 23.3976 181.478 23.407C181.08 23.3954 180.685 23.4647 180.315 23.6107C179.945 23.7568 179.609 23.9765 179.326 24.2565C179.035 24.5663 178.809 24.9321 178.663 25.3318C178.517 25.7315 178.453 26.1567 178.477 26.5816C178.453 27.0065 178.516 27.4318 178.662 27.8315C178.808 28.2312 179.034 28.597 179.326 28.9066C179.609 29.1867 179.945 29.4064 180.315 29.5524C180.685 29.6985 181.08 29.7678 181.478 29.7562C182.014 29.769 182.543 29.6272 183.001 29.3477C183.459 29.0682 183.826 28.6629 184.06 28.1801L186.637 29.622C186.228 30.5273 185.535 31.2748 184.664 31.7515C183.695 32.2807 182.604 32.5448 181.5 32.5172C180.356 32.5273 179.226 32.2588 178.208 31.7347Z" fill="#4D5265"/>
<path d="M178.208 31.7347C177.265 31.258 176.475 30.526 175.928 29.622C175.507 28.9427 175.232 28.1835 175.119 27.3924C175.007 26.6014 175.059 25.7955 175.273 25.0257C175.488 24.2559 175.859 23.5388 176.364 22.9197C176.869 22.3006 177.497 21.7928 178.208 21.4284C179.229 20.916 180.359 20.659 181.5 20.6795C182.602 20.6536 183.692 20.9136 184.664 21.434C185.546 21.9132 186.24 22.675 186.637 23.597L184.06 24.9831C183.824 24.5024 183.455 24.099 182.998 23.8199C182.541 23.5408 182.014 23.3976 181.478 23.407C181.08 23.3954 180.685 23.4647 180.315 23.6107C179.945 23.7568 179.609 23.9765 179.326 24.2565C179.035 24.5663 178.809 24.9321 178.663 25.3318C178.517 25.7315 178.453 26.1567 178.477 26.5816C178.453 27.0065 178.516 27.4318 178.662 27.8315C178.808 28.2312 179.034 28.597 179.326 28.9066C179.609 29.1867 179.945 29.4064 180.315 29.5524C180.685 29.6985 181.08 29.7678 181.478 29.7562C182.014 29.769 182.543 29.6272 183.001 29.3477C183.459 29.0682 183.826 28.6629 184.06 28.1801L186.637 29.622C186.228 30.5273 185.535 31.2748 184.664 31.7515C183.695 32.2807 182.604 32.5448 181.5 32.5172C180.356 32.5273 179.226 32.2588 178.208 31.7347Z" fill="black" fill-opacity="0.5"/>
<path d="M193.383 27.8225L191.784 29.3987V32.3218H188.431V16.5046H191.784V25.4472L196.641 20.8418H200.648L195.842 25.7099L201.045 32.3162H197.015L193.383 27.8225Z" fill="#4D5265"/>
<path d="M193.383 27.8225L191.784 29.3987V32.3218H188.431V16.5046H191.784V25.4472L196.641 20.8418H200.648L195.842 25.7099L201.045 32.3162H197.015L193.383 27.8225Z" fill="black" fill-opacity="0.5"/>
<path d="M44.26 32.7688C45.9487 31.1992 47.1251 29.1572 47.6358 26.909C48.1465 24.6609 47.9678 22.311 47.1231 20.1659C46.2783 18.0209 44.8067 16.1802 42.9002 14.884C40.9936 13.5877 38.7407 12.8962 36.4353 12.8995H28.9292C25.9261 12.9658 23.0684 14.2053 20.968 16.3525C18.8676 18.4998 17.6914 21.3842 17.6914 24.3879C17.6914 27.3917 18.8676 30.276 20.968 32.4233C23.0684 34.5706 25.9261 35.8101 28.9292 35.8763H36.4297C37.2453 35.8746 38.0584 35.7865 38.8554 35.6136L41.8455 36.7761L45.076 38.0057L44.5171 34.5852L44.26 32.7688ZM65.0738 35.4907L60.8373 29.3427H56.1592V35.4907H51.0731V13.5088H60.5746C62.315 13.4668 64.044 13.8004 65.6439 14.4868C66.9948 15.0634 68.1471 16.0233 68.9582 17.2479C69.753 18.5154 70.1573 19.9887 70.1208 21.4844C70.1787 22.9672 69.7748 24.4315 68.9649 25.6749C68.1549 26.9184 66.9789 27.8797 65.5992 28.426L70.5288 35.4907H65.0738ZM63.7883 18.6451C62.9947 17.9856 61.8321 17.6559 60.3007 17.6559H56.1592V25.3185H60.3007C61.8321 25.3185 62.9947 24.9832 63.7883 24.3125C64.1883 23.9622 64.5033 23.5256 64.7095 23.0357C64.9158 22.5457 65.0079 22.0152 64.9788 21.4844C65.0113 20.9515 64.9208 20.4184 64.7144 19.926C64.508 19.4337 64.1911 18.9955 63.7883 18.6451ZM88.3803 24.4578V27.9733H77.0903V24.4578H88.3803Z" fill="#4D5265"/>
<path d="M44.26 32.7688C45.9487 31.1992 47.1251 29.1572 47.6358 26.909C48.1465 24.6609 47.9678 22.311 47.1231 20.1659C46.2783 18.0209 44.8067 16.1802 42.9002 14.884C40.9936 13.5877 38.7407 12.8962 36.4353 12.8995H28.9292C25.9261 12.9658 23.0684 14.2053 20.968 16.3525C18.8676 18.4998 17.6914 21.3842 17.6914 24.3879C17.6914 27.3917 18.8676 30.276 20.968 32.4233C23.0684 34.5706 25.9261 35.8101 28.9292 35.8763H36.4297C37.2453 35.8746 38.0584 35.7865 38.8554 35.6136L41.8455 36.7761L45.076 38.0057L44.5171 34.5852L44.26 32.7688ZM65.0738 35.4907L60.8373 29.3427H56.1592V35.4907H51.0731V13.5088H60.5746C62.315 13.4668 64.044 13.8004 65.6439 14.4868C66.9948 15.0634 68.1471 16.0233 68.9582 17.2479C69.753 18.5154 70.1573 19.9887 70.1208 21.4844C70.1787 22.9672 69.7748 24.4315 68.9649 25.6749C68.1549 26.9184 66.9789 27.8797 65.5992 28.426L70.5288 35.4907H65.0738ZM63.7883 18.6451C62.9947 17.9856 61.8321 17.6559 60.3007 17.6559H56.1592V25.3185H60.3007C61.8321 25.3185 62.9947 24.9832 63.7883 24.3125C64.1883 23.9622 64.5033 23.5256 64.7095 23.0357C64.9158 22.5457 65.0079 22.0152 64.9788 21.4844C65.0113 20.9515 64.9208 20.4184 64.7144 19.926C64.508 19.4337 64.1911 18.9955 63.7883 18.6451ZM88.3803 24.4578V27.9733H77.0903V24.4578H88.3803Z" fill="black" fill-opacity="0.5"/>
<path d="M28.9288 30.7904C27.2636 30.7412 25.683 30.0451 24.5225 28.8498C23.362 27.6545 22.7129 26.0541 22.7129 24.3881C22.7129 22.7222 23.362 21.1217 24.5225 19.9264C25.683 18.7311 27.2636 18.035 28.9288 17.9858H36.4294C37.286 17.9605 38.1391 18.1074 38.938 18.4177C39.7369 18.7281 40.4653 19.1956 41.0802 19.7926C41.6952 20.3897 42.184 21.104 42.5178 21.8934C42.8516 22.6827 43.0236 23.5311 43.0236 24.3881C43.0236 25.2452 42.8516 26.0935 42.5178 26.8829C42.184 27.6723 41.6952 28.3866 41.0802 28.9836C40.4653 29.5806 39.7369 30.0482 38.938 30.3585C38.1391 30.6689 37.286 30.8157 36.4294 30.7904H28.9288Z" fill="white"/>

</svg>
