<svg width="64" height="64" viewBox="0 0 64 64" fill="none" xmlns="http://www.w3.org/2000/svg">
<path d="M31.9521 63.9041C49.5987 63.9041 63.9041 49.5987 63.9041 31.9521C63.9041 14.3054 49.5987 0 31.9521 0C14.3054 0 0 14.3054 0 31.9521C0 49.5987 14.3054 63.9041 31.9521 63.9041Z" fill="#FFCF99"/>
<path d="M57.3937 2.56677C55.852 2.56677 54.3982 3.08599 53.2532 3.98065C52.1083 3.08599 50.6545 2.56677 49.1128 2.56677C45.5235 2.56677 42.6025 5.35725 42.6025 8.78678C42.6025 14.1308 50.524 19.9301 52.1083 21.0377C52.4544 21.2774 52.8538 21.3972 53.2532 21.3972C53.6526 21.3972 54.052 21.2774 54.3982 21.0377C55.9825 19.9274 63.9039 14.1308 63.9039 8.78678C63.9039 5.35725 60.983 2.56677 57.3937 2.56677Z" fill="#F35A45"/>
<path d="M14.7911 45.1696C13.2495 45.1696 11.7956 45.6888 10.6507 46.5834C9.50574 45.6888 8.05192 45.1696 6.51023 45.1696C2.92095 45.1696 0 47.96 0 51.3896C0 56.7335 7.92145 62.5328 9.50574 63.6405C9.85189 63.8802 10.2513 64 10.6507 64C11.0501 64 11.4495 63.8802 11.7956 63.6405C13.3799 62.5302 21.3014 56.7335 21.3014 51.3896C21.3014 47.96 18.3804 45.1696 14.7911 45.1696Z" fill="#F35A45"/>
<path d="M24.6298 29.9551C23.5275 29.9551 22.6328 29.0604 22.6328 27.9581C22.6328 26.4909 21.44 25.2954 19.9702 25.2954C18.5004 25.2954 17.3075 26.4909 17.3075 27.9581C17.3075 29.0604 16.4128 29.9551 15.3105 29.9551C14.2081 29.9551 13.3135 29.0604 13.3135 27.9581C13.3135 24.2889 16.2983 21.3014 19.9702 21.3014C23.642 21.3014 26.6268 24.2889 26.6268 27.9581C26.6268 29.0604 25.7322 29.9551 24.6298 29.9551Z" fill="#824500"/>
<path d="M48.5937 29.9551C47.4914 29.9551 46.5967 29.0604 46.5967 27.9581C46.5967 26.4909 45.4038 25.2954 43.934 25.2954C42.4642 25.2954 41.2714 26.4909 41.2714 27.9581C41.2714 29.0604 40.3767 29.9551 39.2744 29.9551C38.172 29.9551 37.2773 29.0604 37.2773 27.9581C37.2773 24.2889 40.2622 21.3014 43.934 21.3014C47.6059 21.3014 50.5907 24.2889 50.5907 27.9581C50.5907 29.0604 49.6961 29.9551 48.5937 29.9551Z" fill="#824500"/>
<path d="M31.9524 47.9285C26.1371 47.9285 20.6733 45.6653 16.5622 41.5514C15.782 40.7713 15.782 39.5065 16.5622 38.7264C17.3423 37.9462 18.6071 37.9462 19.3873 38.7264C22.7422 42.0866 27.2049 43.9345 31.9524 43.9345C36.7 43.9345 41.1626 42.0866 44.5202 38.729C45.3004 37.9489 46.5652 37.9489 47.3453 38.729C48.1255 39.5092 48.1255 40.7739 47.3453 41.5541C43.2315 45.6653 37.7677 47.9285 31.9524 47.9285Z" fill="#824500"/>
</svg>
