<svg width="24" height="24" viewBox="0 0 24 24" fill="none" xmlns="http://www.w3.org/2000/svg">
<path d="M9 17C9 17.5523 9.44772 18 10 18C10.5523 18 11 17.5523 11 17H9ZM10 8V7H9V8H10ZM8.5 11C7.94772 11 7.5 11.4477 7.5 12C7.5 12.5523 7.94772 13 8.5 13V11ZM8.5 14C7.94772 14 7.5 14.4477 7.5 15C7.5 15.5523 7.94772 16 8.5 16V14ZM13.5 16C14.0523 16 14.5 15.5523 14.5 15C14.5 14.4477 14.0523 14 13.5 14V16ZM12 24C18.6274 24 24 18.6274 24 12H22C22 17.5228 17.5228 22 12 22V24ZM24 12C24 5.37258 18.6274 0 12 0V2C17.5228 2 22 6.47715 22 12H24ZM12 0C5.37258 0 0 5.37258 0 12H2C2 6.47715 6.47715 2 12 2V0ZM0 12C0 18.6274 5.37258 24 12 24V22C6.47715 22 2 17.5228 2 12H0ZM11 17V12H9V17H11ZM11 12V8H9V12H11ZM10 9H14V7H10V9ZM14 8C14 9 13.9994 9 13.9987 9C13.9985 9 13.9979 9 13.9975 9C13.9966 8.99999 13.9958 8.99999 13.995 8.99999C13.9934 8.99998 13.9919 8.99997 13.9905 8.99995C13.9876 8.99992 13.9851 8.99988 13.9828 8.99983C13.9783 8.99973 13.9748 8.99961 13.9724 8.9995C13.9677 8.99929 13.967 8.99915 13.9696 8.9994C13.9753 8.99994 13.9926 9.00193 14.0174 9.00744C14.0696 9.01903 14.1347 9.04166 14.1953 9.08205C14.2581 9.12391 14.5 9.29131 14.5 10H16.5C16.5 8.70869 15.9919 7.87609 15.3047 7.41795C14.9903 7.20834 14.6804 7.10597 14.4513 7.05506C14.3355 7.02932 14.2356 7.01568 14.1593 7.00841C14.1209 7.00476 14.0879 7.00266 14.0612 7.00147C14.0479 7.00088 14.036 7.00051 14.0258 7.00029C14.0207 7.00018 14.016 7.00011 14.0117 7.00006C14.0095 7.00004 14.0075 7.00002 14.0055 7.00001C14.0045 7.00001 14.0036 7.00001 14.0027 7C14.0022 7 14.0016 7 14.0013 7C14.0007 7 14 7 14 8ZM14.5 10C14.5 10.7087 14.2581 10.8761 14.1953 10.9179C14.1347 10.9583 14.0696 10.981 14.0174 10.9926C13.9926 10.9981 13.9753 11.0001 13.9696 11.0006C13.967 11.0009 13.9677 11.0007 13.9724 11.0005C13.9748 11.0004 13.9783 11.0003 13.9828 11.0002C13.9851 11.0001 13.9876 11.0001 13.9905 11C13.9919 11 13.9934 11 13.995 11C13.9958 11 13.9966 11 13.9975 11C13.9979 11 13.9985 11 13.9987 11C13.9994 11 14 11 14 12C14 13 14.0007 13 14.0013 13C14.0016 13 14.0022 13 14.0027 13C14.0036 13 14.0045 13 14.0055 13C14.0075 13 14.0095 13 14.0117 12.9999C14.016 12.9999 14.0207 12.9998 14.0258 12.9997C14.036 12.9995 14.0479 12.9991 14.0612 12.9985C14.0879 12.9973 14.1209 12.9952 14.1593 12.9916C14.2356 12.9843 14.3355 12.9707 14.4513 12.9449C14.6804 12.894 14.9903 12.7917 15.3047 12.5821C15.9919 12.1239 16.5 11.2913 16.5 10H14.5ZM14 11H10V13H14V11ZM10 11H8.5V13H10V11ZM8.5 16H13.5V14H8.5V16Z" fill="#B3B8CB"/>
</svg>
