<?xml version="1.0" encoding="utf-8"?>
<svg width="24" height="25" viewBox="0 0 24 25" fill="none" xmlns="http://www.w3.org/2000/svg">
  <path d="M 9.505 17.263 L 9.505 15.263 M 9.505 15.263 L 9.505 12.263 M 9.505 15.263 L 13.005 15.263 M 9.505 15.263 L 8.005 15.263 M 9.505 12.263 L 9.505 8.263 C 9.505 8.263 12.505 8.263 13.505 8.263 C 14.481 8.264 15.005 9.287 15.005 10.263 C 15.005 11.24 14.481 12.263 13.505 12.263 L 9.505 12.263 Z M 9.505 12.263 L 8.005 12.263 M 22.505 12.285 C 22.505 18.36 17.58 23.285 11.505 23.285 C 5.43 23.285 0.505 18.36 0.505 12.285 C 0.505 6.209 5.43 1.2850000000000001 11.505 1.2850000000000001 C 17.58 1.2850000000000001 22.505 6.209 22.505 12.285 Z" stroke="#CDD0DC" stroke-width="2" stroke-linecap="round" stroke-linejoin="round"/>
</svg>