<svg width="24" height="24" viewBox="0 0 24 24" fill="none" xmlns="http://www.w3.org/2000/svg">
<path d="M18 2L22 6L18 10" stroke="black" stroke-width="2" stroke-linecap="round" stroke-linejoin="round"/>
<path d="M14 6H22" stroke="black" stroke-width="2" stroke-linecap="round" stroke-linejoin="round"/>
<path fill-rule="evenodd" clip-rule="evenodd" d="M21 17.92V20.92C21.0023 21.4831 20.767 22.0212 20.3521 22.4019C19.9371 22.7826 19.3809 22.9707 18.82 22.92C15.7428 22.5856 12.787 21.5341 10.19 19.85C7.77383 18.3147 5.72534 16.2662 4.19 13.85C2.49998 11.2412 1.44824 8.27099 1.12 5.18C1.06947 4.62087 1.25627 4.06625 1.63477 3.65162C2.01326 3.23699 2.5486 3.00053 3.11 3H6.11C7.11387 2.99012 7.9695 3.72597 8.11 4.72C8.23662 5.68007 8.47145 6.62273 8.81 7.53C9.08474 8.26087 8.90902 9.08481 8.36 9.64L7.09 10.91C8.51356 13.4135 10.5865 15.4864 13.09 16.91L14.36 15.64C14.9152 15.091 15.7391 14.9153 16.47 15.19C17.3773 15.5286 18.3199 15.7634 19.28 15.89C20.2856 16.0319 21.0252 16.9048 21 17.92Z" stroke="black" stroke-width="2" stroke-linecap="round" stroke-linejoin="round"/>
</svg>
