<svg width="24" height="24" viewBox="0 0 24 24" fill="none" xmlns="http://www.w3.org/2000/svg">
<path fill-rule="evenodd" clip-rule="evenodd" d="M21 16.92V19.92C21.0023 20.4831 20.767 21.0212 20.3521 21.4019C19.9371 21.7826 19.3809 21.9707 18.82 21.92C15.7428 21.5856 12.787 20.5341 10.19 18.85C7.77383 17.3147 5.72534 15.2662 4.19 12.85C2.49998 10.2412 1.44824 7.27099 1.12 4.18C1.06947 3.62087 1.25627 3.06625 1.63477 2.65162C2.01326 2.23699 2.5486 2.00053 3.11 2H6.11C7.11387 1.99012 7.9695 2.72597 8.11 3.72C8.23662 4.68007 8.47145 5.62273 8.81 6.53C9.08474 7.26087 8.90902 8.08481 8.36 8.64L7.09 9.91C8.51356 12.4135 10.5865 14.4864 13.09 15.91L14.36 14.64C14.9152 14.091 15.7391 13.9153 16.47 14.19C17.3773 14.5286 18.3199 14.7634 19.28 14.89C20.2856 15.0319 21.0252 15.9048 21 16.92Z" stroke="black" stroke-width="2" stroke-linecap="round" stroke-linejoin="round"/>
</svg>
