<svg width="25" height="24" viewBox="0 0 25 24" fill="none" xmlns="http://www.w3.org/2000/svg">
<path d="M12.5 4V5M18.5 16H20.5M14.5 16H12.5V20M12.5 9V12M12.5 12H12.51M12.5 12H16.51M16.5 20H20.5M4.5 12H8.5M20.5 12H20.51M5.5 8H7.5C7.76522 8 8.01957 7.89464 8.20711 7.70711C8.39464 7.51957 8.5 7.26522 8.5 7V5C8.5 4.73478 8.39464 4.48043 8.20711 4.29289C8.01957 4.10536 7.76522 4 7.5 4H5.5C5.23478 4 4.98043 4.10536 4.79289 4.29289C4.60536 4.48043 4.5 4.73478 4.5 5V7C4.5 7.26522 4.60536 7.51957 4.79289 7.70711C4.98043 7.89464 5.23478 8 5.5 8ZM17.5 8H19.5C19.7652 8 20.0196 7.89464 20.2071 7.70711C20.3946 7.51957 20.5 7.26522 20.5 7V5C20.5 4.73478 20.3946 4.48043 20.2071 4.29289C20.0196 4.10536 19.7652 4 19.5 4H17.5C17.2348 4 16.9804 4.10536 16.7929 4.29289C16.6054 4.48043 16.5 4.73478 16.5 5V7C16.5 7.26522 16.6054 7.51957 16.7929 7.70711C16.9804 7.89464 17.2348 8 17.5 8ZM5.5 20H7.5C7.76522 20 8.01957 19.8946 8.20711 19.7071C8.39464 19.5196 8.5 19.2652 8.5 19V17C8.5 16.7348 8.39464 16.4804 8.20711 16.2929C8.01957 16.1054 7.76522 16 7.5 16H5.5C5.23478 16 4.98043 16.1054 4.79289 16.2929C4.60536 16.4804 4.5 16.7348 4.5 17V19C4.5 19.2652 4.60536 19.5196 4.79289 19.7071C4.98043 19.8946 5.23478 20 5.5 20Z" stroke="#B3B8CB" stroke-width="2" stroke-linecap="round" stroke-linejoin="round"/>
</svg>
