<svg width="32" height="32" viewBox="0 0 32 32" fill="none" xmlns="http://www.w3.org/2000/svg">

<path d="M15.976 31.9521C24.7994 31.9521 31.9521 24.7994 31.9521 15.976C31.9521 7.15272 24.7994 0 15.976 0C7.15272 0 0 7.15272 0 15.976C0 24.7994 7.15272 31.9521 15.976 31.9521Z" fill="#FFCF99"/>
<path d="M12.3144 14.9775C11.7633 14.9775 11.3159 14.5301 11.3159 13.979C11.3159 13.2454 10.7195 12.6476 9.98459 12.6476C9.24969 12.6476 8.65325 13.2454 8.65325 13.979C8.65325 14.5301 8.20593 14.9775 7.65475 14.9775C7.10358 14.9775 6.65625 14.5301 6.65625 13.979C6.65625 12.1444 8.14868 10.6506 9.98459 10.6506C11.8205 10.6506 13.3129 12.1444 13.3129 13.979C13.3129 14.5301 12.8656 14.9775 12.3144 14.9775Z" fill="#824500"/>
<path d="M24.2969 14.9775C23.7457 14.9775 23.2984 14.5301 23.2984 13.979C23.2984 13.2454 22.7019 12.6476 21.967 12.6476C21.2321 12.6476 20.6357 13.2454 20.6357 13.979C20.6357 14.5301 20.1883 14.9775 19.6372 14.9775C19.086 14.9775 18.6387 14.5301 18.6387 13.979C18.6387 12.1444 20.1311 10.6506 21.967 10.6506C23.8029 10.6506 25.2954 12.1444 25.2954 13.979C25.2954 14.5301 24.848 14.9775 24.2969 14.9775Z" fill="#824500"/>
<path d="M15.976 23.9642C13.0683 23.9642 10.3364 22.8326 8.28084 20.7757C7.89076 20.3856 7.89076 19.7532 8.28084 19.3631C8.67092 18.973 9.30331 18.973 9.69339 19.3631C11.3709 21.0433 13.6022 21.9672 15.976 21.9672C18.3497 21.9672 20.5811 21.0433 22.2599 19.3644C22.65 18.9744 23.2823 18.9744 23.6724 19.3644C24.0625 19.7545 24.0625 20.3869 23.6724 20.777C21.6155 22.8326 18.8836 23.9642 15.976 23.9642Z" fill="#824500"/>

</svg>
