<svg width="32" height="32" viewBox="0 0 32 32" fill="none" xmlns="http://www.w3.org/2000/svg">

<path d="M21.7041 13.4351H13.3034C12.8656 13.4351 12.4819 13.1423 12.3665 12.72C12.2511 12.2977 12.4324 11.8504 12.8093 11.6276C16.4694 9.46483 18.3707 6.94194 18.6214 3.91481C18.7089 2.86425 19.6446 2.02509 20.7068 2.03899C21.7906 2.05631 22.806 2.49075 23.5665 3.26243C24.3276 4.03482 24.747 5.05765 24.7474 6.1424C24.7474 6.14253 24.7474 6.14266 24.7474 6.14279V6.46911C24.7474 9.11893 23.9626 10.8085 22.5144 12.9993C22.3344 13.2715 22.0302 13.4351 21.7041 13.4351Z" fill="#FFC380"/>
<path d="M32.0004 14.5357C32.0004 12.8577 30.6352 11.4924 28.9571 11.4924H13.3043C13.1304 11.4924 12.9596 11.5391 12.81 11.6276C11.7112 12.2773 10.6018 12.8121 9.71037 13.242C9.39943 13.3918 9.10575 13.5334 8.83864 13.667C8.50961 13.8315 8.30176 14.1678 8.30176 14.5357V26.9678C8.30176 27.3358 8.50961 27.672 8.83864 27.8366C12.7632 29.7986 16.0254 30.0358 19.8296 30.0358C20.4187 30.0358 21.0212 30.0301 21.6407 30.0243C22.3259 30.0179 23.0343 30.0111 23.7771 30.0111H26.8476C28.5256 30.0111 29.8908 28.646 29.8908 26.9678C29.8908 26.4036 29.7366 25.8748 29.4678 25.4213C30.3422 24.8861 30.9269 23.922 30.9269 22.8238C30.9269 22.2596 30.7726 21.7308 30.5039 21.2773C31.3782 20.742 31.9629 19.7779 31.9629 18.6797C31.9629 17.8905 31.6609 17.1704 31.1664 16.6291C31.7049 16.0616 32.0004 15.3214 32.0004 14.5357Z" fill="#FFCF99"/>
<path d="M6.08705 24.9088V30.0241H4.14453V24.9088C4.14453 24.3727 4.57968 23.9375 5.11579 23.9375C5.65189 23.9375 6.08705 24.3727 6.08705 24.9088Z" fill="#73C3FF"/>
<path d="M6.08705 24.9088V30.0241H4.14453V24.9088C4.14453 24.3727 4.57968 23.9375 5.11579 23.9375C5.65189 23.9375 6.08705 24.3727 6.08705 24.9088Z" fill="#73C3FF"/>
<path d="M9.25932 11.4924H0.971257C0.435153 11.4924 0 11.9276 0 12.4637V29.0398C0 29.5766 0.435153 30.0111 0.971257 30.0234H7.18729C8.37803 30.0111 9.41082 29.3241 9.91008 28.3256C10.1153 27.917 10.2306 27.4553 10.2306 26.9678V12.4637C10.2306 11.9275 9.79543 11.4924 9.25932 11.4924Z" fill="#B145F3"/>
<path d="M9.25932 11.4924H0.971257C0.435153 11.4924 0 11.9276 0 12.4637V29.0398C0 29.5766 0.435153 30.0111 0.971257 30.0234H7.18729C8.37803 30.0111 9.41082 29.3241 9.91008 28.3256C10.1153 27.917 10.2306 27.4553 10.2306 26.9678V12.4637C10.2306 11.9275 9.79543 11.4924 9.25932 11.4924Z" fill="white" fill-opacity="0.8"/>
<path d="M6.08705 24.8436V30.0237H4.14453V24.8436C4.14453 24.3075 4.57968 23.8723 5.11579 23.8723C5.65189 23.8723 6.08705 24.3075 6.08705 24.8436Z" fill="#B145F3"/>


</svg>
