<svg width="32" height="32" viewBox="0 0 32 32" fill="none" xmlns="http://www.w3.org/2000/svg">
<path d="M16 32C24.8366 32 32 24.8366 32 16C32 7.16344 24.8366 0 16 0C7.16344 0 0 7.16344 0 16C0 24.8366 7.16344 32 16 32Z" fill="#1382E8"/>
<path d="M21.6569 10.3428C20.145 8.83093 18.1364 8 15.9998 8C13.8631 8 11.8545 8.83093 10.3426 10.3428C8.83068 11.8547 7.99976 13.8633 7.99976 16C7.99976 18.1367 8.83068 20.1453 10.3426 21.6572C11.8545 23.1691 13.8631 24 15.9998 24C18.1364 24 20.145 23.1691 21.6569 21.6572C23.1688 20.1453 23.9998 18.1367 23.9998 16C23.9998 13.8633 23.1688 11.8547 21.6569 10.3428ZM21.3227 20.517C20.9478 20.1827 20.548 19.886 20.1263 19.633C20.4043 18.6708 20.5698 17.6119 20.6105 16.5092H22.9627C22.8565 17.993 22.2879 19.3862 21.3227 20.517ZM9.03685 16.5092H11.3891C11.4265 17.6087 11.5921 18.6677 11.8732 19.633C11.4515 19.8891 11.0517 20.1827 10.6768 20.517C9.71159 19.3862 9.14306 17.993 9.03685 16.5092ZM10.6768 11.483C11.0517 11.8173 11.4515 12.114 11.8732 12.367C11.5952 13.3292 11.4297 14.3881 11.3891 15.4908H9.03685C9.14306 14.007 9.71159 12.6138 10.6768 11.483ZM15.4906 12.4733C14.6597 12.4139 13.8568 12.2077 13.1134 11.8704C13.2415 11.5455 13.382 11.2362 13.5413 10.9457C14.0943 9.93987 14.7721 9.29949 15.4906 9.0902V12.4733ZM15.4906 13.4947V15.4908H12.4105C12.4449 14.5599 12.5792 13.6665 12.7979 12.8481C13.6413 13.2167 14.5503 13.4354 15.4906 13.4947ZM15.4906 16.5092V18.5053C14.5503 18.5646 13.6413 18.7833 12.7979 19.155C12.5792 18.3366 12.448 17.4432 12.4105 16.5123H15.4906V16.5092ZM15.4906 19.5267V22.9098C14.7721 22.7036 14.0943 22.0601 13.5413 21.0543C13.382 20.7669 13.2415 20.4576 13.1134 20.1296C13.8568 19.7923 14.6597 19.5861 15.4906 19.5267ZM16.5089 19.5267C17.3399 19.5861 18.1427 19.7923 18.8861 20.1296C18.7581 20.4545 18.6175 20.7638 18.4582 21.0543C17.9053 22.0633 17.2274 22.7036 16.5089 22.9098V19.5267ZM16.5089 18.5053V16.5092H19.589C19.5546 17.4401 19.4203 18.3335 19.2016 19.1519C18.3582 18.7833 17.4492 18.5646 16.5089 18.5053ZM16.5089 15.4908V13.4947C17.4492 13.4354 18.3582 13.2167 19.2016 12.845C19.4203 13.6634 19.5515 14.5568 19.589 15.4877H16.5089V15.4908ZM16.5089 12.4733V9.0902C17.2274 9.29637 17.9053 9.93987 18.4582 10.9457C18.6175 11.2331 18.7581 11.5424 18.8861 11.8704C18.1427 12.2077 17.3399 12.4139 16.5089 12.4733ZM19.3547 10.4584C19.1829 10.1429 18.9986 9.85865 18.8018 9.6025C19.4547 9.88989 20.0638 10.2772 20.6105 10.7583C20.3512 10.9863 20.0763 11.1956 19.7889 11.3799C19.6577 11.0551 19.5109 10.7458 19.3547 10.4584ZM12.6448 10.4584C12.4855 10.7489 12.3418 11.0551 12.2106 11.3799C11.9232 11.1956 11.6515 10.9863 11.3891 10.7583C11.9357 10.2772 12.5449 9.88989 13.1977 9.6025C13.0041 9.85865 12.8197 10.1429 12.6448 10.4584ZM12.2137 20.6232C12.3449 20.9449 12.4886 21.2542 12.6479 21.5447C12.8197 21.8602 13.0041 22.1445 13.2009 22.4006C12.548 22.1132 11.9388 21.7259 11.3922 21.2448C11.6515 21.0168 11.9263 20.8075 12.2137 20.6232ZM19.3547 21.5416C19.514 21.2511 19.6577 20.9449 19.7889 20.6201C20.0763 20.8044 20.3481 21.0137 20.6105 21.2417C20.0638 21.7228 19.4547 22.1101 18.8018 22.3975C18.9955 22.1414 19.1798 21.8571 19.3547 21.5416ZM20.6105 15.4908C20.573 14.3913 20.4074 13.3323 20.1263 12.367C20.548 12.1109 20.9478 11.8173 21.3227 11.483C22.2848 12.6138 22.8565 14.007 22.9627 15.4908H20.6105Z" fill="white"/>
</svg>
