<svg width="24" height="25" viewBox="0 0 24 25" fill="none" xmlns="http://www.w3.org/2000/svg">
<path fill-rule="evenodd" clip-rule="evenodd" d="M9 11.1182C9 10.0136 9.89543 9.11816 11 9.11816H20C21.1046 9.11816 22 10.0136 22 11.1182V20.1182C22 21.2227 21.1046 22.1182 20 22.1182H11C9.89543 22.1182 9 21.2227 9 20.1182V11.1182Z" stroke="#4D5265" stroke-width="2" stroke-linecap="round" stroke-linejoin="round"/>
<path fill-rule="evenodd" clip-rule="evenodd" d="M9 11.1182C9 10.0136 9.89543 9.11816 11 9.11816H20C21.1046 9.11816 22 10.0136 22 11.1182V20.1182C22 21.2227 21.1046 22.1182 20 22.1182H11C9.89543 22.1182 9 21.2227 9 20.1182V11.1182Z" stroke="black" stroke-opacity="0.5" stroke-width="2" stroke-linecap="round" stroke-linejoin="round"/>
<path d="M5 15.1182H4C2.89543 15.1182 2 14.2227 2 13.1182V4.11816C2 3.01359 2.89543 2.11816 4 2.11816H13C14.1046 2.11816 15 3.01359 15 4.11816V5.11816" stroke="#4D5265" stroke-width="2" stroke-linecap="round" stroke-linejoin="round"/>
<path d="M5 15.1182H4C2.89543 15.1182 2 14.2227 2 13.1182V4.11816C2 3.01359 2.89543 2.11816 4 2.11816H13C14.1046 2.11816 15 3.01359 15 4.11816V5.11816" stroke="black" stroke-opacity="0.5" stroke-width="2" stroke-linecap="round" stroke-linejoin="round"/>
</svg>
