<svg width="65" height="64" viewBox="0 0 65 64" fill="none" xmlns="http://www.w3.org/2000/svg">
<path fill-rule="evenodd" clip-rule="evenodd" d="M64.3174 32C64.3174 49.6731 49.9905 64 32.3174 64C14.6443 64 0.317383 49.6731 0.317383 32C0.317383 14.3269 14.6443 0 32.3174 0C49.9905 0 64.3174 14.3269 64.3174 32ZM36.3405 22.4399L17.2792 30.2935C13.9251 31.6024 15.8885 32.8295 15.8885 32.8295C15.8885 32.8295 18.7518 33.8112 21.206 34.5475C23.6603 35.2838 24.9692 34.4657 24.9692 34.4657L36.5042 26.6939C40.5946 23.9124 39.6129 26.203 38.6312 27.1847C36.5042 29.3118 32.9864 32.6659 30.0413 35.3656C28.7324 36.5109 29.3868 37.4926 29.9595 37.9834C31.6243 39.3921 35.5441 41.9533 37.3262 43.1177C37.821 43.4411 38.151 43.6567 38.2221 43.71C38.6312 44.0372 40.9218 45.5098 42.3125 45.1826C43.7033 44.8553 43.8669 42.9737 43.8669 42.9737L45.9121 30.1298C46.0939 28.9257 46.2756 27.7467 46.4451 26.6474C46.8859 23.7883 47.2438 21.4673 47.3029 20.6401C47.5483 17.8586 44.6032 19.0039 44.6032 19.0039C44.6032 19.0039 38.2221 21.6218 36.3405 22.4399Z" fill="black"/>
</svg>
