<svg width="24" height="24" viewBox="0 0 24 24" fill="none" xmlns="http://www.w3.org/2000/svg">
<path fill-rule="evenodd" clip-rule="evenodd" d="M11 5L6 9H2V15H6L11 19V5V5Z" stroke="black" stroke-width="2" stroke-linecap="round" stroke-linejoin="round"/>
<path d="M19.07 4.92999L19.7773 4.22299C19.4913 3.93693 19.0611 3.85132 18.6874 4.00608C18.3137 4.16085 18.07 4.5255 18.07 4.92999H19.07ZM19.07 19.07H18.07C18.07 19.4745 18.3137 19.8391 18.6874 19.9939C19.0611 20.1487 19.4913 20.0631 19.7773 19.777L19.07 19.07ZM15.54 8.45999L16.2473 7.75299C15.9613 7.46693 15.5311 7.38132 15.1574 7.53608C14.7837 7.69085 14.54 8.0555 14.54 8.45999H15.54ZM15.54 15.53H14.54C14.54 15.9345 14.7837 16.2991 15.1574 16.4539C15.5311 16.6087 15.9613 16.5231 16.2473 16.237L15.54 15.53ZM18.3628 5.63699C21.8763 9.15149 21.8763 14.8485 18.3628 18.363L19.7773 19.777C24.0715 15.4815 24.0715 8.51849 19.7773 4.22299L18.3628 5.63699ZM20.07 19.07V4.92999H18.07V19.07H20.07ZM14.8328 9.16699C16.3944 10.729 16.3944 13.261 14.8328 14.823L16.2473 16.237C18.5895 13.894 18.5895 10.096 16.2473 7.75299L14.8328 9.16699ZM16.54 15.53V8.45999H14.54V15.53H16.54Z" fill="black"/>
</svg>
