<svg width="32" height="32" viewBox="0 0 32 32" fill="none" xmlns="http://www.w3.org/2000/svg">
<path d="M0.133235 15.8565C0.132274 18.6509 0.862456 21.3792 2.25044 23.7837L0 32L8.40874 29.7952C10.7256 31.0587 13.3339 31.7245 15.9885 31.7256H15.9953C24.7369 31.7256 31.8536 24.6113 31.8572 15.8688C31.8587 11.6315 30.21 7.64747 27.2155 4.65039C24.2205 1.65331 20.2383 0.00182888 15.9953 0C7.25189 0 0.136892 7.11348 0.133235 15.8565ZM5.14045 23.3695L4.82656 22.8709C3.50666 20.7725 2.81004 18.3472 2.811 15.8571C2.81388 8.59054 8.72789 2.67822 16 2.67822C19.5216 2.67959 22.8313 4.05249 25.3209 6.54338C27.8102 9.03445 29.1799 12.346 29.179 15.8675C29.1757 23.1345 23.2616 29.0473 15.995 29.0473H15.9898C13.6238 29.0459 11.3033 28.4108 9.27967 27.21L8.79803 26.9245L3.80792 28.2328L5.14045 23.3695ZM15.9953 31.7256C15.995 31.7256 15.9952 31.7256 15.9953 31.7256Z" fill="#B3B8CB"/>
<path fill-rule="evenodd" clip-rule="evenodd" d="M12.031 9.22675C11.7341 8.56671 11.4216 8.55349 11.1392 8.54188C10.9081 8.53205 10.6437 8.53269 10.3797 8.53269C10.1153 8.53269 9.68594 8.63189 9.32286 9.0285C8.95946 9.42513 7.93556 10.3839 7.93556 12.3338C7.93556 14.2839 9.35597 16.1681 9.55385 16.4328C9.75208 16.697 12.2958 20.8266 16.3239 22.4151C19.672 23.7353 20.3533 23.4727 21.0799 23.4066C21.8066 23.3406 23.4249 22.4482 23.755 21.5226C24.0854 20.5973 24.0854 19.804 23.9863 19.6384C23.8873 19.4732 23.6229 19.374 23.2266 19.176C22.8301 18.9777 20.8817 18.0188 20.5184 17.8866C20.155 17.7545 19.8908 17.6885 19.6265 18.0853C19.3623 18.4816 18.6032 19.374 18.3719 19.6384C18.1408 19.9033 17.9095 19.9363 17.5131 19.7381C17.1167 19.5392 15.8402 19.1211 14.3259 17.7711C13.1476 16.7206 12.3523 15.4232 12.121 15.0264C11.8898 14.6301 12.0963 14.4154 12.295 14.2178C12.4731 14.0402 12.6915 13.7551 12.8897 13.5238C13.0874 13.2923 13.1534 13.1271 13.2855 12.8628C13.4178 12.5982 13.3517 12.3668 13.2526 12.1685C13.1534 11.9703 12.3835 10.0105 12.031 9.22675Z" fill="#B3B8CB"/>
</svg>
