<svg width="222" height="206" viewBox="0 0 222 206" fill="none" xmlns="http://www.w3.org/2000/svg">

<path d="M196.363 11.9507C195.5 11.174 194.272 10.9521 193.19 11.3838L186.097 14.2092L179.747 9.96444C177.808 8.67569 174.852 10.3823 174.999 12.7056L175.5 20.3271L169.507 25.0573C168.592 25.7782 168.166 26.9553 168.411 28.0884C168.649 29.2256 169.519 30.1295 170.644 30.416L178.047 32.2983L180.693 39.4626C181.098 40.5551 182.082 41.3226 183.242 41.4428C184.39 41.5655 185.521 41.0158 186.142 40.037L190.212 33.581L197.845 33.2797C198.348 33.2623 198.828 33.1167 199.252 32.8723C199.798 32.5566 200.251 32.0696 200.513 31.4718C200.985 30.4087 200.816 29.1707 200.072 28.2737L195.191 22.4007L197.262 15.0482C197.576 13.9308 197.229 12.7254 196.363 11.9507Z" fill="#F7CE22"/>
<path d="M135.028 36.9854C134.998 36.3988 134.638 35.8798 134.096 35.6471L130.546 34.1199L129.793 30.3285C129.561 29.1736 127.892 28.7265 127.113 29.6104L124.565 32.5172L120.728 32.0651C120.142 31.9958 119.569 32.2646 119.251 32.7578C118.929 33.2499 118.917 33.8847 119.217 34.3898L121.193 37.7127L119.576 41.2231C119.329 41.759 119.407 42.3858 119.779 42.8441C120.146 43.2988 120.748 43.5069 121.32 43.3785L125.087 42.5249L127.926 45.1487C128.112 45.3224 128.336 45.4421 128.575 45.5062C128.884 45.5889 129.22 45.5765 129.528 45.4562C130.077 45.2449 130.46 44.7413 130.515 44.1542L130.869 40.3055L134.242 38.4157C134.754 38.1283 135.061 37.5724 135.028 36.9854Z" fill="#F7CE22"/>
<path d="M50.7773 19.4618C50.222 18.6063 49.2294 18.1384 48.2129 18.2589L41.5487 19.0439L37.1239 13.9961C35.7713 12.4611 32.8738 13.2375 32.4699 15.2432L31.1618 21.8271L24.9979 24.4793C24.0574 24.8833 23.4283 25.7856 23.3785 26.8033C23.3219 27.8228 23.8547 28.7881 24.7445 29.2871L30.601 32.569L31.217 39.2525C31.3123 40.2721 31.9731 41.1475 32.9309 41.5134C33.8774 41.8787 34.9628 41.6694 35.7118 40.9795L40.6359 36.4248L47.1845 37.9054C47.6151 38.005 48.056 37.9906 48.4709 37.8795C49.0069 37.7359 49.5018 37.4254 49.8598 36.9774C50.5029 36.1824 50.6409 35.093 50.2136 34.1624L47.4054 28.0663L50.8363 22.2958C51.3573 21.4188 51.3362 20.3164 50.7773 19.4618Z" fill="#F7CE22"/>
<path d="M67.2669 176.3C66.441 175.879 65.447 175.961 64.7016 176.518L59.8125 180.165L54.0353 178.202C52.2729 177.609 50.3449 179.537 50.9385 181.299L52.901 187.076L49.2543 191.965C48.6975 192.711 48.6124 193.707 49.0358 194.531C49.4545 195.359 50.3127 195.877 51.2399 195.865L57.3415 195.787L60.8639 200.768C61.4023 201.527 62.3203 201.916 63.2406 201.769C64.1517 201.626 64.9109 200.968 65.187 200.085L66.9931 194.262L72.8209 192.451C73.2052 192.334 73.5457 192.122 73.8218 191.846C74.1784 191.489 74.4269 191.02 74.5051 190.505C74.65 189.587 74.2635 188.666 73.5043 188.128L68.5231 184.605L68.6014 178.504C68.6129 177.577 68.0952 176.718 67.2669 176.3Z" fill="#F7CE22"/>
<path d="M104.898 169.568C104.671 169.219 104.267 169.028 103.853 169.078L101.138 169.397L99.3355 167.341C98.7845 166.716 97.6041 167.032 97.4395 167.849L96.9066 170.531L94.3956 171.612C94.0124 171.776 93.7561 172.144 93.7359 172.558C93.7128 172.974 93.9299 173.367 94.2924 173.57L96.6782 174.907L96.9291 177.63C96.968 178.045 97.2371 178.402 97.6273 178.551C98.0129 178.7 98.4551 178.615 98.7602 178.333L100.766 176.478L103.434 177.081C103.609 177.122 103.789 177.116 103.958 177.071C104.176 177.012 104.378 176.886 104.524 176.703C104.786 176.379 104.842 175.935 104.668 175.556L103.524 173.073L104.922 170.722C105.134 170.365 105.125 169.916 104.898 169.568Z" fill="#F7CE22"/>
<path d="M163.627 172.425C163.555 171.04 162.704 169.814 161.425 169.265L153.044 165.658L151.265 156.705C150.716 153.978 146.776 152.922 144.936 155.01L138.919 161.874L129.858 160.806C128.475 160.642 127.121 161.277 126.37 162.442C125.611 163.604 125.582 165.103 126.29 166.295L130.956 174.142L127.137 182.432C126.556 183.697 126.739 185.177 127.618 186.259C128.484 187.333 129.905 187.825 131.256 187.521L140.151 185.506L146.856 191.702C147.296 192.112 147.825 192.394 148.389 192.546C149.118 192.741 149.912 192.712 150.638 192.428C151.936 191.929 152.839 190.739 152.969 189.353L153.806 180.265L161.77 175.802C162.98 175.124 163.704 173.811 163.627 172.425Z" fill="#F7CE22"/>
<path d="M208.206 158.366C207.469 158.605 206.93 159.242 206.819 160.011L206.084 165.057L201.509 167.312C200.117 168.003 200.117 170.282 201.509 170.973L206.084 173.228L206.819 178.273C206.93 179.043 207.469 179.682 208.206 179.918C208.943 180.161 209.756 179.959 210.297 179.404L213.858 175.752L218.884 176.614C219.651 176.744 220.424 176.432 220.88 175.801C221.335 175.178 221.395 174.34 221.035 173.655L218.661 169.145L221.035 164.63C221.193 164.333 221.269 164.007 221.269 163.681C221.269 163.259 221.139 162.835 220.88 162.484C220.424 161.856 219.651 161.54 218.884 161.671L213.858 162.533L210.297 158.88C209.756 158.325 208.943 158.124 208.206 158.366Z" fill="#F7CE22"/>
<path d="M207.309 103.004C207.287 102.589 207.033 102.223 206.65 102.058L204.143 100.979L203.611 98.301C203.446 97.4851 202.268 97.1693 201.717 97.7937L199.917 99.8471L197.206 99.5278C196.793 99.4788 196.388 99.6687 196.163 100.017C195.936 100.365 195.927 100.813 196.139 101.17L197.535 103.517L196.393 105.997C196.219 106.376 196.273 106.819 196.536 107.142C196.796 107.464 197.221 107.611 197.625 107.52L200.286 106.917L202.292 108.77C202.423 108.893 202.581 108.978 202.75 109.023C202.968 109.081 203.206 109.073 203.423 108.988C203.811 108.838 204.081 108.483 204.12 108.068L204.371 105.349L206.753 104.014C207.115 103.811 207.332 103.418 207.309 103.004Z" fill="#F7CE22"/>
<path d="M103.305 7.00357C103.283 6.58922 103.029 6.22253 102.646 6.0582L100.139 4.9793L99.6067 2.30101C99.4424 1.48511 98.2637 1.16928 97.7134 1.79371L95.9134 3.84712L93.2025 3.52776C92.789 3.47877 92.3838 3.66871 92.1593 4.0171C91.932 4.36473 91.9234 4.81319 92.1353 5.16998L93.531 7.51734L92.3886 9.99721C92.2148 10.3758 92.2696 10.8186 92.5326 11.1423C92.7917 11.4635 93.2167 11.6106 93.6209 11.5199L96.282 10.9168L98.2879 12.7704C98.4193 12.893 98.5776 12.9777 98.7463 13.0229C98.9644 13.0813 99.2019 13.0726 99.4191 12.9876C99.8074 12.8383 100.078 12.4826 100.116 12.0678L100.367 9.34902L102.749 8.01399C103.111 7.81097 103.328 7.41829 103.305 7.00357Z" fill="#F7CE22"/>
<path d="M16.9646 137.263C16.9376 136.746 16.6201 136.289 16.1427 136.084L13.0144 134.738L12.3505 131.396C12.1455 130.378 10.6749 129.984 9.98844 130.763L7.74274 133.325L4.36049 132.927C3.84458 132.866 3.33909 133.103 3.05898 133.537C2.77537 133.971 2.76464 134.53 3.02906 134.976L4.77034 137.904L3.34508 140.998C3.12825 141.47 3.19652 142.023 3.52465 142.427C3.84799 142.828 4.37815 143.011 4.88245 142.898L8.20253 142.145L10.7051 144.458C10.8691 144.611 11.0666 144.717 11.2771 144.773C11.5491 144.846 11.8455 144.835 12.1165 144.729C12.6009 144.543 12.938 144.099 12.9864 143.582L13.299 140.189L16.2713 138.524C16.7229 138.271 16.9934 137.781 16.9646 137.263Z" fill="#F7CE22"/>
<path d="M58.3291 93.635C57.7438 93.1077 56.9097 92.9571 56.1754 93.2502L51.3604 95.1681L47.0502 92.2867C45.7342 91.4118 43.7276 92.5703 43.8272 94.1474L44.1675 99.321L40.099 102.532C39.4781 103.021 39.1891 103.82 39.3554 104.589C39.5169 105.361 40.1075 105.975 40.8711 106.17L45.8964 107.447L47.6921 112.31C47.9671 113.052 48.635 113.573 49.4228 113.655C50.202 113.738 50.9699 113.365 51.3908 112.7L54.154 108.318L59.3356 108.113C59.6768 108.102 60.0029 108.003 60.2902 107.837C60.6613 107.623 60.9685 107.292 61.1461 106.886C61.4669 106.165 61.3521 105.324 60.8473 104.715L57.5335 100.729L58.9397 95.7376C59.153 94.9791 58.9169 94.1608 58.3291 93.635Z" fill="#F7CE22"/>
<path d="M114.734 173.587C150.081 173.587 178.734 144.933 178.734 109.587C178.734 74.2407 150.081 45.5869 114.734 45.5869C79.3882 45.5869 50.7344 74.2407 50.7344 109.587C50.7344 144.933 79.3882 173.587 114.734 173.587Z" fill="white"/>
<path d="M114.734 173.587C150.081 173.587 178.734 144.933 178.734 109.587C178.734 74.2407 150.081 45.5869 114.734 45.5869C79.3882 45.5869 50.7344 74.2407 50.7344 109.587C50.7344 144.933 79.3882 173.587 114.734 173.587Z" fill="#FFD54F"/>
<path d="M159.912 125.427C158.685 129.321 157.085 132.894 155.005 136.254H74.4716C72.3916 132.894 70.7916 129.321 69.5649 125.427C69.1916 124.201 69.4049 122.921 70.2049 121.907C70.9516 120.841 72.1249 120.254 73.4049 120.254H156.072C157.352 120.254 158.525 120.841 159.272 121.907C160.072 122.921 160.285 124.201 159.912 125.427Z" fill="#F35A45"/>
<path d="M155.002 136.254C146.575 150.067 131.482 158.761 114.735 158.761C97.9888 158.761 82.8954 150.067 74.4688 136.254H155.002Z" fill="#F35A45"/>
<path d="M145.75 77.5869C143.169 77.5869 140.721 78.3869 138.737 79.7949C136.753 78.3869 134.305 77.5869 131.724 77.5869C125.297 77.5869 120.07 82.4989 120.07 88.5416C120.07 97.7309 133.745 107.48 136.492 109.342C137.169 109.8 137.948 110.03 138.737 110.03C139.526 110.03 140.305 109.8 140.982 109.342C143.729 107.48 157.404 97.7309 157.404 88.5416C157.404 82.4989 152.177 77.5869 145.75 77.5869Z" fill="#F35A45"/>
<path d="M97.7503 77.5869C95.169 77.5869 92.721 78.3869 90.737 79.7949C88.753 78.3869 86.305 77.5869 83.7236 77.5869C77.297 77.5869 72.0703 82.4989 72.0703 88.5416C72.0703 97.7309 85.745 107.48 88.4916 109.342C89.169 109.8 89.9476 110.03 90.737 110.03C91.5263 110.03 92.305 109.8 92.9823 109.342C95.729 107.48 109.404 97.7309 109.404 88.5416C109.404 82.4989 104.177 77.5869 97.7503 77.5869Z" fill="#F35A45"/>
</svg>
