<svg width="65" height="64" viewBox="0 0 65 64" fill="none" xmlns="http://www.w3.org/2000/svg">
<circle cx="32.3174" cy="32" r="32" fill="#FF0000"/>
<path d="M33.0263 43.0388L26.4612 42.9187C24.3355 42.8769 22.2046 42.9604 20.1206 42.5269C16.9504 41.8793 16.7258 38.7038 16.4908 36.0402C16.167 32.2954 16.2923 28.4827 16.9034 24.7692C17.2484 22.6856 18.606 21.4422 20.7055 21.3069C27.793 20.8159 34.9276 20.8741 41.9993 21.1032C42.7461 21.1242 43.4981 21.239 44.2346 21.3696C47.8698 22.0068 47.9585 25.6054 48.1941 28.6347C48.4291 31.6952 48.3299 34.7715 47.8807 37.8112C47.5204 40.328 46.8309 42.4386 43.9212 42.6423C40.2755 42.9088 36.7135 43.1233 33.0576 43.055C33.0577 43.0388 33.0367 43.0388 33.0263 43.0388ZM29.1666 36.667C31.914 35.0895 34.6089 33.5384 37.3405 31.9716C34.588 30.3942 31.8983 28.8431 29.1666 27.2762V36.667Z" fill="white"/>
</svg>
