<svg width="21" height="21" viewBox="0 0 21 21" fill="none" xmlns="http://www.w3.org/2000/svg">
<path d="M5.49703 7.99851H1.49703C1.36442 7.99851 1.23725 8.05119 1.14348 8.14496C1.04971 8.23872 0.997032 8.3659 0.997032 8.49851V20.4985C0.997032 20.6311 1.04971 20.7583 1.14348 20.8521C1.23725 20.9458 1.36442 20.9985 1.49703 20.9985H5.49703C5.62964 20.9985 5.75682 20.9458 5.85059 20.8521C5.94435 20.7583 5.99703 20.6311 5.99703 20.4985V8.49851C5.99703 8.3659 5.94435 8.23872 5.85059 8.14496C5.75682 8.05119 5.62964 7.99851 5.49703 7.99851ZM4.99703 19.9985H1.99703V8.99851H4.99703V19.9985ZM15.997 7.99851C14.912 7.99851 13.857 8.35651 12.997 9.01751V8.49851C12.997 8.3659 12.9444 8.23872 12.8506 8.14496C12.7568 8.05119 12.6296 7.99851 12.497 7.99851H8.49703C8.36442 7.99851 8.23725 8.05119 8.14348 8.14496C8.04971 8.23872 7.99703 8.3659 7.99703 8.49851V20.4985C7.99703 20.6311 8.04971 20.7583 8.14348 20.8521C8.23725 20.9458 8.36442 20.9985 8.49703 20.9985H12.497C12.6296 20.9985 12.7568 20.9458 12.8506 20.8521C12.9444 20.7583 12.997 20.6311 12.997 20.4985V14.9985C12.997 14.6007 13.1551 14.2192 13.4364 13.9379C13.7177 13.6565 14.0992 13.4985 14.497 13.4985C14.8949 13.4985 15.2764 13.6565 15.5577 13.9379C15.839 14.2192 15.997 14.6007 15.997 14.9985V20.4985C15.997 20.6311 16.0497 20.7583 16.1435 20.8521C16.2372 20.9458 16.3644 20.9985 16.497 20.9985H20.497C20.6296 20.9985 20.7568 20.9458 20.8506 20.8521C20.9444 20.7583 20.997 20.6311 20.997 20.4985V12.9985C20.9954 11.6729 20.4682 10.4021 19.5308 9.46473C18.5935 8.52739 17.3226 8.0001 15.997 7.99851ZM19.997 19.9985H16.997V14.9985C16.997 14.3355 16.7336 13.6996 16.2648 13.2307C15.796 12.7619 15.1601 12.4985 14.497 12.4985C13.834 12.4985 13.1981 12.7619 12.7293 13.2307C12.2604 13.6996 11.997 14.3355 11.997 14.9985V19.9985H8.99703V8.99851H11.997V10.2015C11.997 10.3051 12.0291 10.4061 12.089 10.4906C12.1488 10.5751 12.2335 10.6389 12.3311 10.6733C12.4288 10.7077 12.5348 10.7108 12.6344 10.6824C12.7339 10.6539 12.8222 10.5953 12.887 10.5145C13.4006 9.86358 14.1044 9.38914 14.9005 9.15733C15.6965 8.92551 16.545 8.9479 17.3277 9.22135C18.1104 9.4948 18.7883 10.0057 19.2668 10.6828C19.7453 11.3599 20.0006 12.1694 19.997 12.9985V19.9985ZM3.86503 1.00051C3.74753 0.992227 3.62962 0.991559 3.51203 0.998508C3.1378 0.973045 2.76233 1.02469 2.40887 1.15025C2.05541 1.2758 1.73149 1.4726 1.45718 1.72844C1.18288 1.98428 0.96402 2.29371 0.814172 2.63758C0.664323 2.98144 0.586673 3.35241 0.586032 3.72751C0.582927 4.09869 0.656107 4.46655 0.801034 4.80827C0.945962 5.15 1.15955 5.45832 1.42855 5.71409C1.69754 5.96987 2.01622 6.16766 2.36481 6.2952C2.7134 6.42274 3.08448 6.4773 3.45503 6.45551H3.48303C3.84121 6.48059 4.20083 6.43488 4.54134 6.32098C4.88185 6.20709 5.1966 6.02724 5.46761 5.7917C5.73862 5.55616 5.96058 5.26956 6.12082 4.94824C6.28106 4.62692 6.37645 4.27719 6.40153 3.91901C6.42661 3.56083 6.3809 3.20122 6.26701 2.8607C6.15311 2.52019 5.97326 2.20544 5.73772 1.93443C5.50219 1.66342 5.21558 1.44146 4.89426 1.28122C4.57295 1.12098 4.22321 1.02559 3.86503 1.00051ZM3.83003 5.45851C3.71455 5.46901 3.59831 5.468 3.48303 5.45551H3.45503C3.21436 5.4736 2.97256 5.44131 2.74507 5.3607C2.51758 5.28009 2.3094 5.15293 2.13382 4.98733C1.95823 4.82174 1.81911 4.62136 1.72532 4.39897C1.63154 4.17659 1.58516 3.93709 1.58913 3.69577C1.59311 3.45446 1.64737 3.21662 1.74843 2.99745C1.8495 2.77828 1.99515 2.58259 2.1761 2.42287C2.35705 2.26316 2.56931 2.14293 2.79933 2.06986C3.02936 1.99679 3.27209 1.97249 3.51203 1.99851C3.97086 1.95634 4.42764 2.09816 4.7819 2.39278C5.13615 2.6874 5.35886 3.11068 5.40103 3.56951C5.4432 4.02833 5.30138 4.48512 5.00676 4.83937C4.71214 5.19363 4.28886 5.41634 3.83003 5.45851Z" fill="#1F58AC"/>
</svg>
