<svg width="20" height="17" viewBox="0 0 20 17" fill="none" xmlns="http://www.w3.org/2000/svg">
<path d="M16.6004 0.800781C17.396 0.800781 18.1591 1.11685 18.7217 1.67946C19.2843 2.24207 19.6004 3.00513 19.6004 3.80078V13.4008C19.6004 14.1964 19.2843 14.9595 18.7217 15.5221C18.1591 16.0847 17.396 16.4008 16.6004 16.4008H3.40039C2.60474 16.4008 1.84168 16.0847 1.27907 15.5221C0.716461 14.9595 0.400391 14.1964 0.400391 13.4008V3.80078C0.400391 3.00513 0.716461 2.24207 1.27907 1.67946C1.84168 1.11685 2.60474 0.800781 3.40039 0.800781H16.6004ZM18.4004 5.55398L10.3052 10.318C10.2287 10.3629 10.1431 10.3903 10.0547 10.3982C9.96631 10.4061 9.87727 10.3943 9.79399 10.3636L9.69559 10.318L1.60039 5.55638V13.4008C1.60039 13.8782 1.79003 14.336 2.1276 14.6736C2.46516 15.0111 2.923 15.2008 3.40039 15.2008H16.6004C17.0778 15.2008 17.5356 15.0111 17.8732 14.6736C18.2107 14.336 18.4004 13.8782 18.4004 13.4008V5.55398ZM16.6004 2.00078H3.40039C2.923 2.00078 2.46516 2.19042 2.1276 2.52799C1.79003 2.86555 1.60039 3.32339 1.60039 3.80078V4.16318L10.0004 9.10478L18.4004 4.16078V3.80078C18.4004 3.32339 18.2107 2.86555 17.8732 2.52799C17.5356 2.19042 17.0778 2.00078 16.6004 2.00078Z" fill="#1F58AC"/>
</svg>
