<svg width="21" height="19" viewBox="0 0 21 19" fill="none" xmlns="http://www.w3.org/2000/svg">
<path d="M19.5594 0.322724C19.3782 0.165763 19.1578 0.0610347 18.9216 0.0197496C18.6855 -0.0215355 18.4425 0.00217706 18.2188 0.0883489L0.912575 6.88522C0.647035 6.9881 0.422158 7.17454 0.271873 7.41643C0.121589 7.65832 0.0540513 7.94252 0.0794515 8.22616C0.104852 8.50979 0.221811 8.77747 0.412683 8.98881C0.603554 9.20014 0.857982 9.34367 1.13758 9.39772L5.68445 10.3071V15.9509C5.68476 16.2094 5.76144 16.4622 5.90488 16.6773C6.04832 16.8925 6.25212 17.0605 6.4907 17.1602C6.65157 17.2258 6.82326 17.2608 6.99695 17.2633C7.16947 17.2644 7.34045 17.2309 7.49984 17.1649C7.65923 17.0989 7.80381 17.0017 7.92507 16.879L10.4844 14.3196L14.3094 17.6852C14.5464 17.8977 14.8537 18.0146 15.1719 18.0133C15.3091 18.0145 15.4454 17.9923 15.5751 17.9477C15.7916 17.8789 15.9861 17.7543 16.1392 17.5864C16.2922 17.4186 16.3984 17.2134 16.4469 16.9915L19.9813 1.6071C20.0341 1.37488 20.0228 1.13267 19.9485 0.906418C19.8741 0.680163 19.7397 0.478393 19.5594 0.322724ZM1.21257 8.12272C1.20602 8.0832 1.21374 8.04264 1.23435 8.00829C1.25496 7.97394 1.28712 7.94804 1.32508 7.93522L15.8094 2.2446L6.1157 9.24772L1.36258 8.29147C1.32114 8.28684 1.28289 8.26704 1.2552 8.23588C1.2275 8.20472 1.21232 8.16441 1.21257 8.12272ZM7.1282 16.0821C7.1022 16.1094 7.06823 16.1277 7.03117 16.1344C6.99412 16.1411 6.95588 16.136 6.92195 16.1196C6.88899 16.1052 6.86086 16.0817 6.84091 16.0517C6.82097 16.0218 6.81005 15.9868 6.80945 15.9509V11.0852L9.63132 13.579L7.1282 16.0821ZM15.3594 16.7383C15.353 16.7709 15.3381 16.8011 15.3162 16.826C15.2943 16.8509 15.2662 16.8695 15.2348 16.88C15.2033 16.8905 15.1697 16.8924 15.1372 16.8856C15.1048 16.8789 15.0747 16.8636 15.0501 16.8415L7.14695 9.88522L18.8657 1.42897L15.3594 16.7383Z" fill="#1F58AC"/>
</svg>
