<svg width="130" height="70" viewBox="0 0 130 70" fill="none" xmlns="http://www.w3.org/2000/svg">
<path d="M75.6365 2.36698C76.2901 2.36698 76.8199 1.83711 76.8199 1.18349C76.8199 0.52987 76.2901 0 75.6365 0C74.983 0 74.4531 0.52987 74.4531 1.18349C74.4531 1.83711 74.983 2.36698 75.6365 2.36698Z" fill="#C2DBFF"/>
<path d="M80.9549 2.36698C81.6085 2.36698 82.1383 1.83711 82.1383 1.18349C82.1383 0.52987 81.6085 0 80.9549 0C80.3013 0 79.7715 0.52987 79.7715 1.18349C79.7715 1.83711 80.3013 2.36698 80.9549 2.36698Z" fill="#C2DBFF"/>
<path d="M86.2752 2.36698C86.9288 2.36698 87.4586 1.83711 87.4586 1.18349C87.4586 0.52987 86.9288 0 86.2752 0C85.6216 0 85.0918 0.52987 85.0918 1.18349C85.0918 1.83711 85.6216 2.36698 86.2752 2.36698Z" fill="#C2DBFF"/>
<path d="M91.5897 2.36698C92.2432 2.36698 92.7731 1.83711 92.7731 1.18349C92.7731 0.52987 92.2432 0 91.5897 0C90.9361 0 90.4062 0.52987 90.4062 1.18349C90.4062 1.83711 90.9361 2.36698 91.5897 2.36698Z" fill="#C2DBFF"/>
<path d="M38.4119 7.50372C39.0655 7.50372 39.5953 6.97385 39.5953 6.32022C39.5953 5.66659 39.0655 5.13672 38.4119 5.13672C37.7583 5.13672 37.2285 5.66659 37.2285 6.32022C37.2285 6.97385 37.7583 7.50372 38.4119 7.50372Z" fill="#C2DBFF"/>
<path d="M43.7283 7.50372C44.3819 7.50372 44.9117 6.97385 44.9117 6.32022C44.9117 5.66659 44.3819 5.13672 43.7283 5.13672C43.0747 5.13672 42.5449 5.66659 42.5449 6.32022C42.5449 6.97385 43.0747 7.50372 43.7283 7.50372Z" fill="#C2DBFF"/>
<path d="M49.0447 7.50372C49.6983 7.50372 50.2281 6.97385 50.2281 6.32022C50.2281 5.66659 49.6983 5.13672 49.0447 5.13672C48.3912 5.13672 47.8613 5.66659 47.8613 6.32022C47.8613 6.97385 48.3912 7.50372 49.0447 7.50372Z" fill="#C2DBFF"/>
<path d="M54.3631 7.50372C55.0167 7.50372 55.5465 6.97385 55.5465 6.32022C55.5465 5.66659 55.0167 5.13672 54.3631 5.13672C53.7095 5.13672 53.1797 5.66659 53.1797 6.32022C53.1797 6.97385 53.7095 7.50372 54.3631 7.50372Z" fill="#C2DBFF"/>
<path d="M59.6815 7.50372C60.335 7.50372 60.8649 6.97385 60.8649 6.32022C60.8649 5.66659 60.335 5.13672 59.6815 5.13672C59.0279 5.13672 58.498 5.66659 58.498 6.32022C58.498 6.97385 59.0279 7.50372 59.6815 7.50372Z" fill="#C2DBFF"/>
<path d="M70.3182 7.50372C70.9717 7.50372 71.5016 6.97385 71.5016 6.32022C71.5016 5.66659 70.9717 5.13672 70.3182 5.13672C69.6646 5.13672 69.1348 5.66659 69.1348 6.32022C69.1348 6.97385 69.6646 7.50372 70.3182 7.50372Z" fill="#C2DBFF"/>
<path d="M75.6365 7.50372C76.2901 7.50372 76.8199 6.97385 76.8199 6.32022C76.8199 5.66659 76.2901 5.13672 75.6365 5.13672C74.983 5.13672 74.4531 5.66659 74.4531 6.32022C74.4531 6.97385 74.983 7.50372 75.6365 7.50372Z" fill="#C2DBFF"/>
<path d="M80.9549 7.50372C81.6085 7.50372 82.1383 6.97385 82.1383 6.32022C82.1383 5.66659 81.6085 5.13672 80.9549 5.13672C80.3013 5.13672 79.7715 5.66659 79.7715 6.32022C79.7715 6.97385 80.3013 7.50372 80.9549 7.50372Z" fill="#C2DBFF"/>
<path d="M86.2752 7.50372C86.9288 7.50372 87.4586 6.97385 87.4586 6.32022C87.4586 5.66659 86.9288 5.13672 86.2752 5.13672C85.6216 5.13672 85.0918 5.66659 85.0918 6.32022C85.0918 6.97385 85.6216 7.50372 86.2752 7.50372Z" fill="#C2DBFF"/>
<path d="M91.5897 7.50372C92.2432 7.50372 92.7731 6.97385 92.7731 6.32022C92.7731 5.66659 92.2432 5.13672 91.5897 5.13672C90.9361 5.13672 90.4062 5.66659 90.4062 6.32022C90.4062 6.97385 90.9361 7.50372 91.5897 7.50372Z" fill="#C2DBFF"/>
<path d="M96.91 7.50372C97.5635 7.50372 98.0934 6.97385 98.0934 6.32022C98.0934 5.66659 97.5635 5.13672 96.91 5.13672C96.2564 5.13672 95.7266 5.66659 95.7266 6.32022C95.7266 6.97385 96.2564 7.50372 96.91 7.50372Z" fill="#C2DBFF"/>
<path d="M33.0936 12.6365C33.7471 12.6365 34.277 12.1066 34.277 11.453C34.277 10.7994 33.7471 10.2695 33.0936 10.2695C32.44 10.2695 31.9102 10.7994 31.9102 11.453C31.9102 12.1066 32.44 12.6365 33.0936 12.6365Z" fill="#C2DBFF"/>
<path d="M38.4119 12.6365C39.0655 12.6365 39.5953 12.1066 39.5953 11.453C39.5953 10.7994 39.0655 10.2695 38.4119 10.2695C37.7583 10.2695 37.2285 10.7994 37.2285 11.453C37.2285 12.1066 37.7583 12.6365 38.4119 12.6365Z" fill="#C2DBFF"/>
<path d="M43.7283 12.6365C44.3819 12.6365 44.9117 12.1066 44.9117 11.453C44.9117 10.7994 44.3819 10.2695 43.7283 10.2695C43.0747 10.2695 42.5449 10.7994 42.5449 11.453C42.5449 12.1066 43.0747 12.6365 43.7283 12.6365Z" fill="#C2DBFF"/>
<path d="M49.0447 12.6365C49.6983 12.6365 50.2281 12.1066 50.2281 11.453C50.2281 10.7994 49.6983 10.2695 49.0447 10.2695C48.3912 10.2695 47.8613 10.7994 47.8613 11.453C47.8613 12.1066 48.3912 12.6365 49.0447 12.6365Z" fill="#C2DBFF"/>
<path d="M54.3631 12.6365C55.0167 12.6365 55.5465 12.1066 55.5465 11.453C55.5465 10.7994 55.0167 10.2695 54.3631 10.2695C53.7095 10.2695 53.1797 10.7994 53.1797 11.453C53.1797 12.1066 53.7095 12.6365 54.3631 12.6365Z" fill="#C2DBFF"/>
<path d="M59.6815 12.6365C60.335 12.6365 60.8649 12.1066 60.8649 11.453C60.8649 10.7994 60.335 10.2695 59.6815 10.2695C59.0279 10.2695 58.498 10.7994 58.498 11.453C58.498 12.1066 59.0279 12.6365 59.6815 12.6365Z" fill="#C2DBFF"/>
<path d="M64.9979 12.6365C65.6514 12.6365 66.1813 12.1066 66.1813 11.453C66.1813 10.7994 65.6514 10.2695 64.9979 10.2695C64.3443 10.2695 63.8145 10.7994 63.8145 11.453C63.8145 12.1066 64.3443 12.6365 64.9979 12.6365Z" fill="#C2DBFF"/>
<path d="M70.3182 12.6365C70.9717 12.6365 71.5016 12.1066 71.5016 11.453C71.5016 10.7994 70.9717 10.2695 70.3182 10.2695C69.6646 10.2695 69.1348 10.7994 69.1348 11.453C69.1348 12.1066 69.6646 12.6365 70.3182 12.6365Z" fill="#C2DBFF"/>
<path d="M75.6365 12.6365C76.2901 12.6365 76.8199 12.1066 76.8199 11.453C76.8199 10.7994 76.2901 10.2695 75.6365 10.2695C74.983 10.2695 74.4531 10.7994 74.4531 11.453C74.4531 12.1066 74.983 12.6365 75.6365 12.6365Z" fill="#C2DBFF"/>
<path d="M80.9549 12.6365C81.6085 12.6365 82.1383 12.1066 82.1383 11.453C82.1383 10.7994 81.6085 10.2695 80.9549 10.2695C80.3013 10.2695 79.7715 10.7994 79.7715 11.453C79.7715 12.1066 80.3013 12.6365 80.9549 12.6365Z" fill="#C2DBFF"/>
<path d="M86.2752 12.6365C86.9288 12.6365 87.4586 12.1066 87.4586 11.453C87.4586 10.7994 86.9288 10.2695 86.2752 10.2695C85.6216 10.2695 85.0918 10.7994 85.0918 11.453C85.0918 12.1066 85.6216 12.6365 86.2752 12.6365Z" fill="#C2DBFF"/>
<path d="M91.5897 12.6365C92.2432 12.6365 92.7731 12.1066 92.7731 11.453C92.7731 10.7994 92.2432 10.2695 91.5897 10.2695C90.9361 10.2695 90.4062 10.7994 90.4062 11.453C90.4062 12.1066 90.9361 12.6365 91.5897 12.6365Z" fill="#C2DBFF"/>
<path d="M96.91 12.6365C97.5635 12.6365 98.0934 12.1066 98.0934 11.453C98.0934 10.7994 97.5635 10.2695 96.91 10.2695C96.2564 10.2695 95.7266 10.7994 95.7266 11.453C95.7266 12.1066 96.2564 12.6365 96.91 12.6365Z" fill="#C2DBFF"/>
<path d="M102.226 12.6365C102.88 12.6365 103.41 12.1066 103.41 11.453C103.41 10.7994 102.88 10.2695 102.226 10.2695C101.573 10.2695 101.043 10.7994 101.043 11.453C101.043 12.1066 101.573 12.6365 102.226 12.6365Z" fill="#C2DBFF"/>
<path d="M17.1385 17.7772C17.7921 17.7772 18.3219 17.2473 18.3219 16.5937C18.3219 15.94 17.7921 15.4102 17.1385 15.4102C16.4849 15.4102 15.9551 15.94 15.9551 16.5937C15.9551 17.2473 16.4849 17.7772 17.1385 17.7772Z" fill="#C2DBFF"/>
<path d="M22.4568 17.7772C23.1104 17.7772 23.6402 17.2473 23.6402 16.5937C23.6402 15.94 23.1104 15.4102 22.4568 15.4102C21.8033 15.4102 21.2734 15.94 21.2734 16.5937C21.2734 17.2473 21.8033 17.7772 22.4568 17.7772Z" fill="#C2DBFF"/>
<path d="M27.7732 17.7772C28.4268 17.7772 28.9567 17.2473 28.9567 16.5937C28.9567 15.94 28.4268 15.4102 27.7732 15.4102C27.1197 15.4102 26.5898 15.94 26.5898 16.5937C26.5898 17.2473 27.1197 17.7772 27.7732 17.7772Z" fill="#C2DBFF"/>
<path d="M33.0936 17.7772C33.7471 17.7772 34.277 17.2473 34.277 16.5937C34.277 15.94 33.7471 15.4102 33.0936 15.4102C32.44 15.4102 31.9102 15.94 31.9102 16.5937C31.9102 17.2473 32.44 17.7772 33.0936 17.7772Z" fill="#C2DBFF"/>
<path d="M38.4119 17.7772C39.0655 17.7772 39.5953 17.2473 39.5953 16.5937C39.5953 15.94 39.0655 15.4102 38.4119 15.4102C37.7583 15.4102 37.2285 15.94 37.2285 16.5937C37.2285 17.2473 37.7583 17.7772 38.4119 17.7772Z" fill="#C2DBFF"/>
<path d="M43.7283 17.7772C44.3819 17.7772 44.9117 17.2473 44.9117 16.5937C44.9117 15.94 44.3819 15.4102 43.7283 15.4102C43.0747 15.4102 42.5449 15.94 42.5449 16.5937C42.5449 17.2473 43.0747 17.7772 43.7283 17.7772Z" fill="#C2DBFF"/>
<path d="M49.0447 17.7772C49.6983 17.7772 50.2281 17.2473 50.2281 16.5937C50.2281 15.94 49.6983 15.4102 49.0447 15.4102C48.3912 15.4102 47.8613 15.94 47.8613 16.5937C47.8613 17.2473 48.3912 17.7772 49.0447 17.7772Z" fill="#C2DBFF"/>
<path d="M54.3631 17.7772C55.0167 17.7772 55.5465 17.2473 55.5465 16.5937C55.5465 15.94 55.0167 15.4102 54.3631 15.4102C53.7095 15.4102 53.1797 15.94 53.1797 16.5937C53.1797 17.2473 53.7095 17.7772 54.3631 17.7772Z" fill="#C2DBFF"/>
<path d="M59.6815 17.7772C60.335 17.7772 60.8649 17.2473 60.8649 16.5937C60.8649 15.94 60.335 15.4102 59.6815 15.4102C59.0279 15.4102 58.498 15.94 58.498 16.5937C58.498 17.2473 59.0279 17.7772 59.6815 17.7772Z" fill="#C2DBFF"/>
<path d="M64.9979 17.7772C65.6514 17.7772 66.1813 17.2473 66.1813 16.5937C66.1813 15.94 65.6514 15.4102 64.9979 15.4102C64.3443 15.4102 63.8145 15.94 63.8145 16.5937C63.8145 17.2473 64.3443 17.7772 64.9979 17.7772Z" fill="#C2DBFF"/>
<path d="M70.3182 17.7772C70.9717 17.7772 71.5016 17.2473 71.5016 16.5937C71.5016 15.94 70.9717 15.4102 70.3182 15.4102C69.6646 15.4102 69.1348 15.94 69.1348 16.5937C69.1348 17.2473 69.6646 17.7772 70.3182 17.7772Z" fill="#C2DBFF"/>
<path d="M75.6365 17.7772C76.2901 17.7772 76.8199 17.2473 76.8199 16.5937C76.8199 15.94 76.2901 15.4102 75.6365 15.4102C74.983 15.4102 74.4531 15.94 74.4531 16.5937C74.4531 17.2473 74.983 17.7772 75.6365 17.7772Z" fill="#C2DBFF"/>
<path d="M80.9549 17.7772C81.6085 17.7772 82.1383 17.2473 82.1383 16.5937C82.1383 15.94 81.6085 15.4102 80.9549 15.4102C80.3013 15.4102 79.7715 15.94 79.7715 16.5937C79.7715 17.2473 80.3013 17.7772 80.9549 17.7772Z" fill="#C2DBFF"/>
<path d="M86.2752 17.7772C86.9288 17.7772 87.4586 17.2473 87.4586 16.5937C87.4586 15.94 86.9288 15.4102 86.2752 15.4102C85.6216 15.4102 85.0918 15.94 85.0918 16.5937C85.0918 17.2473 85.6216 17.7772 86.2752 17.7772Z" fill="#C2DBFF"/>
<path d="M91.5897 17.7772C92.2432 17.7772 92.7731 17.2473 92.7731 16.5937C92.7731 15.94 92.2432 15.4102 91.5897 15.4102C90.9361 15.4102 90.4062 15.94 90.4062 16.5937C90.4062 17.2473 90.9361 17.7772 91.5897 17.7772Z" fill="#C2DBFF"/>
<path d="M96.91 17.7772C97.5635 17.7772 98.0934 17.2473 98.0934 16.5937C98.0934 15.94 97.5635 15.4102 96.91 15.4102C96.2564 15.4102 95.7266 15.94 95.7266 16.5937C95.7266 17.2473 96.2564 17.7772 96.91 17.7772Z" fill="#C2DBFF"/>
<path d="M102.226 17.7772C102.88 17.7772 103.41 17.2473 103.41 16.5937C103.41 15.94 102.88 15.4102 102.226 15.4102C101.573 15.4102 101.043 15.94 101.043 16.5937C101.043 17.2473 101.573 17.7772 102.226 17.7772Z" fill="#C2DBFF"/>
<path d="M11.8182 22.9139C12.4717 22.9139 13.0016 22.384 13.0016 21.7304C13.0016 21.0767 12.4717 20.5469 11.8182 20.5469C11.1646 20.5469 10.6348 21.0767 10.6348 21.7304C10.6348 22.384 11.1646 22.9139 11.8182 22.9139Z" fill="#C2DBFF"/>
<path d="M17.1385 22.9139C17.7921 22.9139 18.3219 22.384 18.3219 21.7304C18.3219 21.0767 17.7921 20.5469 17.1385 20.5469C16.4849 20.5469 15.9551 21.0767 15.9551 21.7304C15.9551 22.384 16.4849 22.9139 17.1385 22.9139Z" fill="#C2DBFF"/>
<path d="M22.4568 22.9139C23.1104 22.9139 23.6402 22.384 23.6402 21.7304C23.6402 21.0767 23.1104 20.5469 22.4568 20.5469C21.8033 20.5469 21.2734 21.0767 21.2734 21.7304C21.2734 22.384 21.8033 22.9139 22.4568 22.9139Z" fill="#C2DBFF"/>
<path d="M27.7732 22.9139C28.4268 22.9139 28.9567 22.384 28.9567 21.7304C28.9567 21.0767 28.4268 20.5469 27.7732 20.5469C27.1197 20.5469 26.5898 21.0767 26.5898 21.7304C26.5898 22.384 27.1197 22.9139 27.7732 22.9139Z" fill="#C2DBFF"/>
<path d="M33.0936 22.9139C33.7471 22.9139 34.277 22.384 34.277 21.7304C34.277 21.0767 33.7471 20.5469 33.0936 20.5469C32.44 20.5469 31.9102 21.0767 31.9102 21.7304C31.9102 22.384 32.44 22.9139 33.0936 22.9139Z" fill="#C2DBFF"/>
<path d="M38.4119 22.9139C39.0655 22.9139 39.5953 22.384 39.5953 21.7304C39.5953 21.0767 39.0655 20.5469 38.4119 20.5469C37.7583 20.5469 37.2285 21.0767 37.2285 21.7304C37.2285 22.384 37.7583 22.9139 38.4119 22.9139Z" fill="#C2DBFF"/>
<path d="M43.7283 22.9139C44.3819 22.9139 44.9117 22.384 44.9117 21.7304C44.9117 21.0767 44.3819 20.5469 43.7283 20.5469C43.0747 20.5469 42.5449 21.0767 42.5449 21.7304C42.5449 22.384 43.0747 22.9139 43.7283 22.9139Z" fill="#C2DBFF"/>
<path d="M49.0447 22.9139C49.6983 22.9139 50.2281 22.384 50.2281 21.7304C50.2281 21.0767 49.6983 20.5469 49.0447 20.5469C48.3912 20.5469 47.8613 21.0767 47.8613 21.7304C47.8613 22.384 48.3912 22.9139 49.0447 22.9139Z" fill="#C2DBFF"/>
<path d="M54.3631 22.9139C55.0167 22.9139 55.5465 22.384 55.5465 21.7304C55.5465 21.0767 55.0167 20.5469 54.3631 20.5469C53.7095 20.5469 53.1797 21.0767 53.1797 21.7304C53.1797 22.384 53.7095 22.9139 54.3631 22.9139Z" fill="#C2DBFF"/>
<path d="M59.6815 22.9139C60.335 22.9139 60.8649 22.384 60.8649 21.7304C60.8649 21.0767 60.335 20.5469 59.6815 20.5469C59.0279 20.5469 58.498 21.0767 58.498 21.7304C58.498 22.384 59.0279 22.9139 59.6815 22.9139Z" fill="#C2DBFF"/>
<path d="M64.9979 22.9139C65.6514 22.9139 66.1813 22.384 66.1813 21.7304C66.1813 21.0767 65.6514 20.5469 64.9979 20.5469C64.3443 20.5469 63.8145 21.0767 63.8145 21.7304C63.8145 22.384 64.3443 22.9139 64.9979 22.9139Z" fill="#C2DBFF"/>
<path d="M70.3182 22.9139C70.9717 22.9139 71.5016 22.384 71.5016 21.7304C71.5016 21.0767 70.9717 20.5469 70.3182 20.5469C69.6646 20.5469 69.1348 21.0767 69.1348 21.7304C69.1348 22.384 69.6646 22.9139 70.3182 22.9139Z" fill="#C2DBFF"/>
<path d="M75.6365 22.9139C76.2901 22.9139 76.8199 22.384 76.8199 21.7304C76.8199 21.0767 76.2901 20.5469 75.6365 20.5469C74.983 20.5469 74.4531 21.0767 74.4531 21.7304C74.4531 22.384 74.983 22.9139 75.6365 22.9139Z" fill="#C2DBFF"/>
<path d="M80.9549 22.9139C81.6085 22.9139 82.1383 22.384 82.1383 21.7304C82.1383 21.0767 81.6085 20.5469 80.9549 20.5469C80.3013 20.5469 79.7715 21.0767 79.7715 21.7304C79.7715 22.384 80.3013 22.9139 80.9549 22.9139Z" fill="#C2DBFF"/>
<path d="M86.2752 22.9139C86.9288 22.9139 87.4586 22.384 87.4586 21.7304C87.4586 21.0767 86.9288 20.5469 86.2752 20.5469C85.6216 20.5469 85.0918 21.0767 85.0918 21.7304C85.0918 22.384 85.6216 22.9139 86.2752 22.9139Z" fill="#C2DBFF"/>
<path d="M91.5897 22.9139C92.2432 22.9139 92.7731 22.384 92.7731 21.7304C92.7731 21.0767 92.2432 20.5469 91.5897 20.5469C90.9361 20.5469 90.4062 21.0767 90.4062 21.7304C90.4062 22.384 90.9361 22.9139 91.5897 22.9139Z" fill="#C2DBFF"/>
<path d="M96.91 22.9139C97.5635 22.9139 98.0934 22.384 98.0934 21.7304C98.0934 21.0767 97.5635 20.5469 96.91 20.5469C96.2564 20.5469 95.7266 21.0767 95.7266 21.7304C95.7266 22.384 96.2564 22.9139 96.91 22.9139Z" fill="#C2DBFF"/>
<path d="M102.226 22.9139C102.88 22.9139 103.41 22.384 103.41 21.7304C103.41 21.0767 102.88 20.5469 102.226 20.5469C101.573 20.5469 101.043 21.0767 101.043 21.7304C101.043 22.384 101.573 22.9139 102.226 22.9139Z" fill="#C2DBFF"/>
<path d="M11.8182 28.0506C12.4717 28.0506 13.0016 27.5207 13.0016 26.8671C13.0016 26.2135 12.4717 25.6836 11.8182 25.6836C11.1646 25.6836 10.6348 26.2135 10.6348 26.8671C10.6348 27.5207 11.1646 28.0506 11.8182 28.0506Z" fill="#C2DBFF"/>
<path d="M17.1385 28.0506C17.7921 28.0506 18.3219 27.5207 18.3219 26.8671C18.3219 26.2135 17.7921 25.6836 17.1385 25.6836C16.4849 25.6836 15.9551 26.2135 15.9551 26.8671C15.9551 27.5207 16.4849 28.0506 17.1385 28.0506Z" fill="#C2DBFF"/>
<path d="M22.4568 28.0506C23.1104 28.0506 23.6402 27.5207 23.6402 26.8671C23.6402 26.2135 23.1104 25.6836 22.4568 25.6836C21.8033 25.6836 21.2734 26.2135 21.2734 26.8671C21.2734 27.5207 21.8033 28.0506 22.4568 28.0506Z" fill="#C2DBFF"/>
<path d="M27.7732 28.0506C28.4268 28.0506 28.9567 27.5207 28.9567 26.8671C28.9567 26.2135 28.4268 25.6836 27.7732 25.6836C27.1197 25.6836 26.5898 26.2135 26.5898 26.8671C26.5898 27.5207 27.1197 28.0506 27.7732 28.0506Z" fill="#C2DBFF"/>
<path d="M33.0936 28.0506C33.7471 28.0506 34.277 27.5207 34.277 26.8671C34.277 26.2135 33.7471 25.6836 33.0936 25.6836C32.44 25.6836 31.9102 26.2135 31.9102 26.8671C31.9102 27.5207 32.44 28.0506 33.0936 28.0506Z" fill="#C2DBFF"/>
<path d="M38.4119 28.0506C39.0655 28.0506 39.5953 27.5207 39.5953 26.8671C39.5953 26.2135 39.0655 25.6836 38.4119 25.6836C37.7583 25.6836 37.2285 26.2135 37.2285 26.8671C37.2285 27.5207 37.7583 28.0506 38.4119 28.0506Z" fill="#C2DBFF"/>
<path d="M43.7283 28.0506C44.3819 28.0506 44.9117 27.5207 44.9117 26.8671C44.9117 26.2135 44.3819 25.6836 43.7283 25.6836C43.0747 25.6836 42.5449 26.2135 42.5449 26.8671C42.5449 27.5207 43.0747 28.0506 43.7283 28.0506Z" fill="#C2DBFF"/>
<path d="M49.0447 28.0506C49.6983 28.0506 50.2281 27.5207 50.2281 26.8671C50.2281 26.2135 49.6983 25.6836 49.0447 25.6836C48.3912 25.6836 47.8613 26.2135 47.8613 26.8671C47.8613 27.5207 48.3912 28.0506 49.0447 28.0506Z" fill="#C2DBFF"/>
<path d="M54.3631 28.0506C55.0167 28.0506 55.5465 27.5207 55.5465 26.8671C55.5465 26.2135 55.0167 25.6836 54.3631 25.6836C53.7095 25.6836 53.1797 26.2135 53.1797 26.8671C53.1797 27.5207 53.7095 28.0506 54.3631 28.0506Z" fill="#C2DBFF"/>
<path d="M59.6815 28.0506C60.335 28.0506 60.8649 27.5207 60.8649 26.8671C60.8649 26.2135 60.335 25.6836 59.6815 25.6836C59.0279 25.6836 58.498 26.2135 58.498 26.8671C58.498 27.5207 59.0279 28.0506 59.6815 28.0506Z" fill="#C2DBFF"/>
<path d="M64.9979 28.0506C65.6514 28.0506 66.1813 27.5207 66.1813 26.8671C66.1813 26.2135 65.6514 25.6836 64.9979 25.6836C64.3443 25.6836 63.8145 26.2135 63.8145 26.8671C63.8145 27.5207 64.3443 28.0506 64.9979 28.0506Z" fill="#C2DBFF"/>
<path d="M70.3182 28.0506C70.9717 28.0506 71.5016 27.5207 71.5016 26.8671C71.5016 26.2135 70.9717 25.6836 70.3182 25.6836C69.6646 25.6836 69.1348 26.2135 69.1348 26.8671C69.1348 27.5207 69.6646 28.0506 70.3182 28.0506Z" fill="#C2DBFF"/>
<path d="M75.6365 28.0506C76.2901 28.0506 76.8199 27.5207 76.8199 26.8671C76.8199 26.2135 76.2901 25.6836 75.6365 25.6836C74.983 25.6836 74.4531 26.2135 74.4531 26.8671C74.4531 27.5207 74.983 28.0506 75.6365 28.0506Z" fill="#C2DBFF"/>
<path d="M80.9549 28.0506C81.6085 28.0506 82.1383 27.5207 82.1383 26.8671C82.1383 26.2135 81.6085 25.6836 80.9549 25.6836C80.3013 25.6836 79.7715 26.2135 79.7715 26.8671C79.7715 27.5207 80.3013 28.0506 80.9549 28.0506Z" fill="#C2DBFF"/>
<path d="M86.2752 28.0506C86.9288 28.0506 87.4586 27.5207 87.4586 26.8671C87.4586 26.2135 86.9288 25.6836 86.2752 25.6836C85.6216 25.6836 85.0918 26.2135 85.0918 26.8671C85.0918 27.5207 85.6216 28.0506 86.2752 28.0506Z" fill="#C2DBFF"/>
<path d="M91.5897 28.0506C92.2432 28.0506 92.7731 27.5207 92.7731 26.8671C92.7731 26.2135 92.2432 25.6836 91.5897 25.6836C90.9361 25.6836 90.4062 26.2135 90.4062 26.8671C90.4062 27.5207 90.9361 28.0506 91.5897 28.0506Z" fill="#C2DBFF"/>
<path d="M96.91 28.0506C97.5635 28.0506 98.0934 27.5207 98.0934 26.8671C98.0934 26.2135 97.5635 25.6836 96.91 25.6836C96.2564 25.6836 95.7266 26.2135 95.7266 26.8671C95.7266 27.5207 96.2564 28.0506 96.91 28.0506Z" fill="#C2DBFF"/>
<path d="M102.226 28.0506C102.88 28.0506 103.41 27.5207 103.41 26.8671C103.41 26.2135 102.88 25.6836 102.226 25.6836C101.573 25.6836 101.043 26.2135 101.043 26.8671C101.043 27.5207 101.573 28.0506 102.226 28.0506Z" fill="#C2DBFF"/>
<path d="M107.545 28.0506C108.198 28.0506 108.728 27.5207 108.728 26.8671C108.728 26.2135 108.198 25.6836 107.545 25.6836C106.891 25.6836 106.361 26.2135 106.361 26.8671C106.361 27.5207 106.891 28.0506 107.545 28.0506Z" fill="#C2DBFF"/>
<path d="M112.859 28.0506C113.513 28.0506 114.043 27.5207 114.043 26.8671C114.043 26.2135 113.513 25.6836 112.859 25.6836C112.206 25.6836 111.676 26.2135 111.676 26.8671C111.676 27.5207 112.206 28.0506 112.859 28.0506Z" fill="#C2DBFF"/>
<path d="M6.50176 33.1834C7.15534 33.1834 7.68516 32.6535 7.68516 31.9999C7.68516 31.3463 7.15534 30.8164 6.50176 30.8164C5.84819 30.8164 5.31836 31.3463 5.31836 31.9999C5.31836 32.6535 5.84819 33.1834 6.50176 33.1834Z" fill="#C2DBFF"/>
<path d="M11.8182 33.1834C12.4717 33.1834 13.0016 32.6535 13.0016 31.9999C13.0016 31.3463 12.4717 30.8164 11.8182 30.8164C11.1646 30.8164 10.6348 31.3463 10.6348 31.9999C10.6348 32.6535 11.1646 33.1834 11.8182 33.1834Z" fill="#C2DBFF"/>
<path d="M17.1385 33.1834C17.7921 33.1834 18.3219 32.6535 18.3219 31.9999C18.3219 31.3463 17.7921 30.8164 17.1385 30.8164C16.4849 30.8164 15.9551 31.3463 15.9551 31.9999C15.9551 32.6535 16.4849 33.1834 17.1385 33.1834Z" fill="#C2DBFF"/>
<path d="M22.4568 33.1834C23.1104 33.1834 23.6402 32.6535 23.6402 31.9999C23.6402 31.3463 23.1104 30.8164 22.4568 30.8164C21.8033 30.8164 21.2734 31.3463 21.2734 31.9999C21.2734 32.6535 21.8033 33.1834 22.4568 33.1834Z" fill="#C2DBFF"/>
<path d="M27.7732 33.1834C28.4268 33.1834 28.9567 32.6535 28.9567 31.9999C28.9567 31.3463 28.4268 30.8164 27.7732 30.8164C27.1197 30.8164 26.5898 31.3463 26.5898 31.9999C26.5898 32.6535 27.1197 33.1834 27.7732 33.1834Z" fill="#C2DBFF"/>
<path d="M33.0936 33.1834C33.7471 33.1834 34.277 32.6535 34.277 31.9999C34.277 31.3463 33.7471 30.8164 33.0936 30.8164C32.44 30.8164 31.9102 31.3463 31.9102 31.9999C31.9102 32.6535 32.44 33.1834 33.0936 33.1834Z" fill="#C2DBFF"/>
<path d="M38.4119 33.1834C39.0655 33.1834 39.5953 32.6535 39.5953 31.9999C39.5953 31.3463 39.0655 30.8164 38.4119 30.8164C37.7583 30.8164 37.2285 31.3463 37.2285 31.9999C37.2285 32.6535 37.7583 33.1834 38.4119 33.1834Z" fill="#C2DBFF"/>
<path d="M43.7283 33.1834C44.3819 33.1834 44.9117 32.6535 44.9117 31.9999C44.9117 31.3463 44.3819 30.8164 43.7283 30.8164C43.0747 30.8164 42.5449 31.3463 42.5449 31.9999C42.5449 32.6535 43.0747 33.1834 43.7283 33.1834Z" fill="#C2DBFF"/>
<path d="M49.0447 33.1834C49.6983 33.1834 50.2281 32.6535 50.2281 31.9999C50.2281 31.3463 49.6983 30.8164 49.0447 30.8164C48.3912 30.8164 47.8613 31.3463 47.8613 31.9999C47.8613 32.6535 48.3912 33.1834 49.0447 33.1834Z" fill="#C2DBFF"/>
<path d="M54.3631 33.1834C55.0167 33.1834 55.5465 32.6535 55.5465 31.9999C55.5465 31.3463 55.0167 30.8164 54.3631 30.8164C53.7095 30.8164 53.1797 31.3463 53.1797 31.9999C53.1797 32.6535 53.7095 33.1834 54.3631 33.1834Z" fill="#C2DBFF"/>
<path d="M59.6815 33.1834C60.335 33.1834 60.8649 32.6535 60.8649 31.9999C60.8649 31.3463 60.335 30.8164 59.6815 30.8164C59.0279 30.8164 58.498 31.3463 58.498 31.9999C58.498 32.6535 59.0279 33.1834 59.6815 33.1834Z" fill="#C2DBFF"/>
<path d="M64.9979 33.1834C65.6514 33.1834 66.1813 32.6535 66.1813 31.9999C66.1813 31.3463 65.6514 30.8164 64.9979 30.8164C64.3443 30.8164 63.8145 31.3463 63.8145 31.9999C63.8145 32.6535 64.3443 33.1834 64.9979 33.1834Z" fill="#C2DBFF"/>
<path d="M70.3182 33.1834C70.9717 33.1834 71.5016 32.6535 71.5016 31.9999C71.5016 31.3463 70.9717 30.8164 70.3182 30.8164C69.6646 30.8164 69.1348 31.3463 69.1348 31.9999C69.1348 32.6535 69.6646 33.1834 70.3182 33.1834Z" fill="#C2DBFF"/>
<path d="M75.6365 33.1834C76.2901 33.1834 76.8199 32.6535 76.8199 31.9999C76.8199 31.3463 76.2901 30.8164 75.6365 30.8164C74.983 30.8164 74.4531 31.3463 74.4531 31.9999C74.4531 32.6535 74.983 33.1834 75.6365 33.1834Z" fill="#C2DBFF"/>
<path d="M80.9549 33.1834C81.6085 33.1834 82.1383 32.6535 82.1383 31.9999C82.1383 31.3463 81.6085 30.8164 80.9549 30.8164C80.3013 30.8164 79.7715 31.3463 79.7715 31.9999C79.7715 32.6535 80.3013 33.1834 80.9549 33.1834Z" fill="#C2DBFF"/>
<path d="M86.2752 33.1834C86.9288 33.1834 87.4586 32.6535 87.4586 31.9999C87.4586 31.3463 86.9288 30.8164 86.2752 30.8164C85.6216 30.8164 85.0918 31.3463 85.0918 31.9999C85.0918 32.6535 85.6216 33.1834 86.2752 33.1834Z" fill="#C2DBFF"/>
<path d="M91.5897 33.1834C92.2432 33.1834 92.7731 32.6535 92.7731 31.9999C92.7731 31.3463 92.2432 30.8164 91.5897 30.8164C90.9361 30.8164 90.4062 31.3463 90.4062 31.9999C90.4062 32.6535 90.9361 33.1834 91.5897 33.1834Z" fill="#C2DBFF"/>
<path d="M96.91 33.1834C97.5635 33.1834 98.0934 32.6535 98.0934 31.9999C98.0934 31.3463 97.5635 30.8164 96.91 30.8164C96.2564 30.8164 95.7266 31.3463 95.7266 31.9999C95.7266 32.6535 96.2564 33.1834 96.91 33.1834Z" fill="#C2DBFF"/>
<path d="M102.226 33.1834C102.88 33.1834 103.41 32.6535 103.41 31.9999C103.41 31.3463 102.88 30.8164 102.226 30.8164C101.573 30.8164 101.043 31.3463 101.043 31.9999C101.043 32.6535 101.573 33.1834 102.226 33.1834Z" fill="#C2DBFF"/>
<path d="M107.545 33.1834C108.198 33.1834 108.728 32.6535 108.728 31.9999C108.728 31.3463 108.198 30.8164 107.545 30.8164C106.891 30.8164 106.361 31.3463 106.361 31.9999C106.361 32.6535 106.891 33.1834 107.545 33.1834Z" fill="#C2DBFF"/>
<path d="M112.859 33.1834C113.513 33.1834 114.043 32.6535 114.043 31.9999C114.043 31.3463 113.513 30.8164 112.859 30.8164C112.206 30.8164 111.676 31.3463 111.676 31.9999C111.676 32.6535 112.206 33.1834 112.859 33.1834Z" fill="#C2DBFF"/>
<path d="M118.181 33.1834C118.835 33.1834 119.365 32.6535 119.365 31.9999C119.365 31.3463 118.835 30.8164 118.181 30.8164C117.528 30.8164 116.998 31.3463 116.998 31.9999C116.998 32.6535 117.528 33.1834 118.181 33.1834Z" fill="#C2DBFF"/>
<path d="M1.1834 38.3201C1.83698 38.3201 2.36681 37.7902 2.36681 37.1366C2.36681 36.483 1.83698 35.9531 1.1834 35.9531C0.529827 35.9531 0 36.483 0 37.1366C0 37.7902 0.529827 38.3201 1.1834 38.3201Z" fill="#C2DBFF"/>
<path d="M6.50176 38.3201C7.15534 38.3201 7.68516 37.7902 7.68516 37.1366C7.68516 36.483 7.15534 35.9531 6.50176 35.9531C5.84819 35.9531 5.31836 36.483 5.31836 37.1366C5.31836 37.7902 5.84819 38.3201 6.50176 38.3201Z" fill="#C2DBFF"/>
<path d="M11.8182 38.3201C12.4717 38.3201 13.0016 37.7902 13.0016 37.1366C13.0016 36.483 12.4717 35.9531 11.8182 35.9531C11.1646 35.9531 10.6348 36.483 10.6348 37.1366C10.6348 37.7902 11.1646 38.3201 11.8182 38.3201Z" fill="#C2DBFF"/>
<path d="M17.1385 38.3201C17.7921 38.3201 18.3219 37.7902 18.3219 37.1366C18.3219 36.483 17.7921 35.9531 17.1385 35.9531C16.4849 35.9531 15.9551 36.483 15.9551 37.1366C15.9551 37.7902 16.4849 38.3201 17.1385 38.3201Z" fill="#C2DBFF"/>
<path d="M22.4568 38.3201C23.1104 38.3201 23.6402 37.7902 23.6402 37.1366C23.6402 36.483 23.1104 35.9531 22.4568 35.9531C21.8033 35.9531 21.2734 36.483 21.2734 37.1366C21.2734 37.7902 21.8033 38.3201 22.4568 38.3201Z" fill="#C2DBFF"/>
<path d="M27.7732 38.3201C28.4268 38.3201 28.9567 37.7902 28.9567 37.1366C28.9567 36.483 28.4268 35.9531 27.7732 35.9531C27.1197 35.9531 26.5898 36.483 26.5898 37.1366C26.5898 37.7902 27.1197 38.3201 27.7732 38.3201Z" fill="#C2DBFF"/>
<path d="M33.0936 38.3201C33.7471 38.3201 34.277 37.7902 34.277 37.1366C34.277 36.483 33.7471 35.9531 33.0936 35.9531C32.44 35.9531 31.9102 36.483 31.9102 37.1366C31.9102 37.7902 32.44 38.3201 33.0936 38.3201Z" fill="#C2DBFF"/>
<path d="M38.4119 38.3201C39.0655 38.3201 39.5953 37.7902 39.5953 37.1366C39.5953 36.483 39.0655 35.9531 38.4119 35.9531C37.7583 35.9531 37.2285 36.483 37.2285 37.1366C37.2285 37.7902 37.7583 38.3201 38.4119 38.3201Z" fill="#C2DBFF"/>
<path d="M43.7283 38.3201C44.3819 38.3201 44.9117 37.7902 44.9117 37.1366C44.9117 36.483 44.3819 35.9531 43.7283 35.9531C43.0747 35.9531 42.5449 36.483 42.5449 37.1366C42.5449 37.7902 43.0747 38.3201 43.7283 38.3201Z" fill="#C2DBFF"/>
<path d="M49.0447 38.3201C49.6983 38.3201 50.2281 37.7902 50.2281 37.1366C50.2281 36.483 49.6983 35.9531 49.0447 35.9531C48.3912 35.9531 47.8613 36.483 47.8613 37.1366C47.8613 37.7902 48.3912 38.3201 49.0447 38.3201Z" fill="#C2DBFF"/>
<path d="M54.3631 38.3201C55.0167 38.3201 55.5465 37.7902 55.5465 37.1366C55.5465 36.483 55.0167 35.9531 54.3631 35.9531C53.7095 35.9531 53.1797 36.483 53.1797 37.1366C53.1797 37.7902 53.7095 38.3201 54.3631 38.3201Z" fill="#C2DBFF"/>
<path d="M59.6815 38.3201C60.335 38.3201 60.8649 37.7902 60.8649 37.1366C60.8649 36.483 60.335 35.9531 59.6815 35.9531C59.0279 35.9531 58.498 36.483 58.498 37.1366C58.498 37.7902 59.0279 38.3201 59.6815 38.3201Z" fill="#C2DBFF"/>
<path d="M64.9979 38.3201C65.6514 38.3201 66.1813 37.7902 66.1813 37.1366C66.1813 36.483 65.6514 35.9531 64.9979 35.9531C64.3443 35.9531 63.8145 36.483 63.8145 37.1366C63.8145 37.7902 64.3443 38.3201 64.9979 38.3201Z" fill="#C2DBFF"/>
<path d="M70.3182 38.3201C70.9717 38.3201 71.5016 37.7902 71.5016 37.1366C71.5016 36.483 70.9717 35.9531 70.3182 35.9531C69.6646 35.9531 69.1348 36.483 69.1348 37.1366C69.1348 37.7902 69.6646 38.3201 70.3182 38.3201Z" fill="#C2DBFF"/>
<path d="M75.6365 38.3201C76.2901 38.3201 76.8199 37.7902 76.8199 37.1366C76.8199 36.483 76.2901 35.9531 75.6365 35.9531C74.983 35.9531 74.4531 36.483 74.4531 37.1366C74.4531 37.7902 74.983 38.3201 75.6365 38.3201Z" fill="#C2DBFF"/>
<path d="M80.9549 38.3201C81.6085 38.3201 82.1383 37.7902 82.1383 37.1366C82.1383 36.483 81.6085 35.9531 80.9549 35.9531C80.3013 35.9531 79.7715 36.483 79.7715 37.1366C79.7715 37.7902 80.3013 38.3201 80.9549 38.3201Z" fill="#C2DBFF"/>
<path d="M86.2752 38.3201C86.9288 38.3201 87.4586 37.7902 87.4586 37.1366C87.4586 36.483 86.9288 35.9531 86.2752 35.9531C85.6216 35.9531 85.0918 36.483 85.0918 37.1366C85.0918 37.7902 85.6216 38.3201 86.2752 38.3201Z" fill="#C2DBFF"/>
<path d="M91.5897 38.3201C92.2432 38.3201 92.7731 37.7902 92.7731 37.1366C92.7731 36.483 92.2432 35.9531 91.5897 35.9531C90.9361 35.9531 90.4062 36.483 90.4062 37.1366C90.4062 37.7902 90.9361 38.3201 91.5897 38.3201Z" fill="#C2DBFF"/>
<path d="M96.91 38.3201C97.5635 38.3201 98.0934 37.7902 98.0934 37.1366C98.0934 36.483 97.5635 35.9531 96.91 35.9531C96.2564 35.9531 95.7266 36.483 95.7266 37.1366C95.7266 37.7902 96.2564 38.3201 96.91 38.3201Z" fill="#C2DBFF"/>
<path d="M102.226 38.3201C102.88 38.3201 103.41 37.7902 103.41 37.1366C103.41 36.483 102.88 35.9531 102.226 35.9531C101.573 35.9531 101.043 36.483 101.043 37.1366C101.043 37.7902 101.573 38.3201 102.226 38.3201Z" fill="#C2DBFF"/>
<path d="M107.545 38.3201C108.198 38.3201 108.728 37.7902 108.728 37.1366C108.728 36.483 108.198 35.9531 107.545 35.9531C106.891 35.9531 106.361 36.483 106.361 37.1366C106.361 37.7902 106.891 38.3201 107.545 38.3201Z" fill="#C2DBFF"/>
<path d="M112.859 38.3201C113.513 38.3201 114.043 37.7902 114.043 37.1366C114.043 36.483 113.513 35.9531 112.859 35.9531C112.206 35.9531 111.676 36.483 111.676 37.1366C111.676 37.7902 112.206 38.3201 112.859 38.3201Z" fill="#C2DBFF"/>
<path d="M118.181 38.3201C118.835 38.3201 119.365 37.7902 119.365 37.1366C119.365 36.483 118.835 35.9531 118.181 35.9531C117.528 35.9531 116.998 36.483 116.998 37.1366C116.998 37.7902 117.528 38.3201 118.181 38.3201Z" fill="#C2DBFF"/>
<path d="M123.5 38.3201C124.153 38.3201 124.683 37.7902 124.683 37.1366C124.683 36.483 124.153 35.9531 123.5 35.9531C122.846 35.9531 122.316 36.483 122.316 37.1366C122.316 37.7902 122.846 38.3201 123.5 38.3201Z" fill="#C2DBFF"/>
<path d="M1.1834 43.4607C1.83698 43.4607 2.36681 42.9309 2.36681 42.2772C2.36681 41.6236 1.83698 41.0938 1.1834 41.0938C0.529827 41.0938 0 41.6236 0 42.2772C0 42.9309 0.529827 43.4607 1.1834 43.4607Z" fill="#C2DBFF"/>
<path d="M6.50176 43.4607C7.15534 43.4607 7.68516 42.9309 7.68516 42.2772C7.68516 41.6236 7.15534 41.0938 6.50176 41.0938C5.84819 41.0938 5.31836 41.6236 5.31836 42.2772C5.31836 42.9309 5.84819 43.4607 6.50176 43.4607Z" fill="#C2DBFF"/>
<path d="M11.8182 43.4607C12.4717 43.4607 13.0016 42.9309 13.0016 42.2772C13.0016 41.6236 12.4717 41.0938 11.8182 41.0938C11.1646 41.0938 10.6348 41.6236 10.6348 42.2772C10.6348 42.9309 11.1646 43.4607 11.8182 43.4607Z" fill="#C2DBFF"/>
<path d="M17.1385 43.4607C17.7921 43.4607 18.3219 42.9309 18.3219 42.2772C18.3219 41.6236 17.7921 41.0938 17.1385 41.0938C16.4849 41.0938 15.9551 41.6236 15.9551 42.2772C15.9551 42.9309 16.4849 43.4607 17.1385 43.4607Z" fill="#C2DBFF"/>
<path d="M22.4568 43.4607C23.1104 43.4607 23.6402 42.9309 23.6402 42.2772C23.6402 41.6236 23.1104 41.0938 22.4568 41.0938C21.8033 41.0938 21.2734 41.6236 21.2734 42.2772C21.2734 42.9309 21.8033 43.4607 22.4568 43.4607Z" fill="#C2DBFF"/>
<path d="M27.7732 43.4607C28.4268 43.4607 28.9567 42.9309 28.9567 42.2772C28.9567 41.6236 28.4268 41.0938 27.7732 41.0938C27.1197 41.0938 26.5898 41.6236 26.5898 42.2772C26.5898 42.9309 27.1197 43.4607 27.7732 43.4607Z" fill="#C2DBFF"/>
<path d="M33.0936 43.4607C33.7471 43.4607 34.277 42.9309 34.277 42.2772C34.277 41.6236 33.7471 41.0938 33.0936 41.0938C32.44 41.0938 31.9102 41.6236 31.9102 42.2772C31.9102 42.9309 32.44 43.4607 33.0936 43.4607Z" fill="#C2DBFF"/>
<path d="M38.4119 43.4607C39.0655 43.4607 39.5953 42.9309 39.5953 42.2772C39.5953 41.6236 39.0655 41.0938 38.4119 41.0938C37.7583 41.0938 37.2285 41.6236 37.2285 42.2772C37.2285 42.9309 37.7583 43.4607 38.4119 43.4607Z" fill="#C2DBFF"/>
<path d="M43.7283 43.4607C44.3819 43.4607 44.9117 42.9309 44.9117 42.2772C44.9117 41.6236 44.3819 41.0938 43.7283 41.0938C43.0747 41.0938 42.5449 41.6236 42.5449 42.2772C42.5449 42.9309 43.0747 43.4607 43.7283 43.4607Z" fill="#C2DBFF"/>
<path d="M49.0447 43.4607C49.6983 43.4607 50.2281 42.9309 50.2281 42.2772C50.2281 41.6236 49.6983 41.0938 49.0447 41.0938C48.3912 41.0938 47.8613 41.6236 47.8613 42.2772C47.8613 42.9309 48.3912 43.4607 49.0447 43.4607Z" fill="#C2DBFF"/>
<path d="M54.3631 43.4607C55.0167 43.4607 55.5465 42.9309 55.5465 42.2772C55.5465 41.6236 55.0167 41.0938 54.3631 41.0938C53.7095 41.0938 53.1797 41.6236 53.1797 42.2772C53.1797 42.9309 53.7095 43.4607 54.3631 43.4607Z" fill="#C2DBFF"/>
<path d="M59.6815 43.4607C60.335 43.4607 60.8649 42.9309 60.8649 42.2772C60.8649 41.6236 60.335 41.0938 59.6815 41.0938C59.0279 41.0938 58.498 41.6236 58.498 42.2772C58.498 42.9309 59.0279 43.4607 59.6815 43.4607Z" fill="#C2DBFF"/>
<path d="M64.9979 43.4607C65.6514 43.4607 66.1813 42.9309 66.1813 42.2772C66.1813 41.6236 65.6514 41.0938 64.9979 41.0938C64.3443 41.0938 63.8145 41.6236 63.8145 42.2772C63.8145 42.9309 64.3443 43.4607 64.9979 43.4607Z" fill="#C2DBFF"/>
<path d="M70.3182 43.4607C70.9717 43.4607 71.5016 42.9309 71.5016 42.2772C71.5016 41.6236 70.9717 41.0938 70.3182 41.0938C69.6646 41.0938 69.1348 41.6236 69.1348 42.2772C69.1348 42.9309 69.6646 43.4607 70.3182 43.4607Z" fill="#C2DBFF"/>
<path d="M75.6365 43.4607C76.2901 43.4607 76.8199 42.9309 76.8199 42.2772C76.8199 41.6236 76.2901 41.0938 75.6365 41.0938C74.983 41.0938 74.4531 41.6236 74.4531 42.2772C74.4531 42.9309 74.983 43.4607 75.6365 43.4607Z" fill="#C2DBFF"/>
<path d="M80.9549 43.4607C81.6085 43.4607 82.1383 42.9309 82.1383 42.2772C82.1383 41.6236 81.6085 41.0938 80.9549 41.0938C80.3013 41.0938 79.7715 41.6236 79.7715 42.2772C79.7715 42.9309 80.3013 43.4607 80.9549 43.4607Z" fill="#C2DBFF"/>
<path d="M86.2752 43.4607C86.9288 43.4607 87.4586 42.9309 87.4586 42.2772C87.4586 41.6236 86.9288 41.0938 86.2752 41.0938C85.6216 41.0938 85.0918 41.6236 85.0918 42.2772C85.0918 42.9309 85.6216 43.4607 86.2752 43.4607Z" fill="#C2DBFF"/>
<path d="M91.5897 43.4607C92.2432 43.4607 92.7731 42.9309 92.7731 42.2772C92.7731 41.6236 92.2432 41.0938 91.5897 41.0938C90.9361 41.0938 90.4062 41.6236 90.4062 42.2772C90.4062 42.9309 90.9361 43.4607 91.5897 43.4607Z" fill="#C2DBFF"/>
<path d="M96.91 43.4607C97.5635 43.4607 98.0934 42.9309 98.0934 42.2772C98.0934 41.6236 97.5635 41.0938 96.91 41.0938C96.2564 41.0938 95.7266 41.6236 95.7266 42.2772C95.7266 42.9309 96.2564 43.4607 96.91 43.4607Z" fill="#C2DBFF"/>
<path d="M102.226 43.4607C102.88 43.4607 103.41 42.9309 103.41 42.2772C103.41 41.6236 102.88 41.0938 102.226 41.0938C101.573 41.0938 101.043 41.6236 101.043 42.2772C101.043 42.9309 101.573 43.4607 102.226 43.4607Z" fill="#C2DBFF"/>
<path d="M107.545 43.4607C108.198 43.4607 108.728 42.9309 108.728 42.2772C108.728 41.6236 108.198 41.0938 107.545 41.0938C106.891 41.0938 106.361 41.6236 106.361 42.2772C106.361 42.9309 106.891 43.4607 107.545 43.4607Z" fill="#C2DBFF"/>
<path d="M112.859 43.4607C113.513 43.4607 114.043 42.9309 114.043 42.2772C114.043 41.6236 113.513 41.0938 112.859 41.0938C112.206 41.0938 111.676 41.6236 111.676 42.2772C111.676 42.9309 112.206 43.4607 112.859 43.4607Z" fill="#C2DBFF"/>
<path d="M118.181 43.4607C118.835 43.4607 119.365 42.9309 119.365 42.2772C119.365 41.6236 118.835 41.0938 118.181 41.0938C117.528 41.0938 116.998 41.6236 116.998 42.2772C116.998 42.9309 117.528 43.4607 118.181 43.4607Z" fill="#C2DBFF"/>
<path d="M123.5 43.4607C124.153 43.4607 124.683 42.9309 124.683 42.2772C124.683 41.6236 124.153 41.0938 123.5 41.0938C122.846 41.0938 122.316 41.6236 122.316 42.2772C122.316 42.9309 122.846 43.4607 123.5 43.4607Z" fill="#C2DBFF"/>
<path d="M128.816 43.4607C129.47 43.4607 130 42.9309 130 42.2772C130 41.6236 129.47 41.0938 128.816 41.0938C128.163 41.0938 127.633 41.6236 127.633 42.2772C127.633 42.9309 128.163 43.4607 128.816 43.4607Z" fill="#C2DBFF"/>
<path d="M1.1834 48.5896C1.83698 48.5896 2.36681 48.0598 2.36681 47.4061C2.36681 46.7525 1.83698 46.2227 1.1834 46.2227C0.529827 46.2227 0 46.7525 0 47.4061C0 48.0598 0.529827 48.5896 1.1834 48.5896Z" fill="#C2DBFF"/>
<path d="M6.50176 48.5896C7.15534 48.5896 7.68516 48.0598 7.68516 47.4061C7.68516 46.7525 7.15534 46.2227 6.50176 46.2227C5.84819 46.2227 5.31836 46.7525 5.31836 47.4061C5.31836 48.0598 5.84819 48.5896 6.50176 48.5896Z" fill="#C2DBFF"/>
<path d="M11.8182 48.5896C12.4717 48.5896 13.0016 48.0598 13.0016 47.4061C13.0016 46.7525 12.4717 46.2227 11.8182 46.2227C11.1646 46.2227 10.6348 46.7525 10.6348 47.4061C10.6348 48.0598 11.1646 48.5896 11.8182 48.5896Z" fill="#C2DBFF"/>
<path d="M17.1385 48.5896C17.7921 48.5896 18.3219 48.0598 18.3219 47.4061C18.3219 46.7525 17.7921 46.2227 17.1385 46.2227C16.4849 46.2227 15.9551 46.7525 15.9551 47.4061C15.9551 48.0598 16.4849 48.5896 17.1385 48.5896Z" fill="#C2DBFF"/>
<path d="M22.4568 48.5896C23.1104 48.5896 23.6402 48.0598 23.6402 47.4061C23.6402 46.7525 23.1104 46.2227 22.4568 46.2227C21.8033 46.2227 21.2734 46.7525 21.2734 47.4061C21.2734 48.0598 21.8033 48.5896 22.4568 48.5896Z" fill="#C2DBFF"/>
<path d="M27.7732 48.5896C28.4268 48.5896 28.9567 48.0598 28.9567 47.4061C28.9567 46.7525 28.4268 46.2227 27.7732 46.2227C27.1197 46.2227 26.5898 46.7525 26.5898 47.4061C26.5898 48.0598 27.1197 48.5896 27.7732 48.5896Z" fill="#C2DBFF"/>
<path d="M33.0936 48.5896C33.7471 48.5896 34.277 48.0598 34.277 47.4061C34.277 46.7525 33.7471 46.2227 33.0936 46.2227C32.44 46.2227 31.9102 46.7525 31.9102 47.4061C31.9102 48.0598 32.44 48.5896 33.0936 48.5896Z" fill="#C2DBFF"/>
<path d="M38.4119 48.5896C39.0655 48.5896 39.5953 48.0598 39.5953 47.4061C39.5953 46.7525 39.0655 46.2227 38.4119 46.2227C37.7583 46.2227 37.2285 46.7525 37.2285 47.4061C37.2285 48.0598 37.7583 48.5896 38.4119 48.5896Z" fill="#C2DBFF"/>
<path d="M43.7283 48.5896C44.3819 48.5896 44.9117 48.0598 44.9117 47.4061C44.9117 46.7525 44.3819 46.2227 43.7283 46.2227C43.0747 46.2227 42.5449 46.7525 42.5449 47.4061C42.5449 48.0598 43.0747 48.5896 43.7283 48.5896Z" fill="#C2DBFF"/>
<path d="M49.0447 48.5896C49.6983 48.5896 50.2281 48.0598 50.2281 47.4061C50.2281 46.7525 49.6983 46.2227 49.0447 46.2227C48.3912 46.2227 47.8613 46.7525 47.8613 47.4061C47.8613 48.0598 48.3912 48.5896 49.0447 48.5896Z" fill="#C2DBFF"/>
<path d="M54.3631 48.5896C55.0167 48.5896 55.5465 48.0598 55.5465 47.4061C55.5465 46.7525 55.0167 46.2227 54.3631 46.2227C53.7095 46.2227 53.1797 46.7525 53.1797 47.4061C53.1797 48.0598 53.7095 48.5896 54.3631 48.5896Z" fill="#C2DBFF"/>
<path d="M59.6815 48.5896C60.335 48.5896 60.8649 48.0598 60.8649 47.4061C60.8649 46.7525 60.335 46.2227 59.6815 46.2227C59.0279 46.2227 58.498 46.7525 58.498 47.4061C58.498 48.0598 59.0279 48.5896 59.6815 48.5896Z" fill="#C2DBFF"/>
<path d="M64.9979 48.5896C65.6514 48.5896 66.1813 48.0598 66.1813 47.4061C66.1813 46.7525 65.6514 46.2227 64.9979 46.2227C64.3443 46.2227 63.8145 46.7525 63.8145 47.4061C63.8145 48.0598 64.3443 48.5896 64.9979 48.5896Z" fill="#C2DBFF"/>
<path d="M70.3182 48.5896C70.9717 48.5896 71.5016 48.0598 71.5016 47.4061C71.5016 46.7525 70.9717 46.2227 70.3182 46.2227C69.6646 46.2227 69.1348 46.7525 69.1348 47.4061C69.1348 48.0598 69.6646 48.5896 70.3182 48.5896Z" fill="#C2DBFF"/>
<path d="M75.6365 48.5896C76.2901 48.5896 76.8199 48.0598 76.8199 47.4061C76.8199 46.7525 76.2901 46.2227 75.6365 46.2227C74.983 46.2227 74.4531 46.7525 74.4531 47.4061C74.4531 48.0598 74.983 48.5896 75.6365 48.5896Z" fill="#C2DBFF"/>
<path d="M80.9549 48.5896C81.6085 48.5896 82.1383 48.0598 82.1383 47.4061C82.1383 46.7525 81.6085 46.2227 80.9549 46.2227C80.3013 46.2227 79.7715 46.7525 79.7715 47.4061C79.7715 48.0598 80.3013 48.5896 80.9549 48.5896Z" fill="#C2DBFF"/>
<path d="M86.2752 48.5896C86.9288 48.5896 87.4586 48.0598 87.4586 47.4061C87.4586 46.7525 86.9288 46.2227 86.2752 46.2227C85.6216 46.2227 85.0918 46.7525 85.0918 47.4061C85.0918 48.0598 85.6216 48.5896 86.2752 48.5896Z" fill="#C2DBFF"/>
<path d="M91.5897 48.5896C92.2432 48.5896 92.7731 48.0598 92.7731 47.4061C92.7731 46.7525 92.2432 46.2227 91.5897 46.2227C90.9361 46.2227 90.4062 46.7525 90.4062 47.4061C90.4062 48.0598 90.9361 48.5896 91.5897 48.5896Z" fill="#C2DBFF"/>
<path d="M96.91 48.5896C97.5635 48.5896 98.0934 48.0598 98.0934 47.4061C98.0934 46.7525 97.5635 46.2227 96.91 46.2227C96.2564 46.2227 95.7266 46.7525 95.7266 47.4061C95.7266 48.0598 96.2564 48.5896 96.91 48.5896Z" fill="#C2DBFF"/>
<path d="M102.226 48.5896C102.88 48.5896 103.41 48.0598 103.41 47.4061C103.41 46.7525 102.88 46.2227 102.226 46.2227C101.573 46.2227 101.043 46.7525 101.043 47.4061C101.043 48.0598 101.573 48.5896 102.226 48.5896Z" fill="#C2DBFF"/>
<path d="M107.545 48.5896C108.198 48.5896 108.728 48.0598 108.728 47.4061C108.728 46.7525 108.198 46.2227 107.545 46.2227C106.891 46.2227 106.361 46.7525 106.361 47.4061C106.361 48.0598 106.891 48.5896 107.545 48.5896Z" fill="#C2DBFF"/>
<path d="M112.859 48.5896C113.513 48.5896 114.043 48.0598 114.043 47.4061C114.043 46.7525 113.513 46.2227 112.859 46.2227C112.206 46.2227 111.676 46.7525 111.676 47.4061C111.676 48.0598 112.206 48.5896 112.859 48.5896Z" fill="#C2DBFF"/>
<path d="M118.181 48.5896C118.835 48.5896 119.365 48.0598 119.365 47.4061C119.365 46.7525 118.835 46.2227 118.181 46.2227C117.528 46.2227 116.998 46.7525 116.998 47.4061C116.998 48.0598 117.528 48.5896 118.181 48.5896Z" fill="#C2DBFF"/>
<path d="M123.5 48.5896C124.153 48.5896 124.683 48.0598 124.683 47.4061C124.683 46.7525 124.153 46.2227 123.5 46.2227C122.846 46.2227 122.316 46.7525 122.316 47.4061C122.316 48.0598 122.846 48.5896 123.5 48.5896Z" fill="#C2DBFF"/>
<path d="M128.816 48.5896C129.47 48.5896 130 48.0598 130 47.4061C130 46.7525 129.47 46.2227 128.816 46.2227C128.163 46.2227 127.633 46.7525 127.633 47.4061C127.633 48.0598 128.163 48.5896 128.816 48.5896Z" fill="#C2DBFF"/>
<path d="M11.8182 53.7303C12.4717 53.7303 13.0016 53.2004 13.0016 52.5468C13.0016 51.8932 12.4717 51.3633 11.8182 51.3633C11.1646 51.3633 10.6348 51.8932 10.6348 52.5468C10.6348 53.2004 11.1646 53.7303 11.8182 53.7303Z" fill="#C2DBFF"/>
<path d="M17.1385 53.7303C17.7921 53.7303 18.3219 53.2004 18.3219 52.5468C18.3219 51.8932 17.7921 51.3633 17.1385 51.3633C16.4849 51.3633 15.9551 51.8932 15.9551 52.5468C15.9551 53.2004 16.4849 53.7303 17.1385 53.7303Z" fill="#C2DBFF"/>
<path d="M22.4568 53.7303C23.1104 53.7303 23.6402 53.2004 23.6402 52.5468C23.6402 51.8932 23.1104 51.3633 22.4568 51.3633C21.8033 51.3633 21.2734 51.8932 21.2734 52.5468C21.2734 53.2004 21.8033 53.7303 22.4568 53.7303Z" fill="#C2DBFF"/>
<path d="M27.7732 53.7303C28.4268 53.7303 28.9567 53.2004 28.9567 52.5468C28.9567 51.8932 28.4268 51.3633 27.7732 51.3633C27.1197 51.3633 26.5898 51.8932 26.5898 52.5468C26.5898 53.2004 27.1197 53.7303 27.7732 53.7303Z" fill="#C2DBFF"/>
<path d="M33.0936 53.7303C33.7471 53.7303 34.277 53.2004 34.277 52.5468C34.277 51.8932 33.7471 51.3633 33.0936 51.3633C32.44 51.3633 31.9102 51.8932 31.9102 52.5468C31.9102 53.2004 32.44 53.7303 33.0936 53.7303Z" fill="#C2DBFF"/>
<path d="M38.4119 53.7303C39.0655 53.7303 39.5953 53.2004 39.5953 52.5468C39.5953 51.8932 39.0655 51.3633 38.4119 51.3633C37.7583 51.3633 37.2285 51.8932 37.2285 52.5468C37.2285 53.2004 37.7583 53.7303 38.4119 53.7303Z" fill="#C2DBFF"/>
<path d="M43.7283 53.7303C44.3819 53.7303 44.9117 53.2004 44.9117 52.5468C44.9117 51.8932 44.3819 51.3633 43.7283 51.3633C43.0747 51.3633 42.5449 51.8932 42.5449 52.5468C42.5449 53.2004 43.0747 53.7303 43.7283 53.7303Z" fill="#C2DBFF"/>
<path d="M49.0447 53.7303C49.6983 53.7303 50.2281 53.2004 50.2281 52.5468C50.2281 51.8932 49.6983 51.3633 49.0447 51.3633C48.3912 51.3633 47.8613 51.8932 47.8613 52.5468C47.8613 53.2004 48.3912 53.7303 49.0447 53.7303Z" fill="#C2DBFF"/>
<path d="M54.3631 53.7303C55.0167 53.7303 55.5465 53.2004 55.5465 52.5468C55.5465 51.8932 55.0167 51.3633 54.3631 51.3633C53.7095 51.3633 53.1797 51.8932 53.1797 52.5468C53.1797 53.2004 53.7095 53.7303 54.3631 53.7303Z" fill="#C2DBFF"/>
<path d="M59.6815 53.7303C60.335 53.7303 60.8649 53.2004 60.8649 52.5468C60.8649 51.8932 60.335 51.3633 59.6815 51.3633C59.0279 51.3633 58.498 51.8932 58.498 52.5468C58.498 53.2004 59.0279 53.7303 59.6815 53.7303Z" fill="#C2DBFF"/>
<path d="M64.9979 53.7303C65.6514 53.7303 66.1813 53.2004 66.1813 52.5468C66.1813 51.8932 65.6514 51.3633 64.9979 51.3633C64.3443 51.3633 63.8145 51.8932 63.8145 52.5468C63.8145 53.2004 64.3443 53.7303 64.9979 53.7303Z" fill="#C2DBFF"/>
<path d="M70.3182 53.7303C70.9717 53.7303 71.5016 53.2004 71.5016 52.5468C71.5016 51.8932 70.9717 51.3633 70.3182 51.3633C69.6646 51.3633 69.1348 51.8932 69.1348 52.5468C69.1348 53.2004 69.6646 53.7303 70.3182 53.7303Z" fill="#C2DBFF"/>
<path d="M75.6365 53.7303C76.2901 53.7303 76.8199 53.2004 76.8199 52.5468C76.8199 51.8932 76.2901 51.3633 75.6365 51.3633C74.983 51.3633 74.4531 51.8932 74.4531 52.5468C74.4531 53.2004 74.983 53.7303 75.6365 53.7303Z" fill="#C2DBFF"/>
<path d="M80.9549 53.7303C81.6085 53.7303 82.1383 53.2004 82.1383 52.5468C82.1383 51.8932 81.6085 51.3633 80.9549 51.3633C80.3013 51.3633 79.7715 51.8932 79.7715 52.5468C79.7715 53.2004 80.3013 53.7303 80.9549 53.7303Z" fill="#C2DBFF"/>
<path d="M86.2752 53.7303C86.9288 53.7303 87.4586 53.2004 87.4586 52.5468C87.4586 51.8932 86.9288 51.3633 86.2752 51.3633C85.6216 51.3633 85.0918 51.8932 85.0918 52.5468C85.0918 53.2004 85.6216 53.7303 86.2752 53.7303Z" fill="#C2DBFF"/>
<path d="M91.5897 53.7303C92.2432 53.7303 92.7731 53.2004 92.7731 52.5468C92.7731 51.8932 92.2432 51.3633 91.5897 51.3633C90.9361 51.3633 90.4062 51.8932 90.4062 52.5468C90.4062 53.2004 90.9361 53.7303 91.5897 53.7303Z" fill="#C2DBFF"/>
<path d="M96.91 53.7303C97.5635 53.7303 98.0934 53.2004 98.0934 52.5468C98.0934 51.8932 97.5635 51.3633 96.91 51.3633C96.2564 51.3633 95.7266 51.8932 95.7266 52.5468C95.7266 53.2004 96.2564 53.7303 96.91 53.7303Z" fill="#C2DBFF"/>
<path d="M102.226 53.7303C102.88 53.7303 103.41 53.2004 103.41 52.5468C103.41 51.8932 102.88 51.3633 102.226 51.3633C101.573 51.3633 101.043 51.8932 101.043 52.5468C101.043 53.2004 101.573 53.7303 102.226 53.7303Z" fill="#C2DBFF"/>
<path d="M107.545 53.7303C108.198 53.7303 108.728 53.2004 108.728 52.5468C108.728 51.8932 108.198 51.3633 107.545 51.3633C106.891 51.3633 106.361 51.8932 106.361 52.5468C106.361 53.2004 106.891 53.7303 107.545 53.7303Z" fill="#C2DBFF"/>
<path d="M112.859 53.7303C113.513 53.7303 114.043 53.2004 114.043 52.5468C114.043 51.8932 113.513 51.3633 112.859 51.3633C112.206 51.3633 111.676 51.8932 111.676 52.5468C111.676 53.2004 112.206 53.7303 112.859 53.7303Z" fill="#C2DBFF"/>
<path d="M118.181 53.7303C118.835 53.7303 119.365 53.2004 119.365 52.5468C119.365 51.8932 118.835 51.3633 118.181 51.3633C117.528 51.3633 116.998 51.8932 116.998 52.5468C116.998 53.2004 117.528 53.7303 118.181 53.7303Z" fill="#C2DBFF"/>
<path d="M123.5 53.7303C124.153 53.7303 124.683 53.2004 124.683 52.5468C124.683 51.8932 124.153 51.3633 123.5 51.3633C122.846 51.3633 122.316 51.8932 122.316 52.5468C122.316 53.2004 122.846 53.7303 123.5 53.7303Z" fill="#C2DBFF"/>
<path d="M22.4568 58.867C23.1104 58.867 23.6402 58.3371 23.6402 57.6835C23.6402 57.0299 23.1104 56.5 22.4568 56.5C21.8033 56.5 21.2734 57.0299 21.2734 57.6835C21.2734 58.3371 21.8033 58.867 22.4568 58.867Z" fill="#C2DBFF"/>
<path d="M27.7732 58.867C28.4268 58.867 28.9567 58.3371 28.9567 57.6835C28.9567 57.0299 28.4268 56.5 27.7732 56.5C27.1197 56.5 26.5898 57.0299 26.5898 57.6835C26.5898 58.3371 27.1197 58.867 27.7732 58.867Z" fill="#C2DBFF"/>
<path d="M33.0936 58.867C33.7471 58.867 34.277 58.3371 34.277 57.6835C34.277 57.0299 33.7471 56.5 33.0936 56.5C32.44 56.5 31.9102 57.0299 31.9102 57.6835C31.9102 58.3371 32.44 58.867 33.0936 58.867Z" fill="#C2DBFF"/>
<path d="M43.7283 58.867C44.3819 58.867 44.9117 58.3371 44.9117 57.6835C44.9117 57.0299 44.3819 56.5 43.7283 56.5C43.0747 56.5 42.5449 57.0299 42.5449 57.6835C42.5449 58.3371 43.0747 58.867 43.7283 58.867Z" fill="#C2DBFF"/>
<path d="M49.0447 58.867C49.6983 58.867 50.2281 58.3371 50.2281 57.6835C50.2281 57.0299 49.6983 56.5 49.0447 56.5C48.3912 56.5 47.8613 57.0299 47.8613 57.6835C47.8613 58.3371 48.3912 58.867 49.0447 58.867Z" fill="#C2DBFF"/>
<path d="M54.3631 58.867C55.0167 58.867 55.5465 58.3371 55.5465 57.6835C55.5465 57.0299 55.0167 56.5 54.3631 56.5C53.7095 56.5 53.1797 57.0299 53.1797 57.6835C53.1797 58.3371 53.7095 58.867 54.3631 58.867Z" fill="#C2DBFF"/>
<path d="M59.6815 58.867C60.335 58.867 60.8649 58.3371 60.8649 57.6835C60.8649 57.0299 60.335 56.5 59.6815 56.5C59.0279 56.5 58.498 57.0299 58.498 57.6835C58.498 58.3371 59.0279 58.867 59.6815 58.867Z" fill="#C2DBFF"/>
<path d="M64.9979 58.867C65.6514 58.867 66.1813 58.3371 66.1813 57.6835C66.1813 57.0299 65.6514 56.5 64.9979 56.5C64.3443 56.5 63.8145 57.0299 63.8145 57.6835C63.8145 58.3371 64.3443 58.867 64.9979 58.867Z" fill="#C2DBFF"/>
<path d="M70.3182 58.867C70.9717 58.867 71.5016 58.3371 71.5016 57.6835C71.5016 57.0299 70.9717 56.5 70.3182 56.5C69.6646 56.5 69.1348 57.0299 69.1348 57.6835C69.1348 58.3371 69.6646 58.867 70.3182 58.867Z" fill="#C2DBFF"/>
<path d="M75.6365 58.867C76.2901 58.867 76.8199 58.3371 76.8199 57.6835C76.8199 57.0299 76.2901 56.5 75.6365 56.5C74.983 56.5 74.4531 57.0299 74.4531 57.6835C74.4531 58.3371 74.983 58.867 75.6365 58.867Z" fill="#C2DBFF"/>
<path d="M80.9549 58.867C81.6085 58.867 82.1383 58.3371 82.1383 57.6835C82.1383 57.0299 81.6085 56.5 80.9549 56.5C80.3013 56.5 79.7715 57.0299 79.7715 57.6835C79.7715 58.3371 80.3013 58.867 80.9549 58.867Z" fill="#C2DBFF"/>
<path d="M86.2752 58.867C86.9288 58.867 87.4586 58.3371 87.4586 57.6835C87.4586 57.0299 86.9288 56.5 86.2752 56.5C85.6216 56.5 85.0918 57.0299 85.0918 57.6835C85.0918 58.3371 85.6216 58.867 86.2752 58.867Z" fill="#C2DBFF"/>
<path d="M91.5897 58.867C92.2432 58.867 92.7731 58.3371 92.7731 57.6835C92.7731 57.0299 92.2432 56.5 91.5897 56.5C90.9361 56.5 90.4062 57.0299 90.4062 57.6835C90.4062 58.3371 90.9361 58.867 91.5897 58.867Z" fill="#C2DBFF"/>
<path d="M96.91 58.867C97.5635 58.867 98.0934 58.3371 98.0934 57.6835C98.0934 57.0299 97.5635 56.5 96.91 56.5C96.2564 56.5 95.7266 57.0299 95.7266 57.6835C95.7266 58.3371 96.2564 58.867 96.91 58.867Z" fill="#C2DBFF"/>
<path d="M102.226 58.867C102.88 58.867 103.41 58.3371 103.41 57.6835C103.41 57.0299 102.88 56.5 102.226 56.5C101.573 56.5 101.043 57.0299 101.043 57.6835C101.043 58.3371 101.573 58.867 102.226 58.867Z" fill="#C2DBFF"/>
<path d="M107.545 58.867C108.198 58.867 108.728 58.3371 108.728 57.6835C108.728 57.0299 108.198 56.5 107.545 56.5C106.891 56.5 106.361 57.0299 106.361 57.6835C106.361 58.3371 106.891 58.867 107.545 58.867Z" fill="#C2DBFF"/>
<path d="M112.859 58.867C113.513 58.867 114.043 58.3371 114.043 57.6835C114.043 57.0299 113.513 56.5 112.859 56.5C112.206 56.5 111.676 57.0299 111.676 57.6835C111.676 58.3371 112.206 58.867 112.859 58.867Z" fill="#C2DBFF"/>
<path d="M118.181 58.867C118.835 58.867 119.365 58.3371 119.365 57.6835C119.365 57.0299 118.835 56.5 118.181 56.5C117.528 56.5 116.998 57.0299 116.998 57.6835C116.998 58.3371 117.528 58.867 118.181 58.867Z" fill="#C2DBFF"/>
<path d="M49.0447 64.0037C49.6983 64.0037 50.2281 63.4738 50.2281 62.8202C50.2281 62.1666 49.6983 61.6367 49.0447 61.6367C48.3912 61.6367 47.8613 62.1666 47.8613 62.8202C47.8613 63.4738 48.3912 64.0037 49.0447 64.0037Z" fill="#C2DBFF"/>
<path d="M54.3631 64.0037C55.0167 64.0037 55.5465 63.4738 55.5465 62.8202C55.5465 62.1666 55.0167 61.6367 54.3631 61.6367C53.7095 61.6367 53.1797 62.1666 53.1797 62.8202C53.1797 63.4738 53.7095 64.0037 54.3631 64.0037Z" fill="#C2DBFF"/>
<path d="M59.6815 64.0037C60.335 64.0037 60.8649 63.4738 60.8649 62.8202C60.8649 62.1666 60.335 61.6367 59.6815 61.6367C59.0279 61.6367 58.498 62.1666 58.498 62.8202C58.498 63.4738 59.0279 64.0037 59.6815 64.0037Z" fill="#C2DBFF"/>
<path d="M64.9979 64.0037C65.6514 64.0037 66.1813 63.4738 66.1813 62.8202C66.1813 62.1666 65.6514 61.6367 64.9979 61.6367C64.3443 61.6367 63.8145 62.1666 63.8145 62.8202C63.8145 63.4738 64.3443 64.0037 64.9979 64.0037Z" fill="#C2DBFF"/>
<path d="M70.3182 64.0037C70.9717 64.0037 71.5016 63.4738 71.5016 62.8202C71.5016 62.1666 70.9717 61.6367 70.3182 61.6367C69.6646 61.6367 69.1348 62.1666 69.1348 62.8202C69.1348 63.4738 69.6646 64.0037 70.3182 64.0037Z" fill="#C2DBFF"/>
<path d="M75.6365 64.0037C76.2901 64.0037 76.8199 63.4738 76.8199 62.8202C76.8199 62.1666 76.2901 61.6367 75.6365 61.6367C74.983 61.6367 74.4531 62.1666 74.4531 62.8202C74.4531 63.4738 74.983 64.0037 75.6365 64.0037Z" fill="#C2DBFF"/>
<path d="M80.9549 64.0037C81.6085 64.0037 82.1383 63.4738 82.1383 62.8202C82.1383 62.1666 81.6085 61.6367 80.9549 61.6367C80.3013 61.6367 79.7715 62.1666 79.7715 62.8202C79.7715 63.4738 80.3013 64.0037 80.9549 64.0037Z" fill="#C2DBFF"/>
<path d="M86.2752 64.0037C86.9288 64.0037 87.4586 63.4738 87.4586 62.8202C87.4586 62.1666 86.9288 61.6367 86.2752 61.6367C85.6216 61.6367 85.0918 62.1666 85.0918 62.8202C85.0918 63.4738 85.6216 64.0037 86.2752 64.0037Z" fill="#C2DBFF"/>
<path d="M64.9979 69.1404C65.6514 69.1404 66.1813 68.6105 66.1813 67.9569C66.1813 67.3033 65.6514 66.7734 64.9979 66.7734C64.3443 66.7734 63.8145 67.3033 63.8145 67.9569C63.8145 68.6105 64.3443 69.1404 64.9979 69.1404Z" fill="#C2DBFF"/>
<path d="M70.3182 69.1404C70.9717 69.1404 71.5016 68.6105 71.5016 67.9569C71.5016 67.3033 70.9717 66.7734 70.3182 66.7734C69.6646 66.7734 69.1348 67.3033 69.1348 67.9569C69.1348 68.6105 69.6646 69.1404 70.3182 69.1404Z" fill="#C2DBFF"/>
<path d="M75.6365 69.1404C76.2901 69.1404 76.8199 68.6105 76.8199 67.9569C76.8199 67.3033 76.2901 66.7734 75.6365 66.7734C74.983 66.7734 74.4531 67.3033 74.4531 67.9569C74.4531 68.6105 74.983 69.1404 75.6365 69.1404Z" fill="#C2DBFF"/>
<path d="M80.9549 69.1404C81.6085 69.1404 82.1383 68.6105 82.1383 67.9569C82.1383 67.3033 81.6085 66.7734 80.9549 66.7734C80.3013 66.7734 79.7715 67.3033 79.7715 67.9569C79.7715 68.6105 80.3013 69.1404 80.9549 69.1404Z" fill="#C2DBFF"/>
</svg>
