<svg width="130" height="70" viewBox="0 0 130 70" fill="none" xmlns="http://www.w3.org/2000/svg">
<path d="M54.3635 2.36698C53.7099 2.36698 53.1801 1.83711 53.1801 1.18349C53.1801 0.52987 53.7099 0 54.3635 0C55.017 0 55.5469 0.52987 55.5469 1.18349C55.5469 1.83711 55.017 2.36698 54.3635 2.36698Z" fill="#C2DBFF"/>
<path d="M49.0451 2.36698C48.3915 2.36698 47.8617 1.83711 47.8617 1.18349C47.8617 0.52987 48.3915 0 49.0451 0C49.6987 0 50.2285 0.52987 50.2285 1.18349C50.2285 1.83711 49.6987 2.36698 49.0451 2.36698Z" fill="#C2DBFF"/>
<path d="M43.7268 2.36698C43.0732 2.36698 42.5433 1.83711 42.5433 1.18349C42.5433 0.52987 43.0732 0 43.7268 0C44.3803 0 44.9102 0.52987 44.9102 1.18349C44.9102 1.83711 44.3803 2.36698 43.7268 2.36698Z" fill="#C2DBFF"/>
<path d="M38.4103 2.36698C37.7568 2.36698 37.2269 1.83711 37.2269 1.18349C37.2269 0.52987 37.7568 0 38.4103 0C39.0639 0 39.5938 0.52987 39.5938 1.18349C39.5938 1.83711 39.0639 2.36698 38.4103 2.36698Z" fill="#C2DBFF"/>
<path d="M91.5881 7.50372C90.9345 7.50372 90.4047 6.97385 90.4047 6.32022C90.4047 5.66659 90.9345 5.13672 91.5881 5.13672C92.2417 5.13672 92.7715 5.66659 92.7715 6.32022C92.7715 6.97385 92.2417 7.50372 91.5881 7.50372Z" fill="#C2DBFF"/>
<path d="M86.2717 7.50372C85.6181 7.50372 85.0883 6.97385 85.0883 6.32022C85.0883 5.66659 85.6181 5.13672 86.2717 5.13672C86.9253 5.13672 87.4551 5.66659 87.4551 6.32022C87.4551 6.97385 86.9253 7.50372 86.2717 7.50372Z" fill="#C2DBFF"/>
<path d="M80.9553 7.50372C80.3017 7.50372 79.7719 6.97385 79.7719 6.32022C79.7719 5.66659 80.3017 5.13672 80.9553 5.13672C81.6088 5.13672 82.1387 5.66659 82.1387 6.32022C82.1387 6.97385 81.6088 7.50372 80.9553 7.50372Z" fill="#C2DBFF"/>
<path d="M75.6369 7.50372C74.9833 7.50372 74.4535 6.97385 74.4535 6.32022C74.4535 5.66659 74.9833 5.13672 75.6369 5.13672C76.2905 5.13672 76.8203 5.66659 76.8203 6.32022C76.8203 6.97385 76.2905 7.50372 75.6369 7.50372Z" fill="#C2DBFF"/>
<path d="M70.3185 7.50372C69.665 7.50372 69.1351 6.97385 69.1351 6.32022C69.1351 5.66659 69.665 5.13672 70.3185 5.13672C70.9721 5.13672 71.502 5.66659 71.502 6.32022C71.502 6.97385 70.9721 7.50372 70.3185 7.50372Z" fill="#C2DBFF"/>
<path d="M59.6818 7.50372C59.0283 7.50372 58.4984 6.97385 58.4984 6.32022C58.4984 5.66659 59.0283 5.13672 59.6818 5.13672C60.3354 5.13672 60.8652 5.66659 60.8652 6.32022C60.8652 6.97385 60.3354 7.50372 59.6818 7.50372Z" fill="#C2DBFF"/>
<path d="M54.3635 7.50372C53.7099 7.50372 53.1801 6.97385 53.1801 6.32022C53.1801 5.66659 53.7099 5.13672 54.3635 5.13672C55.017 5.13672 55.5469 5.66659 55.5469 6.32022C55.5469 6.97385 55.017 7.50372 54.3635 7.50372Z" fill="#C2DBFF"/>
<path d="M49.0451 7.50372C48.3915 7.50372 47.8617 6.97385 47.8617 6.32022C47.8617 5.66659 48.3915 5.13672 49.0451 5.13672C49.6987 5.13672 50.2285 5.66659 50.2285 6.32022C50.2285 6.97385 49.6987 7.50372 49.0451 7.50372Z" fill="#C2DBFF"/>
<path d="M43.7268 7.50372C43.0732 7.50372 42.5433 6.97385 42.5433 6.32022C42.5433 5.66659 43.0732 5.13672 43.7268 5.13672C44.3803 5.13672 44.9102 5.66659 44.9102 6.32022C44.9102 6.97385 44.3803 7.50372 43.7268 7.50372Z" fill="#C2DBFF"/>
<path d="M38.4103 7.50372C37.7568 7.50372 37.2269 6.97385 37.2269 6.32022C37.2269 5.66659 37.7568 5.13672 38.4103 5.13672C39.0639 5.13672 39.5938 5.66659 39.5938 6.32022C39.5938 6.97385 39.0639 7.50372 38.4103 7.50372Z" fill="#C2DBFF"/>
<path d="M33.09 7.50372C32.4365 7.50372 31.9066 6.97385 31.9066 6.32022C31.9066 5.66659 32.4365 5.13672 33.09 5.13672C33.7436 5.13672 34.2734 5.66659 34.2734 6.32022C34.2734 6.97385 33.7436 7.50372 33.09 7.50372Z" fill="#C2DBFF"/>
<path d="M96.9064 12.6365C96.2529 12.6365 95.723 12.1066 95.723 11.453C95.723 10.7994 96.2529 10.2695 96.9064 10.2695C97.56 10.2695 98.0898 10.7994 98.0898 11.453C98.0898 12.1066 97.56 12.6365 96.9064 12.6365Z" fill="#C2DBFF"/>
<path d="M91.5881 12.6365C90.9345 12.6365 90.4047 12.1066 90.4047 11.453C90.4047 10.7994 90.9345 10.2695 91.5881 10.2695C92.2417 10.2695 92.7715 10.7994 92.7715 11.453C92.7715 12.1066 92.2417 12.6365 91.5881 12.6365Z" fill="#C2DBFF"/>
<path d="M86.2717 12.6365C85.6181 12.6365 85.0883 12.1066 85.0883 11.453C85.0883 10.7994 85.6181 10.2695 86.2717 10.2695C86.9253 10.2695 87.4551 10.7994 87.4551 11.453C87.4551 12.1066 86.9253 12.6365 86.2717 12.6365Z" fill="#C2DBFF"/>
<path d="M80.9553 12.6365C80.3017 12.6365 79.7719 12.1066 79.7719 11.453C79.7719 10.7994 80.3017 10.2695 80.9553 10.2695C81.6088 10.2695 82.1387 10.7994 82.1387 11.453C82.1387 12.1066 81.6088 12.6365 80.9553 12.6365Z" fill="#C2DBFF"/>
<path d="M75.6369 12.6365C74.9833 12.6365 74.4535 12.1066 74.4535 11.453C74.4535 10.7994 74.9833 10.2695 75.6369 10.2695C76.2905 10.2695 76.8203 10.7994 76.8203 11.453C76.8203 12.1066 76.2905 12.6365 75.6369 12.6365Z" fill="#C2DBFF"/>
<path d="M70.3185 12.6365C69.665 12.6365 69.1351 12.1066 69.1351 11.453C69.1351 10.7994 69.665 10.2695 70.3185 10.2695C70.9721 10.2695 71.502 10.7994 71.502 11.453C71.502 12.1066 70.9721 12.6365 70.3185 12.6365Z" fill="#C2DBFF"/>
<path d="M65.0041 12.6365C64.3505 12.6365 63.8207 12.1066 63.8207 11.453C63.8207 10.7994 64.3505 10.2695 65.0041 10.2695C65.6577 10.2695 66.1875 10.7994 66.1875 11.453C66.1875 12.1066 65.6577 12.6365 65.0041 12.6365Z" fill="#C2DBFF"/>
<path d="M59.6818 12.6365C59.0283 12.6365 58.4984 12.1066 58.4984 11.453C58.4984 10.7994 59.0283 10.2695 59.6818 10.2695C60.3354 10.2695 60.8652 10.7994 60.8652 11.453C60.8652 12.1066 60.3354 12.6365 59.6818 12.6365Z" fill="#C2DBFF"/>
<path d="M54.3635 12.6365C53.7099 12.6365 53.1801 12.1066 53.1801 11.453C53.1801 10.7994 53.7099 10.2695 54.3635 10.2695C55.017 10.2695 55.5469 10.7994 55.5469 11.453C55.5469 12.1066 55.017 12.6365 54.3635 12.6365Z" fill="#C2DBFF"/>
<path d="M49.0451 12.6365C48.3915 12.6365 47.8617 12.1066 47.8617 11.453C47.8617 10.7994 48.3915 10.2695 49.0451 10.2695C49.6987 10.2695 50.2285 10.7994 50.2285 11.453C50.2285 12.1066 49.6987 12.6365 49.0451 12.6365Z" fill="#C2DBFF"/>
<path d="M43.7268 12.6365C43.0732 12.6365 42.5433 12.1066 42.5433 11.453C42.5433 10.7994 43.0732 10.2695 43.7268 10.2695C44.3803 10.2695 44.9102 10.7994 44.9102 11.453C44.9102 12.1066 44.3803 12.6365 43.7268 12.6365Z" fill="#C2DBFF"/>
<path d="M38.4103 12.6365C37.7568 12.6365 37.2269 12.1066 37.2269 11.453C37.2269 10.7994 37.7568 10.2695 38.4103 10.2695C39.0639 10.2695 39.5938 10.7994 39.5938 11.453C39.5938 12.1066 39.0639 12.6365 38.4103 12.6365Z" fill="#C2DBFF"/>
<path d="M33.09 12.6365C32.4365 12.6365 31.9066 12.1066 31.9066 11.453C31.9066 10.7994 32.4365 10.2695 33.09 10.2695C33.7436 10.2695 34.2734 10.7994 34.2734 11.453C34.2734 12.1066 33.7436 12.6365 33.09 12.6365Z" fill="#C2DBFF"/>
<path d="M27.7717 12.6365C27.1181 12.6365 26.5883 12.1066 26.5883 11.453C26.5883 10.7994 27.1181 10.2695 27.7717 10.2695C28.4253 10.2695 28.9551 10.7994 28.9551 11.453C28.9551 12.1066 28.4253 12.6365 27.7717 12.6365Z" fill="#C2DBFF"/>
<path d="M112.862 17.7772C112.208 17.7772 111.678 17.2473 111.678 16.5937C111.678 15.94 112.208 15.4102 112.862 15.4102C113.515 15.4102 114.045 15.94 114.045 16.5937C114.045 17.2473 113.515 17.7772 112.862 17.7772Z" fill="#C2DBFF"/>
<path d="M107.543 17.7772C106.89 17.7772 106.36 17.2473 106.36 16.5937C106.36 15.94 106.89 15.4102 107.543 15.4102C108.197 15.4102 108.727 15.94 108.727 16.5937C108.727 17.2473 108.197 17.7772 107.543 17.7772Z" fill="#C2DBFF"/>
<path d="M102.225 17.7772C101.571 17.7772 101.041 17.2473 101.041 16.5937C101.041 15.94 101.571 15.4102 102.225 15.4102C102.878 15.4102 103.408 15.94 103.408 16.5937C103.408 17.2473 102.878 17.7772 102.225 17.7772Z" fill="#C2DBFF"/>
<path d="M96.9064 17.7772C96.2529 17.7772 95.723 17.2473 95.723 16.5937C95.723 15.94 96.2529 15.4102 96.9064 15.4102C97.56 15.4102 98.0898 15.94 98.0898 16.5937C98.0898 17.2473 97.56 17.7772 96.9064 17.7772Z" fill="#C2DBFF"/>
<path d="M91.5881 17.7772C90.9345 17.7772 90.4047 17.2473 90.4047 16.5937C90.4047 15.94 90.9345 15.4102 91.5881 15.4102C92.2417 15.4102 92.7715 15.94 92.7715 16.5937C92.7715 17.2473 92.2417 17.7772 91.5881 17.7772Z" fill="#C2DBFF"/>
<path d="M86.2717 17.7772C85.6181 17.7772 85.0883 17.2473 85.0883 16.5937C85.0883 15.94 85.6181 15.4102 86.2717 15.4102C86.9253 15.4102 87.4551 15.94 87.4551 16.5937C87.4551 17.2473 86.9253 17.7772 86.2717 17.7772Z" fill="#C2DBFF"/>
<path d="M80.9553 17.7772C80.3017 17.7772 79.7719 17.2473 79.7719 16.5937C79.7719 15.94 80.3017 15.4102 80.9553 15.4102C81.6088 15.4102 82.1387 15.94 82.1387 16.5937C82.1387 17.2473 81.6088 17.7772 80.9553 17.7772Z" fill="#C2DBFF"/>
<path d="M75.6369 17.7772C74.9833 17.7772 74.4535 17.2473 74.4535 16.5937C74.4535 15.94 74.9833 15.4102 75.6369 15.4102C76.2905 15.4102 76.8203 15.94 76.8203 16.5937C76.8203 17.2473 76.2905 17.7772 75.6369 17.7772Z" fill="#C2DBFF"/>
<path d="M70.3185 17.7772C69.665 17.7772 69.1351 17.2473 69.1351 16.5937C69.1351 15.94 69.665 15.4102 70.3185 15.4102C70.9721 15.4102 71.502 15.94 71.502 16.5937C71.502 17.2473 70.9721 17.7772 70.3185 17.7772Z" fill="#C2DBFF"/>
<path d="M65.0041 17.7772C64.3505 17.7772 63.8207 17.2473 63.8207 16.5937C63.8207 15.94 64.3505 15.4102 65.0041 15.4102C65.6577 15.4102 66.1875 15.94 66.1875 16.5937C66.1875 17.2473 65.6577 17.7772 65.0041 17.7772Z" fill="#C2DBFF"/>
<path d="M59.6818 17.7772C59.0283 17.7772 58.4984 17.2473 58.4984 16.5937C58.4984 15.94 59.0283 15.4102 59.6818 15.4102C60.3354 15.4102 60.8652 15.94 60.8652 16.5937C60.8652 17.2473 60.3354 17.7772 59.6818 17.7772Z" fill="#C2DBFF"/>
<path d="M54.3635 17.7772C53.7099 17.7772 53.1801 17.2473 53.1801 16.5937C53.1801 15.94 53.7099 15.4102 54.3635 15.4102C55.017 15.4102 55.5469 15.94 55.5469 16.5937C55.5469 17.2473 55.017 17.7772 54.3635 17.7772Z" fill="#C2DBFF"/>
<path d="M49.0451 17.7772C48.3915 17.7772 47.8617 17.2473 47.8617 16.5937C47.8617 15.94 48.3915 15.4102 49.0451 15.4102C49.6987 15.4102 50.2285 15.94 50.2285 16.5937C50.2285 17.2473 49.6987 17.7772 49.0451 17.7772Z" fill="#C2DBFF"/>
<path d="M43.7268 17.7772C43.0732 17.7772 42.5433 17.2473 42.5433 16.5937C42.5433 15.94 43.0732 15.4102 43.7268 15.4102C44.3803 15.4102 44.9102 15.94 44.9102 16.5937C44.9102 17.2473 44.3803 17.7772 43.7268 17.7772Z" fill="#C2DBFF"/>
<path d="M38.4103 17.7772C37.7568 17.7772 37.2269 17.2473 37.2269 16.5937C37.2269 15.94 37.7568 15.4102 38.4103 15.4102C39.0639 15.4102 39.5938 15.94 39.5938 16.5937C39.5938 17.2473 39.0639 17.7772 38.4103 17.7772Z" fill="#C2DBFF"/>
<path d="M33.09 17.7772C32.4365 17.7772 31.9066 17.2473 31.9066 16.5937C31.9066 15.94 32.4365 15.4102 33.09 15.4102C33.7436 15.4102 34.2734 15.94 34.2734 16.5937C34.2734 17.2473 33.7436 17.7772 33.09 17.7772Z" fill="#C2DBFF"/>
<path d="M27.7717 17.7772C27.1181 17.7772 26.5883 17.2473 26.5883 16.5937C26.5883 15.94 27.1181 15.4102 27.7717 15.4102C28.4253 15.4102 28.9551 15.94 28.9551 16.5937C28.9551 17.2473 28.4253 17.7772 27.7717 17.7772Z" fill="#C2DBFF"/>
<path d="M118.18 22.9139C117.526 22.9139 116.996 22.384 116.996 21.7304C116.996 21.0767 117.526 20.5469 118.18 20.5469C118.833 20.5469 119.363 21.0767 119.363 21.7304C119.363 22.384 118.833 22.9139 118.18 22.9139Z" fill="#C2DBFF"/>
<path d="M112.862 22.9139C112.208 22.9139 111.678 22.384 111.678 21.7304C111.678 21.0767 112.208 20.5469 112.862 20.5469C113.515 20.5469 114.045 21.0767 114.045 21.7304C114.045 22.384 113.515 22.9139 112.862 22.9139Z" fill="#C2DBFF"/>
<path d="M107.543 22.9139C106.89 22.9139 106.36 22.384 106.36 21.7304C106.36 21.0767 106.89 20.5469 107.543 20.5469C108.197 20.5469 108.727 21.0767 108.727 21.7304C108.727 22.384 108.197 22.9139 107.543 22.9139Z" fill="#C2DBFF"/>
<path d="M102.225 22.9139C101.571 22.9139 101.041 22.384 101.041 21.7304C101.041 21.0767 101.571 20.5469 102.225 20.5469C102.878 20.5469 103.408 21.0767 103.408 21.7304C103.408 22.384 102.878 22.9139 102.225 22.9139Z" fill="#C2DBFF"/>
<path d="M96.9064 22.9139C96.2529 22.9139 95.723 22.384 95.723 21.7304C95.723 21.0767 96.2529 20.5469 96.9064 20.5469C97.56 20.5469 98.0898 21.0767 98.0898 21.7304C98.0898 22.384 97.56 22.9139 96.9064 22.9139Z" fill="#C2DBFF"/>
<path d="M91.5881 22.9139C90.9345 22.9139 90.4047 22.384 90.4047 21.7304C90.4047 21.0767 90.9345 20.5469 91.5881 20.5469C92.2417 20.5469 92.7715 21.0767 92.7715 21.7304C92.7715 22.384 92.2417 22.9139 91.5881 22.9139Z" fill="#C2DBFF"/>
<path d="M86.2717 22.9139C85.6181 22.9139 85.0883 22.384 85.0883 21.7304C85.0883 21.0767 85.6181 20.5469 86.2717 20.5469C86.9253 20.5469 87.4551 21.0767 87.4551 21.7304C87.4551 22.384 86.9253 22.9139 86.2717 22.9139Z" fill="#C2DBFF"/>
<path d="M80.9553 22.9139C80.3017 22.9139 79.7719 22.384 79.7719 21.7304C79.7719 21.0767 80.3017 20.5469 80.9553 20.5469C81.6088 20.5469 82.1387 21.0767 82.1387 21.7304C82.1387 22.384 81.6088 22.9139 80.9553 22.9139Z" fill="#C2DBFF"/>
<path d="M75.6369 22.9139C74.9833 22.9139 74.4535 22.384 74.4535 21.7304C74.4535 21.0767 74.9833 20.5469 75.6369 20.5469C76.2905 20.5469 76.8203 21.0767 76.8203 21.7304C76.8203 22.384 76.2905 22.9139 75.6369 22.9139Z" fill="#C2DBFF"/>
<path d="M70.3185 22.9139C69.665 22.9139 69.1351 22.384 69.1351 21.7304C69.1351 21.0767 69.665 20.5469 70.3185 20.5469C70.9721 20.5469 71.502 21.0767 71.502 21.7304C71.502 22.384 70.9721 22.9139 70.3185 22.9139Z" fill="#C2DBFF"/>
<path d="M65.0041 22.9139C64.3505 22.9139 63.8207 22.384 63.8207 21.7304C63.8207 21.0767 64.3505 20.5469 65.0041 20.5469C65.6577 20.5469 66.1875 21.0767 66.1875 21.7304C66.1875 22.384 65.6577 22.9139 65.0041 22.9139Z" fill="#C2DBFF"/>
<path d="M59.6818 22.9139C59.0283 22.9139 58.4984 22.384 58.4984 21.7304C58.4984 21.0767 59.0283 20.5469 59.6818 20.5469C60.3354 20.5469 60.8652 21.0767 60.8652 21.7304C60.8652 22.384 60.3354 22.9139 59.6818 22.9139Z" fill="#C2DBFF"/>
<path d="M54.3635 22.9139C53.7099 22.9139 53.1801 22.384 53.1801 21.7304C53.1801 21.0767 53.7099 20.5469 54.3635 20.5469C55.017 20.5469 55.5469 21.0767 55.5469 21.7304C55.5469 22.384 55.017 22.9139 54.3635 22.9139Z" fill="#C2DBFF"/>
<path d="M49.0451 22.9139C48.3915 22.9139 47.8617 22.384 47.8617 21.7304C47.8617 21.0767 48.3915 20.5469 49.0451 20.5469C49.6987 20.5469 50.2285 21.0767 50.2285 21.7304C50.2285 22.384 49.6987 22.9139 49.0451 22.9139Z" fill="#C2DBFF"/>
<path d="M43.7268 22.9139C43.0732 22.9139 42.5433 22.384 42.5433 21.7304C42.5433 21.0767 43.0732 20.5469 43.7268 20.5469C44.3803 20.5469 44.9102 21.0767 44.9102 21.7304C44.9102 22.384 44.3803 22.9139 43.7268 22.9139Z" fill="#C2DBFF"/>
<path d="M38.4103 22.9139C37.7568 22.9139 37.2269 22.384 37.2269 21.7304C37.2269 21.0767 37.7568 20.5469 38.4103 20.5469C39.0639 20.5469 39.5938 21.0767 39.5938 21.7304C39.5938 22.384 39.0639 22.9139 38.4103 22.9139Z" fill="#C2DBFF"/>
<path d="M33.09 22.9139C32.4365 22.9139 31.9066 22.384 31.9066 21.7304C31.9066 21.0767 32.4365 20.5469 33.09 20.5469C33.7436 20.5469 34.2734 21.0767 34.2734 21.7304C34.2734 22.384 33.7436 22.9139 33.09 22.9139Z" fill="#C2DBFF"/>
<path d="M27.7717 22.9139C27.1181 22.9139 26.5883 22.384 26.5883 21.7304C26.5883 21.0767 27.1181 20.5469 27.7717 20.5469C28.4253 20.5469 28.9551 21.0767 28.9551 21.7304C28.9551 22.384 28.4253 22.9139 27.7717 22.9139Z" fill="#C2DBFF"/>
<path d="M118.18 28.0506C117.526 28.0506 116.996 27.5207 116.996 26.8671C116.996 26.2135 117.526 25.6836 118.18 25.6836C118.833 25.6836 119.363 26.2135 119.363 26.8671C119.363 27.5207 118.833 28.0506 118.18 28.0506Z" fill="#C2DBFF"/>
<path d="M112.862 28.0506C112.208 28.0506 111.678 27.5207 111.678 26.8671C111.678 26.2135 112.208 25.6836 112.862 25.6836C113.515 25.6836 114.045 26.2135 114.045 26.8671C114.045 27.5207 113.515 28.0506 112.862 28.0506Z" fill="#C2DBFF"/>
<path d="M107.543 28.0506C106.89 28.0506 106.36 27.5207 106.36 26.8671C106.36 26.2135 106.89 25.6836 107.543 25.6836C108.197 25.6836 108.727 26.2135 108.727 26.8671C108.727 27.5207 108.197 28.0506 107.543 28.0506Z" fill="#C2DBFF"/>
<path d="M102.225 28.0506C101.571 28.0506 101.041 27.5207 101.041 26.8671C101.041 26.2135 101.571 25.6836 102.225 25.6836C102.878 25.6836 103.408 26.2135 103.408 26.8671C103.408 27.5207 102.878 28.0506 102.225 28.0506Z" fill="#C2DBFF"/>
<path d="M96.9064 28.0506C96.2529 28.0506 95.723 27.5207 95.723 26.8671C95.723 26.2135 96.2529 25.6836 96.9064 25.6836C97.56 25.6836 98.0898 26.2135 98.0898 26.8671C98.0898 27.5207 97.56 28.0506 96.9064 28.0506Z" fill="#C2DBFF"/>
<path d="M91.5881 28.0506C90.9345 28.0506 90.4047 27.5207 90.4047 26.8671C90.4047 26.2135 90.9345 25.6836 91.5881 25.6836C92.2417 25.6836 92.7715 26.2135 92.7715 26.8671C92.7715 27.5207 92.2417 28.0506 91.5881 28.0506Z" fill="#C2DBFF"/>
<path d="M86.2717 28.0506C85.6181 28.0506 85.0883 27.5207 85.0883 26.8671C85.0883 26.2135 85.6181 25.6836 86.2717 25.6836C86.9253 25.6836 87.4551 26.2135 87.4551 26.8671C87.4551 27.5207 86.9253 28.0506 86.2717 28.0506Z" fill="#C2DBFF"/>
<path d="M80.9553 28.0506C80.3017 28.0506 79.7719 27.5207 79.7719 26.8671C79.7719 26.2135 80.3017 25.6836 80.9553 25.6836C81.6088 25.6836 82.1387 26.2135 82.1387 26.8671C82.1387 27.5207 81.6088 28.0506 80.9553 28.0506Z" fill="#C2DBFF"/>
<path d="M75.6369 28.0506C74.9833 28.0506 74.4535 27.5207 74.4535 26.8671C74.4535 26.2135 74.9833 25.6836 75.6369 25.6836C76.2905 25.6836 76.8203 26.2135 76.8203 26.8671C76.8203 27.5207 76.2905 28.0506 75.6369 28.0506Z" fill="#C2DBFF"/>
<path d="M70.3185 28.0506C69.665 28.0506 69.1351 27.5207 69.1351 26.8671C69.1351 26.2135 69.665 25.6836 70.3185 25.6836C70.9721 25.6836 71.502 26.2135 71.502 26.8671C71.502 27.5207 70.9721 28.0506 70.3185 28.0506Z" fill="#C2DBFF"/>
<path d="M65.0041 28.0506C64.3505 28.0506 63.8207 27.5207 63.8207 26.8671C63.8207 26.2135 64.3505 25.6836 65.0041 25.6836C65.6577 25.6836 66.1875 26.2135 66.1875 26.8671C66.1875 27.5207 65.6577 28.0506 65.0041 28.0506Z" fill="#C2DBFF"/>
<path d="M59.6818 28.0506C59.0283 28.0506 58.4984 27.5207 58.4984 26.8671C58.4984 26.2135 59.0283 25.6836 59.6818 25.6836C60.3354 25.6836 60.8652 26.2135 60.8652 26.8671C60.8652 27.5207 60.3354 28.0506 59.6818 28.0506Z" fill="#C2DBFF"/>
<path d="M54.3635 28.0506C53.7099 28.0506 53.1801 27.5207 53.1801 26.8671C53.1801 26.2135 53.7099 25.6836 54.3635 25.6836C55.017 25.6836 55.5469 26.2135 55.5469 26.8671C55.5469 27.5207 55.017 28.0506 54.3635 28.0506Z" fill="#C2DBFF"/>
<path d="M49.0451 28.0506C48.3915 28.0506 47.8617 27.5207 47.8617 26.8671C47.8617 26.2135 48.3915 25.6836 49.0451 25.6836C49.6987 25.6836 50.2285 26.2135 50.2285 26.8671C50.2285 27.5207 49.6987 28.0506 49.0451 28.0506Z" fill="#C2DBFF"/>
<path d="M43.7268 28.0506C43.0732 28.0506 42.5433 27.5207 42.5433 26.8671C42.5433 26.2135 43.0732 25.6836 43.7268 25.6836C44.3803 25.6836 44.9102 26.2135 44.9102 26.8671C44.9102 27.5207 44.3803 28.0506 43.7268 28.0506Z" fill="#C2DBFF"/>
<path d="M38.4103 28.0506C37.7568 28.0506 37.2269 27.5207 37.2269 26.8671C37.2269 26.2135 37.7568 25.6836 38.4103 25.6836C39.0639 25.6836 39.5938 26.2135 39.5938 26.8671C39.5938 27.5207 39.0639 28.0506 38.4103 28.0506Z" fill="#C2DBFF"/>
<path d="M33.09 28.0506C32.4365 28.0506 31.9066 27.5207 31.9066 26.8671C31.9066 26.2135 32.4365 25.6836 33.09 25.6836C33.7436 25.6836 34.2734 26.2135 34.2734 26.8671C34.2734 27.5207 33.7436 28.0506 33.09 28.0506Z" fill="#C2DBFF"/>
<path d="M27.7717 28.0506C27.1181 28.0506 26.5883 27.5207 26.5883 26.8671C26.5883 26.2135 27.1181 25.6836 27.7717 25.6836C28.4253 25.6836 28.9551 26.2135 28.9551 26.8671C28.9551 27.5207 28.4253 28.0506 27.7717 28.0506Z" fill="#C2DBFF"/>
<path d="M22.4553 28.0506C21.8017 28.0506 21.2719 27.5207 21.2719 26.8671C21.2719 26.2135 21.8017 25.6836 22.4553 25.6836C23.1088 25.6836 23.6387 26.2135 23.6387 26.8671C23.6387 27.5207 23.1088 28.0506 22.4553 28.0506Z" fill="#C2DBFF"/>
<path d="M17.1389 28.0506C16.4853 28.0506 15.9555 27.5207 15.9555 26.8671C15.9555 26.2135 16.4853 25.6836 17.1389 25.6836C17.7924 25.6836 18.3223 26.2135 18.3223 26.8671C18.3223 27.5207 17.7924 28.0506 17.1389 28.0506Z" fill="#C2DBFF"/>
<path d="M123.498 33.1834C122.845 33.1834 122.315 32.6535 122.315 31.9999C122.315 31.3463 122.845 30.8164 123.498 30.8164C124.152 30.8164 124.682 31.3463 124.682 31.9999C124.682 32.6535 124.152 33.1834 123.498 33.1834Z" fill="#C2DBFF"/>
<path d="M118.18 33.1834C117.526 33.1834 116.996 32.6535 116.996 31.9999C116.996 31.3463 117.526 30.8164 118.18 30.8164C118.833 30.8164 119.363 31.3463 119.363 31.9999C119.363 32.6535 118.833 33.1834 118.18 33.1834Z" fill="#C2DBFF"/>
<path d="M112.862 33.1834C112.208 33.1834 111.678 32.6535 111.678 31.9999C111.678 31.3463 112.208 30.8164 112.862 30.8164C113.515 30.8164 114.045 31.3463 114.045 31.9999C114.045 32.6535 113.515 33.1834 112.862 33.1834Z" fill="#C2DBFF"/>
<path d="M107.543 33.1834C106.89 33.1834 106.36 32.6535 106.36 31.9999C106.36 31.3463 106.89 30.8164 107.543 30.8164C108.197 30.8164 108.727 31.3463 108.727 31.9999C108.727 32.6535 108.197 33.1834 107.543 33.1834Z" fill="#C2DBFF"/>
<path d="M102.225 33.1834C101.571 33.1834 101.041 32.6535 101.041 31.9999C101.041 31.3463 101.571 30.8164 102.225 30.8164C102.878 30.8164 103.408 31.3463 103.408 31.9999C103.408 32.6535 102.878 33.1834 102.225 33.1834Z" fill="#C2DBFF"/>
<path d="M96.9064 33.1834C96.2529 33.1834 95.723 32.6535 95.723 31.9999C95.723 31.3463 96.2529 30.8164 96.9064 30.8164C97.56 30.8164 98.0898 31.3463 98.0898 31.9999C98.0898 32.6535 97.56 33.1834 96.9064 33.1834Z" fill="#C2DBFF"/>
<path d="M91.5881 33.1834C90.9345 33.1834 90.4047 32.6535 90.4047 31.9999C90.4047 31.3463 90.9345 30.8164 91.5881 30.8164C92.2417 30.8164 92.7715 31.3463 92.7715 31.9999C92.7715 32.6535 92.2417 33.1834 91.5881 33.1834Z" fill="#C2DBFF"/>
<path d="M86.2717 33.1834C85.6181 33.1834 85.0883 32.6535 85.0883 31.9999C85.0883 31.3463 85.6181 30.8164 86.2717 30.8164C86.9253 30.8164 87.4551 31.3463 87.4551 31.9999C87.4551 32.6535 86.9253 33.1834 86.2717 33.1834Z" fill="#C2DBFF"/>
<path d="M80.9553 33.1834C80.3017 33.1834 79.7719 32.6535 79.7719 31.9999C79.7719 31.3463 80.3017 30.8164 80.9553 30.8164C81.6088 30.8164 82.1387 31.3463 82.1387 31.9999C82.1387 32.6535 81.6088 33.1834 80.9553 33.1834Z" fill="#C2DBFF"/>
<path d="M75.6369 33.1834C74.9833 33.1834 74.4535 32.6535 74.4535 31.9999C74.4535 31.3463 74.9833 30.8164 75.6369 30.8164C76.2905 30.8164 76.8203 31.3463 76.8203 31.9999C76.8203 32.6535 76.2905 33.1834 75.6369 33.1834Z" fill="#C2DBFF"/>
<path d="M70.3185 33.1834C69.665 33.1834 69.1351 32.6535 69.1351 31.9999C69.1351 31.3463 69.665 30.8164 70.3185 30.8164C70.9721 30.8164 71.502 31.3463 71.502 31.9999C71.502 32.6535 70.9721 33.1834 70.3185 33.1834Z" fill="#C2DBFF"/>
<path d="M65.0041 33.1834C64.3505 33.1834 63.8207 32.6535 63.8207 31.9999C63.8207 31.3463 64.3505 30.8164 65.0041 30.8164C65.6577 30.8164 66.1875 31.3463 66.1875 31.9999C66.1875 32.6535 65.6577 33.1834 65.0041 33.1834Z" fill="#C2DBFF"/>
<path d="M59.6818 33.1834C59.0283 33.1834 58.4984 32.6535 58.4984 31.9999C58.4984 31.3463 59.0283 30.8164 59.6818 30.8164C60.3354 30.8164 60.8652 31.3463 60.8652 31.9999C60.8652 32.6535 60.3354 33.1834 59.6818 33.1834Z" fill="#C2DBFF"/>
<path d="M54.3635 33.1834C53.7099 33.1834 53.1801 32.6535 53.1801 31.9999C53.1801 31.3463 53.7099 30.8164 54.3635 30.8164C55.017 30.8164 55.5469 31.3463 55.5469 31.9999C55.5469 32.6535 55.017 33.1834 54.3635 33.1834Z" fill="#C2DBFF"/>
<path d="M49.0451 33.1834C48.3915 33.1834 47.8617 32.6535 47.8617 31.9999C47.8617 31.3463 48.3915 30.8164 49.0451 30.8164C49.6987 30.8164 50.2285 31.3463 50.2285 31.9999C50.2285 32.6535 49.6987 33.1834 49.0451 33.1834Z" fill="#C2DBFF"/>
<path d="M43.7268 33.1834C43.0732 33.1834 42.5433 32.6535 42.5433 31.9999C42.5433 31.3463 43.0732 30.8164 43.7268 30.8164C44.3803 30.8164 44.9102 31.3463 44.9102 31.9999C44.9102 32.6535 44.3803 33.1834 43.7268 33.1834Z" fill="#C2DBFF"/>
<path d="M38.4103 33.1834C37.7568 33.1834 37.2269 32.6535 37.2269 31.9999C37.2269 31.3463 37.7568 30.8164 38.4103 30.8164C39.0639 30.8164 39.5938 31.3463 39.5938 31.9999C39.5938 32.6535 39.0639 33.1834 38.4103 33.1834Z" fill="#C2DBFF"/>
<path d="M33.09 33.1834C32.4365 33.1834 31.9066 32.6535 31.9066 31.9999C31.9066 31.3463 32.4365 30.8164 33.09 30.8164C33.7436 30.8164 34.2734 31.3463 34.2734 31.9999C34.2734 32.6535 33.7436 33.1834 33.09 33.1834Z" fill="#C2DBFF"/>
<path d="M27.7717 33.1834C27.1181 33.1834 26.5883 32.6535 26.5883 31.9999C26.5883 31.3463 27.1181 30.8164 27.7717 30.8164C28.4253 30.8164 28.9551 31.3463 28.9551 31.9999C28.9551 32.6535 28.4253 33.1834 27.7717 33.1834Z" fill="#C2DBFF"/>
<path d="M22.4553 33.1834C21.8017 33.1834 21.2719 32.6535 21.2719 31.9999C21.2719 31.3463 21.8017 30.8164 22.4553 30.8164C23.1088 30.8164 23.6387 31.3463 23.6387 31.9999C23.6387 32.6535 23.1088 33.1834 22.4553 33.1834Z" fill="#C2DBFF"/>
<path d="M17.1389 33.1834C16.4853 33.1834 15.9555 32.6535 15.9555 31.9999C15.9555 31.3463 16.4853 30.8164 17.1389 30.8164C17.7924 30.8164 18.3223 31.3463 18.3223 31.9999C18.3223 32.6535 17.7924 33.1834 17.1389 33.1834Z" fill="#C2DBFF"/>
<path d="M11.8166 33.1834C11.163 33.1834 10.6332 32.6535 10.6332 31.9999C10.6332 31.3463 11.163 30.8164 11.8166 30.8164C12.4702 30.8164 13 31.3463 13 31.9999C13 32.6535 12.4702 33.1834 11.8166 33.1834Z" fill="#C2DBFF"/>
<path d="M128.817 38.3201C128.163 38.3201 127.633 37.7902 127.633 37.1366C127.633 36.483 128.163 35.9531 128.817 35.9531C129.47 35.9531 130 36.483 130 37.1366C130 37.7902 129.47 38.3201 128.817 38.3201Z" fill="#C2DBFF"/>
<path d="M123.498 38.3201C122.845 38.3201 122.315 37.7902 122.315 37.1366C122.315 36.483 122.845 35.9531 123.498 35.9531C124.152 35.9531 124.682 36.483 124.682 37.1366C124.682 37.7902 124.152 38.3201 123.498 38.3201Z" fill="#C2DBFF"/>
<path d="M118.18 38.3201C117.526 38.3201 116.996 37.7902 116.996 37.1366C116.996 36.483 117.526 35.9531 118.18 35.9531C118.833 35.9531 119.363 36.483 119.363 37.1366C119.363 37.7902 118.833 38.3201 118.18 38.3201Z" fill="#C2DBFF"/>
<path d="M112.862 38.3201C112.208 38.3201 111.678 37.7902 111.678 37.1366C111.678 36.483 112.208 35.9531 112.862 35.9531C113.515 35.9531 114.045 36.483 114.045 37.1366C114.045 37.7902 113.515 38.3201 112.862 38.3201Z" fill="#C2DBFF"/>
<path d="M107.543 38.3201C106.89 38.3201 106.36 37.7902 106.36 37.1366C106.36 36.483 106.89 35.9531 107.543 35.9531C108.197 35.9531 108.727 36.483 108.727 37.1366C108.727 37.7902 108.197 38.3201 107.543 38.3201Z" fill="#C2DBFF"/>
<path d="M102.225 38.3201C101.571 38.3201 101.041 37.7902 101.041 37.1366C101.041 36.483 101.571 35.9531 102.225 35.9531C102.878 35.9531 103.408 36.483 103.408 37.1366C103.408 37.7902 102.878 38.3201 102.225 38.3201Z" fill="#C2DBFF"/>
<path d="M96.9064 38.3201C96.2529 38.3201 95.723 37.7902 95.723 37.1366C95.723 36.483 96.2529 35.9531 96.9064 35.9531C97.56 35.9531 98.0898 36.483 98.0898 37.1366C98.0898 37.7902 97.56 38.3201 96.9064 38.3201Z" fill="#C2DBFF"/>
<path d="M91.5881 38.3201C90.9345 38.3201 90.4047 37.7902 90.4047 37.1366C90.4047 36.483 90.9345 35.9531 91.5881 35.9531C92.2417 35.9531 92.7715 36.483 92.7715 37.1366C92.7715 37.7902 92.2417 38.3201 91.5881 38.3201Z" fill="#C2DBFF"/>
<path d="M86.2717 38.3201C85.6181 38.3201 85.0883 37.7902 85.0883 37.1366C85.0883 36.483 85.6181 35.9531 86.2717 35.9531C86.9253 35.9531 87.4551 36.483 87.4551 37.1366C87.4551 37.7902 86.9253 38.3201 86.2717 38.3201Z" fill="#C2DBFF"/>
<path d="M80.9553 38.3201C80.3017 38.3201 79.7719 37.7902 79.7719 37.1366C79.7719 36.483 80.3017 35.9531 80.9553 35.9531C81.6088 35.9531 82.1387 36.483 82.1387 37.1366C82.1387 37.7902 81.6088 38.3201 80.9553 38.3201Z" fill="#C2DBFF"/>
<path d="M75.6369 38.3201C74.9833 38.3201 74.4535 37.7902 74.4535 37.1366C74.4535 36.483 74.9833 35.9531 75.6369 35.9531C76.2905 35.9531 76.8203 36.483 76.8203 37.1366C76.8203 37.7902 76.2905 38.3201 75.6369 38.3201Z" fill="#C2DBFF"/>
<path d="M70.3185 38.3201C69.665 38.3201 69.1351 37.7902 69.1351 37.1366C69.1351 36.483 69.665 35.9531 70.3185 35.9531C70.9721 35.9531 71.502 36.483 71.502 37.1366C71.502 37.7902 70.9721 38.3201 70.3185 38.3201Z" fill="#C2DBFF"/>
<path d="M65.0041 38.3201C64.3505 38.3201 63.8207 37.7902 63.8207 37.1366C63.8207 36.483 64.3505 35.9531 65.0041 35.9531C65.6577 35.9531 66.1875 36.483 66.1875 37.1366C66.1875 37.7902 65.6577 38.3201 65.0041 38.3201Z" fill="#C2DBFF"/>
<path d="M59.6818 38.3201C59.0283 38.3201 58.4984 37.7902 58.4984 37.1366C58.4984 36.483 59.0283 35.9531 59.6818 35.9531C60.3354 35.9531 60.8652 36.483 60.8652 37.1366C60.8652 37.7902 60.3354 38.3201 59.6818 38.3201Z" fill="#C2DBFF"/>
<path d="M54.3635 38.3201C53.7099 38.3201 53.1801 37.7902 53.1801 37.1366C53.1801 36.483 53.7099 35.9531 54.3635 35.9531C55.017 35.9531 55.5469 36.483 55.5469 37.1366C55.5469 37.7902 55.017 38.3201 54.3635 38.3201Z" fill="#C2DBFF"/>
<path d="M49.0451 38.3201C48.3915 38.3201 47.8617 37.7902 47.8617 37.1366C47.8617 36.483 48.3915 35.9531 49.0451 35.9531C49.6987 35.9531 50.2285 36.483 50.2285 37.1366C50.2285 37.7902 49.6987 38.3201 49.0451 38.3201Z" fill="#C2DBFF"/>
<path d="M43.7268 38.3201C43.0732 38.3201 42.5433 37.7902 42.5433 37.1366C42.5433 36.483 43.0732 35.9531 43.7268 35.9531C44.3803 35.9531 44.9102 36.483 44.9102 37.1366C44.9102 37.7902 44.3803 38.3201 43.7268 38.3201Z" fill="#C2DBFF"/>
<path d="M38.4103 38.3201C37.7568 38.3201 37.2269 37.7902 37.2269 37.1366C37.2269 36.483 37.7568 35.9531 38.4103 35.9531C39.0639 35.9531 39.5938 36.483 39.5938 37.1366C39.5938 37.7902 39.0639 38.3201 38.4103 38.3201Z" fill="#C2DBFF"/>
<path d="M33.09 38.3201C32.4365 38.3201 31.9066 37.7902 31.9066 37.1366C31.9066 36.483 32.4365 35.9531 33.09 35.9531C33.7436 35.9531 34.2734 36.483 34.2734 37.1366C34.2734 37.7902 33.7436 38.3201 33.09 38.3201Z" fill="#C2DBFF"/>
<path d="M27.7717 38.3201C27.1181 38.3201 26.5883 37.7902 26.5883 37.1366C26.5883 36.483 27.1181 35.9531 27.7717 35.9531C28.4253 35.9531 28.9551 36.483 28.9551 37.1366C28.9551 37.7902 28.4253 38.3201 27.7717 38.3201Z" fill="#C2DBFF"/>
<path d="M22.4553 38.3201C21.8017 38.3201 21.2719 37.7902 21.2719 37.1366C21.2719 36.483 21.8017 35.9531 22.4553 35.9531C23.1088 35.9531 23.6387 36.483 23.6387 37.1366C23.6387 37.7902 23.1088 38.3201 22.4553 38.3201Z" fill="#C2DBFF"/>
<path d="M17.1389 38.3201C16.4853 38.3201 15.9555 37.7902 15.9555 37.1366C15.9555 36.483 16.4853 35.9531 17.1389 35.9531C17.7924 35.9531 18.3223 36.483 18.3223 37.1366C18.3223 37.7902 17.7924 38.3201 17.1389 38.3201Z" fill="#C2DBFF"/>
<path d="M11.8166 38.3201C11.163 38.3201 10.6332 37.7902 10.6332 37.1366C10.6332 36.483 11.163 35.9531 11.8166 35.9531C12.4702 35.9531 13 36.483 13 37.1366C13 37.7902 12.4702 38.3201 11.8166 38.3201Z" fill="#C2DBFF"/>
<path d="M6.5002 38.3201C5.84663 38.3201 5.31679 37.7902 5.31679 37.1366C5.31679 36.483 5.84663 35.9531 6.5002 35.9531C7.15377 35.9531 7.68359 36.483 7.68359 37.1366C7.68359 37.7902 7.15377 38.3201 6.5002 38.3201Z" fill="#C2DBFF"/>
<path d="M128.817 43.4607C128.163 43.4607 127.633 42.9309 127.633 42.2772C127.633 41.6236 128.163 41.0938 128.817 41.0938C129.47 41.0938 130 41.6236 130 42.2772C130 42.9309 129.47 43.4607 128.817 43.4607Z" fill="#C2DBFF"/>
<path d="M123.498 43.4607C122.845 43.4607 122.315 42.9309 122.315 42.2772C122.315 41.6236 122.845 41.0938 123.498 41.0938C124.152 41.0938 124.682 41.6236 124.682 42.2772C124.682 42.9309 124.152 43.4607 123.498 43.4607Z" fill="#C2DBFF"/>
<path d="M118.18 43.4607C117.526 43.4607 116.996 42.9309 116.996 42.2772C116.996 41.6236 117.526 41.0938 118.18 41.0938C118.833 41.0938 119.363 41.6236 119.363 42.2772C119.363 42.9309 118.833 43.4607 118.18 43.4607Z" fill="#C2DBFF"/>
<path d="M112.862 43.4607C112.208 43.4607 111.678 42.9309 111.678 42.2772C111.678 41.6236 112.208 41.0938 112.862 41.0938C113.515 41.0938 114.045 41.6236 114.045 42.2772C114.045 42.9309 113.515 43.4607 112.862 43.4607Z" fill="#C2DBFF"/>
<path d="M107.543 43.4607C106.89 43.4607 106.36 42.9309 106.36 42.2772C106.36 41.6236 106.89 41.0938 107.543 41.0938C108.197 41.0938 108.727 41.6236 108.727 42.2772C108.727 42.9309 108.197 43.4607 107.543 43.4607Z" fill="#C2DBFF"/>
<path d="M102.225 43.4607C101.571 43.4607 101.041 42.9309 101.041 42.2772C101.041 41.6236 101.571 41.0938 102.225 41.0938C102.878 41.0938 103.408 41.6236 103.408 42.2772C103.408 42.9309 102.878 43.4607 102.225 43.4607Z" fill="#C2DBFF"/>
<path d="M96.9064 43.4607C96.2529 43.4607 95.723 42.9309 95.723 42.2772C95.723 41.6236 96.2529 41.0938 96.9064 41.0938C97.56 41.0938 98.0898 41.6236 98.0898 42.2772C98.0898 42.9309 97.56 43.4607 96.9064 43.4607Z" fill="#C2DBFF"/>
<path d="M91.5881 43.4607C90.9345 43.4607 90.4047 42.9309 90.4047 42.2772C90.4047 41.6236 90.9345 41.0938 91.5881 41.0938C92.2417 41.0938 92.7715 41.6236 92.7715 42.2772C92.7715 42.9309 92.2417 43.4607 91.5881 43.4607Z" fill="#C2DBFF"/>
<path d="M86.2717 43.4607C85.6181 43.4607 85.0883 42.9309 85.0883 42.2772C85.0883 41.6236 85.6181 41.0938 86.2717 41.0938C86.9253 41.0938 87.4551 41.6236 87.4551 42.2772C87.4551 42.9309 86.9253 43.4607 86.2717 43.4607Z" fill="#C2DBFF"/>
<path d="M80.9553 43.4607C80.3017 43.4607 79.7719 42.9309 79.7719 42.2772C79.7719 41.6236 80.3017 41.0938 80.9553 41.0938C81.6088 41.0938 82.1387 41.6236 82.1387 42.2772C82.1387 42.9309 81.6088 43.4607 80.9553 43.4607Z" fill="#C2DBFF"/>
<path d="M75.6369 43.4607C74.9833 43.4607 74.4535 42.9309 74.4535 42.2772C74.4535 41.6236 74.9833 41.0938 75.6369 41.0938C76.2905 41.0938 76.8203 41.6236 76.8203 42.2772C76.8203 42.9309 76.2905 43.4607 75.6369 43.4607Z" fill="#C2DBFF"/>
<path d="M70.3185 43.4607C69.665 43.4607 69.1351 42.9309 69.1351 42.2772C69.1351 41.6236 69.665 41.0938 70.3185 41.0938C70.9721 41.0938 71.502 41.6236 71.502 42.2772C71.502 42.9309 70.9721 43.4607 70.3185 43.4607Z" fill="#C2DBFF"/>
<path d="M65.0041 43.4607C64.3505 43.4607 63.8207 42.9309 63.8207 42.2772C63.8207 41.6236 64.3505 41.0938 65.0041 41.0938C65.6577 41.0938 66.1875 41.6236 66.1875 42.2772C66.1875 42.9309 65.6577 43.4607 65.0041 43.4607Z" fill="#C2DBFF"/>
<path d="M59.6818 43.4607C59.0283 43.4607 58.4984 42.9309 58.4984 42.2772C58.4984 41.6236 59.0283 41.0938 59.6818 41.0938C60.3354 41.0938 60.8652 41.6236 60.8652 42.2772C60.8652 42.9309 60.3354 43.4607 59.6818 43.4607Z" fill="#C2DBFF"/>
<path d="M54.3635 43.4607C53.7099 43.4607 53.1801 42.9309 53.1801 42.2772C53.1801 41.6236 53.7099 41.0938 54.3635 41.0938C55.017 41.0938 55.5469 41.6236 55.5469 42.2772C55.5469 42.9309 55.017 43.4607 54.3635 43.4607Z" fill="#C2DBFF"/>
<path d="M49.0451 43.4607C48.3915 43.4607 47.8617 42.9309 47.8617 42.2772C47.8617 41.6236 48.3915 41.0938 49.0451 41.0938C49.6987 41.0938 50.2285 41.6236 50.2285 42.2772C50.2285 42.9309 49.6987 43.4607 49.0451 43.4607Z" fill="#C2DBFF"/>
<path d="M43.7268 43.4607C43.0732 43.4607 42.5433 42.9309 42.5433 42.2772C42.5433 41.6236 43.0732 41.0938 43.7268 41.0938C44.3803 41.0938 44.9102 41.6236 44.9102 42.2772C44.9102 42.9309 44.3803 43.4607 43.7268 43.4607Z" fill="#C2DBFF"/>
<path d="M38.4103 43.4607C37.7568 43.4607 37.2269 42.9309 37.2269 42.2772C37.2269 41.6236 37.7568 41.0938 38.4103 41.0938C39.0639 41.0938 39.5938 41.6236 39.5938 42.2772C39.5938 42.9309 39.0639 43.4607 38.4103 43.4607Z" fill="#C2DBFF"/>
<path d="M33.09 43.4607C32.4365 43.4607 31.9066 42.9309 31.9066 42.2772C31.9066 41.6236 32.4365 41.0938 33.09 41.0938C33.7436 41.0938 34.2734 41.6236 34.2734 42.2772C34.2734 42.9309 33.7436 43.4607 33.09 43.4607Z" fill="#C2DBFF"/>
<path d="M27.7717 43.4607C27.1181 43.4607 26.5883 42.9309 26.5883 42.2772C26.5883 41.6236 27.1181 41.0938 27.7717 41.0938C28.4253 41.0938 28.9551 41.6236 28.9551 42.2772C28.9551 42.9309 28.4253 43.4607 27.7717 43.4607Z" fill="#C2DBFF"/>
<path d="M22.4553 43.4607C21.8017 43.4607 21.2719 42.9309 21.2719 42.2772C21.2719 41.6236 21.8017 41.0938 22.4553 41.0938C23.1088 41.0938 23.6387 41.6236 23.6387 42.2772C23.6387 42.9309 23.1088 43.4607 22.4553 43.4607Z" fill="#C2DBFF"/>
<path d="M17.1389 43.4607C16.4853 43.4607 15.9555 42.9309 15.9555 42.2772C15.9555 41.6236 16.4853 41.0938 17.1389 41.0938C17.7924 41.0938 18.3223 41.6236 18.3223 42.2772C18.3223 42.9309 17.7924 43.4607 17.1389 43.4607Z" fill="#C2DBFF"/>
<path d="M11.8166 43.4607C11.163 43.4607 10.6332 42.9309 10.6332 42.2772C10.6332 41.6236 11.163 41.0938 11.8166 41.0938C12.4702 41.0938 13 41.6236 13 42.2772C13 42.9309 12.4702 43.4607 11.8166 43.4607Z" fill="#C2DBFF"/>
<path d="M6.5002 43.4607C5.84663 43.4607 5.31679 42.9309 5.31679 42.2772C5.31679 41.6236 5.84663 41.0938 6.5002 41.0938C7.15377 41.0938 7.68359 41.6236 7.68359 42.2772C7.68359 42.9309 7.15377 43.4607 6.5002 43.4607Z" fill="#C2DBFF"/>
<path d="M1.18379 43.4607C0.530216 43.4607 0.000399113 42.9309 0.000399113 42.2772C0.000399113 41.6236 0.530216 41.0938 1.18379 41.0938C1.83736 41.0938 2.36719 41.6236 2.36719 42.2772C2.36719 42.9309 1.83736 43.4607 1.18379 43.4607Z" fill="#C2DBFF"/>
<path d="M128.817 48.5896C128.163 48.5896 127.633 48.0598 127.633 47.4061C127.633 46.7525 128.163 46.2227 128.817 46.2227C129.47 46.2227 130 46.7525 130 47.4061C130 48.0598 129.47 48.5896 128.817 48.5896Z" fill="#C2DBFF"/>
<path d="M123.498 48.5935C122.845 48.5935 122.315 48.0637 122.315 47.4101C122.315 46.7564 122.845 46.2266 123.498 46.2266C124.152 46.2266 124.682 46.7564 124.682 47.4101C124.682 48.0637 124.152 48.5935 123.498 48.5935Z" fill="#C2DBFF"/>
<path d="M118.18 48.5935C117.526 48.5935 116.996 48.0637 116.996 47.4101C116.996 46.7564 117.526 46.2266 118.18 46.2266C118.833 46.2266 119.363 46.7564 119.363 47.4101C119.363 48.0637 118.833 48.5935 118.18 48.5935Z" fill="#C2DBFF"/>
<path d="M112.862 48.5935C112.208 48.5935 111.678 48.0637 111.678 47.4101C111.678 46.7564 112.208 46.2266 112.862 46.2266C113.515 46.2266 114.045 46.7564 114.045 47.4101C114.045 48.0637 113.515 48.5935 112.862 48.5935Z" fill="#C2DBFF"/>
<path d="M107.543 48.5935C106.89 48.5935 106.36 48.0637 106.36 47.4101C106.36 46.7564 106.89 46.2266 107.543 46.2266C108.197 46.2266 108.727 46.7564 108.727 47.4101C108.727 48.0637 108.197 48.5935 107.543 48.5935Z" fill="#C2DBFF"/>
<path d="M102.225 48.5935C101.571 48.5935 101.041 48.0637 101.041 47.4101C101.041 46.7564 101.571 46.2266 102.225 46.2266C102.878 46.2266 103.408 46.7564 103.408 47.4101C103.408 48.0637 102.878 48.5935 102.225 48.5935Z" fill="#C2DBFF"/>
<path d="M96.9064 48.5935C96.2529 48.5935 95.723 48.0637 95.723 47.4101C95.723 46.7564 96.2529 46.2266 96.9064 46.2266C97.56 46.2266 98.0898 46.7564 98.0898 47.4101C98.0898 48.0637 97.56 48.5935 96.9064 48.5935Z" fill="#C2DBFF"/>
<path d="M91.5881 48.5935C90.9345 48.5935 90.4047 48.0637 90.4047 47.4101C90.4047 46.7564 90.9345 46.2266 91.5881 46.2266C92.2417 46.2266 92.7715 46.7564 92.7715 47.4101C92.7715 48.0637 92.2417 48.5935 91.5881 48.5935Z" fill="#C2DBFF"/>
<path d="M86.2717 48.5935C85.6181 48.5935 85.0883 48.0637 85.0883 47.4101C85.0883 46.7564 85.6181 46.2266 86.2717 46.2266C86.9253 46.2266 87.4551 46.7564 87.4551 47.4101C87.4551 48.0637 86.9253 48.5935 86.2717 48.5935Z" fill="#C2DBFF"/>
<path d="M80.9553 48.5935C80.3017 48.5935 79.7719 48.0637 79.7719 47.4101C79.7719 46.7564 80.3017 46.2266 80.9553 46.2266C81.6088 46.2266 82.1387 46.7564 82.1387 47.4101C82.1387 48.0637 81.6088 48.5935 80.9553 48.5935Z" fill="#C2DBFF"/>
<path d="M75.6369 48.5935C74.9833 48.5935 74.4535 48.0637 74.4535 47.4101C74.4535 46.7564 74.9833 46.2266 75.6369 46.2266C76.2905 46.2266 76.8203 46.7564 76.8203 47.4101C76.8203 48.0637 76.2905 48.5935 75.6369 48.5935Z" fill="#C2DBFF"/>
<path d="M70.3185 48.5935C69.665 48.5935 69.1351 48.0637 69.1351 47.4101C69.1351 46.7564 69.665 46.2266 70.3185 46.2266C70.9721 46.2266 71.502 46.7564 71.502 47.4101C71.502 48.0637 70.9721 48.5935 70.3185 48.5935Z" fill="#C2DBFF"/>
<path d="M65.0041 48.5935C64.3505 48.5935 63.8207 48.0637 63.8207 47.4101C63.8207 46.7564 64.3505 46.2266 65.0041 46.2266C65.6577 46.2266 66.1875 46.7564 66.1875 47.4101C66.1875 48.0637 65.6577 48.5935 65.0041 48.5935Z" fill="#C2DBFF"/>
<path d="M59.6818 48.5896C59.0283 48.5896 58.4984 48.0598 58.4984 47.4061C58.4984 46.7525 59.0283 46.2227 59.6818 46.2227C60.3354 46.2227 60.8652 46.7525 60.8652 47.4061C60.8652 48.0598 60.3354 48.5896 59.6818 48.5896Z" fill="#C2DBFF"/>
<path d="M54.3635 48.5935C53.7099 48.5935 53.1801 48.0637 53.1801 47.4101C53.1801 46.7564 53.7099 46.2266 54.3635 46.2266C55.017 46.2266 55.5469 46.7564 55.5469 47.4101C55.5469 48.0637 55.017 48.5935 54.3635 48.5935Z" fill="#C2DBFF"/>
<path d="M49.0451 48.5935C48.3915 48.5935 47.8617 48.0637 47.8617 47.4101C47.8617 46.7564 48.3915 46.2266 49.0451 46.2266C49.6987 46.2266 50.2285 46.7564 50.2285 47.4101C50.2285 48.0637 49.6987 48.5935 49.0451 48.5935Z" fill="#C2DBFF"/>
<path d="M43.7268 48.5935C43.0732 48.5935 42.5433 48.0637 42.5433 47.4101C42.5433 46.7564 43.0732 46.2266 43.7268 46.2266C44.3803 46.2266 44.9102 46.7564 44.9102 47.4101C44.9102 48.0637 44.3803 48.5935 43.7268 48.5935Z" fill="#C2DBFF"/>
<path d="M38.4103 48.5935C37.7568 48.5935 37.2269 48.0637 37.2269 47.4101C37.2269 46.7564 37.7568 46.2266 38.4103 46.2266C39.0639 46.2266 39.5938 46.7564 39.5938 47.4101C39.5938 48.0637 39.0639 48.5935 38.4103 48.5935Z" fill="#C2DBFF"/>
<path d="M33.09 48.5935C32.4365 48.5935 31.9066 48.0637 31.9066 47.4101C31.9066 46.7564 32.4365 46.2266 33.09 46.2266C33.7436 46.2266 34.2734 46.7564 34.2734 47.4101C34.2734 48.0637 33.7436 48.5935 33.09 48.5935Z" fill="#C2DBFF"/>
<path d="M27.7717 48.5935C27.1181 48.5935 26.5883 48.0637 26.5883 47.4101C26.5883 46.7564 27.1181 46.2266 27.7717 46.2266C28.4253 46.2266 28.9551 46.7564 28.9551 47.4101C28.9551 48.0637 28.4253 48.5935 27.7717 48.5935Z" fill="#C2DBFF"/>
<path d="M22.4553 48.5935C21.8017 48.5935 21.2719 48.0637 21.2719 47.4101C21.2719 46.7564 21.8017 46.2266 22.4553 46.2266C23.1088 46.2266 23.6387 46.7564 23.6387 47.4101C23.6387 48.0637 23.1088 48.5935 22.4553 48.5935Z" fill="#C2DBFF"/>
<path d="M17.1389 48.5935C16.4853 48.5935 15.9555 48.0637 15.9555 47.4101C15.9555 46.7564 16.4853 46.2266 17.1389 46.2266C17.7924 46.2266 18.3223 46.7564 18.3223 47.4101C18.3223 48.0637 17.7924 48.5935 17.1389 48.5935Z" fill="#C2DBFF"/>
<path d="M11.8166 48.5935C11.163 48.5935 10.6332 48.0637 10.6332 47.4101C10.6332 46.7564 11.163 46.2266 11.8166 46.2266C12.4702 46.2266 13 46.7564 13 47.4101C13 48.0637 12.4702 48.5935 11.8166 48.5935Z" fill="#C2DBFF"/>
<path d="M6.5002 48.5935C5.84663 48.5935 5.31679 48.0637 5.31679 47.4101C5.31679 46.7564 5.84663 46.2266 6.5002 46.2266C7.15377 46.2266 7.68359 46.7564 7.68359 47.4101C7.68359 48.0637 7.15377 48.5935 6.5002 48.5935Z" fill="#C2DBFF"/>
<path d="M1.18379 48.5935C0.530216 48.5935 0.000399113 48.0637 0.000399113 47.4101C0.000399113 46.7564 0.530216 46.2266 1.18379 46.2266C1.83736 46.2266 2.36719 46.7564 2.36719 47.4101C2.36719 48.0637 1.83736 48.5935 1.18379 48.5935Z" fill="#C2DBFF"/>
<path d="M118.18 53.7303C117.526 53.7303 116.996 53.2004 116.996 52.5468C116.996 51.8932 117.526 51.3633 118.18 51.3633C118.833 51.3633 119.363 51.8932 119.363 52.5468C119.363 53.2004 118.833 53.7303 118.18 53.7303Z" fill="#C2DBFF"/>
<path d="M112.862 53.7303C112.208 53.7303 111.678 53.2004 111.678 52.5468C111.678 51.8932 112.208 51.3633 112.862 51.3633C113.515 51.3633 114.045 51.8932 114.045 52.5468C114.045 53.2004 113.515 53.7303 112.862 53.7303Z" fill="#C2DBFF"/>
<path d="M107.543 53.7303C106.89 53.7303 106.36 53.2004 106.36 52.5468C106.36 51.8932 106.89 51.3633 107.543 51.3633C108.197 51.3633 108.727 51.8932 108.727 52.5468C108.727 53.2004 108.197 53.7303 107.543 53.7303Z" fill="#C2DBFF"/>
<path d="M102.225 53.7303C101.571 53.7303 101.041 53.2004 101.041 52.5468C101.041 51.8932 101.571 51.3633 102.225 51.3633C102.878 51.3633 103.408 51.8932 103.408 52.5468C103.408 53.2004 102.878 53.7303 102.225 53.7303Z" fill="#C2DBFF"/>
<path d="M96.9064 53.7303C96.2529 53.7303 95.723 53.2004 95.723 52.5468C95.723 51.8932 96.2529 51.3633 96.9064 51.3633C97.56 51.3633 98.0898 51.8932 98.0898 52.5468C98.0898 53.2004 97.56 53.7303 96.9064 53.7303Z" fill="#C2DBFF"/>
<path d="M91.5881 53.7303C90.9345 53.7303 90.4047 53.2004 90.4047 52.5468C90.4047 51.8932 90.9345 51.3633 91.5881 51.3633C92.2417 51.3633 92.7715 51.8932 92.7715 52.5468C92.7715 53.2004 92.2417 53.7303 91.5881 53.7303Z" fill="#C2DBFF"/>
<path d="M86.2717 53.7303C85.6181 53.7303 85.0883 53.2004 85.0883 52.5468C85.0883 51.8932 85.6181 51.3633 86.2717 51.3633C86.9253 51.3633 87.4551 51.8932 87.4551 52.5468C87.4551 53.2004 86.9253 53.7303 86.2717 53.7303Z" fill="#C2DBFF"/>
<path d="M80.9553 53.7303C80.3017 53.7303 79.7719 53.2004 79.7719 52.5468C79.7719 51.8932 80.3017 51.3633 80.9553 51.3633C81.6088 51.3633 82.1387 51.8932 82.1387 52.5468C82.1387 53.2004 81.6088 53.7303 80.9553 53.7303Z" fill="#C2DBFF"/>
<path d="M75.6369 53.7303C74.9833 53.7303 74.4535 53.2004 74.4535 52.5468C74.4535 51.8932 74.9833 51.3633 75.6369 51.3633C76.2905 51.3633 76.8203 51.8932 76.8203 52.5468C76.8203 53.2004 76.2905 53.7303 75.6369 53.7303Z" fill="#C2DBFF"/>
<path d="M70.3185 53.7303C69.665 53.7303 69.1351 53.2004 69.1351 52.5468C69.1351 51.8932 69.665 51.3633 70.3185 51.3633C70.9721 51.3633 71.502 51.8932 71.502 52.5468C71.502 53.2004 70.9721 53.7303 70.3185 53.7303Z" fill="#C2DBFF"/>
<path d="M65.0041 53.7303C64.3505 53.7303 63.8207 53.2004 63.8207 52.5468C63.8207 51.8932 64.3505 51.3633 65.0041 51.3633C65.6577 51.3633 66.1875 51.8932 66.1875 52.5468C66.1875 53.2004 65.6577 53.7303 65.0041 53.7303Z" fill="#C2DBFF"/>
<path d="M59.6818 53.7303C59.0283 53.7303 58.4984 53.2004 58.4984 52.5468C58.4984 51.8932 59.0283 51.3633 59.6818 51.3633C60.3354 51.3633 60.8652 51.8932 60.8652 52.5468C60.8652 53.2004 60.3354 53.7303 59.6818 53.7303Z" fill="#C2DBFF"/>
<path d="M54.3635 53.7303C53.7099 53.7303 53.1801 53.2004 53.1801 52.5468C53.1801 51.8932 53.7099 51.3633 54.3635 51.3633C55.017 51.3633 55.5469 51.8932 55.5469 52.5468C55.5469 53.2004 55.017 53.7303 54.3635 53.7303Z" fill="#C2DBFF"/>
<path d="M49.0451 53.7303C48.3915 53.7303 47.8617 53.2004 47.8617 52.5468C47.8617 51.8932 48.3915 51.3633 49.0451 51.3633C49.6987 51.3633 50.2285 51.8932 50.2285 52.5468C50.2285 53.2004 49.6987 53.7303 49.0451 53.7303Z" fill="#C2DBFF"/>
<path d="M43.7268 53.7303C43.0732 53.7303 42.5433 53.2004 42.5433 52.5468C42.5433 51.8932 43.0732 51.3633 43.7268 51.3633C44.3803 51.3633 44.9102 51.8932 44.9102 52.5468C44.9102 53.2004 44.3803 53.7303 43.7268 53.7303Z" fill="#C2DBFF"/>
<path d="M38.4103 53.7303C37.7568 53.7303 37.2269 53.2004 37.2269 52.5468C37.2269 51.8932 37.7568 51.3633 38.4103 51.3633C39.0639 51.3633 39.5938 51.8932 39.5938 52.5468C39.5938 53.2004 39.0639 53.7303 38.4103 53.7303Z" fill="#C2DBFF"/>
<path d="M33.09 53.7303C32.4365 53.7303 31.9066 53.2004 31.9066 52.5468C31.9066 51.8932 32.4365 51.3633 33.09 51.3633C33.7436 51.3633 34.2734 51.8932 34.2734 52.5468C34.2734 53.2004 33.7436 53.7303 33.09 53.7303Z" fill="#C2DBFF"/>
<path d="M27.7717 53.7303C27.1181 53.7303 26.5883 53.2004 26.5883 52.5468C26.5883 51.8932 27.1181 51.3633 27.7717 51.3633C28.4253 51.3633 28.9551 51.8932 28.9551 52.5468C28.9551 53.2004 28.4253 53.7303 27.7717 53.7303Z" fill="#C2DBFF"/>
<path d="M22.4553 53.7303C21.8017 53.7303 21.2719 53.2004 21.2719 52.5468C21.2719 51.8932 21.8017 51.3633 22.4553 51.3633C23.1088 51.3633 23.6387 51.8932 23.6387 52.5468C23.6387 53.2004 23.1088 53.7303 22.4553 53.7303Z" fill="#C2DBFF"/>
<path d="M17.1389 53.7303C16.4853 53.7303 15.9555 53.2004 15.9555 52.5468C15.9555 51.8932 16.4853 51.3633 17.1389 51.3633C17.7924 51.3633 18.3223 51.8932 18.3223 52.5468C18.3223 53.2004 17.7924 53.7303 17.1389 53.7303Z" fill="#C2DBFF"/>
<path d="M11.8166 53.7303C11.163 53.7303 10.6332 53.2004 10.6332 52.5468C10.6332 51.8932 11.163 51.3633 11.8166 51.3633C12.4702 51.3633 13 51.8932 13 52.5468C13 53.2004 12.4702 53.7303 11.8166 53.7303Z" fill="#C2DBFF"/>
<path d="M6.5002 53.7303C5.84663 53.7303 5.31679 53.2004 5.31679 52.5468C5.31679 51.8932 5.84663 51.3633 6.5002 51.3633C7.15377 51.3633 7.68359 51.8932 7.68359 52.5468C7.68359 53.2004 7.15377 53.7303 6.5002 53.7303Z" fill="#C2DBFF"/>
<path d="M107.543 58.8631C106.89 58.8631 106.36 58.3332 106.36 57.6796C106.36 57.026 106.89 56.4961 107.543 56.4961C108.197 56.4961 108.727 57.026 108.727 57.6796C108.727 58.3332 108.197 58.8631 107.543 58.8631Z" fill="#C2DBFF"/>
<path d="M102.225 58.8631C101.571 58.8631 101.041 58.3332 101.041 57.6796C101.041 57.026 101.571 56.4961 102.225 56.4961C102.878 56.4961 103.408 57.026 103.408 57.6796C103.408 58.3332 102.878 58.8631 102.225 58.8631Z" fill="#C2DBFF"/>
<path d="M96.9064 58.8631C96.2529 58.8631 95.723 58.3332 95.723 57.6796C95.723 57.026 96.2529 56.4961 96.9064 56.4961C97.56 56.4961 98.0898 57.026 98.0898 57.6796C98.0898 58.3332 97.56 58.8631 96.9064 58.8631Z" fill="#C2DBFF"/>
<path d="M86.2717 58.8631C85.6181 58.8631 85.0883 58.3332 85.0883 57.6796C85.0883 57.026 85.6181 56.4961 86.2717 56.4961C86.9253 56.4961 87.4551 57.026 87.4551 57.6796C87.4551 58.3332 86.9253 58.8631 86.2717 58.8631Z" fill="#C2DBFF"/>
<path d="M80.9553 58.8631C80.3017 58.8631 79.7719 58.3332 79.7719 57.6796C79.7719 57.026 80.3017 56.4961 80.9553 56.4961C81.6088 56.4961 82.1387 57.026 82.1387 57.6796C82.1387 58.3332 81.6088 58.8631 80.9553 58.8631Z" fill="#C2DBFF"/>
<path d="M75.6369 58.8631C74.9833 58.8631 74.4535 58.3332 74.4535 57.6796C74.4535 57.026 74.9833 56.4961 75.6369 56.4961C76.2905 56.4961 76.8203 57.026 76.8203 57.6796C76.8203 58.3332 76.2905 58.8631 75.6369 58.8631Z" fill="#C2DBFF"/>
<path d="M70.3185 58.8631C69.665 58.8631 69.1351 58.3332 69.1351 57.6796C69.1351 57.026 69.665 56.4961 70.3185 56.4961C70.9721 56.4961 71.502 57.026 71.502 57.6796C71.502 58.3332 70.9721 58.8631 70.3185 58.8631Z" fill="#C2DBFF"/>
<path d="M65.0041 58.8631C64.3505 58.8631 63.8207 58.3332 63.8207 57.6796C63.8207 57.026 64.3505 56.4961 65.0041 56.4961C65.6577 56.4961 66.1875 57.026 66.1875 57.6796C66.1875 58.3332 65.6577 58.8631 65.0041 58.8631Z" fill="#C2DBFF"/>
<path d="M59.6818 58.867C59.0283 58.867 58.4984 58.3371 58.4984 57.6835C58.4984 57.0299 59.0283 56.5 59.6818 56.5C60.3354 56.5 60.8652 57.0299 60.8652 57.6835C60.8652 58.3371 60.3354 58.867 59.6818 58.867Z" fill="#C2DBFF"/>
<path d="M54.3635 58.8631C53.7099 58.8631 53.1801 58.3332 53.1801 57.6796C53.1801 57.026 53.7099 56.4961 54.3635 56.4961C55.017 56.4961 55.5469 57.026 55.5469 57.6796C55.5469 58.3332 55.017 58.8631 54.3635 58.8631Z" fill="#C2DBFF"/>
<path d="M49.0451 58.8631C48.3915 58.8631 47.8617 58.3332 47.8617 57.6796C47.8617 57.026 48.3915 56.4961 49.0451 56.4961C49.6987 56.4961 50.2285 57.026 50.2285 57.6796C50.2285 58.3332 49.6987 58.8631 49.0451 58.8631Z" fill="#C2DBFF"/>
<path d="M43.7268 58.8631C43.0732 58.8631 42.5433 58.3332 42.5433 57.6796C42.5433 57.026 43.0732 56.4961 43.7268 56.4961C44.3803 56.4961 44.9102 57.026 44.9102 57.6796C44.9102 58.3332 44.3803 58.8631 43.7268 58.8631Z" fill="#C2DBFF"/>
<path d="M38.4103 58.8631C37.7568 58.8631 37.2269 58.3332 37.2269 57.6796C37.2269 57.026 37.7568 56.4961 38.4103 56.4961C39.0639 56.4961 39.5938 57.026 39.5938 57.6796C39.5938 58.3332 39.0639 58.8631 38.4103 58.8631Z" fill="#C2DBFF"/>
<path d="M33.09 58.8631C32.4365 58.8631 31.9066 58.3332 31.9066 57.6796C31.9066 57.026 32.4365 56.4961 33.09 56.4961C33.7436 56.4961 34.2734 57.026 34.2734 57.6796C34.2734 58.3332 33.7436 58.8631 33.09 58.8631Z" fill="#C2DBFF"/>
<path d="M27.7717 58.8631C27.1181 58.8631 26.5883 58.3332 26.5883 57.6796C26.5883 57.026 27.1181 56.4961 27.7717 56.4961C28.4253 56.4961 28.9551 57.026 28.9551 57.6796C28.9551 58.3332 28.4253 58.8631 27.7717 58.8631Z" fill="#C2DBFF"/>
<path d="M22.4553 58.8631C21.8017 58.8631 21.2719 58.3332 21.2719 57.6796C21.2719 57.026 21.8017 56.4961 22.4553 56.4961C23.1088 56.4961 23.6387 57.026 23.6387 57.6796C23.6387 58.3332 23.1088 58.8631 22.4553 58.8631Z" fill="#C2DBFF"/>
<path d="M17.1389 58.8631C16.4853 58.8631 15.9555 58.3332 15.9555 57.6796C15.9555 57.026 16.4853 56.4961 17.1389 56.4961C17.7924 56.4961 18.3223 57.026 18.3223 57.6796C18.3223 58.3332 17.7924 58.8631 17.1389 58.8631Z" fill="#C2DBFF"/>
<path d="M11.8166 58.8631C11.163 58.8631 10.6332 58.3332 10.6332 57.6796C10.6332 57.026 11.163 56.4961 11.8166 56.4961C12.4702 56.4961 13 57.026 13 57.6796C13 58.3332 12.4702 58.8631 11.8166 58.8631Z" fill="#C2DBFF"/>
<path d="M80.9553 64.0037C80.3017 64.0037 79.7719 63.4738 79.7719 62.8202C79.7719 62.1666 80.3017 61.6367 80.9553 61.6367C81.6088 61.6367 82.1387 62.1666 82.1387 62.8202C82.1387 63.4738 81.6088 64.0037 80.9553 64.0037Z" fill="#C2DBFF"/>
<path d="M75.6369 64.0037C74.9833 64.0037 74.4535 63.4738 74.4535 62.8202C74.4535 62.1666 74.9833 61.6367 75.6369 61.6367C76.2905 61.6367 76.8203 62.1666 76.8203 62.8202C76.8203 63.4738 76.2905 64.0037 75.6369 64.0037Z" fill="#C2DBFF"/>
<path d="M70.3185 64.0037C69.665 64.0037 69.1351 63.4738 69.1351 62.8202C69.1351 62.1666 69.665 61.6367 70.3185 61.6367C70.9721 61.6367 71.502 62.1666 71.502 62.8202C71.502 63.4738 70.9721 64.0037 70.3185 64.0037Z" fill="#C2DBFF"/>
<path d="M65.0041 64.0037C64.3505 64.0037 63.8207 63.4738 63.8207 62.8202C63.8207 62.1666 64.3505 61.6367 65.0041 61.6367C65.6577 61.6367 66.1875 62.1666 66.1875 62.8202C66.1875 63.4738 65.6577 64.0037 65.0041 64.0037Z" fill="#C2DBFF"/>
<path d="M59.6818 64.0037C59.0283 64.0037 58.4984 63.4738 58.4984 62.8202C58.4984 62.1666 59.0283 61.6367 59.6818 61.6367C60.3354 61.6367 60.8652 62.1666 60.8652 62.8202C60.8652 63.4738 60.3354 64.0037 59.6818 64.0037Z" fill="#C2DBFF"/>
<path d="M54.3635 64.0037C53.7099 64.0037 53.1801 63.4738 53.1801 62.8202C53.1801 62.1666 53.7099 61.6367 54.3635 61.6367C55.017 61.6367 55.5469 62.1666 55.5469 62.8202C55.5469 63.4738 55.017 64.0037 54.3635 64.0037Z" fill="#C2DBFF"/>
<path d="M49.0451 64.0037C48.3915 64.0037 47.8617 63.4738 47.8617 62.8202C47.8617 62.1666 48.3915 61.6367 49.0451 61.6367C49.6987 61.6367 50.2285 62.1666 50.2285 62.8202C50.2285 63.4738 49.6987 64.0037 49.0451 64.0037Z" fill="#C2DBFF"/>
<path d="M43.7268 64.0037C43.0732 64.0037 42.5433 63.4738 42.5433 62.8202C42.5433 62.1666 43.0732 61.6367 43.7268 61.6367C44.3803 61.6367 44.9102 62.1666 44.9102 62.8202C44.9102 63.4738 44.3803 64.0037 43.7268 64.0037Z" fill="#C2DBFF"/>
<path d="M65.0041 69.1404C64.3505 69.1404 63.8207 68.6105 63.8207 67.9569C63.8207 67.3033 64.3505 66.7734 65.0041 66.7734C65.6577 66.7734 66.1875 67.3033 66.1875 67.9569C66.1875 68.6105 65.6577 69.1404 65.0041 69.1404Z" fill="#C2DBFF"/>
<path d="M59.6818 69.1404C59.0283 69.1404 58.4984 68.6105 58.4984 67.9569C58.4984 67.3033 59.0283 66.7734 59.6818 66.7734C60.3354 66.7734 60.8652 67.3033 60.8652 67.9569C60.8652 68.6105 60.3354 69.1404 59.6818 69.1404Z" fill="#C2DBFF"/>
<path d="M54.3635 69.1404C53.7099 69.1404 53.1801 68.6105 53.1801 67.9569C53.1801 67.3033 53.7099 66.7734 54.3635 66.7734C55.017 66.7734 55.5469 67.3033 55.5469 67.9569C55.5469 68.6105 55.017 69.1404 54.3635 69.1404Z" fill="#C2DBFF"/>
<path d="M49.0451 69.1404C48.3915 69.1404 47.8617 68.6105 47.8617 67.9569C47.8617 67.3033 48.3915 66.7734 49.0451 66.7734C49.6987 66.7734 50.2285 67.3033 50.2285 67.9569C50.2285 68.6105 49.6987 69.1404 49.0451 69.1404Z" fill="#C2DBFF"/>
</svg>
