<svg width="160" height="86" viewBox="0 0 160 86" fill="none" xmlns="http://www.w3.org/2000/svg">
<path d="M66.9068 2.91318C66.1024 2.91318 65.4503 2.26104 65.4503 1.45659C65.4503 0.652143 66.1024 0 66.9068 0C67.7112 0 68.3633 0.652143 68.3633 1.45659C68.3633 2.26104 67.7112 2.91318 66.9068 2.91318Z" fill="#C2DBFF"/>
<path d="M60.3619 2.91318C59.5575 2.91318 58.9054 2.26104 58.9054 1.45659C58.9054 0.652143 59.5575 0 60.3619 0C61.1663 0 61.8184 0.652143 61.8184 1.45659C61.8184 2.26104 61.1663 2.91318 60.3619 2.91318Z" fill="#C2DBFF"/>
<path d="M53.815 2.91318C53.0106 2.91318 52.3585 2.26104 52.3585 1.45659C52.3585 0.652143 53.0106 0 53.815 0C54.6194 0 55.2715 0.652143 55.2715 1.45659C55.2715 2.26104 54.6194 2.91318 53.815 2.91318Z" fill="#C2DBFF"/>
<path d="M47.272 2.91318C46.4676 2.91318 45.8155 2.26104 45.8155 1.45659C45.8155 0.652143 46.4676 0 47.272 0C48.0764 0 48.7285 0.652143 48.7285 1.45659C48.7285 2.26104 48.0764 2.91318 47.272 2.91318Z" fill="#C2DBFF"/>
<path d="M112.723 9.23743C111.919 9.23743 111.267 8.58528 111.267 7.78083C111.267 6.97637 111.919 6.32422 112.723 6.32422C113.528 6.32422 114.18 6.97637 114.18 7.78083C114.18 8.58528 113.528 9.23743 112.723 9.23743Z" fill="#C2DBFF"/>
<path d="M106.178 9.23743C105.374 9.23743 104.722 8.58528 104.722 7.78083C104.722 6.97637 105.374 6.32422 106.178 6.32422C106.983 6.32422 107.635 6.97637 107.635 7.78083C107.635 8.58528 106.983 9.23743 106.178 9.23743Z" fill="#C2DBFF"/>
<path d="M99.6353 9.23743C98.8309 9.23743 98.1788 8.58528 98.1788 7.78083C98.1788 6.97637 98.8309 6.32422 99.6353 6.32422C100.44 6.32422 101.092 6.97637 101.092 7.78083C101.092 8.58528 100.44 9.23743 99.6353 9.23743Z" fill="#C2DBFF"/>
<path d="M93.0904 9.23743C92.286 9.23743 91.6339 8.58528 91.6339 7.78083C91.6339 6.97637 92.286 6.32422 93.0904 6.32422C93.8948 6.32422 94.5469 6.97637 94.5469 7.78083C94.5469 8.58528 93.8948 9.23743 93.0904 9.23743Z" fill="#C2DBFF"/>
<path d="M86.5455 9.23743C85.7411 9.23743 85.089 8.58528 85.089 7.78083C85.089 6.97637 85.7411 6.32422 86.5455 6.32422C87.3499 6.32422 88.002 6.97637 88.002 7.78083C88.002 8.58528 87.3499 9.23743 86.5455 9.23743Z" fill="#C2DBFF"/>
<path d="M73.4537 9.23743C72.6493 9.23743 71.9972 8.58528 71.9972 7.78083C71.9972 6.97637 72.6493 6.32422 73.4537 6.32422C74.2581 6.32422 74.9102 6.97637 74.9102 7.78083C74.9102 8.58528 74.2581 9.23743 73.4537 9.23743Z" fill="#C2DBFF"/>
<path d="M66.9068 9.23743C66.1024 9.23743 65.4503 8.58528 65.4503 7.78083C65.4503 6.97637 66.1024 6.32422 66.9068 6.32422C67.7112 6.32422 68.3633 6.97637 68.3633 7.78083C68.3633 8.58528 67.7112 9.23743 66.9068 9.23743Z" fill="#C2DBFF"/>
<path d="M60.3619 9.23743C59.5575 9.23743 58.9054 8.58528 58.9054 7.78083C58.9054 6.97637 59.5575 6.32422 60.3619 6.32422C61.1663 6.32422 61.8184 6.97637 61.8184 7.78083C61.8184 8.58528 61.1663 9.23743 60.3619 9.23743Z" fill="#C2DBFF"/>
<path d="M53.815 9.23743C53.0106 9.23743 52.3585 8.58528 52.3585 7.78083C52.3585 6.97637 53.0106 6.32422 53.815 6.32422C54.6194 6.32422 55.2715 6.97637 55.2715 7.78083C55.2715 8.58528 54.6194 9.23743 53.815 9.23743Z" fill="#C2DBFF"/>
<path d="M47.272 9.23743C46.4676 9.23743 45.8155 8.58528 45.8155 7.78083C45.8155 6.97637 46.4676 6.32422 47.272 6.32422C48.0764 6.32422 48.7285 6.97637 48.7285 7.78083C48.7285 8.58528 48.0764 9.23743 47.272 9.23743Z" fill="#C2DBFF"/>
<path d="M40.7252 9.23743C39.9208 9.23743 39.2687 8.58528 39.2687 7.78083C39.2687 6.97637 39.9208 6.32422 40.7252 6.32422C41.5295 6.32422 42.1816 6.97637 42.1816 7.78083C42.1816 8.58528 41.5295 9.23743 40.7252 9.23743Z" fill="#C2DBFF"/>
<path d="M119.268 15.5538C118.464 15.5538 117.812 14.9017 117.812 14.0972C117.812 13.2928 118.464 12.6406 119.268 12.6406C120.073 12.6406 120.725 13.2928 120.725 14.0972C120.725 14.9017 120.073 15.5538 119.268 15.5538Z" fill="#C2DBFF"/>
<path d="M112.723 15.5538C111.919 15.5538 111.267 14.9017 111.267 14.0972C111.267 13.2928 111.919 12.6406 112.723 12.6406C113.528 12.6406 114.18 13.2928 114.18 14.0972C114.18 14.9017 113.528 15.5538 112.723 15.5538Z" fill="#C2DBFF"/>
<path d="M106.178 15.5538C105.374 15.5538 104.722 14.9017 104.722 14.0972C104.722 13.2928 105.374 12.6406 106.178 12.6406C106.983 12.6406 107.635 13.2928 107.635 14.0972C107.635 14.9017 106.983 15.5538 106.178 15.5538Z" fill="#C2DBFF"/>
<path d="M99.6353 15.5538C98.8309 15.5538 98.1788 14.9017 98.1788 14.0972C98.1788 13.2928 98.8309 12.6406 99.6353 12.6406C100.44 12.6406 101.092 13.2928 101.092 14.0972C101.092 14.9017 100.44 15.5538 99.6353 15.5538Z" fill="#C2DBFF"/>
<path d="M93.0904 15.5538C92.286 15.5538 91.6339 14.9017 91.6339 14.0972C91.6339 13.2928 92.286 12.6406 93.0904 12.6406C93.8948 12.6406 94.5469 13.2928 94.5469 14.0972C94.5469 14.9017 93.8948 15.5538 93.0904 15.5538Z" fill="#C2DBFF"/>
<path d="M86.5455 15.5538C85.7411 15.5538 85.089 14.9017 85.089 14.0972C85.089 13.2928 85.7411 12.6406 86.5455 12.6406C87.3499 12.6406 88.002 13.2928 88.002 14.0972C88.002 14.9017 87.3499 15.5538 86.5455 15.5538Z" fill="#C2DBFF"/>
<path d="M80.0005 15.5538C79.1962 15.5538 78.5441 14.9017 78.5441 14.0972C78.5441 13.2928 79.1962 12.6406 80.0005 12.6406C80.8049 12.6406 81.457 13.2928 81.457 14.0972C81.457 14.9017 80.8049 15.5538 80.0005 15.5538Z" fill="#C2DBFF"/>
<path d="M73.4537 15.5538C72.6493 15.5538 71.9972 14.9017 71.9972 14.0972C71.9972 13.2928 72.6493 12.6406 73.4537 12.6406C74.2581 12.6406 74.9102 13.2928 74.9102 14.0972C74.9102 14.9017 74.2581 15.5538 73.4537 15.5538Z" fill="#C2DBFF"/>
<path d="M66.9068 15.5538C66.1024 15.5538 65.4503 14.9017 65.4503 14.0972C65.4503 13.2928 66.1024 12.6406 66.9068 12.6406C67.7112 12.6406 68.3633 13.2928 68.3633 14.0972C68.3633 14.9017 67.7112 15.5538 66.9068 15.5538Z" fill="#C2DBFF"/>
<path d="M60.3619 15.5538C59.5575 15.5538 58.9054 14.9017 58.9054 14.0972C58.9054 13.2928 59.5575 12.6406 60.3619 12.6406C61.1663 12.6406 61.8184 13.2928 61.8184 14.0972C61.8184 14.9017 61.1663 15.5538 60.3619 15.5538Z" fill="#C2DBFF"/>
<path d="M53.815 15.5538C53.0106 15.5538 52.3585 14.9017 52.3585 14.0972C52.3585 13.2928 53.0106 12.6406 53.815 12.6406C54.6194 12.6406 55.2715 13.2928 55.2715 14.0972C55.2715 14.9017 54.6194 15.5538 53.815 15.5538Z" fill="#C2DBFF"/>
<path d="M47.272 15.5538C46.4676 15.5538 45.8155 14.9017 45.8155 14.0972C45.8155 13.2928 46.4676 12.6406 47.272 12.6406C48.0764 12.6406 48.7285 13.2928 48.7285 14.0972C48.7285 14.9017 48.0764 15.5538 47.272 15.5538Z" fill="#C2DBFF"/>
<path d="M40.7252 15.5538C39.9208 15.5538 39.2687 14.9017 39.2687 14.0972C39.2687 13.2928 39.9208 12.6406 40.7252 12.6406C41.5295 12.6406 42.1816 13.2928 42.1816 14.0972C42.1816 14.9017 41.5295 15.5538 40.7252 15.5538Z" fill="#C2DBFF"/>
<path d="M34.1822 15.5538C33.3778 15.5538 32.7257 14.9017 32.7257 14.0972C32.7257 13.2928 33.3778 12.6406 34.1822 12.6406C34.9866 12.6406 35.6387 13.2928 35.6387 14.0972C35.6387 14.9017 34.9866 15.5538 34.1822 15.5538Z" fill="#C2DBFF"/>
<path d="M138.905 21.8781C138.1 21.8781 137.448 21.2259 137.448 20.4215C137.448 19.617 138.1 18.9648 138.905 18.9648C139.709 18.9648 140.361 19.617 140.361 20.4215C140.361 21.2259 139.709 21.8781 138.905 21.8781Z" fill="#C2DBFF"/>
<path d="M132.36 21.8781C131.556 21.8781 130.903 21.2259 130.903 20.4215C130.903 19.617 131.556 18.9648 132.36 18.9648C133.164 18.9648 133.816 19.617 133.816 20.4215C133.816 21.2259 133.164 21.8781 132.36 21.8781Z" fill="#C2DBFF"/>
<path d="M125.815 21.8781C125.011 21.8781 124.359 21.2259 124.359 20.4215C124.359 19.617 125.011 18.9648 125.815 18.9648C126.619 18.9648 127.271 19.617 127.271 20.4215C127.271 21.2259 126.619 21.8781 125.815 21.8781Z" fill="#C2DBFF"/>
<path d="M119.268 21.8781C118.464 21.8781 117.812 21.2259 117.812 20.4215C117.812 19.617 118.464 18.9648 119.268 18.9648C120.073 18.9648 120.725 19.617 120.725 20.4215C120.725 21.2259 120.073 21.8781 119.268 21.8781Z" fill="#C2DBFF"/>
<path d="M112.723 21.8781C111.919 21.8781 111.267 21.2259 111.267 20.4215C111.267 19.617 111.919 18.9648 112.723 18.9648C113.528 18.9648 114.18 19.617 114.18 20.4215C114.18 21.2259 113.528 21.8781 112.723 21.8781Z" fill="#C2DBFF"/>
<path d="M106.178 21.8781C105.374 21.8781 104.722 21.2259 104.722 20.4215C104.722 19.617 105.374 18.9648 106.178 18.9648C106.983 18.9648 107.635 19.617 107.635 20.4215C107.635 21.2259 106.983 21.8781 106.178 21.8781Z" fill="#C2DBFF"/>
<path d="M99.6353 21.8781C98.8309 21.8781 98.1788 21.2259 98.1788 20.4215C98.1788 19.617 98.8309 18.9648 99.6353 18.9648C100.44 18.9648 101.092 19.617 101.092 20.4215C101.092 21.2259 100.44 21.8781 99.6353 21.8781Z" fill="#C2DBFF"/>
<path d="M93.0904 21.8781C92.286 21.8781 91.6339 21.2259 91.6339 20.4215C91.6339 19.617 92.286 18.9648 93.0904 18.9648C93.8948 18.9648 94.5469 19.617 94.5469 20.4215C94.5469 21.2259 93.8948 21.8781 93.0904 21.8781Z" fill="#C2DBFF"/>
<path d="M86.5455 21.8781C85.7411 21.8781 85.089 21.2259 85.089 20.4215C85.089 19.617 85.7411 18.9648 86.5455 18.9648C87.3499 18.9648 88.002 19.617 88.002 20.4215C88.002 21.2259 87.3499 21.8781 86.5455 21.8781Z" fill="#C2DBFF"/>
<path d="M80.0005 21.8781C79.1962 21.8781 78.5441 21.2259 78.5441 20.4215C78.5441 19.617 79.1962 18.9648 80.0005 18.9648C80.8049 18.9648 81.457 19.617 81.457 20.4215C81.457 21.2259 80.8049 21.8781 80.0005 21.8781Z" fill="#C2DBFF"/>
<path d="M73.4537 21.8781C72.6493 21.8781 71.9972 21.2259 71.9972 20.4215C71.9972 19.617 72.6493 18.9648 73.4537 18.9648C74.2581 18.9648 74.9102 19.617 74.9102 20.4215C74.9102 21.2259 74.2581 21.8781 73.4537 21.8781Z" fill="#C2DBFF"/>
<path d="M66.9068 21.8781C66.1024 21.8781 65.4503 21.2259 65.4503 20.4215C65.4503 19.617 66.1024 18.9648 66.9068 18.9648C67.7112 18.9648 68.3633 19.617 68.3633 20.4215C68.3633 21.2259 67.7112 21.8781 66.9068 21.8781Z" fill="#C2DBFF"/>
<path d="M60.3619 21.8781C59.5575 21.8781 58.9054 21.2259 58.9054 20.4215C58.9054 19.617 59.5575 18.9648 60.3619 18.9648C61.1663 18.9648 61.8184 19.617 61.8184 20.4215C61.8184 21.2259 61.1663 21.8781 60.3619 21.8781Z" fill="#C2DBFF"/>
<path d="M53.815 21.8781C53.0106 21.8781 52.3585 21.2259 52.3585 20.4215C52.3585 19.617 53.0106 18.9648 53.815 18.9648C54.6194 18.9648 55.2715 19.617 55.2715 20.4215C55.2715 21.2259 54.6194 21.8781 53.815 21.8781Z" fill="#C2DBFF"/>
<path d="M47.272 21.8781C46.4676 21.8781 45.8155 21.2259 45.8155 20.4215C45.8155 19.617 46.4676 18.9648 47.272 18.9648C48.0764 18.9648 48.7285 19.617 48.7285 20.4215C48.7285 21.2259 48.0764 21.8781 47.272 21.8781Z" fill="#C2DBFF"/>
<path d="M40.7252 21.8781C39.9208 21.8781 39.2687 21.2259 39.2687 20.4215C39.2687 19.617 39.9208 18.9648 40.7252 18.9648C41.5295 18.9648 42.1816 19.617 42.1816 20.4215C42.1816 21.2259 41.5295 21.8781 40.7252 21.8781Z" fill="#C2DBFF"/>
<path d="M34.1822 21.8781C33.3778 21.8781 32.7257 21.2259 32.7257 20.4215C32.7257 19.617 33.3778 18.9648 34.1822 18.9648C34.9866 18.9648 35.6387 19.617 35.6387 20.4215C35.6387 21.2259 34.9866 21.8781 34.1822 21.8781Z" fill="#C2DBFF"/>
<path d="M145.452 28.2022C144.647 28.2022 143.995 27.5501 143.995 26.7457C143.995 25.9412 144.647 25.2891 145.452 25.2891C146.256 25.2891 146.908 25.9412 146.908 26.7457C146.908 27.5501 146.256 28.2022 145.452 28.2022Z" fill="#C2DBFF"/>
<path d="M138.905 28.2022C138.1 28.2022 137.448 27.5501 137.448 26.7457C137.448 25.9412 138.1 25.2891 138.905 25.2891C139.709 25.2891 140.361 25.9412 140.361 26.7457C140.361 27.5501 139.709 28.2022 138.905 28.2022Z" fill="#C2DBFF"/>
<path d="M132.36 28.2022C131.556 28.2022 130.903 27.5501 130.903 26.7457C130.903 25.9412 131.556 25.2891 132.36 25.2891C133.164 25.2891 133.816 25.9412 133.816 26.7457C133.816 27.5501 133.164 28.2022 132.36 28.2022Z" fill="#C2DBFF"/>
<path d="M125.815 28.2022C125.011 28.2022 124.359 27.5501 124.359 26.7457C124.359 25.9412 125.011 25.2891 125.815 25.2891C126.619 25.2891 127.271 25.9412 127.271 26.7457C127.271 27.5501 126.619 28.2022 125.815 28.2022Z" fill="#C2DBFF"/>
<path d="M119.268 28.2022C118.464 28.2022 117.812 27.5501 117.812 26.7457C117.812 25.9412 118.464 25.2891 119.268 25.2891C120.073 25.2891 120.725 25.9412 120.725 26.7457C120.725 27.5501 120.073 28.2022 119.268 28.2022Z" fill="#C2DBFF"/>
<path d="M112.723 28.2022C111.919 28.2022 111.267 27.5501 111.267 26.7457C111.267 25.9412 111.919 25.2891 112.723 25.2891C113.528 25.2891 114.18 25.9412 114.18 26.7457C114.18 27.5501 113.528 28.2022 112.723 28.2022Z" fill="#C2DBFF"/>
<path d="M106.178 28.2022C105.374 28.2022 104.722 27.5501 104.722 26.7457C104.722 25.9412 105.374 25.2891 106.178 25.2891C106.983 25.2891 107.635 25.9412 107.635 26.7457C107.635 27.5501 106.983 28.2022 106.178 28.2022Z" fill="#C2DBFF"/>
<path d="M99.6353 28.2022C98.8309 28.2022 98.1788 27.5501 98.1788 26.7457C98.1788 25.9412 98.8309 25.2891 99.6353 25.2891C100.44 25.2891 101.092 25.9412 101.092 26.7457C101.092 27.5501 100.44 28.2022 99.6353 28.2022Z" fill="#C2DBFF"/>
<path d="M93.0904 28.2022C92.286 28.2022 91.6339 27.5501 91.6339 26.7457C91.6339 25.9412 92.286 25.2891 93.0904 25.2891C93.8948 25.2891 94.5469 25.9412 94.5469 26.7457C94.5469 27.5501 93.8948 28.2022 93.0904 28.2022Z" fill="#C2DBFF"/>
<path d="M86.5455 28.2022C85.7411 28.2022 85.089 27.5501 85.089 26.7457C85.089 25.9412 85.7411 25.2891 86.5455 25.2891C87.3499 25.2891 88.002 25.9412 88.002 26.7457C88.002 27.5501 87.3499 28.2022 86.5455 28.2022Z" fill="#C2DBFF"/>
<path d="M80.0005 28.2022C79.1962 28.2022 78.5441 27.5501 78.5441 26.7457C78.5441 25.9412 79.1962 25.2891 80.0005 25.2891C80.8049 25.2891 81.457 25.9412 81.457 26.7457C81.457 27.5501 80.8049 28.2022 80.0005 28.2022Z" fill="#C2DBFF"/>
<path d="M73.4537 28.2022C72.6493 28.2022 71.9972 27.5501 71.9972 26.7457C71.9972 25.9412 72.6493 25.2891 73.4537 25.2891C74.2581 25.2891 74.9102 25.9412 74.9102 26.7457C74.9102 27.5501 74.2581 28.2022 73.4537 28.2022Z" fill="#C2DBFF"/>
<path d="M66.9068 28.2022C66.1024 28.2022 65.4503 27.5501 65.4503 26.7457C65.4503 25.9412 66.1024 25.2891 66.9068 25.2891C67.7112 25.2891 68.3633 25.9412 68.3633 26.7457C68.3633 27.5501 67.7112 28.2022 66.9068 28.2022Z" fill="#C2DBFF"/>
<path d="M60.3619 28.2022C59.5575 28.2022 58.9054 27.5501 58.9054 26.7457C58.9054 25.9412 59.5575 25.2891 60.3619 25.2891C61.1663 25.2891 61.8184 25.9412 61.8184 26.7457C61.8184 27.5501 61.1663 28.2022 60.3619 28.2022Z" fill="#C2DBFF"/>
<path d="M53.815 28.2022C53.0106 28.2022 52.3585 27.5501 52.3585 26.7457C52.3585 25.9412 53.0106 25.2891 53.815 25.2891C54.6194 25.2891 55.2715 25.9412 55.2715 26.7457C55.2715 27.5501 54.6194 28.2022 53.815 28.2022Z" fill="#C2DBFF"/>
<path d="M47.272 28.2022C46.4676 28.2022 45.8155 27.5501 45.8155 26.7457C45.8155 25.9412 46.4676 25.2891 47.272 25.2891C48.0764 25.2891 48.7285 25.9412 48.7285 26.7457C48.7285 27.5501 48.0764 28.2022 47.272 28.2022Z" fill="#C2DBFF"/>
<path d="M40.7252 28.2022C39.9208 28.2022 39.2687 27.5501 39.2687 26.7457C39.2687 25.9412 39.9208 25.2891 40.7252 25.2891C41.5295 25.2891 42.1816 25.9412 42.1816 26.7457C42.1816 27.5501 41.5295 28.2022 40.7252 28.2022Z" fill="#C2DBFF"/>
<path d="M34.1822 28.2022C33.3778 28.2022 32.7257 27.5501 32.7257 26.7457C32.7257 25.9412 33.3778 25.2891 34.1822 25.2891C34.9866 25.2891 35.6387 25.9412 35.6387 26.7457C35.6387 27.5501 34.9866 28.2022 34.1822 28.2022Z" fill="#C2DBFF"/>
<path d="M145.452 34.5226C144.647 34.5226 143.995 33.8704 143.995 33.066C143.995 32.2615 144.647 31.6094 145.452 31.6094C146.256 31.6094 146.908 32.2615 146.908 33.066C146.908 33.8704 146.256 34.5226 145.452 34.5226Z" fill="#C2DBFF"/>
<path d="M138.905 34.5226C138.1 34.5226 137.448 33.8704 137.448 33.066C137.448 32.2615 138.1 31.6094 138.905 31.6094C139.709 31.6094 140.361 32.2615 140.361 33.066C140.361 33.8704 139.709 34.5226 138.905 34.5226Z" fill="#C2DBFF"/>
<path d="M132.36 34.5226C131.556 34.5226 130.903 33.8704 130.903 33.066C130.903 32.2615 131.556 31.6094 132.36 31.6094C133.164 31.6094 133.816 32.2615 133.816 33.066C133.816 33.8704 133.164 34.5226 132.36 34.5226Z" fill="#C2DBFF"/>
<path d="M125.815 34.5226C125.011 34.5226 124.359 33.8704 124.359 33.066C124.359 32.2615 125.011 31.6094 125.815 31.6094C126.619 31.6094 127.271 32.2615 127.271 33.066C127.271 33.8704 126.619 34.5226 125.815 34.5226Z" fill="#C2DBFF"/>
<path d="M119.268 34.5226C118.464 34.5226 117.812 33.8704 117.812 33.066C117.812 32.2615 118.464 31.6094 119.268 31.6094C120.073 31.6094 120.725 32.2615 120.725 33.066C120.725 33.8704 120.073 34.5226 119.268 34.5226Z" fill="#C2DBFF"/>
<path d="M112.723 34.5226C111.919 34.5226 111.267 33.8704 111.267 33.066C111.267 32.2615 111.919 31.6094 112.723 31.6094C113.528 31.6094 114.18 32.2615 114.18 33.066C114.18 33.8704 113.528 34.5226 112.723 34.5226Z" fill="#C2DBFF"/>
<path d="M106.178 34.5226C105.374 34.5226 104.722 33.8704 104.722 33.066C104.722 32.2615 105.374 31.6094 106.178 31.6094C106.983 31.6094 107.635 32.2615 107.635 33.066C107.635 33.8704 106.983 34.5226 106.178 34.5226Z" fill="#C2DBFF"/>
<path d="M99.6353 34.5226C98.8309 34.5226 98.1788 33.8704 98.1788 33.066C98.1788 32.2615 98.8309 31.6094 99.6353 31.6094C100.44 31.6094 101.092 32.2615 101.092 33.066C101.092 33.8704 100.44 34.5226 99.6353 34.5226Z" fill="#C2DBFF"/>
<path d="M93.0904 34.5226C92.286 34.5226 91.6339 33.8704 91.6339 33.066C91.6339 32.2615 92.286 31.6094 93.0904 31.6094C93.8948 31.6094 94.5469 32.2615 94.5469 33.066C94.5469 33.8704 93.8948 34.5226 93.0904 34.5226Z" fill="#C2DBFF"/>
<path d="M86.5455 34.5226C85.7411 34.5226 85.089 33.8704 85.089 33.066C85.089 32.2615 85.7411 31.6094 86.5455 31.6094C87.3499 31.6094 88.002 32.2615 88.002 33.066C88.002 33.8704 87.3499 34.5226 86.5455 34.5226Z" fill="#C2DBFF"/>
<path d="M80.0005 34.5226C79.1962 34.5226 78.5441 33.8704 78.5441 33.066C78.5441 32.2615 79.1962 31.6094 80.0005 31.6094C80.8049 31.6094 81.457 32.2615 81.457 33.066C81.457 33.8704 80.8049 34.5226 80.0005 34.5226Z" fill="#C2DBFF"/>
<path d="M73.4537 34.5226C72.6493 34.5226 71.9972 33.8704 71.9972 33.066C71.9972 32.2615 72.6493 31.6094 73.4537 31.6094C74.2581 31.6094 74.9102 32.2615 74.9102 33.066C74.9102 33.8704 74.2581 34.5226 73.4537 34.5226Z" fill="#C2DBFF"/>
<path d="M66.9068 34.5226C66.1024 34.5226 65.4503 33.8704 65.4503 33.066C65.4503 32.2615 66.1024 31.6094 66.9068 31.6094C67.7112 31.6094 68.3633 32.2615 68.3633 33.066C68.3633 33.8704 67.7112 34.5226 66.9068 34.5226Z" fill="#C2DBFF"/>
<path d="M60.3619 34.5226C59.5575 34.5226 58.9054 33.8704 58.9054 33.066C58.9054 32.2615 59.5575 31.6094 60.3619 31.6094C61.1663 31.6094 61.8184 32.2615 61.8184 33.066C61.8184 33.8704 61.1663 34.5226 60.3619 34.5226Z" fill="#C2DBFF"/>
<path d="M53.815 34.5226C53.0106 34.5226 52.3585 33.8704 52.3585 33.066C52.3585 32.2615 53.0106 31.6094 53.815 31.6094C54.6194 31.6094 55.2715 32.2615 55.2715 33.066C55.2715 33.8704 54.6194 34.5226 53.815 34.5226Z" fill="#C2DBFF"/>
<path d="M47.272 34.5226C46.4676 34.5226 45.8155 33.8704 45.8155 33.066C45.8155 32.2615 46.4676 31.6094 47.272 31.6094C48.0764 31.6094 48.7285 32.2615 48.7285 33.066C48.7285 33.8704 48.0764 34.5226 47.272 34.5226Z" fill="#C2DBFF"/>
<path d="M40.7252 34.5226C39.9208 34.5226 39.2687 33.8704 39.2687 33.066C39.2687 32.2615 39.9208 31.6094 40.7252 31.6094C41.5295 31.6094 42.1816 32.2615 42.1816 33.066C42.1816 33.8704 41.5295 34.5226 40.7252 34.5226Z" fill="#C2DBFF"/>
<path d="M34.1822 34.5226C33.3778 34.5226 32.7257 33.8704 32.7257 33.066C32.7257 32.2615 33.3778 31.6094 34.1822 31.6094C34.9866 31.6094 35.6387 32.2615 35.6387 33.066C35.6387 33.8704 34.9866 34.5226 34.1822 34.5226Z" fill="#C2DBFF"/>
<path d="M27.6353 34.5226C26.8309 34.5226 26.1788 33.8704 26.1788 33.066C26.1788 32.2615 26.8309 31.6094 27.6353 31.6094C28.4397 31.6094 29.0918 32.2615 29.0918 33.066C29.0918 33.8704 28.4397 34.5226 27.6353 34.5226Z" fill="#C2DBFF"/>
<path d="M21.0943 34.5226C20.2899 34.5226 19.6378 33.8704 19.6378 33.066C19.6378 32.2615 20.2899 31.6094 21.0943 31.6094C21.8987 31.6094 22.5508 32.2615 22.5508 33.066C22.5508 33.8704 21.8987 34.5226 21.0943 34.5226Z" fill="#C2DBFF"/>
<path d="M151.997 40.839C151.192 40.839 150.54 40.1868 150.54 39.3824C150.54 38.5779 151.192 37.9258 151.997 37.9258C152.801 37.9258 153.453 38.5779 153.453 39.3824C153.453 40.1868 152.801 40.839 151.997 40.839Z" fill="#C2DBFF"/>
<path d="M145.452 40.839C144.647 40.839 143.995 40.1868 143.995 39.3824C143.995 38.5779 144.647 37.9258 145.452 37.9258C146.256 37.9258 146.908 38.5779 146.908 39.3824C146.908 40.1868 146.256 40.839 145.452 40.839Z" fill="#C2DBFF"/>
<path d="M138.905 40.839C138.1 40.839 137.448 40.1868 137.448 39.3824C137.448 38.5779 138.1 37.9258 138.905 37.9258C139.709 37.9258 140.361 38.5779 140.361 39.3824C140.361 40.1868 139.709 40.839 138.905 40.839Z" fill="#C2DBFF"/>
<path d="M132.36 40.839C131.556 40.839 130.903 40.1868 130.903 39.3824C130.903 38.5779 131.556 37.9258 132.36 37.9258C133.164 37.9258 133.816 38.5779 133.816 39.3824C133.816 40.1868 133.164 40.839 132.36 40.839Z" fill="#C2DBFF"/>
<path d="M125.815 40.839C125.011 40.839 124.359 40.1868 124.359 39.3824C124.359 38.5779 125.011 37.9258 125.815 37.9258C126.619 37.9258 127.271 38.5779 127.271 39.3824C127.271 40.1868 126.619 40.839 125.815 40.839Z" fill="#C2DBFF"/>
<path d="M119.268 40.839C118.464 40.839 117.812 40.1868 117.812 39.3824C117.812 38.5779 118.464 37.9258 119.268 37.9258C120.073 37.9258 120.725 38.5779 120.725 39.3824C120.725 40.1868 120.073 40.839 119.268 40.839Z" fill="#C2DBFF"/>
<path d="M112.723 40.839C111.919 40.839 111.267 40.1868 111.267 39.3824C111.267 38.5779 111.919 37.9258 112.723 37.9258C113.528 37.9258 114.18 38.5779 114.18 39.3824C114.18 40.1868 113.528 40.839 112.723 40.839Z" fill="#C2DBFF"/>
<path d="M106.178 40.839C105.374 40.839 104.722 40.1868 104.722 39.3824C104.722 38.5779 105.374 37.9258 106.178 37.9258C106.983 37.9258 107.635 38.5779 107.635 39.3824C107.635 40.1868 106.983 40.839 106.178 40.839Z" fill="#C2DBFF"/>
<path d="M99.6353 40.839C98.8309 40.839 98.1788 40.1868 98.1788 39.3824C98.1788 38.5779 98.8309 37.9258 99.6353 37.9258C100.44 37.9258 101.092 38.5779 101.092 39.3824C101.092 40.1868 100.44 40.839 99.6353 40.839Z" fill="#C2DBFF"/>
<path d="M93.0904 40.839C92.286 40.839 91.6339 40.1868 91.6339 39.3824C91.6339 38.5779 92.286 37.9258 93.0904 37.9258C93.8948 37.9258 94.5469 38.5779 94.5469 39.3824C94.5469 40.1868 93.8948 40.839 93.0904 40.839Z" fill="#C2DBFF"/>
<path d="M86.5455 40.839C85.7411 40.839 85.089 40.1868 85.089 39.3824C85.089 38.5779 85.7411 37.9258 86.5455 37.9258C87.3499 37.9258 88.002 38.5779 88.002 39.3824C88.002 40.1868 87.3499 40.839 86.5455 40.839Z" fill="#C2DBFF"/>
<path d="M80.0005 40.839C79.1962 40.839 78.5441 40.1868 78.5441 39.3824C78.5441 38.5779 79.1962 37.9258 80.0005 37.9258C80.8049 37.9258 81.457 38.5779 81.457 39.3824C81.457 40.1868 80.8049 40.839 80.0005 40.839Z" fill="#C2DBFF"/>
<path d="M73.4537 40.839C72.6493 40.839 71.9972 40.1868 71.9972 39.3824C71.9972 38.5779 72.6493 37.9258 73.4537 37.9258C74.2581 37.9258 74.9102 38.5779 74.9102 39.3824C74.9102 40.1868 74.2581 40.839 73.4537 40.839Z" fill="#C2DBFF"/>
<path d="M66.9068 40.839C66.1024 40.839 65.4503 40.1868 65.4503 39.3824C65.4503 38.5779 66.1024 37.9258 66.9068 37.9258C67.7112 37.9258 68.3633 38.5779 68.3633 39.3824C68.3633 40.1868 67.7112 40.839 66.9068 40.839Z" fill="#C2DBFF"/>
<path d="M60.3619 40.839C59.5575 40.839 58.9054 40.1868 58.9054 39.3824C58.9054 38.5779 59.5575 37.9258 60.3619 37.9258C61.1663 37.9258 61.8184 38.5779 61.8184 39.3824C61.8184 40.1868 61.1663 40.839 60.3619 40.839Z" fill="#C2DBFF"/>
<path d="M53.815 40.839C53.0106 40.839 52.3585 40.1868 52.3585 39.3824C52.3585 38.5779 53.0106 37.9258 53.815 37.9258C54.6194 37.9258 55.2715 38.5779 55.2715 39.3824C55.2715 40.1868 54.6194 40.839 53.815 40.839Z" fill="#C2DBFF"/>
<path d="M47.272 40.839C46.4676 40.839 45.8155 40.1868 45.8155 39.3824C45.8155 38.5779 46.4676 37.9258 47.272 37.9258C48.0764 37.9258 48.7285 38.5779 48.7285 39.3824C48.7285 40.1868 48.0764 40.839 47.272 40.839Z" fill="#C2DBFF"/>
<path d="M40.7252 40.839C39.9208 40.839 39.2687 40.1868 39.2687 39.3824C39.2687 38.5779 39.9208 37.9258 40.7252 37.9258C41.5295 37.9258 42.1816 38.5779 42.1816 39.3824C42.1816 40.1868 41.5295 40.839 40.7252 40.839Z" fill="#C2DBFF"/>
<path d="M34.1822 40.839C33.3778 40.839 32.7257 40.1868 32.7257 39.3824C32.7257 38.5779 33.3778 37.9258 34.1822 37.9258C34.9866 37.9258 35.6387 38.5779 35.6387 39.3824C35.6387 40.1868 34.9866 40.839 34.1822 40.839Z" fill="#C2DBFF"/>
<path d="M27.6353 40.839C26.8309 40.839 26.1788 40.1868 26.1788 39.3824C26.1788 38.5779 26.8309 37.9258 27.6353 37.9258C28.4397 37.9258 29.0918 38.5779 29.0918 39.3824C29.0918 40.1868 28.4397 40.839 27.6353 40.839Z" fill="#C2DBFF"/>
<path d="M21.0943 40.839C20.2899 40.839 19.6378 40.1868 19.6378 39.3824C19.6378 38.5779 20.2899 37.9258 21.0943 37.9258C21.8987 37.9258 22.5508 38.5779 22.5508 39.3824C22.5508 40.1868 21.8987 40.839 21.0943 40.839Z" fill="#C2DBFF"/>
<path d="M14.5455 40.839C13.7411 40.839 13.089 40.1868 13.089 39.3824C13.089 38.5779 13.7411 37.9258 14.5455 37.9258C15.3499 37.9258 16.002 38.5779 16.002 39.3824C16.002 40.1868 15.3499 40.839 14.5455 40.839Z" fill="#C2DBFF"/>
<path d="M158.542 47.1632C157.737 47.1632 157.085 46.511 157.085 45.7066C157.085 44.9021 157.737 44.25 158.542 44.25C159.346 44.25 159.998 44.9021 159.998 45.7066C159.998 46.511 159.346 47.1632 158.542 47.1632Z" fill="#C2DBFF"/>
<path d="M151.997 47.1632C151.192 47.1632 150.54 46.511 150.54 45.7066C150.54 44.9021 151.192 44.25 151.997 44.25C152.801 44.25 153.453 44.9021 153.453 45.7066C153.453 46.511 152.801 47.1632 151.997 47.1632Z" fill="#C2DBFF"/>
<path d="M145.452 47.1632C144.647 47.1632 143.995 46.511 143.995 45.7066C143.995 44.9021 144.647 44.25 145.452 44.25C146.256 44.25 146.908 44.9021 146.908 45.7066C146.908 46.511 146.256 47.1632 145.452 47.1632Z" fill="#C2DBFF"/>
<path d="M138.905 47.1632C138.1 47.1632 137.448 46.511 137.448 45.7066C137.448 44.9021 138.1 44.25 138.905 44.25C139.709 44.25 140.361 44.9021 140.361 45.7066C140.361 46.511 139.709 47.1632 138.905 47.1632Z" fill="#C2DBFF"/>
<path d="M132.36 47.1632C131.556 47.1632 130.903 46.511 130.903 45.7066C130.903 44.9021 131.556 44.25 132.36 44.25C133.164 44.25 133.816 44.9021 133.816 45.7066C133.816 46.511 133.164 47.1632 132.36 47.1632Z" fill="#C2DBFF"/>
<path d="M125.815 47.1632C125.011 47.1632 124.359 46.511 124.359 45.7066C124.359 44.9021 125.011 44.25 125.815 44.25C126.619 44.25 127.271 44.9021 127.271 45.7066C127.271 46.511 126.619 47.1632 125.815 47.1632Z" fill="#C2DBFF"/>
<path d="M119.268 47.1632C118.464 47.1632 117.812 46.511 117.812 45.7066C117.812 44.9021 118.464 44.25 119.268 44.25C120.073 44.25 120.725 44.9021 120.725 45.7066C120.725 46.511 120.073 47.1632 119.268 47.1632Z" fill="#C2DBFF"/>
<path d="M112.723 47.1632C111.919 47.1632 111.267 46.511 111.267 45.7066C111.267 44.9021 111.919 44.25 112.723 44.25C113.528 44.25 114.18 44.9021 114.18 45.7066C114.18 46.511 113.528 47.1632 112.723 47.1632Z" fill="#C2DBFF"/>
<path d="M106.178 47.1632C105.374 47.1632 104.722 46.511 104.722 45.7066C104.722 44.9021 105.374 44.25 106.178 44.25C106.983 44.25 107.635 44.9021 107.635 45.7066C107.635 46.511 106.983 47.1632 106.178 47.1632Z" fill="#C2DBFF"/>
<path d="M99.6353 47.1632C98.8309 47.1632 98.1788 46.511 98.1788 45.7066C98.1788 44.9021 98.8309 44.25 99.6353 44.25C100.44 44.25 101.092 44.9021 101.092 45.7066C101.092 46.511 100.44 47.1632 99.6353 47.1632Z" fill="#C2DBFF"/>
<path d="M93.0904 47.1632C92.286 47.1632 91.6339 46.511 91.6339 45.7066C91.6339 44.9021 92.286 44.25 93.0904 44.25C93.8948 44.25 94.5469 44.9021 94.5469 45.7066C94.5469 46.511 93.8948 47.1632 93.0904 47.1632Z" fill="#C2DBFF"/>
<path d="M86.5455 47.1632C85.7411 47.1632 85.089 46.511 85.089 45.7066C85.089 44.9021 85.7411 44.25 86.5455 44.25C87.3499 44.25 88.002 44.9021 88.002 45.7066C88.002 46.511 87.3499 47.1632 86.5455 47.1632Z" fill="#C2DBFF"/>
<path d="M80.0005 47.1632C79.1962 47.1632 78.5441 46.511 78.5441 45.7066C78.5441 44.9021 79.1962 44.25 80.0005 44.25C80.8049 44.25 81.457 44.9021 81.457 45.7066C81.457 46.511 80.8049 47.1632 80.0005 47.1632Z" fill="#C2DBFF"/>
<path d="M73.4537 47.1632C72.6493 47.1632 71.9972 46.511 71.9972 45.7066C71.9972 44.9021 72.6493 44.25 73.4537 44.25C74.2581 44.25 74.9102 44.9021 74.9102 45.7066C74.9102 46.511 74.2581 47.1632 73.4537 47.1632Z" fill="#C2DBFF"/>
<path d="M66.9068 47.1632C66.1024 47.1632 65.4503 46.511 65.4503 45.7066C65.4503 44.9021 66.1024 44.25 66.9068 44.25C67.7112 44.25 68.3633 44.9021 68.3633 45.7066C68.3633 46.511 67.7112 47.1632 66.9068 47.1632Z" fill="#C2DBFF"/>
<path d="M60.3619 47.1632C59.5575 47.1632 58.9054 46.511 58.9054 45.7066C58.9054 44.9021 59.5575 44.25 60.3619 44.25C61.1663 44.25 61.8184 44.9021 61.8184 45.7066C61.8184 46.511 61.1663 47.1632 60.3619 47.1632Z" fill="#C2DBFF"/>
<path d="M53.815 47.1632C53.0106 47.1632 52.3585 46.511 52.3585 45.7066C52.3585 44.9021 53.0106 44.25 53.815 44.25C54.6194 44.25 55.2715 44.9021 55.2715 45.7066C55.2715 46.511 54.6194 47.1632 53.815 47.1632Z" fill="#C2DBFF"/>
<path d="M47.272 47.1632C46.4676 47.1632 45.8155 46.511 45.8155 45.7066C45.8155 44.9021 46.4676 44.25 47.272 44.25C48.0764 44.25 48.7285 44.9021 48.7285 45.7066C48.7285 46.511 48.0764 47.1632 47.272 47.1632Z" fill="#C2DBFF"/>
<path d="M40.7252 47.1632C39.9208 47.1632 39.2687 46.511 39.2687 45.7066C39.2687 44.9021 39.9208 44.25 40.7252 44.25C41.5295 44.25 42.1816 44.9021 42.1816 45.7066C42.1816 46.511 41.5295 47.1632 40.7252 47.1632Z" fill="#C2DBFF"/>
<path d="M34.1822 47.1632C33.3778 47.1632 32.7257 46.511 32.7257 45.7066C32.7257 44.9021 33.3778 44.25 34.1822 44.25C34.9866 44.25 35.6387 44.9021 35.6387 45.7066C35.6387 46.511 34.9866 47.1632 34.1822 47.1632Z" fill="#C2DBFF"/>
<path d="M27.6353 47.1632C26.8309 47.1632 26.1788 46.511 26.1788 45.7066C26.1788 44.9021 26.8309 44.25 27.6353 44.25C28.4397 44.25 29.0918 44.9021 29.0918 45.7066C29.0918 46.511 28.4397 47.1632 27.6353 47.1632Z" fill="#C2DBFF"/>
<path d="M21.0943 47.1632C20.2899 47.1632 19.6378 46.511 19.6378 45.7066C19.6378 44.9021 20.2899 44.25 21.0943 44.25C21.8987 44.25 22.5508 44.9021 22.5508 45.7066C22.5508 46.511 21.8987 47.1632 21.0943 47.1632Z" fill="#C2DBFF"/>
<path d="M14.5455 47.1632C13.7411 47.1632 13.089 46.511 13.089 45.7066C13.089 44.9021 13.7411 44.25 14.5455 44.25C15.3499 44.25 16.002 44.9021 16.002 45.7066C16.002 46.511 15.3499 47.1632 14.5455 47.1632Z" fill="#C2DBFF"/>
<path d="M7.9986 47.1632C7.19421 47.1632 6.54211 46.511 6.54211 45.7066C6.54211 44.9021 7.19421 44.25 7.9986 44.25C8.803 44.25 9.45508 44.9021 9.45508 45.7066C9.45508 46.511 8.803 47.1632 7.9986 47.1632Z" fill="#C2DBFF"/>
<path d="M158.542 53.4874C157.737 53.4874 157.085 52.8353 157.085 52.0308C157.085 51.2264 157.737 50.5742 158.542 50.5742C159.346 50.5742 159.998 51.2264 159.998 52.0308C159.998 52.8353 159.346 53.4874 158.542 53.4874Z" fill="#C2DBFF"/>
<path d="M151.997 53.4874C151.192 53.4874 150.54 52.8353 150.54 52.0308C150.54 51.2264 151.192 50.5742 151.997 50.5742C152.801 50.5742 153.453 51.2264 153.453 52.0308C153.453 52.8353 152.801 53.4874 151.997 53.4874Z" fill="#C2DBFF"/>
<path d="M145.452 53.4874C144.647 53.4874 143.995 52.8353 143.995 52.0308C143.995 51.2264 144.647 50.5742 145.452 50.5742C146.256 50.5742 146.908 51.2264 146.908 52.0308C146.908 52.8353 146.256 53.4874 145.452 53.4874Z" fill="#C2DBFF"/>
<path d="M138.905 53.4874C138.1 53.4874 137.448 52.8353 137.448 52.0308C137.448 51.2264 138.1 50.5742 138.905 50.5742C139.709 50.5742 140.361 51.2264 140.361 52.0308C140.361 52.8353 139.709 53.4874 138.905 53.4874Z" fill="#C2DBFF"/>
<path d="M132.36 53.4874C131.556 53.4874 130.903 52.8353 130.903 52.0308C130.903 51.2264 131.556 50.5742 132.36 50.5742C133.164 50.5742 133.816 51.2264 133.816 52.0308C133.816 52.8353 133.164 53.4874 132.36 53.4874Z" fill="#C2DBFF"/>
<path d="M125.815 53.4874C125.011 53.4874 124.359 52.8353 124.359 52.0308C124.359 51.2264 125.011 50.5742 125.815 50.5742C126.619 50.5742 127.271 51.2264 127.271 52.0308C127.271 52.8353 126.619 53.4874 125.815 53.4874Z" fill="#C2DBFF"/>
<path d="M119.268 53.4874C118.464 53.4874 117.812 52.8353 117.812 52.0308C117.812 51.2264 118.464 50.5742 119.268 50.5742C120.073 50.5742 120.725 51.2264 120.725 52.0308C120.725 52.8353 120.073 53.4874 119.268 53.4874Z" fill="#C2DBFF"/>
<path d="M112.723 53.4874C111.919 53.4874 111.267 52.8353 111.267 52.0308C111.267 51.2264 111.919 50.5742 112.723 50.5742C113.528 50.5742 114.18 51.2264 114.18 52.0308C114.18 52.8353 113.528 53.4874 112.723 53.4874Z" fill="#C2DBFF"/>
<path d="M106.178 53.4874C105.374 53.4874 104.722 52.8353 104.722 52.0308C104.722 51.2264 105.374 50.5742 106.178 50.5742C106.983 50.5742 107.635 51.2264 107.635 52.0308C107.635 52.8353 106.983 53.4874 106.178 53.4874Z" fill="#C2DBFF"/>
<path d="M99.6353 53.4874C98.8309 53.4874 98.1788 52.8353 98.1788 52.0308C98.1788 51.2264 98.8309 50.5742 99.6353 50.5742C100.44 50.5742 101.092 51.2264 101.092 52.0308C101.092 52.8353 100.44 53.4874 99.6353 53.4874Z" fill="#C2DBFF"/>
<path d="M93.0904 53.4874C92.286 53.4874 91.6339 52.8353 91.6339 52.0308C91.6339 51.2264 92.286 50.5742 93.0904 50.5742C93.8948 50.5742 94.5469 51.2264 94.5469 52.0308C94.5469 52.8353 93.8948 53.4874 93.0904 53.4874Z" fill="#C2DBFF"/>
<path d="M86.5455 53.4874C85.7411 53.4874 85.089 52.8353 85.089 52.0308C85.089 51.2264 85.7411 50.5742 86.5455 50.5742C87.3499 50.5742 88.002 51.2264 88.002 52.0308C88.002 52.8353 87.3499 53.4874 86.5455 53.4874Z" fill="#C2DBFF"/>
<path d="M80.0005 53.4874C79.1962 53.4874 78.5441 52.8353 78.5441 52.0308C78.5441 51.2264 79.1962 50.5742 80.0005 50.5742C80.8049 50.5742 81.457 51.2264 81.457 52.0308C81.457 52.8353 80.8049 53.4874 80.0005 53.4874Z" fill="#C2DBFF"/>
<path d="M73.4537 53.4874C72.6493 53.4874 71.9972 52.8353 71.9972 52.0308C71.9972 51.2264 72.6493 50.5742 73.4537 50.5742C74.2581 50.5742 74.9102 51.2264 74.9102 52.0308C74.9102 52.8353 74.2581 53.4874 73.4537 53.4874Z" fill="#C2DBFF"/>
<path d="M66.9068 53.4874C66.1024 53.4874 65.4503 52.8353 65.4503 52.0308C65.4503 51.2264 66.1024 50.5742 66.9068 50.5742C67.7112 50.5742 68.3633 51.2264 68.3633 52.0308C68.3633 52.8353 67.7112 53.4874 66.9068 53.4874Z" fill="#C2DBFF"/>
<path d="M60.3619 53.4874C59.5575 53.4874 58.9054 52.8353 58.9054 52.0308C58.9054 51.2264 59.5575 50.5742 60.3619 50.5742C61.1663 50.5742 61.8184 51.2264 61.8184 52.0308C61.8184 52.8353 61.1663 53.4874 60.3619 53.4874Z" fill="#C2DBFF"/>
<path d="M53.815 53.4874C53.0106 53.4874 52.3585 52.8353 52.3585 52.0308C52.3585 51.2264 53.0106 50.5742 53.815 50.5742C54.6194 50.5742 55.2715 51.2264 55.2715 52.0308C55.2715 52.8353 54.6194 53.4874 53.815 53.4874Z" fill="#C2DBFF"/>
<path d="M47.272 53.4874C46.4676 53.4874 45.8155 52.8353 45.8155 52.0308C45.8155 51.2264 46.4676 50.5742 47.272 50.5742C48.0764 50.5742 48.7285 51.2264 48.7285 52.0308C48.7285 52.8353 48.0764 53.4874 47.272 53.4874Z" fill="#C2DBFF"/>
<path d="M40.7252 53.4874C39.9208 53.4874 39.2687 52.8353 39.2687 52.0308C39.2687 51.2264 39.9208 50.5742 40.7252 50.5742C41.5295 50.5742 42.1816 51.2264 42.1816 52.0308C42.1816 52.8353 41.5295 53.4874 40.7252 53.4874Z" fill="#C2DBFF"/>
<path d="M34.1822 53.4874C33.3778 53.4874 32.7257 52.8353 32.7257 52.0308C32.7257 51.2264 33.3778 50.5742 34.1822 50.5742C34.9866 50.5742 35.6387 51.2264 35.6387 52.0308C35.6387 52.8353 34.9866 53.4874 34.1822 53.4874Z" fill="#C2DBFF"/>
<path d="M27.6353 53.4874C26.8309 53.4874 26.1788 52.8353 26.1788 52.0308C26.1788 51.2264 26.8309 50.5742 27.6353 50.5742C28.4397 50.5742 29.0918 51.2264 29.0918 52.0308C29.0918 52.8353 28.4397 53.4874 27.6353 53.4874Z" fill="#C2DBFF"/>
<path d="M21.0943 53.4874C20.2899 53.4874 19.6378 52.8353 19.6378 52.0308C19.6378 51.2264 20.2899 50.5742 21.0943 50.5742C21.8987 50.5742 22.5508 51.2264 22.5508 52.0308C22.5508 52.8353 21.8987 53.4874 21.0943 53.4874Z" fill="#C2DBFF"/>
<path d="M14.5455 53.4874C13.7411 53.4874 13.089 52.8353 13.089 52.0308C13.089 51.2264 13.7411 50.5742 14.5455 50.5742C15.3499 50.5742 16.002 51.2264 16.002 52.0308C16.002 52.8353 15.3499 53.4874 14.5455 53.4874Z" fill="#C2DBFF"/>
<path d="M7.9986 53.4874C7.19421 53.4874 6.54211 52.8353 6.54211 52.0308C6.54211 51.2264 7.19421 50.5742 7.9986 50.5742C8.803 50.5742 9.45508 51.2264 9.45508 52.0308C9.45508 52.8353 8.803 53.4874 7.9986 53.4874Z" fill="#C2DBFF"/>
<path d="M1.45563 53.4874C0.651237 53.4874 -0.000840664 52.8353 -0.000840664 52.0308C-0.000840664 51.2264 0.651237 50.5742 1.45563 50.5742C2.26002 50.5742 2.91211 51.2264 2.91211 52.0308C2.91211 52.8353 2.26002 53.4874 1.45563 53.4874Z" fill="#C2DBFF"/>
<path d="M158.542 59.8038C157.737 59.8038 157.085 59.1517 157.085 58.3472C157.085 57.5428 157.737 56.8906 158.542 56.8906C159.346 56.8906 159.998 57.5428 159.998 58.3472C159.998 59.1517 159.346 59.8038 158.542 59.8038Z" fill="#C2DBFF"/>
<path d="M151.997 59.8038C151.192 59.8038 150.54 59.1517 150.54 58.3472C150.54 57.5428 151.192 56.8906 151.997 56.8906C152.801 56.8906 153.453 57.5428 153.453 58.3472C153.453 59.1517 152.801 59.8038 151.997 59.8038Z" fill="#C2DBFF"/>
<path d="M145.452 59.8038C144.647 59.8038 143.995 59.1517 143.995 58.3472C143.995 57.5428 144.647 56.8906 145.452 56.8906C146.256 56.8906 146.908 57.5428 146.908 58.3472C146.908 59.1517 146.256 59.8038 145.452 59.8038Z" fill="#C2DBFF"/>
<path d="M138.905 59.8038C138.1 59.8038 137.448 59.1517 137.448 58.3472C137.448 57.5428 138.1 56.8906 138.905 56.8906C139.709 56.8906 140.361 57.5428 140.361 58.3472C140.361 59.1517 139.709 59.8038 138.905 59.8038Z" fill="#C2DBFF"/>
<path d="M132.36 59.8038C131.556 59.8038 130.903 59.1517 130.903 58.3472C130.903 57.5428 131.556 56.8906 132.36 56.8906C133.164 56.8906 133.816 57.5428 133.816 58.3472C133.816 59.1517 133.164 59.8038 132.36 59.8038Z" fill="#C2DBFF"/>
<path d="M125.815 59.8038C125.011 59.8038 124.359 59.1517 124.359 58.3472C124.359 57.5428 125.011 56.8906 125.815 56.8906C126.619 56.8906 127.271 57.5428 127.271 58.3472C127.271 59.1517 126.619 59.8038 125.815 59.8038Z" fill="#C2DBFF"/>
<path d="M119.268 59.8038C118.464 59.8038 117.812 59.1517 117.812 58.3472C117.812 57.5428 118.464 56.8906 119.268 56.8906C120.073 56.8906 120.725 57.5428 120.725 58.3472C120.725 59.1517 120.073 59.8038 119.268 59.8038Z" fill="#C2DBFF"/>
<path d="M112.723 59.8038C111.919 59.8038 111.267 59.1517 111.267 58.3472C111.267 57.5428 111.919 56.8906 112.723 56.8906C113.528 56.8906 114.18 57.5428 114.18 58.3472C114.18 59.1517 113.528 59.8038 112.723 59.8038Z" fill="#C2DBFF"/>
<path d="M106.178 59.8038C105.374 59.8038 104.722 59.1517 104.722 58.3472C104.722 57.5428 105.374 56.8906 106.178 56.8906C106.983 56.8906 107.635 57.5428 107.635 58.3472C107.635 59.1517 106.983 59.8038 106.178 59.8038Z" fill="#C2DBFF"/>
<path d="M99.6353 59.8038C98.8309 59.8038 98.1788 59.1517 98.1788 58.3472C98.1788 57.5428 98.8309 56.8906 99.6353 56.8906C100.44 56.8906 101.092 57.5428 101.092 58.3472C101.092 59.1517 100.44 59.8038 99.6353 59.8038Z" fill="#C2DBFF"/>
<path d="M93.0904 59.8038C92.286 59.8038 91.6339 59.1517 91.6339 58.3472C91.6339 57.5428 92.286 56.8906 93.0904 56.8906C93.8948 56.8906 94.5469 57.5428 94.5469 58.3472C94.5469 59.1517 93.8948 59.8038 93.0904 59.8038Z" fill="#C2DBFF"/>
<path d="M86.5455 59.8038C85.7411 59.8038 85.089 59.1517 85.089 58.3472C85.089 57.5428 85.7411 56.8906 86.5455 56.8906C87.3499 56.8906 88.002 57.5428 88.002 58.3472C88.002 59.1517 87.3499 59.8038 86.5455 59.8038Z" fill="#C2DBFF"/>
<path d="M80.0005 59.8038C79.1962 59.8038 78.5441 59.1517 78.5441 58.3472C78.5441 57.5428 79.1962 56.8906 80.0005 56.8906C80.8049 56.8906 81.457 57.5428 81.457 58.3472C81.457 59.1517 80.8049 59.8038 80.0005 59.8038Z" fill="#C2DBFF"/>
<path d="M73.4537 59.8038C72.6493 59.8038 71.9972 59.1517 71.9972 58.3472C71.9972 57.5428 72.6493 56.8906 73.4537 56.8906C74.2581 56.8906 74.9102 57.5428 74.9102 58.3472C74.9102 59.1517 74.2581 59.8038 73.4537 59.8038Z" fill="#C2DBFF"/>
<path d="M66.9068 59.8038C66.1024 59.8038 65.4503 59.1517 65.4503 58.3472C65.4503 57.5428 66.1024 56.8906 66.9068 56.8906C67.7112 56.8906 68.3633 57.5428 68.3633 58.3472C68.3633 59.1517 67.7112 59.8038 66.9068 59.8038Z" fill="#C2DBFF"/>
<path d="M60.3619 59.8038C59.5575 59.8038 58.9054 59.1517 58.9054 58.3472C58.9054 57.5428 59.5575 56.8906 60.3619 56.8906C61.1663 56.8906 61.8184 57.5428 61.8184 58.3472C61.8184 59.1517 61.1663 59.8038 60.3619 59.8038Z" fill="#C2DBFF"/>
<path d="M53.815 59.8038C53.0106 59.8038 52.3585 59.1517 52.3585 58.3472C52.3585 57.5428 53.0106 56.8906 53.815 56.8906C54.6194 56.8906 55.2715 57.5428 55.2715 58.3472C55.2715 59.1517 54.6194 59.8038 53.815 59.8038Z" fill="#C2DBFF"/>
<path d="M47.272 59.8038C46.4676 59.8038 45.8155 59.1517 45.8155 58.3472C45.8155 57.5428 46.4676 56.8906 47.272 56.8906C48.0764 56.8906 48.7285 57.5428 48.7285 58.3472C48.7285 59.1517 48.0764 59.8038 47.272 59.8038Z" fill="#C2DBFF"/>
<path d="M40.7252 59.8038C39.9208 59.8038 39.2687 59.1517 39.2687 58.3472C39.2687 57.5428 39.9208 56.8906 40.7252 56.8906C41.5295 56.8906 42.1816 57.5428 42.1816 58.3472C42.1816 59.1517 41.5295 59.8038 40.7252 59.8038Z" fill="#C2DBFF"/>
<path d="M34.1822 59.8038C33.3778 59.8038 32.7257 59.1517 32.7257 58.3472C32.7257 57.5428 33.3778 56.8906 34.1822 56.8906C34.9866 56.8906 35.6387 57.5428 35.6387 58.3472C35.6387 59.1517 34.9866 59.8038 34.1822 59.8038Z" fill="#C2DBFF"/>
<path d="M27.6353 59.8038C26.8309 59.8038 26.1788 59.1517 26.1788 58.3472C26.1788 57.5428 26.8309 56.8906 27.6353 56.8906C28.4397 56.8906 29.0918 57.5428 29.0918 58.3472C29.0918 59.1517 28.4397 59.8038 27.6353 59.8038Z" fill="#C2DBFF"/>
<path d="M21.0943 59.8038C20.2899 59.8038 19.6378 59.1517 19.6378 58.3472C19.6378 57.5428 20.2899 56.8906 21.0943 56.8906C21.8987 56.8906 22.5508 57.5428 22.5508 58.3472C22.5508 59.1517 21.8987 59.8038 21.0943 59.8038Z" fill="#C2DBFF"/>
<path d="M14.5455 59.8038C13.7411 59.8038 13.089 59.1517 13.089 58.3472C13.089 57.5428 13.7411 56.8906 14.5455 56.8906C15.3499 56.8906 16.002 57.5428 16.002 58.3472C16.002 59.1517 15.3499 59.8038 14.5455 59.8038Z" fill="#C2DBFF"/>
<path d="M7.9986 59.8038C7.19421 59.8038 6.54211 59.1517 6.54211 58.3472C6.54211 57.5428 7.19421 56.8906 7.9986 56.8906C8.803 56.8906 9.45508 57.5428 9.45508 58.3472C9.45508 59.1517 8.803 59.8038 7.9986 59.8038Z" fill="#C2DBFF"/>
<path d="M1.45563 59.8038C0.651237 59.8038 -0.000840664 59.1517 -0.000840664 58.3472C-0.000840664 57.5428 0.651237 56.8906 1.45563 56.8906C2.26002 56.8906 2.91211 57.5428 2.91211 58.3472C2.91211 59.1517 2.26002 59.8038 1.45563 59.8038Z" fill="#C2DBFF"/>
<path d="M145.452 66.128C144.647 66.128 143.995 65.4759 143.995 64.6714C143.995 63.867 144.647 63.2148 145.452 63.2148C146.256 63.2148 146.908 63.867 146.908 64.6714C146.908 65.4759 146.256 66.128 145.452 66.128Z" fill="#C2DBFF"/>
<path d="M138.905 66.128C138.1 66.128 137.448 65.4759 137.448 64.6714C137.448 63.867 138.1 63.2148 138.905 63.2148C139.709 63.2148 140.361 63.867 140.361 64.6714C140.361 65.4759 139.709 66.128 138.905 66.128Z" fill="#C2DBFF"/>
<path d="M132.36 66.128C131.556 66.128 130.903 65.4759 130.903 64.6714C130.903 63.867 131.556 63.2148 132.36 63.2148C133.164 63.2148 133.816 63.867 133.816 64.6714C133.816 65.4759 133.164 66.128 132.36 66.128Z" fill="#C2DBFF"/>
<path d="M125.815 66.128C125.011 66.128 124.359 65.4759 124.359 64.6714C124.359 63.867 125.011 63.2148 125.815 63.2148C126.619 63.2148 127.271 63.867 127.271 64.6714C127.271 65.4759 126.619 66.128 125.815 66.128Z" fill="#C2DBFF"/>
<path d="M119.268 66.128C118.464 66.128 117.812 65.4759 117.812 64.6714C117.812 63.867 118.464 63.2148 119.268 63.2148C120.073 63.2148 120.725 63.867 120.725 64.6714C120.725 65.4759 120.073 66.128 119.268 66.128Z" fill="#C2DBFF"/>
<path d="M112.723 66.128C111.919 66.128 111.267 65.4759 111.267 64.6714C111.267 63.867 111.919 63.2148 112.723 63.2148C113.528 63.2148 114.18 63.867 114.18 64.6714C114.18 65.4759 113.528 66.128 112.723 66.128Z" fill="#C2DBFF"/>
<path d="M106.178 66.128C105.374 66.128 104.722 65.4759 104.722 64.6714C104.722 63.867 105.374 63.2148 106.178 63.2148C106.983 63.2148 107.635 63.867 107.635 64.6714C107.635 65.4759 106.983 66.128 106.178 66.128Z" fill="#C2DBFF"/>
<path d="M99.6353 66.128C98.8309 66.128 98.1788 65.4759 98.1788 64.6714C98.1788 63.867 98.8309 63.2148 99.6353 63.2148C100.44 63.2148 101.092 63.867 101.092 64.6714C101.092 65.4759 100.44 66.128 99.6353 66.128Z" fill="#C2DBFF"/>
<path d="M93.0904 66.128C92.286 66.128 91.6339 65.4759 91.6339 64.6714C91.6339 63.867 92.286 63.2148 93.0904 63.2148C93.8948 63.2148 94.5469 63.867 94.5469 64.6714C94.5469 65.4759 93.8948 66.128 93.0904 66.128Z" fill="#C2DBFF"/>
<path d="M86.5455 66.128C85.7411 66.128 85.089 65.4759 85.089 64.6714C85.089 63.867 85.7411 63.2148 86.5455 63.2148C87.3499 63.2148 88.002 63.867 88.002 64.6714C88.002 65.4759 87.3499 66.128 86.5455 66.128Z" fill="#C2DBFF"/>
<path d="M80.0005 66.128C79.1962 66.128 78.5441 65.4759 78.5441 64.6714C78.5441 63.867 79.1962 63.2148 80.0005 63.2148C80.8049 63.2148 81.457 63.867 81.457 64.6714C81.457 65.4759 80.8049 66.128 80.0005 66.128Z" fill="#C2DBFF"/>
<path d="M73.4537 66.128C72.6493 66.128 71.9972 65.4759 71.9972 64.6714C71.9972 63.867 72.6493 63.2148 73.4537 63.2148C74.2581 63.2148 74.9102 63.867 74.9102 64.6714C74.9102 65.4759 74.2581 66.128 73.4537 66.128Z" fill="#C2DBFF"/>
<path d="M66.9068 66.128C66.1024 66.128 65.4503 65.4759 65.4503 64.6714C65.4503 63.867 66.1024 63.2148 66.9068 63.2148C67.7112 63.2148 68.3633 63.867 68.3633 64.6714C68.3633 65.4759 67.7112 66.128 66.9068 66.128Z" fill="#C2DBFF"/>
<path d="M60.3619 66.128C59.5575 66.128 58.9054 65.4759 58.9054 64.6714C58.9054 63.867 59.5575 63.2148 60.3619 63.2148C61.1663 63.2148 61.8184 63.867 61.8184 64.6714C61.8184 65.4759 61.1663 66.128 60.3619 66.128Z" fill="#C2DBFF"/>
<path d="M53.815 66.128C53.0106 66.128 52.3585 65.4759 52.3585 64.6714C52.3585 63.867 53.0106 63.2148 53.815 63.2148C54.6194 63.2148 55.2715 63.867 55.2715 64.6714C55.2715 65.4759 54.6194 66.128 53.815 66.128Z" fill="#C2DBFF"/>
<path d="M47.272 66.128C46.4676 66.128 45.8155 65.4759 45.8155 64.6714C45.8155 63.867 46.4676 63.2148 47.272 63.2148C48.0764 63.2148 48.7285 63.867 48.7285 64.6714C48.7285 65.4759 48.0764 66.128 47.272 66.128Z" fill="#C2DBFF"/>
<path d="M40.7252 66.128C39.9208 66.128 39.2687 65.4759 39.2687 64.6714C39.2687 63.867 39.9208 63.2148 40.7252 63.2148C41.5295 63.2148 42.1816 63.867 42.1816 64.6714C42.1816 65.4759 41.5295 66.128 40.7252 66.128Z" fill="#C2DBFF"/>
<path d="M34.1822 66.128C33.3778 66.128 32.7257 65.4759 32.7257 64.6714C32.7257 63.867 33.3778 63.2148 34.1822 63.2148C34.9866 63.2148 35.6387 63.867 35.6387 64.6714C35.6387 65.4759 34.9866 66.128 34.1822 66.128Z" fill="#C2DBFF"/>
<path d="M27.6353 66.128C26.8309 66.128 26.1788 65.4759 26.1788 64.6714C26.1788 63.867 26.8309 63.2148 27.6353 63.2148C28.4397 63.2148 29.0918 63.867 29.0918 64.6714C29.0918 65.4759 28.4397 66.128 27.6353 66.128Z" fill="#C2DBFF"/>
<path d="M21.0943 66.128C20.2899 66.128 19.6378 65.4759 19.6378 64.6714C19.6378 63.867 20.2899 63.2148 21.0943 63.2148C21.8987 63.2148 22.5508 63.867 22.5508 64.6714C22.5508 65.4759 21.8987 66.128 21.0943 66.128Z" fill="#C2DBFF"/>
<path d="M14.5455 66.128C13.7411 66.128 13.089 65.4759 13.089 64.6714C13.089 63.867 13.7411 63.2148 14.5455 63.2148C15.3499 63.2148 16.002 63.867 16.002 64.6714C16.002 65.4759 15.3499 66.128 14.5455 66.128Z" fill="#C2DBFF"/>
<path d="M7.9986 66.128C7.19421 66.128 6.54211 65.4759 6.54211 64.6714C6.54211 63.867 7.19421 63.2148 7.9986 63.2148C8.803 63.2148 9.45508 63.867 9.45508 64.6714C9.45508 65.4759 8.803 66.128 7.9986 66.128Z" fill="#C2DBFF"/>
<path d="M132.36 72.4523C131.556 72.4523 130.903 71.8001 130.903 70.9957C130.903 70.1912 131.556 69.5391 132.36 69.5391C133.164 69.5391 133.816 70.1912 133.816 70.9957C133.816 71.8001 133.164 72.4523 132.36 72.4523Z" fill="#C2DBFF"/>
<path d="M125.815 72.4523C125.011 72.4523 124.359 71.8001 124.359 70.9957C124.359 70.1912 125.011 69.5391 125.815 69.5391C126.619 69.5391 127.271 70.1912 127.271 70.9957C127.271 71.8001 126.619 72.4523 125.815 72.4523Z" fill="#C2DBFF"/>
<path d="M119.268 72.4523C118.464 72.4523 117.812 71.8001 117.812 70.9957C117.812 70.1912 118.464 69.5391 119.268 69.5391C120.073 69.5391 120.725 70.1912 120.725 70.9957C120.725 71.8001 120.073 72.4523 119.268 72.4523Z" fill="#C2DBFF"/>
<path d="M106.178 72.4523C105.374 72.4523 104.722 71.8001 104.722 70.9957C104.722 70.1912 105.374 69.5391 106.178 69.5391C106.983 69.5391 107.635 70.1912 107.635 70.9957C107.635 71.8001 106.983 72.4523 106.178 72.4523Z" fill="#C2DBFF"/>
<path d="M99.6353 72.4523C98.8309 72.4523 98.1788 71.8001 98.1788 70.9957C98.1788 70.1912 98.8309 69.5391 99.6353 69.5391C100.44 69.5391 101.092 70.1912 101.092 70.9957C101.092 71.8001 100.44 72.4523 99.6353 72.4523Z" fill="#C2DBFF"/>
<path d="M93.0904 72.4523C92.286 72.4523 91.6339 71.8001 91.6339 70.9957C91.6339 70.1912 92.286 69.5391 93.0904 69.5391C93.8948 69.5391 94.5469 70.1912 94.5469 70.9957C94.5469 71.8001 93.8948 72.4523 93.0904 72.4523Z" fill="#C2DBFF"/>
<path d="M86.5455 72.4523C85.7411 72.4523 85.089 71.8001 85.089 70.9957C85.089 70.1912 85.7411 69.5391 86.5455 69.5391C87.3499 69.5391 88.002 70.1912 88.002 70.9957C88.002 71.8001 87.3499 72.4523 86.5455 72.4523Z" fill="#C2DBFF"/>
<path d="M80.0005 72.4523C79.1962 72.4523 78.5441 71.8001 78.5441 70.9957C78.5441 70.1912 79.1962 69.5391 80.0005 69.5391C80.8049 69.5391 81.457 70.1912 81.457 70.9957C81.457 71.8001 80.8049 72.4523 80.0005 72.4523Z" fill="#C2DBFF"/>
<path d="M73.4537 72.4523C72.6493 72.4523 71.9972 71.8001 71.9972 70.9957C71.9972 70.1912 72.6493 69.5391 73.4537 69.5391C74.2581 69.5391 74.9102 70.1912 74.9102 70.9957C74.9102 71.8001 74.2581 72.4523 73.4537 72.4523Z" fill="#C2DBFF"/>
<path d="M66.9068 72.4523C66.1024 72.4523 65.4503 71.8001 65.4503 70.9957C65.4503 70.1912 66.1024 69.5391 66.9068 69.5391C67.7112 69.5391 68.3633 70.1912 68.3633 70.9957C68.3633 71.8001 67.7112 72.4523 66.9068 72.4523Z" fill="#C2DBFF"/>
<path d="M60.3619 72.4523C59.5575 72.4523 58.9054 71.8001 58.9054 70.9957C58.9054 70.1912 59.5575 69.5391 60.3619 69.5391C61.1663 69.5391 61.8184 70.1912 61.8184 70.9957C61.8184 71.8001 61.1663 72.4523 60.3619 72.4523Z" fill="#C2DBFF"/>
<path d="M53.815 72.4523C53.0106 72.4523 52.3585 71.8001 52.3585 70.9957C52.3585 70.1912 53.0106 69.5391 53.815 69.5391C54.6194 69.5391 55.2715 70.1912 55.2715 70.9957C55.2715 71.8001 54.6194 72.4523 53.815 72.4523Z" fill="#C2DBFF"/>
<path d="M47.272 72.4523C46.4676 72.4523 45.8155 71.8001 45.8155 70.9957C45.8155 70.1912 46.4676 69.5391 47.272 69.5391C48.0764 69.5391 48.7285 70.1912 48.7285 70.9957C48.7285 71.8001 48.0764 72.4523 47.272 72.4523Z" fill="#C2DBFF"/>
<path d="M40.7252 72.4523C39.9208 72.4523 39.2687 71.8001 39.2687 70.9957C39.2687 70.1912 39.9208 69.5391 40.7252 69.5391C41.5295 69.5391 42.1816 70.1912 42.1816 70.9957C42.1816 71.8001 41.5295 72.4523 40.7252 72.4523Z" fill="#C2DBFF"/>
<path d="M34.1822 72.4523C33.3778 72.4523 32.7257 71.8001 32.7257 70.9957C32.7257 70.1912 33.3778 69.5391 34.1822 69.5391C34.9866 69.5391 35.6387 70.1912 35.6387 70.9957C35.6387 71.8001 34.9866 72.4523 34.1822 72.4523Z" fill="#C2DBFF"/>
<path d="M27.6353 72.4523C26.8309 72.4523 26.1788 71.8001 26.1788 70.9957C26.1788 70.1912 26.8309 69.5391 27.6353 69.5391C28.4397 69.5391 29.0918 70.1912 29.0918 70.9957C29.0918 71.8001 28.4397 72.4523 27.6353 72.4523Z" fill="#C2DBFF"/>
<path d="M21.0943 72.4523C20.2899 72.4523 19.6378 71.8001 19.6378 70.9957C19.6378 70.1912 20.2899 69.5391 21.0943 69.5391C21.8987 69.5391 22.5508 70.1912 22.5508 70.9957C22.5508 71.8001 21.8987 72.4523 21.0943 72.4523Z" fill="#C2DBFF"/>
<path d="M14.5455 72.4523C13.7411 72.4523 13.089 71.8001 13.089 70.9957C13.089 70.1912 13.7411 69.5391 14.5455 69.5391C15.3499 69.5391 16.002 70.1912 16.002 70.9957C16.002 71.8001 15.3499 72.4523 14.5455 72.4523Z" fill="#C2DBFF"/>
<path d="M99.6353 78.7726C98.8309 78.7726 98.1788 78.1204 98.1788 77.316C98.1788 76.5115 98.8309 75.8594 99.6353 75.8594C100.44 75.8594 101.092 76.5115 101.092 77.316C101.092 78.1204 100.44 78.7726 99.6353 78.7726Z" fill="#C2DBFF"/>
<path d="M93.0904 78.7726C92.286 78.7726 91.6339 78.1204 91.6339 77.316C91.6339 76.5115 92.286 75.8594 93.0904 75.8594C93.8948 75.8594 94.5469 76.5115 94.5469 77.316C94.5469 78.1204 93.8948 78.7726 93.0904 78.7726Z" fill="#C2DBFF"/>
<path d="M86.5455 78.7726C85.7411 78.7726 85.089 78.1204 85.089 77.316C85.089 76.5115 85.7411 75.8594 86.5455 75.8594C87.3499 75.8594 88.002 76.5115 88.002 77.316C88.002 78.1204 87.3499 78.7726 86.5455 78.7726Z" fill="#C2DBFF"/>
<path d="M80.0005 78.7726C79.1962 78.7726 78.5441 78.1204 78.5441 77.316C78.5441 76.5115 79.1962 75.8594 80.0005 75.8594C80.8049 75.8594 81.457 76.5115 81.457 77.316C81.457 78.1204 80.8049 78.7726 80.0005 78.7726Z" fill="#C2DBFF"/>
<path d="M73.4537 78.7726C72.6493 78.7726 71.9972 78.1204 71.9972 77.316C71.9972 76.5115 72.6493 75.8594 73.4537 75.8594C74.2581 75.8594 74.9102 76.5115 74.9102 77.316C74.9102 78.1204 74.2581 78.7726 73.4537 78.7726Z" fill="#C2DBFF"/>
<path d="M66.9068 78.7726C66.1024 78.7726 65.4503 78.1204 65.4503 77.316C65.4503 76.5115 66.1024 75.8594 66.9068 75.8594C67.7112 75.8594 68.3633 76.5115 68.3633 77.316C68.3633 78.1204 67.7112 78.7726 66.9068 78.7726Z" fill="#C2DBFF"/>
<path d="M60.3619 78.7726C59.5575 78.7726 58.9054 78.1204 58.9054 77.316C58.9054 76.5115 59.5575 75.8594 60.3619 75.8594C61.1663 75.8594 61.8184 76.5115 61.8184 77.316C61.8184 78.1204 61.1663 78.7726 60.3619 78.7726Z" fill="#C2DBFF"/>
<path d="M53.815 78.7726C53.0106 78.7726 52.3585 78.1204 52.3585 77.316C52.3585 76.5115 53.0106 75.8594 53.815 75.8594C54.6194 75.8594 55.2715 76.5115 55.2715 77.316C55.2715 78.1204 54.6194 78.7726 53.815 78.7726Z" fill="#C2DBFF"/>
<path d="M80.0005 85.0929C79.1962 85.0929 78.5441 84.4407 78.5441 83.6363C78.5441 82.8318 79.1962 82.1797 80.0005 82.1797C80.8049 82.1797 81.457 82.8318 81.457 83.6363C81.457 84.4407 80.8049 85.0929 80.0005 85.0929Z" fill="#C2DBFF"/>
<path d="M73.4537 85.0929C72.6493 85.0929 71.9972 84.4407 71.9972 83.6363C71.9972 82.8318 72.6493 82.1797 73.4537 82.1797C74.2581 82.1797 74.9102 82.8318 74.9102 83.6363C74.9102 84.4407 74.2581 85.0929 73.4537 85.0929Z" fill="#C2DBFF"/>
<path d="M66.9068 85.0929C66.1024 85.0929 65.4503 84.4407 65.4503 83.6363C65.4503 82.8318 66.1024 82.1797 66.9068 82.1797C67.7112 82.1797 68.3633 82.8318 68.3633 83.6363C68.3633 84.4407 67.7112 85.0929 66.9068 85.0929Z" fill="#C2DBFF"/>
<path d="M60.3619 85.0929C59.5575 85.0929 58.9054 84.4407 58.9054 83.6363C58.9054 82.8318 59.5575 82.1797 60.3619 82.1797C61.1663 82.1797 61.8184 82.8318 61.8184 83.6363C61.8184 84.4407 61.1663 85.0929 60.3619 85.0929Z" fill="#C2DBFF"/>
</svg>
