<svg width="160" height="86" viewBox="0 0 160 86" fill="none" xmlns="http://www.w3.org/2000/svg">
<path d="M66.9078 2.91318C66.1034 2.91318 65.4513 2.26104 65.4513 1.45659C65.4513 0.652143 66.1034 0 66.9078 0C67.7122 0 68.3643 0.652143 68.3643 1.45659C68.3643 2.26104 67.7122 2.91318 66.9078 2.91318Z" fill="#C2DBFF"/>
<path d="M60.3629 2.91318C59.5585 2.91318 58.9064 2.26104 58.9064 1.45659C58.9064 0.652143 59.5585 0 60.3629 0C61.1672 0 61.8193 0.652143 61.8193 1.45659C61.8193 2.26104 61.1672 2.91318 60.3629 2.91318Z" fill="#C2DBFF"/>
<path d="M53.816 2.91318C53.0116 2.91318 52.3595 2.26104 52.3595 1.45659C52.3595 0.652143 53.0116 0 53.816 0C54.6204 0 55.2725 0.652143 55.2725 1.45659C55.2725 2.26104 54.6204 2.91318 53.816 2.91318Z" fill="#C2DBFF"/>
<path d="M47.273 2.91318C46.4686 2.91318 45.8165 2.26104 45.8165 1.45659C45.8165 0.652143 46.4686 0 47.273 0C48.0774 0 48.7295 0.652143 48.7295 1.45659C48.7295 2.26104 48.0774 2.91318 47.273 2.91318Z" fill="#C2DBFF"/>
<path d="M112.724 9.23743C111.92 9.23743 111.268 8.58528 111.268 7.78083C111.268 6.97637 111.92 6.32422 112.724 6.32422C113.529 6.32422 114.181 6.97637 114.181 7.78083C114.181 8.58528 113.529 9.23743 112.724 9.23743Z" fill="#C2DBFF"/>
<path d="M106.179 9.23743C105.375 9.23743 104.723 8.58528 104.723 7.78083C104.723 6.97637 105.375 6.32422 106.179 6.32422C106.984 6.32422 107.636 6.97637 107.636 7.78083C107.636 8.58528 106.984 9.23743 106.179 9.23743Z" fill="#C2DBFF"/>
<path d="M99.6363 9.23743C98.8319 9.23743 98.1798 8.58528 98.1798 7.78083C98.1798 6.97637 98.8319 6.32422 99.6363 6.32422C100.441 6.32422 101.093 6.97637 101.093 7.78083C101.093 8.58528 100.441 9.23743 99.6363 9.23743Z" fill="#C2DBFF"/>
<path d="M93.0914 9.23743C92.287 9.23743 91.6349 8.58528 91.6349 7.78083C91.6349 6.97637 92.287 6.32422 93.0914 6.32422C93.8958 6.32422 94.5479 6.97637 94.5479 7.78083C94.5479 8.58528 93.8958 9.23743 93.0914 9.23743Z" fill="#C2DBFF"/>
<path d="M86.5464 9.23743C85.742 9.23743 85.09 8.58528 85.09 7.78083C85.09 6.97637 85.742 6.32422 86.5464 6.32422C87.3508 6.32422 88.0029 6.97637 88.0029 7.78083C88.0029 8.58528 87.3508 9.23743 86.5464 9.23743Z" fill="#C2DBFF"/>
<path d="M73.4547 9.23743C72.6503 9.23743 71.9982 8.58528 71.9982 7.78083C71.9982 6.97637 72.6503 6.32422 73.4547 6.32422C74.259 6.32422 74.9111 6.97637 74.9111 7.78083C74.9111 8.58528 74.259 9.23743 73.4547 9.23743Z" fill="#C2DBFF"/>
<path d="M66.9078 9.23743C66.1034 9.23743 65.4513 8.58528 65.4513 7.78083C65.4513 6.97637 66.1034 6.32422 66.9078 6.32422C67.7122 6.32422 68.3643 6.97637 68.3643 7.78083C68.3643 8.58528 67.7122 9.23743 66.9078 9.23743Z" fill="#C2DBFF"/>
<path d="M60.3629 9.23743C59.5585 9.23743 58.9064 8.58528 58.9064 7.78083C58.9064 6.97637 59.5585 6.32422 60.3629 6.32422C61.1672 6.32422 61.8193 6.97637 61.8193 7.78083C61.8193 8.58528 61.1672 9.23743 60.3629 9.23743Z" fill="#C2DBFF"/>
<path d="M53.816 9.23743C53.0116 9.23743 52.3595 8.58528 52.3595 7.78083C52.3595 6.97637 53.0116 6.32422 53.816 6.32422C54.6204 6.32422 55.2725 6.97637 55.2725 7.78083C55.2725 8.58528 54.6204 9.23743 53.816 9.23743Z" fill="#C2DBFF"/>
<path d="M47.273 9.23743C46.4686 9.23743 45.8165 8.58528 45.8165 7.78083C45.8165 6.97637 46.4686 6.32422 47.273 6.32422C48.0774 6.32422 48.7295 6.97637 48.7295 7.78083C48.7295 8.58528 48.0774 9.23743 47.273 9.23743Z" fill="#C2DBFF"/>
<path d="M40.7261 9.23743C39.9217 9.23743 39.2696 8.58528 39.2696 7.78083C39.2696 6.97637 39.9217 6.32422 40.7261 6.32422C41.5305 6.32422 42.1826 6.97637 42.1826 7.78083C42.1826 8.58528 41.5305 9.23743 40.7261 9.23743Z" fill="#C2DBFF"/>
<path d="M119.269 15.5538C118.465 15.5538 117.813 14.9017 117.813 14.0972C117.813 13.2928 118.465 12.6406 119.269 12.6406C120.073 12.6406 120.726 13.2928 120.726 14.0972C120.726 14.9017 120.073 15.5538 119.269 15.5538Z" fill="#C2DBFF"/>
<path d="M112.724 15.5538C111.92 15.5538 111.268 14.9017 111.268 14.0972C111.268 13.2928 111.92 12.6406 112.724 12.6406C113.529 12.6406 114.181 13.2928 114.181 14.0972C114.181 14.9017 113.529 15.5538 112.724 15.5538Z" fill="#C2DBFF"/>
<path d="M106.179 15.5538C105.375 15.5538 104.723 14.9017 104.723 14.0972C104.723 13.2928 105.375 12.6406 106.179 12.6406C106.984 12.6406 107.636 13.2928 107.636 14.0972C107.636 14.9017 106.984 15.5538 106.179 15.5538Z" fill="#C2DBFF"/>
<path d="M99.6363 15.5538C98.8319 15.5538 98.1798 14.9017 98.1798 14.0972C98.1798 13.2928 98.8319 12.6406 99.6363 12.6406C100.441 12.6406 101.093 13.2928 101.093 14.0972C101.093 14.9017 100.441 15.5538 99.6363 15.5538Z" fill="#C2DBFF"/>
<path d="M93.0914 15.5538C92.287 15.5538 91.6349 14.9017 91.6349 14.0972C91.6349 13.2928 92.287 12.6406 93.0914 12.6406C93.8958 12.6406 94.5479 13.2928 94.5479 14.0972C94.5479 14.9017 93.8958 15.5538 93.0914 15.5538Z" fill="#C2DBFF"/>
<path d="M86.5464 15.5538C85.742 15.5538 85.09 14.9017 85.09 14.0972C85.09 13.2928 85.742 12.6406 86.5464 12.6406C87.3508 12.6406 88.0029 13.2928 88.0029 14.0972C88.0029 14.9017 87.3508 15.5538 86.5464 15.5538Z" fill="#C2DBFF"/>
<path d="M80.0015 15.5538C79.1971 15.5538 78.545 14.9017 78.545 14.0972C78.545 13.2928 79.1971 12.6406 80.0015 12.6406C80.8059 12.6406 81.458 13.2928 81.458 14.0972C81.458 14.9017 80.8059 15.5538 80.0015 15.5538Z" fill="#C2DBFF"/>
<path d="M73.4547 15.5538C72.6503 15.5538 71.9982 14.9017 71.9982 14.0972C71.9982 13.2928 72.6503 12.6406 73.4547 12.6406C74.259 12.6406 74.9111 13.2928 74.9111 14.0972C74.9111 14.9017 74.259 15.5538 73.4547 15.5538Z" fill="#C2DBFF"/>
<path d="M66.9078 15.5538C66.1034 15.5538 65.4513 14.9017 65.4513 14.0972C65.4513 13.2928 66.1034 12.6406 66.9078 12.6406C67.7122 12.6406 68.3643 13.2928 68.3643 14.0972C68.3643 14.9017 67.7122 15.5538 66.9078 15.5538Z" fill="#C2DBFF"/>
<path d="M60.3629 15.5538C59.5585 15.5538 58.9064 14.9017 58.9064 14.0972C58.9064 13.2928 59.5585 12.6406 60.3629 12.6406C61.1672 12.6406 61.8193 13.2928 61.8193 14.0972C61.8193 14.9017 61.1672 15.5538 60.3629 15.5538Z" fill="#C2DBFF"/>
<path d="M53.816 15.5538C53.0116 15.5538 52.3595 14.9017 52.3595 14.0972C52.3595 13.2928 53.0116 12.6406 53.816 12.6406C54.6204 12.6406 55.2725 13.2928 55.2725 14.0972C55.2725 14.9017 54.6204 15.5538 53.816 15.5538Z" fill="#C2DBFF"/>
<path d="M47.273 15.5538C46.4686 15.5538 45.8165 14.9017 45.8165 14.0972C45.8165 13.2928 46.4686 12.6406 47.273 12.6406C48.0774 12.6406 48.7295 13.2928 48.7295 14.0972C48.7295 14.9017 48.0774 15.5538 47.273 15.5538Z" fill="#C2DBFF"/>
<path d="M40.7261 15.5538C39.9217 15.5538 39.2696 14.9017 39.2696 14.0972C39.2696 13.2928 39.9217 12.6406 40.7261 12.6406C41.5305 12.6406 42.1826 13.2928 42.1826 14.0972C42.1826 14.9017 41.5305 15.5538 40.7261 15.5538Z" fill="#C2DBFF"/>
<path d="M34.1832 15.5538C33.3788 15.5538 32.7267 14.9017 32.7267 14.0972C32.7267 13.2928 33.3788 12.6406 34.1832 12.6406C34.9876 12.6406 35.6396 13.2928 35.6396 14.0972C35.6396 14.9017 34.9876 15.5538 34.1832 15.5538Z" fill="#C2DBFF"/>
<path d="M138.906 21.8781C138.101 21.8781 137.449 21.2259 137.449 20.4215C137.449 19.617 138.101 18.9648 138.906 18.9648C139.71 18.9648 140.362 19.617 140.362 20.4215C140.362 21.2259 139.71 21.8781 138.906 21.8781Z" fill="#C2DBFF"/>
<path d="M132.361 21.8781C131.557 21.8781 130.904 21.2259 130.904 20.4215C130.904 19.617 131.557 18.9648 132.361 18.9648C133.165 18.9648 133.817 19.617 133.817 20.4215C133.817 21.2259 133.165 21.8781 132.361 21.8781Z" fill="#C2DBFF"/>
<path d="M125.816 21.8781C125.012 21.8781 124.359 21.2259 124.359 20.4215C124.359 19.617 125.012 18.9648 125.816 18.9648C126.62 18.9648 127.272 19.617 127.272 20.4215C127.272 21.2259 126.62 21.8781 125.816 21.8781Z" fill="#C2DBFF"/>
<path d="M119.269 21.8781C118.465 21.8781 117.813 21.2259 117.813 20.4215C117.813 19.617 118.465 18.9648 119.269 18.9648C120.073 18.9648 120.726 19.617 120.726 20.4215C120.726 21.2259 120.073 21.8781 119.269 21.8781Z" fill="#C2DBFF"/>
<path d="M112.724 21.8781C111.92 21.8781 111.268 21.2259 111.268 20.4215C111.268 19.617 111.92 18.9648 112.724 18.9648C113.529 18.9648 114.181 19.617 114.181 20.4215C114.181 21.2259 113.529 21.8781 112.724 21.8781Z" fill="#C2DBFF"/>
<path d="M106.179 21.8781C105.375 21.8781 104.723 21.2259 104.723 20.4215C104.723 19.617 105.375 18.9648 106.179 18.9648C106.984 18.9648 107.636 19.617 107.636 20.4215C107.636 21.2259 106.984 21.8781 106.179 21.8781Z" fill="#C2DBFF"/>
<path d="M99.6363 21.8781C98.8319 21.8781 98.1798 21.2259 98.1798 20.4215C98.1798 19.617 98.8319 18.9648 99.6363 18.9648C100.441 18.9648 101.093 19.617 101.093 20.4215C101.093 21.2259 100.441 21.8781 99.6363 21.8781Z" fill="#C2DBFF"/>
<path d="M93.0914 21.8781C92.287 21.8781 91.6349 21.2259 91.6349 20.4215C91.6349 19.617 92.287 18.9648 93.0914 18.9648C93.8958 18.9648 94.5479 19.617 94.5479 20.4215C94.5479 21.2259 93.8958 21.8781 93.0914 21.8781Z" fill="#C2DBFF"/>
<path d="M86.5464 21.8781C85.742 21.8781 85.09 21.2259 85.09 20.4215C85.09 19.617 85.742 18.9648 86.5464 18.9648C87.3508 18.9648 88.0029 19.617 88.0029 20.4215C88.0029 21.2259 87.3508 21.8781 86.5464 21.8781Z" fill="#C2DBFF"/>
<path d="M80.0015 21.8781C79.1971 21.8781 78.545 21.2259 78.545 20.4215C78.545 19.617 79.1971 18.9648 80.0015 18.9648C80.8059 18.9648 81.458 19.617 81.458 20.4215C81.458 21.2259 80.8059 21.8781 80.0015 21.8781Z" fill="#C2DBFF"/>
<path d="M73.4547 21.8781C72.6503 21.8781 71.9982 21.2259 71.9982 20.4215C71.9982 19.617 72.6503 18.9648 73.4547 18.9648C74.259 18.9648 74.9111 19.617 74.9111 20.4215C74.9111 21.2259 74.259 21.8781 73.4547 21.8781Z" fill="#C2DBFF"/>
<path d="M66.9078 21.8781C66.1034 21.8781 65.4513 21.2259 65.4513 20.4215C65.4513 19.617 66.1034 18.9648 66.9078 18.9648C67.7122 18.9648 68.3643 19.617 68.3643 20.4215C68.3643 21.2259 67.7122 21.8781 66.9078 21.8781Z" fill="#C2DBFF"/>
<path d="M60.3629 21.8781C59.5585 21.8781 58.9064 21.2259 58.9064 20.4215C58.9064 19.617 59.5585 18.9648 60.3629 18.9648C61.1672 18.9648 61.8193 19.617 61.8193 20.4215C61.8193 21.2259 61.1672 21.8781 60.3629 21.8781Z" fill="#C2DBFF"/>
<path d="M53.816 21.8781C53.0116 21.8781 52.3595 21.2259 52.3595 20.4215C52.3595 19.617 53.0116 18.9648 53.816 18.9648C54.6204 18.9648 55.2725 19.617 55.2725 20.4215C55.2725 21.2259 54.6204 21.8781 53.816 21.8781Z" fill="#C2DBFF"/>
<path d="M47.273 21.8781C46.4686 21.8781 45.8165 21.2259 45.8165 20.4215C45.8165 19.617 46.4686 18.9648 47.273 18.9648C48.0774 18.9648 48.7295 19.617 48.7295 20.4215C48.7295 21.2259 48.0774 21.8781 47.273 21.8781Z" fill="#C2DBFF"/>
<path d="M40.7261 21.8781C39.9217 21.8781 39.2696 21.2259 39.2696 20.4215C39.2696 19.617 39.9217 18.9648 40.7261 18.9648C41.5305 18.9648 42.1826 19.617 42.1826 20.4215C42.1826 21.2259 41.5305 21.8781 40.7261 21.8781Z" fill="#C2DBFF"/>
<path d="M34.1832 21.8781C33.3788 21.8781 32.7267 21.2259 32.7267 20.4215C32.7267 19.617 33.3788 18.9648 34.1832 18.9648C34.9876 18.9648 35.6396 19.617 35.6396 20.4215C35.6396 21.2259 34.9876 21.8781 34.1832 21.8781Z" fill="#C2DBFF"/>
<path d="M145.453 28.2022C144.648 28.2022 143.996 27.5501 143.996 26.7457C143.996 25.9412 144.648 25.2891 145.453 25.2891C146.257 25.2891 146.909 25.9412 146.909 26.7457C146.909 27.5501 146.257 28.2022 145.453 28.2022Z" fill="#C2DBFF"/>
<path d="M138.906 28.2022C138.101 28.2022 137.449 27.5501 137.449 26.7457C137.449 25.9412 138.101 25.2891 138.906 25.2891C139.71 25.2891 140.362 25.9412 140.362 26.7457C140.362 27.5501 139.71 28.2022 138.906 28.2022Z" fill="#C2DBFF"/>
<path d="M132.361 28.2022C131.557 28.2022 130.904 27.5501 130.904 26.7457C130.904 25.9412 131.557 25.2891 132.361 25.2891C133.165 25.2891 133.817 25.9412 133.817 26.7457C133.817 27.5501 133.165 28.2022 132.361 28.2022Z" fill="#C2DBFF"/>
<path d="M125.816 28.2022C125.012 28.2022 124.359 27.5501 124.359 26.7457C124.359 25.9412 125.012 25.2891 125.816 25.2891C126.62 25.2891 127.272 25.9412 127.272 26.7457C127.272 27.5501 126.62 28.2022 125.816 28.2022Z" fill="#C2DBFF"/>
<path d="M119.269 28.2022C118.465 28.2022 117.813 27.5501 117.813 26.7457C117.813 25.9412 118.465 25.2891 119.269 25.2891C120.073 25.2891 120.726 25.9412 120.726 26.7457C120.726 27.5501 120.073 28.2022 119.269 28.2022Z" fill="#C2DBFF"/>
<path d="M112.724 28.2022C111.92 28.2022 111.268 27.5501 111.268 26.7457C111.268 25.9412 111.92 25.2891 112.724 25.2891C113.529 25.2891 114.181 25.9412 114.181 26.7457C114.181 27.5501 113.529 28.2022 112.724 28.2022Z" fill="#C2DBFF"/>
<path d="M106.179 28.2022C105.375 28.2022 104.723 27.5501 104.723 26.7457C104.723 25.9412 105.375 25.2891 106.179 25.2891C106.984 25.2891 107.636 25.9412 107.636 26.7457C107.636 27.5501 106.984 28.2022 106.179 28.2022Z" fill="#C2DBFF"/>
<path d="M99.6363 28.2022C98.8319 28.2022 98.1798 27.5501 98.1798 26.7457C98.1798 25.9412 98.8319 25.2891 99.6363 25.2891C100.441 25.2891 101.093 25.9412 101.093 26.7457C101.093 27.5501 100.441 28.2022 99.6363 28.2022Z" fill="#C2DBFF"/>
<path d="M93.0914 28.2022C92.287 28.2022 91.6349 27.5501 91.6349 26.7457C91.6349 25.9412 92.287 25.2891 93.0914 25.2891C93.8958 25.2891 94.5479 25.9412 94.5479 26.7457C94.5479 27.5501 93.8958 28.2022 93.0914 28.2022Z" fill="#C2DBFF"/>
<path d="M86.5464 28.2022C85.742 28.2022 85.09 27.5501 85.09 26.7457C85.09 25.9412 85.742 25.2891 86.5464 25.2891C87.3508 25.2891 88.0029 25.9412 88.0029 26.7457C88.0029 27.5501 87.3508 28.2022 86.5464 28.2022Z" fill="#C2DBFF"/>
<path d="M80.0015 28.2022C79.1971 28.2022 78.545 27.5501 78.545 26.7457C78.545 25.9412 79.1971 25.2891 80.0015 25.2891C80.8059 25.2891 81.458 25.9412 81.458 26.7457C81.458 27.5501 80.8059 28.2022 80.0015 28.2022Z" fill="#C2DBFF"/>
<path d="M73.4547 28.2022C72.6503 28.2022 71.9982 27.5501 71.9982 26.7457C71.9982 25.9412 72.6503 25.2891 73.4547 25.2891C74.259 25.2891 74.9111 25.9412 74.9111 26.7457C74.9111 27.5501 74.259 28.2022 73.4547 28.2022Z" fill="#C2DBFF"/>
<path d="M66.9078 28.2022C66.1034 28.2022 65.4513 27.5501 65.4513 26.7457C65.4513 25.9412 66.1034 25.2891 66.9078 25.2891C67.7122 25.2891 68.3643 25.9412 68.3643 26.7457C68.3643 27.5501 67.7122 28.2022 66.9078 28.2022Z" fill="#C2DBFF"/>
<path d="M60.3629 28.2022C59.5585 28.2022 58.9064 27.5501 58.9064 26.7457C58.9064 25.9412 59.5585 25.2891 60.3629 25.2891C61.1672 25.2891 61.8193 25.9412 61.8193 26.7457C61.8193 27.5501 61.1672 28.2022 60.3629 28.2022Z" fill="#C2DBFF"/>
<path d="M53.816 28.2022C53.0116 28.2022 52.3595 27.5501 52.3595 26.7457C52.3595 25.9412 53.0116 25.2891 53.816 25.2891C54.6204 25.2891 55.2725 25.9412 55.2725 26.7457C55.2725 27.5501 54.6204 28.2022 53.816 28.2022Z" fill="#C2DBFF"/>
<path d="M47.273 28.2022C46.4686 28.2022 45.8165 27.5501 45.8165 26.7457C45.8165 25.9412 46.4686 25.2891 47.273 25.2891C48.0774 25.2891 48.7295 25.9412 48.7295 26.7457C48.7295 27.5501 48.0774 28.2022 47.273 28.2022Z" fill="#C2DBFF"/>
<path d="M40.7261 28.2022C39.9217 28.2022 39.2696 27.5501 39.2696 26.7457C39.2696 25.9412 39.9217 25.2891 40.7261 25.2891C41.5305 25.2891 42.1826 25.9412 42.1826 26.7457C42.1826 27.5501 41.5305 28.2022 40.7261 28.2022Z" fill="#C2DBFF"/>
<path d="M34.1832 28.2022C33.3788 28.2022 32.7267 27.5501 32.7267 26.7457C32.7267 25.9412 33.3788 25.2891 34.1832 25.2891C34.9876 25.2891 35.6396 25.9412 35.6396 26.7457C35.6396 27.5501 34.9876 28.2022 34.1832 28.2022Z" fill="#C2DBFF"/>
<path d="M145.453 34.5226C144.648 34.5226 143.996 33.8704 143.996 33.066C143.996 32.2615 144.648 31.6094 145.453 31.6094C146.257 31.6094 146.909 32.2615 146.909 33.066C146.909 33.8704 146.257 34.5226 145.453 34.5226Z" fill="#C2DBFF"/>
<path d="M138.906 34.5226C138.101 34.5226 137.449 33.8704 137.449 33.066C137.449 32.2615 138.101 31.6094 138.906 31.6094C139.71 31.6094 140.362 32.2615 140.362 33.066C140.362 33.8704 139.71 34.5226 138.906 34.5226Z" fill="#C2DBFF"/>
<path d="M132.361 34.5226C131.557 34.5226 130.904 33.8704 130.904 33.066C130.904 32.2615 131.557 31.6094 132.361 31.6094C133.165 31.6094 133.817 32.2615 133.817 33.066C133.817 33.8704 133.165 34.5226 132.361 34.5226Z" fill="#C2DBFF"/>
<path d="M125.816 34.5226C125.012 34.5226 124.359 33.8704 124.359 33.066C124.359 32.2615 125.012 31.6094 125.816 31.6094C126.62 31.6094 127.272 32.2615 127.272 33.066C127.272 33.8704 126.62 34.5226 125.816 34.5226Z" fill="#C2DBFF"/>
<path d="M119.269 34.5226C118.465 34.5226 117.813 33.8704 117.813 33.066C117.813 32.2615 118.465 31.6094 119.269 31.6094C120.073 31.6094 120.726 32.2615 120.726 33.066C120.726 33.8704 120.073 34.5226 119.269 34.5226Z" fill="#C2DBFF"/>
<path d="M112.724 34.5226C111.92 34.5226 111.268 33.8704 111.268 33.066C111.268 32.2615 111.92 31.6094 112.724 31.6094C113.529 31.6094 114.181 32.2615 114.181 33.066C114.181 33.8704 113.529 34.5226 112.724 34.5226Z" fill="#C2DBFF"/>
<path d="M106.179 34.5226C105.375 34.5226 104.723 33.8704 104.723 33.066C104.723 32.2615 105.375 31.6094 106.179 31.6094C106.984 31.6094 107.636 32.2615 107.636 33.066C107.636 33.8704 106.984 34.5226 106.179 34.5226Z" fill="#C2DBFF"/>
<path d="M99.6363 34.5226C98.8319 34.5226 98.1798 33.8704 98.1798 33.066C98.1798 32.2615 98.8319 31.6094 99.6363 31.6094C100.441 31.6094 101.093 32.2615 101.093 33.066C101.093 33.8704 100.441 34.5226 99.6363 34.5226Z" fill="#C2DBFF"/>
<path d="M93.0914 34.5226C92.287 34.5226 91.6349 33.8704 91.6349 33.066C91.6349 32.2615 92.287 31.6094 93.0914 31.6094C93.8958 31.6094 94.5479 32.2615 94.5479 33.066C94.5479 33.8704 93.8958 34.5226 93.0914 34.5226Z" fill="#C2DBFF"/>
<path d="M86.5464 34.5226C85.742 34.5226 85.09 33.8704 85.09 33.066C85.09 32.2615 85.742 31.6094 86.5464 31.6094C87.3508 31.6094 88.0029 32.2615 88.0029 33.066C88.0029 33.8704 87.3508 34.5226 86.5464 34.5226Z" fill="#C2DBFF"/>
<path d="M80.0015 34.5226C79.1971 34.5226 78.545 33.8704 78.545 33.066C78.545 32.2615 79.1971 31.6094 80.0015 31.6094C80.8059 31.6094 81.458 32.2615 81.458 33.066C81.458 33.8704 80.8059 34.5226 80.0015 34.5226Z" fill="#C2DBFF"/>
<path d="M73.4547 34.5226C72.6503 34.5226 71.9982 33.8704 71.9982 33.066C71.9982 32.2615 72.6503 31.6094 73.4547 31.6094C74.259 31.6094 74.9111 32.2615 74.9111 33.066C74.9111 33.8704 74.259 34.5226 73.4547 34.5226Z" fill="#C2DBFF"/>
<path d="M66.9078 34.5226C66.1034 34.5226 65.4513 33.8704 65.4513 33.066C65.4513 32.2615 66.1034 31.6094 66.9078 31.6094C67.7122 31.6094 68.3643 32.2615 68.3643 33.066C68.3643 33.8704 67.7122 34.5226 66.9078 34.5226Z" fill="#C2DBFF"/>
<path d="M60.3629 34.5226C59.5585 34.5226 58.9064 33.8704 58.9064 33.066C58.9064 32.2615 59.5585 31.6094 60.3629 31.6094C61.1672 31.6094 61.8193 32.2615 61.8193 33.066C61.8193 33.8704 61.1672 34.5226 60.3629 34.5226Z" fill="#C2DBFF"/>
<path d="M53.816 34.5226C53.0116 34.5226 52.3595 33.8704 52.3595 33.066C52.3595 32.2615 53.0116 31.6094 53.816 31.6094C54.6204 31.6094 55.2725 32.2615 55.2725 33.066C55.2725 33.8704 54.6204 34.5226 53.816 34.5226Z" fill="#C2DBFF"/>
<path d="M47.273 34.5226C46.4686 34.5226 45.8165 33.8704 45.8165 33.066C45.8165 32.2615 46.4686 31.6094 47.273 31.6094C48.0774 31.6094 48.7295 32.2615 48.7295 33.066C48.7295 33.8704 48.0774 34.5226 47.273 34.5226Z" fill="#C2DBFF"/>
<path d="M40.7261 34.5226C39.9217 34.5226 39.2696 33.8704 39.2696 33.066C39.2696 32.2615 39.9217 31.6094 40.7261 31.6094C41.5305 31.6094 42.1826 32.2615 42.1826 33.066C42.1826 33.8704 41.5305 34.5226 40.7261 34.5226Z" fill="#C2DBFF"/>
<path d="M34.1832 34.5226C33.3788 34.5226 32.7267 33.8704 32.7267 33.066C32.7267 32.2615 33.3788 31.6094 34.1832 31.6094C34.9876 31.6094 35.6396 32.2615 35.6396 33.066C35.6396 33.8704 34.9876 34.5226 34.1832 34.5226Z" fill="#C2DBFF"/>
<path d="M27.6363 34.5226C26.8319 34.5226 26.1798 33.8704 26.1798 33.066C26.1798 32.2615 26.8319 31.6094 27.6363 31.6094C28.4407 31.6094 29.0928 32.2615 29.0928 33.066C29.0928 33.8704 28.4407 34.5226 27.6363 34.5226Z" fill="#C2DBFF"/>
<path d="M21.0953 34.5226C20.2909 34.5226 19.6388 33.8704 19.6388 33.066C19.6388 32.2615 20.2909 31.6094 21.0953 31.6094C21.8997 31.6094 22.5518 32.2615 22.5518 33.066C22.5518 33.8704 21.8997 34.5226 21.0953 34.5226Z" fill="#C2DBFF"/>
<path d="M151.998 40.839C151.193 40.839 150.541 40.1868 150.541 39.3824C150.541 38.5779 151.193 37.9258 151.998 37.9258C152.802 37.9258 153.454 38.5779 153.454 39.3824C153.454 40.1868 152.802 40.839 151.998 40.839Z" fill="#C2DBFF"/>
<path d="M145.453 40.839C144.648 40.839 143.996 40.1868 143.996 39.3824C143.996 38.5779 144.648 37.9258 145.453 37.9258C146.257 37.9258 146.909 38.5779 146.909 39.3824C146.909 40.1868 146.257 40.839 145.453 40.839Z" fill="#C2DBFF"/>
<path d="M138.906 40.839C138.101 40.839 137.449 40.1868 137.449 39.3824C137.449 38.5779 138.101 37.9258 138.906 37.9258C139.71 37.9258 140.362 38.5779 140.362 39.3824C140.362 40.1868 139.71 40.839 138.906 40.839Z" fill="#C2DBFF"/>
<path d="M132.361 40.839C131.557 40.839 130.904 40.1868 130.904 39.3824C130.904 38.5779 131.557 37.9258 132.361 37.9258C133.165 37.9258 133.817 38.5779 133.817 39.3824C133.817 40.1868 133.165 40.839 132.361 40.839Z" fill="#C2DBFF"/>
<path d="M125.816 40.839C125.012 40.839 124.359 40.1868 124.359 39.3824C124.359 38.5779 125.012 37.9258 125.816 37.9258C126.62 37.9258 127.272 38.5779 127.272 39.3824C127.272 40.1868 126.62 40.839 125.816 40.839Z" fill="#C2DBFF"/>
<path d="M119.269 40.839C118.465 40.839 117.813 40.1868 117.813 39.3824C117.813 38.5779 118.465 37.9258 119.269 37.9258C120.073 37.9258 120.726 38.5779 120.726 39.3824C120.726 40.1868 120.073 40.839 119.269 40.839Z" fill="#C2DBFF"/>
<path d="M112.724 40.839C111.92 40.839 111.268 40.1868 111.268 39.3824C111.268 38.5779 111.92 37.9258 112.724 37.9258C113.529 37.9258 114.181 38.5779 114.181 39.3824C114.181 40.1868 113.529 40.839 112.724 40.839Z" fill="#C2DBFF"/>
<path d="M106.179 40.839C105.375 40.839 104.723 40.1868 104.723 39.3824C104.723 38.5779 105.375 37.9258 106.179 37.9258C106.984 37.9258 107.636 38.5779 107.636 39.3824C107.636 40.1868 106.984 40.839 106.179 40.839Z" fill="#C2DBFF"/>
<path d="M99.6363 40.839C98.8319 40.839 98.1798 40.1868 98.1798 39.3824C98.1798 38.5779 98.8319 37.9258 99.6363 37.9258C100.441 37.9258 101.093 38.5779 101.093 39.3824C101.093 40.1868 100.441 40.839 99.6363 40.839Z" fill="#C2DBFF"/>
<path d="M93.0914 40.839C92.287 40.839 91.6349 40.1868 91.6349 39.3824C91.6349 38.5779 92.287 37.9258 93.0914 37.9258C93.8958 37.9258 94.5479 38.5779 94.5479 39.3824C94.5479 40.1868 93.8958 40.839 93.0914 40.839Z" fill="#C2DBFF"/>
<path d="M86.5464 40.839C85.742 40.839 85.09 40.1868 85.09 39.3824C85.09 38.5779 85.742 37.9258 86.5464 37.9258C87.3508 37.9258 88.0029 38.5779 88.0029 39.3824C88.0029 40.1868 87.3508 40.839 86.5464 40.839Z" fill="#C2DBFF"/>
<path d="M80.0015 40.839C79.1971 40.839 78.545 40.1868 78.545 39.3824C78.545 38.5779 79.1971 37.9258 80.0015 37.9258C80.8059 37.9258 81.458 38.5779 81.458 39.3824C81.458 40.1868 80.8059 40.839 80.0015 40.839Z" fill="#C2DBFF"/>
<path d="M73.4547 40.839C72.6503 40.839 71.9982 40.1868 71.9982 39.3824C71.9982 38.5779 72.6503 37.9258 73.4547 37.9258C74.259 37.9258 74.9111 38.5779 74.9111 39.3824C74.9111 40.1868 74.259 40.839 73.4547 40.839Z" fill="#C2DBFF"/>
<path d="M66.9078 40.839C66.1034 40.839 65.4513 40.1868 65.4513 39.3824C65.4513 38.5779 66.1034 37.9258 66.9078 37.9258C67.7122 37.9258 68.3643 38.5779 68.3643 39.3824C68.3643 40.1868 67.7122 40.839 66.9078 40.839Z" fill="#C2DBFF"/>
<path d="M60.3629 40.839C59.5585 40.839 58.9064 40.1868 58.9064 39.3824C58.9064 38.5779 59.5585 37.9258 60.3629 37.9258C61.1672 37.9258 61.8193 38.5779 61.8193 39.3824C61.8193 40.1868 61.1672 40.839 60.3629 40.839Z" fill="#C2DBFF"/>
<path d="M53.816 40.839C53.0116 40.839 52.3595 40.1868 52.3595 39.3824C52.3595 38.5779 53.0116 37.9258 53.816 37.9258C54.6204 37.9258 55.2725 38.5779 55.2725 39.3824C55.2725 40.1868 54.6204 40.839 53.816 40.839Z" fill="#C2DBFF"/>
<path d="M47.273 40.839C46.4686 40.839 45.8165 40.1868 45.8165 39.3824C45.8165 38.5779 46.4686 37.9258 47.273 37.9258C48.0774 37.9258 48.7295 38.5779 48.7295 39.3824C48.7295 40.1868 48.0774 40.839 47.273 40.839Z" fill="#C2DBFF"/>
<path d="M40.7261 40.839C39.9217 40.839 39.2696 40.1868 39.2696 39.3824C39.2696 38.5779 39.9217 37.9258 40.7261 37.9258C41.5305 37.9258 42.1826 38.5779 42.1826 39.3824C42.1826 40.1868 41.5305 40.839 40.7261 40.839Z" fill="#C2DBFF"/>
<path d="M34.1832 40.839C33.3788 40.839 32.7267 40.1868 32.7267 39.3824C32.7267 38.5779 33.3788 37.9258 34.1832 37.9258C34.9876 37.9258 35.6396 38.5779 35.6396 39.3824C35.6396 40.1868 34.9876 40.839 34.1832 40.839Z" fill="#C2DBFF"/>
<path d="M27.6363 40.839C26.8319 40.839 26.1798 40.1868 26.1798 39.3824C26.1798 38.5779 26.8319 37.9258 27.6363 37.9258C28.4407 37.9258 29.0928 38.5779 29.0928 39.3824C29.0928 40.1868 28.4407 40.839 27.6363 40.839Z" fill="#C2DBFF"/>
<path d="M21.0953 40.839C20.2909 40.839 19.6388 40.1868 19.6388 39.3824C19.6388 38.5779 20.2909 37.9258 21.0953 37.9258C21.8997 37.9258 22.5518 38.5779 22.5518 39.3824C22.5518 40.1868 21.8997 40.839 21.0953 40.839Z" fill="#C2DBFF"/>
<path d="M14.5464 40.839C13.742 40.839 13.09 40.1868 13.09 39.3824C13.09 38.5779 13.742 37.9258 14.5464 37.9258C15.3508 37.9258 16.0029 38.5779 16.0029 39.3824C16.0029 40.1868 15.3508 40.839 14.5464 40.839Z" fill="#C2DBFF"/>
<path d="M158.543 47.1632C157.738 47.1632 157.086 46.511 157.086 45.7066C157.086 44.9021 157.738 44.25 158.543 44.25C159.347 44.25 159.999 44.9021 159.999 45.7066C159.999 46.511 159.347 47.1632 158.543 47.1632Z" fill="#C2DBFF"/>
<path d="M151.998 47.1632C151.193 47.1632 150.541 46.511 150.541 45.7066C150.541 44.9021 151.193 44.25 151.998 44.25C152.802 44.25 153.454 44.9021 153.454 45.7066C153.454 46.511 152.802 47.1632 151.998 47.1632Z" fill="#C2DBFF"/>
<path d="M145.453 47.1632C144.648 47.1632 143.996 46.511 143.996 45.7066C143.996 44.9021 144.648 44.25 145.453 44.25C146.257 44.25 146.909 44.9021 146.909 45.7066C146.909 46.511 146.257 47.1632 145.453 47.1632Z" fill="#C2DBFF"/>
<path d="M138.906 47.1632C138.101 47.1632 137.449 46.511 137.449 45.7066C137.449 44.9021 138.101 44.25 138.906 44.25C139.71 44.25 140.362 44.9021 140.362 45.7066C140.362 46.511 139.71 47.1632 138.906 47.1632Z" fill="#C2DBFF"/>
<path d="M132.361 47.1632C131.557 47.1632 130.904 46.511 130.904 45.7066C130.904 44.9021 131.557 44.25 132.361 44.25C133.165 44.25 133.817 44.9021 133.817 45.7066C133.817 46.511 133.165 47.1632 132.361 47.1632Z" fill="#C2DBFF"/>
<path d="M125.816 47.1632C125.012 47.1632 124.359 46.511 124.359 45.7066C124.359 44.9021 125.012 44.25 125.816 44.25C126.62 44.25 127.272 44.9021 127.272 45.7066C127.272 46.511 126.62 47.1632 125.816 47.1632Z" fill="#C2DBFF"/>
<path d="M119.269 47.1632C118.465 47.1632 117.813 46.511 117.813 45.7066C117.813 44.9021 118.465 44.25 119.269 44.25C120.073 44.25 120.726 44.9021 120.726 45.7066C120.726 46.511 120.073 47.1632 119.269 47.1632Z" fill="#C2DBFF"/>
<path d="M112.724 47.1632C111.92 47.1632 111.268 46.511 111.268 45.7066C111.268 44.9021 111.92 44.25 112.724 44.25C113.529 44.25 114.181 44.9021 114.181 45.7066C114.181 46.511 113.529 47.1632 112.724 47.1632Z" fill="#C2DBFF"/>
<path d="M106.179 47.1632C105.375 47.1632 104.723 46.511 104.723 45.7066C104.723 44.9021 105.375 44.25 106.179 44.25C106.984 44.25 107.636 44.9021 107.636 45.7066C107.636 46.511 106.984 47.1632 106.179 47.1632Z" fill="#C2DBFF"/>
<path d="M99.6363 47.1632C98.8319 47.1632 98.1798 46.511 98.1798 45.7066C98.1798 44.9021 98.8319 44.25 99.6363 44.25C100.441 44.25 101.093 44.9021 101.093 45.7066C101.093 46.511 100.441 47.1632 99.6363 47.1632Z" fill="#C2DBFF"/>
<path d="M93.0914 47.1632C92.287 47.1632 91.6349 46.511 91.6349 45.7066C91.6349 44.9021 92.287 44.25 93.0914 44.25C93.8958 44.25 94.5479 44.9021 94.5479 45.7066C94.5479 46.511 93.8958 47.1632 93.0914 47.1632Z" fill="#C2DBFF"/>
<path d="M86.5464 47.1632C85.742 47.1632 85.09 46.511 85.09 45.7066C85.09 44.9021 85.742 44.25 86.5464 44.25C87.3508 44.25 88.0029 44.9021 88.0029 45.7066C88.0029 46.511 87.3508 47.1632 86.5464 47.1632Z" fill="#C2DBFF"/>
<path d="M80.0015 47.1632C79.1971 47.1632 78.545 46.511 78.545 45.7066C78.545 44.9021 79.1971 44.25 80.0015 44.25C80.8059 44.25 81.458 44.9021 81.458 45.7066C81.458 46.511 80.8059 47.1632 80.0015 47.1632Z" fill="#C2DBFF"/>
<path d="M73.4547 47.1632C72.6503 47.1632 71.9982 46.511 71.9982 45.7066C71.9982 44.9021 72.6503 44.25 73.4547 44.25C74.259 44.25 74.9111 44.9021 74.9111 45.7066C74.9111 46.511 74.259 47.1632 73.4547 47.1632Z" fill="#C2DBFF"/>
<path d="M66.9078 47.1632C66.1034 47.1632 65.4513 46.511 65.4513 45.7066C65.4513 44.9021 66.1034 44.25 66.9078 44.25C67.7122 44.25 68.3643 44.9021 68.3643 45.7066C68.3643 46.511 67.7122 47.1632 66.9078 47.1632Z" fill="#C2DBFF"/>
<path d="M60.3629 47.1632C59.5585 47.1632 58.9064 46.511 58.9064 45.7066C58.9064 44.9021 59.5585 44.25 60.3629 44.25C61.1672 44.25 61.8193 44.9021 61.8193 45.7066C61.8193 46.511 61.1672 47.1632 60.3629 47.1632Z" fill="#C2DBFF"/>
<path d="M53.816 47.1632C53.0116 47.1632 52.3595 46.511 52.3595 45.7066C52.3595 44.9021 53.0116 44.25 53.816 44.25C54.6204 44.25 55.2725 44.9021 55.2725 45.7066C55.2725 46.511 54.6204 47.1632 53.816 47.1632Z" fill="#C2DBFF"/>
<path d="M47.273 47.1632C46.4686 47.1632 45.8165 46.511 45.8165 45.7066C45.8165 44.9021 46.4686 44.25 47.273 44.25C48.0774 44.25 48.7295 44.9021 48.7295 45.7066C48.7295 46.511 48.0774 47.1632 47.273 47.1632Z" fill="#C2DBFF"/>
<path d="M40.7261 47.1632C39.9217 47.1632 39.2696 46.511 39.2696 45.7066C39.2696 44.9021 39.9217 44.25 40.7261 44.25C41.5305 44.25 42.1826 44.9021 42.1826 45.7066C42.1826 46.511 41.5305 47.1632 40.7261 47.1632Z" fill="#C2DBFF"/>
<path d="M34.1832 47.1632C33.3788 47.1632 32.7267 46.511 32.7267 45.7066C32.7267 44.9021 33.3788 44.25 34.1832 44.25C34.9876 44.25 35.6396 44.9021 35.6396 45.7066C35.6396 46.511 34.9876 47.1632 34.1832 47.1632Z" fill="#C2DBFF"/>
<path d="M27.6363 47.1632C26.8319 47.1632 26.1798 46.511 26.1798 45.7066C26.1798 44.9021 26.8319 44.25 27.6363 44.25C28.4407 44.25 29.0928 44.9021 29.0928 45.7066C29.0928 46.511 28.4407 47.1632 27.6363 47.1632Z" fill="#C2DBFF"/>
<path d="M21.0953 47.1632C20.2909 47.1632 19.6388 46.511 19.6388 45.7066C19.6388 44.9021 20.2909 44.25 21.0953 44.25C21.8997 44.25 22.5518 44.9021 22.5518 45.7066C22.5518 46.511 21.8997 47.1632 21.0953 47.1632Z" fill="#C2DBFF"/>
<path d="M14.5464 47.1632C13.742 47.1632 13.09 46.511 13.09 45.7066C13.09 44.9021 13.742 44.25 14.5464 44.25C15.3508 44.25 16.0029 44.9021 16.0029 45.7066C16.0029 46.511 15.3508 47.1632 14.5464 47.1632Z" fill="#C2DBFF"/>
<path d="M7.99958 47.1632C7.19519 47.1632 6.54309 46.511 6.54309 45.7066C6.54309 44.9021 7.19519 44.25 7.99958 44.25C8.80397 44.25 9.45605 44.9021 9.45605 45.7066C9.45605 46.511 8.80397 47.1632 7.99958 47.1632Z" fill="#C2DBFF"/>
<path d="M158.543 53.4874C157.738 53.4874 157.086 52.8353 157.086 52.0308C157.086 51.2264 157.738 50.5742 158.543 50.5742C159.347 50.5742 159.999 51.2264 159.999 52.0308C159.999 52.8353 159.347 53.4874 158.543 53.4874Z" fill="#C2DBFF"/>
<path d="M151.998 53.4874C151.193 53.4874 150.541 52.8353 150.541 52.0308C150.541 51.2264 151.193 50.5742 151.998 50.5742C152.802 50.5742 153.454 51.2264 153.454 52.0308C153.454 52.8353 152.802 53.4874 151.998 53.4874Z" fill="#C2DBFF"/>
<path d="M145.453 53.4874C144.648 53.4874 143.996 52.8353 143.996 52.0308C143.996 51.2264 144.648 50.5742 145.453 50.5742C146.257 50.5742 146.909 51.2264 146.909 52.0308C146.909 52.8353 146.257 53.4874 145.453 53.4874Z" fill="#C2DBFF"/>
<path d="M138.906 53.4874C138.101 53.4874 137.449 52.8353 137.449 52.0308C137.449 51.2264 138.101 50.5742 138.906 50.5742C139.71 50.5742 140.362 51.2264 140.362 52.0308C140.362 52.8353 139.71 53.4874 138.906 53.4874Z" fill="#C2DBFF"/>
<path d="M132.361 53.4874C131.557 53.4874 130.904 52.8353 130.904 52.0308C130.904 51.2264 131.557 50.5742 132.361 50.5742C133.165 50.5742 133.817 51.2264 133.817 52.0308C133.817 52.8353 133.165 53.4874 132.361 53.4874Z" fill="#C2DBFF"/>
<path d="M125.816 53.4874C125.012 53.4874 124.359 52.8353 124.359 52.0308C124.359 51.2264 125.012 50.5742 125.816 50.5742C126.62 50.5742 127.272 51.2264 127.272 52.0308C127.272 52.8353 126.62 53.4874 125.816 53.4874Z" fill="#C2DBFF"/>
<path d="M119.269 53.4874C118.465 53.4874 117.813 52.8353 117.813 52.0308C117.813 51.2264 118.465 50.5742 119.269 50.5742C120.073 50.5742 120.726 51.2264 120.726 52.0308C120.726 52.8353 120.073 53.4874 119.269 53.4874Z" fill="#C2DBFF"/>
<path d="M112.724 53.4874C111.92 53.4874 111.268 52.8353 111.268 52.0308C111.268 51.2264 111.92 50.5742 112.724 50.5742C113.529 50.5742 114.181 51.2264 114.181 52.0308C114.181 52.8353 113.529 53.4874 112.724 53.4874Z" fill="#C2DBFF"/>
<path d="M106.179 53.4874C105.375 53.4874 104.723 52.8353 104.723 52.0308C104.723 51.2264 105.375 50.5742 106.179 50.5742C106.984 50.5742 107.636 51.2264 107.636 52.0308C107.636 52.8353 106.984 53.4874 106.179 53.4874Z" fill="#C2DBFF"/>
<path d="M99.6363 53.4874C98.8319 53.4874 98.1798 52.8353 98.1798 52.0308C98.1798 51.2264 98.8319 50.5742 99.6363 50.5742C100.441 50.5742 101.093 51.2264 101.093 52.0308C101.093 52.8353 100.441 53.4874 99.6363 53.4874Z" fill="#C2DBFF"/>
<path d="M93.0914 53.4874C92.287 53.4874 91.6349 52.8353 91.6349 52.0308C91.6349 51.2264 92.287 50.5742 93.0914 50.5742C93.8958 50.5742 94.5479 51.2264 94.5479 52.0308C94.5479 52.8353 93.8958 53.4874 93.0914 53.4874Z" fill="#C2DBFF"/>
<path d="M86.5464 53.4874C85.742 53.4874 85.09 52.8353 85.09 52.0308C85.09 51.2264 85.742 50.5742 86.5464 50.5742C87.3508 50.5742 88.0029 51.2264 88.0029 52.0308C88.0029 52.8353 87.3508 53.4874 86.5464 53.4874Z" fill="#C2DBFF"/>
<path d="M80.0015 53.4874C79.1971 53.4874 78.545 52.8353 78.545 52.0308C78.545 51.2264 79.1971 50.5742 80.0015 50.5742C80.8059 50.5742 81.458 51.2264 81.458 52.0308C81.458 52.8353 80.8059 53.4874 80.0015 53.4874Z" fill="#C2DBFF"/>
<path d="M73.4547 53.4874C72.6503 53.4874 71.9982 52.8353 71.9982 52.0308C71.9982 51.2264 72.6503 50.5742 73.4547 50.5742C74.259 50.5742 74.9111 51.2264 74.9111 52.0308C74.9111 52.8353 74.259 53.4874 73.4547 53.4874Z" fill="#C2DBFF"/>
<path d="M66.9078 53.4874C66.1034 53.4874 65.4513 52.8353 65.4513 52.0308C65.4513 51.2264 66.1034 50.5742 66.9078 50.5742C67.7122 50.5742 68.3643 51.2264 68.3643 52.0308C68.3643 52.8353 67.7122 53.4874 66.9078 53.4874Z" fill="#C2DBFF"/>
<path d="M60.3629 53.4874C59.5585 53.4874 58.9064 52.8353 58.9064 52.0308C58.9064 51.2264 59.5585 50.5742 60.3629 50.5742C61.1672 50.5742 61.8193 51.2264 61.8193 52.0308C61.8193 52.8353 61.1672 53.4874 60.3629 53.4874Z" fill="#C2DBFF"/>
<path d="M53.816 53.4874C53.0116 53.4874 52.3595 52.8353 52.3595 52.0308C52.3595 51.2264 53.0116 50.5742 53.816 50.5742C54.6204 50.5742 55.2725 51.2264 55.2725 52.0308C55.2725 52.8353 54.6204 53.4874 53.816 53.4874Z" fill="#C2DBFF"/>
<path d="M47.273 53.4874C46.4686 53.4874 45.8165 52.8353 45.8165 52.0308C45.8165 51.2264 46.4686 50.5742 47.273 50.5742C48.0774 50.5742 48.7295 51.2264 48.7295 52.0308C48.7295 52.8353 48.0774 53.4874 47.273 53.4874Z" fill="#C2DBFF"/>
<path d="M40.7261 53.4874C39.9217 53.4874 39.2696 52.8353 39.2696 52.0308C39.2696 51.2264 39.9217 50.5742 40.7261 50.5742C41.5305 50.5742 42.1826 51.2264 42.1826 52.0308C42.1826 52.8353 41.5305 53.4874 40.7261 53.4874Z" fill="#C2DBFF"/>
<path d="M34.1832 53.4874C33.3788 53.4874 32.7267 52.8353 32.7267 52.0308C32.7267 51.2264 33.3788 50.5742 34.1832 50.5742C34.9876 50.5742 35.6396 51.2264 35.6396 52.0308C35.6396 52.8353 34.9876 53.4874 34.1832 53.4874Z" fill="#C2DBFF"/>
<path d="M27.6363 53.4874C26.8319 53.4874 26.1798 52.8353 26.1798 52.0308C26.1798 51.2264 26.8319 50.5742 27.6363 50.5742C28.4407 50.5742 29.0928 51.2264 29.0928 52.0308C29.0928 52.8353 28.4407 53.4874 27.6363 53.4874Z" fill="#C2DBFF"/>
<path d="M21.0953 53.4874C20.2909 53.4874 19.6388 52.8353 19.6388 52.0308C19.6388 51.2264 20.2909 50.5742 21.0953 50.5742C21.8997 50.5742 22.5518 51.2264 22.5518 52.0308C22.5518 52.8353 21.8997 53.4874 21.0953 53.4874Z" fill="#C2DBFF"/>
<path d="M14.5464 53.4874C13.742 53.4874 13.09 52.8353 13.09 52.0308C13.09 51.2264 13.742 50.5742 14.5464 50.5742C15.3508 50.5742 16.0029 51.2264 16.0029 52.0308C16.0029 52.8353 15.3508 53.4874 14.5464 53.4874Z" fill="#C2DBFF"/>
<path d="M7.99958 53.4874C7.19519 53.4874 6.54309 52.8353 6.54309 52.0308C6.54309 51.2264 7.19519 50.5742 7.99958 50.5742C8.80397 50.5742 9.45605 51.2264 9.45605 52.0308C9.45605 52.8353 8.80397 53.4874 7.99958 53.4874Z" fill="#C2DBFF"/>
<path d="M1.4566 53.4874C0.652214 53.4874 0.000135899 52.8353 0.000135899 52.0308C0.000135899 51.2264 0.652214 50.5742 1.4566 50.5742C2.26099 50.5742 2.91309 51.2264 2.91309 52.0308C2.91309 52.8353 2.26099 53.4874 1.4566 53.4874Z" fill="#C2DBFF"/>
<path d="M158.543 59.8038C157.738 59.8038 157.086 59.1517 157.086 58.3472C157.086 57.5428 157.738 56.8906 158.543 56.8906C159.347 56.8906 159.999 57.5428 159.999 58.3472C159.999 59.1517 159.347 59.8038 158.543 59.8038Z" fill="#C2DBFF"/>
<path d="M151.998 59.8038C151.193 59.8038 150.541 59.1517 150.541 58.3472C150.541 57.5428 151.193 56.8906 151.998 56.8906C152.802 56.8906 153.454 57.5428 153.454 58.3472C153.454 59.1517 152.802 59.8038 151.998 59.8038Z" fill="#C2DBFF"/>
<path d="M145.453 59.8038C144.648 59.8038 143.996 59.1517 143.996 58.3472C143.996 57.5428 144.648 56.8906 145.453 56.8906C146.257 56.8906 146.909 57.5428 146.909 58.3472C146.909 59.1517 146.257 59.8038 145.453 59.8038Z" fill="#C2DBFF"/>
<path d="M138.906 59.8038C138.101 59.8038 137.449 59.1517 137.449 58.3472C137.449 57.5428 138.101 56.8906 138.906 56.8906C139.71 56.8906 140.362 57.5428 140.362 58.3472C140.362 59.1517 139.71 59.8038 138.906 59.8038Z" fill="#C2DBFF"/>
<path d="M132.361 59.8038C131.557 59.8038 130.904 59.1517 130.904 58.3472C130.904 57.5428 131.557 56.8906 132.361 56.8906C133.165 56.8906 133.817 57.5428 133.817 58.3472C133.817 59.1517 133.165 59.8038 132.361 59.8038Z" fill="#C2DBFF"/>
<path d="M125.816 59.8038C125.012 59.8038 124.359 59.1517 124.359 58.3472C124.359 57.5428 125.012 56.8906 125.816 56.8906C126.62 56.8906 127.272 57.5428 127.272 58.3472C127.272 59.1517 126.62 59.8038 125.816 59.8038Z" fill="#C2DBFF"/>
<path d="M119.269 59.8038C118.465 59.8038 117.813 59.1517 117.813 58.3472C117.813 57.5428 118.465 56.8906 119.269 56.8906C120.073 56.8906 120.726 57.5428 120.726 58.3472C120.726 59.1517 120.073 59.8038 119.269 59.8038Z" fill="#C2DBFF"/>
<path d="M112.724 59.8038C111.92 59.8038 111.268 59.1517 111.268 58.3472C111.268 57.5428 111.92 56.8906 112.724 56.8906C113.529 56.8906 114.181 57.5428 114.181 58.3472C114.181 59.1517 113.529 59.8038 112.724 59.8038Z" fill="#C2DBFF"/>
<path d="M106.179 59.8038C105.375 59.8038 104.723 59.1517 104.723 58.3472C104.723 57.5428 105.375 56.8906 106.179 56.8906C106.984 56.8906 107.636 57.5428 107.636 58.3472C107.636 59.1517 106.984 59.8038 106.179 59.8038Z" fill="#C2DBFF"/>
<path d="M99.6363 59.8038C98.8319 59.8038 98.1798 59.1517 98.1798 58.3472C98.1798 57.5428 98.8319 56.8906 99.6363 56.8906C100.441 56.8906 101.093 57.5428 101.093 58.3472C101.093 59.1517 100.441 59.8038 99.6363 59.8038Z" fill="#C2DBFF"/>
<path d="M93.0914 59.8038C92.287 59.8038 91.6349 59.1517 91.6349 58.3472C91.6349 57.5428 92.287 56.8906 93.0914 56.8906C93.8958 56.8906 94.5479 57.5428 94.5479 58.3472C94.5479 59.1517 93.8958 59.8038 93.0914 59.8038Z" fill="#C2DBFF"/>
<path d="M86.5464 59.8038C85.742 59.8038 85.09 59.1517 85.09 58.3472C85.09 57.5428 85.742 56.8906 86.5464 56.8906C87.3508 56.8906 88.0029 57.5428 88.0029 58.3472C88.0029 59.1517 87.3508 59.8038 86.5464 59.8038Z" fill="#C2DBFF"/>
<path d="M80.0015 59.8038C79.1971 59.8038 78.545 59.1517 78.545 58.3472C78.545 57.5428 79.1971 56.8906 80.0015 56.8906C80.8059 56.8906 81.458 57.5428 81.458 58.3472C81.458 59.1517 80.8059 59.8038 80.0015 59.8038Z" fill="#C2DBFF"/>
<path d="M73.4547 59.8038C72.6503 59.8038 71.9982 59.1517 71.9982 58.3472C71.9982 57.5428 72.6503 56.8906 73.4547 56.8906C74.259 56.8906 74.9111 57.5428 74.9111 58.3472C74.9111 59.1517 74.259 59.8038 73.4547 59.8038Z" fill="#C2DBFF"/>
<path d="M66.9078 59.8038C66.1034 59.8038 65.4513 59.1517 65.4513 58.3472C65.4513 57.5428 66.1034 56.8906 66.9078 56.8906C67.7122 56.8906 68.3643 57.5428 68.3643 58.3472C68.3643 59.1517 67.7122 59.8038 66.9078 59.8038Z" fill="#C2DBFF"/>
<path d="M60.3629 59.8038C59.5585 59.8038 58.9064 59.1517 58.9064 58.3472C58.9064 57.5428 59.5585 56.8906 60.3629 56.8906C61.1672 56.8906 61.8193 57.5428 61.8193 58.3472C61.8193 59.1517 61.1672 59.8038 60.3629 59.8038Z" fill="#C2DBFF"/>
<path d="M53.816 59.8038C53.0116 59.8038 52.3595 59.1517 52.3595 58.3472C52.3595 57.5428 53.0116 56.8906 53.816 56.8906C54.6204 56.8906 55.2725 57.5428 55.2725 58.3472C55.2725 59.1517 54.6204 59.8038 53.816 59.8038Z" fill="#C2DBFF"/>
<path d="M47.273 59.8038C46.4686 59.8038 45.8165 59.1517 45.8165 58.3472C45.8165 57.5428 46.4686 56.8906 47.273 56.8906C48.0774 56.8906 48.7295 57.5428 48.7295 58.3472C48.7295 59.1517 48.0774 59.8038 47.273 59.8038Z" fill="#C2DBFF"/>
<path d="M40.7261 59.8038C39.9217 59.8038 39.2696 59.1517 39.2696 58.3472C39.2696 57.5428 39.9217 56.8906 40.7261 56.8906C41.5305 56.8906 42.1826 57.5428 42.1826 58.3472C42.1826 59.1517 41.5305 59.8038 40.7261 59.8038Z" fill="#C2DBFF"/>
<path d="M34.1832 59.8038C33.3788 59.8038 32.7267 59.1517 32.7267 58.3472C32.7267 57.5428 33.3788 56.8906 34.1832 56.8906C34.9876 56.8906 35.6396 57.5428 35.6396 58.3472C35.6396 59.1517 34.9876 59.8038 34.1832 59.8038Z" fill="#C2DBFF"/>
<path d="M27.6363 59.8038C26.8319 59.8038 26.1798 59.1517 26.1798 58.3472C26.1798 57.5428 26.8319 56.8906 27.6363 56.8906C28.4407 56.8906 29.0928 57.5428 29.0928 58.3472C29.0928 59.1517 28.4407 59.8038 27.6363 59.8038Z" fill="#C2DBFF"/>
<path d="M21.0953 59.8038C20.2909 59.8038 19.6388 59.1517 19.6388 58.3472C19.6388 57.5428 20.2909 56.8906 21.0953 56.8906C21.8997 56.8906 22.5518 57.5428 22.5518 58.3472C22.5518 59.1517 21.8997 59.8038 21.0953 59.8038Z" fill="#C2DBFF"/>
<path d="M14.5464 59.8038C13.742 59.8038 13.09 59.1517 13.09 58.3472C13.09 57.5428 13.742 56.8906 14.5464 56.8906C15.3508 56.8906 16.0029 57.5428 16.0029 58.3472C16.0029 59.1517 15.3508 59.8038 14.5464 59.8038Z" fill="#C2DBFF"/>
<path d="M7.99958 59.8038C7.19519 59.8038 6.54309 59.1517 6.54309 58.3472C6.54309 57.5428 7.19519 56.8906 7.99958 56.8906C8.80397 56.8906 9.45605 57.5428 9.45605 58.3472C9.45605 59.1517 8.80397 59.8038 7.99958 59.8038Z" fill="#C2DBFF"/>
<path d="M1.4566 59.8038C0.652214 59.8038 0.000135899 59.1517 0.000135899 58.3472C0.000135899 57.5428 0.652214 56.8906 1.4566 56.8906C2.26099 56.8906 2.91309 57.5428 2.91309 58.3472C2.91309 59.1517 2.26099 59.8038 1.4566 59.8038Z" fill="#C2DBFF"/>
<path d="M145.453 66.128C144.648 66.128 143.996 65.4759 143.996 64.6714C143.996 63.867 144.648 63.2148 145.453 63.2148C146.257 63.2148 146.909 63.867 146.909 64.6714C146.909 65.4759 146.257 66.128 145.453 66.128Z" fill="#C2DBFF"/>
<path d="M138.906 66.128C138.101 66.128 137.449 65.4759 137.449 64.6714C137.449 63.867 138.101 63.2148 138.906 63.2148C139.71 63.2148 140.362 63.867 140.362 64.6714C140.362 65.4759 139.71 66.128 138.906 66.128Z" fill="#C2DBFF"/>
<path d="M132.361 66.128C131.557 66.128 130.904 65.4759 130.904 64.6714C130.904 63.867 131.557 63.2148 132.361 63.2148C133.165 63.2148 133.817 63.867 133.817 64.6714C133.817 65.4759 133.165 66.128 132.361 66.128Z" fill="#C2DBFF"/>
<path d="M125.816 66.128C125.012 66.128 124.359 65.4759 124.359 64.6714C124.359 63.867 125.012 63.2148 125.816 63.2148C126.62 63.2148 127.272 63.867 127.272 64.6714C127.272 65.4759 126.62 66.128 125.816 66.128Z" fill="#C2DBFF"/>
<path d="M119.269 66.128C118.465 66.128 117.813 65.4759 117.813 64.6714C117.813 63.867 118.465 63.2148 119.269 63.2148C120.073 63.2148 120.726 63.867 120.726 64.6714C120.726 65.4759 120.073 66.128 119.269 66.128Z" fill="#C2DBFF"/>
<path d="M112.724 66.128C111.92 66.128 111.268 65.4759 111.268 64.6714C111.268 63.867 111.92 63.2148 112.724 63.2148C113.529 63.2148 114.181 63.867 114.181 64.6714C114.181 65.4759 113.529 66.128 112.724 66.128Z" fill="#C2DBFF"/>
<path d="M106.179 66.128C105.375 66.128 104.723 65.4759 104.723 64.6714C104.723 63.867 105.375 63.2148 106.179 63.2148C106.984 63.2148 107.636 63.867 107.636 64.6714C107.636 65.4759 106.984 66.128 106.179 66.128Z" fill="#C2DBFF"/>
<path d="M99.6363 66.128C98.8319 66.128 98.1798 65.4759 98.1798 64.6714C98.1798 63.867 98.8319 63.2148 99.6363 63.2148C100.441 63.2148 101.093 63.867 101.093 64.6714C101.093 65.4759 100.441 66.128 99.6363 66.128Z" fill="#C2DBFF"/>
<path d="M93.0914 66.128C92.287 66.128 91.6349 65.4759 91.6349 64.6714C91.6349 63.867 92.287 63.2148 93.0914 63.2148C93.8958 63.2148 94.5479 63.867 94.5479 64.6714C94.5479 65.4759 93.8958 66.128 93.0914 66.128Z" fill="#C2DBFF"/>
<path d="M86.5464 66.128C85.742 66.128 85.09 65.4759 85.09 64.6714C85.09 63.867 85.742 63.2148 86.5464 63.2148C87.3508 63.2148 88.0029 63.867 88.0029 64.6714C88.0029 65.4759 87.3508 66.128 86.5464 66.128Z" fill="#C2DBFF"/>
<path d="M80.0015 66.128C79.1971 66.128 78.545 65.4759 78.545 64.6714C78.545 63.867 79.1971 63.2148 80.0015 63.2148C80.8059 63.2148 81.458 63.867 81.458 64.6714C81.458 65.4759 80.8059 66.128 80.0015 66.128Z" fill="#C2DBFF"/>
<path d="M73.4547 66.128C72.6503 66.128 71.9982 65.4759 71.9982 64.6714C71.9982 63.867 72.6503 63.2148 73.4547 63.2148C74.259 63.2148 74.9111 63.867 74.9111 64.6714C74.9111 65.4759 74.259 66.128 73.4547 66.128Z" fill="#C2DBFF"/>
<path d="M66.9078 66.128C66.1034 66.128 65.4513 65.4759 65.4513 64.6714C65.4513 63.867 66.1034 63.2148 66.9078 63.2148C67.7122 63.2148 68.3643 63.867 68.3643 64.6714C68.3643 65.4759 67.7122 66.128 66.9078 66.128Z" fill="#C2DBFF"/>
<path d="M60.3629 66.128C59.5585 66.128 58.9064 65.4759 58.9064 64.6714C58.9064 63.867 59.5585 63.2148 60.3629 63.2148C61.1672 63.2148 61.8193 63.867 61.8193 64.6714C61.8193 65.4759 61.1672 66.128 60.3629 66.128Z" fill="#C2DBFF"/>
<path d="M53.816 66.128C53.0116 66.128 52.3595 65.4759 52.3595 64.6714C52.3595 63.867 53.0116 63.2148 53.816 63.2148C54.6204 63.2148 55.2725 63.867 55.2725 64.6714C55.2725 65.4759 54.6204 66.128 53.816 66.128Z" fill="#C2DBFF"/>
<path d="M47.273 66.128C46.4686 66.128 45.8165 65.4759 45.8165 64.6714C45.8165 63.867 46.4686 63.2148 47.273 63.2148C48.0774 63.2148 48.7295 63.867 48.7295 64.6714C48.7295 65.4759 48.0774 66.128 47.273 66.128Z" fill="#C2DBFF"/>
<path d="M40.7261 66.128C39.9217 66.128 39.2696 65.4759 39.2696 64.6714C39.2696 63.867 39.9217 63.2148 40.7261 63.2148C41.5305 63.2148 42.1826 63.867 42.1826 64.6714C42.1826 65.4759 41.5305 66.128 40.7261 66.128Z" fill="#C2DBFF"/>
<path d="M34.1832 66.128C33.3788 66.128 32.7267 65.4759 32.7267 64.6714C32.7267 63.867 33.3788 63.2148 34.1832 63.2148C34.9876 63.2148 35.6396 63.867 35.6396 64.6714C35.6396 65.4759 34.9876 66.128 34.1832 66.128Z" fill="#C2DBFF"/>
<path d="M27.6363 66.128C26.8319 66.128 26.1798 65.4759 26.1798 64.6714C26.1798 63.867 26.8319 63.2148 27.6363 63.2148C28.4407 63.2148 29.0928 63.867 29.0928 64.6714C29.0928 65.4759 28.4407 66.128 27.6363 66.128Z" fill="#C2DBFF"/>
<path d="M21.0953 66.128C20.2909 66.128 19.6388 65.4759 19.6388 64.6714C19.6388 63.867 20.2909 63.2148 21.0953 63.2148C21.8997 63.2148 22.5518 63.867 22.5518 64.6714C22.5518 65.4759 21.8997 66.128 21.0953 66.128Z" fill="#C2DBFF"/>
<path d="M14.5464 66.128C13.742 66.128 13.09 65.4759 13.09 64.6714C13.09 63.867 13.742 63.2148 14.5464 63.2148C15.3508 63.2148 16.0029 63.867 16.0029 64.6714C16.0029 65.4759 15.3508 66.128 14.5464 66.128Z" fill="#C2DBFF"/>
<path d="M7.99958 66.128C7.19519 66.128 6.54309 65.4759 6.54309 64.6714C6.54309 63.867 7.19519 63.2148 7.99958 63.2148C8.80397 63.2148 9.45605 63.867 9.45605 64.6714C9.45605 65.4759 8.80397 66.128 7.99958 66.128Z" fill="#C2DBFF"/>
<path d="M132.361 72.4523C131.557 72.4523 130.904 71.8001 130.904 70.9957C130.904 70.1912 131.557 69.5391 132.361 69.5391C133.165 69.5391 133.817 70.1912 133.817 70.9957C133.817 71.8001 133.165 72.4523 132.361 72.4523Z" fill="#C2DBFF"/>
<path d="M125.816 72.4523C125.012 72.4523 124.359 71.8001 124.359 70.9957C124.359 70.1912 125.012 69.5391 125.816 69.5391C126.62 69.5391 127.272 70.1912 127.272 70.9957C127.272 71.8001 126.62 72.4523 125.816 72.4523Z" fill="#C2DBFF"/>
<path d="M119.269 72.4523C118.465 72.4523 117.813 71.8001 117.813 70.9957C117.813 70.1912 118.465 69.5391 119.269 69.5391C120.073 69.5391 120.726 70.1912 120.726 70.9957C120.726 71.8001 120.073 72.4523 119.269 72.4523Z" fill="#C2DBFF"/>
<path d="M106.179 72.4523C105.375 72.4523 104.723 71.8001 104.723 70.9957C104.723 70.1912 105.375 69.5391 106.179 69.5391C106.984 69.5391 107.636 70.1912 107.636 70.9957C107.636 71.8001 106.984 72.4523 106.179 72.4523Z" fill="#C2DBFF"/>
<path d="M99.6363 72.4523C98.8319 72.4523 98.1798 71.8001 98.1798 70.9957C98.1798 70.1912 98.8319 69.5391 99.6363 69.5391C100.441 69.5391 101.093 70.1912 101.093 70.9957C101.093 71.8001 100.441 72.4523 99.6363 72.4523Z" fill="#C2DBFF"/>
<path d="M93.0914 72.4523C92.287 72.4523 91.6349 71.8001 91.6349 70.9957C91.6349 70.1912 92.287 69.5391 93.0914 69.5391C93.8958 69.5391 94.5479 70.1912 94.5479 70.9957C94.5479 71.8001 93.8958 72.4523 93.0914 72.4523Z" fill="#C2DBFF"/>
<path d="M86.5464 72.4523C85.742 72.4523 85.09 71.8001 85.09 70.9957C85.09 70.1912 85.742 69.5391 86.5464 69.5391C87.3508 69.5391 88.0029 70.1912 88.0029 70.9957C88.0029 71.8001 87.3508 72.4523 86.5464 72.4523Z" fill="#C2DBFF"/>
<path d="M80.0015 72.4523C79.1971 72.4523 78.545 71.8001 78.545 70.9957C78.545 70.1912 79.1971 69.5391 80.0015 69.5391C80.8059 69.5391 81.458 70.1912 81.458 70.9957C81.458 71.8001 80.8059 72.4523 80.0015 72.4523Z" fill="#C2DBFF"/>
<path d="M73.4547 72.4523C72.6503 72.4523 71.9982 71.8001 71.9982 70.9957C71.9982 70.1912 72.6503 69.5391 73.4547 69.5391C74.259 69.5391 74.9111 70.1912 74.9111 70.9957C74.9111 71.8001 74.259 72.4523 73.4547 72.4523Z" fill="#C2DBFF"/>
<path d="M66.9078 72.4523C66.1034 72.4523 65.4513 71.8001 65.4513 70.9957C65.4513 70.1912 66.1034 69.5391 66.9078 69.5391C67.7122 69.5391 68.3643 70.1912 68.3643 70.9957C68.3643 71.8001 67.7122 72.4523 66.9078 72.4523Z" fill="#C2DBFF"/>
<path d="M60.3629 72.4523C59.5585 72.4523 58.9064 71.8001 58.9064 70.9957C58.9064 70.1912 59.5585 69.5391 60.3629 69.5391C61.1672 69.5391 61.8193 70.1912 61.8193 70.9957C61.8193 71.8001 61.1672 72.4523 60.3629 72.4523Z" fill="#C2DBFF"/>
<path d="M53.816 72.4523C53.0116 72.4523 52.3595 71.8001 52.3595 70.9957C52.3595 70.1912 53.0116 69.5391 53.816 69.5391C54.6204 69.5391 55.2725 70.1912 55.2725 70.9957C55.2725 71.8001 54.6204 72.4523 53.816 72.4523Z" fill="#C2DBFF"/>
<path d="M47.273 72.4523C46.4686 72.4523 45.8165 71.8001 45.8165 70.9957C45.8165 70.1912 46.4686 69.5391 47.273 69.5391C48.0774 69.5391 48.7295 70.1912 48.7295 70.9957C48.7295 71.8001 48.0774 72.4523 47.273 72.4523Z" fill="#C2DBFF"/>
<path d="M40.7261 72.4523C39.9217 72.4523 39.2696 71.8001 39.2696 70.9957C39.2696 70.1912 39.9217 69.5391 40.7261 69.5391C41.5305 69.5391 42.1826 70.1912 42.1826 70.9957C42.1826 71.8001 41.5305 72.4523 40.7261 72.4523Z" fill="#C2DBFF"/>
<path d="M34.1832 72.4523C33.3788 72.4523 32.7267 71.8001 32.7267 70.9957C32.7267 70.1912 33.3788 69.5391 34.1832 69.5391C34.9876 69.5391 35.6396 70.1912 35.6396 70.9957C35.6396 71.8001 34.9876 72.4523 34.1832 72.4523Z" fill="#C2DBFF"/>
<path d="M27.6363 72.4523C26.8319 72.4523 26.1798 71.8001 26.1798 70.9957C26.1798 70.1912 26.8319 69.5391 27.6363 69.5391C28.4407 69.5391 29.0928 70.1912 29.0928 70.9957C29.0928 71.8001 28.4407 72.4523 27.6363 72.4523Z" fill="#C2DBFF"/>
<path d="M21.0953 72.4523C20.2909 72.4523 19.6388 71.8001 19.6388 70.9957C19.6388 70.1912 20.2909 69.5391 21.0953 69.5391C21.8997 69.5391 22.5518 70.1912 22.5518 70.9957C22.5518 71.8001 21.8997 72.4523 21.0953 72.4523Z" fill="#C2DBFF"/>
<path d="M14.5464 72.4523C13.742 72.4523 13.09 71.8001 13.09 70.9957C13.09 70.1912 13.742 69.5391 14.5464 69.5391C15.3508 69.5391 16.0029 70.1912 16.0029 70.9957C16.0029 71.8001 15.3508 72.4523 14.5464 72.4523Z" fill="#C2DBFF"/>
<path d="M99.6363 78.7726C98.8319 78.7726 98.1798 78.1204 98.1798 77.316C98.1798 76.5115 98.8319 75.8594 99.6363 75.8594C100.441 75.8594 101.093 76.5115 101.093 77.316C101.093 78.1204 100.441 78.7726 99.6363 78.7726Z" fill="#C2DBFF"/>
<path d="M93.0914 78.7726C92.287 78.7726 91.6349 78.1204 91.6349 77.316C91.6349 76.5115 92.287 75.8594 93.0914 75.8594C93.8958 75.8594 94.5479 76.5115 94.5479 77.316C94.5479 78.1204 93.8958 78.7726 93.0914 78.7726Z" fill="#C2DBFF"/>
<path d="M86.5464 78.7726C85.742 78.7726 85.09 78.1204 85.09 77.316C85.09 76.5115 85.742 75.8594 86.5464 75.8594C87.3508 75.8594 88.0029 76.5115 88.0029 77.316C88.0029 78.1204 87.3508 78.7726 86.5464 78.7726Z" fill="#C2DBFF"/>
<path d="M80.0015 78.7726C79.1971 78.7726 78.545 78.1204 78.545 77.316C78.545 76.5115 79.1971 75.8594 80.0015 75.8594C80.8059 75.8594 81.458 76.5115 81.458 77.316C81.458 78.1204 80.8059 78.7726 80.0015 78.7726Z" fill="#C2DBFF"/>
<path d="M73.4547 78.7726C72.6503 78.7726 71.9982 78.1204 71.9982 77.316C71.9982 76.5115 72.6503 75.8594 73.4547 75.8594C74.259 75.8594 74.9111 76.5115 74.9111 77.316C74.9111 78.1204 74.259 78.7726 73.4547 78.7726Z" fill="#C2DBFF"/>
<path d="M66.9078 78.7726C66.1034 78.7726 65.4513 78.1204 65.4513 77.316C65.4513 76.5115 66.1034 75.8594 66.9078 75.8594C67.7122 75.8594 68.3643 76.5115 68.3643 77.316C68.3643 78.1204 67.7122 78.7726 66.9078 78.7726Z" fill="#C2DBFF"/>
<path d="M60.3629 78.7726C59.5585 78.7726 58.9064 78.1204 58.9064 77.316C58.9064 76.5115 59.5585 75.8594 60.3629 75.8594C61.1672 75.8594 61.8193 76.5115 61.8193 77.316C61.8193 78.1204 61.1672 78.7726 60.3629 78.7726Z" fill="#C2DBFF"/>
<path d="M53.816 78.7726C53.0116 78.7726 52.3595 78.1204 52.3595 77.316C52.3595 76.5115 53.0116 75.8594 53.816 75.8594C54.6204 75.8594 55.2725 76.5115 55.2725 77.316C55.2725 78.1204 54.6204 78.7726 53.816 78.7726Z" fill="#C2DBFF"/>
<path d="M80.0015 85.0929C79.1971 85.0929 78.545 84.4407 78.545 83.6363C78.545 82.8318 79.1971 82.1797 80.0015 82.1797C80.8059 82.1797 81.458 82.8318 81.458 83.6363C81.458 84.4407 80.8059 85.0929 80.0015 85.0929Z" fill="#C2DBFF"/>
<path d="M73.4547 85.0929C72.6503 85.0929 71.9982 84.4407 71.9982 83.6363C71.9982 82.8318 72.6503 82.1797 73.4547 82.1797C74.259 82.1797 74.9111 82.8318 74.9111 83.6363C74.9111 84.4407 74.259 85.0929 73.4547 85.0929Z" fill="#C2DBFF"/>
<path d="M66.9078 85.0929C66.1034 85.0929 65.4513 84.4407 65.4513 83.6363C65.4513 82.8318 66.1034 82.1797 66.9078 82.1797C67.7122 82.1797 68.3643 82.8318 68.3643 83.6363C68.3643 84.4407 67.7122 85.0929 66.9078 85.0929Z" fill="#C2DBFF"/>
<path d="M60.3629 85.0929C59.5585 85.0929 58.9064 84.4407 58.9064 83.6363C58.9064 82.8318 59.5585 82.1797 60.3629 82.1797C61.1672 82.1797 61.8193 82.8318 61.8193 83.6363C61.8193 84.4407 61.1672 85.0929 60.3629 85.0929Z" fill="#C2DBFF"/>
</svg>
