<svg width="160" height="86" viewBox="0 0 160 86" fill="none" xmlns="http://www.w3.org/2000/svg">
<path d="M93.0913 2.91318C93.8956 2.91318 94.5477 2.26104 94.5477 1.45659C94.5477 0.652143 93.8956 0 93.0913 0C92.2869 0 91.6348 0.652143 91.6348 1.45659C91.6348 2.26104 92.2869 2.91318 93.0913 2.91318Z" fill="#C2DBFF"/>
<path d="M99.6362 2.91318C100.441 2.91318 101.093 2.26104 101.093 1.45659C101.093 0.652143 100.441 0 99.6362 0C98.8318 0 98.1797 0.652143 98.1797 1.45659C98.1797 2.26104 98.8318 2.91318 99.6362 2.91318Z" fill="#C2DBFF"/>
<path d="M106.183 2.91318C106.987 2.91318 107.64 2.26104 107.64 1.45659C107.64 0.652143 106.987 0 106.183 0C105.379 0 104.727 0.652143 104.727 1.45659C104.727 2.26104 105.379 2.91318 106.183 2.91318Z" fill="#C2DBFF"/>
<path d="M112.726 2.91318C113.53 2.91318 114.183 2.26104 114.183 1.45659C114.183 0.652143 113.53 0 112.726 0C111.922 0 111.27 0.652143 111.27 1.45659C111.27 2.26104 111.922 2.91318 112.726 2.91318Z" fill="#C2DBFF"/>
<path d="M47.2748 9.23743C48.0792 9.23743 48.7313 8.58528 48.7313 7.78083C48.7313 6.97637 48.0792 6.32422 47.2748 6.32422C46.4704 6.32422 45.8184 6.97637 45.8184 7.78083C45.8184 8.58528 46.4704 9.23743 47.2748 9.23743Z" fill="#C2DBFF"/>
<path d="M53.8198 9.23743C54.6242 9.23743 55.2762 8.58528 55.2762 7.78083C55.2762 6.97637 54.6242 6.32422 53.8198 6.32422C53.0154 6.32422 52.3633 6.97637 52.3633 7.78083C52.3633 8.58528 53.0154 9.23743 53.8198 9.23743Z" fill="#C2DBFF"/>
<path d="M60.3627 9.23743C61.1671 9.23743 61.8192 8.58528 61.8192 7.78083C61.8192 6.97637 61.1671 6.32422 60.3627 6.32422C59.5583 6.32422 58.9062 6.97637 58.9062 7.78083C58.9062 8.58528 59.5583 9.23743 60.3627 9.23743Z" fill="#C2DBFF"/>
<path d="M66.9077 9.23743C67.712 9.23743 68.3641 8.58528 68.3641 7.78083C68.3641 6.97637 67.712 6.32422 66.9077 6.32422C66.1033 6.32422 65.4512 6.97637 65.4512 7.78083C65.4512 8.58528 66.1033 9.23743 66.9077 9.23743Z" fill="#C2DBFF"/>
<path d="M73.4526 9.23743C74.257 9.23743 74.9091 8.58528 74.9091 7.78083C74.9091 6.97637 74.257 6.32422 73.4526 6.32422C72.6482 6.32422 71.9961 6.97637 71.9961 7.78083C71.9961 8.58528 72.6482 9.23743 73.4526 9.23743Z" fill="#C2DBFF"/>
<path d="M86.5444 9.23743C87.3488 9.23743 88.0009 8.58528 88.0009 7.78083C88.0009 6.97637 87.3488 6.32422 86.5444 6.32422C85.74 6.32422 85.0879 6.97637 85.0879 7.78083C85.0879 8.58528 85.74 9.23743 86.5444 9.23743Z" fill="#C2DBFF"/>
<path d="M93.0913 9.23743C93.8956 9.23743 94.5477 8.58528 94.5477 7.78083C94.5477 6.97637 93.8956 6.32422 93.0913 6.32422C92.2869 6.32422 91.6348 6.97637 91.6348 7.78083C91.6348 8.58528 92.2869 9.23743 93.0913 9.23743Z" fill="#C2DBFF"/>
<path d="M99.6362 9.23743C100.441 9.23743 101.093 8.58528 101.093 7.78083C101.093 6.97637 100.441 6.32422 99.6362 6.32422C98.8318 6.32422 98.1797 6.97637 98.1797 7.78083C98.1797 8.58528 98.8318 9.23743 99.6362 9.23743Z" fill="#C2DBFF"/>
<path d="M106.183 9.23743C106.987 9.23743 107.64 8.58528 107.64 7.78083C107.64 6.97637 106.987 6.32422 106.183 6.32422C105.379 6.32422 104.727 6.97637 104.727 7.78083C104.727 8.58528 105.379 9.23743 106.183 9.23743Z" fill="#C2DBFF"/>
<path d="M112.726 9.23743C113.53 9.23743 114.183 8.58528 114.183 7.78083C114.183 6.97637 113.53 6.32422 112.726 6.32422C111.922 6.32422 111.27 6.97637 111.27 7.78083C111.27 8.58528 111.922 9.23743 112.726 9.23743Z" fill="#C2DBFF"/>
<path d="M119.273 9.23743C120.077 9.23743 120.729 8.58528 120.729 7.78083C120.729 6.97637 120.077 6.32422 119.273 6.32422C118.468 6.32422 117.816 6.97637 117.816 7.78083C117.816 8.58528 118.468 9.23743 119.273 9.23743Z" fill="#C2DBFF"/>
<path d="M40.7299 15.5538C41.5343 15.5538 42.1864 14.9017 42.1864 14.0972C42.1864 13.2928 41.5343 12.6406 40.7299 12.6406C39.9255 12.6406 39.2734 13.2928 39.2734 14.0972C39.2734 14.9017 39.9255 15.5538 40.7299 15.5538Z" fill="#C2DBFF"/>
<path d="M47.2748 15.5538C48.0792 15.5538 48.7313 14.9017 48.7313 14.0972C48.7313 13.2928 48.0792 12.6406 47.2748 12.6406C46.4704 12.6406 45.8184 13.2928 45.8184 14.0972C45.8184 14.9017 46.4704 15.5538 47.2748 15.5538Z" fill="#C2DBFF"/>
<path d="M53.8198 15.5538C54.6242 15.5538 55.2762 14.9017 55.2762 14.0972C55.2762 13.2928 54.6242 12.6406 53.8198 12.6406C53.0154 12.6406 52.3633 13.2928 52.3633 14.0972C52.3633 14.9017 53.0154 15.5538 53.8198 15.5538Z" fill="#C2DBFF"/>
<path d="M60.3627 15.5538C61.1671 15.5538 61.8192 14.9017 61.8192 14.0972C61.8192 13.2928 61.1671 12.6406 60.3627 12.6406C59.5583 12.6406 58.9062 13.2928 58.9062 14.0972C58.9062 14.9017 59.5583 15.5538 60.3627 15.5538Z" fill="#C2DBFF"/>
<path d="M66.9077 15.5538C67.712 15.5538 68.3641 14.9017 68.3641 14.0972C68.3641 13.2928 67.712 12.6406 66.9077 12.6406C66.1033 12.6406 65.4512 13.2928 65.4512 14.0972C65.4512 14.9017 66.1033 15.5538 66.9077 15.5538Z" fill="#C2DBFF"/>
<path d="M73.4526 15.5538C74.257 15.5538 74.9091 14.9017 74.9091 14.0972C74.9091 13.2928 74.257 12.6406 73.4526 12.6406C72.6482 12.6406 71.9961 13.2928 71.9961 14.0972C71.9961 14.9017 72.6482 15.5538 73.4526 15.5538Z" fill="#C2DBFF"/>
<path d="M79.9975 15.5538C80.8019 15.5538 81.454 14.9017 81.454 14.0972C81.454 13.2928 80.8019 12.6406 79.9975 12.6406C79.1931 12.6406 78.541 13.2928 78.541 14.0972C78.541 14.9017 79.1931 15.5538 79.9975 15.5538Z" fill="#C2DBFF"/>
<path d="M86.5444 15.5538C87.3488 15.5538 88.0009 14.9017 88.0009 14.0972C88.0009 13.2928 87.3488 12.6406 86.5444 12.6406C85.74 12.6406 85.0879 13.2928 85.0879 14.0972C85.0879 14.9017 85.74 15.5538 86.5444 15.5538Z" fill="#C2DBFF"/>
<path d="M93.0913 15.5538C93.8956 15.5538 94.5477 14.9017 94.5477 14.0972C94.5477 13.2928 93.8956 12.6406 93.0913 12.6406C92.2869 12.6406 91.6348 13.2928 91.6348 14.0972C91.6348 14.9017 92.2869 15.5538 93.0913 15.5538Z" fill="#C2DBFF"/>
<path d="M99.6362 15.5538C100.441 15.5538 101.093 14.9017 101.093 14.0972C101.093 13.2928 100.441 12.6406 99.6362 12.6406C98.8318 12.6406 98.1797 13.2928 98.1797 14.0972C98.1797 14.9017 98.8318 15.5538 99.6362 15.5538Z" fill="#C2DBFF"/>
<path d="M106.183 15.5538C106.987 15.5538 107.64 14.9017 107.64 14.0972C107.64 13.2928 106.987 12.6406 106.183 12.6406C105.379 12.6406 104.727 13.2928 104.727 14.0972C104.727 14.9017 105.379 15.5538 106.183 15.5538Z" fill="#C2DBFF"/>
<path d="M112.726 15.5538C113.53 15.5538 114.183 14.9017 114.183 14.0972C114.183 13.2928 113.53 12.6406 112.726 12.6406C111.922 12.6406 111.27 13.2928 111.27 14.0972C111.27 14.9017 111.922 15.5538 112.726 15.5538Z" fill="#C2DBFF"/>
<path d="M119.273 15.5538C120.077 15.5538 120.729 14.9017 120.729 14.0972C120.729 13.2928 120.077 12.6406 119.273 12.6406C118.468 12.6406 117.816 13.2928 117.816 14.0972C117.816 14.9017 118.468 15.5538 119.273 15.5538Z" fill="#C2DBFF"/>
<path d="M125.816 15.5538C126.62 15.5538 127.272 14.9017 127.272 14.0972C127.272 13.2928 126.62 12.6406 125.816 12.6406C125.011 12.6406 124.359 13.2928 124.359 14.0972C124.359 14.9017 125.011 15.5538 125.816 15.5538Z" fill="#C2DBFF"/>
<path d="M21.0932 21.8781C21.8976 21.8781 22.5497 21.2259 22.5497 20.4215C22.5497 19.617 21.8976 18.9648 21.0932 18.9648C20.2888 18.9648 19.6367 19.617 19.6367 20.4215C19.6367 21.2259 20.2888 21.8781 21.0932 21.8781Z" fill="#C2DBFF"/>
<path d="M27.6381 21.8781C28.4425 21.8781 29.0946 21.2259 29.0946 20.4215C29.0946 19.617 28.4425 18.9648 27.6381 18.9648C26.8337 18.9648 26.1816 19.617 26.1816 20.4215C26.1816 21.2259 26.8337 21.8781 27.6381 21.8781Z" fill="#C2DBFF"/>
<path d="M34.183 21.8781C34.9874 21.8781 35.6395 21.2259 35.6395 20.4215C35.6395 19.617 34.9874 18.9648 34.183 18.9648C33.3787 18.9648 32.7266 19.617 32.7266 20.4215C32.7266 21.2259 33.3787 21.8781 34.183 21.8781Z" fill="#C2DBFF"/>
<path d="M40.7299 21.8781C41.5343 21.8781 42.1864 21.2259 42.1864 20.4215C42.1864 19.617 41.5343 18.9648 40.7299 18.9648C39.9255 18.9648 39.2734 19.617 39.2734 20.4215C39.2734 21.2259 39.9255 21.8781 40.7299 21.8781Z" fill="#C2DBFF"/>
<path d="M47.2748 21.8781C48.0792 21.8781 48.7313 21.2259 48.7313 20.4215C48.7313 19.617 48.0792 18.9648 47.2748 18.9648C46.4704 18.9648 45.8184 19.617 45.8184 20.4215C45.8184 21.2259 46.4704 21.8781 47.2748 21.8781Z" fill="#C2DBFF"/>
<path d="M53.8198 21.8781C54.6242 21.8781 55.2762 21.2259 55.2762 20.4215C55.2762 19.617 54.6242 18.9648 53.8198 18.9648C53.0154 18.9648 52.3633 19.617 52.3633 20.4215C52.3633 21.2259 53.0154 21.8781 53.8198 21.8781Z" fill="#C2DBFF"/>
<path d="M60.3627 21.8781C61.1671 21.8781 61.8192 21.2259 61.8192 20.4215C61.8192 19.617 61.1671 18.9648 60.3627 18.9648C59.5583 18.9648 58.9062 19.617 58.9062 20.4215C58.9062 21.2259 59.5583 21.8781 60.3627 21.8781Z" fill="#C2DBFF"/>
<path d="M66.9077 21.8781C67.712 21.8781 68.3641 21.2259 68.3641 20.4215C68.3641 19.617 67.712 18.9648 66.9077 18.9648C66.1033 18.9648 65.4512 19.617 65.4512 20.4215C65.4512 21.2259 66.1033 21.8781 66.9077 21.8781Z" fill="#C2DBFF"/>
<path d="M73.4526 21.8781C74.257 21.8781 74.9091 21.2259 74.9091 20.4215C74.9091 19.617 74.257 18.9648 73.4526 18.9648C72.6482 18.9648 71.9961 19.617 71.9961 20.4215C71.9961 21.2259 72.6482 21.8781 73.4526 21.8781Z" fill="#C2DBFF"/>
<path d="M79.9975 21.8781C80.8019 21.8781 81.454 21.2259 81.454 20.4215C81.454 19.617 80.8019 18.9648 79.9975 18.9648C79.1931 18.9648 78.541 19.617 78.541 20.4215C78.541 21.2259 79.1931 21.8781 79.9975 21.8781Z" fill="#C2DBFF"/>
<path d="M86.5444 21.8781C87.3488 21.8781 88.0009 21.2259 88.0009 20.4215C88.0009 19.617 87.3488 18.9648 86.5444 18.9648C85.74 18.9648 85.0879 19.617 85.0879 20.4215C85.0879 21.2259 85.74 21.8781 86.5444 21.8781Z" fill="#C2DBFF"/>
<path d="M93.0913 21.8781C93.8956 21.8781 94.5477 21.2259 94.5477 20.4215C94.5477 19.617 93.8956 18.9648 93.0913 18.9648C92.2869 18.9648 91.6348 19.617 91.6348 20.4215C91.6348 21.2259 92.2869 21.8781 93.0913 21.8781Z" fill="#C2DBFF"/>
<path d="M99.6362 21.8781C100.441 21.8781 101.093 21.2259 101.093 20.4215C101.093 19.617 100.441 18.9648 99.6362 18.9648C98.8318 18.9648 98.1797 19.617 98.1797 20.4215C98.1797 21.2259 98.8318 21.8781 99.6362 21.8781Z" fill="#C2DBFF"/>
<path d="M106.183 21.8781C106.987 21.8781 107.64 21.2259 107.64 20.4215C107.64 19.617 106.987 18.9648 106.183 18.9648C105.379 18.9648 104.727 19.617 104.727 20.4215C104.727 21.2259 105.379 21.8781 106.183 21.8781Z" fill="#C2DBFF"/>
<path d="M112.726 21.8781C113.53 21.8781 114.183 21.2259 114.183 20.4215C114.183 19.617 113.53 18.9648 112.726 18.9648C111.922 18.9648 111.27 19.617 111.27 20.4215C111.27 21.2259 111.922 21.8781 112.726 21.8781Z" fill="#C2DBFF"/>
<path d="M119.273 21.8781C120.077 21.8781 120.729 21.2259 120.729 20.4215C120.729 19.617 120.077 18.9648 119.273 18.9648C118.468 18.9648 117.816 19.617 117.816 20.4215C117.816 21.2259 118.468 21.8781 119.273 21.8781Z" fill="#C2DBFF"/>
<path d="M125.816 21.8781C126.62 21.8781 127.272 21.2259 127.272 20.4215C127.272 19.617 126.62 18.9648 125.816 18.9648C125.011 18.9648 124.359 19.617 124.359 20.4215C124.359 21.2259 125.011 21.8781 125.816 21.8781Z" fill="#C2DBFF"/>
<path d="M14.5463 28.2022C15.3507 28.2022 16.0028 27.5501 16.0028 26.7457C16.0028 25.9412 15.3507 25.2891 14.5463 25.2891C13.7419 25.2891 13.0898 25.9412 13.0898 26.7457C13.0898 27.5501 13.7419 28.2022 14.5463 28.2022Z" fill="#C2DBFF"/>
<path d="M21.0932 28.2022C21.8976 28.2022 22.5497 27.5501 22.5497 26.7457C22.5497 25.9412 21.8976 25.2891 21.0932 25.2891C20.2888 25.2891 19.6367 25.9412 19.6367 26.7457C19.6367 27.5501 20.2888 28.2022 21.0932 28.2022Z" fill="#C2DBFF"/>
<path d="M27.6381 28.2022C28.4425 28.2022 29.0946 27.5501 29.0946 26.7457C29.0946 25.9412 28.4425 25.2891 27.6381 25.2891C26.8337 25.2891 26.1816 25.9412 26.1816 26.7457C26.1816 27.5501 26.8337 28.2022 27.6381 28.2022Z" fill="#C2DBFF"/>
<path d="M34.183 28.2022C34.9874 28.2022 35.6395 27.5501 35.6395 26.7457C35.6395 25.9412 34.9874 25.2891 34.183 25.2891C33.3787 25.2891 32.7266 25.9412 32.7266 26.7457C32.7266 27.5501 33.3787 28.2022 34.183 28.2022Z" fill="#C2DBFF"/>
<path d="M40.7299 28.2022C41.5343 28.2022 42.1864 27.5501 42.1864 26.7457C42.1864 25.9412 41.5343 25.2891 40.7299 25.2891C39.9255 25.2891 39.2734 25.9412 39.2734 26.7457C39.2734 27.5501 39.9255 28.2022 40.7299 28.2022Z" fill="#C2DBFF"/>
<path d="M47.2748 28.2022C48.0792 28.2022 48.7313 27.5501 48.7313 26.7457C48.7313 25.9412 48.0792 25.2891 47.2748 25.2891C46.4704 25.2891 45.8184 25.9412 45.8184 26.7457C45.8184 27.5501 46.4704 28.2022 47.2748 28.2022Z" fill="#C2DBFF"/>
<path d="M53.8198 28.2022C54.6242 28.2022 55.2762 27.5501 55.2762 26.7457C55.2762 25.9412 54.6242 25.2891 53.8198 25.2891C53.0154 25.2891 52.3633 25.9412 52.3633 26.7457C52.3633 27.5501 53.0154 28.2022 53.8198 28.2022Z" fill="#C2DBFF"/>
<path d="M60.3627 28.2022C61.1671 28.2022 61.8192 27.5501 61.8192 26.7457C61.8192 25.9412 61.1671 25.2891 60.3627 25.2891C59.5583 25.2891 58.9062 25.9412 58.9062 26.7457C58.9062 27.5501 59.5583 28.2022 60.3627 28.2022Z" fill="#C2DBFF"/>
<path d="M66.9077 28.2022C67.712 28.2022 68.3641 27.5501 68.3641 26.7457C68.3641 25.9412 67.712 25.2891 66.9077 25.2891C66.1033 25.2891 65.4512 25.9412 65.4512 26.7457C65.4512 27.5501 66.1033 28.2022 66.9077 28.2022Z" fill="#C2DBFF"/>
<path d="M73.4526 28.2022C74.257 28.2022 74.9091 27.5501 74.9091 26.7457C74.9091 25.9412 74.257 25.2891 73.4526 25.2891C72.6482 25.2891 71.9961 25.9412 71.9961 26.7457C71.9961 27.5501 72.6482 28.2022 73.4526 28.2022Z" fill="#C2DBFF"/>
<path d="M79.9975 28.2022C80.8019 28.2022 81.454 27.5501 81.454 26.7457C81.454 25.9412 80.8019 25.2891 79.9975 25.2891C79.1931 25.2891 78.541 25.9412 78.541 26.7457C78.541 27.5501 79.1931 28.2022 79.9975 28.2022Z" fill="#C2DBFF"/>
<path d="M86.5444 28.2022C87.3488 28.2022 88.0009 27.5501 88.0009 26.7457C88.0009 25.9412 87.3488 25.2891 86.5444 25.2891C85.74 25.2891 85.0879 25.9412 85.0879 26.7457C85.0879 27.5501 85.74 28.2022 86.5444 28.2022Z" fill="#C2DBFF"/>
<path d="M93.0913 28.2022C93.8956 28.2022 94.5477 27.5501 94.5477 26.7457C94.5477 25.9412 93.8956 25.2891 93.0913 25.2891C92.2869 25.2891 91.6348 25.9412 91.6348 26.7457C91.6348 27.5501 92.2869 28.2022 93.0913 28.2022Z" fill="#C2DBFF"/>
<path d="M99.6362 28.2022C100.441 28.2022 101.093 27.5501 101.093 26.7457C101.093 25.9412 100.441 25.2891 99.6362 25.2891C98.8318 25.2891 98.1797 25.9412 98.1797 26.7457C98.1797 27.5501 98.8318 28.2022 99.6362 28.2022Z" fill="#C2DBFF"/>
<path d="M106.183 28.2022C106.987 28.2022 107.64 27.5501 107.64 26.7457C107.64 25.9412 106.987 25.2891 106.183 25.2891C105.379 25.2891 104.727 25.9412 104.727 26.7457C104.727 27.5501 105.379 28.2022 106.183 28.2022Z" fill="#C2DBFF"/>
<path d="M112.726 28.2022C113.53 28.2022 114.183 27.5501 114.183 26.7457C114.183 25.9412 113.53 25.2891 112.726 25.2891C111.922 25.2891 111.27 25.9412 111.27 26.7457C111.27 27.5501 111.922 28.2022 112.726 28.2022Z" fill="#C2DBFF"/>
<path d="M119.273 28.2022C120.077 28.2022 120.729 27.5501 120.729 26.7457C120.729 25.9412 120.077 25.2891 119.273 25.2891C118.468 25.2891 117.816 25.9412 117.816 26.7457C117.816 27.5501 118.468 28.2022 119.273 28.2022Z" fill="#C2DBFF"/>
<path d="M125.816 28.2022C126.62 28.2022 127.272 27.5501 127.272 26.7457C127.272 25.9412 126.62 25.2891 125.816 25.2891C125.011 25.2891 124.359 25.9412 124.359 26.7457C124.359 27.5501 125.011 28.2022 125.816 28.2022Z" fill="#C2DBFF"/>
<path d="M14.5463 34.5226C15.3507 34.5226 16.0028 33.8704 16.0028 33.066C16.0028 32.2615 15.3507 31.6094 14.5463 31.6094C13.7419 31.6094 13.0898 32.2615 13.0898 33.066C13.0898 33.8704 13.7419 34.5226 14.5463 34.5226Z" fill="#C2DBFF"/>
<path d="M21.0932 34.5226C21.8976 34.5226 22.5497 33.8704 22.5497 33.066C22.5497 32.2615 21.8976 31.6094 21.0932 31.6094C20.2888 31.6094 19.6367 32.2615 19.6367 33.066C19.6367 33.8704 20.2888 34.5226 21.0932 34.5226Z" fill="#C2DBFF"/>
<path d="M27.6381 34.5226C28.4425 34.5226 29.0946 33.8704 29.0946 33.066C29.0946 32.2615 28.4425 31.6094 27.6381 31.6094C26.8337 31.6094 26.1816 32.2615 26.1816 33.066C26.1816 33.8704 26.8337 34.5226 27.6381 34.5226Z" fill="#C2DBFF"/>
<path d="M34.183 34.5226C34.9874 34.5226 35.6395 33.8704 35.6395 33.066C35.6395 32.2615 34.9874 31.6094 34.183 31.6094C33.3787 31.6094 32.7266 32.2615 32.7266 33.066C32.7266 33.8704 33.3787 34.5226 34.183 34.5226Z" fill="#C2DBFF"/>
<path d="M40.7299 34.5226C41.5343 34.5226 42.1864 33.8704 42.1864 33.066C42.1864 32.2615 41.5343 31.6094 40.7299 31.6094C39.9255 31.6094 39.2734 32.2615 39.2734 33.066C39.2734 33.8704 39.9255 34.5226 40.7299 34.5226Z" fill="#C2DBFF"/>
<path d="M47.2748 34.5226C48.0792 34.5226 48.7313 33.8704 48.7313 33.066C48.7313 32.2615 48.0792 31.6094 47.2748 31.6094C46.4704 31.6094 45.8184 32.2615 45.8184 33.066C45.8184 33.8704 46.4704 34.5226 47.2748 34.5226Z" fill="#C2DBFF"/>
<path d="M53.8198 34.5226C54.6242 34.5226 55.2762 33.8704 55.2762 33.066C55.2762 32.2615 54.6242 31.6094 53.8198 31.6094C53.0154 31.6094 52.3633 32.2615 52.3633 33.066C52.3633 33.8704 53.0154 34.5226 53.8198 34.5226Z" fill="#C2DBFF"/>
<path d="M60.3627 34.5226C61.1671 34.5226 61.8192 33.8704 61.8192 33.066C61.8192 32.2615 61.1671 31.6094 60.3627 31.6094C59.5583 31.6094 58.9062 32.2615 58.9062 33.066C58.9062 33.8704 59.5583 34.5226 60.3627 34.5226Z" fill="#C2DBFF"/>
<path d="M66.9077 34.5226C67.712 34.5226 68.3641 33.8704 68.3641 33.066C68.3641 32.2615 67.712 31.6094 66.9077 31.6094C66.1033 31.6094 65.4512 32.2615 65.4512 33.066C65.4512 33.8704 66.1033 34.5226 66.9077 34.5226Z" fill="#C2DBFF"/>
<path d="M73.4526 34.5226C74.257 34.5226 74.9091 33.8704 74.9091 33.066C74.9091 32.2615 74.257 31.6094 73.4526 31.6094C72.6482 31.6094 71.9961 32.2615 71.9961 33.066C71.9961 33.8704 72.6482 34.5226 73.4526 34.5226Z" fill="#C2DBFF"/>
<path d="M79.9975 34.5226C80.8019 34.5226 81.454 33.8704 81.454 33.066C81.454 32.2615 80.8019 31.6094 79.9975 31.6094C79.1931 31.6094 78.541 32.2615 78.541 33.066C78.541 33.8704 79.1931 34.5226 79.9975 34.5226Z" fill="#C2DBFF"/>
<path d="M86.5444 34.5226C87.3488 34.5226 88.0009 33.8704 88.0009 33.066C88.0009 32.2615 87.3488 31.6094 86.5444 31.6094C85.74 31.6094 85.0879 32.2615 85.0879 33.066C85.0879 33.8704 85.74 34.5226 86.5444 34.5226Z" fill="#C2DBFF"/>
<path d="M93.0913 34.5226C93.8956 34.5226 94.5477 33.8704 94.5477 33.066C94.5477 32.2615 93.8956 31.6094 93.0913 31.6094C92.2869 31.6094 91.6348 32.2615 91.6348 33.066C91.6348 33.8704 92.2869 34.5226 93.0913 34.5226Z" fill="#C2DBFF"/>
<path d="M99.6362 34.5226C100.441 34.5226 101.093 33.8704 101.093 33.066C101.093 32.2615 100.441 31.6094 99.6362 31.6094C98.8318 31.6094 98.1797 32.2615 98.1797 33.066C98.1797 33.8704 98.8318 34.5226 99.6362 34.5226Z" fill="#C2DBFF"/>
<path d="M106.183 34.5226C106.987 34.5226 107.64 33.8704 107.64 33.066C107.64 32.2615 106.987 31.6094 106.183 31.6094C105.379 31.6094 104.727 32.2615 104.727 33.066C104.727 33.8704 105.379 34.5226 106.183 34.5226Z" fill="#C2DBFF"/>
<path d="M112.726 34.5226C113.53 34.5226 114.183 33.8704 114.183 33.066C114.183 32.2615 113.53 31.6094 112.726 31.6094C111.922 31.6094 111.27 32.2615 111.27 33.066C111.27 33.8704 111.922 34.5226 112.726 34.5226Z" fill="#C2DBFF"/>
<path d="M119.273 34.5226C120.077 34.5226 120.729 33.8704 120.729 33.066C120.729 32.2615 120.077 31.6094 119.273 31.6094C118.468 31.6094 117.816 32.2615 117.816 33.066C117.816 33.8704 118.468 34.5226 119.273 34.5226Z" fill="#C2DBFF"/>
<path d="M125.816 34.5226C126.62 34.5226 127.272 33.8704 127.272 33.066C127.272 32.2615 126.62 31.6094 125.816 31.6094C125.011 31.6094 124.359 32.2615 124.359 33.066C124.359 33.8704 125.011 34.5226 125.816 34.5226Z" fill="#C2DBFF"/>
<path d="M132.363 34.5226C133.167 34.5226 133.819 33.8704 133.819 33.066C133.819 32.2615 133.167 31.6094 132.363 31.6094C131.558 31.6094 130.906 32.2615 130.906 33.066C130.906 33.8704 131.558 34.5226 132.363 34.5226Z" fill="#C2DBFF"/>
<path d="M138.904 34.5226C139.708 34.5226 140.36 33.8704 140.36 33.066C140.36 32.2615 139.708 31.6094 138.904 31.6094C138.099 31.6094 137.447 32.2615 137.447 33.066C137.447 33.8704 138.099 34.5226 138.904 34.5226Z" fill="#C2DBFF"/>
<path d="M8.00141 40.839C8.8058 40.839 9.45789 40.1868 9.45789 39.3824C9.45789 38.5779 8.8058 37.9258 8.00141 37.9258C7.19701 37.9258 6.54492 38.5779 6.54492 39.3824C6.54492 40.1868 7.19701 40.839 8.00141 40.839Z" fill="#C2DBFF"/>
<path d="M14.5463 40.839C15.3507 40.839 16.0028 40.1868 16.0028 39.3824C16.0028 38.5779 15.3507 37.9258 14.5463 37.9258C13.7419 37.9258 13.0898 38.5779 13.0898 39.3824C13.0898 40.1868 13.7419 40.839 14.5463 40.839Z" fill="#C2DBFF"/>
<path d="M21.0932 40.839C21.8976 40.839 22.5497 40.1868 22.5497 39.3824C22.5497 38.5779 21.8976 37.9258 21.0932 37.9258C20.2888 37.9258 19.6367 38.5779 19.6367 39.3824C19.6367 40.1868 20.2888 40.839 21.0932 40.839Z" fill="#C2DBFF"/>
<path d="M27.6381 40.839C28.4425 40.839 29.0946 40.1868 29.0946 39.3824C29.0946 38.5779 28.4425 37.9258 27.6381 37.9258C26.8337 37.9258 26.1816 38.5779 26.1816 39.3824C26.1816 40.1868 26.8337 40.839 27.6381 40.839Z" fill="#C2DBFF"/>
<path d="M34.183 40.839C34.9874 40.839 35.6395 40.1868 35.6395 39.3824C35.6395 38.5779 34.9874 37.9258 34.183 37.9258C33.3787 37.9258 32.7266 38.5779 32.7266 39.3824C32.7266 40.1868 33.3787 40.839 34.183 40.839Z" fill="#C2DBFF"/>
<path d="M40.7299 40.839C41.5343 40.839 42.1864 40.1868 42.1864 39.3824C42.1864 38.5779 41.5343 37.9258 40.7299 37.9258C39.9255 37.9258 39.2734 38.5779 39.2734 39.3824C39.2734 40.1868 39.9255 40.839 40.7299 40.839Z" fill="#C2DBFF"/>
<path d="M47.2748 40.839C48.0792 40.839 48.7313 40.1868 48.7313 39.3824C48.7313 38.5779 48.0792 37.9258 47.2748 37.9258C46.4704 37.9258 45.8184 38.5779 45.8184 39.3824C45.8184 40.1868 46.4704 40.839 47.2748 40.839Z" fill="#C2DBFF"/>
<path d="M53.8198 40.839C54.6242 40.839 55.2762 40.1868 55.2762 39.3824C55.2762 38.5779 54.6242 37.9258 53.8198 37.9258C53.0154 37.9258 52.3633 38.5779 52.3633 39.3824C52.3633 40.1868 53.0154 40.839 53.8198 40.839Z" fill="#C2DBFF"/>
<path d="M60.3627 40.839C61.1671 40.839 61.8192 40.1868 61.8192 39.3824C61.8192 38.5779 61.1671 37.9258 60.3627 37.9258C59.5583 37.9258 58.9062 38.5779 58.9062 39.3824C58.9062 40.1868 59.5583 40.839 60.3627 40.839Z" fill="#C2DBFF"/>
<path d="M66.9077 40.839C67.712 40.839 68.3641 40.1868 68.3641 39.3824C68.3641 38.5779 67.712 37.9258 66.9077 37.9258C66.1033 37.9258 65.4512 38.5779 65.4512 39.3824C65.4512 40.1868 66.1033 40.839 66.9077 40.839Z" fill="#C2DBFF"/>
<path d="M73.4526 40.839C74.257 40.839 74.9091 40.1868 74.9091 39.3824C74.9091 38.5779 74.257 37.9258 73.4526 37.9258C72.6482 37.9258 71.9961 38.5779 71.9961 39.3824C71.9961 40.1868 72.6482 40.839 73.4526 40.839Z" fill="#C2DBFF"/>
<path d="M79.9975 40.839C80.8019 40.839 81.454 40.1868 81.454 39.3824C81.454 38.5779 80.8019 37.9258 79.9975 37.9258C79.1931 37.9258 78.541 38.5779 78.541 39.3824C78.541 40.1868 79.1931 40.839 79.9975 40.839Z" fill="#C2DBFF"/>
<path d="M86.5444 40.839C87.3488 40.839 88.0009 40.1868 88.0009 39.3824C88.0009 38.5779 87.3488 37.9258 86.5444 37.9258C85.74 37.9258 85.0879 38.5779 85.0879 39.3824C85.0879 40.1868 85.74 40.839 86.5444 40.839Z" fill="#C2DBFF"/>
<path d="M93.0913 40.839C93.8956 40.839 94.5477 40.1868 94.5477 39.3824C94.5477 38.5779 93.8956 37.9258 93.0913 37.9258C92.2869 37.9258 91.6348 38.5779 91.6348 39.3824C91.6348 40.1868 92.2869 40.839 93.0913 40.839Z" fill="#C2DBFF"/>
<path d="M99.6362 40.839C100.441 40.839 101.093 40.1868 101.093 39.3824C101.093 38.5779 100.441 37.9258 99.6362 37.9258C98.8318 37.9258 98.1797 38.5779 98.1797 39.3824C98.1797 40.1868 98.8318 40.839 99.6362 40.839Z" fill="#C2DBFF"/>
<path d="M106.183 40.839C106.987 40.839 107.64 40.1868 107.64 39.3824C107.64 38.5779 106.987 37.9258 106.183 37.9258C105.379 37.9258 104.727 38.5779 104.727 39.3824C104.727 40.1868 105.379 40.839 106.183 40.839Z" fill="#C2DBFF"/>
<path d="M112.726 40.839C113.53 40.839 114.183 40.1868 114.183 39.3824C114.183 38.5779 113.53 37.9258 112.726 37.9258C111.922 37.9258 111.27 38.5779 111.27 39.3824C111.27 40.1868 111.922 40.839 112.726 40.839Z" fill="#C2DBFF"/>
<path d="M119.273 40.839C120.077 40.839 120.729 40.1868 120.729 39.3824C120.729 38.5779 120.077 37.9258 119.273 37.9258C118.468 37.9258 117.816 38.5779 117.816 39.3824C117.816 40.1868 118.468 40.839 119.273 40.839Z" fill="#C2DBFF"/>
<path d="M125.816 40.839C126.62 40.839 127.272 40.1868 127.272 39.3824C127.272 38.5779 126.62 37.9258 125.816 37.9258C125.011 37.9258 124.359 38.5779 124.359 39.3824C124.359 40.1868 125.011 40.839 125.816 40.839Z" fill="#C2DBFF"/>
<path d="M132.363 40.839C133.167 40.839 133.819 40.1868 133.819 39.3824C133.819 38.5779 133.167 37.9258 132.363 37.9258C131.558 37.9258 130.906 38.5779 130.906 39.3824C130.906 40.1868 131.558 40.839 132.363 40.839Z" fill="#C2DBFF"/>
<path d="M138.904 40.839C139.708 40.839 140.36 40.1868 140.36 39.3824C140.36 38.5779 139.708 37.9258 138.904 37.9258C138.099 37.9258 137.447 38.5779 137.447 39.3824C137.447 40.1868 138.099 40.839 138.904 40.839Z" fill="#C2DBFF"/>
<path d="M145.453 40.839C146.257 40.839 146.909 40.1868 146.909 39.3824C146.909 38.5779 146.257 37.9258 145.453 37.9258C144.648 37.9258 143.996 38.5779 143.996 39.3824C143.996 40.1868 144.648 40.839 145.453 40.839Z" fill="#C2DBFF"/>
<path d="M1.45649 47.1632C2.26088 47.1632 2.91297 46.511 2.91297 45.7066C2.91297 44.9021 2.26088 44.25 1.45649 44.25C0.652091 44.25 0 44.9021 0 45.7066C0 46.511 0.652091 47.1632 1.45649 47.1632Z" fill="#C2DBFF"/>
<path d="M8.00141 47.1632C8.8058 47.1632 9.45789 46.511 9.45789 45.7066C9.45789 44.9021 8.8058 44.25 8.00141 44.25C7.19701 44.25 6.54492 44.9021 6.54492 45.7066C6.54492 46.511 7.19701 47.1632 8.00141 47.1632Z" fill="#C2DBFF"/>
<path d="M14.5463 47.1632C15.3507 47.1632 16.0028 46.511 16.0028 45.7066C16.0028 44.9021 15.3507 44.25 14.5463 44.25C13.7419 44.25 13.0898 44.9021 13.0898 45.7066C13.0898 46.511 13.7419 47.1632 14.5463 47.1632Z" fill="#C2DBFF"/>
<path d="M21.0932 47.1632C21.8976 47.1632 22.5497 46.511 22.5497 45.7066C22.5497 44.9021 21.8976 44.25 21.0932 44.25C20.2888 44.25 19.6367 44.9021 19.6367 45.7066C19.6367 46.511 20.2888 47.1632 21.0932 47.1632Z" fill="#C2DBFF"/>
<path d="M27.6381 47.1632C28.4425 47.1632 29.0946 46.511 29.0946 45.7066C29.0946 44.9021 28.4425 44.25 27.6381 44.25C26.8337 44.25 26.1816 44.9021 26.1816 45.7066C26.1816 46.511 26.8337 47.1632 27.6381 47.1632Z" fill="#C2DBFF"/>
<path d="M34.183 47.1632C34.9874 47.1632 35.6395 46.511 35.6395 45.7066C35.6395 44.9021 34.9874 44.25 34.183 44.25C33.3787 44.25 32.7266 44.9021 32.7266 45.7066C32.7266 46.511 33.3787 47.1632 34.183 47.1632Z" fill="#C2DBFF"/>
<path d="M40.7299 47.1632C41.5343 47.1632 42.1864 46.511 42.1864 45.7066C42.1864 44.9021 41.5343 44.25 40.7299 44.25C39.9255 44.25 39.2734 44.9021 39.2734 45.7066C39.2734 46.511 39.9255 47.1632 40.7299 47.1632Z" fill="#C2DBFF"/>
<path d="M47.2748 47.1632C48.0792 47.1632 48.7313 46.511 48.7313 45.7066C48.7313 44.9021 48.0792 44.25 47.2748 44.25C46.4704 44.25 45.8184 44.9021 45.8184 45.7066C45.8184 46.511 46.4704 47.1632 47.2748 47.1632Z" fill="#C2DBFF"/>
<path d="M53.8198 47.1632C54.6242 47.1632 55.2762 46.511 55.2762 45.7066C55.2762 44.9021 54.6242 44.25 53.8198 44.25C53.0154 44.25 52.3633 44.9021 52.3633 45.7066C52.3633 46.511 53.0154 47.1632 53.8198 47.1632Z" fill="#C2DBFF"/>
<path d="M60.3627 47.1632C61.1671 47.1632 61.8192 46.511 61.8192 45.7066C61.8192 44.9021 61.1671 44.25 60.3627 44.25C59.5583 44.25 58.9062 44.9021 58.9062 45.7066C58.9062 46.511 59.5583 47.1632 60.3627 47.1632Z" fill="#C2DBFF"/>
<path d="M66.9077 47.1632C67.712 47.1632 68.3641 46.511 68.3641 45.7066C68.3641 44.9021 67.712 44.25 66.9077 44.25C66.1033 44.25 65.4512 44.9021 65.4512 45.7066C65.4512 46.511 66.1033 47.1632 66.9077 47.1632Z" fill="#C2DBFF"/>
<path d="M73.4526 47.1632C74.257 47.1632 74.9091 46.511 74.9091 45.7066C74.9091 44.9021 74.257 44.25 73.4526 44.25C72.6482 44.25 71.9961 44.9021 71.9961 45.7066C71.9961 46.511 72.6482 47.1632 73.4526 47.1632Z" fill="#C2DBFF"/>
<path d="M79.9975 47.1632C80.8019 47.1632 81.454 46.511 81.454 45.7066C81.454 44.9021 80.8019 44.25 79.9975 44.25C79.1931 44.25 78.541 44.9021 78.541 45.7066C78.541 46.511 79.1931 47.1632 79.9975 47.1632Z" fill="#C2DBFF"/>
<path d="M86.5444 47.1632C87.3488 47.1632 88.0009 46.511 88.0009 45.7066C88.0009 44.9021 87.3488 44.25 86.5444 44.25C85.74 44.25 85.0879 44.9021 85.0879 45.7066C85.0879 46.511 85.74 47.1632 86.5444 47.1632Z" fill="#C2DBFF"/>
<path d="M93.0913 47.1632C93.8956 47.1632 94.5477 46.511 94.5477 45.7066C94.5477 44.9021 93.8956 44.25 93.0913 44.25C92.2869 44.25 91.6348 44.9021 91.6348 45.7066C91.6348 46.511 92.2869 47.1632 93.0913 47.1632Z" fill="#C2DBFF"/>
<path d="M99.6362 47.1632C100.441 47.1632 101.093 46.511 101.093 45.7066C101.093 44.9021 100.441 44.25 99.6362 44.25C98.8318 44.25 98.1797 44.9021 98.1797 45.7066C98.1797 46.511 98.8318 47.1632 99.6362 47.1632Z" fill="#C2DBFF"/>
<path d="M106.183 47.1632C106.987 47.1632 107.64 46.511 107.64 45.7066C107.64 44.9021 106.987 44.25 106.183 44.25C105.379 44.25 104.727 44.9021 104.727 45.7066C104.727 46.511 105.379 47.1632 106.183 47.1632Z" fill="#C2DBFF"/>
<path d="M112.726 47.1632C113.53 47.1632 114.183 46.511 114.183 45.7066C114.183 44.9021 113.53 44.25 112.726 44.25C111.922 44.25 111.27 44.9021 111.27 45.7066C111.27 46.511 111.922 47.1632 112.726 47.1632Z" fill="#C2DBFF"/>
<path d="M119.273 47.1632C120.077 47.1632 120.729 46.511 120.729 45.7066C120.729 44.9021 120.077 44.25 119.273 44.25C118.468 44.25 117.816 44.9021 117.816 45.7066C117.816 46.511 118.468 47.1632 119.273 47.1632Z" fill="#C2DBFF"/>
<path d="M125.816 47.1632C126.62 47.1632 127.272 46.511 127.272 45.7066C127.272 44.9021 126.62 44.25 125.816 44.25C125.011 44.25 124.359 44.9021 124.359 45.7066C124.359 46.511 125.011 47.1632 125.816 47.1632Z" fill="#C2DBFF"/>
<path d="M132.363 47.1632C133.167 47.1632 133.819 46.511 133.819 45.7066C133.819 44.9021 133.167 44.25 132.363 44.25C131.558 44.25 130.906 44.9021 130.906 45.7066C130.906 46.511 131.558 47.1632 132.363 47.1632Z" fill="#C2DBFF"/>
<path d="M138.904 47.1632C139.708 47.1632 140.36 46.511 140.36 45.7066C140.36 44.9021 139.708 44.25 138.904 44.25C138.099 44.25 137.447 44.9021 137.447 45.7066C137.447 46.511 138.099 47.1632 138.904 47.1632Z" fill="#C2DBFF"/>
<path d="M145.453 47.1632C146.257 47.1632 146.909 46.511 146.909 45.7066C146.909 44.9021 146.257 44.25 145.453 44.25C144.648 44.25 143.996 44.9021 143.996 45.7066C143.996 46.511 144.648 47.1632 145.453 47.1632Z" fill="#C2DBFF"/>
<path d="M151.999 47.1632C152.804 47.1632 153.456 46.511 153.456 45.7066C153.456 44.9021 152.804 44.25 151.999 44.25C151.195 44.25 150.543 44.9021 150.543 45.7066C150.543 46.511 151.195 47.1632 151.999 47.1632Z" fill="#C2DBFF"/>
<path d="M1.45649 53.4874C2.26088 53.4874 2.91297 52.8353 2.91297 52.0308C2.91297 51.2264 2.26088 50.5742 1.45649 50.5742C0.652091 50.5742 0 51.2264 0 52.0308C0 52.8353 0.652091 53.4874 1.45649 53.4874Z" fill="#C2DBFF"/>
<path d="M8.00141 53.4874C8.8058 53.4874 9.45789 52.8353 9.45789 52.0308C9.45789 51.2264 8.8058 50.5742 8.00141 50.5742C7.19701 50.5742 6.54492 51.2264 6.54492 52.0308C6.54492 52.8353 7.19701 53.4874 8.00141 53.4874Z" fill="#C2DBFF"/>
<path d="M14.5463 53.4874C15.3507 53.4874 16.0028 52.8353 16.0028 52.0308C16.0028 51.2264 15.3507 50.5742 14.5463 50.5742C13.7419 50.5742 13.0898 51.2264 13.0898 52.0308C13.0898 52.8353 13.7419 53.4874 14.5463 53.4874Z" fill="#C2DBFF"/>
<path d="M21.0932 53.4874C21.8976 53.4874 22.5497 52.8353 22.5497 52.0308C22.5497 51.2264 21.8976 50.5742 21.0932 50.5742C20.2888 50.5742 19.6367 51.2264 19.6367 52.0308C19.6367 52.8353 20.2888 53.4874 21.0932 53.4874Z" fill="#C2DBFF"/>
<path d="M27.6381 53.4874C28.4425 53.4874 29.0946 52.8353 29.0946 52.0308C29.0946 51.2264 28.4425 50.5742 27.6381 50.5742C26.8337 50.5742 26.1816 51.2264 26.1816 52.0308C26.1816 52.8353 26.8337 53.4874 27.6381 53.4874Z" fill="#C2DBFF"/>
<path d="M34.183 53.4874C34.9874 53.4874 35.6395 52.8353 35.6395 52.0308C35.6395 51.2264 34.9874 50.5742 34.183 50.5742C33.3787 50.5742 32.7266 51.2264 32.7266 52.0308C32.7266 52.8353 33.3787 53.4874 34.183 53.4874Z" fill="#C2DBFF"/>
<path d="M40.7299 53.4874C41.5343 53.4874 42.1864 52.8353 42.1864 52.0308C42.1864 51.2264 41.5343 50.5742 40.7299 50.5742C39.9255 50.5742 39.2734 51.2264 39.2734 52.0308C39.2734 52.8353 39.9255 53.4874 40.7299 53.4874Z" fill="#C2DBFF"/>
<path d="M47.2748 53.4874C48.0792 53.4874 48.7313 52.8353 48.7313 52.0308C48.7313 51.2264 48.0792 50.5742 47.2748 50.5742C46.4704 50.5742 45.8184 51.2264 45.8184 52.0308C45.8184 52.8353 46.4704 53.4874 47.2748 53.4874Z" fill="#C2DBFF"/>
<path d="M53.8198 53.4874C54.6242 53.4874 55.2762 52.8353 55.2762 52.0308C55.2762 51.2264 54.6242 50.5742 53.8198 50.5742C53.0154 50.5742 52.3633 51.2264 52.3633 52.0308C52.3633 52.8353 53.0154 53.4874 53.8198 53.4874Z" fill="#C2DBFF"/>
<path d="M60.3627 53.4874C61.1671 53.4874 61.8192 52.8353 61.8192 52.0308C61.8192 51.2264 61.1671 50.5742 60.3627 50.5742C59.5583 50.5742 58.9062 51.2264 58.9062 52.0308C58.9062 52.8353 59.5583 53.4874 60.3627 53.4874Z" fill="#C2DBFF"/>
<path d="M66.9077 53.4874C67.712 53.4874 68.3641 52.8353 68.3641 52.0308C68.3641 51.2264 67.712 50.5742 66.9077 50.5742C66.1033 50.5742 65.4512 51.2264 65.4512 52.0308C65.4512 52.8353 66.1033 53.4874 66.9077 53.4874Z" fill="#C2DBFF"/>
<path d="M73.4526 53.4874C74.257 53.4874 74.9091 52.8353 74.9091 52.0308C74.9091 51.2264 74.257 50.5742 73.4526 50.5742C72.6482 50.5742 71.9961 51.2264 71.9961 52.0308C71.9961 52.8353 72.6482 53.4874 73.4526 53.4874Z" fill="#C2DBFF"/>
<path d="M79.9975 53.4874C80.8019 53.4874 81.454 52.8353 81.454 52.0308C81.454 51.2264 80.8019 50.5742 79.9975 50.5742C79.1931 50.5742 78.541 51.2264 78.541 52.0308C78.541 52.8353 79.1931 53.4874 79.9975 53.4874Z" fill="#C2DBFF"/>
<path d="M86.5444 53.4874C87.3488 53.4874 88.0009 52.8353 88.0009 52.0308C88.0009 51.2264 87.3488 50.5742 86.5444 50.5742C85.74 50.5742 85.0879 51.2264 85.0879 52.0308C85.0879 52.8353 85.74 53.4874 86.5444 53.4874Z" fill="#C2DBFF"/>
<path d="M93.0913 53.4874C93.8956 53.4874 94.5477 52.8353 94.5477 52.0308C94.5477 51.2264 93.8956 50.5742 93.0913 50.5742C92.2869 50.5742 91.6348 51.2264 91.6348 52.0308C91.6348 52.8353 92.2869 53.4874 93.0913 53.4874Z" fill="#C2DBFF"/>
<path d="M99.6362 53.4874C100.441 53.4874 101.093 52.8353 101.093 52.0308C101.093 51.2264 100.441 50.5742 99.6362 50.5742C98.8318 50.5742 98.1797 51.2264 98.1797 52.0308C98.1797 52.8353 98.8318 53.4874 99.6362 53.4874Z" fill="#C2DBFF"/>
<path d="M106.183 53.4874C106.987 53.4874 107.64 52.8353 107.64 52.0308C107.64 51.2264 106.987 50.5742 106.183 50.5742C105.379 50.5742 104.727 51.2264 104.727 52.0308C104.727 52.8353 105.379 53.4874 106.183 53.4874Z" fill="#C2DBFF"/>
<path d="M112.726 53.4874C113.53 53.4874 114.183 52.8353 114.183 52.0308C114.183 51.2264 113.53 50.5742 112.726 50.5742C111.922 50.5742 111.27 51.2264 111.27 52.0308C111.27 52.8353 111.922 53.4874 112.726 53.4874Z" fill="#C2DBFF"/>
<path d="M119.273 53.4874C120.077 53.4874 120.729 52.8353 120.729 52.0308C120.729 51.2264 120.077 50.5742 119.273 50.5742C118.468 50.5742 117.816 51.2264 117.816 52.0308C117.816 52.8353 118.468 53.4874 119.273 53.4874Z" fill="#C2DBFF"/>
<path d="M125.816 53.4874C126.62 53.4874 127.272 52.8353 127.272 52.0308C127.272 51.2264 126.62 50.5742 125.816 50.5742C125.011 50.5742 124.359 51.2264 124.359 52.0308C124.359 52.8353 125.011 53.4874 125.816 53.4874Z" fill="#C2DBFF"/>
<path d="M132.363 53.4874C133.167 53.4874 133.819 52.8353 133.819 52.0308C133.819 51.2264 133.167 50.5742 132.363 50.5742C131.558 50.5742 130.906 51.2264 130.906 52.0308C130.906 52.8353 131.558 53.4874 132.363 53.4874Z" fill="#C2DBFF"/>
<path d="M138.904 53.4874C139.708 53.4874 140.36 52.8353 140.36 52.0308C140.36 51.2264 139.708 50.5742 138.904 50.5742C138.099 50.5742 137.447 51.2264 137.447 52.0308C137.447 52.8353 138.099 53.4874 138.904 53.4874Z" fill="#C2DBFF"/>
<path d="M145.453 53.4874C146.257 53.4874 146.909 52.8353 146.909 52.0308C146.909 51.2264 146.257 50.5742 145.453 50.5742C144.648 50.5742 143.996 51.2264 143.996 52.0308C143.996 52.8353 144.648 53.4874 145.453 53.4874Z" fill="#C2DBFF"/>
<path d="M151.999 53.4874C152.804 53.4874 153.456 52.8353 153.456 52.0308C153.456 51.2264 152.804 50.5742 151.999 50.5742C151.195 50.5742 150.543 51.2264 150.543 52.0308C150.543 52.8353 151.195 53.4874 151.999 53.4874Z" fill="#C2DBFF"/>
<path d="M158.542 53.4874C159.347 53.4874 159.999 52.8353 159.999 52.0308C159.999 51.2264 159.347 50.5742 158.542 50.5742C157.738 50.5742 157.086 51.2264 157.086 52.0308C157.086 52.8353 157.738 53.4874 158.542 53.4874Z" fill="#C2DBFF"/>
<path d="M1.45649 59.8038C2.26088 59.8038 2.91297 59.1517 2.91297 58.3472C2.91297 57.5428 2.26088 56.8906 1.45649 56.8906C0.652091 56.8906 0 57.5428 0 58.3472C0 59.1517 0.652091 59.8038 1.45649 59.8038Z" fill="#C2DBFF"/>
<path d="M8.00141 59.8038C8.8058 59.8038 9.45789 59.1517 9.45789 58.3472C9.45789 57.5428 8.8058 56.8906 8.00141 56.8906C7.19701 56.8906 6.54492 57.5428 6.54492 58.3472C6.54492 59.1517 7.19701 59.8038 8.00141 59.8038Z" fill="#C2DBFF"/>
<path d="M14.5463 59.8038C15.3507 59.8038 16.0028 59.1517 16.0028 58.3472C16.0028 57.5428 15.3507 56.8906 14.5463 56.8906C13.7419 56.8906 13.0898 57.5428 13.0898 58.3472C13.0898 59.1517 13.7419 59.8038 14.5463 59.8038Z" fill="#C2DBFF"/>
<path d="M21.0932 59.8038C21.8976 59.8038 22.5497 59.1517 22.5497 58.3472C22.5497 57.5428 21.8976 56.8906 21.0932 56.8906C20.2888 56.8906 19.6367 57.5428 19.6367 58.3472C19.6367 59.1517 20.2888 59.8038 21.0932 59.8038Z" fill="#C2DBFF"/>
<path d="M27.6381 59.8038C28.4425 59.8038 29.0946 59.1517 29.0946 58.3472C29.0946 57.5428 28.4425 56.8906 27.6381 56.8906C26.8337 56.8906 26.1816 57.5428 26.1816 58.3472C26.1816 59.1517 26.8337 59.8038 27.6381 59.8038Z" fill="#C2DBFF"/>
<path d="M34.183 59.8038C34.9874 59.8038 35.6395 59.1517 35.6395 58.3472C35.6395 57.5428 34.9874 56.8906 34.183 56.8906C33.3787 56.8906 32.7266 57.5428 32.7266 58.3472C32.7266 59.1517 33.3787 59.8038 34.183 59.8038Z" fill="#C2DBFF"/>
<path d="M40.7299 59.8038C41.5343 59.8038 42.1864 59.1517 42.1864 58.3472C42.1864 57.5428 41.5343 56.8906 40.7299 56.8906C39.9255 56.8906 39.2734 57.5428 39.2734 58.3472C39.2734 59.1517 39.9255 59.8038 40.7299 59.8038Z" fill="#C2DBFF"/>
<path d="M47.2748 59.8038C48.0792 59.8038 48.7313 59.1517 48.7313 58.3472C48.7313 57.5428 48.0792 56.8906 47.2748 56.8906C46.4704 56.8906 45.8184 57.5428 45.8184 58.3472C45.8184 59.1517 46.4704 59.8038 47.2748 59.8038Z" fill="#C2DBFF"/>
<path d="M53.8198 59.8038C54.6242 59.8038 55.2762 59.1517 55.2762 58.3472C55.2762 57.5428 54.6242 56.8906 53.8198 56.8906C53.0154 56.8906 52.3633 57.5428 52.3633 58.3472C52.3633 59.1517 53.0154 59.8038 53.8198 59.8038Z" fill="#C2DBFF"/>
<path d="M60.3627 59.8038C61.1671 59.8038 61.8192 59.1517 61.8192 58.3472C61.8192 57.5428 61.1671 56.8906 60.3627 56.8906C59.5583 56.8906 58.9062 57.5428 58.9062 58.3472C58.9062 59.1517 59.5583 59.8038 60.3627 59.8038Z" fill="#C2DBFF"/>
<path d="M66.9077 59.8038C67.712 59.8038 68.3641 59.1517 68.3641 58.3472C68.3641 57.5428 67.712 56.8906 66.9077 56.8906C66.1033 56.8906 65.4512 57.5428 65.4512 58.3472C65.4512 59.1517 66.1033 59.8038 66.9077 59.8038Z" fill="#C2DBFF"/>
<path d="M73.4526 59.8038C74.257 59.8038 74.9091 59.1517 74.9091 58.3472C74.9091 57.5428 74.257 56.8906 73.4526 56.8906C72.6482 56.8906 71.9961 57.5428 71.9961 58.3472C71.9961 59.1517 72.6482 59.8038 73.4526 59.8038Z" fill="#C2DBFF"/>
<path d="M79.9975 59.8038C80.8019 59.8038 81.454 59.1517 81.454 58.3472C81.454 57.5428 80.8019 56.8906 79.9975 56.8906C79.1931 56.8906 78.541 57.5428 78.541 58.3472C78.541 59.1517 79.1931 59.8038 79.9975 59.8038Z" fill="#C2DBFF"/>
<path d="M86.5444 59.8038C87.3488 59.8038 88.0009 59.1517 88.0009 58.3472C88.0009 57.5428 87.3488 56.8906 86.5444 56.8906C85.74 56.8906 85.0879 57.5428 85.0879 58.3472C85.0879 59.1517 85.74 59.8038 86.5444 59.8038Z" fill="#C2DBFF"/>
<path d="M93.0913 59.8038C93.8956 59.8038 94.5477 59.1517 94.5477 58.3472C94.5477 57.5428 93.8956 56.8906 93.0913 56.8906C92.2869 56.8906 91.6348 57.5428 91.6348 58.3472C91.6348 59.1517 92.2869 59.8038 93.0913 59.8038Z" fill="#C2DBFF"/>
<path d="M99.6362 59.8038C100.441 59.8038 101.093 59.1517 101.093 58.3472C101.093 57.5428 100.441 56.8906 99.6362 56.8906C98.8318 56.8906 98.1797 57.5428 98.1797 58.3472C98.1797 59.1517 98.8318 59.8038 99.6362 59.8038Z" fill="#C2DBFF"/>
<path d="M106.183 59.8038C106.987 59.8038 107.64 59.1517 107.64 58.3472C107.64 57.5428 106.987 56.8906 106.183 56.8906C105.379 56.8906 104.727 57.5428 104.727 58.3472C104.727 59.1517 105.379 59.8038 106.183 59.8038Z" fill="#C2DBFF"/>
<path d="M112.726 59.8038C113.53 59.8038 114.183 59.1517 114.183 58.3472C114.183 57.5428 113.53 56.8906 112.726 56.8906C111.922 56.8906 111.27 57.5428 111.27 58.3472C111.27 59.1517 111.922 59.8038 112.726 59.8038Z" fill="#C2DBFF"/>
<path d="M119.273 59.8038C120.077 59.8038 120.729 59.1517 120.729 58.3472C120.729 57.5428 120.077 56.8906 119.273 56.8906C118.468 56.8906 117.816 57.5428 117.816 58.3472C117.816 59.1517 118.468 59.8038 119.273 59.8038Z" fill="#C2DBFF"/>
<path d="M125.816 59.8038C126.62 59.8038 127.272 59.1517 127.272 58.3472C127.272 57.5428 126.62 56.8906 125.816 56.8906C125.011 56.8906 124.359 57.5428 124.359 58.3472C124.359 59.1517 125.011 59.8038 125.816 59.8038Z" fill="#C2DBFF"/>
<path d="M132.363 59.8038C133.167 59.8038 133.819 59.1517 133.819 58.3472C133.819 57.5428 133.167 56.8906 132.363 56.8906C131.558 56.8906 130.906 57.5428 130.906 58.3472C130.906 59.1517 131.558 59.8038 132.363 59.8038Z" fill="#C2DBFF"/>
<path d="M138.904 59.8038C139.708 59.8038 140.36 59.1517 140.36 58.3472C140.36 57.5428 139.708 56.8906 138.904 56.8906C138.099 56.8906 137.447 57.5428 137.447 58.3472C137.447 59.1517 138.099 59.8038 138.904 59.8038Z" fill="#C2DBFF"/>
<path d="M145.453 59.8038C146.257 59.8038 146.909 59.1517 146.909 58.3472C146.909 57.5428 146.257 56.8906 145.453 56.8906C144.648 56.8906 143.996 57.5428 143.996 58.3472C143.996 59.1517 144.648 59.8038 145.453 59.8038Z" fill="#C2DBFF"/>
<path d="M151.999 59.8038C152.804 59.8038 153.456 59.1517 153.456 58.3472C153.456 57.5428 152.804 56.8906 151.999 56.8906C151.195 56.8906 150.543 57.5428 150.543 58.3472C150.543 59.1517 151.195 59.8038 151.999 59.8038Z" fill="#C2DBFF"/>
<path d="M158.542 59.8038C159.347 59.8038 159.999 59.1517 159.999 58.3472C159.999 57.5428 159.347 56.8906 158.542 56.8906C157.738 56.8906 157.086 57.5428 157.086 58.3472C157.086 59.1517 157.738 59.8038 158.542 59.8038Z" fill="#C2DBFF"/>
<path d="M14.5463 66.128C15.3507 66.128 16.0028 65.4759 16.0028 64.6714C16.0028 63.867 15.3507 63.2148 14.5463 63.2148C13.7419 63.2148 13.0898 63.867 13.0898 64.6714C13.0898 65.4759 13.7419 66.128 14.5463 66.128Z" fill="#C2DBFF"/>
<path d="M21.0932 66.128C21.8976 66.128 22.5497 65.4759 22.5497 64.6714C22.5497 63.867 21.8976 63.2148 21.0932 63.2148C20.2888 63.2148 19.6367 63.867 19.6367 64.6714C19.6367 65.4759 20.2888 66.128 21.0932 66.128Z" fill="#C2DBFF"/>
<path d="M27.6381 66.128C28.4425 66.128 29.0946 65.4759 29.0946 64.6714C29.0946 63.867 28.4425 63.2148 27.6381 63.2148C26.8337 63.2148 26.1816 63.867 26.1816 64.6714C26.1816 65.4759 26.8337 66.128 27.6381 66.128Z" fill="#C2DBFF"/>
<path d="M34.183 66.128C34.9874 66.128 35.6395 65.4759 35.6395 64.6714C35.6395 63.867 34.9874 63.2148 34.183 63.2148C33.3787 63.2148 32.7266 63.867 32.7266 64.6714C32.7266 65.4759 33.3787 66.128 34.183 66.128Z" fill="#C2DBFF"/>
<path d="M40.7299 66.128C41.5343 66.128 42.1864 65.4759 42.1864 64.6714C42.1864 63.867 41.5343 63.2148 40.7299 63.2148C39.9255 63.2148 39.2734 63.867 39.2734 64.6714C39.2734 65.4759 39.9255 66.128 40.7299 66.128Z" fill="#C2DBFF"/>
<path d="M47.2748 66.128C48.0792 66.128 48.7313 65.4759 48.7313 64.6714C48.7313 63.867 48.0792 63.2148 47.2748 63.2148C46.4704 63.2148 45.8184 63.867 45.8184 64.6714C45.8184 65.4759 46.4704 66.128 47.2748 66.128Z" fill="#C2DBFF"/>
<path d="M53.8198 66.128C54.6242 66.128 55.2762 65.4759 55.2762 64.6714C55.2762 63.867 54.6242 63.2148 53.8198 63.2148C53.0154 63.2148 52.3633 63.867 52.3633 64.6714C52.3633 65.4759 53.0154 66.128 53.8198 66.128Z" fill="#C2DBFF"/>
<path d="M60.3627 66.128C61.1671 66.128 61.8192 65.4759 61.8192 64.6714C61.8192 63.867 61.1671 63.2148 60.3627 63.2148C59.5583 63.2148 58.9062 63.867 58.9062 64.6714C58.9062 65.4759 59.5583 66.128 60.3627 66.128Z" fill="#C2DBFF"/>
<path d="M66.9077 66.128C67.712 66.128 68.3641 65.4759 68.3641 64.6714C68.3641 63.867 67.712 63.2148 66.9077 63.2148C66.1033 63.2148 65.4512 63.867 65.4512 64.6714C65.4512 65.4759 66.1033 66.128 66.9077 66.128Z" fill="#C2DBFF"/>
<path d="M73.4526 66.128C74.257 66.128 74.9091 65.4759 74.9091 64.6714C74.9091 63.867 74.257 63.2148 73.4526 63.2148C72.6482 63.2148 71.9961 63.867 71.9961 64.6714C71.9961 65.4759 72.6482 66.128 73.4526 66.128Z" fill="#C2DBFF"/>
<path d="M79.9975 66.128C80.8019 66.128 81.454 65.4759 81.454 64.6714C81.454 63.867 80.8019 63.2148 79.9975 63.2148C79.1931 63.2148 78.541 63.867 78.541 64.6714C78.541 65.4759 79.1931 66.128 79.9975 66.128Z" fill="#C2DBFF"/>
<path d="M86.5444 66.128C87.3488 66.128 88.0009 65.4759 88.0009 64.6714C88.0009 63.867 87.3488 63.2148 86.5444 63.2148C85.74 63.2148 85.0879 63.867 85.0879 64.6714C85.0879 65.4759 85.74 66.128 86.5444 66.128Z" fill="#C2DBFF"/>
<path d="M93.0913 66.128C93.8956 66.128 94.5477 65.4759 94.5477 64.6714C94.5477 63.867 93.8956 63.2148 93.0913 63.2148C92.2869 63.2148 91.6348 63.867 91.6348 64.6714C91.6348 65.4759 92.2869 66.128 93.0913 66.128Z" fill="#C2DBFF"/>
<path d="M99.6362 66.128C100.441 66.128 101.093 65.4759 101.093 64.6714C101.093 63.867 100.441 63.2148 99.6362 63.2148C98.8318 63.2148 98.1797 63.867 98.1797 64.6714C98.1797 65.4759 98.8318 66.128 99.6362 66.128Z" fill="#C2DBFF"/>
<path d="M106.183 66.128C106.987 66.128 107.64 65.4759 107.64 64.6714C107.64 63.867 106.987 63.2148 106.183 63.2148C105.379 63.2148 104.727 63.867 104.727 64.6714C104.727 65.4759 105.379 66.128 106.183 66.128Z" fill="#C2DBFF"/>
<path d="M112.726 66.128C113.53 66.128 114.183 65.4759 114.183 64.6714C114.183 63.867 113.53 63.2148 112.726 63.2148C111.922 63.2148 111.27 63.867 111.27 64.6714C111.27 65.4759 111.922 66.128 112.726 66.128Z" fill="#C2DBFF"/>
<path d="M119.273 66.128C120.077 66.128 120.729 65.4759 120.729 64.6714C120.729 63.867 120.077 63.2148 119.273 63.2148C118.468 63.2148 117.816 63.867 117.816 64.6714C117.816 65.4759 118.468 66.128 119.273 66.128Z" fill="#C2DBFF"/>
<path d="M125.816 66.128C126.62 66.128 127.272 65.4759 127.272 64.6714C127.272 63.867 126.62 63.2148 125.816 63.2148C125.011 63.2148 124.359 63.867 124.359 64.6714C124.359 65.4759 125.011 66.128 125.816 66.128Z" fill="#C2DBFF"/>
<path d="M132.363 66.128C133.167 66.128 133.819 65.4759 133.819 64.6714C133.819 63.867 133.167 63.2148 132.363 63.2148C131.558 63.2148 130.906 63.867 130.906 64.6714C130.906 65.4759 131.558 66.128 132.363 66.128Z" fill="#C2DBFF"/>
<path d="M138.904 66.128C139.708 66.128 140.36 65.4759 140.36 64.6714C140.36 63.867 139.708 63.2148 138.904 63.2148C138.099 63.2148 137.447 63.867 137.447 64.6714C137.447 65.4759 138.099 66.128 138.904 66.128Z" fill="#C2DBFF"/>
<path d="M145.453 66.128C146.257 66.128 146.909 65.4759 146.909 64.6714C146.909 63.867 146.257 63.2148 145.453 63.2148C144.648 63.2148 143.996 63.867 143.996 64.6714C143.996 65.4759 144.648 66.128 145.453 66.128Z" fill="#C2DBFF"/>
<path d="M151.999 66.128C152.804 66.128 153.456 65.4759 153.456 64.6714C153.456 63.867 152.804 63.2148 151.999 63.2148C151.195 63.2148 150.543 63.867 150.543 64.6714C150.543 65.4759 151.195 66.128 151.999 66.128Z" fill="#C2DBFF"/>
<path d="M27.6381 72.4523C28.4425 72.4523 29.0946 71.8001 29.0946 70.9957C29.0946 70.1912 28.4425 69.5391 27.6381 69.5391C26.8337 69.5391 26.1816 70.1912 26.1816 70.9957C26.1816 71.8001 26.8337 72.4523 27.6381 72.4523Z" fill="#C2DBFF"/>
<path d="M34.183 72.4523C34.9874 72.4523 35.6395 71.8001 35.6395 70.9957C35.6395 70.1912 34.9874 69.5391 34.183 69.5391C33.3787 69.5391 32.7266 70.1912 32.7266 70.9957C32.7266 71.8001 33.3787 72.4523 34.183 72.4523Z" fill="#C2DBFF"/>
<path d="M40.7299 72.4523C41.5343 72.4523 42.1864 71.8001 42.1864 70.9957C42.1864 70.1912 41.5343 69.5391 40.7299 69.5391C39.9255 69.5391 39.2734 70.1912 39.2734 70.9957C39.2734 71.8001 39.9255 72.4523 40.7299 72.4523Z" fill="#C2DBFF"/>
<path d="M53.8198 72.4523C54.6242 72.4523 55.2762 71.8001 55.2762 70.9957C55.2762 70.1912 54.6242 69.5391 53.8198 69.5391C53.0154 69.5391 52.3633 70.1912 52.3633 70.9957C52.3633 71.8001 53.0154 72.4523 53.8198 72.4523Z" fill="#C2DBFF"/>
<path d="M60.3627 72.4523C61.1671 72.4523 61.8192 71.8001 61.8192 70.9957C61.8192 70.1912 61.1671 69.5391 60.3627 69.5391C59.5583 69.5391 58.9062 70.1912 58.9062 70.9957C58.9062 71.8001 59.5583 72.4523 60.3627 72.4523Z" fill="#C2DBFF"/>
<path d="M66.9077 72.4523C67.712 72.4523 68.3641 71.8001 68.3641 70.9957C68.3641 70.1912 67.712 69.5391 66.9077 69.5391C66.1033 69.5391 65.4512 70.1912 65.4512 70.9957C65.4512 71.8001 66.1033 72.4523 66.9077 72.4523Z" fill="#C2DBFF"/>
<path d="M73.4526 72.4523C74.257 72.4523 74.9091 71.8001 74.9091 70.9957C74.9091 70.1912 74.257 69.5391 73.4526 69.5391C72.6482 69.5391 71.9961 70.1912 71.9961 70.9957C71.9961 71.8001 72.6482 72.4523 73.4526 72.4523Z" fill="#C2DBFF"/>
<path d="M79.9975 72.4523C80.8019 72.4523 81.454 71.8001 81.454 70.9957C81.454 70.1912 80.8019 69.5391 79.9975 69.5391C79.1931 69.5391 78.541 70.1912 78.541 70.9957C78.541 71.8001 79.1931 72.4523 79.9975 72.4523Z" fill="#C2DBFF"/>
<path d="M86.5444 72.4523C87.3488 72.4523 88.0009 71.8001 88.0009 70.9957C88.0009 70.1912 87.3488 69.5391 86.5444 69.5391C85.74 69.5391 85.0879 70.1912 85.0879 70.9957C85.0879 71.8001 85.74 72.4523 86.5444 72.4523Z" fill="#C2DBFF"/>
<path d="M93.0913 72.4523C93.8956 72.4523 94.5477 71.8001 94.5477 70.9957C94.5477 70.1912 93.8956 69.5391 93.0913 69.5391C92.2869 69.5391 91.6348 70.1912 91.6348 70.9957C91.6348 71.8001 92.2869 72.4523 93.0913 72.4523Z" fill="#C2DBFF"/>
<path d="M99.6362 72.4523C100.441 72.4523 101.093 71.8001 101.093 70.9957C101.093 70.1912 100.441 69.5391 99.6362 69.5391C98.8318 69.5391 98.1797 70.1912 98.1797 70.9957C98.1797 71.8001 98.8318 72.4523 99.6362 72.4523Z" fill="#C2DBFF"/>
<path d="M106.183 72.4523C106.987 72.4523 107.64 71.8001 107.64 70.9957C107.64 70.1912 106.987 69.5391 106.183 69.5391C105.379 69.5391 104.727 70.1912 104.727 70.9957C104.727 71.8001 105.379 72.4523 106.183 72.4523Z" fill="#C2DBFF"/>
<path d="M112.726 72.4523C113.53 72.4523 114.183 71.8001 114.183 70.9957C114.183 70.1912 113.53 69.5391 112.726 69.5391C111.922 69.5391 111.27 70.1912 111.27 70.9957C111.27 71.8001 111.922 72.4523 112.726 72.4523Z" fill="#C2DBFF"/>
<path d="M119.273 72.4523C120.077 72.4523 120.729 71.8001 120.729 70.9957C120.729 70.1912 120.077 69.5391 119.273 69.5391C118.468 69.5391 117.816 70.1912 117.816 70.9957C117.816 71.8001 118.468 72.4523 119.273 72.4523Z" fill="#C2DBFF"/>
<path d="M125.816 72.4523C126.62 72.4523 127.272 71.8001 127.272 70.9957C127.272 70.1912 126.62 69.5391 125.816 69.5391C125.011 69.5391 124.359 70.1912 124.359 70.9957C124.359 71.8001 125.011 72.4523 125.816 72.4523Z" fill="#C2DBFF"/>
<path d="M132.363 72.4523C133.167 72.4523 133.819 71.8001 133.819 70.9957C133.819 70.1912 133.167 69.5391 132.363 69.5391C131.558 69.5391 130.906 70.1912 130.906 70.9957C130.906 71.8001 131.558 72.4523 132.363 72.4523Z" fill="#C2DBFF"/>
<path d="M138.904 72.4523C139.708 72.4523 140.36 71.8001 140.36 70.9957C140.36 70.1912 139.708 69.5391 138.904 69.5391C138.099 69.5391 137.447 70.1912 137.447 70.9957C137.447 71.8001 138.099 72.4523 138.904 72.4523Z" fill="#C2DBFF"/>
<path d="M145.453 72.4523C146.257 72.4523 146.909 71.8001 146.909 70.9957C146.909 70.1912 146.257 69.5391 145.453 69.5391C144.648 69.5391 143.996 70.1912 143.996 70.9957C143.996 71.8001 144.648 72.4523 145.453 72.4523Z" fill="#C2DBFF"/>
<path d="M60.3627 78.7726C61.1671 78.7726 61.8192 78.1204 61.8192 77.316C61.8192 76.5115 61.1671 75.8594 60.3627 75.8594C59.5583 75.8594 58.9062 76.5115 58.9062 77.316C58.9062 78.1204 59.5583 78.7726 60.3627 78.7726Z" fill="#C2DBFF"/>
<path d="M66.9077 78.7726C67.712 78.7726 68.3641 78.1204 68.3641 77.316C68.3641 76.5115 67.712 75.8594 66.9077 75.8594C66.1033 75.8594 65.4512 76.5115 65.4512 77.316C65.4512 78.1204 66.1033 78.7726 66.9077 78.7726Z" fill="#C2DBFF"/>
<path d="M73.4526 78.7726C74.257 78.7726 74.9091 78.1204 74.9091 77.316C74.9091 76.5115 74.257 75.8594 73.4526 75.8594C72.6482 75.8594 71.9961 76.5115 71.9961 77.316C71.9961 78.1204 72.6482 78.7726 73.4526 78.7726Z" fill="#C2DBFF"/>
<path d="M79.9975 78.7726C80.8019 78.7726 81.454 78.1204 81.454 77.316C81.454 76.5115 80.8019 75.8594 79.9975 75.8594C79.1931 75.8594 78.541 76.5115 78.541 77.316C78.541 78.1204 79.1931 78.7726 79.9975 78.7726Z" fill="#C2DBFF"/>
<path d="M86.5444 78.7726C87.3488 78.7726 88.0009 78.1204 88.0009 77.316C88.0009 76.5115 87.3488 75.8594 86.5444 75.8594C85.74 75.8594 85.0879 76.5115 85.0879 77.316C85.0879 78.1204 85.74 78.7726 86.5444 78.7726Z" fill="#C2DBFF"/>
<path d="M93.0913 78.7726C93.8956 78.7726 94.5477 78.1204 94.5477 77.316C94.5477 76.5115 93.8956 75.8594 93.0913 75.8594C92.2869 75.8594 91.6348 76.5115 91.6348 77.316C91.6348 78.1204 92.2869 78.7726 93.0913 78.7726Z" fill="#C2DBFF"/>
<path d="M99.6362 78.7726C100.441 78.7726 101.093 78.1204 101.093 77.316C101.093 76.5115 100.441 75.8594 99.6362 75.8594C98.8318 75.8594 98.1797 76.5115 98.1797 77.316C98.1797 78.1204 98.8318 78.7726 99.6362 78.7726Z" fill="#C2DBFF"/>
<path d="M106.183 78.7726C106.987 78.7726 107.64 78.1204 107.64 77.316C107.64 76.5115 106.987 75.8594 106.183 75.8594C105.379 75.8594 104.727 76.5115 104.727 77.316C104.727 78.1204 105.379 78.7726 106.183 78.7726Z" fill="#C2DBFF"/>
<path d="M79.9975 85.0929C80.8019 85.0929 81.454 84.4407 81.454 83.6363C81.454 82.8318 80.8019 82.1797 79.9975 82.1797C79.1931 82.1797 78.541 82.8318 78.541 83.6363C78.541 84.4407 79.1931 85.0929 79.9975 85.0929Z" fill="#C2DBFF"/>
<path d="M86.5444 85.0929C87.3488 85.0929 88.0009 84.4407 88.0009 83.6363C88.0009 82.8318 87.3488 82.1797 86.5444 82.1797C85.74 82.1797 85.0879 82.8318 85.0879 83.6363C85.0879 84.4407 85.74 85.0929 86.5444 85.0929Z" fill="#C2DBFF"/>
<path d="M93.0913 85.0929C93.8956 85.0929 94.5477 84.4407 94.5477 83.6363C94.5477 82.8318 93.8956 82.1797 93.0913 82.1797C92.2869 82.1797 91.6348 82.8318 91.6348 83.6363C91.6348 84.4407 92.2869 85.0929 93.0913 85.0929Z" fill="#C2DBFF"/>
<path d="M99.6362 85.0929C100.441 85.0929 101.093 84.4407 101.093 83.6363C101.093 82.8318 100.441 82.1797 99.6362 82.1797C98.8318 82.1797 98.1797 82.8318 98.1797 83.6363C98.1797 84.4407 98.8318 85.0929 99.6362 85.0929Z" fill="#C2DBFF"/>
</svg>
