<svg width="225" height="120" viewBox="0 0 225 120" fill="none" xmlns="http://www.w3.org/2000/svg">
<path d="M93.9509 4.09063C92.8214 4.09063 91.9058 3.1749 91.9058 2.04531C91.9058 0.915724 92.8214 0 93.9509 0C95.0804 0 95.9961 0.915724 95.9961 2.04531C95.9961 3.1749 95.0804 4.09063 93.9509 4.09063Z" fill="#C2DBFF"/>
<path d="M84.7615 4.09063C83.632 4.09063 82.7163 3.1749 82.7163 2.04531C82.7163 0.915724 83.632 0 84.7615 0C85.891 0 86.8066 0.915724 86.8066 2.04531C86.8066 3.1749 85.891 4.09063 84.7615 4.09063Z" fill="#C2DBFF"/>
<path d="M75.5701 4.09063C74.4406 4.09063 73.5249 3.1749 73.5249 2.04531C73.5249 0.915724 74.4406 0 75.5701 0C76.6996 0 77.6152 0.915724 77.6152 2.04531C77.6152 3.1749 76.6996 4.09063 75.5701 4.09063Z" fill="#C2DBFF"/>
<path d="M66.3806 4.09063C65.2511 4.09063 64.3355 3.1749 64.3355 2.04531C64.3355 0.915724 65.2511 0 66.3806 0C67.5101 0 68.4258 0.915724 68.4258 2.04531C68.4258 3.1749 67.5101 4.09063 66.3806 4.09063Z" fill="#C2DBFF"/>
<path d="M158.287 12.9696C157.157 12.9696 156.242 12.0538 156.242 10.9242C156.242 9.79464 157.157 8.87891 158.287 8.87891C159.416 8.87891 160.332 9.79464 160.332 10.9242C160.332 12.0538 159.416 12.9696 158.287 12.9696Z" fill="#C2DBFF"/>
<path d="M149.095 12.9696C147.966 12.9696 147.05 12.0538 147.05 10.9242C147.05 9.79464 147.966 8.87891 149.095 8.87891C150.225 8.87891 151.141 9.79464 151.141 10.9242C151.141 12.0538 150.225 12.9696 149.095 12.9696Z" fill="#C2DBFF"/>
<path d="M139.908 12.9696C138.778 12.9696 137.863 12.0538 137.863 10.9242C137.863 9.79464 138.778 8.87891 139.908 8.87891C141.037 8.87891 141.953 9.79464 141.953 10.9242C141.953 12.0538 141.037 12.9696 139.908 12.9696Z" fill="#C2DBFF"/>
<path d="M130.717 12.9696C129.587 12.9696 128.671 12.0538 128.671 10.9242C128.671 9.79464 129.587 8.87891 130.717 8.87891C131.846 8.87891 132.762 9.79464 132.762 10.9242C132.762 12.0538 131.846 12.9696 130.717 12.9696Z" fill="#C2DBFF"/>
<path d="M121.527 12.9696C120.398 12.9696 119.482 12.0538 119.482 10.9242C119.482 9.79464 120.398 8.87891 121.527 8.87891C122.657 8.87891 123.572 9.79464 123.572 10.9242C123.572 12.0538 122.657 12.9696 121.527 12.9696Z" fill="#C2DBFF"/>
<path d="M103.142 12.9696C102.013 12.9696 101.097 12.0538 101.097 10.9242C101.097 9.79464 102.013 8.87891 103.142 8.87891C104.272 8.87891 105.188 9.79464 105.188 10.9242C105.188 12.0538 104.272 12.9696 103.142 12.9696Z" fill="#C2DBFF"/>
<path d="M93.9509 12.9696C92.8214 12.9696 91.9058 12.0538 91.9058 10.9242C91.9058 9.79464 92.8214 8.87891 93.9509 8.87891C95.0804 8.87891 95.9961 9.79464 95.9961 10.9242C95.9961 12.0538 95.0804 12.9696 93.9509 12.9696Z" fill="#C2DBFF"/>
<path d="M84.7615 12.9696C83.632 12.9696 82.7163 12.0538 82.7163 10.9242C82.7163 9.79464 83.632 8.87891 84.7615 8.87891C85.891 8.87891 86.8066 9.79464 86.8066 10.9242C86.8066 12.0538 85.891 12.9696 84.7615 12.9696Z" fill="#C2DBFF"/>
<path d="M75.5701 12.9696C74.4406 12.9696 73.5249 12.0538 73.5249 10.9242C73.5249 9.79464 74.4406 8.87891 75.5701 8.87891C76.6996 8.87891 77.6152 9.79464 77.6152 10.9242C77.6152 12.0538 76.6996 12.9696 75.5701 12.9696Z" fill="#C2DBFF"/>
<path d="M66.3806 12.9696C65.2511 12.9696 64.3355 12.0538 64.3355 10.9242C64.3355 9.79464 65.2511 8.87891 66.3806 8.87891C67.5101 8.87891 68.4258 9.79464 68.4258 10.9242C68.4258 12.0538 67.5101 12.9696 66.3806 12.9696Z" fill="#C2DBFF"/>
<path d="M57.1892 12.9696C56.0597 12.9696 55.144 12.0538 55.144 10.9242C55.144 9.79464 56.0597 8.87891 57.1892 8.87891C58.3187 8.87891 59.2344 9.79464 59.2344 10.9242C59.2344 12.0538 58.3187 12.9696 57.1892 12.9696Z" fill="#C2DBFF"/>
<path d="M167.476 21.8445C166.347 21.8445 165.431 20.9288 165.431 19.7992C165.431 18.6696 166.347 17.7539 167.476 17.7539C168.606 17.7539 169.521 18.6696 169.521 19.7992C169.521 20.9288 168.606 21.8445 167.476 21.8445Z" fill="#C2DBFF"/>
<path d="M158.287 21.8445C157.157 21.8445 156.242 20.9288 156.242 19.7992C156.242 18.6696 157.157 17.7539 158.287 17.7539C159.416 17.7539 160.332 18.6696 160.332 19.7992C160.332 20.9288 159.416 21.8445 158.287 21.8445Z" fill="#C2DBFF"/>
<path d="M149.095 21.8445C147.966 21.8445 147.05 20.9288 147.05 19.7992C147.05 18.6696 147.966 17.7539 149.095 17.7539C150.225 17.7539 151.141 18.6696 151.141 19.7992C151.141 20.9288 150.225 21.8445 149.095 21.8445Z" fill="#C2DBFF"/>
<path d="M139.908 21.8445C138.778 21.8445 137.863 20.9288 137.863 19.7992C137.863 18.6696 138.778 17.7539 139.908 17.7539C141.037 17.7539 141.953 18.6696 141.953 19.7992C141.953 20.9288 141.037 21.8445 139.908 21.8445Z" fill="#C2DBFF"/>
<path d="M130.717 21.8445C129.587 21.8445 128.671 20.9288 128.671 19.7992C128.671 18.6696 129.587 17.7539 130.717 17.7539C131.846 17.7539 132.762 18.6696 132.762 19.7992C132.762 20.9288 131.846 21.8445 130.717 21.8445Z" fill="#C2DBFF"/>
<path d="M121.527 21.8445C120.398 21.8445 119.482 20.9288 119.482 19.7992C119.482 18.6696 120.398 17.7539 121.527 17.7539C122.657 17.7539 123.572 18.6696 123.572 19.7992C123.572 20.9288 122.657 21.8445 121.527 21.8445Z" fill="#C2DBFF"/>
<path d="M112.336 21.8445C111.206 21.8445 110.291 20.9288 110.291 19.7992C110.291 18.6696 111.206 17.7539 112.336 17.7539C113.465 17.7539 114.381 18.6696 114.381 19.7992C114.381 20.9288 113.465 21.8445 112.336 21.8445Z" fill="#C2DBFF"/>
<path d="M103.142 21.8445C102.013 21.8445 101.097 20.9288 101.097 19.7992C101.097 18.6696 102.013 17.7539 103.142 17.7539C104.272 17.7539 105.188 18.6696 105.188 19.7992C105.188 20.9288 104.272 21.8445 103.142 21.8445Z" fill="#C2DBFF"/>
<path d="M93.9509 21.8445C92.8214 21.8445 91.9058 20.9288 91.9058 19.7992C91.9058 18.6696 92.8214 17.7539 93.9509 17.7539C95.0804 17.7539 95.9961 18.6696 95.9961 19.7992C95.9961 20.9288 95.0804 21.8445 93.9509 21.8445Z" fill="#C2DBFF"/>
<path d="M84.7615 21.8445C83.632 21.8445 82.7163 20.9288 82.7163 19.7992C82.7163 18.6696 83.632 17.7539 84.7615 17.7539C85.891 17.7539 86.8066 18.6696 86.8066 19.7992C86.8066 20.9288 85.891 21.8445 84.7615 21.8445Z" fill="#C2DBFF"/>
<path d="M75.5701 21.8445C74.4406 21.8445 73.5249 20.9288 73.5249 19.7992C73.5249 18.6696 74.4406 17.7539 75.5701 17.7539C76.6996 17.7539 77.6152 18.6696 77.6152 19.7992C77.6152 20.9288 76.6996 21.8445 75.5701 21.8445Z" fill="#C2DBFF"/>
<path d="M66.3806 21.8445C65.2511 21.8445 64.3355 20.9288 64.3355 19.7992C64.3355 18.6696 65.2511 17.7539 66.3806 17.7539C67.5101 17.7539 68.4258 18.6696 68.4258 19.7992C68.4258 20.9288 67.5101 21.8445 66.3806 21.8445Z" fill="#C2DBFF"/>
<path d="M57.1892 21.8445C56.0597 21.8445 55.144 20.9288 55.144 19.7992C55.144 18.6696 56.0597 17.7539 57.1892 17.7539C58.3187 17.7539 59.2344 18.6696 59.2344 19.7992C59.2344 20.9288 58.3187 21.8445 57.1892 21.8445Z" fill="#C2DBFF"/>
<path d="M47.9998 21.8445C46.8703 21.8445 45.9546 20.9288 45.9546 19.7992C45.9546 18.6696 46.8703 17.7539 47.9998 17.7539C49.1293 17.7539 50.0449 18.6696 50.0449 19.7992C50.0449 20.9288 49.1293 21.8445 47.9998 21.8445Z" fill="#C2DBFF"/>
<path d="M195.049 30.7196C193.919 30.7196 193.003 29.8038 193.003 28.6742C193.003 27.5446 193.919 26.6289 195.049 26.6289C196.178 26.6289 197.094 27.5446 197.094 28.6742C197.094 29.8038 196.178 30.7196 195.049 30.7196Z" fill="#C2DBFF"/>
<path d="M185.857 30.7196C184.728 30.7196 183.812 29.8038 183.812 28.6742C183.812 27.5446 184.728 26.6289 185.857 26.6289C186.987 26.6289 187.902 27.5446 187.902 28.6742C187.902 29.8038 186.987 30.7196 185.857 30.7196Z" fill="#C2DBFF"/>
<path d="M176.668 30.7196C175.538 30.7196 174.623 29.8038 174.623 28.6742C174.623 27.5446 175.538 26.6289 176.668 26.6289C177.797 26.6289 178.713 27.5446 178.713 28.6742C178.713 29.8038 177.797 30.7196 176.668 30.7196Z" fill="#C2DBFF"/>
<path d="M167.476 30.7196C166.347 30.7196 165.431 29.8038 165.431 28.6742C165.431 27.5446 166.347 26.6289 167.476 26.6289C168.606 26.6289 169.521 27.5446 169.521 28.6742C169.521 29.8038 168.606 30.7196 167.476 30.7196Z" fill="#C2DBFF"/>
<path d="M158.287 30.7196C157.157 30.7196 156.242 29.8038 156.242 28.6742C156.242 27.5446 157.157 26.6289 158.287 26.6289C159.416 26.6289 160.332 27.5446 160.332 28.6742C160.332 29.8038 159.416 30.7196 158.287 30.7196Z" fill="#C2DBFF"/>
<path d="M149.095 30.7196C147.966 30.7196 147.05 29.8038 147.05 28.6742C147.05 27.5446 147.966 26.6289 149.095 26.6289C150.225 26.6289 151.141 27.5446 151.141 28.6742C151.141 29.8038 150.225 30.7196 149.095 30.7196Z" fill="#C2DBFF"/>
<path d="M139.908 30.7196C138.778 30.7196 137.863 29.8038 137.863 28.6742C137.863 27.5446 138.778 26.6289 139.908 26.6289C141.037 26.6289 141.953 27.5446 141.953 28.6742C141.953 29.8038 141.037 30.7196 139.908 30.7196Z" fill="#C2DBFF"/>
<path d="M130.717 30.7196C129.587 30.7196 128.671 29.8038 128.671 28.6742C128.671 27.5446 129.587 26.6289 130.717 26.6289C131.846 26.6289 132.762 27.5446 132.762 28.6742C132.762 29.8038 131.846 30.7196 130.717 30.7196Z" fill="#C2DBFF"/>
<path d="M121.527 30.7196C120.398 30.7196 119.482 29.8038 119.482 28.6742C119.482 27.5446 120.398 26.6289 121.527 26.6289C122.657 26.6289 123.572 27.5446 123.572 28.6742C123.572 29.8038 122.657 30.7196 121.527 30.7196Z" fill="#C2DBFF"/>
<path d="M112.336 30.7196C111.206 30.7196 110.291 29.8038 110.291 28.6742C110.291 27.5446 111.206 26.6289 112.336 26.6289C113.465 26.6289 114.381 27.5446 114.381 28.6742C114.381 29.8038 113.465 30.7196 112.336 30.7196Z" fill="#C2DBFF"/>
<path d="M103.142 30.7196C102.013 30.7196 101.097 29.8038 101.097 28.6742C101.097 27.5446 102.013 26.6289 103.142 26.6289C104.272 26.6289 105.188 27.5446 105.188 28.6742C105.188 29.8038 104.272 30.7196 103.142 30.7196Z" fill="#C2DBFF"/>
<path d="M93.9509 30.7196C92.8214 30.7196 91.9058 29.8038 91.9058 28.6742C91.9058 27.5446 92.8214 26.6289 93.9509 26.6289C95.0804 26.6289 95.9961 27.5446 95.9961 28.6742C95.9961 29.8038 95.0804 30.7196 93.9509 30.7196Z" fill="#C2DBFF"/>
<path d="M84.7615 30.7196C83.632 30.7196 82.7163 29.8038 82.7163 28.6742C82.7163 27.5446 83.632 26.6289 84.7615 26.6289C85.891 26.6289 86.8066 27.5446 86.8066 28.6742C86.8066 29.8038 85.891 30.7196 84.7615 30.7196Z" fill="#C2DBFF"/>
<path d="M75.5701 30.7196C74.4406 30.7196 73.5249 29.8038 73.5249 28.6742C73.5249 27.5446 74.4406 26.6289 75.5701 26.6289C76.6996 26.6289 77.6152 27.5446 77.6152 28.6742C77.6152 29.8038 76.6996 30.7196 75.5701 30.7196Z" fill="#C2DBFF"/>
<path d="M66.3806 30.7196C65.2511 30.7196 64.3355 29.8038 64.3355 28.6742C64.3355 27.5446 65.2511 26.6289 66.3806 26.6289C67.5101 26.6289 68.4258 27.5446 68.4258 28.6742C68.4258 29.8038 67.5101 30.7196 66.3806 30.7196Z" fill="#C2DBFF"/>
<path d="M57.1892 30.7196C56.0597 30.7196 55.144 29.8038 55.144 28.6742C55.144 27.5446 56.0597 26.6289 57.1892 26.6289C58.3187 26.6289 59.2344 27.5446 59.2344 28.6742C59.2344 29.8038 58.3187 30.7196 57.1892 30.7196Z" fill="#C2DBFF"/>
<path d="M47.9998 30.7196C46.8703 30.7196 45.9546 29.8038 45.9546 28.6742C45.9546 27.5446 46.8703 26.6289 47.9998 26.6289C49.1293 26.6289 50.0449 27.5446 50.0449 28.6742C50.0449 29.8038 49.1293 30.7196 47.9998 30.7196Z" fill="#C2DBFF"/>
<path d="M204.242 39.5984C203.112 39.5984 202.197 38.6827 202.197 37.5531C202.197 36.4235 203.112 35.5078 204.242 35.5078C205.371 35.5078 206.287 36.4235 206.287 37.5531C206.287 38.6827 205.371 39.5984 204.242 39.5984Z" fill="#C2DBFF"/>
<path d="M195.049 39.5984C193.919 39.5984 193.003 38.6827 193.003 37.5531C193.003 36.4235 193.919 35.5078 195.049 35.5078C196.178 35.5078 197.094 36.4235 197.094 37.5531C197.094 38.6827 196.178 39.5984 195.049 39.5984Z" fill="#C2DBFF"/>
<path d="M185.857 39.5984C184.728 39.5984 183.812 38.6827 183.812 37.5531C183.812 36.4235 184.728 35.5078 185.857 35.5078C186.987 35.5078 187.902 36.4235 187.902 37.5531C187.902 38.6827 186.987 39.5984 185.857 39.5984Z" fill="#C2DBFF"/>
<path d="M176.668 39.5984C175.538 39.5984 174.623 38.6827 174.623 37.5531C174.623 36.4235 175.538 35.5078 176.668 35.5078C177.797 35.5078 178.713 36.4235 178.713 37.5531C178.713 38.6827 177.797 39.5984 176.668 39.5984Z" fill="#C2DBFF"/>
<path d="M167.476 39.5984C166.347 39.5984 165.431 38.6827 165.431 37.5531C165.431 36.4235 166.347 35.5078 167.476 35.5078C168.606 35.5078 169.521 36.4235 169.521 37.5531C169.521 38.6827 168.606 39.5984 167.476 39.5984Z" fill="#C2DBFF"/>
<path d="M158.287 39.5984C157.157 39.5984 156.242 38.6827 156.242 37.5531C156.242 36.4235 157.157 35.5078 158.287 35.5078C159.416 35.5078 160.332 36.4235 160.332 37.5531C160.332 38.6827 159.416 39.5984 158.287 39.5984Z" fill="#C2DBFF"/>
<path d="M149.095 39.5984C147.966 39.5984 147.05 38.6827 147.05 37.5531C147.05 36.4235 147.966 35.5078 149.095 35.5078C150.225 35.5078 151.141 36.4235 151.141 37.5531C151.141 38.6827 150.225 39.5984 149.095 39.5984Z" fill="#C2DBFF"/>
<path d="M139.908 39.5984C138.778 39.5984 137.863 38.6827 137.863 37.5531C137.863 36.4235 138.778 35.5078 139.908 35.5078C141.037 35.5078 141.953 36.4235 141.953 37.5531C141.953 38.6827 141.037 39.5984 139.908 39.5984Z" fill="#C2DBFF"/>
<path d="M130.717 39.5984C129.587 39.5984 128.671 38.6827 128.671 37.5531C128.671 36.4235 129.587 35.5078 130.717 35.5078C131.846 35.5078 132.762 36.4235 132.762 37.5531C132.762 38.6827 131.846 39.5984 130.717 39.5984Z" fill="#C2DBFF"/>
<path d="M121.527 39.5984C120.398 39.5984 119.482 38.6827 119.482 37.5531C119.482 36.4235 120.398 35.5078 121.527 35.5078C122.657 35.5078 123.572 36.4235 123.572 37.5531C123.572 38.6827 122.657 39.5984 121.527 39.5984Z" fill="#C2DBFF"/>
<path d="M112.336 39.5984C111.206 39.5984 110.291 38.6827 110.291 37.5531C110.291 36.4235 111.206 35.5078 112.336 35.5078C113.465 35.5078 114.381 36.4235 114.381 37.5531C114.381 38.6827 113.465 39.5984 112.336 39.5984Z" fill="#C2DBFF"/>
<path d="M103.142 39.5984C102.013 39.5984 101.097 38.6827 101.097 37.5531C101.097 36.4235 102.013 35.5078 103.142 35.5078C104.272 35.5078 105.188 36.4235 105.188 37.5531C105.188 38.6827 104.272 39.5984 103.142 39.5984Z" fill="#C2DBFF"/>
<path d="M93.9509 39.5984C92.8214 39.5984 91.9058 38.6827 91.9058 37.5531C91.9058 36.4235 92.8214 35.5078 93.9509 35.5078C95.0804 35.5078 95.9961 36.4235 95.9961 37.5531C95.9961 38.6827 95.0804 39.5984 93.9509 39.5984Z" fill="#C2DBFF"/>
<path d="M84.7615 39.5984C83.632 39.5984 82.7163 38.6827 82.7163 37.5531C82.7163 36.4235 83.632 35.5078 84.7615 35.5078C85.891 35.5078 86.8066 36.4235 86.8066 37.5531C86.8066 38.6827 85.891 39.5984 84.7615 39.5984Z" fill="#C2DBFF"/>
<path d="M75.5701 39.5984C74.4406 39.5984 73.5249 38.6827 73.5249 37.5531C73.5249 36.4235 74.4406 35.5078 75.5701 35.5078C76.6996 35.5078 77.6152 36.4235 77.6152 37.5531C77.6152 38.6827 76.6996 39.5984 75.5701 39.5984Z" fill="#C2DBFF"/>
<path d="M66.3806 39.5984C65.2511 39.5984 64.3355 38.6827 64.3355 37.5531C64.3355 36.4235 65.2511 35.5078 66.3806 35.5078C67.5101 35.5078 68.4258 36.4235 68.4258 37.5531C68.4258 38.6827 67.5101 39.5984 66.3806 39.5984Z" fill="#C2DBFF"/>
<path d="M57.1892 39.5984C56.0597 39.5984 55.144 38.6827 55.144 37.5531C55.144 36.4235 56.0597 35.5078 57.1892 35.5078C58.3187 35.5078 59.2344 36.4235 59.2344 37.5531C59.2344 38.6827 58.3187 39.5984 57.1892 39.5984Z" fill="#C2DBFF"/>
<path d="M47.9998 39.5984C46.8703 39.5984 45.9546 38.6827 45.9546 37.5531C45.9546 36.4235 46.8703 35.5078 47.9998 35.5078C49.1293 35.5078 50.0449 36.4235 50.0449 37.5531C50.0449 38.6827 49.1293 39.5984 47.9998 39.5984Z" fill="#C2DBFF"/>
<path d="M204.242 48.4735C203.112 48.4735 202.197 47.5577 202.197 46.4281C202.197 45.2985 203.112 44.3828 204.242 44.3828C205.371 44.3828 206.287 45.2985 206.287 46.4281C206.287 47.5577 205.371 48.4735 204.242 48.4735Z" fill="#C2DBFF"/>
<path d="M195.049 48.4735C193.919 48.4735 193.003 47.5577 193.003 46.4281C193.003 45.2985 193.919 44.3828 195.049 44.3828C196.178 44.3828 197.094 45.2985 197.094 46.4281C197.094 47.5577 196.178 48.4735 195.049 48.4735Z" fill="#C2DBFF"/>
<path d="M185.857 48.4735C184.728 48.4735 183.812 47.5577 183.812 46.4281C183.812 45.2985 184.728 44.3828 185.857 44.3828C186.987 44.3828 187.902 45.2985 187.902 46.4281C187.902 47.5577 186.987 48.4735 185.857 48.4735Z" fill="#C2DBFF"/>
<path d="M176.668 48.4735C175.538 48.4735 174.623 47.5577 174.623 46.4281C174.623 45.2985 175.538 44.3828 176.668 44.3828C177.797 44.3828 178.713 45.2985 178.713 46.4281C178.713 47.5577 177.797 48.4735 176.668 48.4735Z" fill="#C2DBFF"/>
<path d="M167.476 48.4735C166.347 48.4735 165.431 47.5577 165.431 46.4281C165.431 45.2985 166.347 44.3828 167.476 44.3828C168.606 44.3828 169.521 45.2985 169.521 46.4281C169.521 47.5577 168.606 48.4735 167.476 48.4735Z" fill="#C2DBFF"/>
<path d="M158.287 48.4735C157.157 48.4735 156.242 47.5577 156.242 46.4281C156.242 45.2985 157.157 44.3828 158.287 44.3828C159.416 44.3828 160.332 45.2985 160.332 46.4281C160.332 47.5577 159.416 48.4735 158.287 48.4735Z" fill="#C2DBFF"/>
<path d="M149.095 48.4735C147.966 48.4735 147.05 47.5577 147.05 46.4281C147.05 45.2985 147.966 44.3828 149.095 44.3828C150.225 44.3828 151.141 45.2985 151.141 46.4281C151.141 47.5577 150.225 48.4735 149.095 48.4735Z" fill="#C2DBFF"/>
<path d="M139.908 48.4735C138.778 48.4735 137.863 47.5577 137.863 46.4281C137.863 45.2985 138.778 44.3828 139.908 44.3828C141.037 44.3828 141.953 45.2985 141.953 46.4281C141.953 47.5577 141.037 48.4735 139.908 48.4735Z" fill="#C2DBFF"/>
<path d="M130.717 48.4735C129.587 48.4735 128.671 47.5577 128.671 46.4281C128.671 45.2985 129.587 44.3828 130.717 44.3828C131.846 44.3828 132.762 45.2985 132.762 46.4281C132.762 47.5577 131.846 48.4735 130.717 48.4735Z" fill="#C2DBFF"/>
<path d="M121.527 48.4735C120.398 48.4735 119.482 47.5577 119.482 46.4281C119.482 45.2985 120.398 44.3828 121.527 44.3828C122.657 44.3828 123.572 45.2985 123.572 46.4281C123.572 47.5577 122.657 48.4735 121.527 48.4735Z" fill="#C2DBFF"/>
<path d="M112.336 48.4735C111.206 48.4735 110.291 47.5577 110.291 46.4281C110.291 45.2985 111.206 44.3828 112.336 44.3828C113.465 44.3828 114.381 45.2985 114.381 46.4281C114.381 47.5577 113.465 48.4735 112.336 48.4735Z" fill="#C2DBFF"/>
<path d="M103.142 48.4735C102.013 48.4735 101.097 47.5577 101.097 46.4281C101.097 45.2985 102.013 44.3828 103.142 44.3828C104.272 44.3828 105.188 45.2985 105.188 46.4281C105.188 47.5577 104.272 48.4735 103.142 48.4735Z" fill="#C2DBFF"/>
<path d="M93.9509 48.4735C92.8214 48.4735 91.9058 47.5577 91.9058 46.4281C91.9058 45.2985 92.8214 44.3828 93.9509 44.3828C95.0804 44.3828 95.9961 45.2985 95.9961 46.4281C95.9961 47.5577 95.0804 48.4735 93.9509 48.4735Z" fill="#C2DBFF"/>
<path d="M84.7615 48.4735C83.632 48.4735 82.7163 47.5577 82.7163 46.4281C82.7163 45.2985 83.632 44.3828 84.7615 44.3828C85.891 44.3828 86.8066 45.2985 86.8066 46.4281C86.8066 47.5577 85.891 48.4735 84.7615 48.4735Z" fill="#C2DBFF"/>
<path d="M75.5701 48.4735C74.4406 48.4735 73.5249 47.5577 73.5249 46.4281C73.5249 45.2985 74.4406 44.3828 75.5701 44.3828C76.6996 44.3828 77.6152 45.2985 77.6152 46.4281C77.6152 47.5577 76.6996 48.4735 75.5701 48.4735Z" fill="#C2DBFF"/>
<path d="M66.3806 48.4735C65.2511 48.4735 64.3355 47.5577 64.3355 46.4281C64.3355 45.2985 65.2511 44.3828 66.3806 44.3828C67.5101 44.3828 68.4258 45.2985 68.4258 46.4281C68.4258 47.5577 67.5101 48.4735 66.3806 48.4735Z" fill="#C2DBFF"/>
<path d="M57.1892 48.4735C56.0597 48.4735 55.144 47.5577 55.144 46.4281C55.144 45.2985 56.0597 44.3828 57.1892 44.3828C58.3187 44.3828 59.2344 45.2985 59.2344 46.4281C59.2344 47.5577 58.3187 48.4735 57.1892 48.4735Z" fill="#C2DBFF"/>
<path d="M47.9998 48.4735C46.8703 48.4735 45.9546 47.5577 45.9546 46.4281C45.9546 45.2985 46.8703 44.3828 47.9998 44.3828C49.1293 44.3828 50.0449 45.2985 50.0449 46.4281C50.0449 47.5577 49.1293 48.4735 47.9998 48.4735Z" fill="#C2DBFF"/>
<path d="M38.8084 48.4735C37.6788 48.4735 36.7632 47.5577 36.7632 46.4281C36.7632 45.2985 37.6788 44.3828 38.8084 44.3828C39.9379 44.3828 40.8535 45.2985 40.8535 46.4281C40.8535 47.5577 39.9379 48.4735 38.8084 48.4735Z" fill="#C2DBFF"/>
<path d="M29.6208 48.4735C28.4913 48.4735 27.5757 47.5577 27.5757 46.4281C27.5757 45.2985 28.4913 44.3828 29.6208 44.3828C30.7504 44.3828 31.666 45.2985 31.666 46.4281C31.666 47.5577 30.7504 48.4735 29.6208 48.4735Z" fill="#C2DBFF"/>
<path d="M213.431 57.3484C212.302 57.3484 211.386 56.4327 211.386 55.3031C211.386 54.1735 212.302 53.2578 213.431 53.2578C214.561 53.2578 215.477 54.1735 215.477 55.3031C215.477 56.4327 214.561 57.3484 213.431 57.3484Z" fill="#C2DBFF"/>
<path d="M204.242 57.3484C203.112 57.3484 202.197 56.4327 202.197 55.3031C202.197 54.1735 203.112 53.2578 204.242 53.2578C205.371 53.2578 206.287 54.1735 206.287 55.3031C206.287 56.4327 205.371 57.3484 204.242 57.3484Z" fill="#C2DBFF"/>
<path d="M195.049 57.3484C193.919 57.3484 193.003 56.4327 193.003 55.3031C193.003 54.1735 193.919 53.2578 195.049 53.2578C196.178 53.2578 197.094 54.1735 197.094 55.3031C197.094 56.4327 196.178 57.3484 195.049 57.3484Z" fill="#C2DBFF"/>
<path d="M185.857 57.3484C184.728 57.3484 183.812 56.4327 183.812 55.3031C183.812 54.1735 184.728 53.2578 185.857 53.2578C186.987 53.2578 187.902 54.1735 187.902 55.3031C187.902 56.4327 186.987 57.3484 185.857 57.3484Z" fill="#C2DBFF"/>
<path d="M176.668 57.3484C175.538 57.3484 174.623 56.4327 174.623 55.3031C174.623 54.1735 175.538 53.2578 176.668 53.2578C177.797 53.2578 178.713 54.1735 178.713 55.3031C178.713 56.4327 177.797 57.3484 176.668 57.3484Z" fill="#C2DBFF"/>
<path d="M167.476 57.3484C166.347 57.3484 165.431 56.4327 165.431 55.3031C165.431 54.1735 166.347 53.2578 167.476 53.2578C168.606 53.2578 169.521 54.1735 169.521 55.3031C169.521 56.4327 168.606 57.3484 167.476 57.3484Z" fill="#C2DBFF"/>
<path d="M158.287 57.3484C157.157 57.3484 156.242 56.4327 156.242 55.3031C156.242 54.1735 157.157 53.2578 158.287 53.2578C159.416 53.2578 160.332 54.1735 160.332 55.3031C160.332 56.4327 159.416 57.3484 158.287 57.3484Z" fill="#C2DBFF"/>
<path d="M149.095 57.3484C147.966 57.3484 147.05 56.4327 147.05 55.3031C147.05 54.1735 147.966 53.2578 149.095 53.2578C150.225 53.2578 151.141 54.1735 151.141 55.3031C151.141 56.4327 150.225 57.3484 149.095 57.3484Z" fill="#C2DBFF"/>
<path d="M139.908 57.3484C138.778 57.3484 137.863 56.4327 137.863 55.3031C137.863 54.1735 138.778 53.2578 139.908 53.2578C141.037 53.2578 141.953 54.1735 141.953 55.3031C141.953 56.4327 141.037 57.3484 139.908 57.3484Z" fill="#C2DBFF"/>
<path d="M130.717 57.3484C129.587 57.3484 128.671 56.4327 128.671 55.3031C128.671 54.1735 129.587 53.2578 130.717 53.2578C131.846 53.2578 132.762 54.1735 132.762 55.3031C132.762 56.4327 131.846 57.3484 130.717 57.3484Z" fill="#C2DBFF"/>
<path d="M121.527 57.3484C120.398 57.3484 119.482 56.4327 119.482 55.3031C119.482 54.1735 120.398 53.2578 121.527 53.2578C122.657 53.2578 123.572 54.1735 123.572 55.3031C123.572 56.4327 122.657 57.3484 121.527 57.3484Z" fill="#C2DBFF"/>
<path d="M112.336 57.3484C111.206 57.3484 110.291 56.4327 110.291 55.3031C110.291 54.1735 111.206 53.2578 112.336 53.2578C113.465 53.2578 114.381 54.1735 114.381 55.3031C114.381 56.4327 113.465 57.3484 112.336 57.3484Z" fill="#C2DBFF"/>
<path d="M103.142 57.3484C102.013 57.3484 101.097 56.4327 101.097 55.3031C101.097 54.1735 102.013 53.2578 103.142 53.2578C104.272 53.2578 105.188 54.1735 105.188 55.3031C105.188 56.4327 104.272 57.3484 103.142 57.3484Z" fill="#C2DBFF"/>
<path d="M93.9509 57.3484C92.8214 57.3484 91.9058 56.4327 91.9058 55.3031C91.9058 54.1735 92.8214 53.2578 93.9509 53.2578C95.0804 53.2578 95.9961 54.1735 95.9961 55.3031C95.9961 56.4327 95.0804 57.3484 93.9509 57.3484Z" fill="#C2DBFF"/>
<path d="M84.7615 57.3484C83.632 57.3484 82.7163 56.4327 82.7163 55.3031C82.7163 54.1735 83.632 53.2578 84.7615 53.2578C85.891 53.2578 86.8066 54.1735 86.8066 55.3031C86.8066 56.4327 85.891 57.3484 84.7615 57.3484Z" fill="#C2DBFF"/>
<path d="M75.5701 57.3484C74.4406 57.3484 73.5249 56.4327 73.5249 55.3031C73.5249 54.1735 74.4406 53.2578 75.5701 53.2578C76.6996 53.2578 77.6152 54.1735 77.6152 55.3031C77.6152 56.4327 76.6996 57.3484 75.5701 57.3484Z" fill="#C2DBFF"/>
<path d="M66.3806 57.3484C65.2511 57.3484 64.3355 56.4327 64.3355 55.3031C64.3355 54.1735 65.2511 53.2578 66.3806 53.2578C67.5101 53.2578 68.4258 54.1735 68.4258 55.3031C68.4258 56.4327 67.5101 57.3484 66.3806 57.3484Z" fill="#C2DBFF"/>
<path d="M57.1892 57.3484C56.0597 57.3484 55.144 56.4327 55.144 55.3031C55.144 54.1735 56.0597 53.2578 57.1892 53.2578C58.3187 53.2578 59.2344 54.1735 59.2344 55.3031C59.2344 56.4327 58.3187 57.3484 57.1892 57.3484Z" fill="#C2DBFF"/>
<path d="M47.9998 57.3484C46.8703 57.3484 45.9546 56.4327 45.9546 55.3031C45.9546 54.1735 46.8703 53.2578 47.9998 53.2578C49.1293 53.2578 50.0449 54.1735 50.0449 55.3031C50.0449 56.4327 49.1293 57.3484 47.9998 57.3484Z" fill="#C2DBFF"/>
<path d="M38.8084 57.3484C37.6788 57.3484 36.7632 56.4327 36.7632 55.3031C36.7632 54.1735 37.6788 53.2578 38.8084 53.2578C39.9379 53.2578 40.8535 54.1735 40.8535 55.3031C40.8535 56.4327 39.9379 57.3484 38.8084 57.3484Z" fill="#C2DBFF"/>
<path d="M29.6208 57.3484C28.4913 57.3484 27.5757 56.4327 27.5757 55.3031C27.5757 54.1735 28.4913 53.2578 29.6208 53.2578C30.7504 53.2578 31.666 54.1735 31.666 55.3031C31.666 56.4327 30.7504 57.3484 29.6208 57.3484Z" fill="#C2DBFF"/>
<path d="M20.4255 57.3484C19.296 57.3484 18.3804 56.4327 18.3804 55.3031C18.3804 54.1735 19.296 53.2578 20.4255 53.2578C21.555 53.2578 22.4707 54.1735 22.4707 55.3031C22.4707 56.4327 21.555 57.3484 20.4255 57.3484Z" fill="#C2DBFF"/>
<path d="M222.623 66.2273C221.493 66.2273 220.578 65.3116 220.578 64.182C220.578 63.0524 221.493 62.1367 222.623 62.1367C223.752 62.1367 224.668 63.0524 224.668 64.182C224.668 65.3116 223.752 66.2273 222.623 66.2273Z" fill="#C2DBFF"/>
<path d="M213.431 66.2273C212.302 66.2273 211.386 65.3116 211.386 64.182C211.386 63.0524 212.302 62.1367 213.431 62.1367C214.561 62.1367 215.477 63.0524 215.477 64.182C215.477 65.3116 214.561 66.2273 213.431 66.2273Z" fill="#C2DBFF"/>
<path d="M204.242 66.2273C203.112 66.2273 202.197 65.3116 202.197 64.182C202.197 63.0524 203.112 62.1367 204.242 62.1367C205.371 62.1367 206.287 63.0524 206.287 64.182C206.287 65.3116 205.371 66.2273 204.242 66.2273Z" fill="#C2DBFF"/>
<path d="M195.049 66.2273C193.919 66.2273 193.003 65.3116 193.003 64.182C193.003 63.0524 193.919 62.1367 195.049 62.1367C196.178 62.1367 197.094 63.0524 197.094 64.182C197.094 65.3116 196.178 66.2273 195.049 66.2273Z" fill="#C2DBFF"/>
<path d="M185.857 66.2273C184.728 66.2273 183.812 65.3116 183.812 64.182C183.812 63.0524 184.728 62.1367 185.857 62.1367C186.987 62.1367 187.902 63.0524 187.902 64.182C187.902 65.3116 186.987 66.2273 185.857 66.2273Z" fill="#C2DBFF"/>
<path d="M176.668 66.2273C175.538 66.2273 174.623 65.3116 174.623 64.182C174.623 63.0524 175.538 62.1367 176.668 62.1367C177.797 62.1367 178.713 63.0524 178.713 64.182C178.713 65.3116 177.797 66.2273 176.668 66.2273Z" fill="#C2DBFF"/>
<path d="M167.476 66.2273C166.347 66.2273 165.431 65.3116 165.431 64.182C165.431 63.0524 166.347 62.1367 167.476 62.1367C168.606 62.1367 169.521 63.0524 169.521 64.182C169.521 65.3116 168.606 66.2273 167.476 66.2273Z" fill="#C2DBFF"/>
<path d="M158.287 66.2273C157.157 66.2273 156.242 65.3116 156.242 64.182C156.242 63.0524 157.157 62.1367 158.287 62.1367C159.416 62.1367 160.332 63.0524 160.332 64.182C160.332 65.3116 159.416 66.2273 158.287 66.2273Z" fill="#C2DBFF"/>
<path d="M149.095 66.2273C147.966 66.2273 147.05 65.3116 147.05 64.182C147.05 63.0524 147.966 62.1367 149.095 62.1367C150.225 62.1367 151.141 63.0524 151.141 64.182C151.141 65.3116 150.225 66.2273 149.095 66.2273Z" fill="#C2DBFF"/>
<path d="M139.908 66.2273C138.778 66.2273 137.863 65.3116 137.863 64.182C137.863 63.0524 138.778 62.1367 139.908 62.1367C141.037 62.1367 141.953 63.0524 141.953 64.182C141.953 65.3116 141.037 66.2273 139.908 66.2273Z" fill="#C2DBFF"/>
<path d="M130.717 66.2273C129.587 66.2273 128.671 65.3116 128.671 64.182C128.671 63.0524 129.587 62.1367 130.717 62.1367C131.846 62.1367 132.762 63.0524 132.762 64.182C132.762 65.3116 131.846 66.2273 130.717 66.2273Z" fill="#C2DBFF"/>
<path d="M121.527 66.2273C120.398 66.2273 119.482 65.3116 119.482 64.182C119.482 63.0524 120.398 62.1367 121.527 62.1367C122.657 62.1367 123.572 63.0524 123.572 64.182C123.572 65.3116 122.657 66.2273 121.527 66.2273Z" fill="#C2DBFF"/>
<path d="M112.336 66.2273C111.206 66.2273 110.291 65.3116 110.291 64.182C110.291 63.0524 111.206 62.1367 112.336 62.1367C113.465 62.1367 114.381 63.0524 114.381 64.182C114.381 65.3116 113.465 66.2273 112.336 66.2273Z" fill="#C2DBFF"/>
<path d="M103.142 66.2273C102.013 66.2273 101.097 65.3116 101.097 64.182C101.097 63.0524 102.013 62.1367 103.142 62.1367C104.272 62.1367 105.188 63.0524 105.188 64.182C105.188 65.3116 104.272 66.2273 103.142 66.2273Z" fill="#C2DBFF"/>
<path d="M93.9509 66.2273C92.8214 66.2273 91.9058 65.3116 91.9058 64.182C91.9058 63.0524 92.8214 62.1367 93.9509 62.1367C95.0804 62.1367 95.9961 63.0524 95.9961 64.182C95.9961 65.3116 95.0804 66.2273 93.9509 66.2273Z" fill="#C2DBFF"/>
<path d="M84.7615 66.2273C83.632 66.2273 82.7163 65.3116 82.7163 64.182C82.7163 63.0524 83.632 62.1367 84.7615 62.1367C85.891 62.1367 86.8066 63.0524 86.8066 64.182C86.8066 65.3116 85.891 66.2273 84.7615 66.2273Z" fill="#C2DBFF"/>
<path d="M75.5701 66.2273C74.4406 66.2273 73.5249 65.3116 73.5249 64.182C73.5249 63.0524 74.4406 62.1367 75.5701 62.1367C76.6996 62.1367 77.6152 63.0524 77.6152 64.182C77.6152 65.3116 76.6996 66.2273 75.5701 66.2273Z" fill="#C2DBFF"/>
<path d="M66.3806 66.2273C65.2511 66.2273 64.3355 65.3116 64.3355 64.182C64.3355 63.0524 65.2511 62.1367 66.3806 62.1367C67.5101 62.1367 68.4258 63.0524 68.4258 64.182C68.4258 65.3116 67.5101 66.2273 66.3806 66.2273Z" fill="#C2DBFF"/>
<path d="M57.1892 66.2273C56.0597 66.2273 55.144 65.3116 55.144 64.182C55.144 63.0524 56.0597 62.1367 57.1892 62.1367C58.3187 62.1367 59.2344 63.0524 59.2344 64.182C59.2344 65.3116 58.3187 66.2273 57.1892 66.2273Z" fill="#C2DBFF"/>
<path d="M47.9998 66.2273C46.8703 66.2273 45.9546 65.3116 45.9546 64.182C45.9546 63.0524 46.8703 62.1367 47.9998 62.1367C49.1293 62.1367 50.0449 63.0524 50.0449 64.182C50.0449 65.3116 49.1293 66.2273 47.9998 66.2273Z" fill="#C2DBFF"/>
<path d="M38.8084 66.2273C37.6788 66.2273 36.7632 65.3116 36.7632 64.182C36.7632 63.0524 37.6788 62.1367 38.8084 62.1367C39.9379 62.1367 40.8535 63.0524 40.8535 64.182C40.8535 65.3116 39.9379 66.2273 38.8084 66.2273Z" fill="#C2DBFF"/>
<path d="M29.6208 66.2273C28.4913 66.2273 27.5757 65.3116 27.5757 64.182C27.5757 63.0524 28.4913 62.1367 29.6208 62.1367C30.7504 62.1367 31.666 63.0524 31.666 64.182C31.666 65.3116 30.7504 66.2273 29.6208 66.2273Z" fill="#C2DBFF"/>
<path d="M20.4255 66.2273C19.296 66.2273 18.3804 65.3116 18.3804 64.182C18.3804 63.0524 19.296 62.1367 20.4255 62.1367C21.555 62.1367 22.4707 63.0524 22.4707 64.182C22.4707 65.3116 21.555 66.2273 20.4255 66.2273Z" fill="#C2DBFF"/>
<path d="M11.2341 66.2273C10.1046 66.2273 9.18898 65.3116 9.18898 64.182C9.18898 63.0524 10.1046 62.1367 11.2341 62.1367C12.3637 62.1367 13.2793 63.0524 13.2793 64.182C13.2793 65.3116 12.3637 66.2273 11.2341 66.2273Z" fill="#C2DBFF"/>
<path d="M222.623 75.1023C221.493 75.1023 220.578 74.1866 220.578 73.057C220.578 71.9274 221.493 71.0117 222.623 71.0117C223.752 71.0117 224.668 71.9274 224.668 73.057C224.668 74.1866 223.752 75.1023 222.623 75.1023Z" fill="#C2DBFF"/>
<path d="M213.431 75.1023C212.302 75.1023 211.386 74.1866 211.386 73.057C211.386 71.9274 212.302 71.0117 213.431 71.0117C214.561 71.0117 215.477 71.9274 215.477 73.057C215.477 74.1866 214.561 75.1023 213.431 75.1023Z" fill="#C2DBFF"/>
<path d="M204.242 75.1023C203.112 75.1023 202.197 74.1866 202.197 73.057C202.197 71.9274 203.112 71.0117 204.242 71.0117C205.371 71.0117 206.287 71.9274 206.287 73.057C206.287 74.1866 205.371 75.1023 204.242 75.1023Z" fill="#C2DBFF"/>
<path d="M195.049 75.1023C193.919 75.1023 193.003 74.1866 193.003 73.057C193.003 71.9274 193.919 71.0117 195.049 71.0117C196.178 71.0117 197.094 71.9274 197.094 73.057C197.094 74.1866 196.178 75.1023 195.049 75.1023Z" fill="#C2DBFF"/>
<path d="M185.857 75.1023C184.728 75.1023 183.812 74.1866 183.812 73.057C183.812 71.9274 184.728 71.0117 185.857 71.0117C186.987 71.0117 187.902 71.9274 187.902 73.057C187.902 74.1866 186.987 75.1023 185.857 75.1023Z" fill="#C2DBFF"/>
<path d="M176.668 75.1023C175.538 75.1023 174.623 74.1866 174.623 73.057C174.623 71.9274 175.538 71.0117 176.668 71.0117C177.797 71.0117 178.713 71.9274 178.713 73.057C178.713 74.1866 177.797 75.1023 176.668 75.1023Z" fill="#C2DBFF"/>
<path d="M167.476 75.1023C166.347 75.1023 165.431 74.1866 165.431 73.057C165.431 71.9274 166.347 71.0117 167.476 71.0117C168.606 71.0117 169.521 71.9274 169.521 73.057C169.521 74.1866 168.606 75.1023 167.476 75.1023Z" fill="#C2DBFF"/>
<path d="M158.287 75.1023C157.157 75.1023 156.242 74.1866 156.242 73.057C156.242 71.9274 157.157 71.0117 158.287 71.0117C159.416 71.0117 160.332 71.9274 160.332 73.057C160.332 74.1866 159.416 75.1023 158.287 75.1023Z" fill="#C2DBFF"/>
<path d="M149.095 75.1023C147.966 75.1023 147.05 74.1866 147.05 73.057C147.05 71.9274 147.966 71.0117 149.095 71.0117C150.225 71.0117 151.141 71.9274 151.141 73.057C151.141 74.1866 150.225 75.1023 149.095 75.1023Z" fill="#C2DBFF"/>
<path d="M139.908 75.1023C138.778 75.1023 137.863 74.1866 137.863 73.057C137.863 71.9274 138.778 71.0117 139.908 71.0117C141.037 71.0117 141.953 71.9274 141.953 73.057C141.953 74.1866 141.037 75.1023 139.908 75.1023Z" fill="#C2DBFF"/>
<path d="M130.717 75.1023C129.587 75.1023 128.671 74.1866 128.671 73.057C128.671 71.9274 129.587 71.0117 130.717 71.0117C131.846 71.0117 132.762 71.9274 132.762 73.057C132.762 74.1866 131.846 75.1023 130.717 75.1023Z" fill="#C2DBFF"/>
<path d="M121.527 75.1023C120.398 75.1023 119.482 74.1866 119.482 73.057C119.482 71.9274 120.398 71.0117 121.527 71.0117C122.657 71.0117 123.572 71.9274 123.572 73.057C123.572 74.1866 122.657 75.1023 121.527 75.1023Z" fill="#C2DBFF"/>
<path d="M112.336 75.1023C111.206 75.1023 110.291 74.1866 110.291 73.057C110.291 71.9274 111.206 71.0117 112.336 71.0117C113.465 71.0117 114.381 71.9274 114.381 73.057C114.381 74.1866 113.465 75.1023 112.336 75.1023Z" fill="#C2DBFF"/>
<path d="M103.142 75.1023C102.013 75.1023 101.097 74.1866 101.097 73.057C101.097 71.9274 102.013 71.0117 103.142 71.0117C104.272 71.0117 105.188 71.9274 105.188 73.057C105.188 74.1866 104.272 75.1023 103.142 75.1023Z" fill="#C2DBFF"/>
<path d="M93.9509 75.1023C92.8214 75.1023 91.9058 74.1866 91.9058 73.057C91.9058 71.9274 92.8214 71.0117 93.9509 71.0117C95.0804 71.0117 95.9961 71.9274 95.9961 73.057C95.9961 74.1866 95.0804 75.1023 93.9509 75.1023Z" fill="#C2DBFF"/>
<path d="M84.7615 75.1023C83.632 75.1023 82.7163 74.1866 82.7163 73.057C82.7163 71.9274 83.632 71.0117 84.7615 71.0117C85.891 71.0117 86.8066 71.9274 86.8066 73.057C86.8066 74.1866 85.891 75.1023 84.7615 75.1023Z" fill="#C2DBFF"/>
<path d="M75.5701 75.1023C74.4406 75.1023 73.5249 74.1866 73.5249 73.057C73.5249 71.9274 74.4406 71.0117 75.5701 71.0117C76.6996 71.0117 77.6152 71.9274 77.6152 73.057C77.6152 74.1866 76.6996 75.1023 75.5701 75.1023Z" fill="#C2DBFF"/>
<path d="M66.3806 75.1023C65.2511 75.1023 64.3355 74.1866 64.3355 73.057C64.3355 71.9274 65.2511 71.0117 66.3806 71.0117C67.5101 71.0117 68.4258 71.9274 68.4258 73.057C68.4258 74.1866 67.5101 75.1023 66.3806 75.1023Z" fill="#C2DBFF"/>
<path d="M57.1892 75.1023C56.0597 75.1023 55.144 74.1866 55.144 73.057C55.144 71.9274 56.0597 71.0117 57.1892 71.0117C58.3187 71.0117 59.2344 71.9274 59.2344 73.057C59.2344 74.1866 58.3187 75.1023 57.1892 75.1023Z" fill="#C2DBFF"/>
<path d="M47.9998 75.1023C46.8703 75.1023 45.9546 74.1866 45.9546 73.057C45.9546 71.9274 46.8703 71.0117 47.9998 71.0117C49.1293 71.0117 50.0449 71.9274 50.0449 73.057C50.0449 74.1866 49.1293 75.1023 47.9998 75.1023Z" fill="#C2DBFF"/>
<path d="M38.8084 75.1023C37.6788 75.1023 36.7632 74.1866 36.7632 73.057C36.7632 71.9274 37.6788 71.0117 38.8084 71.0117C39.9379 71.0117 40.8535 71.9274 40.8535 73.057C40.8535 74.1866 39.9379 75.1023 38.8084 75.1023Z" fill="#C2DBFF"/>
<path d="M29.6208 75.1023C28.4913 75.1023 27.5757 74.1866 27.5757 73.057C27.5757 71.9274 28.4913 71.0117 29.6208 71.0117C30.7504 71.0117 31.666 71.9274 31.666 73.057C31.666 74.1866 30.7504 75.1023 29.6208 75.1023Z" fill="#C2DBFF"/>
<path d="M20.4255 75.1023C19.296 75.1023 18.3804 74.1866 18.3804 73.057C18.3804 71.9274 19.296 71.0117 20.4255 71.0117C21.555 71.0117 22.4707 71.9274 22.4707 73.057C22.4707 74.1866 21.555 75.1023 20.4255 75.1023Z" fill="#C2DBFF"/>
<path d="M11.2341 75.1023C10.1046 75.1023 9.18898 74.1866 9.18898 73.057C9.18898 71.9274 10.1046 71.0117 11.2341 71.0117C12.3637 71.0117 13.2793 71.9274 13.2793 73.057C13.2793 74.1866 12.3637 75.1023 11.2341 75.1023Z" fill="#C2DBFF"/>
<path d="M2.04468 75.1023C0.915177 75.1023 -0.000455856 74.1866 -0.000455856 73.057C-0.000455856 71.9274 0.915177 71.0117 2.04468 71.0117C3.17419 71.0117 4.08984 71.9274 4.08984 73.057C4.08984 74.1866 3.17419 75.1023 2.04468 75.1023Z" fill="#C2DBFF"/>
<path d="M222.623 83.9773C221.493 83.9773 220.578 83.0616 220.578 81.932C220.578 80.8024 221.493 79.8867 222.623 79.8867C223.752 79.8867 224.668 80.8024 224.668 81.932C224.668 83.0616 223.752 83.9773 222.623 83.9773Z" fill="#C2DBFF"/>
<path d="M213.431 83.9773C212.302 83.9773 211.386 83.0616 211.386 81.932C211.386 80.8024 212.302 79.8867 213.431 79.8867C214.561 79.8867 215.477 80.8024 215.477 81.932C215.477 83.0616 214.561 83.9773 213.431 83.9773Z" fill="#C2DBFF"/>
<path d="M204.242 83.9773C203.112 83.9773 202.197 83.0616 202.197 81.932C202.197 80.8024 203.112 79.8867 204.242 79.8867C205.371 79.8867 206.287 80.8024 206.287 81.932C206.287 83.0616 205.371 83.9773 204.242 83.9773Z" fill="#C2DBFF"/>
<path d="M195.049 83.9773C193.919 83.9773 193.003 83.0616 193.003 81.932C193.003 80.8024 193.919 79.8867 195.049 79.8867C196.178 79.8867 197.094 80.8024 197.094 81.932C197.094 83.0616 196.178 83.9773 195.049 83.9773Z" fill="#C2DBFF"/>
<path d="M185.857 83.9773C184.728 83.9773 183.812 83.0616 183.812 81.932C183.812 80.8024 184.728 79.8867 185.857 79.8867C186.987 79.8867 187.902 80.8024 187.902 81.932C187.902 83.0616 186.987 83.9773 185.857 83.9773Z" fill="#C2DBFF"/>
<path d="M176.668 83.9773C175.538 83.9773 174.623 83.0616 174.623 81.932C174.623 80.8024 175.538 79.8867 176.668 79.8867C177.797 79.8867 178.713 80.8024 178.713 81.932C178.713 83.0616 177.797 83.9773 176.668 83.9773Z" fill="#C2DBFF"/>
<path d="M167.476 83.9773C166.347 83.9773 165.431 83.0616 165.431 81.932C165.431 80.8024 166.347 79.8867 167.476 79.8867C168.606 79.8867 169.521 80.8024 169.521 81.932C169.521 83.0616 168.606 83.9773 167.476 83.9773Z" fill="#C2DBFF"/>
<path d="M158.287 83.9773C157.157 83.9773 156.242 83.0616 156.242 81.932C156.242 80.8024 157.157 79.8867 158.287 79.8867C159.416 79.8867 160.332 80.8024 160.332 81.932C160.332 83.0616 159.416 83.9773 158.287 83.9773Z" fill="#C2DBFF"/>
<path d="M149.095 83.9773C147.966 83.9773 147.05 83.0616 147.05 81.932C147.05 80.8024 147.966 79.8867 149.095 79.8867C150.225 79.8867 151.141 80.8024 151.141 81.932C151.141 83.0616 150.225 83.9773 149.095 83.9773Z" fill="#C2DBFF"/>
<path d="M139.908 83.9773C138.778 83.9773 137.863 83.0616 137.863 81.932C137.863 80.8024 138.778 79.8867 139.908 79.8867C141.037 79.8867 141.953 80.8024 141.953 81.932C141.953 83.0616 141.037 83.9773 139.908 83.9773Z" fill="#C2DBFF"/>
<path d="M130.717 83.9773C129.587 83.9773 128.671 83.0616 128.671 81.932C128.671 80.8024 129.587 79.8867 130.717 79.8867C131.846 79.8867 132.762 80.8024 132.762 81.932C132.762 83.0616 131.846 83.9773 130.717 83.9773Z" fill="#C2DBFF"/>
<path d="M121.527 83.9773C120.398 83.9773 119.482 83.0616 119.482 81.932C119.482 80.8024 120.398 79.8867 121.527 79.8867C122.657 79.8867 123.572 80.8024 123.572 81.932C123.572 83.0616 122.657 83.9773 121.527 83.9773Z" fill="#C2DBFF"/>
<path d="M112.336 83.9773C111.206 83.9773 110.291 83.0616 110.291 81.932C110.291 80.8024 111.206 79.8867 112.336 79.8867C113.465 79.8867 114.381 80.8024 114.381 81.932C114.381 83.0616 113.465 83.9773 112.336 83.9773Z" fill="#C2DBFF"/>
<path d="M103.142 83.9773C102.013 83.9773 101.097 83.0616 101.097 81.932C101.097 80.8024 102.013 79.8867 103.142 79.8867C104.272 79.8867 105.188 80.8024 105.188 81.932C105.188 83.0616 104.272 83.9773 103.142 83.9773Z" fill="#C2DBFF"/>
<path d="M93.9509 83.9773C92.8214 83.9773 91.9058 83.0616 91.9058 81.932C91.9058 80.8024 92.8214 79.8867 93.9509 79.8867C95.0804 79.8867 95.9961 80.8024 95.9961 81.932C95.9961 83.0616 95.0804 83.9773 93.9509 83.9773Z" fill="#C2DBFF"/>
<path d="M84.7615 83.9773C83.632 83.9773 82.7163 83.0616 82.7163 81.932C82.7163 80.8024 83.632 79.8867 84.7615 79.8867C85.891 79.8867 86.8066 80.8024 86.8066 81.932C86.8066 83.0616 85.891 83.9773 84.7615 83.9773Z" fill="#C2DBFF"/>
<path d="M75.5701 83.9773C74.4406 83.9773 73.5249 83.0616 73.5249 81.932C73.5249 80.8024 74.4406 79.8867 75.5701 79.8867C76.6996 79.8867 77.6152 80.8024 77.6152 81.932C77.6152 83.0616 76.6996 83.9773 75.5701 83.9773Z" fill="#C2DBFF"/>
<path d="M66.3806 83.9773C65.2511 83.9773 64.3355 83.0616 64.3355 81.932C64.3355 80.8024 65.2511 79.8867 66.3806 79.8867C67.5101 79.8867 68.4258 80.8024 68.4258 81.932C68.4258 83.0616 67.5101 83.9773 66.3806 83.9773Z" fill="#C2DBFF"/>
<path d="M57.1892 83.9773C56.0597 83.9773 55.144 83.0616 55.144 81.932C55.144 80.8024 56.0597 79.8867 57.1892 79.8867C58.3187 79.8867 59.2344 80.8024 59.2344 81.932C59.2344 83.0616 58.3187 83.9773 57.1892 83.9773Z" fill="#C2DBFF"/>
<path d="M47.9998 83.9773C46.8703 83.9773 45.9546 83.0616 45.9546 81.932C45.9546 80.8024 46.8703 79.8867 47.9998 79.8867C49.1293 79.8867 50.0449 80.8024 50.0449 81.932C50.0449 83.0616 49.1293 83.9773 47.9998 83.9773Z" fill="#C2DBFF"/>
<path d="M38.8084 83.9773C37.6788 83.9773 36.7632 83.0616 36.7632 81.932C36.7632 80.8024 37.6788 79.8867 38.8084 79.8867C39.9379 79.8867 40.8535 80.8024 40.8535 81.932C40.8535 83.0616 39.9379 83.9773 38.8084 83.9773Z" fill="#C2DBFF"/>
<path d="M29.6208 83.9773C28.4913 83.9773 27.5757 83.0616 27.5757 81.932C27.5757 80.8024 28.4913 79.8867 29.6208 79.8867C30.7504 79.8867 31.666 80.8024 31.666 81.932C31.666 83.0616 30.7504 83.9773 29.6208 83.9773Z" fill="#C2DBFF"/>
<path d="M20.4255 83.9773C19.296 83.9773 18.3804 83.0616 18.3804 81.932C18.3804 80.8024 19.296 79.8867 20.4255 79.8867C21.555 79.8867 22.4707 80.8024 22.4707 81.932C22.4707 83.0616 21.555 83.9773 20.4255 83.9773Z" fill="#C2DBFF"/>
<path d="M11.2341 83.9773C10.1046 83.9773 9.18898 83.0616 9.18898 81.932C9.18898 80.8024 10.1046 79.8867 11.2341 79.8867C12.3637 79.8867 13.2793 80.8024 13.2793 81.932C13.2793 83.0616 12.3637 83.9773 11.2341 83.9773Z" fill="#C2DBFF"/>
<path d="M2.04468 83.9773C0.915177 83.9773 -0.000455856 83.0616 -0.000455856 81.932C-0.000455856 80.8024 0.915177 79.8867 2.04468 79.8867C3.17419 79.8867 4.08984 80.8024 4.08984 81.932C4.08984 83.0616 3.17419 83.9773 2.04468 83.9773Z" fill="#C2DBFF"/>
<path d="M204.242 92.8563C203.112 92.8563 202.197 91.9405 202.197 90.8109C202.197 89.6813 203.112 88.7656 204.242 88.7656C205.371 88.7656 206.287 89.6813 206.287 90.8109C206.287 91.9405 205.371 92.8563 204.242 92.8563Z" fill="#C2DBFF"/>
<path d="M195.049 92.8563C193.919 92.8563 193.003 91.9405 193.003 90.8109C193.003 89.6813 193.919 88.7656 195.049 88.7656C196.178 88.7656 197.094 89.6813 197.094 90.8109C197.094 91.9405 196.178 92.8563 195.049 92.8563Z" fill="#C2DBFF"/>
<path d="M185.857 92.8563C184.728 92.8563 183.812 91.9405 183.812 90.8109C183.812 89.6813 184.728 88.7656 185.857 88.7656C186.987 88.7656 187.902 89.6813 187.902 90.8109C187.902 91.9405 186.987 92.8563 185.857 92.8563Z" fill="#C2DBFF"/>
<path d="M176.668 92.8563C175.538 92.8563 174.623 91.9405 174.623 90.8109C174.623 89.6813 175.538 88.7656 176.668 88.7656C177.797 88.7656 178.713 89.6813 178.713 90.8109C178.713 91.9405 177.797 92.8563 176.668 92.8563Z" fill="#C2DBFF"/>
<path d="M167.476 92.8563C166.347 92.8563 165.431 91.9405 165.431 90.8109C165.431 89.6813 166.347 88.7656 167.476 88.7656C168.606 88.7656 169.521 89.6813 169.521 90.8109C169.521 91.9405 168.606 92.8563 167.476 92.8563Z" fill="#C2DBFF"/>
<path d="M158.287 92.8563C157.157 92.8563 156.242 91.9405 156.242 90.8109C156.242 89.6813 157.157 88.7656 158.287 88.7656C159.416 88.7656 160.332 89.6813 160.332 90.8109C160.332 91.9405 159.416 92.8563 158.287 92.8563Z" fill="#C2DBFF"/>
<path d="M149.095 92.8563C147.966 92.8563 147.05 91.9405 147.05 90.8109C147.05 89.6813 147.966 88.7656 149.095 88.7656C150.225 88.7656 151.141 89.6813 151.141 90.8109C151.141 91.9405 150.225 92.8563 149.095 92.8563Z" fill="#C2DBFF"/>
<path d="M139.908 92.8563C138.778 92.8563 137.863 91.9405 137.863 90.8109C137.863 89.6813 138.778 88.7656 139.908 88.7656C141.037 88.7656 141.953 89.6813 141.953 90.8109C141.953 91.9405 141.037 92.8563 139.908 92.8563Z" fill="#C2DBFF"/>
<path d="M130.717 92.8563C129.587 92.8563 128.671 91.9405 128.671 90.8109C128.671 89.6813 129.587 88.7656 130.717 88.7656C131.846 88.7656 132.762 89.6813 132.762 90.8109C132.762 91.9405 131.846 92.8563 130.717 92.8563Z" fill="#C2DBFF"/>
<path d="M121.527 92.8563C120.398 92.8563 119.482 91.9405 119.482 90.8109C119.482 89.6813 120.398 88.7656 121.527 88.7656C122.657 88.7656 123.572 89.6813 123.572 90.8109C123.572 91.9405 122.657 92.8563 121.527 92.8563Z" fill="#C2DBFF"/>
<path d="M112.336 92.8563C111.206 92.8563 110.291 91.9405 110.291 90.8109C110.291 89.6813 111.206 88.7656 112.336 88.7656C113.465 88.7656 114.381 89.6813 114.381 90.8109C114.381 91.9405 113.465 92.8563 112.336 92.8563Z" fill="#C2DBFF"/>
<path d="M103.142 92.8563C102.013 92.8563 101.097 91.9405 101.097 90.8109C101.097 89.6813 102.013 88.7656 103.142 88.7656C104.272 88.7656 105.188 89.6813 105.188 90.8109C105.188 91.9405 104.272 92.8563 103.142 92.8563Z" fill="#C2DBFF"/>
<path d="M93.9509 92.8563C92.8214 92.8563 91.9058 91.9405 91.9058 90.8109C91.9058 89.6813 92.8214 88.7656 93.9509 88.7656C95.0804 88.7656 95.9961 89.6813 95.9961 90.8109C95.9961 91.9405 95.0804 92.8563 93.9509 92.8563Z" fill="#C2DBFF"/>
<path d="M84.7615 92.8563C83.632 92.8563 82.7163 91.9405 82.7163 90.8109C82.7163 89.6813 83.632 88.7656 84.7615 88.7656C85.891 88.7656 86.8066 89.6813 86.8066 90.8109C86.8066 91.9405 85.891 92.8563 84.7615 92.8563Z" fill="#C2DBFF"/>
<path d="M75.5701 92.8563C74.4406 92.8563 73.5249 91.9405 73.5249 90.8109C73.5249 89.6813 74.4406 88.7656 75.5701 88.7656C76.6996 88.7656 77.6152 89.6813 77.6152 90.8109C77.6152 91.9405 76.6996 92.8563 75.5701 92.8563Z" fill="#C2DBFF"/>
<path d="M66.3806 92.8563C65.2511 92.8563 64.3355 91.9405 64.3355 90.8109C64.3355 89.6813 65.2511 88.7656 66.3806 88.7656C67.5101 88.7656 68.4258 89.6813 68.4258 90.8109C68.4258 91.9405 67.5101 92.8563 66.3806 92.8563Z" fill="#C2DBFF"/>
<path d="M57.1892 92.8563C56.0597 92.8563 55.144 91.9405 55.144 90.8109C55.144 89.6813 56.0597 88.7656 57.1892 88.7656C58.3187 88.7656 59.2344 89.6813 59.2344 90.8109C59.2344 91.9405 58.3187 92.8563 57.1892 92.8563Z" fill="#C2DBFF"/>
<path d="M47.9998 92.8563C46.8703 92.8563 45.9546 91.9405 45.9546 90.8109C45.9546 89.6813 46.8703 88.7656 47.9998 88.7656C49.1293 88.7656 50.0449 89.6813 50.0449 90.8109C50.0449 91.9405 49.1293 92.8563 47.9998 92.8563Z" fill="#C2DBFF"/>
<path d="M38.8084 92.8563C37.6788 92.8563 36.7632 91.9405 36.7632 90.8109C36.7632 89.6813 37.6788 88.7656 38.8084 88.7656C39.9379 88.7656 40.8535 89.6813 40.8535 90.8109C40.8535 91.9405 39.9379 92.8563 38.8084 92.8563Z" fill="#C2DBFF"/>
<path d="M29.6208 92.8563C28.4913 92.8563 27.5757 91.9405 27.5757 90.8109C27.5757 89.6813 28.4913 88.7656 29.6208 88.7656C30.7504 88.7656 31.666 89.6813 31.666 90.8109C31.666 91.9405 30.7504 92.8563 29.6208 92.8563Z" fill="#C2DBFF"/>
<path d="M20.4255 92.8563C19.296 92.8563 18.3804 91.9405 18.3804 90.8109C18.3804 89.6813 19.296 88.7656 20.4255 88.7656C21.555 88.7656 22.4707 89.6813 22.4707 90.8109C22.4707 91.9405 21.555 92.8563 20.4255 92.8563Z" fill="#C2DBFF"/>
<path d="M11.2341 92.8563C10.1046 92.8563 9.18898 91.9405 9.18898 90.8109C9.18898 89.6813 10.1046 88.7656 11.2341 88.7656C12.3637 88.7656 13.2793 89.6813 13.2793 90.8109C13.2793 91.9405 12.3637 92.8563 11.2341 92.8563Z" fill="#C2DBFF"/>
<path d="M185.857 101.735C184.728 101.735 183.812 100.819 183.812 99.6899C183.812 98.5603 184.728 97.6445 185.857 97.6445C186.987 97.6445 187.902 98.5603 187.902 99.6899C187.902 100.819 186.987 101.735 185.857 101.735Z" fill="#C2DBFF"/>
<path d="M176.668 101.735C175.538 101.735 174.623 100.819 174.623 99.6899C174.623 98.5603 175.538 97.6445 176.668 97.6445C177.797 97.6445 178.713 98.5603 178.713 99.6899C178.713 100.819 177.797 101.735 176.668 101.735Z" fill="#C2DBFF"/>
<path d="M167.476 101.735C166.347 101.735 165.431 100.819 165.431 99.6899C165.431 98.5603 166.347 97.6445 167.476 97.6445C168.606 97.6445 169.521 98.5603 169.521 99.6899C169.521 100.819 168.606 101.735 167.476 101.735Z" fill="#C2DBFF"/>
<path d="M149.095 101.735C147.966 101.735 147.05 100.819 147.05 99.6899C147.05 98.5603 147.966 97.6445 149.095 97.6445C150.225 97.6445 151.141 98.5603 151.141 99.6899C151.141 100.819 150.225 101.735 149.095 101.735Z" fill="#C2DBFF"/>
<path d="M139.908 101.735C138.778 101.735 137.863 100.819 137.863 99.6899C137.863 98.5603 138.778 97.6445 139.908 97.6445C141.037 97.6445 141.953 98.5603 141.953 99.6899C141.953 100.819 141.037 101.735 139.908 101.735Z" fill="#C2DBFF"/>
<path d="M130.717 101.735C129.587 101.735 128.671 100.819 128.671 99.6899C128.671 98.5603 129.587 97.6445 130.717 97.6445C131.846 97.6445 132.762 98.5603 132.762 99.6899C132.762 100.819 131.846 101.735 130.717 101.735Z" fill="#C2DBFF"/>
<path d="M121.527 101.735C120.398 101.735 119.482 100.819 119.482 99.6899C119.482 98.5603 120.398 97.6445 121.527 97.6445C122.657 97.6445 123.572 98.5603 123.572 99.6899C123.572 100.819 122.657 101.735 121.527 101.735Z" fill="#C2DBFF"/>
<path d="M112.336 101.735C111.206 101.735 110.291 100.819 110.291 99.6899C110.291 98.5603 111.206 97.6445 112.336 97.6445C113.465 97.6445 114.381 98.5603 114.381 99.6899C114.381 100.819 113.465 101.735 112.336 101.735Z" fill="#C2DBFF"/>
<path d="M103.142 101.735C102.013 101.735 101.097 100.819 101.097 99.6899C101.097 98.5603 102.013 97.6445 103.142 97.6445C104.272 97.6445 105.188 98.5603 105.188 99.6899C105.188 100.819 104.272 101.735 103.142 101.735Z" fill="#C2DBFF"/>
<path d="M93.9509 101.735C92.8214 101.735 91.9058 100.819 91.9058 99.6899C91.9058 98.5603 92.8214 97.6445 93.9509 97.6445C95.0804 97.6445 95.9961 98.5603 95.9961 99.6899C95.9961 100.819 95.0804 101.735 93.9509 101.735Z" fill="#C2DBFF"/>
<path d="M84.7615 101.735C83.632 101.735 82.7163 100.819 82.7163 99.6899C82.7163 98.5603 83.632 97.6445 84.7615 97.6445C85.891 97.6445 86.8066 98.5603 86.8066 99.6899C86.8066 100.819 85.891 101.735 84.7615 101.735Z" fill="#C2DBFF"/>
<path d="M75.5701 101.735C74.4406 101.735 73.5249 100.819 73.5249 99.6899C73.5249 98.5603 74.4406 97.6445 75.5701 97.6445C76.6996 97.6445 77.6152 98.5603 77.6152 99.6899C77.6152 100.819 76.6996 101.735 75.5701 101.735Z" fill="#C2DBFF"/>
<path d="M66.3806 101.735C65.2511 101.735 64.3355 100.819 64.3355 99.6899C64.3355 98.5603 65.2511 97.6445 66.3806 97.6445C67.5101 97.6445 68.4258 98.5603 68.4258 99.6899C68.4258 100.819 67.5101 101.735 66.3806 101.735Z" fill="#C2DBFF"/>
<path d="M57.1892 101.735C56.0597 101.735 55.144 100.819 55.144 99.6899C55.144 98.5603 56.0597 97.6445 57.1892 97.6445C58.3187 97.6445 59.2344 98.5603 59.2344 99.6899C59.2344 100.819 58.3187 101.735 57.1892 101.735Z" fill="#C2DBFF"/>
<path d="M47.9998 101.735C46.8703 101.735 45.9546 100.819 45.9546 99.6899C45.9546 98.5603 46.8703 97.6445 47.9998 97.6445C49.1293 97.6445 50.0449 98.5603 50.0449 99.6899C50.0449 100.819 49.1293 101.735 47.9998 101.735Z" fill="#C2DBFF"/>
<path d="M38.8084 101.735C37.6788 101.735 36.7632 100.819 36.7632 99.6899C36.7632 98.5603 37.6788 97.6445 38.8084 97.6445C39.9379 97.6445 40.8535 98.5603 40.8535 99.6899C40.8535 100.819 39.9379 101.735 38.8084 101.735Z" fill="#C2DBFF"/>
<path d="M29.6208 101.735C28.4913 101.735 27.5757 100.819 27.5757 99.6899C27.5757 98.5603 28.4913 97.6445 29.6208 97.6445C30.7504 97.6445 31.666 98.5603 31.666 99.6899C31.666 100.819 30.7504 101.735 29.6208 101.735Z" fill="#C2DBFF"/>
<path d="M20.4255 101.735C19.296 101.735 18.3804 100.819 18.3804 99.6899C18.3804 98.5603 19.296 97.6445 20.4255 97.6445C21.555 97.6445 22.4707 98.5603 22.4707 99.6899C22.4707 100.819 21.555 101.735 20.4255 101.735Z" fill="#C2DBFF"/>
<path d="M139.908 110.61C138.778 110.61 137.863 109.694 137.863 108.565C137.863 107.435 138.778 106.52 139.908 106.52C141.037 106.52 141.953 107.435 141.953 108.565C141.953 109.694 141.037 110.61 139.908 110.61Z" fill="#C2DBFF"/>
<path d="M130.717 110.61C129.587 110.61 128.671 109.694 128.671 108.565C128.671 107.435 129.587 106.52 130.717 106.52C131.846 106.52 132.762 107.435 132.762 108.565C132.762 109.694 131.846 110.61 130.717 110.61Z" fill="#C2DBFF"/>
<path d="M121.527 110.61C120.398 110.61 119.482 109.694 119.482 108.565C119.482 107.435 120.398 106.52 121.527 106.52C122.657 106.52 123.572 107.435 123.572 108.565C123.572 109.694 122.657 110.61 121.527 110.61Z" fill="#C2DBFF"/>
<path d="M112.336 110.61C111.206 110.61 110.291 109.694 110.291 108.565C110.291 107.435 111.206 106.52 112.336 106.52C113.465 106.52 114.381 107.435 114.381 108.565C114.381 109.694 113.465 110.61 112.336 110.61Z" fill="#C2DBFF"/>
<path d="M103.142 110.61C102.013 110.61 101.097 109.694 101.097 108.565C101.097 107.435 102.013 106.52 103.142 106.52C104.272 106.52 105.188 107.435 105.188 108.565C105.188 109.694 104.272 110.61 103.142 110.61Z" fill="#C2DBFF"/>
<path d="M93.9509 110.61C92.8214 110.61 91.9058 109.694 91.9058 108.565C91.9058 107.435 92.8214 106.52 93.9509 106.52C95.0804 106.52 95.9961 107.435 95.9961 108.565C95.9961 109.694 95.0804 110.61 93.9509 110.61Z" fill="#C2DBFF"/>
<path d="M84.7615 110.61C83.632 110.61 82.7163 109.694 82.7163 108.565C82.7163 107.435 83.632 106.52 84.7615 106.52C85.891 106.52 86.8066 107.435 86.8066 108.565C86.8066 109.694 85.891 110.61 84.7615 110.61Z" fill="#C2DBFF"/>
<path d="M75.5701 110.61C74.4406 110.61 73.5249 109.694 73.5249 108.565C73.5249 107.435 74.4406 106.52 75.5701 106.52C76.6996 106.52 77.6152 107.435 77.6152 108.565C77.6152 109.694 76.6996 110.61 75.5701 110.61Z" fill="#C2DBFF"/>
<path d="M112.336 119.485C111.206 119.485 110.291 118.569 110.291 117.44C110.291 116.31 111.206 115.395 112.336 115.395C113.465 115.395 114.381 116.31 114.381 117.44C114.381 118.569 113.465 119.485 112.336 119.485Z" fill="#C2DBFF"/>
<path d="M103.142 119.485C102.013 119.485 101.097 118.569 101.097 117.44C101.097 116.31 102.013 115.395 103.142 115.395C104.272 115.395 105.188 116.31 105.188 117.44C105.188 118.569 104.272 119.485 103.142 119.485Z" fill="#C2DBFF"/>
<path d="M93.9509 119.485C92.8214 119.485 91.9058 118.569 91.9058 117.44C91.9058 116.31 92.8214 115.395 93.9509 115.395C95.0804 115.395 95.9961 116.31 95.9961 117.44C95.9961 118.569 95.0804 119.485 93.9509 119.485Z" fill="#C2DBFF"/>
<path d="M84.7615 119.485C83.632 119.485 82.7163 118.569 82.7163 117.44C82.7163 116.31 83.632 115.395 84.7615 115.395C85.891 115.395 86.8066 116.31 86.8066 117.44C86.8066 118.569 85.891 119.485 84.7615 119.485Z" fill="#C2DBFF"/>
</svg>
