<?xml version="1.0" standalone="no"?>
<!DOCTYPE svg PUBLIC "-//W3C//DTD SVG 20010904//EN"
 "http://www.w3.org/TR/2001/REC-SVG-20010904/DTD/svg10.dtd">
<svg version="1.0" xmlns="http://www.w3.org/2000/svg"
 width="700.000000pt" height="700.000000pt" viewBox="0 0 700.000000 700.000000"
 preserveAspectRatio="xMidYMid meet">
<metadata>
Created by potrace 1.11, written by Peter Selinger 2001-2013
</metadata>
<g transform="translate(0.000000,700.000000) scale(0.100000,-0.100000)"
fill="#000000" stroke="none">
<path d="M2775 5439 c-692 -63 -1294 -542 -1515 -1207 -73 -220 -84 -295 -84
-567 0 -212 2 -252 22 -345 75 -344 230 -641 461 -882 256 -267 547 -432 903
-512 188 -42 318 -48 1018 -44 573 3 657 6 751 22 l105 19 325 -126 c557 -215
620 -239 626 -233 3 3 -13 122 -35 263 -23 142 -51 320 -62 397 l-20 138 68
72 c232 244 390 547 464 886 19 92 22 134 23 340 0 207 -3 249 -23 349 -159
787 -800 1360 -1596 1431 -132 12 -1301 11 -1431 -1z m1525 -803 c343 -81 623
-337 728 -666 35 -111 46 -180 46 -305 0 -125 -11 -194 -46 -305 -97 -305
-346 -549 -658 -646 -125 -39 -216 -44 -850 -44 -740 0 -789 4 -984 87 -208
88 -395 269 -496 478 -71 149 -106 328 -95 488 31 481 387 863 861 926 38 5
373 8 744 7 606 -2 683 -4 750 -20z"/>
</g>
</svg>
