<svg width="16" height="16" viewBox="0 0 16 16" fill="none" xmlns="http://www.w3.org/2000/svg">
<g clip-path="url(#clip0)">
<path d="M8.00279 3.89209C5.73413 3.89209 3.89746 5.73076 3.89746 7.99742C3.89746 10.2661 5.73613 12.1028 8.00279 12.1028C10.2715 12.1028 12.1081 10.2641 12.1081 7.99742C12.1081 5.72876 10.2695 3.89209 8.00279 3.89209ZM8.00279 10.6621C6.53013 10.6621 5.33813 9.46942 5.33813 7.99742C5.33813 6.52542 6.53079 5.33276 8.00279 5.33276C9.47479 5.33276 10.6675 6.52542 10.6675 7.99742C10.6681 9.46942 9.47546 10.6621 8.00279 10.6621Z" fill="#757575"/>
<path d="M11.2988 0.0508681C9.82682 -0.0177985 6.18082 -0.0144652 4.70749 0.0508681C3.41282 0.111535 2.27082 0.424201 1.35015 1.34487C-0.188515 2.88353 0.00815151 4.95686 0.00815151 7.99752C0.00815151 11.1095 -0.165182 13.1349 1.35015 14.6502C2.89482 16.1942 4.99815 15.9922 8.00282 15.9922C11.0855 15.9922 12.1495 15.9942 13.2395 15.5722C14.7215 14.9968 15.8402 13.6722 15.9495 11.2929C16.0188 9.82019 16.0148 6.17486 15.9495 4.70153C15.8175 1.89287 14.3102 0.189535 11.2988 0.0508681ZM13.6288 13.6322C12.6202 14.6408 11.2208 14.5508 7.98349 14.5508C4.65015 14.5508 3.31348 14.6002 2.33815 13.6222C1.21482 12.5042 1.41815 10.7089 1.41815 7.98686C1.41815 4.30353 1.04015 1.65087 4.73682 1.46153C5.58615 1.43153 5.83615 1.42153 7.97415 1.42153L8.00415 1.44153C11.5568 1.44153 14.3442 1.06953 14.5115 4.76553C14.5495 5.60886 14.5582 5.86219 14.5582 7.99686C14.5575 11.2915 14.6202 12.6362 13.6288 13.6322Z" fill="#757575"/>
<path d="M12.2709 4.68917C12.8007 4.68917 13.2302 4.25966 13.2302 3.72984C13.2302 3.20001 12.8007 2.77051 12.2709 2.77051C11.741 2.77051 11.3115 3.20001 11.3115 3.72984C11.3115 4.25966 11.741 4.68917 12.2709 4.68917Z" fill="#757575"/>
</g>
<defs>
<clipPath id="clip0">
<rect width="16" height="16" fill="white"/>
</clipPath>
</defs>
</svg>
