<svg width="144" height="48" viewBox="0 0 144 48" fill="none" xmlns="http://www.w3.org/2000/svg">
<path d="M30.0757 24.3608C30.0885 23.3592 30.3536 22.3772 30.8463 21.506C31.3389 20.6349 32.0431 19.9029 32.8934 19.3783C32.3532 18.6041 31.6407 17.967 30.8123 17.5176C29.9839 17.0681 29.0625 16.8187 28.1212 16.7891C26.1134 16.5776 24.1669 17.9949 23.1437 17.9949C22.1008 17.9949 20.5254 16.8101 18.8291 16.8452C17.7319 16.8807 16.6625 17.201 15.7252 17.7746C14.788 18.3483 14.0147 19.1558 13.4809 20.1186C11.1685 24.1367 12.8933 30.0419 15.1085 33.2898C16.2168 34.8803 17.512 36.6568 19.2068 36.5938C20.8653 36.5248 21.4847 35.5324 23.4866 35.5324C25.47 35.5324 26.0511 36.5938 27.7803 36.5537C29.56 36.5247 30.6812 34.9563 31.7506 33.3508C32.5469 32.2176 33.1596 30.9651 33.5661 29.6398C32.5322 29.2009 31.6499 28.4663 31.0292 27.5275C30.4085 26.5888 30.0769 25.4874 30.0757 24.3608Z" fill="white"/>
<path d="M26.8096 14.6532C27.7799 13.4842 28.2579 11.9816 28.1422 10.4645C26.6597 10.6208 25.2904 11.3318 24.3069 12.456C23.8261 13.0052 23.4578 13.6442 23.2232 14.3363C22.9886 15.0284 22.8921 15.7601 22.9394 16.4897C23.6809 16.4974 24.4145 16.3361 25.0849 16.018C25.7552 15.6998 26.3449 15.2332 26.8096 14.6532Z" fill="white"/>
<path d="M51.04 32.5676H45.3804L44.0212 36.5953H41.624L46.9847 21.6938H49.4753L54.8361 36.5953H52.398L51.04 32.5676ZM45.9665 30.709H50.4527L48.2412 24.1723H48.1793L45.9665 30.709Z" fill="white"/>
<path d="M66.413 31.1637C66.413 34.5398 64.6125 36.7089 61.8953 36.7089C61.207 36.7451 60.5225 36.586 59.9201 36.2498C59.3178 35.9136 58.8219 35.414 58.4893 34.8082H58.4379V40.1894H56.2158V25.7309H58.3667V27.5379H58.4075C58.7554 26.9349 59.2597 26.4379 59.8667 26.0997C60.4736 25.7615 61.1606 25.5947 61.8545 25.6172C64.6019 25.6172 66.413 27.7969 66.413 31.1637ZM64.1291 31.1637C64.1291 28.9641 62.9964 27.518 61.2683 27.518C59.5705 27.518 58.4286 28.9945 58.4286 31.1637C58.4286 33.3527 59.5705 34.8187 61.2683 34.8187C62.9964 34.8187 64.1291 33.3832 64.1291 31.1637Z" fill="white"/>
<path d="M78.328 31.1636C78.328 34.5398 76.5275 36.7089 73.8104 36.7089C73.1221 36.7451 72.4376 36.5859 71.8352 36.2498C71.2328 35.9136 70.7369 35.414 70.4043 34.8081H70.3529V40.1894H68.1309V25.7308H70.2817V27.5379H70.3225C70.6704 26.9349 71.1747 26.4379 71.7817 26.0997C72.3886 25.7615 73.0756 25.5947 73.7695 25.6172C76.517 25.6172 78.328 27.7968 78.328 31.1636ZM76.0441 31.1636C76.0441 28.964 74.9115 27.5179 73.1833 27.5179C71.4856 27.5179 70.3436 28.9945 70.3436 31.1636C70.3436 33.3527 71.4856 34.8187 73.1833 34.8187C74.9115 34.8187 76.0441 33.3832 76.0441 31.1636H76.0441Z" fill="white"/>
<path d="M86.2024 32.4434C86.367 33.9211 87.7974 34.8914 89.752 34.8914C91.625 34.8914 92.9724 33.9211 92.9724 32.5886C92.9724 31.432 92.1597 30.7395 90.2354 30.2648L88.3112 29.7996C85.5847 29.1387 84.3189 27.859 84.3189 25.7824C84.3189 23.2113 86.5515 21.4453 89.7217 21.4453C92.8591 21.4453 95.01 23.2113 95.0824 25.7824H92.8393C92.705 24.2953 91.4801 23.3977 89.6901 23.3977C87.9001 23.3977 86.6752 24.3059 86.6752 25.6277C86.6752 26.6812 87.4576 27.3012 89.3714 27.7757L91.0072 28.1789C94.0536 28.9019 95.3194 30.13 95.3194 32.3097C95.3194 35.0976 93.1067 36.8437 89.5874 36.8437C86.2946 36.8437 84.0714 35.1386 83.9277 32.4433L86.2024 32.4434Z" fill="white"/>
<path d="M100.115 23.16V25.7311H102.174V27.4971H100.115V33.4865C100.115 34.417 100.527 34.8506 101.432 34.8506C101.677 34.8463 101.921 34.8291 102.163 34.799V36.5545C101.756 36.6308 101.343 36.6653 100.929 36.6576C98.7373 36.6576 97.8826 35.8314 97.8826 33.7244V27.4971H96.3086V25.7311H97.8826V23.16H100.115Z" fill="white"/>
<path d="M103.366 31.1639C103.366 27.7455 105.372 25.5975 108.5 25.5975C111.639 25.5975 113.636 27.7455 113.636 31.1639C113.636 34.5916 111.65 36.7303 108.5 36.7303C105.352 36.7303 103.366 34.5916 103.366 31.1639ZM111.372 31.1639C111.372 28.819 110.301 27.435 108.5 27.435C106.7 27.435 105.63 28.8295 105.63 31.1639C105.63 33.5182 106.7 34.8916 108.5 34.8916C110.301 34.8916 111.372 33.5182 111.372 31.1639H111.372Z" fill="white"/>
<path d="M115.468 25.7308H117.587V27.58H117.638C117.782 27.0025 118.119 26.4921 118.593 26.1346C119.067 25.7771 119.65 25.5944 120.242 25.6171C120.498 25.6162 120.754 25.6441 121.004 25.7003V27.7863C120.68 27.6871 120.343 27.6416 120.005 27.6515C119.682 27.6384 119.361 27.6955 119.062 27.8189C118.763 27.9424 118.495 28.1293 118.275 28.3668C118.055 28.6042 117.889 28.8867 117.788 29.1947C117.687 29.5027 117.653 29.8289 117.69 30.1511V36.5952H115.468L115.468 25.7308Z" fill="white"/>
<path d="M131.249 33.4045C130.95 35.3768 129.036 36.7303 126.587 36.7303C123.438 36.7303 121.483 34.6127 121.483 31.2155C121.483 27.8077 123.449 25.5975 126.494 25.5975C129.489 25.5975 131.372 27.6623 131.372 30.9565V31.7205H123.726V31.8553C123.691 32.2551 123.741 32.6579 123.873 33.0369C124.005 33.4159 124.215 33.7625 124.491 34.0535C124.766 34.3446 125.1 34.5735 125.47 34.7251C125.841 34.8766 126.239 34.9474 126.639 34.9326C127.164 34.982 127.691 34.8599 128.141 34.5846C128.592 34.3093 128.941 33.8954 129.139 33.4045L131.249 33.4045ZM123.737 30.1619H129.149C129.169 29.8024 129.115 29.4427 128.99 29.1052C128.864 28.7678 128.671 28.4599 128.422 28.201C128.172 27.9421 127.872 27.7377 127.541 27.6006C127.209 27.4636 126.853 27.3968 126.494 27.4045C126.132 27.4024 125.773 27.4721 125.438 27.6098C125.104 27.7475 124.799 27.9504 124.543 28.2068C124.287 28.4631 124.083 28.7679 123.945 29.1035C123.807 29.439 123.736 29.7988 123.737 30.162V30.1619Z" fill="white"/>
<path d="M44.3872 13.5042H45.3411C45.5054 13.5247 45.672 13.5109 45.8307 13.4635C45.9893 13.4162 46.1364 13.3364 46.2628 13.2292C46.3892 13.1219 46.492 12.9896 46.5649 12.8405C46.6378 12.6914 46.6791 12.5287 46.6863 12.3628C46.6863 11.7024 46.1912 11.2759 45.3516 11.2759C45.1834 11.2523 45.0121 11.2628 44.848 11.3067C44.6838 11.3506 44.5301 11.4271 44.3959 11.5316C44.2617 11.6362 44.1498 11.7667 44.0666 11.9153C43.9835 12.064 43.9309 12.2279 43.9119 12.3974H42.8645C42.8825 12.0898 42.9634 11.7893 43.1022 11.5144C43.241 11.2396 43.4347 10.9964 43.6711 10.8C43.9076 10.6035 44.1819 10.4581 44.4768 10.3726C44.7717 10.2871 45.081 10.2635 45.3855 10.3032C46.7902 10.3032 47.7792 11.0925 47.7792 12.2286C47.7825 12.6092 47.6556 12.9794 47.4198 13.2775C47.1839 13.5755 46.8533 13.7834 46.4831 13.8663V13.9507C46.9219 13.9702 47.3352 14.1633 47.6325 14.4878C47.9299 14.8122 48.0872 15.2416 48.07 15.6821C48.0375 15.9988 47.9423 16.3057 47.7901 16.585C47.6379 16.8643 47.4317 17.1103 47.1835 17.3086C46.9353 17.5068 46.6502 17.6534 46.3449 17.7396C46.0395 17.8259 45.7201 17.8501 45.4054 17.8108C45.0899 17.854 44.7691 17.833 44.4619 17.749C44.1547 17.665 43.8675 17.5199 43.6175 17.3222C43.3674 17.1245 43.1596 16.8782 43.0063 16.5982C42.8531 16.3181 42.7576 16.01 42.7256 15.6921H43.7893C43.8535 16.377 44.4806 16.8189 45.4054 16.8189C46.3301 16.8189 46.9338 16.3226 46.9338 15.623C46.9338 14.9134 46.3652 14.4763 45.3715 14.4763H44.3872V13.5042Z" fill="white"/>
<path d="M49.2783 16.1092C49.2783 15.1365 50.0011 14.5758 51.2808 14.4961L52.7393 14.4117V13.9453C52.7393 13.3746 52.3644 13.0523 51.637 13.0523C51.0438 13.0523 50.634 13.2709 50.5149 13.6529H49.4862C49.5948 12.7248 50.4658 12.1295 51.6872 12.1295C53.037 12.1295 53.7983 12.8039 53.7983 13.9453V17.6373H52.7743V16.8779H52.6902C52.5196 17.1503 52.28 17.3724 51.9958 17.5214C51.7117 17.6705 51.3933 17.7412 51.073 17.7263C50.847 17.7499 50.6185 17.7257 50.4024 17.6553C50.1863 17.5848 49.9873 17.4697 49.8182 17.3173C49.6491 17.165 49.5137 16.9788 49.4207 16.7707C49.3277 16.5626 49.2792 16.3372 49.2783 16.1092ZM52.7393 15.6474V15.1957L51.4244 15.2801C50.683 15.3299 50.3467 15.583 50.3467 16.0593C50.3467 16.5457 50.767 16.8287 51.3451 16.8287C51.5144 16.8459 51.6855 16.8287 51.8481 16.7782C52.0108 16.7277 52.1616 16.6449 52.2917 16.5347C52.4218 16.4245 52.5284 16.2891 52.6053 16.1367C52.6822 15.9843 52.7278 15.8179 52.7393 15.6474Z" fill="white"/>
<path d="M56.6182 13.1316V17.6375H55.5557V12.234H59.1007V13.1316L56.6182 13.1316Z" fill="white"/>
<path d="M65.5406 14.9332C65.5406 16.65 64.6754 17.7263 63.3162 17.7263C62.9826 17.7492 62.6494 17.6759 62.3559 17.5151C62.0623 17.3543 61.8207 17.1127 61.6593 16.8187H61.5753V19.4337H60.5127V12.2338H61.5356V13.1268H61.615C61.7792 12.8225 62.024 12.5697 62.3224 12.3963C62.6207 12.2229 62.9611 12.1356 63.3057 12.1442C64.6754 12.1441 65.5406 13.2158 65.5406 14.9332ZM64.4477 14.9332C64.4477 13.7918 63.9094 13.1021 63.0092 13.1021C62.1148 13.1021 61.5554 13.8064 61.5554 14.9379C61.5554 16.064 62.1147 16.7689 63.0045 16.7689C63.9094 16.7689 64.4477 16.0793 64.4477 14.9332Z" fill="white"/>
<path d="M66.9551 19.5728V18.6547C67.0701 18.6693 67.1859 18.676 67.3018 18.6746C67.5282 18.6914 67.7528 18.6238 67.9325 18.4846C68.1123 18.3454 68.2345 18.1445 68.2757 17.9205L68.3551 17.6574L66.4062 12.234H67.5634L68.9133 16.526H68.9973L70.3425 12.234H71.4692L69.4621 17.8607C69.002 19.1756 68.4929 19.5974 67.3953 19.5974C67.3066 19.5974 67.0543 19.5875 66.9551 19.5728Z" fill="white"/>
<path d="M72.2979 16.1041H73.3558C73.4597 16.5805 73.9046 16.8289 74.5269 16.8289C75.2345 16.8289 75.6689 16.516 75.6689 16.0297C75.6689 15.5088 75.2789 15.2604 74.5269 15.2604H73.7212V14.4319H74.5129C75.1551 14.4319 75.4821 14.184 75.4821 13.7323C75.4821 13.3356 75.1656 13.0327 74.5129 13.0327C73.9186 13.0327 73.4842 13.2858 73.4153 13.7124H72.3913C72.4678 13.2222 72.733 12.7818 73.1298 12.4858C73.5265 12.1899 74.0232 12.062 74.5129 12.1297C75.7926 12.1297 76.5248 12.7104 76.5248 13.6233C76.5307 13.8775 76.4496 14.1261 76.2949 14.3274C76.1401 14.5288 75.9212 14.6707 75.6747 14.7295V14.8139C75.9682 14.8519 76.2376 14.9967 76.4317 15.2208C76.6258 15.4449 76.7313 15.7328 76.7279 16.0297C76.7279 17.0569 75.8569 17.7366 74.5269 17.7366C73.3511 17.7365 72.3959 17.1957 72.2979 16.1041Z" fill="white"/>
<path d="M78.2578 17.6375V12.234H79.311V15.9506H79.3951L81.8764 12.234H82.9296V17.6375H81.8764V13.901H81.797L79.311 17.6375L78.2578 17.6375Z" fill="white"/>
<path d="M88.732 13.1316H87.0366V17.6374H85.9728V13.1316H84.2773V12.234H88.732V13.1316Z" fill="white"/>
<path d="M94.4555 16.1783C94.3107 16.6721 93.9977 17.0992 93.5711 17.3849C93.1444 17.6707 92.6313 17.7969 92.1214 17.7416C91.7667 17.751 91.4142 17.6828 91.0883 17.5418C90.7625 17.4007 90.4712 17.1902 90.2345 16.9249C89.9979 16.6595 89.8217 16.3456 89.718 16.005C89.6143 15.6644 89.5858 15.3053 89.6343 14.9525C89.5871 14.5987 89.6161 14.2387 89.7195 13.8971C89.8229 13.5555 89.9983 13.2402 90.2337 12.9725C90.4691 12.7048 90.759 12.491 91.0839 12.3456C91.4088 12.2001 91.761 12.1264 92.1167 12.1295C93.6148 12.1295 94.5198 13.1567 94.5198 14.8535V15.2256H90.7179V15.2854C90.701 15.4837 90.7257 15.6834 90.7904 15.8716C90.855 16.0597 90.9582 16.2323 91.0932 16.3781C91.2283 16.5239 91.3922 16.6397 91.5745 16.7181C91.7568 16.7965 91.9534 16.8358 92.1518 16.8334C92.4058 16.8638 92.6631 16.8178 92.8909 16.7012C93.1188 16.5845 93.307 16.4025 93.4315 16.1783L94.4555 16.1783ZM90.7178 14.4369H93.4361C93.4496 14.2556 93.4251 14.0736 93.3642 13.9024C93.3034 13.7312 93.2076 13.5746 93.0829 13.4428C92.9582 13.311 92.8074 13.2068 92.6402 13.1369C92.473 13.0671 92.2931 13.0331 92.112 13.0371C91.9282 13.0346 91.7457 13.0691 91.5754 13.1386C91.4051 13.208 91.2504 13.3111 91.1204 13.4415C90.9905 13.572 90.8879 13.7274 90.8187 13.8983C90.7496 14.0693 90.7153 14.2524 90.7179 14.4369H90.7178Z" fill="white"/>
<path d="M98.96 12.234H101.388C102.441 12.234 103.058 12.7695 103.058 13.608C103.06 13.874 102.971 14.1326 102.805 14.3403C102.639 14.5481 102.408 14.6925 102.149 14.7494V14.8337C102.463 14.8537 102.758 14.9941 102.972 15.2259C103.187 15.4577 103.304 15.7633 103.3 16.0794C103.3 17.0222 102.594 17.6375 101.412 17.6375H98.96V12.234ZM100.013 13.0525V14.4517H101.066C101.709 14.4517 102.016 14.2039 102.016 13.7468C102.016 13.3256 101.748 13.0525 101.184 13.0525L100.013 13.0525ZM100.013 15.2357V16.8189H101.273C101.901 16.8189 102.238 16.5406 102.238 16.0297C102.238 15.4889 101.857 15.2357 101.14 15.2357L100.013 15.2357Z" fill="white"/>
</svg>
