<svg width="172" height="70" viewBox="0 0 172 70" fill="none" xmlns="http://www.w3.org/2000/svg">
<path d="M44.0757 35.3608C44.0885 34.3592 44.3536 33.3772 44.8463 32.506C45.3389 31.6349 46.0431 30.9029 46.8934 30.3783C46.3532 29.6041 45.6407 28.967 44.8123 28.5176C43.9839 28.0681 43.0625 27.8187 42.1212 27.7891C40.1134 27.5776 38.1669 28.9949 37.1437 28.9949C36.1008 28.9949 34.5254 27.8101 32.8291 27.8452C31.7319 27.8807 30.6625 28.201 29.7252 28.7746C28.788 29.3483 28.0147 30.1558 27.4809 31.1186C25.1685 35.1367 26.8933 41.0419 29.1085 44.2898C30.2168 45.8803 31.512 47.6568 33.2068 47.5938C34.8653 47.5248 35.4847 46.5324 37.4866 46.5324C39.47 46.5324 40.0511 47.5938 41.7803 47.5537C43.56 47.5247 44.6812 45.9563 45.7506 44.3508C46.5469 43.2176 47.1596 41.9651 47.5661 40.6398C46.5322 40.2009 45.6499 39.4663 45.0292 38.5275C44.4085 37.5888 44.0769 36.4874 44.0757 35.3608Z" fill="white"/>
<path d="M40.8096 25.6532C41.7799 24.4842 42.2579 22.9816 42.1422 21.4645C40.6597 21.6208 39.2904 22.3318 38.3069 23.456C37.8261 24.0052 37.4578 24.6442 37.2232 25.3363C36.9886 26.0284 36.8921 26.7601 36.9394 27.4897C37.6809 27.4974 38.4145 27.3361 39.0849 27.018C39.7552 26.6998 40.3449 26.2332 40.8096 25.6532Z" fill="white"/>
<path d="M65.04 43.5676H59.3804L58.0212 47.5953H55.624L60.9847 32.6938H63.4753L68.8361 47.5953H66.398L65.04 43.5676ZM59.9665 41.709H64.4527L62.2412 35.1723H62.1793L59.9665 41.709Z" fill="white"/>
<path d="M80.413 42.1637C80.413 45.5398 78.6125 47.7089 75.8953 47.7089C75.207 47.7451 74.5225 47.586 73.9201 47.2498C73.3178 46.9136 72.8219 46.414 72.4893 45.8082H72.4379V51.1894H70.2158V36.7309H72.3667V38.5379H72.4075C72.7554 37.9349 73.2597 37.4379 73.8667 37.0997C74.4736 36.7615 75.1606 36.5947 75.8545 36.6172C78.6019 36.6172 80.413 38.7969 80.413 42.1637ZM78.1291 42.1637C78.1291 39.9641 76.9964 38.518 75.2683 38.518C73.5705 38.518 72.4286 39.9945 72.4286 42.1637C72.4286 44.3527 73.5705 45.8187 75.2683 45.8187C76.9964 45.8187 78.1291 44.3832 78.1291 42.1637Z" fill="white"/>
<path d="M92.328 42.1636C92.328 45.5398 90.5275 47.7089 87.8104 47.7089C87.1221 47.7451 86.4376 47.5859 85.8352 47.2498C85.2328 46.9136 84.7369 46.414 84.4043 45.8081H84.3529V51.1894H82.1309V36.7308H84.2817V38.5379H84.3225C84.6704 37.9349 85.1747 37.4379 85.7817 37.0997C86.3886 36.7615 87.0756 36.5947 87.7695 36.6172C90.517 36.6172 92.328 38.7968 92.328 42.1636ZM90.0441 42.1636C90.0441 39.964 88.9115 38.5179 87.1833 38.5179C85.4856 38.5179 84.3436 39.9945 84.3436 42.1636C84.3436 44.3527 85.4856 45.8187 87.1833 45.8187C88.9115 45.8187 90.0441 44.3832 90.0441 42.1636H90.0441Z" fill="white"/>
<path d="M100.202 43.4434C100.367 44.9211 101.797 45.8914 103.752 45.8914C105.625 45.8914 106.972 44.9211 106.972 43.5886C106.972 42.432 106.16 41.7395 104.235 41.2648L102.311 40.7996C99.5847 40.1387 98.3189 38.859 98.3189 36.7824C98.3189 34.2113 100.552 32.4453 103.722 32.4453C106.859 32.4453 109.01 34.2113 109.082 36.7824H106.839C106.705 35.2953 105.48 34.3977 103.69 34.3977C101.9 34.3977 100.675 35.3059 100.675 36.6277C100.675 37.6812 101.458 38.3012 103.371 38.7757L105.007 39.1789C108.054 39.9019 109.319 41.13 109.319 43.3097C109.319 46.0976 107.107 47.8437 103.587 47.8437C100.295 47.8437 98.0714 46.1386 97.9277 43.4433L100.202 43.4434Z" fill="white"/>
<path d="M114.115 34.16V36.7311H116.174V38.4971H114.115V44.4865C114.115 45.417 114.527 45.8506 115.432 45.8506C115.677 45.8463 115.921 45.8291 116.163 45.799V47.5545C115.756 47.6308 115.343 47.6653 114.929 47.6576C112.737 47.6576 111.883 46.8314 111.883 44.7244V38.4971H110.309V36.7311H111.883V34.16H114.115Z" fill="white"/>
<path d="M117.366 42.1639C117.366 38.7455 119.372 36.5975 122.5 36.5975C125.639 36.5975 127.636 38.7455 127.636 42.1639C127.636 45.5916 125.65 47.7303 122.5 47.7303C119.352 47.7303 117.366 45.5916 117.366 42.1639ZM125.372 42.1639C125.372 39.819 124.301 38.435 122.5 38.435C120.7 38.435 119.63 39.8295 119.63 42.1639C119.63 44.5182 120.7 45.8916 122.5 45.8916C124.301 45.8916 125.372 44.5182 125.372 42.1639H125.372Z" fill="white"/>
<path d="M129.468 36.7308H131.587V38.58H131.638C131.782 38.0025 132.119 37.4921 132.593 37.1346C133.067 36.7771 133.65 36.5944 134.242 36.6171C134.498 36.6162 134.754 36.6441 135.004 36.7003V38.7863C134.68 38.6871 134.343 38.6416 134.005 38.6515C133.682 38.6384 133.361 38.6955 133.062 38.8189C132.763 38.9424 132.495 39.1293 132.275 39.3668C132.055 39.6042 131.889 39.8867 131.788 40.1947C131.687 40.5027 131.653 40.8289 131.69 41.1511V47.5952H129.468L129.468 36.7308Z" fill="white"/>
<path d="M145.249 44.4045C144.95 46.3768 143.036 47.7303 140.587 47.7303C137.438 47.7303 135.483 45.6127 135.483 42.2155C135.483 38.8077 137.449 36.5975 140.494 36.5975C143.489 36.5975 145.372 38.6623 145.372 41.9565V42.7205H137.726V42.8553C137.691 43.2551 137.741 43.6579 137.873 44.0369C138.005 44.4159 138.215 44.7625 138.491 45.0535C138.766 45.3446 139.1 45.5735 139.47 45.7251C139.841 45.8766 140.239 45.9474 140.639 45.9326C141.164 45.982 141.691 45.8599 142.141 45.5846C142.592 45.3093 142.941 44.8954 143.139 44.4045L145.249 44.4045ZM137.737 41.1619H143.149C143.169 40.8024 143.115 40.4427 142.99 40.1052C142.864 39.7678 142.671 39.4599 142.422 39.201C142.172 38.9421 141.872 38.7377 141.541 38.6006C141.209 38.4636 140.853 38.3968 140.494 38.4045C140.132 38.4024 139.773 38.4721 139.438 38.6098C139.104 38.7475 138.799 38.9504 138.543 39.2068C138.287 39.4631 138.083 39.7679 137.945 40.1035C137.807 40.439 137.736 40.7988 137.737 41.162V41.1619Z" fill="white"/>
<path d="M58.3872 24.5042H59.3411C59.5054 24.5247 59.672 24.5109 59.8307 24.4635C59.9893 24.4162 60.1364 24.3364 60.2628 24.2292C60.3892 24.122 60.492 23.9896 60.5649 23.8405C60.6378 23.6914 60.6791 23.5287 60.6863 23.3628C60.6863 22.7025 60.1912 22.2759 59.3516 22.2759C59.1834 22.2523 59.0121 22.2628 58.848 22.3067C58.6838 22.3506 58.5301 22.4271 58.3959 22.5317C58.2617 22.6362 58.1498 22.7667 58.0666 22.9154C57.9835 23.064 57.9309 23.2279 57.9119 23.3974H56.8645C56.8825 23.0898 56.9634 22.7893 57.1022 22.5145C57.241 22.2396 57.4347 21.9964 57.6711 21.8C57.9076 21.6036 58.1819 21.4581 58.4768 21.3726C58.7717 21.2871 59.081 21.2635 59.3855 21.3032C60.7902 21.3032 61.7792 22.0925 61.7792 23.2286C61.7825 23.6092 61.6556 23.9795 61.4198 24.2775C61.1839 24.5756 60.8533 24.7834 60.4831 24.8663V24.9507C60.9219 24.9702 61.3352 25.1633 61.6325 25.4878C61.9299 25.8122 62.0872 26.2416 62.07 26.6821C62.0375 26.9988 61.9423 27.3058 61.7901 27.5851C61.6379 27.8643 61.4317 28.1103 61.1835 28.3086C60.9353 28.5069 60.6502 28.6534 60.3449 28.7396C60.0395 28.8259 59.7201 28.8501 59.4054 28.8108C59.0899 28.854 58.7691 28.833 58.4619 28.749C58.1547 28.6651 57.8675 28.5199 57.6175 28.3222C57.3674 28.1245 57.1596 27.8782 57.0063 27.5982C56.8531 27.3181 56.7576 27.01 56.7256 26.6921H57.7893C57.8535 27.377 58.4806 27.8189 59.4054 27.8189C60.3301 27.8189 60.9338 27.3226 60.9338 26.623C60.9338 25.9134 60.3652 25.4763 59.3715 25.4763H58.3872V24.5042Z" fill="white"/>
<path d="M63.2783 27.1092C63.2783 26.1365 64.0011 25.5758 65.2808 25.4961L66.7393 25.4117V24.9453C66.7393 24.3746 66.3644 24.0524 65.637 24.0524C65.0438 24.0524 64.634 24.2709 64.5149 24.6529H63.4862C63.5948 23.7248 64.4658 23.1295 65.6872 23.1295C67.037 23.1295 67.7983 23.8039 67.7983 24.9453V28.6373H66.7743V27.8779H66.6902C66.5196 28.1503 66.28 28.3724 65.9958 28.5214C65.7117 28.6705 65.3933 28.7412 65.073 28.7263C64.847 28.7499 64.6185 28.7257 64.4024 28.6553C64.1863 28.5849 63.9873 28.4697 63.8182 28.3174C63.6491 28.165 63.5137 27.9788 63.4207 27.7707C63.3277 27.5626 63.2792 27.3372 63.2783 27.1092ZM66.7393 26.6475V26.1957L65.4244 26.2801C64.683 26.3299 64.3467 26.583 64.3467 27.0594C64.3467 27.5457 64.767 27.8287 65.3451 27.8287C65.5144 27.8459 65.6855 27.8288 65.8481 27.7783C66.0108 27.7277 66.1616 27.6449 66.2917 27.5347C66.4218 27.4245 66.5284 27.2892 66.6053 27.1367C66.6822 26.9843 66.7278 26.8179 66.7393 26.6475Z" fill="white"/>
<path d="M70.6182 24.1316V28.6375H69.5557V23.234H73.1007V24.1316L70.6182 24.1316Z" fill="white"/>
<path d="M79.5406 25.9332C79.5406 27.65 78.6754 28.7264 77.3162 28.7264C76.9826 28.7492 76.6494 28.676 76.3559 28.5152C76.0623 28.3544 75.8207 28.1127 75.6593 27.8187H75.5753V30.4338H74.5127V23.2338H75.5356V24.1268H75.615C75.7792 23.8225 76.024 23.5697 76.3224 23.3963C76.6207 23.2229 76.9611 23.1357 77.3057 23.1442C78.6754 23.1441 79.5406 24.2158 79.5406 25.9332ZM78.4477 25.9332C78.4477 24.7918 77.9094 24.1022 77.0092 24.1022C76.1148 24.1022 75.5554 24.8064 75.5554 25.9379C75.5554 27.0641 76.1147 27.7689 77.0045 27.7689C77.9094 27.7689 78.4477 27.0793 78.4477 25.9332Z" fill="white"/>
<path d="M80.9551 30.5728V29.6547C81.0701 29.6693 81.1859 29.676 81.3018 29.6746C81.5282 29.6914 81.7528 29.6238 81.9325 29.4846C82.1123 29.3454 82.2345 29.1445 82.2757 28.9205L82.3551 28.6574L80.4062 23.234H81.5634L82.9133 27.526H82.9973L84.3425 23.234H85.4692L83.4621 28.8607C83.002 30.1756 82.4929 30.5974 81.3953 30.5974C81.3066 30.5974 81.0543 30.5875 80.9551 30.5728Z" fill="white"/>
<path d="M86.2979 27.1041H87.3558C87.4597 27.5805 87.9046 27.8289 88.5269 27.8289C89.2345 27.8289 89.6689 27.516 89.6689 27.0297C89.6689 26.5088 89.2789 26.2604 88.5269 26.2604H87.7212V25.4319H88.5129C89.1551 25.4319 89.4821 25.184 89.4821 24.7323C89.4821 24.3356 89.1656 24.0327 88.5129 24.0327C87.9186 24.0327 87.4842 24.2858 87.4153 24.7124H86.3913C86.4678 24.2222 86.733 23.7818 87.1298 23.4858C87.5265 23.1899 88.0232 23.062 88.5129 23.1297C89.7926 23.1297 90.5248 23.7104 90.5248 24.6233C90.5307 24.8775 90.4496 25.1261 90.2949 25.3274C90.1401 25.5288 89.9212 25.6707 89.6747 25.7295V25.8139C89.9682 25.8519 90.2376 25.9967 90.4317 26.2208C90.6258 26.4449 90.7313 26.7328 90.7279 27.0297C90.7279 28.0569 89.8569 28.7366 88.5269 28.7366C87.3511 28.7365 86.3959 28.1957 86.2979 27.1041Z" fill="white"/>
<path d="M92.2578 28.6375V23.234H93.311V26.9506H93.3951L95.8764 23.234H96.9296V28.6375H95.8764V24.901H95.797L93.311 28.6375L92.2578 28.6375Z" fill="white"/>
<path d="M102.732 24.1316H101.037V28.6375H99.9728V24.1316H98.2773V23.234H102.732V24.1316Z" fill="white"/>
<path d="M108.456 27.1783C108.311 27.6722 107.998 28.0992 107.571 28.385C107.144 28.6707 106.631 28.7969 106.121 28.7416C105.767 28.751 105.414 28.6828 105.088 28.5418C104.763 28.4008 104.471 28.1902 104.235 27.9249C103.998 27.6595 103.822 27.3456 103.718 27.0051C103.614 26.6645 103.586 26.3053 103.634 25.9526C103.587 25.5987 103.616 25.2388 103.72 24.8972C103.823 24.5556 103.998 24.2402 104.234 23.9726C104.469 23.7049 104.759 23.4911 105.084 23.3456C105.409 23.2002 105.761 23.1265 106.117 23.1295C107.615 23.1295 108.52 24.1567 108.52 25.8535V26.2256H104.718V26.2854C104.701 26.4837 104.726 26.6834 104.79 26.8716C104.855 27.0598 104.958 27.2323 105.093 27.3781C105.228 27.5239 105.392 27.6397 105.575 27.7181C105.757 27.7965 105.953 27.8358 106.152 27.8334C106.406 27.8639 106.663 27.8179 106.891 27.7012C107.119 27.5846 107.307 27.4025 107.432 27.1783L108.456 27.1783ZM104.718 25.4369H107.436C107.45 25.2557 107.425 25.0736 107.364 24.9024C107.303 24.7312 107.208 24.5747 107.083 24.4429C106.958 24.311 106.807 24.2068 106.64 24.137C106.473 24.0671 106.293 24.0331 106.112 24.0371C105.928 24.0346 105.746 24.0691 105.575 24.1386C105.405 24.2081 105.25 24.3111 105.12 24.4416C104.99 24.5721 104.888 24.7274 104.819 24.8984C104.75 25.0693 104.715 25.2525 104.718 25.4369H104.718Z" fill="white"/>
<path d="M112.96 23.234H115.388C116.441 23.234 117.058 23.7695 117.058 24.608C117.06 24.874 116.971 25.1326 116.805 25.3403C116.639 25.5481 116.408 25.6925 116.149 25.7494V25.8337C116.463 25.8537 116.758 25.9941 116.972 26.2259C117.187 26.4577 117.304 26.7633 117.3 27.0794C117.3 28.0222 116.594 28.6375 115.412 28.6375H112.96V23.234ZM114.013 24.0525V25.4517H115.066C115.709 25.4517 116.016 25.2039 116.016 24.7468C116.016 24.3256 115.748 24.0525 115.184 24.0525L114.013 24.0525ZM114.013 26.2357V27.8189H115.273C115.901 27.8189 116.238 27.5406 116.238 27.0297C116.238 26.4889 115.857 26.2357 115.14 26.2357L114.013 26.2357Z" fill="white"/>
</svg>
