<svg width="172" height="70" viewBox="0 0 172 70" fill="none" xmlns="http://www.w3.org/2000/svg">
<path d="M43.6944 35.2853C43.7073 34.2836 43.9724 33.3014 44.4651 32.4302C44.9578 31.559 45.662 30.827 46.5123 30.3024C45.9722 29.5281 45.2595 28.8909 44.4311 28.4414C43.6026 27.9919 42.6811 27.7425 41.7398 27.7129C39.7318 27.5014 37.7851 28.9188 36.7618 28.9188C35.7188 28.9188 34.1433 27.7339 32.4469 27.769C31.3495 27.8045 30.2801 28.1248 29.3427 28.6985C28.4054 29.2722 27.6321 30.0798 27.0982 31.0427C24.7856 35.0611 26.5106 40.9669 28.7259 44.2151C29.8343 45.8056 31.1296 47.5823 32.8246 47.5193C34.4832 47.4503 35.1027 46.4579 37.1048 46.4579C39.0883 46.4579 39.6695 47.5193 41.3989 47.4793C43.1787 47.4503 44.3 45.8816 45.3695 44.276C46.1659 43.1427 46.7787 41.8901 47.1852 40.5647C46.1512 40.1258 45.2688 39.3911 44.648 38.4523C44.0273 37.5134 43.6956 36.412 43.6944 35.2853V35.2853Z" fill="white"/>
<path d="M40.4291 25.5778C41.3995 24.4086 41.8776 22.9059 41.7618 21.3887C40.2792 21.5449 38.9097 22.2561 37.9262 23.3804C37.4453 23.9296 37.077 24.5686 36.8424 25.2608C36.6077 25.953 36.5113 26.6848 36.5586 27.4144C37.3001 27.422 38.0338 27.2607 38.7042 26.9426C39.3746 26.6245 39.9644 26.1578 40.4291 25.5778Z" fill="white"/>
<path d="M64.659 43.4939H58.9989L57.6396 47.522H55.2422L60.6034 32.6191H63.0942L68.4554 47.522H66.0171L64.659 43.4939ZM59.5851 41.6352H64.0717L61.8599 35.0979H61.798L59.5851 41.6352Z" fill="white"/>
<path d="M80.034 42.088C80.034 45.4645 78.2333 47.6338 75.516 47.6338C74.8276 47.6699 74.143 47.5108 73.5406 47.1746C72.9382 46.8384 72.4422 46.3388 72.1096 45.7328H72.0582V51.1146H69.8359V36.6548H71.987V38.4619H72.0279C72.3758 37.8589 72.8801 37.3619 73.4871 37.0236C74.0941 36.6854 74.7811 36.5186 75.4751 36.5411C78.2228 36.5411 80.034 38.7209 80.034 42.088ZM77.7499 42.088C77.7499 39.8882 76.6171 38.442 74.8889 38.442C73.1909 38.442 72.0489 39.9187 72.0489 42.088C72.0489 44.2773 73.1909 45.7434 74.8889 45.7434C76.6172 45.7434 77.7499 44.3077 77.7499 42.088Z" fill="white"/>
<path d="M91.95 42.088C91.95 45.4645 90.1493 47.6338 87.432 47.6338C86.7436 47.6699 86.059 47.5108 85.4566 47.1746C84.8542 46.8384 84.3582 46.3387 84.0256 45.7328H83.9742V51.1145H81.752V36.6547H83.903V38.4619H83.9438C84.2918 37.8589 84.796 37.3618 85.4031 37.0236C86.0101 36.6854 86.6971 36.5186 87.3911 36.5411C90.1388 36.5411 91.95 38.7209 91.95 42.088ZM89.6659 42.088C89.6659 39.8882 88.5332 38.442 86.8049 38.442C85.107 38.442 83.9649 39.9187 83.9649 42.088C83.9649 44.2773 85.107 45.7434 86.8049 45.7434C88.5332 45.7434 89.6659 44.3077 89.6659 42.088H89.6659Z" fill="white"/>
<path d="M99.8237 43.3701C99.9883 44.848 101.419 45.8183 103.374 45.8183C105.247 45.8183 106.594 44.8479 106.594 43.5154C106.594 42.3587 105.782 41.666 103.857 41.1914L101.933 40.7261C99.2059 40.0651 97.9401 38.7853 97.9401 36.7086C97.9401 34.1373 100.173 32.3711 103.343 32.3711C106.481 32.3711 108.632 34.1373 108.704 36.7086H106.461C106.327 35.2213 105.102 34.3236 103.312 34.3236C101.522 34.3236 100.297 35.2319 100.297 36.5539C100.297 37.6075 101.079 38.2275 102.993 38.7021L104.629 39.1052C107.676 39.8283 108.941 41.0566 108.941 43.2364C108.941 46.0246 106.729 47.7708 103.209 47.7708C99.9159 47.7708 97.6925 46.0656 97.5488 43.37L99.8237 43.3701Z" fill="white"/>
<path d="M113.739 34.0859V36.6573H115.797V38.4234H113.739V44.4134C113.739 45.3439 114.151 45.7776 115.056 45.7776C115.3 45.7733 115.544 45.756 115.787 45.7259V47.4816C115.38 47.5579 114.966 47.5924 114.552 47.5847C112.361 47.5847 111.506 46.7585 111.506 44.6512V38.4234H109.932V36.6573H111.506V34.0859H113.739Z" fill="white"/>
<path d="M116.99 42.0903C116.99 38.6717 118.996 36.5234 122.125 36.5234C125.264 36.5234 127.261 38.6716 127.261 42.0903C127.261 45.5183 125.274 47.6572 122.125 47.6572C118.977 47.6572 116.99 45.5183 116.99 42.0903ZM124.996 42.0903C124.996 39.7452 123.926 38.3611 122.125 38.3611C120.324 38.3611 119.255 39.7557 119.255 42.0903C119.255 44.4448 120.324 45.8184 122.125 45.8184C123.926 45.8184 124.996 44.4448 124.996 42.0903H124.996Z" fill="white"/>
<path d="M129.092 36.6547H131.211V38.504H131.263C131.406 37.9264 131.743 37.416 132.217 37.0585C132.692 36.701 133.274 36.5182 133.867 36.541C134.123 36.5401 134.378 36.568 134.628 36.6242V38.7103C134.305 38.6111 133.968 38.5656 133.63 38.5755C133.307 38.5624 132.985 38.6195 132.686 38.743C132.388 38.8664 132.119 39.0533 131.899 39.2908C131.679 39.5283 131.513 39.8108 131.412 40.1188C131.311 40.4268 131.277 40.7531 131.314 41.0753V47.52H129.092L129.092 36.6547Z" fill="white"/>
<path d="M144.875 44.3311C144.576 46.3036 142.662 47.6572 140.214 47.6572C137.064 47.6572 135.109 45.5394 135.109 42.1419C135.109 38.7338 137.075 36.5234 140.12 36.5234C143.116 36.5234 144.999 38.5884 144.999 41.8829V42.647H137.353V42.7818C137.317 43.1816 137.367 43.5845 137.499 43.9635C137.631 44.3426 137.841 44.6891 138.117 44.9802C138.392 45.2713 138.726 45.5002 139.097 45.6518C139.467 45.8034 139.865 45.8741 140.265 45.8594C140.79 45.9088 141.317 45.7867 141.768 45.5113C142.218 45.236 142.568 44.8221 142.765 44.3311L144.875 44.3311ZM137.363 41.0883H142.776C142.796 40.7287 142.741 40.3689 142.616 40.0314C142.491 39.694 142.298 39.3861 142.048 39.1272C141.799 38.8682 141.499 38.6638 141.167 38.5267C140.835 38.3896 140.479 38.3229 140.12 38.3306C139.758 38.3285 139.4 38.3982 139.065 38.5359C138.73 38.6736 138.425 38.8765 138.169 39.1329C137.913 39.3893 137.71 39.6941 137.571 40.0297C137.433 40.3653 137.362 40.7251 137.363 41.0883V41.0883Z" fill="white"/>
<path d="M59.2862 21.3832C59.7556 21.3495 60.2267 21.4204 60.6654 21.5908C61.1041 21.7612 61.4995 22.0268 61.8231 22.3686C62.1467 22.7103 62.3904 23.1196 62.5367 23.5669C62.6829 24.0142 62.7281 24.4884 62.6689 24.9553C62.6689 27.252 61.4276 28.5722 59.2862 28.5722H56.6895V21.3832H59.2862ZM57.806 27.5555H59.1615C59.4969 27.5756 59.8326 27.5206 60.1441 27.3945C60.4556 27.2685 60.7351 27.0746 60.9622 26.8269C61.1893 26.5792 61.3583 26.284 61.4569 25.9628C61.5555 25.6416 61.5813 25.3024 61.5323 24.97C61.5778 24.6388 61.5494 24.3017 61.4492 23.9829C61.3491 23.664 61.1797 23.3712 60.9531 23.1255C60.7265 22.8798 60.4484 22.6873 60.1386 22.5617C59.8289 22.4361 59.4952 22.3806 59.1615 22.3991H57.806V27.5555Z" fill="white"/>
<path d="M63.9301 25.8579C63.896 25.5014 63.9368 25.1417 64.0498 24.8018C64.1629 24.462 64.3457 24.1495 64.5866 23.8845C64.8275 23.6194 65.1211 23.4077 65.4487 23.2627C65.7762 23.1178 66.1304 23.043 66.4886 23.043C66.8467 23.043 67.201 23.1178 67.5285 23.2627C67.856 23.4077 68.1497 23.6194 68.3906 23.8845C68.6315 24.1495 68.8143 24.462 68.9274 24.8018C69.0404 25.1417 69.0812 25.5014 69.0471 25.8579C69.0819 26.2148 69.0416 26.575 68.9288 26.9154C68.816 27.2558 68.6333 27.5689 68.3923 27.8344C68.1514 28.1 67.8575 28.3122 67.5297 28.4574C67.2018 28.6027 66.8472 28.6777 66.4886 28.6777C66.13 28.6777 65.7754 28.6027 65.4475 28.4574C65.1196 28.3122 64.8258 28.1 64.5848 27.8344C64.3439 27.5689 64.1611 27.2558 64.0484 26.9154C63.9356 26.575 63.8953 26.2148 63.9301 25.8579V25.8579ZM67.9458 25.8579C67.9458 24.6819 67.4175 23.9942 66.4904 23.9942C65.5597 23.9942 65.0361 24.6819 65.0361 25.8579C65.0361 27.0434 65.5597 27.7258 66.4904 27.7258C67.4175 27.7258 67.9458 27.0386 67.9458 25.8579H67.9458Z" fill="white"/>
<path d="M75.8492 28.5718H74.7385L73.6172 24.576H73.5325L72.4159 28.5718H71.3158L69.8203 23.1465H70.9063L71.8782 27.2863H71.9582L73.0736 23.1465H74.1008L75.2162 27.2863H75.3009L76.2681 23.1465H77.3388L75.8492 28.5718Z" fill="white"/>
<path d="M78.5977 23.1472H79.6284V24.009H79.7084C79.8441 23.6995 80.073 23.44 80.3632 23.2667C80.6534 23.0935 80.9905 23.0151 81.3274 23.0424C81.5913 23.0226 81.8564 23.0624 82.1029 23.1589C82.3494 23.2554 82.5711 23.4061 82.7514 23.5999C82.9317 23.7937 83.0662 24.0256 83.1447 24.2784C83.2233 24.5312 83.244 24.7984 83.2052 25.0603V28.5724H82.1345V25.3292C82.1345 24.4573 81.7557 24.0237 80.9638 24.0237C80.7846 24.0154 80.6057 24.0459 80.4393 24.1132C80.273 24.1804 80.1232 24.2829 80.0001 24.4135C79.8771 24.544 79.7837 24.6997 79.7265 24.8697C79.6692 25.0398 79.6494 25.2202 79.6684 25.3986V28.5725H78.5977L78.5977 23.1472Z" fill="white"/>
<path d="M84.9102 21.0293H85.9809V28.5725H84.9102V21.0293Z" fill="white"/>
<path d="M87.4691 25.858C87.435 25.5015 87.4758 25.1417 87.5889 24.8019C87.702 24.462 87.8849 24.1495 88.1258 23.8845C88.3667 23.6194 88.6604 23.4077 88.9879 23.2627C89.3155 23.1178 89.6697 23.043 90.0279 23.043C90.3861 23.043 90.7403 23.1178 91.0679 23.2627C91.3954 23.4077 91.6891 23.6194 91.93 23.8845C92.1709 24.1495 92.3538 24.462 92.4669 24.8019C92.58 25.1417 92.6208 25.5015 92.5867 25.858C92.6214 26.2149 92.5811 26.5752 92.4683 26.9156C92.3555 27.256 92.1727 27.569 91.9318 27.8345C91.6908 28.1001 91.3969 28.3123 91.069 28.4575C90.7411 28.6027 90.3865 28.6778 90.0279 28.6778C89.6693 28.6778 89.3147 28.6027 88.9868 28.4575C88.6589 28.3123 88.3651 28.1001 88.1241 27.8345C87.8831 27.569 87.7003 27.256 87.5875 26.9156C87.4747 26.5752 87.4344 26.2149 87.4691 25.858V25.858ZM91.4848 25.858C91.4848 24.682 90.9565 23.9943 90.0294 23.9943C89.0987 23.9943 88.5751 24.682 88.5751 25.858C88.5751 27.0435 89.0987 27.7259 90.0294 27.7259C90.9565 27.7259 91.4848 27.0387 91.4848 25.858H91.4848Z" fill="white"/>
<path d="M93.7129 27.0387C93.7129 26.0621 94.44 25.4991 95.7307 25.4191L97.2003 25.3344V24.8661C97.2003 24.2931 96.8215 23.9695 96.0896 23.9695C95.4919 23.9695 95.0778 24.189 94.9589 24.5725H93.9223C94.0317 23.6407 94.9083 23.043 96.139 23.043C97.4992 23.043 98.2663 23.7201 98.2663 24.8661V28.573H97.2356V27.8105H97.1509C96.979 28.084 96.7375 28.307 96.4512 28.4566C96.1649 28.6063 95.844 28.6773 95.5213 28.6624C95.2936 28.6861 95.0634 28.6618 94.8456 28.591C94.6278 28.5203 94.4273 28.4047 94.2569 28.2518C94.0865 28.0988 93.95 27.9118 93.8564 27.7029C93.7627 27.4939 93.7138 27.2677 93.7129 27.0387V27.0387ZM97.2003 26.5751V26.1215L95.8755 26.2062C95.1283 26.2562 94.7895 26.5104 94.7895 26.9887C94.7895 27.477 95.213 27.7611 95.7955 27.7611C95.9662 27.7784 96.1386 27.7612 96.3024 27.7104C96.4663 27.6597 96.6183 27.5766 96.7493 27.4659C96.8804 27.3553 96.9879 27.2194 97.0654 27.0663C97.1428 26.9133 97.1887 26.7462 97.2003 26.5751V26.5751Z" fill="white"/>
<path d="M99.6738 25.8575C99.6738 24.1432 100.555 23.0572 101.926 23.0572C102.265 23.0416 102.601 23.1228 102.896 23.2913C103.191 23.4599 103.431 23.7088 103.59 24.009H103.67V21.0293H104.74V28.5725H103.714V27.7153H103.63C103.459 28.0135 103.21 28.2593 102.91 28.4262C102.609 28.593 102.269 28.6745 101.926 28.6619C100.546 28.6619 99.6738 27.5759 99.6738 25.8575ZM100.78 25.8575C100.78 27.0082 101.322 27.7006 102.229 27.7006C103.132 27.7006 103.69 26.9982 103.69 25.8622C103.69 24.7315 103.126 24.0191 102.229 24.0191C101.328 24.0191 100.78 24.7162 100.78 25.8575H100.78Z" fill="white"/>
<path d="M109.172 25.8579C109.138 25.5014 109.179 25.1417 109.292 24.8018C109.405 24.462 109.588 24.1495 109.829 23.8845C110.07 23.6194 110.363 23.4077 110.691 23.2627C111.018 23.1178 111.373 23.043 111.731 23.043C112.089 23.043 112.443 23.1178 112.771 23.2627C113.098 23.4077 113.392 23.6194 113.633 23.8845C113.874 24.1495 114.056 24.462 114.17 24.8018C114.283 25.1417 114.323 25.5014 114.289 25.8579C114.324 26.2148 114.284 26.575 114.171 26.9154C114.058 27.2558 113.875 27.5689 113.635 27.8344C113.394 28.1 113.1 28.3122 112.772 28.4574C112.444 28.6027 112.089 28.6777 111.731 28.6777C111.372 28.6777 111.018 28.6027 110.69 28.4574C110.362 28.3122 110.068 28.1 109.827 27.8344C109.586 27.5689 109.403 27.2558 109.291 26.9154C109.178 26.575 109.138 26.2148 109.172 25.8579V25.8579ZM113.188 25.8579C113.188 24.6819 112.66 23.9942 111.733 23.9942C110.802 23.9942 110.278 24.6819 110.278 25.8579C110.278 27.0434 110.802 27.7258 111.733 27.7258C112.66 27.7258 113.188 27.0386 113.188 25.8579Z" fill="white"/>
<path d="M115.725 23.1472H116.755V24.009H116.835C116.971 23.6995 117.2 23.44 117.49 23.2667C117.78 23.0935 118.117 23.0151 118.454 23.0424C118.718 23.0226 118.983 23.0624 119.23 23.1589C119.476 23.2554 119.698 23.4061 119.878 23.5999C120.059 23.7937 120.193 24.0256 120.272 24.2784C120.35 24.5312 120.371 24.7984 120.332 25.0603V28.5724H119.261V25.3292C119.261 24.4573 118.883 24.0237 118.091 24.0237C117.912 24.0154 117.733 24.0459 117.566 24.1132C117.4 24.1804 117.25 24.2829 117.127 24.4135C117.004 24.544 116.911 24.6997 116.853 24.8697C116.796 25.0398 116.776 25.2202 116.795 25.3986V28.5725H115.725V23.1472Z" fill="white"/>
<path d="M126.38 21.7969V23.1723H127.556V24.0742H126.38V26.8639C126.38 27.4322 126.615 27.681 127.148 27.681C127.284 27.6806 127.42 27.6724 127.556 27.6563V28.5482C127.364 28.5826 127.169 28.6009 126.973 28.6029C125.783 28.6029 125.309 28.184 125.309 27.138V24.0741H124.447V23.1723H125.309V21.7969H126.38Z" fill="white"/>
<path d="M129.02 21.0293H130.081V24.019H130.166C130.308 23.7066 130.543 23.4456 130.839 23.2717C131.135 23.0978 131.478 23.0194 131.82 23.0472C132.082 23.0329 132.345 23.0767 132.589 23.1756C132.832 23.2744 133.051 23.4258 133.23 23.619C133.408 23.8122 133.542 24.0424 133.621 24.2932C133.7 24.5439 133.723 24.8091 133.688 25.0697V28.5725H132.616V25.3339C132.616 24.4673 132.213 24.0284 131.456 24.0284C131.272 24.0133 131.087 24.0386 130.914 24.1026C130.741 24.1665 130.584 24.2675 130.453 24.3985C130.323 24.5295 130.223 24.6874 130.161 24.861C130.098 25.0347 130.074 25.22 130.09 25.4039V28.5725H129.02L129.02 21.0293Z" fill="white"/>
<path d="M139.933 27.1082C139.787 27.604 139.472 28.0329 139.042 28.3199C138.613 28.6068 138.096 28.7335 137.582 28.6778C137.225 28.6872 136.869 28.6188 136.541 28.4772C136.213 28.3356 135.919 28.1242 135.681 27.8578C135.442 27.5913 135.265 27.2762 135.16 26.9342C135.056 26.5923 135.027 26.2317 135.076 25.8775C135.028 25.5222 135.058 25.1608 135.162 24.8178C135.266 24.4749 135.443 24.1583 135.68 23.8895C135.917 23.6207 136.209 23.4061 136.537 23.26C136.864 23.114 137.219 23.04 137.577 23.0431C139.087 23.0431 139.998 24.0744 139.998 25.778V26.1516H136.167V26.2116C136.15 26.4107 136.175 26.6111 136.24 26.8C136.305 26.9889 136.409 27.162 136.545 27.3083C136.681 27.4547 136.846 27.571 137.03 27.6498C137.214 27.7286 137.412 27.7681 137.611 27.7659C137.868 27.7966 138.127 27.7505 138.357 27.6334C138.587 27.5163 138.777 27.3335 138.902 27.1082L139.933 27.1082ZM136.167 25.3598H138.907C138.92 25.1777 138.896 24.9948 138.834 24.8229C138.773 24.6509 138.676 24.4937 138.55 24.3613C138.425 24.229 138.273 24.1244 138.104 24.0543C137.935 23.9842 137.754 23.9502 137.571 23.9543C137.386 23.952 137.202 23.9868 137.031 24.0566C136.859 24.1264 136.704 24.2299 136.573 24.3608C136.442 24.4918 136.338 24.6477 136.269 24.8192C136.199 24.9908 136.164 25.1746 136.167 25.3598H136.167Z" fill="white"/>
</svg>
