<svg width="24" height="24" viewBox="0 0 24 24" fill="none" xmlns="http://www.w3.org/2000/svg">
<path fill-rule="evenodd" clip-rule="evenodd" d="M12 16C14.2091 16 16 14.2091 16 12C16 9.79086 14.2091 8 12 8C9.79086 8 8 9.79086 8 12C8 14.2091 9.79086 16 12 16Z" stroke="white" stroke-width="2" stroke-linecap="round" stroke-linejoin="round"/>
<path d="M16.0006 12.0004V13.0004C16.0006 14.6572 17.3437 16.0004 19.0006 16.0004C20.6574 16.0004 22.0006 14.6572 22.0006 13.0004V12.0004C22.0003 7.35326 18.7987 3.31877 14.2732 2.26265C9.74773 1.20653 5.09107 3.40714 3.03385 7.57407C0.976623 11.741 2.06104 16.776 5.65122 19.7266C9.2414 22.6772 14.3911 22.7658 18.0806 19.9404" stroke="white" stroke-width="2" stroke-linecap="round" stroke-linejoin="round"/>
</svg>
