<svg width="24" height="24" viewBox="0 0 24 24" fill="none" xmlns="http://www.w3.org/2000/svg">
<path d="M8.06857 2.02875C7.58758 2.30016 7.41767 2.9101 7.68908 3.3911C7.96049 3.87209 8.57043 4.042 9.05143 3.77059L8.06857 2.02875ZM19 8.99967L18 8.99916V8.99967H19ZM18 12.9997C18 13.552 18.4477 13.9997 19 13.9997C19.5523 13.9997 20 13.552 20 12.9997H18ZM17 17.9997C17.5523 17.9997 18 17.552 18 16.9997C18 16.4474 17.5523 15.9997 17 15.9997V17.9997ZM2 15.9997C1.44772 15.9997 1 16.4474 1 16.9997C1 17.552 1.44772 17.9997 2 17.9997V15.9997ZM5 8.99967L6 8.99967L6 8.99841L5 8.99967ZM6.66857 6.23841C6.92193 5.74767 6.72948 5.14445 6.23874 4.8911C5.748 4.63774 5.14478 4.83019 4.89143 5.32093L6.66857 6.23841ZM14.595 21.5014C14.8721 21.0237 14.7095 20.4118 14.2318 20.1347C13.754 19.8575 13.1421 20.0202 12.865 20.4979L14.595 21.5014ZM11.135 20.4979C10.8579 20.0202 10.246 19.8575 9.76823 20.1347C9.2905 20.4118 9.12788 21.0237 9.405 21.5014L11.135 20.4979ZM9.05143 3.77059C10.9096 2.72209 13.1848 2.73922 15.0269 3.81558L16.0359 2.08874C13.5797 0.6536 10.5461 0.630757 8.06857 2.02875L9.05143 3.77059ZM15.0269 3.81558C16.8691 4.89194 18.0011 6.86559 18 8.99916L20 9.00018C20.0015 6.15543 18.4921 3.52389 16.0359 2.08874L15.0269 3.81558ZM18 8.99967V12.9997H20V8.99967H18ZM17 15.9997H2V17.9997H17V15.9997ZM2 17.9997C4.20914 17.9997 6 16.2088 6 13.9997H4C4 15.1042 3.10457 15.9997 2 15.9997V17.9997ZM6 13.9997V8.99967H4V13.9997H6ZM6 8.99841C5.99879 8.03816 6.22807 7.09165 6.66857 6.23841L4.89143 5.32093C4.30409 6.45859 3.99839 7.7206 4 9.00093L6 8.99841ZM12.865 20.4979C12.6861 20.8063 12.3565 20.9961 12 20.9961V22.9961C13.0696 22.9961 14.0583 22.4266 14.595 21.5014L12.865 20.4979ZM12 20.9961C11.6435 20.9961 11.3139 20.8063 11.135 20.4979L9.405 21.5014C9.9417 22.4266 10.9304 22.9961 12 22.9961V20.9961Z" fill="white"/>
<path d="M1 1L23 23" stroke="white" stroke-width="2" stroke-linecap="round" stroke-linejoin="round"/>
</svg>
