<svg width="20" height="19" viewBox="0 0 20 19" fill="none" xmlns="http://www.w3.org/2000/svg">
    <path fill-rule="evenodd" clip-rule="evenodd" d="M18.25 14.75C18.25 15.5784 17.5784 16.25 16.75 16.25H3.25C2.42157 16.25 1.75 15.5784 1.75 14.75V6.5C1.75 5.67157 2.42157 5 3.25 5H6.25L7.75 2.75H12.25L13.75 5H16.75C17.5784 5 18.25 5.67157 18.25 6.5V14.75Z" stroke="#234052" stroke-width="2" stroke-linecap="round" stroke-linejoin="round"/>
    <path fill-rule="evenodd" clip-rule="evenodd" d="M10 13.25C11.6569 13.25 13 11.9069 13 10.25C13 8.59315 11.6569 7.25 10 7.25C8.34315 7.25 7 8.59315 7 10.25C7 11.9069 8.34315 13.25 10 13.25Z" stroke="#234052" stroke-width="2" stroke-linecap="round" stroke-linejoin="round"/>
</svg>
