<svg width="100" height="100" viewBox="0 0 100 100" fill="none" xmlns="http://www.w3.org/2000/svg">
<path d="M59.4326 31.3841C59.4051 31.3559 59.385 31.3228 59.3592 31.293L57.7358 29.6277C31.363 44.7189 11.1031 43.1286 3.54341 41.7197C2.4692 41.5221 1.35791 41.8761 0.573222 42.6721L-0.000976562 43.2544C0.83532 45.2915 3.03211 50.269 6.90472 56.7077C9.23539 56.4037 11.5685 55.99 13.8524 55.4634C22.9653 53.3641 31.7033 49.4915 39.8243 43.9536C40.6139 43.4165 41.6897 43.6205 42.2268 44.41C42.7647 45.2004 42.5607 46.2778 41.7711 46.8165C33.2936 52.5972 24.1613 56.6416 14.6274 58.8384C12.7443 59.2723 10.8289 59.6327 8.90877 59.9239C11.904 64.5812 15.6854 69.7957 20.3726 75.1248C21.2105 74.4562 22.0452 73.7821 22.8653 73.1054C28.8009 68.207 34.5283 62.8876 39.8897 57.294C40.5502 56.6045 41.6453 56.5803 42.334 57.2432C43.0228 57.9061 43.0461 59.0021 42.384 59.6916C36.93 65.382 31.1033 70.7941 25.0645 75.7772C24.2871 76.4192 23.4968 77.0587 22.7024 77.6942C27.3823 82.7273 32.867 87.7878 39.2445 92.5007C39.526 90.6306 39.8687 88.7668 40.2784 86.9362C42.4421 77.2764 46.4292 68.0215 52.1285 59.4263C52.6559 58.6287 53.7293 58.411 54.5253 58.9416C55.3204 59.4698 55.5374 60.5457 55.0091 61.3416C49.5454 69.582 45.7244 78.4482 43.6534 87.6926C43.1332 90.0136 42.7244 92.3878 42.4236 94.7621C45.0631 96.579 47.8333 98.3355 50.7607 100L53.2624 97.4629C53.9382 96.7782 54.3011 95.8258 54.2583 94.8524C53.9245 87.2265 54.1809 61.3715 70.8972 43.1278L65.1963 37.2801L59.4326 31.3841Z" fill="#D8C69E"/>
<path d="M94.7498 0C93.3546 0 92.0401 0.558069 91.0506 1.57098L63.0947 30.1664L67.7342 34.9253L70.5375 37.793L98.449 9.24362C100.518 7.12828 100.518 3.68632 98.449 1.57098C97.4587 0.558069 96.145 0 94.7498 0Z" fill="#D8C69E"/>
</svg>
