<svg width="25" height="24" viewBox="0 0 25 24" fill="none" xmlns="http://www.w3.org/2000/svg">
<path d="M21.8188 16.56C21.6034 17.0686 21.841 17.6554 22.3496 17.8708C22.8581 18.0862 23.445 17.8486 23.6604 17.34L21.8188 16.56ZM22.3022 12.2362L21.4689 12.7889L22.3022 12.2362ZM18.1296 10L18.1296 11L18.1308 11L18.1296 10ZM16.8696 10L15.9003 10.2461C16.0129 10.6895 16.4121 11 16.8696 11V10ZM9.90757 3.00388C9.35743 2.95528 8.87205 3.36187 8.82346 3.91201C8.77486 4.46215 9.18145 4.94753 9.73159 4.99612L9.90757 3.00388ZM5.61356 5.87513C6.09688 5.60789 6.27205 4.99943 6.0048 4.51611C5.73756 4.03279 5.12911 3.85763 4.64579 4.12487L5.61356 5.87513ZM9.12967 20V19C9.1243 19 9.11893 19 9.11356 19.0001L9.12967 20ZM18.1297 20V21H18.1308L18.1297 20ZM20.1709 20.64C20.69 20.4516 20.9581 19.878 20.7697 19.3588C20.5812 18.8397 20.0076 18.5716 19.4885 18.76L20.1709 20.64ZM23.6604 17.34C24.4457 15.4859 24.2486 13.3614 23.1355 11.6834L21.4689 12.7889C22.2109 13.9076 22.3423 15.3239 21.8188 16.56L23.6604 17.34ZM23.1355 11.6834C22.0225 10.0054 20.142 8.99761 18.1284 9L18.1308 11C19.4732 10.9984 20.7268 11.6703 21.4689 12.7889L23.1355 11.6834ZM18.1296 9H16.8696V11H18.1296V9ZM17.8388 9.75388C16.8976 6.04736 13.7169 3.34036 9.90757 3.00388L9.73159 4.99612C12.6944 5.25783 15.1683 7.36328 15.9003 10.2461L17.8388 9.75388ZM4.64579 4.12487C1.03023 6.12403 -0.759855 10.3281 0.304665 14.32L2.23713 13.8047C1.40917 10.6998 2.80146 7.43003 5.61356 5.87513L4.64579 4.12487ZM0.304665 14.32C1.36918 18.312 5.01487 21.0664 9.14578 20.9999L9.11356 19.0001C5.90063 19.0519 3.06509 16.9095 2.23713 13.8047L0.304665 14.32ZM9.12967 21H18.1297V19H9.12967V21ZM18.1308 21C18.8266 20.9992 19.5169 20.8774 20.1709 20.64L19.4885 18.76C19.0525 18.9182 18.5923 18.9995 18.1285 19L18.1308 21Z" fill="white"/>
<path d="M1 1L23 23" stroke="white" stroke-width="2" stroke-linecap="round" stroke-linejoin="round"/>
</svg>
