<svg width="214" height="159" viewBox="0 0 214 159" fill="none" xmlns="http://www.w3.org/2000/svg">
<path d="M-127.114 321.232C-136.03 311.68 -148.313 306.945 -160.579 307.36C-152.448 298.148 -148.272 285.635 -149.942 272.667L-81.7635 260.328C-80.3409 266.274 -77.628 271.63 -73.9804 276.166L-127.114 321.232ZM-172.713 239.59C-171.108 239.051 -169.528 238.43 -167.965 237.692C-158.048 232.998 -150.439 224.93 -146.253 214.847L-80.9282 238.396C-82.6734 243.77 -83.3433 249.59 -82.6403 255.577C-82.6237 255.735 -82.5824 255.867 -82.5659 256.025L-150.72 268.347C-153.664 255.627 -161.919 245.386 -172.713 239.59ZM-149.471 174.781C-147.817 175.113 -146.146 175.378 -144.434 175.519C-143.185 175.618 -141.952 175.676 -140.72 175.676C-131.101 175.676 -121.895 172.509 -114.228 166.622L-68.993 220.254C-73.418 224.109 -76.9415 228.919 -79.3567 234.3L-144.781 210.718C-141.605 200.279 -142.341 189.192 -147.014 179.25C-147.742 177.691 -148.586 176.215 -149.471 174.781ZM-97.1395 135.411C-96.9907 133.686 -96.9741 131.97 -97.032 130.27C-89.191 137.21 -78.9597 141.323 -68.0749 141.323C-66.2221 141.323 -64.3363 141.157 -62.4588 140.917L-49.8205 211.083C-55.6186 212.144 -60.9369 214.375 -65.5191 217.567L-110.894 163.786C-102.938 156.332 -98.0494 146.365 -97.1395 135.411ZM123.046 263.081C112.037 259.118 100.143 259.682 89.5559 264.69C79.6389 269.367 72.0294 277.451 67.8443 287.534L-3.69257 261.746C-2.31128 256.796 -1.83981 251.506 -2.47668 246.083C-3.31207 238.944 -5.97537 232.476 -9.92072 227.053L48.1094 177.849C55.5368 185.826 65.487 190.726 76.4049 191.638C77.6538 191.746 78.8945 191.804 80.1351 191.804C90.4658 191.804 100.366 188.172 108.348 181.414C109.266 180.627 109.382 179.242 108.604 178.322C107.819 177.393 106.446 177.293 105.519 178.056C97.4714 184.881 87.2648 188.164 76.7688 187.277C69.7549 186.68 63.1877 184.242 57.5551 180.312C60.2266 180.254 63.1959 179.773 66.4465 178.786C74.9326 176.224 84.3948 170.743 93.1125 163.346C94.0306 162.567 94.1464 161.182 93.3606 160.254C92.5832 159.333 91.2102 159.225 90.2838 160.005C82.021 167.003 73.1047 172.186 65.1893 174.582C57.9768 176.771 52.4352 176.34 49.9539 173.413V173.405H49.9456C47.4725 170.469 47.9771 164.905 51.3186 158.147C54.9992 150.726 61.5665 142.766 69.8293 135.759C70.7557 134.98 70.8715 133.595 70.0858 132.666C69.3083 131.738 67.927 131.638 67.0089 132.409C58.2911 139.797 51.3269 148.247 47.3981 156.207C45.901 159.242 44.925 162.086 44.4205 164.698C37.0179 148.919 40.6902 129.482 54.5939 117.7C55.512 116.92 55.6361 115.535 54.8504 114.615C54.0646 113.686 52.6916 113.579 51.7653 114.35C42.8325 121.928 37.3818 132.534 36.4058 144.225C35.4877 155.187 38.6638 165.826 45.2807 174.499L-12.6915 223.653C-20.7889 214.74 -32.6993 209.59 -45.4782 210.519L-58.1495 140.121C-35.5942 134.864 -20.7972 112.716 -24.9493 89.6067C-25.1726 88.4126 -26.3058 87.6166 -27.4968 87.8405C-28.6878 88.0561 -29.4736 89.2004 -29.2585 90.3861C-26.0245 108.346 -35.528 125.676 -51.2597 133.114C-49.9859 130.784 -48.9355 127.965 -48.1663 124.673C-46.1399 116.025 -46.1482 105.063 -48.1746 93.8106C-48.3814 92.6166 -49.531 91.804 -50.7138 92.0362C-51.8966 92.2518 -52.6906 93.3961 -52.4838 94.5901C-50.5567 105.27 -50.5318 115.593 -52.4259 123.67C-54.1463 131.016 -57.2893 135.627 -61.061 136.307C-64.8326 136.995 -69.39 133.778 -73.5503 127.492C-78.1408 120.585 -81.7222 110.9 -83.6411 100.229C-83.8644 99.0345 -84.9975 98.2303 -86.1886 98.4541C-87.3714 98.6697 -88.1654 99.814 -87.9503 101C-85.9239 112.26 -82.1109 122.534 -77.1979 129.922C-75.3204 132.741 -73.3601 135.013 -71.3502 136.754C-81.6974 135.884 -91.1678 130.933 -97.826 123.247C-99.2487 116 -102.458 109.192 -107.338 103.396C-107.404 103.321 -107.495 103.288 -107.569 103.222C-107.669 103.122 -107.784 103.031 -107.917 102.948C-108.024 102.882 -108.148 102.832 -108.281 102.782C-108.413 102.733 -108.554 102.691 -108.694 102.666C-108.835 102.65 -108.976 102.658 -109.108 102.658C-109.207 102.666 -109.306 102.633 -109.397 102.658C-109.447 102.666 -109.488 102.7 -109.538 102.708C-109.67 102.741 -109.786 102.799 -109.918 102.865C-110.051 102.923 -110.191 102.99 -110.315 103.073C-110.349 103.106 -110.398 103.106 -110.423 103.139C-110.497 103.205 -110.53 103.288 -110.597 103.355C-110.704 103.462 -110.795 103.57 -110.87 103.703C-110.944 103.827 -110.994 103.952 -111.043 104.093C-111.093 104.217 -111.126 104.341 -111.151 104.482C-111.176 104.632 -111.167 104.781 -111.159 104.93C-111.159 105.021 -111.184 105.112 -111.167 105.204C-109.794 112.816 -106.519 119.59 -101.945 125.179C-101.407 128.404 -101.217 131.705 -101.49 135.046C-102.086 142.078 -104.509 148.662 -108.43 154.292C-108.488 151.622 -108.984 148.653 -109.96 145.395C-112.516 136.895 -117.983 127.409 -125.352 118.67C-126.146 117.741 -127.519 117.642 -128.437 118.413C-129.364 119.192 -129.48 120.577 -128.694 121.506C-121.713 129.789 -116.544 138.728 -114.153 146.663C-111.97 153.885 -112.4 159.458 -115.328 161.937C-118.247 164.424 -123.797 163.919 -130.538 160.569C-137.957 156.887 -145.898 150.303 -152.879 142.011C-153.656 141.083 -155.037 140.983 -155.964 141.754C-156.89 142.534 -156.998 143.919 -156.22 144.847C-148.851 153.57 -140.422 160.56 -132.482 164.499C-129.43 166.008 -126.585 166.97 -123.954 167.476C-130.158 170.428 -137.039 171.738 -144.07 171.149C-147.387 170.867 -150.587 170.146 -153.656 169.084C-158.503 163.512 -164.69 159.209 -171.819 156.638C-171.919 156.605 -172.01 156.613 -172.092 156.605C-172.249 156.572 -172.39 156.547 -172.531 156.539C-172.671 156.539 -172.795 156.564 -172.936 156.589C-173.085 156.605 -173.209 156.63 -173.358 156.688C-173.482 156.738 -173.598 156.812 -173.713 156.887C-173.804 156.945 -173.895 156.962 -173.978 157.028C-174.02 157.061 -174.036 157.111 -174.069 157.144C-174.16 157.244 -174.235 157.343 -174.317 157.459C-174.408 157.592 -174.499 157.708 -174.549 157.849C-174.574 157.899 -174.607 157.924 -174.623 157.965C-174.656 158.048 -174.64 158.139 -174.665 158.23C-174.698 158.38 -174.731 158.521 -174.731 158.678C-174.731 158.819 -174.706 158.952 -174.681 159.084C-174.656 159.225 -174.632 159.358 -174.582 159.491C-174.524 159.632 -174.45 159.748 -174.367 159.88C-174.317 159.955 -174.292 160.055 -174.235 160.121C-169.33 165.925 -163.151 170.237 -156.245 172.841C-154.185 175.345 -152.391 178.098 -150.976 181.124C-147.966 187.501 -146.791 194.408 -147.378 201.257C-148.76 198.977 -150.67 196.647 -153.135 194.317C-159.603 188.247 -169.065 182.766 -179.801 178.902C-180.951 178.471 -182.191 179.076 -182.605 180.22C-183.01 181.356 -182.423 182.617 -181.282 183.023C-171.1 186.696 -162.167 191.846 -156.137 197.517C-150.645 202.683 -148.238 207.725 -149.537 211.332C-150.827 214.955 -155.889 217.302 -163.399 217.774C-171.671 218.313 -181.811 216.572 -192.001 212.907C-193.134 212.501 -194.391 213.09 -194.805 214.226C-195.202 215.361 -194.615 216.622 -193.473 217.036C-184.028 220.444 -174.532 222.252 -166.369 222.252C-165.26 222.252 -164.169 222.227 -163.126 222.161C-159.735 221.937 -156.791 221.365 -154.268 220.486C-158.172 226.141 -163.474 230.718 -169.834 233.72C-172.853 235.146 -175.996 236.124 -179.189 236.755C-186.013 234.4 -193.506 233.687 -201.107 235.063C-201.198 235.08 -201.265 235.138 -201.356 235.163C-201.496 235.212 -201.645 235.262 -201.777 235.337C-201.901 235.403 -202.001 235.478 -202.092 235.569C-202.207 235.668 -202.315 235.751 -202.414 235.867C-202.497 235.992 -202.563 236.108 -202.638 236.24C-202.679 236.332 -202.745 236.398 -202.778 236.481C-202.795 236.531 -202.778 236.572 -202.795 236.622C-202.836 236.755 -202.844 236.896 -202.861 237.045C-202.869 237.186 -202.886 237.335 -202.869 237.476C-202.861 237.526 -202.877 237.567 -202.869 237.617C-202.853 237.708 -202.795 237.783 -202.77 237.866C-202.729 238.015 -202.679 238.148 -202.604 238.28C-202.538 238.413 -202.447 238.504 -202.365 238.612C-202.274 238.728 -202.183 238.828 -202.075 238.919C-201.959 239.01 -201.835 239.076 -201.711 239.143C-201.62 239.184 -201.554 239.25 -201.455 239.292C-196.616 241.033 -191.612 241.904 -186.608 241.904C-184.276 241.904 -181.96 241.647 -179.652 241.265C-170.074 244.839 -162.093 252.045 -157.659 261.531C-166.096 256.871 -180.661 255.411 -196.914 258.347C-198.105 258.554 -198.899 259.698 -198.676 260.892C-198.469 262.078 -197.327 262.874 -196.145 262.667C-172.936 258.463 -155.889 263.72 -154.525 271.265C-153.168 278.811 -167.303 289.707 -190.52 293.911C-191.711 294.118 -192.497 295.262 -192.282 296.456C-192.084 297.518 -191.166 298.256 -190.132 298.256C-190.008 298.256 -189.875 298.256 -189.735 298.231C-173.482 295.287 -160.356 288.811 -154.078 281.489C-154.922 291.912 -159.876 301.448 -167.585 308.148C-174.648 309.541 -181.472 312.683 -187.353 317.667C-187.427 317.725 -187.468 317.816 -187.535 317.891C-187.625 317.999 -187.716 318.098 -187.799 318.231C-187.874 318.355 -187.923 318.479 -187.965 318.62C-188.014 318.745 -188.056 318.869 -188.08 319.002C-188.097 319.159 -188.097 319.309 -188.089 319.458C-188.08 319.557 -188.113 319.64 -188.089 319.732C-188.089 319.756 -188.056 319.773 -188.047 319.806C-187.973 320.146 -187.849 320.47 -187.609 320.751C-187.551 320.834 -187.46 320.867 -187.394 320.934C-187.328 320.992 -187.27 321.033 -187.212 321.067C-186.848 321.348 -186.434 321.498 -185.996 321.514C-185.971 321.514 -185.963 321.531 -185.938 321.531C-185.814 321.531 -185.682 321.523 -185.549 321.498C-177.965 320.13 -171.207 316.854 -165.633 312.277C-155.608 310.594 -145.153 312.816 -136.601 318.753C-139.264 318.819 -142.225 319.317 -145.459 320.295C-153.937 322.858 -163.408 328.339 -172.117 335.727C-173.044 336.506 -173.151 337.891 -172.374 338.819C-171.588 339.74 -170.207 339.856 -169.288 339.077C-161.026 332.07 -152.109 326.887 -144.194 324.491C-136.99 322.302 -131.432 322.733 -128.967 325.66V325.669H-128.959C-124.029 331.531 -130.836 348.048 -148.834 363.314C-149.76 364.101 -149.876 365.486 -149.09 366.407C-148.652 366.921 -148.04 367.186 -147.42 367.186C-146.932 367.186 -146.419 367.012 -146.014 366.664C-133.4 355.967 -125.245 343.778 -123.475 334.292C-116.006 350.088 -119.678 369.566 -133.599 381.373C-134.525 382.161 -134.632 383.546 -133.855 384.466C-133.425 384.972 -132.805 385.246 -132.184 385.246C-131.688 385.246 -131.183 385.072 -130.77 384.723C-121.837 377.145 -116.386 366.539 -115.41 354.848C-114.501 343.894 -117.668 333.247 -124.285 324.574L-71.0607 279.441C-67.1485 283.355 -62.4753 286.464 -57.2976 288.504C-96.9576 416.514 -169.338 533.87 -265.208 626.316L-265.341 626.449C-268.889 630.006 -268.889 635.785 -265.324 639.334C-261.768 642.891 -256.011 642.891 -252.463 639.318C-156.195 542.618 -85.1216 421.556 -47.6039 290.942C-44.4195 291.348 -41.1441 291.406 -37.8192 291.017C-36.9672 290.917 -36.1318 290.735 -35.2882 290.594L-13.9322 361.116C-35.7348 368.96 -47.8685 392.684 -41.0697 415.146C-40.7802 416.092 -39.9117 416.705 -38.9771 416.705C-38.762 416.705 -38.547 416.672 -38.3402 416.606C-37.1823 416.257 -36.5288 415.039 -36.8762 413.869C-42.1697 396.382 -34.7009 378.032 -19.8874 368.82C-23.5267 377.75 -23.2868 392.435 -18.4895 408.272C-18.2001 409.218 -17.3399 409.831 -16.397 409.831C-16.1902 409.831 -15.9669 409.806 -15.7601 409.74C-14.6021 409.383 -13.9487 408.156 -14.2961 407.004C-21.1529 384.375 -17.9189 366.796 -10.5989 364.566C-3.33688 362.352 9.1525 375.146 16.0092 397.775C16.3566 398.936 17.5477 399.599 18.7304 399.234C19.8801 398.886 20.5418 397.667 20.1944 396.498C15.3889 380.66 7.45691 368.33 -0.524719 362.924C16.886 362.327 33.2793 373.405 38.5811 390.901C38.9285 392.062 40.1609 392.725 41.3023 392.369C42.4602 392.012 43.1136 390.793 42.7663 389.632C35.9591 367.169 12.709 354.209 -9.75528 359.831L-31.0286 289.574C-19.052 286 -9.59811 277.136 -5.09036 265.901L66.372 291.663C59.6228 313.869 71.376 337.791 93.4103 345.735C93.6501 345.826 93.9066 345.868 94.1464 345.868C95.048 345.868 95.8916 345.304 96.2059 344.417C96.6195 343.272 96.0322 342.02 94.8908 341.606C77.7613 335.436 67.5383 318.521 68.9774 301.141C70.3587 303.421 72.261 305.743 74.7258 308.057C81.1856 314.135 90.656 319.607 101.392 323.479C101.632 323.562 101.888 323.604 102.128 323.604C103.021 323.604 103.865 323.048 104.188 322.153C104.601 321.017 104.006 319.756 102.872 319.342C92.6824 315.677 83.7496 310.536 77.7283 304.856C72.2362 299.69 69.8293 294.657 71.1279 291.033C72.4182 287.426 77.4718 285.08 84.9903 284.599C93.2283 284.06 103.394 285.801 113.592 289.474C114.733 289.889 115.982 289.284 116.379 288.148C116.793 287.012 116.205 285.76 115.064 285.345C104.328 281.473 93.5426 279.665 84.7008 280.221C81.3262 280.436 78.3734 281.008 75.859 281.887C79.7547 276.232 85.0482 271.655 91.4252 268.653C100.945 264.159 111.648 263.645 121.565 267.211C122.715 267.625 123.956 267.037 124.361 265.892C124.774 264.748 124.187 263.496 123.046 263.081Z" fill="#ECE3CF"/>
<path d="M-10.1956 162.738C-8.59924 161.511 -7.3255 160.085 -6.34125 158.476C-5.35696 156.876 -4.6622 155.102 -4.29828 153.12C-4.14111 152.1 -4.0336 151.047 -4.07495 149.911L52.0363 62.7714C58.7358 66.6603 66.1716 68.7498 73.781 68.7498C76.8827 68.7498 80.0009 68.4181 83.0943 67.7465C94.5332 65.2838 104.335 58.4927 110.67 48.6337C111.332 47.6221 111.034 46.2622 110.025 45.6071C109.008 44.9438 107.651 45.2423 106.998 46.2622C97.089 61.6602 78.2309 67.7962 61.6225 62.3485C70.7951 59.4049 81.8536 49.7863 90.8608 35.8061C91.5143 34.7862 91.2165 33.4346 90.2075 32.7796C89.1901 32.1245 87.8419 32.4147 87.1719 33.4347C74.3931 53.2937 58.9178 62.1992 52.4912 58.0284C46.0645 53.8742 47.7766 36.0798 60.5721 16.2124C61.2255 15.1925 60.936 13.8326 59.9186 13.1776C58.9013 12.5225 57.5448 12.8127 56.8914 13.8326C47.9255 27.7547 43.6742 41.8095 44.7411 51.4115C40.0845 46.3037 36.8257 40.0765 35.3286 33.1444C33.1037 22.821 35.0392 12.2572 40.7462 3.38483C41.3996 2.36493 41.1101 1.00506 40.0928 0.350003C39.0754 -0.305056 37.7272 -0.0148359 37.0738 1.00507C24.3777 20.7232 29.5306 46.8841 48.3391 60.433L-7.49918 147.15C-8.79773 147.689 -9.89783 148.344 -10.8904 149.073C-12.4867 150.292 -13.7521 151.727 -14.7281 153.327C-15.7041 154.944 -16.3989 156.718 -16.7628 158.709C-17.0771 160.715 -17.1847 162.863 -16.4237 165.533C-13.6942 165.002 -11.8415 163.932 -10.1956 162.738Z" fill="#ECE3CF"/>
<path d="M213.746 51.0616C213.275 50.3734 212.34 50.191 211.654 50.6553C205.657 54.7101 198.461 56.186 191.356 54.8013C186.625 53.8726 182.39 51.6669 178.85 48.5823C179.338 48.6238 179.793 48.6984 180.306 48.6984C181.737 48.6984 183.276 48.5492 184.946 48.2341C190.918 47.1147 197.783 44.0798 204.276 39.6934C204.962 39.2208 205.153 38.2921 204.681 37.5956C204.226 36.9156 203.283 36.7249 202.597 37.1976C196.435 41.3601 189.975 44.2291 184.384 45.2739C179.305 46.2274 175.55 45.5226 174.078 43.3336C171.15 38.972 177.023 28.2009 190.447 19.1212C191.133 18.6569 191.307 17.7199 190.844 17.0317C190.38 16.3435 189.446 16.161 188.759 16.6254C179.338 22.9936 172.953 30.705 171.051 37.0566C169.479 32.5707 169.024 27.7614 169.951 22.9853C171.324 15.8625 175.385 9.71824 181.381 5.6635C182.068 5.19916 182.25 4.26217 181.787 3.57394C181.324 2.88571 180.389 2.695 179.702 3.16764C173.044 7.67014 168.528 14.5027 167.006 22.4048C165.567 29.8095 166.94 37.322 170.811 43.7316L114.824 81.5924C113.98 81.5841 113.203 81.667 112.475 81.8245C111.135 82.1396 109.911 82.6371 108.844 83.3668C107.769 84.0799 106.85 85.0169 106.048 86.1446C105.262 87.2723 104.592 88.599 104.303 90.4813C106.139 90.929 107.62 90.8212 108.968 90.5144C110.316 90.2159 111.532 89.7101 112.599 88.9887C113.682 88.2839 114.609 87.3469 115.403 86.2192C115.841 85.5974 116.222 84.876 116.544 84.0551L172.49 46.2274C176.973 52.2308 183.391 56.3104 190.786 57.7532C192.713 58.1346 194.648 58.317 196.584 58.317C202.514 58.317 208.312 56.5508 213.333 53.1512C214.019 52.6868 214.209 51.7498 213.746 51.0616Z" fill="#ECE3CF"/>
<path d="M177.584 219.81C165.409 224.221 152.176 219.628 145.095 209.462C146.882 210.075 148.975 210.482 151.373 210.631C152.093 210.672 152.837 210.689 153.59 210.689C159.413 210.689 166.187 209.387 172.936 206.933C173.738 206.642 174.16 205.755 173.871 204.943C173.573 204.13 172.671 203.724 171.877 204.006C164.648 206.634 157.428 207.878 151.563 207.521C146.229 207.198 142.631 205.531 141.704 202.969C140.778 200.399 142.482 196.817 146.378 193.135C150.645 189.097 156.989 185.423 164.218 182.795C165.021 182.505 165.434 181.617 165.145 180.805C164.855 179.992 163.97 179.578 163.16 179.868C155.534 182.637 148.809 186.543 144.244 190.871C142.498 192.521 141.142 194.171 140.166 195.797C139.115 183.442 146.353 171.418 158.503 166.999C159.314 166.709 159.735 165.813 159.446 165.009C159.148 164.196 158.255 163.782 157.444 164.064C141.812 169.752 133.499 186.767 138.33 202.53L72.7729 226.327C71.4413 225.904 70.2171 225.764 69.0426 225.772C67.3305 225.73 65.759 226.079 64.2867 226.642C62.8228 227.239 61.4332 228.044 60.2008 229.238C58.9436 230.374 57.7939 231.792 56.942 233.972C59.0346 235.001 60.8377 235.258 62.5333 235.249C64.2537 235.299 65.8086 234.951 67.2974 234.395C68.7697 233.807 70.1592 233.002 71.3916 231.817C72.1277 231.145 72.8142 230.357 73.4346 229.395L139.43 205.448C144.376 217.264 155.84 224.603 168.081 224.603C171.58 224.603 175.153 224.006 178.635 222.745C179.454 222.438 179.859 221.551 179.569 220.739C179.28 219.934 178.395 219.52 177.584 219.81Z" fill="#ECE3CF"/>
</svg>
