<svg width="78" height="104" viewBox="0 0 78 104" fill="none" xmlns="http://www.w3.org/2000/svg">
<mask id="mask0" maskUnits="userSpaceOnUse" x="0" y="0" width="78" height="104">
<path d="M22.9207 51.6466C21.4886 50.1109 19.5159 49.3496 17.5459 49.4163C18.8517 47.9352 19.5226 45.9235 19.2542 43.8384L30.2044 41.8547C30.4329 42.8106 30.8686 43.6718 31.4545 44.401L22.9207 51.6466ZM15.5971 38.5205C15.8548 38.4339 16.1085 38.3339 16.3596 38.2152C17.9524 37.4607 19.1745 36.1635 19.8467 34.5424L30.3386 38.3285C30.0583 39.1924 29.9507 40.1283 30.0636 41.0908C30.0663 41.1161 30.0729 41.1375 30.0756 41.1628L19.1293 43.1439C18.6564 41.0988 17.3307 39.4524 15.5971 38.5205ZM19.3299 28.1007C19.5956 28.154 19.864 28.1966 20.139 28.2193C20.3395 28.2353 20.5375 28.2446 20.7354 28.2446C22.2804 28.2446 23.7589 27.7354 24.9904 26.7888L32.2555 35.4116C31.5448 36.0315 30.9789 36.8048 30.591 37.67L20.0832 33.8785C20.5933 32.2001 20.475 30.4177 19.7245 28.8192C19.6076 28.5686 19.4721 28.3313 19.3299 28.1007ZM27.7349 21.7709C27.7588 21.4936 27.7614 21.2176 27.7521 20.9443C29.0115 22.0602 30.6547 22.7214 32.403 22.7214C32.7005 22.7214 33.0034 22.6948 33.305 22.6561L35.3348 33.9372C34.4036 34.1078 33.5494 34.4664 32.8134 34.9797L25.5257 26.3329C26.8036 25.1344 27.5887 23.532 27.7349 21.7709ZM63.0988 42.2973C61.3307 41.6601 59.4204 41.7507 57.72 42.5559C56.1273 43.3078 54.9051 44.6077 54.2329 46.2288L42.7434 42.0827C42.9652 41.2868 43.041 40.4362 42.9387 39.5644C42.8045 38.4165 42.3768 37.3767 41.7431 36.5048L51.0633 28.5939C52.2562 29.8764 53.8543 30.6643 55.6079 30.8109C55.8084 30.8283 56.0077 30.8376 56.207 30.8376C57.8662 30.8376 59.4563 30.2537 60.7382 29.1672C60.8857 29.0405 60.9043 28.8179 60.7794 28.6699C60.6532 28.5206 60.4327 28.5046 60.2839 28.6273C58.9913 29.7244 57.3521 30.2524 55.6663 30.1097C54.5398 30.0137 53.485 29.6218 52.5804 28.9899C53.0095 28.9805 53.4864 28.9032 54.0084 28.7446C55.3714 28.3326 56.8911 27.4514 58.2913 26.2623C58.4387 26.1369 58.4573 25.9143 58.3311 25.765C58.2062 25.617 57.9857 25.5997 57.8369 25.725C56.5099 26.8502 55.0778 27.6834 53.8065 28.0687C52.6481 28.4206 51.7581 28.3513 51.3596 27.8807V27.8794H51.3582C50.961 27.4074 51.0421 26.5129 51.5787 25.4264C52.1699 24.2332 53.2247 22.9534 54.5518 21.8269C54.7005 21.7016 54.7191 21.4789 54.5929 21.3296C54.4681 21.1803 54.2462 21.1643 54.0988 21.2883C52.6986 22.4761 51.5801 23.8346 50.9491 25.1144C50.7086 25.6023 50.5519 26.0596 50.4708 26.4796C49.2819 23.9426 49.8717 20.8177 52.1048 18.9233C52.2523 18.798 52.2722 18.5753 52.146 18.4274C52.0198 18.2781 51.7993 18.2607 51.6505 18.3847C50.2158 19.6032 49.3404 21.3083 49.1836 23.188C49.0361 24.9504 49.5463 26.6609 50.609 28.0553L41.2981 35.9582C39.9976 34.5251 38.0846 33.6972 36.0322 33.8465L33.9971 22.5281C37.6197 21.6829 39.9962 18.1221 39.3294 14.4066C39.2935 14.2146 39.1115 14.0867 38.9202 14.1227C38.7289 14.1573 38.6027 14.3413 38.6372 14.5319C39.1567 17.4195 37.6303 20.2058 35.1036 21.4016C35.3082 21.027 35.4769 20.5737 35.6005 20.0445C35.9259 18.654 35.9246 16.8916 35.5991 15.0825C35.5659 14.8905 35.3813 14.7599 35.1913 14.7972C35.0014 14.8319 34.8738 15.0159 34.907 15.2078C35.2166 16.9249 35.2205 18.5847 34.9163 19.8832C34.64 21.0643 34.1352 21.8056 33.5295 21.9149C32.9237 22.0255 32.1917 21.5083 31.5235 20.4977C30.7863 19.3872 30.2111 17.8301 29.9029 16.1144C29.867 15.9224 29.685 15.7931 29.4937 15.8291C29.3037 15.8637 29.1762 16.0477 29.2108 16.2383C29.5362 18.0488 30.1486 19.7005 30.9377 20.8884C31.2393 21.3416 31.5541 21.7069 31.8769 21.9869C30.215 21.8469 28.694 21.051 27.6246 19.8152C27.3961 18.65 26.8807 17.5555 26.0969 16.6236C26.0863 16.6116 26.0717 16.6063 26.0597 16.5956C26.0438 16.5796 26.0252 16.565 26.0039 16.5516C25.9867 16.541 25.9667 16.533 25.9455 16.525C25.9242 16.517 25.9016 16.5103 25.8791 16.5063C25.8565 16.5036 25.8339 16.505 25.8126 16.505C25.7967 16.5063 25.7808 16.501 25.7661 16.505C25.7582 16.5063 25.7515 16.5116 25.7436 16.513C25.7223 16.5183 25.7037 16.5276 25.6825 16.5383C25.6612 16.5476 25.6386 16.5583 25.6187 16.5716C25.6134 16.577 25.6054 16.577 25.6014 16.5823C25.5895 16.593 25.5842 16.6063 25.5735 16.617C25.5563 16.6343 25.5416 16.6516 25.5297 16.673C25.5177 16.6929 25.5098 16.713 25.5018 16.7356C25.4938 16.7556 25.4885 16.7756 25.4845 16.7983C25.4805 16.8223 25.4819 16.8463 25.4832 16.8703C25.4832 16.8849 25.4792 16.8996 25.4819 16.9142C25.7024 18.1381 26.2284 19.2273 26.9631 20.1258C27.0494 20.6444 27.08 21.175 27.0361 21.7122C26.9405 22.8427 26.5512 23.9013 25.9216 24.8065C25.9123 24.3772 25.8326 23.8999 25.6758 23.376C25.2653 22.0095 24.3872 20.4844 23.2036 19.0793C23.0761 18.93 22.8556 18.914 22.7081 19.0379C22.5593 19.1633 22.5407 19.3859 22.6669 19.5352C23.7881 20.867 24.6184 22.3042 25.0023 23.58C25.353 24.7411 25.2839 25.637 24.8137 26.0356C24.3447 26.4356 23.4534 26.3542 22.3707 25.8157C21.1791 25.2237 19.9038 24.1652 18.7826 22.8321C18.6578 22.6828 18.4359 22.6668 18.2871 22.7907C18.1383 22.9161 18.1211 23.1387 18.2459 23.288C19.4296 24.6905 20.7832 25.8143 22.0585 26.4476C22.5487 26.6902 23.0057 26.8448 23.4281 26.9262C22.4318 27.4008 21.3266 27.6114 20.1974 27.5167C19.6647 27.4714 19.1506 27.3554 18.6578 27.1848C17.8793 26.2889 16.8856 25.597 15.7405 25.1837C15.7246 25.1784 15.71 25.1797 15.6967 25.1784C15.6715 25.1731 15.6489 25.1691 15.6263 25.1677C15.6037 25.1677 15.5838 25.1717 15.5612 25.1757C15.5373 25.1784 15.5174 25.1824 15.4935 25.1917C15.4735 25.1997 15.4549 25.2117 15.4363 25.2237C15.4217 25.2331 15.4071 25.2357 15.3938 25.2464C15.3872 25.2517 15.3845 25.2597 15.3792 25.2651C15.3646 25.2811 15.3526 25.2971 15.3394 25.3157C15.3247 25.3371 15.3101 25.3557 15.3022 25.3784C15.2982 25.3864 15.2929 25.3904 15.2902 25.397C15.2849 25.4104 15.2875 25.425 15.2836 25.4397C15.2782 25.4637 15.2729 25.4864 15.2729 25.5117C15.2729 25.5344 15.2769 25.5557 15.2809 25.577C15.2849 25.5997 15.2889 25.621 15.2968 25.6423C15.3061 25.665 15.3181 25.6837 15.3314 25.705C15.3394 25.717 15.3433 25.733 15.3526 25.7437C16.1404 26.6769 17.1327 27.3701 18.242 27.7887C18.5727 28.1913 18.861 28.6339 19.0882 29.1205C19.5717 30.1457 19.7603 31.2562 19.666 32.3574C19.4442 31.9908 19.1373 31.6162 18.7414 31.2415C17.7026 30.2657 16.1829 29.3845 14.4586 28.7632C14.274 28.6939 14.0747 28.7912 14.0083 28.9752C13.9432 29.1578 14.0375 29.3605 14.2208 29.4258C15.8561 30.0164 17.2908 30.8443 18.2592 31.7561C19.1413 32.5867 19.5279 33.3972 19.3193 33.9772C19.1121 34.5597 18.2991 34.937 17.0929 35.013C15.7645 35.0997 14.1358 34.8197 12.4992 34.2305C12.3172 34.1651 12.1153 34.2598 12.0489 34.4424C11.9851 34.6251 12.0794 34.8277 12.2627 34.8944C13.7798 35.4423 15.3048 35.7329 16.616 35.7329C16.794 35.7329 16.9693 35.7289 17.1367 35.7182C17.6814 35.6823 18.1543 35.5903 18.5595 35.449C17.9324 36.3582 17.0809 37.0941 16.0594 37.5767C15.5745 37.806 15.0697 37.9633 14.5569 38.0646C13.461 37.686 12.2574 37.5713 11.0366 37.7926C11.022 37.7953 11.0114 37.8046 10.9967 37.8086C10.9742 37.8166 10.9502 37.8246 10.929 37.8366C10.9091 37.8473 10.8931 37.8593 10.8785 37.8739C10.8599 37.8899 10.8426 37.9033 10.8267 37.9219C10.8134 37.9419 10.8028 37.9606 10.7908 37.9819C10.7842 37.9966 10.7736 38.0073 10.7683 38.0206C10.7656 38.0286 10.7683 38.0352 10.7656 38.0433C10.759 38.0646 10.7576 38.0872 10.755 38.1112C10.7536 38.1339 10.751 38.1579 10.7536 38.1806C10.755 38.1886 10.7523 38.1952 10.7536 38.2032C10.7563 38.2179 10.7656 38.2299 10.7696 38.2432C10.7762 38.2672 10.7842 38.2886 10.7961 38.3099C10.8068 38.3312 10.8214 38.3459 10.8347 38.3632C10.8493 38.3819 10.8639 38.3979 10.8812 38.4125C10.8998 38.4272 10.9197 38.4379 10.9396 38.4485C10.9542 38.4552 10.9649 38.4659 10.9808 38.4725C11.7579 38.7525 12.5616 38.8925 13.3653 38.8925C13.7399 38.8925 14.1119 38.8511 14.4825 38.7898C16.0208 39.3644 17.3028 40.5229 18.0148 42.048C16.6598 41.2988 14.3205 41.0642 11.7101 41.5361C11.5188 41.5694 11.3913 41.7534 11.4271 41.9454C11.4604 42.136 11.6437 42.264 11.8336 42.2307C15.5612 41.5547 18.2991 42.4 18.5183 43.6131C18.7361 44.8263 16.4659 46.578 12.737 47.2539C12.5457 47.2873 12.4195 47.4712 12.454 47.6632C12.4859 47.8339 12.6334 47.9525 12.7994 47.9525C12.8193 47.9525 12.8406 47.9525 12.8632 47.9485C15.4735 47.4752 17.5817 46.4341 18.59 45.2569C18.4545 46.9327 17.6588 48.4658 16.4207 49.5429C15.2862 49.7669 14.1903 50.2722 13.2458 51.0734C13.2338 51.0827 13.2272 51.0974 13.2165 51.1094C13.2019 51.1267 13.1873 51.1427 13.174 51.1641C13.1621 51.184 13.1541 51.204 13.1475 51.2267C13.1395 51.2467 13.1328 51.2667 13.1289 51.288C13.1262 51.3134 13.1262 51.3374 13.1275 51.3614C13.1289 51.3774 13.1235 51.3907 13.1275 51.4053C13.1275 51.4094 13.1328 51.412 13.1342 51.4174C13.1461 51.472 13.1661 51.524 13.2046 51.5693C13.2139 51.5827 13.2285 51.588 13.2391 51.5987C13.2497 51.608 13.259 51.6147 13.2683 51.62C13.3268 51.6653 13.3932 51.6893 13.4636 51.692C13.4676 51.692 13.4689 51.6946 13.4729 51.6946C13.4928 51.6946 13.5141 51.6933 13.5354 51.6893C14.7535 51.4693 15.8388 50.9428 16.7342 50.2069C18.3442 49.9362 20.0234 50.2935 21.397 51.248C20.9692 51.2587 20.4936 51.3387 19.9742 51.496C18.6126 51.9079 17.0915 52.7892 15.6927 53.977C15.5439 54.1023 15.5267 54.3249 15.6515 54.4743C15.7777 54.6222 15.9996 54.6409 16.147 54.5156C17.4741 53.3891 18.9062 52.5559 20.1775 52.1706C21.3345 51.8186 22.2272 51.8879 22.6231 52.3585V52.3599H22.6244C23.4162 53.3024 22.3229 55.958 19.4322 58.4124C19.2834 58.539 19.2648 58.7616 19.391 58.9096C19.4615 58.9923 19.5598 59.0349 19.6594 59.0349C19.7378 59.0349 19.8201 59.0069 19.8852 58.9509C21.9111 57.2312 23.2209 55.2715 23.5052 53.7464C24.7047 56.286 24.1149 59.4175 21.8792 61.3159C21.7304 61.4426 21.7131 61.6652 21.838 61.8132C21.9071 61.8945 22.0067 61.9385 22.1063 61.9385C22.1861 61.9385 22.2671 61.9105 22.3335 61.8545C23.7682 60.636 24.6436 58.931 24.8004 57.0512C24.9465 55.2901 24.4377 53.5784 23.375 52.1839L31.9234 44.9276C32.5517 45.5569 33.3023 46.0568 34.1339 46.3847C27.7641 66.9658 16.1391 85.8338 0.741313 100.697L0.720057 100.718C0.150163 101.29 0.150164 102.219 0.722715 102.79C1.29394 103.362 2.21852 103.362 2.78841 102.787C18.2499 87.2403 29.6651 67.7764 35.6908 46.7767C36.2022 46.842 36.7283 46.8513 37.2623 46.7887C37.3992 46.7727 37.5333 46.7433 37.6688 46.7207L41.0988 58.0591C37.5971 59.3202 35.6483 63.1344 36.7403 66.7458C36.7868 66.8978 36.9262 66.9965 37.0763 66.9965C37.1109 66.9965 37.1454 66.9911 37.1786 66.9805C37.3646 66.9245 37.4696 66.7285 37.4138 66.5405C36.5636 63.7289 37.7631 60.7787 40.1423 59.2976C39.5578 60.7334 39.5964 63.0944 40.3669 65.6407C40.4133 65.7926 40.5515 65.8913 40.7029 65.8913C40.7362 65.8913 40.772 65.8873 40.8052 65.8766C40.9912 65.8193 41.0962 65.622 41.0404 65.4367C39.9391 61.7985 40.4585 58.9723 41.6342 58.6137C42.8005 58.2577 44.8064 60.3148 45.9077 63.9529C45.9635 64.1395 46.1548 64.2462 46.3448 64.1875C46.5294 64.1315 46.6357 63.9356 46.5799 63.7476C45.8081 61.2013 44.5341 59.2189 43.2522 58.3497C46.0485 58.2537 48.6815 60.0348 49.533 62.8477C49.5888 63.0344 49.7867 63.141 49.97 63.0837C50.156 63.0264 50.2609 62.8304 50.2052 62.6438C49.1119 59.0323 45.3777 56.9486 41.7697 57.8524L38.353 46.5567C40.2765 45.9821 41.7949 44.557 42.5189 42.7506L53.9965 46.8927C52.9125 50.4628 54.8002 54.3089 58.3391 55.5861C58.3776 55.6008 58.4188 55.6074 58.4573 55.6074C58.6021 55.6074 58.7376 55.5168 58.7881 55.3741C58.8545 55.1901 58.7602 54.9888 58.5769 54.9222C55.8257 53.9303 54.1838 51.2107 54.4149 48.4164C54.6368 48.7831 54.9423 49.1563 55.3382 49.5283C56.3757 50.5055 57.8967 51.3854 59.621 52.0079C59.6595 52.0213 59.7007 52.0279 59.7393 52.0279C59.8827 52.0279 60.0182 51.9386 60.07 51.7946C60.1365 51.612 60.0408 51.4094 59.8588 51.3427C58.2222 50.7534 56.7875 49.9269 55.8204 49.0137C54.9383 48.1831 54.5518 47.3739 54.7603 46.7913C54.9676 46.2114 55.7792 45.8341 56.9868 45.7568C58.3099 45.6702 59.9425 45.9501 61.5804 46.5407C61.7638 46.6074 61.9644 46.51 62.0281 46.3274C62.0945 46.1448 62.0002 45.9435 61.8169 45.8768C60.0926 45.2542 58.3603 44.9636 56.9403 45.0529C56.3983 45.0876 55.924 45.1796 55.5202 45.3209C56.1459 44.4117 56.9961 43.6758 58.0203 43.1932C59.5493 42.4706 61.2683 42.388 62.861 42.9612C63.0457 43.0279 63.245 42.9332 63.3101 42.7492C63.3765 42.5653 63.2822 42.364 63.0988 42.2973Z" fill="#D7C59D"/>
<path d="M41.6985 26.1645C41.9549 25.9672 42.1595 25.7379 42.3176 25.4793C42.4757 25.222 42.5872 24.9367 42.6457 24.6181C42.6709 24.4541 42.6882 24.2848 42.6816 24.1021L51.6936 10.0921C52.7696 10.7174 53.9639 11.0533 55.186 11.0533C55.6842 11.0533 56.185 11 56.6818 10.892C58.519 10.4961 60.0932 9.40421 61.1108 7.81911C61.2171 7.65646 61.1692 7.43783 61.0072 7.33251C60.8438 7.22586 60.6259 7.27385 60.521 7.43783C58.9295 9.91348 55.9007 10.9 53.2332 10.0241C54.7065 9.55086 56.4826 8.00441 57.9292 5.75673C58.0342 5.59276 57.9863 5.37545 57.8243 5.27013C57.6609 5.16482 57.4443 5.21148 57.3367 5.37545C55.2843 8.56833 52.7988 10.0001 51.7667 9.32956C50.7345 8.66165 51.0095 5.80073 53.0645 2.60651C53.1695 2.44254 53.123 2.2239 52.9596 2.11858C52.7962 2.01326 52.5783 2.05993 52.4734 2.2239C51.0334 4.46225 50.3506 6.72193 50.5219 8.26571C49.774 7.44449 49.2506 6.4433 49.0102 5.32879C48.6528 3.66903 48.9637 1.9706 49.8803 0.54414C49.9852 0.380163 49.9387 0.161528 49.7753 0.0562096C49.612 -0.0491085 49.3954 -0.00244904 49.2905 0.161528C47.2513 3.33175 48.079 7.53781 51.0998 9.71617L42.1316 23.6582C41.923 23.7448 41.7464 23.8502 41.5869 23.9675C41.3306 24.1635 41.1273 24.3941 40.9706 24.6514C40.8138 24.9113 40.7022 25.1966 40.6438 25.5166C40.5933 25.8392 40.576 26.1845 40.6982 26.6138C41.1366 26.5284 41.4342 26.3565 41.6985 26.1645Z" fill="#D7C59D"/>
<path d="M77.6666 8.20945C77.5908 8.0988 77.4407 8.06947 77.3305 8.14413C76.3674 8.79603 75.2116 9.03333 74.0705 8.8107C73.3107 8.66139 72.6305 8.30677 72.0619 7.81084C72.1403 7.81751 72.2134 7.82951 72.2958 7.82951C72.5256 7.82951 72.7727 7.80551 73.041 7.75485C74.0001 7.57487 75.1027 7.08694 76.1455 6.38171C76.2558 6.30572 76.2863 6.15641 76.2106 6.04443C76.1376 5.93511 75.9861 5.90444 75.8759 5.98043C74.8862 6.64967 73.8487 7.11094 72.9507 7.27892C72.135 7.43223 71.5319 7.31891 71.2954 6.96696C70.8252 6.26573 71.7684 4.53397 73.9244 3.07418C74.0347 2.99952 74.0626 2.84888 73.9882 2.73823C73.9138 2.62758 73.7637 2.59825 73.6534 2.6729C72.1403 3.69676 71.1148 4.93658 70.8092 5.95777C70.5568 5.23654 70.4838 4.46332 70.6326 3.69543C70.8531 2.55025 71.5053 1.56239 72.4684 0.910487C72.5787 0.835831 72.6079 0.685184 72.5335 0.574533C72.4591 0.463882 72.309 0.43322 72.1988 0.50921C71.1294 1.23311 70.4041 2.33162 70.1596 3.6021C69.9285 4.7926 70.149 6.00043 70.7707 7.03095L61.7786 13.1181C61.6431 13.1168 61.5183 13.1301 61.4013 13.1554C61.1861 13.2061 60.9895 13.2861 60.8182 13.4034C60.6455 13.518 60.498 13.6687 60.3692 13.85C60.243 14.0313 60.1354 14.2446 60.0889 14.5472C60.3838 14.6192 60.6216 14.6019 60.8381 14.5526C61.0546 14.5046 61.2499 14.4232 61.4213 14.3073C61.5953 14.1939 61.7441 14.0433 61.8716 13.862C61.942 13.762 62.0031 13.646 62.0549 13.514L71.0404 7.43223C71.7604 8.39742 72.7913 9.05333 73.9789 9.2853C74.2884 9.34662 74.5992 9.37595 74.9101 9.37595C75.8626 9.37595 76.7938 9.09199 77.6001 8.5454C77.7104 8.47075 77.741 8.3201 77.6666 8.20945Z" fill="#D7C59D"/>
<path d="M71.8578 35.3403C69.9024 36.0495 67.7769 35.311 66.6398 33.6765C66.9267 33.7752 67.2628 33.8405 67.6481 33.8645C67.7636 33.8712 67.8832 33.8738 68.0041 33.8738C68.9393 33.8738 70.0273 33.6645 71.1113 33.2699C71.2401 33.2233 71.3079 33.0806 71.2614 32.95C71.2136 32.8193 71.0688 32.754 70.9412 32.7993C69.7802 33.2219 68.6205 33.4219 67.6786 33.3646C66.8218 33.3126 66.2439 33.0446 66.0951 32.6327C65.9464 32.2194 66.22 31.6435 66.8457 31.0516C67.5312 30.4023 68.5501 29.8117 69.7111 29.3891C69.84 29.3425 69.9064 29.1998 69.8599 29.0692C69.8134 28.9385 69.6713 28.8719 69.5411 28.9185C68.3163 29.3638 67.2363 29.9917 66.503 30.6876C66.2227 30.9529 66.0048 31.2182 65.848 31.4795C65.6793 29.4931 66.8417 27.5601 68.7932 26.8495C68.9233 26.8028 68.9911 26.6589 68.9446 26.5295C68.8968 26.3989 68.7533 26.3322 68.6231 26.3776C66.1124 27.2921 64.7773 30.0277 65.5531 32.562L55.024 36.3881C54.8102 36.3202 54.6136 36.2975 54.4249 36.2988C54.1499 36.2922 53.8975 36.3481 53.6611 36.4388C53.426 36.5348 53.2028 36.6641 53.0048 36.8561C52.8029 37.0387 52.6183 37.2667 52.4814 37.6173C52.8175 37.7826 53.1071 37.8239 53.3795 37.8226C53.6558 37.8306 53.9055 37.7746 54.1446 37.6853C54.3811 37.5906 54.6043 37.4613 54.8022 37.2707C54.9204 37.1627 55.0307 37.0361 55.1303 36.8814L65.7298 33.0313C66.5242 34.931 68.3654 36.1108 70.3315 36.1108C70.8934 36.1108 71.4673 36.0149 72.0265 35.8122C72.1581 35.7629 72.2232 35.6203 72.1767 35.4896C72.1302 35.3603 71.988 35.2936 71.8578 35.3403Z" fill="#D7C59D"/>
</mask>
<g mask="url(#mask0)">
<path d="M-13.6094 -17.1692H92.5585V88.9987H16.3906C-0.177945 88.9987 -13.6094 75.5672 -13.6094 58.9986V-17.1692Z" fill="#D8C69E"/>
</g>
</svg>
