<svg width="334" height="115" viewBox="0 0 334 115" fill="none" xmlns="http://www.w3.org/2000/svg">
    <path d="M126.773 45.3764V57.9375C126.773 58.4806 127.214 58.9292 127.772 58.9292C128.306 58.9292 128.747 58.4806 128.747 57.9375V43.2514C128.747 42.6847 128.352 42.1181 127.609 42.1181C127.075 42.1181 126.704 42.4486 126.471 42.8028L121.015 50.7125L115.327 42.8736C115.025 42.4486 114.653 42.1181 114.05 42.1181C113.376 42.1181 112.912 42.6375 112.912 43.3931V57.9375C112.912 58.4806 113.353 58.9292 113.91 58.9292C114.445 58.9292 114.886 58.4806 114.886 57.9375V45.5181L119.808 52.3653C120.133 52.8139 120.504 53.0028 120.853 53.0028C121.224 53.0028 121.572 52.8139 121.897 52.3653L126.773 45.3764Z" fill="#D8C69E"/>
    <path d="M135.587 56.875V51.35H141.182C141.67 51.35 142.088 50.925 142.088 50.4056C142.088 49.8861 141.67 49.4611 141.182 49.4611H135.587V44.125H141.879C142.367 44.125 142.784 43.7 142.784 43.1806C142.784 42.6611 142.367 42.2361 141.879 42.2361H134.589C134.055 42.2361 133.613 42.6847 133.613 43.2278V57.7722C133.613 58.3153 134.055 58.7639 134.589 58.7639H142.111C142.599 58.7639 143.017 58.3389 143.017 57.8194C143.017 57.3 142.599 56.875 142.111 56.875H135.587Z" fill="#D8C69E"/>
    <path d="M160.829 45.3764V57.9375C160.829 58.4806 161.271 58.9292 161.828 58.9292C162.362 58.9292 162.803 58.4806 162.803 57.9375V43.2514C162.803 42.6847 162.408 42.1181 161.665 42.1181C161.131 42.1181 160.76 42.4486 160.528 42.8028L155.071 50.7125L149.383 42.8736C149.081 42.4486 148.71 42.1181 148.106 42.1181C147.433 42.1181 146.968 42.6375 146.968 43.3931V57.9375C146.968 58.4806 147.409 58.9292 147.967 58.9292C148.501 58.9292 148.942 58.4806 148.942 57.9375V45.5181L153.864 52.3653C154.189 52.8139 154.561 53.0028 154.909 53.0028C155.28 53.0028 155.629 52.8139 155.954 52.3653L160.829 45.3764Z" fill="#D8C69E"/>
    <path d="M174.681 59C179.395 59 182.97 55.4111 182.97 50.5C182.97 45.4708 179.395 42 174.681 42C169.852 42 166.393 45.7069 166.393 50.5C166.393 55.5292 169.968 59 174.681 59ZM174.681 43.8889C178.164 43.8889 180.881 46.6514 180.881 50.5C180.881 54.2306 178.396 57.1111 174.681 57.1111C171.199 57.1111 168.482 54.2542 168.482 50.5C168.482 46.6514 171.152 43.8889 174.681 43.8889Z" fill="#D8C69E"/>
    <path d="M189.993 59C192.941 59 195.286 57.2292 195.286 54.5139C195.286 48.8708 187.346 50.4056 187.346 46.3208C187.346 44.8569 188.46 43.8889 190.271 43.8889C191.362 43.8889 192.105 44.1722 192.872 44.6444C193.057 44.7389 193.22 44.8097 193.406 44.8097C193.684 44.8097 193.963 44.6444 194.172 44.3611C194.288 44.2194 194.334 44.0306 194.334 43.8653C194.334 43.5583 194.195 43.275 193.963 43.1097C192.941 42.4486 191.664 42 190.155 42C187.067 42 185.256 43.9361 185.256 46.3208C185.256 51.7986 193.197 50.5 193.197 54.5375C193.197 56.2139 191.711 57.1111 190.016 57.1111C188.855 57.1111 187.903 56.5917 186.672 55.6708C186.51 55.5528 186.324 55.5056 186.138 55.5056C185.883 55.5056 185.604 55.6236 185.419 55.8597C185.279 56.025 185.21 56.2375 185.21 56.45C185.21 56.6861 185.303 56.9458 185.488 57.1111C186.835 58.2681 188.274 59 189.993 59Z" fill="#D8C69E"/>
    <path d="M204.257 44.125H209.04C209.528 44.125 209.945 43.7 209.945 43.1806C209.945 42.6611 209.528 42.2361 209.04 42.2361H197.501C197.013 42.2361 196.595 42.6611 196.595 43.1806C196.595 43.7 197.013 44.125 197.501 44.125H202.283V57.9375C202.283 58.4806 202.725 58.9292 203.282 58.9292C203.816 58.9292 204.257 58.4806 204.257 57.9375V44.125Z" fill="#D8C69E"/>
    <path d="M218.85 59C223.563 59 227.139 55.4111 227.139 50.5C227.139 45.4708 223.563 42 218.85 42C214.021 42 210.561 45.7069 210.561 50.5C210.561 55.5292 214.137 59 218.85 59ZM218.85 43.8889C222.333 43.8889 225.049 46.6514 225.049 50.5C225.049 54.2306 222.565 57.1111 218.85 57.1111C215.367 57.1111 212.651 54.2542 212.651 50.5C212.651 46.6514 215.321 43.8889 218.85 43.8889Z" fill="#D8C69E"/>
    <path d="M241.939 58.0083C241.939 57.7958 241.846 57.5361 241.684 57.3236L237.365 51.775C239.153 51.3028 240.895 49.6736 240.895 47.1C240.895 44.4319 239.548 42.1889 235.113 42.1889C234.765 42.1889 232.954 42.2125 231.723 42.2361C231.189 42.2361 230.748 42.6847 230.748 43.2278V57.9375C230.748 58.4806 231.189 58.9292 231.747 58.9292C232.281 58.9292 232.722 58.4806 232.722 57.9375V52.1528H235.369L240.035 58.3625C240.314 58.7167 240.616 58.9292 241.034 58.9292C241.591 58.9292 241.939 58.5042 241.939 58.0083ZM232.722 44.125C233.488 44.1014 234.486 44.0778 234.997 44.0778C237.876 44.0778 238.805 45.4236 238.805 47.1236C238.805 49.0833 236.994 50.2639 235.113 50.2639H232.722V44.125Z" fill="#D8C69E"/>
    <path d="M242.542 43.0861C242.542 43.275 242.589 43.4639 242.705 43.6528L247.627 51.6806V57.9375C247.627 58.4806 248.068 58.9292 248.625 58.9292C249.159 58.9292 249.6 58.4806 249.6 57.9375V51.6806L254.639 43.5111C254.732 43.3458 254.801 43.1569 254.801 42.9681C254.801 42.5194 254.499 42.1181 253.919 42.1181C253.478 42.1181 253.176 42.3778 252.897 42.85L248.695 49.7917L244.516 42.85C244.214 42.3306 243.958 42.1181 243.541 42.1181C242.937 42.1181 242.542 42.5667 242.542 43.0861Z" fill="#D8C69E"/>
    <mask id="mask0" mask-type="alpha" maskUnits="userSpaceOnUse" x="14" y="11" width="78" height="104">
        <path d="M36.8923 62.6467C35.4613 61.111 33.4902 60.3497 31.5217 60.4164C32.8265 58.9353 33.4968 56.9236 33.2287 54.8385L44.1703 52.8548C44.3986 53.8107 44.834 54.6719 45.4194 55.4011L36.8923 62.6467ZM29.5744 49.5206C29.8319 49.434 30.0854 49.334 30.3363 49.2153C31.9278 48.4608 33.149 47.1636 33.8207 45.5425L44.3044 49.3286C44.0243 50.1925 43.9168 51.1284 44.0296 52.0909C44.0323 52.1162 44.0389 52.1376 44.0416 52.1629L33.1039 54.144C32.6314 52.0989 31.3066 50.4525 29.5744 49.5206ZM33.3043 39.1008C33.5698 39.1541 33.838 39.1967 34.1127 39.2194C34.3132 39.2354 34.5109 39.2447 34.7087 39.2447C36.2525 39.2447 37.7298 38.7355 38.9603 37.7889L46.2198 46.4117C45.5097 47.0316 44.9442 47.8049 44.5566 48.6701L34.057 44.8786C34.5667 43.2002 34.4485 41.4178 33.6986 39.8193C33.5818 39.5687 33.4464 39.3314 33.3043 39.1008ZM41.7027 32.771C41.7266 32.4937 41.7293 32.2177 41.72 31.9444C42.9783 33.0603 44.6203 33.7215 46.3672 33.7215C46.6645 33.7215 46.9671 33.6949 47.2685 33.6562L49.2967 44.9373C48.3662 45.1079 47.5127 45.4665 46.7773 45.9798L39.4953 37.333C40.7722 36.1345 41.5567 34.5321 41.7027 32.771ZM77.0391 53.2974C75.2723 52.6602 73.3635 52.7508 71.6645 53.556C70.073 54.3079 68.8518 55.6077 68.1801 57.2288L56.6995 53.0828C56.9212 52.2869 56.9969 51.4363 56.8947 50.5645C56.7606 49.4166 56.3332 48.3768 55.7 47.5049L65.013 39.594C66.2049 40.8765 67.8018 41.6644 69.5539 41.811C69.7544 41.8284 69.9535 41.8377 70.1526 41.8377C71.8105 41.8377 73.3994 41.2538 74.6803 40.1673C74.8277 40.0406 74.8462 39.818 74.7215 39.67C74.5954 39.5207 74.375 39.5047 74.2263 39.6273C72.9348 40.7245 71.2968 41.2524 69.6124 41.1098C68.4867 41.0138 67.4328 40.6219 66.5288 39.99C66.9576 39.9806 67.4341 39.9033 67.9558 39.7447C69.3177 39.3327 70.8362 38.4515 72.2353 37.2623C72.3826 37.137 72.4012 36.9144 72.2751 36.7651C72.1503 36.6171 71.93 36.5998 71.7813 36.7251C70.4552 37.8503 69.0243 38.6835 67.754 39.0688C66.5965 39.4207 65.7072 39.3514 65.309 38.8808V38.8794H65.3076C64.9107 38.4075 64.9917 37.513 65.528 36.4265C66.1187 35.2333 67.1726 33.9535 68.4987 32.827C68.6473 32.7017 68.6659 32.479 68.5398 32.3297C68.415 32.1804 68.1934 32.1644 68.046 32.2884C66.647 33.4762 65.5293 34.8347 64.8988 36.1145C64.6585 36.6024 64.5019 37.0597 64.4209 37.4797C63.2329 34.9427 63.8223 31.8178 66.0536 29.9234C66.201 29.7981 66.2209 29.5754 66.0948 29.4275C65.9687 29.2781 65.7483 29.2608 65.5997 29.3848C64.1661 30.6033 63.2913 32.3084 63.1347 34.1881C62.9874 35.9505 63.4971 37.661 64.559 39.0554L55.2553 46.9583C53.9558 45.5252 52.0444 44.6973 49.9936 44.8466L47.96 33.5282C51.5798 32.683 53.9545 29.1222 53.2882 25.4067C53.2523 25.2147 53.0705 25.0867 52.8793 25.1227C52.6882 25.1574 52.5621 25.3414 52.5966 25.532C53.1156 28.4196 51.5904 31.2059 49.0657 32.4017C49.2701 32.0271 49.4387 31.5738 49.5622 31.0446C49.8874 29.6541 49.8861 27.8917 49.5608 26.0826C49.5277 25.8906 49.3432 25.76 49.1533 25.7973C48.9635 25.832 48.8361 26.0159 48.8693 26.2079C49.1786 27.925 49.1825 29.5848 48.8786 30.8833C48.6025 32.0644 48.0981 32.8056 47.4928 32.915C46.8875 33.0256 46.1561 32.5084 45.4884 31.4978C44.7517 30.3873 44.177 28.8302 43.869 27.1145C43.8332 26.9225 43.6513 26.7932 43.4602 26.8292C43.2704 26.8638 43.1429 27.0478 43.1774 27.2384C43.5027 29.0489 44.1146 30.7006 44.903 31.8884C45.2044 32.3417 45.519 32.707 45.8415 32.987C44.1809 32.847 42.6611 32.0511 41.5925 30.8153C41.3642 29.6501 40.8492 28.5556 40.066 27.6237C40.0554 27.6117 40.0408 27.6064 40.0289 27.5957C40.013 27.5797 39.9944 27.5651 39.9731 27.5517C39.9559 27.5411 39.936 27.5331 39.9147 27.5251C39.8935 27.5171 39.8709 27.5104 39.8484 27.5064C39.8258 27.5037 39.8032 27.5051 39.782 27.5051C39.7661 27.5064 39.7501 27.5011 39.7355 27.5051C39.7276 27.5064 39.7209 27.5117 39.713 27.5131C39.6917 27.5184 39.6731 27.5277 39.6519 27.5384C39.6307 27.5477 39.6081 27.5584 39.5882 27.5717C39.5829 27.5771 39.5749 27.5771 39.5709 27.5824C39.559 27.593 39.5537 27.6064 39.5431 27.6171C39.5258 27.6344 39.5112 27.6517 39.4993 27.673C39.4873 27.693 39.4793 27.713 39.4714 27.7357C39.4634 27.7557 39.4581 27.7757 39.4541 27.7984C39.4501 27.8224 39.4515 27.8464 39.4528 27.8703C39.4528 27.885 39.4488 27.8997 39.4515 27.9143C39.6718 29.1382 40.1975 30.2273 40.9315 31.1259C41.0178 31.6445 41.0483 32.1751 41.0045 32.7123C40.9089 33.8428 40.52 34.9014 39.8908 35.8066C39.8815 35.3773 39.8019 34.9 39.6453 34.3761C39.2351 33.0096 38.3577 31.4845 37.175 30.0794C37.0476 29.9301 36.8272 29.9141 36.6799 30.038C36.5312 30.1634 36.5126 30.386 36.6387 30.5353C37.7591 31.8671 38.5887 33.3042 38.9723 34.5801C39.3227 35.7412 39.2537 36.6371 38.7838 37.0357C38.3152 37.4357 37.4245 37.3543 36.3427 36.8157C35.1521 36.2238 33.8778 35.1653 32.7575 33.8322C32.6327 33.6829 32.411 33.6669 32.2623 33.7908C32.1137 33.9162 32.0964 34.1388 32.2212 34.2881C33.4039 35.6906 34.7565 36.8144 36.0308 37.4477C36.5206 37.6903 36.9772 37.8449 37.3993 37.9263C36.4038 38.4009 35.2994 38.6115 34.1711 38.5168C33.6388 38.4715 33.1251 38.3555 32.6327 38.1849C31.8548 37.289 30.8619 36.5971 29.7177 36.1838C29.7018 36.1785 29.6872 36.1798 29.6739 36.1785C29.6487 36.1732 29.6262 36.1692 29.6036 36.1678C29.581 36.1678 29.5611 36.1718 29.5385 36.1758C29.5147 36.1785 29.4947 36.1825 29.4708 36.1918C29.4509 36.1998 29.4324 36.2118 29.4138 36.2238C29.3992 36.2332 29.3846 36.2358 29.3713 36.2465C29.3647 36.2518 29.362 36.2598 29.3567 36.2652C29.3421 36.2812 29.3301 36.2971 29.3169 36.3158C29.3023 36.3371 29.2877 36.3558 29.2797 36.3785C29.2757 36.3865 29.2704 36.3905 29.2678 36.3971C29.2625 36.4105 29.2651 36.4251 29.2611 36.4398C29.2558 36.4638 29.2505 36.4865 29.2505 36.5118C29.2505 36.5344 29.2545 36.5558 29.2585 36.5771C29.2625 36.5998 29.2664 36.6211 29.2744 36.6424C29.2837 36.6651 29.2956 36.6838 29.3089 36.7051C29.3169 36.7171 29.3209 36.7331 29.3301 36.7438C30.1173 37.677 31.1088 38.3702 32.2172 38.7888C32.5477 39.1914 32.8358 39.634 33.0628 40.1206C33.5459 41.1458 33.7344 42.2563 33.6402 43.3575C33.4185 42.9909 33.1119 42.6163 32.7163 42.2416C31.6783 41.2658 30.1598 40.3846 28.4368 39.7633C28.2523 39.694 28.0532 39.7913 27.9868 39.9753C27.9218 40.1579 28.016 40.3606 28.1992 40.4259C29.8332 41.0165 31.2668 41.8444 32.2345 42.7562C33.1159 43.5868 33.5021 44.3973 33.2937 44.9773C33.0867 45.5598 32.2743 45.9371 31.069 46.0131C29.7416 46.0998 28.1143 45.8198 26.4789 45.2306C26.2971 45.1652 26.0953 45.2599 26.0289 45.4425C25.9652 45.6252 26.0595 45.8278 26.2426 45.8945C27.7585 46.4424 29.2824 46.733 30.5925 46.733C30.7704 46.733 30.9456 46.729 31.1128 46.7183C31.6571 46.6823 32.1296 46.5904 32.5345 46.449C31.9079 47.3582 31.0571 48.0941 30.0363 48.5767C29.5518 48.806 29.0474 48.9633 28.535 49.0647C27.4399 48.6861 26.2373 48.5714 25.0175 48.7927C25.0029 48.7954 24.9922 48.8047 24.9776 48.8087C24.9551 48.8167 24.9312 48.8247 24.9099 48.8367C24.89 48.8474 24.8741 48.8594 24.8595 48.874C24.8409 48.89 24.8237 48.9034 24.8077 48.922C24.7945 48.942 24.7838 48.9607 24.7719 48.982C24.7653 48.9967 24.7546 49.0073 24.7493 49.0207C24.7467 49.0287 24.7493 49.0353 24.7467 49.0433C24.74 49.0647 24.7387 49.0873 24.7361 49.1113C24.7347 49.134 24.7321 49.158 24.7347 49.1807C24.7361 49.1887 24.7334 49.1953 24.7347 49.2033C24.7374 49.218 24.7467 49.23 24.7507 49.2433C24.7573 49.2673 24.7653 49.2886 24.7772 49.31C24.7878 49.3313 24.8024 49.346 24.8157 49.3633C24.8303 49.382 24.8449 49.398 24.8622 49.4126C24.8807 49.4273 24.9007 49.438 24.9206 49.4486C24.9352 49.4553 24.9458 49.466 24.9617 49.4726C25.7382 49.7526 26.5413 49.8926 27.3444 49.8926C27.7187 49.8926 28.0904 49.8512 28.4607 49.7899C29.9978 50.3645 31.2787 51.523 31.9902 53.0481C30.6363 52.2989 28.2988 52.0642 25.6905 52.5362C25.4993 52.5695 25.3719 52.7535 25.4077 52.9455C25.4409 53.1361 25.6241 53.2641 25.8139 53.2307C29.5385 52.5548 32.2743 53.4001 32.4933 54.6132C32.711 55.8264 30.4425 57.5781 26.7165 58.254C26.5254 58.2874 26.3993 58.4713 26.4338 58.6633C26.4656 58.834 26.613 58.9526 26.7789 58.9526C26.7988 58.9526 26.8201 58.9526 26.8426 58.9486C29.4509 58.4753 31.5575 57.4342 32.565 56.257C32.4296 57.9327 31.6345 59.4659 30.3974 60.543C29.2638 60.767 28.1687 61.2723 27.2249 62.0735C27.213 62.0828 27.2063 62.0975 27.1957 62.1095C27.1811 62.1268 27.1665 62.1428 27.1532 62.1641C27.1413 62.1841 27.1333 62.2041 27.1267 62.2268C27.1187 62.2468 27.1121 62.2668 27.1081 62.2881C27.1054 62.3135 27.1054 62.3375 27.1068 62.3615C27.1081 62.3774 27.1028 62.3908 27.1068 62.4054C27.1068 62.4094 27.1121 62.4121 27.1134 62.4174C27.1254 62.4721 27.1453 62.5241 27.1838 62.5694C27.1931 62.5828 27.2077 62.5881 27.2183 62.5987C27.2289 62.6081 27.2382 62.6147 27.2475 62.6201C27.3059 62.6654 27.3723 62.6894 27.4426 62.6921C27.4466 62.6921 27.4479 62.6947 27.4519 62.6947C27.4718 62.6947 27.493 62.6934 27.5143 62.6894C28.7315 62.4694 29.816 61.9428 30.7106 61.2069C32.3194 60.9363 33.9972 61.2936 35.3698 62.2481C34.9423 62.2588 34.4671 62.3388 33.9481 62.4961C32.5876 62.908 31.0677 63.7892 29.67 64.9771C29.5213 65.1024 29.504 65.325 29.6288 65.4743C29.7549 65.6223 29.9766 65.641 30.1239 65.5157C31.45 64.3892 32.8809 63.5559 34.1512 63.1707C35.3074 62.8187 36.1994 62.888 36.5949 63.3586V63.36H36.5963C37.3874 64.3025 36.2949 66.9581 33.4066 69.4124C33.2579 69.5391 33.2393 69.7617 33.3654 69.9097C33.4358 69.9924 33.534 70.035 33.6335 70.035C33.7118 70.035 33.7941 70.007 33.8592 69.951C35.8835 68.2313 37.1923 66.2716 37.4763 64.7464C38.6749 67.2861 38.0856 70.4176 35.8516 72.316C35.7029 72.4427 35.6857 72.6653 35.8104 72.8133C35.8795 72.8946 35.979 72.9386 36.0786 72.9386C36.1582 72.9386 36.2392 72.9106 36.3056 72.8546C37.7391 71.6361 38.6139 69.931 38.7705 68.0513C38.9165 66.2902 38.4081 64.5785 37.3462 63.184L45.888 55.9277C46.5158 56.5569 47.2658 57.0569 48.0967 57.3848C41.7319 77.9659 30.116 96.8339 14.7302 111.697L14.709 111.718C14.1395 112.29 14.1395 113.22 14.7116 113.79C15.2824 114.362 16.2063 114.362 16.7757 113.787C32.2252 98.2404 43.6314 78.7765 49.6524 57.7768C50.1635 57.8421 50.6891 57.8514 51.2227 57.7888C51.3595 57.7728 51.4935 57.7434 51.6289 57.7208L55.0562 69.0592C51.5572 70.3203 49.61 74.1344 50.7011 77.7459C50.7475 77.8979 50.8869 77.9966 51.0369 77.9966C51.0714 77.9966 51.1059 77.9912 51.1391 77.9806C51.3249 77.9246 51.4298 77.7286 51.3741 77.5406C50.5245 74.729 51.7232 71.7788 54.1005 70.2977C53.5165 71.7335 53.555 74.0945 54.3248 76.6408C54.3713 76.7927 54.5093 76.8914 54.6607 76.8914C54.6939 76.8914 54.7297 76.8874 54.7629 76.8767C54.9487 76.8194 55.0536 76.6221 54.9978 76.4368C53.8974 72.7986 54.4164 69.9724 55.5912 69.6138C56.7566 69.2578 58.761 71.3148 59.8614 74.953C59.9171 75.1396 60.1083 75.2463 60.2981 75.1876C60.4826 75.1316 60.5888 74.9357 60.533 74.7477C59.7618 72.2014 58.4889 70.219 57.2079 69.3498C60.0021 69.2538 62.633 71.0349 63.4838 73.8478C63.5396 74.0345 63.7373 74.1411 63.9205 74.0838C64.1063 74.0265 64.2112 73.8305 64.1555 73.6438C63.063 70.0324 59.3317 67.9487 55.7266 68.8525L52.3125 57.5568C54.2346 56.9822 55.7518 55.5571 56.4752 53.7507L67.9438 57.8928C66.8607 61.4629 68.7469 65.309 72.2831 66.5862C72.3215 66.6008 72.3627 66.6075 72.4012 66.6075C72.5459 66.6075 72.6813 66.5169 72.7317 66.3742C72.7981 66.1902 72.7038 65.9889 72.5207 65.9223C69.7716 64.9304 68.131 62.2108 68.362 59.4165C68.5836 59.7832 68.8889 60.1564 69.2845 60.5284C70.3212 61.5056 71.841 62.3854 73.564 63.008C73.6025 63.0214 73.6436 63.028 73.6821 63.028C73.8255 63.028 73.9609 62.9387 74.0126 62.7947C74.079 62.6121 73.9834 62.4094 73.8016 62.3428C72.1662 61.7535 70.7327 60.927 69.7663 60.0138C68.8849 59.1832 68.4987 58.374 68.7071 57.7914C68.9141 57.2115 69.7252 56.8342 70.9318 56.7569C72.2538 56.6703 73.8852 56.9502 75.5219 57.5408C75.7051 57.6075 75.9055 57.5101 75.9692 57.3275C76.0356 57.1449 75.9413 56.9436 75.7582 56.8769C74.0352 56.2543 72.3043 55.9637 70.8853 56.053C70.3437 56.0877 69.8699 56.1797 69.4663 56.321C70.0915 55.4118 70.9411 54.6759 71.9645 54.1933C73.4923 53.4707 75.2099 53.3881 76.8015 53.9613C76.986 54.028 77.1851 53.9333 77.2501 53.7493C77.3165 53.5654 77.2223 53.3641 77.0391 53.2974Z" fill="#D7C59D"/>
        <path d="M55.6557 37.165C55.9119 36.9677 56.1163 36.7384 56.2743 36.4798C56.4322 36.2225 56.5437 35.9372 56.6021 35.6185C56.6273 35.4546 56.6446 35.2853 56.638 35.1026L65.6429 21.0926C66.7181 21.7178 67.9114 22.0538 69.1326 22.0538C69.6304 22.0538 70.1308 22.0005 70.6273 21.8925C72.4631 21.4965 74.036 20.4047 75.0528 18.8196C75.159 18.657 75.1112 18.4383 74.9493 18.333C74.786 18.2263 74.5683 18.2743 74.4634 18.4383C72.8732 20.914 69.8468 21.9005 67.1814 21.0246C68.6535 20.5513 70.4282 19.0049 71.8737 16.7572C71.9786 16.5932 71.9308 16.3759 71.7688 16.2706C71.6056 16.1653 71.3892 16.212 71.2817 16.3759C69.2309 19.5688 66.7473 21.0006 65.716 20.33C64.6846 19.6621 64.9593 16.8012 67.0128 13.607C67.1177 13.443 67.0712 13.2244 66.9079 13.1191C66.7447 13.0138 66.527 13.0604 66.4221 13.2244C64.9832 15.4627 64.301 17.7224 64.4722 19.2662C63.7249 18.445 63.2019 17.4438 62.9616 16.3293C62.6046 14.6695 62.9152 12.9711 63.8311 11.5446C63.9359 11.3807 63.8895 11.162 63.7262 11.0567C63.5629 10.9514 63.3466 10.998 63.2417 11.162C61.2042 14.3322 62.0311 18.5383 65.0496 20.7167L56.0884 34.6587C55.88 34.7453 55.7035 34.8507 55.5442 34.968C55.288 35.1639 55.0849 35.3946 54.9283 35.6519C54.7716 35.9118 54.6601 36.1971 54.6017 36.5171C54.5513 36.8397 54.534 37.185 54.6562 37.6143C55.0942 37.5289 55.3915 37.357 55.6557 37.165Z" fill="#D7C59D"/>
        <path d="M91.5952 19.2097C91.5196 19.099 91.3696 19.0697 91.2594 19.1443C90.297 19.7962 89.1422 20.0335 88.002 19.8109C87.2427 19.6616 86.5631 19.307 85.995 18.8111C86.0733 18.8177 86.1463 18.8297 86.2286 18.8297C86.4582 18.8297 86.7051 18.8057 86.9733 18.7551C87.9316 18.5751 89.0334 18.0872 90.0754 17.3819C90.1855 17.3059 90.2161 17.1566 90.1404 17.0446C90.0674 16.9353 89.9161 16.9047 89.8059 16.9806C88.817 17.6499 87.7803 18.1112 86.883 18.2791C86.068 18.4324 85.4654 18.3191 85.2291 17.9672C84.7592 17.2659 85.7016 15.5342 87.856 14.0744C87.9662 13.9997 87.994 13.8491 87.9197 13.7384C87.8454 13.6278 87.6954 13.5985 87.5852 13.6731C86.0733 14.697 85.0486 15.9368 84.7433 16.958C84.4911 16.2368 84.418 15.4635 84.5667 14.6956C84.7871 13.5505 85.4388 12.5626 86.4012 11.9107C86.5113 11.836 86.5405 11.6854 86.4662 11.5747C86.3919 11.4641 86.2419 11.4334 86.1317 11.5094C85.0632 12.2333 84.3384 13.3318 84.0942 14.6023C83.8632 15.7928 84.0835 17.0006 84.7048 18.0312L75.7197 24.1183C75.5843 24.117 75.4595 24.1303 75.3427 24.1556C75.1277 24.2063 74.9312 24.2863 74.76 24.4036C74.5874 24.5182 74.4401 24.6689 74.3113 24.8502C74.1852 25.0315 74.0777 25.2448 74.0312 25.5474C74.3259 25.6194 74.5635 25.6021 74.7799 25.5528C74.9963 25.5048 75.1914 25.4235 75.3626 25.3075C75.5365 25.1941 75.6852 25.0435 75.8126 24.8622C75.883 24.7622 75.944 24.6462 75.9958 24.5142L84.9742 18.4324C85.6937 19.3976 86.7237 20.0535 87.9104 20.2855C88.2197 20.3468 88.5303 20.3762 88.8409 20.3762C89.7926 20.3762 90.7231 20.0922 91.5289 19.5456C91.639 19.471 91.6696 19.3203 91.5952 19.2097Z" fill="#D7C59D"/>
        <path d="M85.7919 46.3402C83.838 47.0494 81.7142 46.3108 80.578 44.6764C80.8647 44.7751 81.2005 44.8404 81.5854 44.8644C81.7009 44.871 81.8204 44.8737 81.9412 44.8737C82.8757 44.8737 83.9628 44.6644 85.0459 44.2698C85.1747 44.2231 85.2424 44.0805 85.1959 43.9498C85.1481 43.8192 85.0035 43.7539 84.876 43.7992C83.7159 44.2218 82.5571 44.4218 81.616 44.3644C80.7598 44.3125 80.1824 44.0445 80.0337 43.6326C79.8851 43.2193 80.1585 42.6434 80.7837 42.0514C81.4686 41.4022 82.4867 40.8116 83.6469 40.389C83.7756 40.3424 83.842 40.1997 83.7955 40.0691C83.7491 39.9384 83.6071 39.8718 83.477 39.9184C82.2531 40.3637 81.174 40.9916 80.4412 41.6875C80.1612 41.9528 79.9435 42.2181 79.7868 42.4794C79.6183 40.493 80.7797 38.5599 82.7296 37.8494C82.8597 37.8027 82.9274 37.6587 82.881 37.5294C82.8332 37.3988 82.6898 37.3321 82.5597 37.3774C80.051 38.292 78.717 41.0276 79.4922 43.5619L68.9713 47.388C68.7576 47.32 68.5611 47.2974 68.3726 47.2987C68.0979 47.292 67.8457 47.348 67.6094 47.4387C67.3744 47.5347 67.1514 47.664 66.9537 47.856C66.7519 48.0386 66.5674 48.2666 66.4307 48.6172C66.7665 48.7825 67.0559 48.8238 67.328 48.8225C67.6041 48.8305 67.8536 48.7745 68.0926 48.6852C68.3288 48.5905 68.5518 48.4612 68.7496 48.2706C68.8677 48.1626 68.9779 48.0359 69.0775 47.8813L79.6687 44.0312C80.4625 45.9309 82.3022 47.1107 84.2668 47.1107C84.8282 47.1107 85.4017 47.0147 85.9605 46.8121C86.0919 46.7628 86.157 46.6201 86.1105 46.4895C86.064 46.3602 85.922 46.2935 85.7919 46.3402Z" fill="#D7C59D"/>
    </mask>
    <g mask="url(#mask0)">
        <path d="M0.390625 -6.16895H106.476V99.9989H30.3906C13.8221 99.9989 0.390625 86.5675 0.390625 69.9989V-6.16895Z" fill="#D8C69E"/>
    </g>
</svg>
