<svg width="1920" height="833" viewBox="0 0 1920 833" fill="none" xmlns="http://www.w3.org/2000/svg">
<g opacity="0.5">
<path d="M561.206 1280.46C525.688 1242.41 476.762 1223.55 427.901 1225.21C460.288 1188.51 476.927 1138.67 470.271 1087.01L741.855 1037.86C747.522 1061.54 758.328 1082.88 772.858 1100.95L561.206 1280.46ZM379.568 955.252C385.96 953.105 392.252 950.628 398.479 947.688C437.983 928.993 468.294 896.855 484.966 856.691L745.182 950.496C738.231 971.899 735.562 995.086 738.362 1018.93C738.428 1019.56 738.593 1020.09 738.659 1020.72L467.174 1069.8C455.445 1019.13 422.564 978.34 379.568 955.252ZM472.149 697.09C478.739 698.411 485.394 699.468 492.214 700.03C497.189 700.426 502.098 700.657 507.007 700.657C545.325 700.657 581.995 688.04 612.537 664.589L792.725 878.226C775.098 893.585 761.063 912.743 751.442 934.179L490.83 840.242C503.482 798.657 500.55 754.496 481.935 714.893C479.035 708.684 475.675 702.804 472.149 697.09ZM680.606 540.264C681.199 533.394 681.265 526.557 681.034 519.785C712.268 547.432 753.024 563.814 796.382 563.814C803.762 563.814 811.274 563.154 818.753 562.196L869.097 841.695C846.001 845.923 824.816 854.808 806.563 867.525L625.815 653.292C657.51 623.599 676.982 583.897 680.606 540.264ZM1557.69 1048.83C1513.84 1033.04 1466.46 1035.28 1424.29 1055.23C1384.79 1073.86 1354.47 1106.07 1337.8 1146.23L1052.84 1043.51C1058.35 1023.79 1060.22 1002.72 1057.69 981.115C1054.36 952.676 1043.75 926.913 1028.03 905.311L1259.19 709.311C1288.78 741.086 1328.41 760.607 1371.9 764.24C1376.88 764.669 1381.82 764.901 1386.76 764.901C1427.91 764.901 1467.35 750.434 1499.15 723.514C1502.8 720.376 1503.26 714.86 1500.17 711.194C1497.04 707.495 1491.57 707.098 1487.88 710.137C1455.82 737.321 1415.16 750.401 1373.35 746.866C1345.41 744.488 1319.25 734.777 1296.82 719.121C1307.46 718.89 1319.29 716.974 1332.23 713.044C1366.04 702.837 1403.73 681.005 1438.46 651.542C1442.11 648.437 1442.57 642.921 1439.44 639.222C1436.35 635.555 1430.88 635.126 1427.19 638.231C1394.27 666.108 1358.76 686.752 1327.23 696.297C1298.5 705.017 1276.42 703.3 1266.54 691.64V691.607H1266.51C1256.65 679.915 1258.66 657.752 1271.97 630.832C1286.64 601.27 1312.8 569.562 1345.71 541.651C1349.4 538.546 1349.86 533.031 1346.73 529.331C1343.63 525.632 1338.13 525.235 1334.48 528.307C1299.75 557.737 1272.01 591.394 1256.36 623.103C1250.39 635.192 1246.51 646.521 1244.5 656.926C1215.01 594.07 1229.64 516.648 1285.02 469.712C1288.68 466.607 1289.17 461.091 1286.04 457.425C1282.91 453.726 1277.44 453.296 1273.75 456.368C1238.17 486.557 1216.46 528.803 1212.57 575.375C1208.91 619.04 1221.57 661.418 1247.92 695.967L1017 891.769C984.741 856.262 937.297 835.75 886.394 839.449L835.919 559.025C925.766 538.084 984.708 449.861 968.169 357.807C967.279 353.05 962.765 349.88 958.021 350.771C953.277 351.63 950.147 356.188 951.003 360.912C963.886 432.454 926.029 501.487 863.364 531.115C868.438 521.833 872.622 510.603 875.686 497.49C883.758 463.04 883.725 419.374 875.653 374.553C874.829 369.796 870.25 366.56 865.538 367.484C860.827 368.343 857.664 372.901 858.488 377.658C866.164 420.2 866.263 461.322 858.718 493.494C851.865 522.758 839.345 541.123 824.321 543.831C809.298 546.573 791.144 533.757 774.571 508.72C756.286 481.207 742.019 442.628 734.376 400.118C733.486 395.362 728.972 392.158 724.228 393.05C719.517 393.908 716.354 398.467 717.21 403.19C725.282 448.044 740.471 488.969 760.042 518.398C767.521 529.628 775.329 538.679 783.335 545.615C742.118 542.147 704.394 522.428 677.871 491.809C672.204 462.941 659.421 435.823 639.982 412.736C639.719 412.438 639.356 412.306 639.06 412.042C638.664 411.645 638.203 411.282 637.676 410.952C637.247 410.688 636.753 410.489 636.226 410.291C635.699 410.093 635.139 409.928 634.579 409.829C634.019 409.763 633.459 409.796 632.931 409.796C632.536 409.829 632.141 409.697 631.778 409.796C631.581 409.829 631.416 409.961 631.218 409.994C630.691 410.126 630.23 410.357 629.703 410.621C629.175 410.853 628.615 411.117 628.121 411.447C627.989 411.579 627.792 411.579 627.693 411.711C627.396 411.976 627.265 412.306 627.001 412.57C626.573 413 626.21 413.429 625.914 413.957C625.617 414.453 625.419 414.949 625.222 415.51C625.024 416.005 624.892 416.501 624.793 417.062C624.695 417.657 624.728 418.251 624.76 418.846C624.76 419.209 624.662 419.573 624.728 419.936C630.197 450.257 643.244 477.243 661.464 499.505C663.605 512.354 664.363 525.5 663.276 538.811C660.904 566.82 651.25 593.046 635.633 615.473C635.402 604.838 633.426 593.013 629.538 580.032C619.357 546.176 597.579 508.39 568.223 473.577C565.06 469.877 559.591 469.481 555.934 472.553C552.244 475.657 551.783 481.174 554.913 484.873C582.72 517.87 603.312 553.476 612.834 585.086C621.532 613.855 619.818 636.051 608.155 645.927C596.525 655.836 574.417 653.821 547.565 640.477C518.012 625.812 486.382 599.586 458.575 566.556C455.478 562.857 449.976 562.46 446.286 565.532C442.596 568.637 442.167 574.153 445.264 577.852C474.62 612.6 508.193 640.444 539.823 656.133C551.98 662.144 563.314 665.976 573.791 667.991C549.081 679.749 521.669 684.968 493.664 682.623C480.452 681.5 467.701 678.626 455.478 674.399C436.171 652.203 411.526 635.06 383.126 624.821C382.731 624.689 382.368 624.722 382.039 624.689C381.413 624.556 380.853 624.457 380.293 624.424C379.732 624.424 379.238 624.523 378.678 624.622C378.085 624.689 377.591 624.788 376.998 625.019C376.504 625.217 376.042 625.514 375.581 625.812C375.219 626.043 374.856 626.109 374.527 626.373C374.362 626.505 374.296 626.703 374.164 626.836C373.802 627.232 373.505 627.628 373.176 628.091C372.814 628.619 372.451 629.082 372.254 629.643C372.155 629.841 372.023 629.94 371.957 630.106C371.825 630.436 371.891 630.799 371.792 631.162C371.66 631.757 371.529 632.318 371.529 632.946C371.529 633.508 371.628 634.036 371.726 634.565C371.825 635.126 371.924 635.654 372.122 636.183C372.352 636.744 372.649 637.207 372.978 637.735C373.176 638.033 373.275 638.429 373.505 638.693C393.043 661.814 417.655 678.99 445.166 689.361C453.369 699.336 460.519 710.302 466.153 722.358C478.146 747.758 482.824 775.272 480.485 802.555C474.983 793.472 467.372 784.19 457.554 774.909C431.789 750.731 394.097 728.898 351.332 713.506C346.752 711.788 341.81 714.2 340.163 718.758C338.549 723.283 340.888 728.303 345.434 729.922C385.992 744.554 421.575 765.066 445.594 787.658C467.471 808.236 477.058 828.318 471.886 842.686C466.746 857.12 446.582 866.468 416.666 868.351C383.719 870.497 343.326 863.561 302.735 848.962C298.221 847.343 293.213 849.689 291.566 854.214C289.984 858.739 292.324 863.759 296.87 865.411C334.496 878.986 372.319 886.187 404.838 886.187C409.253 886.187 413.602 886.088 417.753 885.823C431.262 884.932 442.991 882.652 453.04 879.151C437.489 901.678 416.37 919.91 391.033 931.867C379.008 937.548 366.488 941.446 353.77 943.956C326.589 934.576 296.739 931.735 266.46 937.218C266.098 937.284 265.834 937.515 265.472 937.614C264.912 937.812 264.319 938.011 263.791 938.308C263.297 938.572 262.902 938.869 262.539 939.233C262.078 939.629 261.65 939.959 261.254 940.422C260.925 940.917 260.661 941.38 260.365 941.908C260.2 942.271 259.937 942.536 259.805 942.866C259.739 943.064 259.805 943.229 259.739 943.428C259.574 943.956 259.541 944.517 259.475 945.112C259.442 945.673 259.376 946.268 259.442 946.83C259.475 947.028 259.409 947.193 259.442 947.391C259.508 947.754 259.739 948.052 259.838 948.382C260.003 948.977 260.2 949.505 260.497 950.034C260.76 950.562 261.123 950.925 261.452 951.355C261.815 951.817 262.177 952.213 262.605 952.577C263.067 952.94 263.561 953.204 264.055 953.469C264.417 953.634 264.681 953.898 265.076 954.063C284.35 960.999 304.283 964.468 324.217 964.468C333.508 964.468 342.733 963.444 351.925 961.924C390.078 976.16 421.872 1004.86 439.532 1042.65C405.925 1024.09 347.906 1018.27 283.164 1029.97C278.42 1030.79 275.257 1035.35 276.147 1040.11C276.97 1044.83 281.517 1048 286.228 1047.17C378.678 1030.43 446.582 1051.37 452.019 1081.43C457.422 1111.48 401.115 1154.89 308.633 1171.63C303.888 1172.46 300.758 1177.02 301.615 1181.77C302.405 1186 306.063 1188.94 310.181 1188.94C310.675 1188.94 311.202 1188.94 311.762 1188.84C376.504 1177.11 428.791 1151.32 453.798 1122.15C450.437 1163.67 430.702 1201.66 399.995 1228.34C371.858 1233.89 344.677 1246.41 321.251 1266.26C320.955 1266.49 320.79 1266.86 320.526 1267.15C320.164 1267.58 319.802 1267.98 319.472 1268.51C319.176 1269 318.978 1269.5 318.813 1270.06C318.616 1270.56 318.451 1271.05 318.352 1271.58C318.286 1272.21 318.286 1272.8 318.319 1273.4C318.352 1273.79 318.22 1274.12 318.319 1274.49C318.319 1274.59 318.451 1274.65 318.484 1274.78C318.78 1276.14 319.274 1277.43 320.23 1278.55C320.461 1278.88 320.823 1279.01 321.087 1279.28C321.35 1279.51 321.581 1279.67 321.811 1279.8C323.261 1280.93 324.908 1281.52 326.655 1281.59C326.753 1281.59 326.786 1281.65 326.885 1281.65C327.379 1281.65 327.907 1281.62 328.434 1281.52C358.646 1276.07 385.564 1263.03 407.771 1244.79C447.702 1238.09 489.348 1246.94 523.415 1270.59C512.806 1270.85 501.011 1272.83 488.129 1276.73C454.358 1286.94 416.633 1308.77 381.94 1338.2C378.25 1341.31 377.822 1346.82 380.919 1350.52C384.049 1354.19 389.551 1354.65 393.208 1351.55C426.122 1323.64 461.639 1302.99 493.17 1293.45C521.867 1284.73 544.007 1286.44 553.825 1298.1V1298.14H553.858C573.495 1321.49 546.379 1387.28 474.686 1448.09C470.996 1451.23 470.535 1456.75 473.665 1460.41C475.411 1462.46 477.849 1463.52 480.32 1463.52C482.264 1463.52 484.307 1462.82 485.921 1461.44C536.166 1418.83 568.651 1370.27 575.702 1332.49C605.453 1395.41 590.825 1473 535.375 1520.03C531.685 1523.17 531.256 1528.69 534.354 1532.35C536.067 1534.37 538.538 1535.46 541.009 1535.46C542.986 1535.46 544.995 1534.76 546.643 1533.38C582.226 1503.19 603.938 1460.94 607.826 1414.37C611.45 1370.74 598.831 1328.33 572.473 1293.78L784.488 1113.99C800.072 1129.58 818.688 1141.97 839.312 1150.1C681.331 1660.01 393.01 2127.48 11.1197 2495.74L10.5925 2496.26C-3.54182 2510.43 -3.54179 2533.46 10.6584 2547.59C24.8257 2561.76 47.7569 2561.76 61.8912 2547.53C445.363 2162.33 728.478 1680.09 877.926 1159.81C890.611 1161.43 903.658 1161.66 916.903 1160.1C920.297 1159.71 923.624 1158.98 926.985 1158.42L1012.05 1439.34C925.206 1470.59 876.872 1565.08 903.955 1654.56C905.108 1658.33 908.567 1660.77 912.29 1660.77C913.147 1660.77 914.004 1660.64 914.827 1660.38C919.44 1658.99 922.043 1654.13 920.659 1649.48C899.573 1579.82 929.324 1506.72 988.332 1470.02C973.836 1505.6 974.791 1564.09 993.901 1627.18C995.054 1630.95 998.48 1633.39 1002.24 1633.39C1003.06 1633.39 1003.95 1633.29 1004.77 1633.03C1009.39 1631.61 1011.99 1626.72 1010.6 1622.13C983.292 1531.99 996.174 1461.96 1025.33 1453.08C1054.26 1444.26 1104.01 1495.23 1131.32 1585.36C1132.71 1589.99 1137.45 1592.63 1142.16 1591.18C1146.74 1589.79 1149.38 1584.94 1147.99 1580.28C1128.85 1517.19 1097.26 1468.07 1065.46 1446.54C1134.82 1444.16 1200.12 1488.29 1221.24 1557.98C1222.62 1562.61 1227.53 1565.25 1232.08 1563.83C1236.69 1562.41 1239.29 1557.55 1237.91 1552.93C1210.79 1463.45 1118.18 1411.83 1028.69 1434.22L943.953 1154.36C991.66 1140.12 1029.32 1104.81 1047.27 1060.06L1331.94 1162.68C1305.05 1251.13 1351.87 1346.43 1439.64 1378.07C1440.6 1378.43 1441.62 1378.6 1442.57 1378.6C1446.17 1378.6 1449.53 1376.35 1450.78 1372.82C1452.43 1368.26 1450.09 1363.27 1445.54 1361.62C1377.31 1337.05 1336.58 1269.66 1342.32 1200.43C1347.82 1209.52 1355.4 1218.77 1365.21 1227.98C1390.95 1252.19 1428.67 1273.99 1471.44 1289.42C1472.39 1289.75 1473.41 1289.91 1474.37 1289.91C1477.93 1289.91 1481.29 1287.7 1482.57 1284.13C1484.22 1279.61 1481.85 1274.59 1477.33 1272.93C1436.74 1258.33 1401.16 1237.86 1377.17 1215.23C1355.3 1194.65 1345.71 1174.6 1350.88 1160.17C1356.02 1145.8 1376.15 1136.45 1406.1 1134.54C1438.92 1132.39 1479.41 1139.33 1520.03 1153.96C1524.58 1155.61 1529.56 1153.2 1531.14 1148.68C1532.78 1144.15 1530.45 1139.16 1525.9 1137.51C1483.13 1122.09 1440.17 1114.89 1404.95 1117.1C1391.51 1117.96 1379.74 1120.24 1369.73 1123.74C1385.25 1101.21 1406.33 1082.98 1431.74 1071.02C1469.66 1053.12 1512.29 1051.07 1551.79 1065.27C1556.37 1066.93 1561.32 1064.58 1562.93 1060.02C1564.58 1055.46 1562.24 1050.48 1557.69 1048.83Z" fill="#ECE3CF"/>
<path d="M1026.94 649.12C1033.3 644.231 1038.37 638.55 1042.29 632.142C1046.21 625.768 1048.98 618.699 1050.43 610.805C1051.06 606.742 1051.48 602.548 1051.32 598.022L1274.83 250.911C1301.52 266.402 1331.14 274.725 1361.45 274.725C1373.81 274.725 1386.23 273.404 1398.55 270.729C1444.12 260.919 1483.16 233.867 1508.4 194.595C1511.03 190.565 1509.85 185.148 1505.83 182.539C1501.77 179.896 1496.37 181.085 1493.77 185.148C1454.3 246.485 1379.18 270.927 1313.02 249.226C1349.56 237.501 1393.61 199.186 1429.49 143.497C1432.09 139.435 1430.9 134.051 1426.88 131.441C1422.83 128.832 1417.46 129.988 1414.79 134.051C1363.89 213.158 1302.25 248.632 1276.65 232.018C1251.05 215.47 1257.87 144.587 1308.83 65.4477C1311.44 61.385 1310.28 55.968 1306.23 53.3587C1302.18 50.7493 1296.78 51.9054 1294.17 55.9681C1258.46 111.425 1241.52 167.411 1245.77 205.66C1227.22 185.313 1214.24 160.508 1208.28 132.895C1199.42 91.7725 1207.13 49.6924 1229.86 14.3503C1232.46 10.2876 1231.31 4.87076 1227.26 2.26139C1223.21 -0.347973 1217.83 0.80809 1215.23 4.87077C1164.66 83.416 1185.18 187.625 1260.11 241.596L1037.68 587.023C1032.51 589.17 1028.12 591.78 1024.17 594.686C1017.81 599.542 1012.77 605.256 1008.88 611.631C1005 618.072 1002.23 625.14 1000.78 633.067C999.527 641.06 999.098 649.615 1002.13 660.251C1013 658.137 1020.38 653.876 1026.94 649.12Z" fill="#ECE3CF"/>
<path d="M1918.99 204.266C1917.11 201.525 1913.39 200.798 1910.65 202.648C1886.77 218.799 1858.1 224.679 1829.8 219.163C1810.96 215.463 1794.09 206.677 1779.99 194.39C1781.93 194.555 1783.74 194.853 1785.78 194.853C1791.48 194.853 1797.61 194.258 1804.27 193.003C1828.06 188.544 1855.4 176.455 1881.26 158.982C1884 157.099 1884.76 153.4 1882.88 150.626C1881.07 147.917 1877.31 147.157 1874.58 149.04C1850.03 165.621 1824.3 177.049 1802.03 181.211C1781.8 185.01 1766.84 182.202 1760.97 173.482C1749.31 156.108 1772.7 113.203 1826.18 77.0348C1828.91 75.1851 1829.6 71.4527 1827.76 68.7112C1825.91 65.9697 1822.19 65.2431 1819.46 67.0928C1781.93 92.4598 1756.49 123.178 1748.92 148.479C1742.66 130.609 1740.84 111.452 1744.53 92.4268C1750 64.054 1766.18 39.5788 1790.07 23.4272C1792.8 21.5775 1793.53 17.8451 1791.68 15.1036C1789.84 12.3621 1786.11 11.6025 1783.38 13.4852C1756.86 31.4204 1738.87 58.6371 1732.8 90.1146C1727.07 119.61 1732.54 149.536 1747.96 175.068L1524.94 325.882C1521.58 325.849 1518.48 326.18 1515.58 326.807C1510.25 328.062 1505.37 330.044 1501.12 332.951C1496.84 335.791 1493.18 339.524 1489.98 344.016C1486.85 348.508 1484.19 353.793 1483.03 361.291C1490.35 363.074 1496.24 362.645 1501.61 361.423C1506.98 360.234 1511.83 358.219 1516.08 355.345C1520.39 352.538 1524.08 348.805 1527.25 344.313C1528.99 341.836 1530.51 338.962 1531.79 335.692L1754.65 185.01C1772.51 208.923 1798.07 225.174 1827.53 230.921C1835.2 232.441 1842.91 233.167 1850.62 233.167C1874.25 233.167 1897.34 226.132 1917.34 212.59C1920.08 210.74 1920.83 207.008 1918.99 204.266Z" fill="#ECE3CF"/>
<path d="M1774.94 876.459C1726.44 894.031 1673.73 875.732 1645.53 835.237C1652.64 837.681 1660.98 839.3 1670.53 839.894C1673.4 840.06 1676.36 840.126 1679.36 840.126C1702.56 840.126 1729.54 834.94 1756.43 825.163C1759.62 824.007 1761.3 820.473 1760.15 817.236C1758.96 813.999 1755.37 812.38 1752.21 813.504C1723.41 823.974 1694.65 828.929 1671.29 827.508C1650.04 826.22 1635.71 819.581 1632.02 809.375C1628.33 799.136 1635.11 784.867 1650.63 770.201C1667.63 754.116 1692.9 739.483 1721.7 729.013C1724.9 727.857 1726.54 724.323 1725.39 721.086C1724.24 717.849 1720.71 716.197 1717.48 717.353C1687.1 728.385 1660.32 743.942 1642.13 761.184C1635.18 767.757 1629.78 774.33 1625.89 780.804C1621.7 731.589 1650.53 683.696 1698.93 666.091C1702.16 664.935 1703.84 661.368 1702.69 658.164C1701.5 654.927 1697.94 653.275 1694.72 654.398C1632.45 677.057 1599.33 744.834 1618.57 807.624L1357.44 902.42C1352.13 900.736 1347.25 900.174 1342.58 900.207C1335.76 900.042 1329.5 901.429 1323.63 903.675C1317.8 906.053 1312.27 909.257 1307.36 914.014C1302.35 918.539 1297.77 924.187 1294.37 932.874C1302.71 936.969 1309.89 937.993 1316.65 937.96C1323.5 938.159 1329.69 936.771 1335.62 934.558C1341.49 932.213 1347.02 929.009 1351.93 924.286C1354.87 921.611 1357.6 918.473 1360.07 914.641L1622.96 819.251C1642.66 866.318 1688.32 895.55 1737.09 895.55C1751.02 895.55 1765.26 893.172 1779.13 888.151C1782.39 886.929 1784 883.395 1782.85 880.158C1781.7 876.954 1778.17 875.303 1774.94 876.459Z" fill="#ECE3CF"/>
</g>
</svg>
