<svg width="210" height="530" viewBox="0 0 210 530" fill="none" xmlns="http://www.w3.org/2000/svg">
<g opacity="0.75">
<path d="M-132.691 322.718C-141.649 313.121 -153.988 308.365 -166.311 308.781C-158.143 299.526 -153.946 286.956 -155.625 273.928L-87.1308 261.532C-85.7016 267.505 -82.9762 272.886 -79.3118 277.443L-132.691 322.718ZM-178.501 240.698C-176.889 240.157 -175.301 239.532 -173.731 238.791C-163.768 234.076 -156.123 225.97 -151.919 215.841L-86.2916 239.499C-88.0449 244.897 -88.7179 250.745 -88.0116 256.759C-87.995 256.917 -87.9535 257.051 -87.9369 257.209L-156.406 269.588C-159.364 256.809 -167.657 246.521 -178.501 240.698ZM-155.151 175.589C-153.489 175.922 -151.811 176.189 -150.091 176.331C-148.836 176.431 -147.598 176.489 -146.36 176.489C-136.696 176.489 -127.448 173.307 -119.745 167.392L-74.3012 221.272C-78.7467 225.146 -82.2865 229.977 -84.7128 235.384L-150.44 211.692C-147.249 201.205 -147.989 190.067 -152.683 180.079C-153.415 178.513 -154.262 177.03 -155.151 175.589ZM-102.578 136.037C-102.428 134.305 -102.412 132.58 -102.47 130.872C-94.5927 137.845 -84.314 141.977 -73.3789 141.977C-71.5176 141.977 -69.623 141.81 -67.7368 141.569L-55.0401 212.059C-60.865 213.125 -66.2079 215.366 -70.8113 218.573L-116.396 164.543C-108.403 157.054 -103.492 147.041 -102.578 136.037ZM118.625 264.298C107.566 260.316 95.6169 260.882 84.9809 265.914C75.018 270.612 67.3734 278.734 63.1688 288.864L-8.69882 262.957C-7.31116 257.984 -6.83749 252.669 -7.47733 247.221C-8.31656 240.049 -10.9922 233.551 -14.9558 228.103L43.3427 178.671C50.8045 186.685 60.8007 191.608 71.769 192.525C73.0237 192.633 74.2701 192.691 75.5165 192.691C85.8949 192.691 95.8412 189.043 103.86 182.253C104.782 181.462 104.898 180.071 104.117 179.146C103.328 178.213 101.949 178.113 101.018 178.88C92.9329 185.735 82.6792 189.034 72.1346 188.143C65.0883 187.543 58.4907 185.094 52.832 181.145C55.5159 181.087 58.499 180.604 61.7646 179.613C70.2899 177.039 79.7959 171.532 88.5539 164.102C89.4763 163.319 89.5926 161.928 88.8032 160.995C88.0221 160.07 86.6428 159.962 85.7121 160.745C77.4111 167.775 68.4536 172.982 60.5015 175.389C53.2558 177.588 47.6885 177.155 45.1957 174.215V174.206H45.1874C42.7029 171.257 43.2097 165.668 46.5667 158.879C50.2644 151.423 56.862 143.426 65.1631 136.387C66.0937 135.604 66.2101 134.213 65.4207 133.28C64.6396 132.347 63.2519 132.247 62.3296 133.022C53.5715 140.444 46.575 148.932 42.6281 156.929C41.1241 159.978 40.1436 162.836 39.6367 165.46C32.1998 149.607 35.8892 130.081 49.8572 118.244C50.7795 117.461 50.9042 116.07 50.1148 115.145C49.3254 114.212 47.9461 114.104 47.0154 114.878C38.0413 122.492 32.5655 133.147 31.585 144.892C30.6626 155.905 33.8534 166.593 40.5009 175.306L-17.7394 224.688C-25.8743 215.733 -37.8397 210.56 -50.6777 211.493L-63.4076 140.769C-40.748 135.487 -25.8826 113.237 -30.0539 90.021C-30.2782 88.8215 -31.4166 88.0218 -32.6131 88.2467C-33.8097 88.4633 -34.5991 89.6129 -34.383 90.8041C-31.1341 108.847 -40.6815 126.258 -56.4859 133.73C-55.2063 131.389 -54.151 128.557 -53.3782 125.25C-51.3424 116.561 -51.3508 105.549 -53.3866 94.2444C-53.5943 93.0449 -54.7493 92.2285 -55.9375 92.4618C-57.1258 92.6784 -57.9234 93.8279 -57.7157 95.0275C-55.7796 105.757 -55.7547 116.128 -57.6575 124.242C-59.3859 131.622 -62.5435 136.254 -66.3325 136.937C-70.1216 137.628 -74.7 134.396 -78.8797 128.082C-83.4913 121.143 -87.0893 111.413 -89.0171 100.692C-89.2414 99.4925 -90.3798 98.6845 -91.5764 98.9094C-92.7646 99.126 -93.5623 100.276 -93.3463 101.467C-91.3105 112.779 -87.4798 123.1 -82.5441 130.523C-80.6579 133.355 -78.6886 135.637 -76.6694 137.387C-87.0644 136.512 -96.5786 131.539 -103.268 123.817C-104.697 116.536 -107.921 109.697 -112.823 103.874C-112.89 103.799 -112.981 103.766 -113.056 103.699C-113.156 103.599 -113.272 103.508 -113.405 103.424C-113.513 103.358 -113.638 103.308 -113.771 103.258C-113.904 103.208 -114.045 103.166 -114.186 103.141C-114.327 103.124 -114.469 103.133 -114.602 103.133C-114.701 103.141 -114.801 103.108 -114.892 103.133C-114.942 103.141 -114.984 103.174 -115.034 103.183C-115.167 103.216 -115.283 103.274 -115.416 103.341C-115.549 103.399 -115.69 103.466 -115.815 103.549C-115.848 103.583 -115.898 103.583 -115.923 103.616C-115.998 103.683 -116.031 103.766 -116.097 103.833C-116.205 103.941 -116.297 104.049 -116.371 104.182C-116.446 104.307 -116.496 104.432 -116.546 104.574C-116.596 104.699 -116.629 104.824 -116.654 104.965C-116.679 105.115 -116.671 105.265 -116.662 105.415C-116.662 105.507 -116.687 105.599 -116.671 105.69C-115.291 113.337 -112.001 120.143 -107.406 125.758C-106.866 128.998 -106.674 132.314 -106.949 135.671C-107.547 142.735 -109.982 149.349 -113.92 155.005C-113.978 152.323 -114.477 149.341 -115.457 146.067C-118.025 137.528 -123.518 127.999 -130.921 119.218C-131.719 118.285 -133.098 118.186 -134.021 118.96C-134.951 119.743 -135.068 121.134 -134.278 122.067C-127.265 130.389 -122.072 139.369 -119.67 147.341C-117.477 154.597 -117.909 160.195 -120.85 162.686C-123.783 165.185 -129.359 164.677 -136.131 161.311C-143.585 157.613 -151.562 150.998 -158.575 142.668C-159.356 141.735 -160.743 141.635 -161.674 142.41C-162.605 143.193 -162.713 144.584 -161.932 145.517C-154.528 154.28 -146.061 161.303 -138.084 165.26C-135.018 166.776 -132.159 167.742 -129.517 168.25C-135.749 171.216 -142.662 172.532 -149.725 171.941C-153.057 171.657 -156.273 170.933 -159.356 169.866C-164.225 164.268 -170.44 159.945 -177.603 157.363C-177.703 157.329 -177.794 157.338 -177.877 157.329C-178.035 157.296 -178.176 157.271 -178.318 157.263C-178.459 157.263 -178.584 157.288 -178.725 157.313C-178.874 157.329 -178.999 157.354 -179.149 157.413C-179.273 157.463 -179.39 157.538 -179.506 157.613C-179.597 157.671 -179.689 157.688 -179.772 157.754C-179.813 157.788 -179.83 157.837 -179.863 157.871C-179.955 157.971 -180.029 158.071 -180.113 158.187C-180.204 158.321 -180.295 158.437 -180.345 158.579C-180.37 158.629 -180.403 158.654 -180.42 158.695C-180.453 158.779 -180.437 158.87 -180.462 158.962C-180.495 159.112 -180.528 159.254 -180.528 159.412C-180.528 159.553 -180.503 159.687 -180.478 159.82C-180.453 159.962 -180.428 160.095 -180.378 160.228C-180.32 160.37 -180.246 160.486 -180.162 160.62C-180.113 160.695 -180.088 160.795 -180.029 160.861C-175.102 166.692 -168.895 171.024 -161.957 173.64C-159.888 176.156 -158.084 178.921 -156.664 181.962C-153.639 188.368 -152.459 195.307 -153.049 202.188C-154.437 199.897 -156.356 197.556 -158.832 195.215C-165.33 189.117 -174.836 183.611 -185.622 179.729C-186.777 179.296 -188.023 179.904 -188.439 181.054C-188.846 182.195 -188.256 183.461 -187.109 183.869C-176.88 187.56 -167.906 192.733 -161.849 198.431C-156.331 203.62 -153.913 208.685 -155.218 212.309C-156.514 215.949 -161.599 218.307 -169.144 218.781C-177.454 219.323 -187.641 217.574 -197.878 213.892C-199.016 213.483 -200.279 214.075 -200.695 215.216C-201.094 216.357 -200.504 217.624 -199.357 218.04C-189.868 221.464 -180.329 223.28 -172.127 223.28C-171.014 223.28 -169.917 223.255 -168.87 223.188C-165.463 222.963 -162.505 222.388 -159.971 221.505C-163.893 227.187 -169.219 231.785 -175.609 234.801C-178.642 236.233 -181.799 237.216 -185.007 237.849C-191.862 235.484 -199.39 234.767 -207.027 236.15C-207.118 236.167 -207.184 236.225 -207.276 236.25C-207.417 236.3 -207.567 236.35 -207.7 236.425C-207.824 236.492 -207.924 236.567 -208.015 236.658C-208.132 236.758 -208.24 236.841 -208.339 236.958C-208.423 237.083 -208.489 237.2 -208.564 237.333C-208.605 237.425 -208.672 237.491 -208.705 237.574C-208.722 237.624 -208.705 237.666 -208.722 237.716C-208.763 237.849 -208.772 237.991 -208.788 238.141C-208.796 238.283 -208.813 238.433 -208.796 238.574C-208.788 238.624 -208.805 238.666 -208.796 238.716C-208.78 238.807 -208.722 238.882 -208.697 238.966C-208.655 239.116 -208.605 239.249 -208.531 239.382C-208.464 239.515 -208.373 239.607 -208.29 239.715C-208.198 239.832 -208.107 239.932 -207.999 240.024C-207.882 240.115 -207.758 240.182 -207.633 240.248C-207.542 240.29 -207.475 240.357 -207.376 240.398C-202.515 242.148 -197.487 243.022 -192.46 243.022C-190.117 243.022 -187.79 242.764 -185.472 242.381C-175.85 245.971 -167.831 253.21 -163.378 262.74C-171.853 258.059 -186.486 256.592 -202.814 259.541C-204.01 259.75 -204.808 260.899 -204.584 262.099C-204.376 263.29 -203.229 264.09 -202.041 263.881C-178.725 259.658 -161.599 264.939 -160.228 272.52C-158.866 280.1 -173.066 291.046 -196.391 295.27C-197.587 295.478 -198.377 296.628 -198.16 297.827C-197.961 298.893 -197.039 299.635 -196 299.635C-195.875 299.635 -195.742 299.635 -195.601 299.61C-179.273 296.652 -166.086 290.147 -159.78 282.791C-160.627 293.262 -165.604 302.842 -173.349 309.573C-180.445 310.972 -187.3 314.129 -193.208 319.136C-193.283 319.194 -193.324 319.286 -193.391 319.361C-193.482 319.469 -193.574 319.569 -193.657 319.702C-193.732 319.827 -193.781 319.952 -193.823 320.094C-193.873 320.219 -193.914 320.344 -193.939 320.477C-193.956 320.635 -193.956 320.785 -193.948 320.935C-193.939 321.035 -193.973 321.118 -193.948 321.21C-193.948 321.235 -193.914 321.252 -193.906 321.285C-193.831 321.627 -193.707 321.951 -193.466 322.235C-193.408 322.318 -193.316 322.351 -193.25 322.418C-193.183 322.476 -193.125 322.518 -193.067 322.551C-192.701 322.834 -192.286 322.984 -191.845 323.001C-191.82 323.001 -191.812 323.018 -191.787 323.018C-191.663 323.018 -191.53 323.009 -191.397 322.984C-183.777 321.61 -176.988 318.319 -171.388 313.721C-161.317 312.03 -150.814 314.263 -142.222 320.227C-144.898 320.294 -147.872 320.793 -151.121 321.776C-159.638 324.351 -169.153 329.857 -177.902 337.279C-178.833 338.062 -178.941 339.453 -178.16 340.386C-177.37 341.311 -175.983 341.428 -175.06 340.644C-166.759 333.605 -157.802 328.399 -149.85 325.992C-142.612 323.792 -137.029 324.226 -134.552 327.166V327.174H-134.544C-129.592 333.064 -136.43 349.658 -154.511 364.994C-155.442 365.785 -155.558 367.176 -154.769 368.101C-154.329 368.617 -153.714 368.884 -153.091 368.884C-152.6 368.884 -152.085 368.709 -151.678 368.359C-139.006 357.613 -130.813 345.368 -129.035 335.838C-121.532 351.707 -125.221 371.275 -139.206 383.137C-140.136 383.928 -140.244 385.32 -139.463 386.244C-139.031 386.752 -138.408 387.027 -137.785 387.027C-137.286 387.027 -136.779 386.852 -136.364 386.502C-127.39 378.889 -121.914 368.234 -120.933 356.489C-120.019 345.484 -123.202 334.788 -129.849 326.075L-76.3785 280.733C-72.4482 284.665 -67.7534 287.789 -62.5518 289.838C-102.395 418.441 -175.11 536.338 -271.424 629.212L-271.557 629.345C-275.122 632.919 -275.122 638.725 -271.54 642.291C-267.967 645.864 -262.184 645.864 -258.619 642.274C-161.907 545.127 -90.5045 423.505 -52.8132 292.287C-49.6141 292.696 -46.3236 292.754 -42.9832 292.362C-42.1274 292.262 -41.2881 292.079 -40.4406 291.938L-18.9858 362.786C-40.8893 370.667 -53.0791 394.499 -46.2488 417.066C-45.958 418.016 -45.0855 418.632 -44.1465 418.632C-43.9305 418.632 -43.7144 418.599 -43.5067 418.532C-42.3434 418.182 -41.687 416.958 -42.0359 415.783C-47.3539 398.215 -39.8506 379.78 -24.9686 370.525C-28.6247 379.497 -28.3837 394.25 -23.5643 410.16C-23.2734 411.11 -22.4093 411.726 -21.462 411.726C-21.2542 411.726 -21.0299 411.701 -20.8222 411.635C-19.6589 411.277 -19.0024 410.044 -19.3514 408.886C-26.2399 386.153 -22.9909 368.492 -15.6371 366.252C-8.34152 364.027 4.20563 376.881 11.0941 399.614C11.4431 400.78 12.6396 401.447 13.8279 401.08C14.9828 400.73 15.6476 399.506 15.2986 398.331C10.4709 382.421 2.5022 370.034 -5.51633 364.602C11.9749 364.002 28.444 375.132 33.7703 392.708C34.1193 393.875 35.3574 394.541 36.5041 394.183C37.6674 393.825 38.3238 392.6 37.9748 391.434C31.1362 368.867 7.77863 355.847 -14.7896 361.495L-36.1613 290.913C-24.1293 287.323 -14.6317 278.418 -10.1031 267.13L61.6898 293.012C54.9093 315.321 66.7169 339.353 88.8531 347.334C89.094 347.425 89.3516 347.467 89.5926 347.467C90.4983 347.467 91.3459 346.9 91.6616 346.009C92.0771 344.86 91.4871 343.602 90.3404 343.185C73.1317 336.987 62.8614 319.994 64.3072 302.534C65.6949 304.824 67.606 307.157 70.0822 309.481C76.5718 315.587 86.086 321.085 96.8716 324.975C97.1125 325.059 97.3701 325.1 97.6111 325.1C98.5085 325.1 99.3561 324.542 99.6802 323.642C100.096 322.501 99.4973 321.235 98.359 320.819C88.1219 317.137 79.1477 311.972 73.0985 306.266C67.5811 301.076 65.1631 296.019 66.4676 292.379C67.7639 288.755 72.8409 286.398 80.3941 285.915C88.6702 285.373 98.8824 287.123 109.128 290.813C110.275 291.23 111.529 290.621 111.928 289.48C112.344 288.339 111.754 287.081 110.607 286.665C99.8214 282.774 88.986 280.958 80.1033 281.516C76.713 281.733 73.7466 282.308 71.2206 283.191C75.1343 277.51 80.4523 272.911 86.8588 269.896C96.4229 265.381 107.175 264.864 117.138 268.446C118.293 268.863 119.54 268.271 119.947 267.122C120.362 265.972 119.772 264.714 118.625 264.298Z" fill="#ECE3CF"/>
<path d="M-15.2319 163.491C-13.6282 162.258 -12.3486 160.825 -11.3597 159.209C-10.3709 157.601 -9.67294 155.819 -9.30734 153.828C-9.14948 152.803 -9.04144 151.745 -9.08298 150.604L47.2877 63.0616C54.0183 66.9685 61.4884 69.0677 69.133 69.0677C72.249 69.0677 75.3817 68.7345 78.4893 68.0598C89.9812 65.5857 99.8278 58.7632 106.193 48.8586C106.857 47.8423 106.558 46.4761 105.545 45.818C104.523 45.1516 103.16 45.4515 102.503 46.4761C92.5488 61.9454 73.6034 68.1097 56.9182 62.6368C66.1333 59.6796 77.243 50.0165 86.2918 35.9717C86.9483 34.9471 86.6491 33.5893 85.6354 32.9312C84.6133 32.2731 83.2589 32.5646 82.5858 33.5893C69.7479 53.5402 54.2011 62.4868 47.7448 58.2967C41.2884 54.1233 43.0084 36.2466 55.863 16.2874C56.5194 15.2627 56.2285 13.8966 55.2065 13.2385C54.1844 12.5804 52.8217 12.872 52.1653 13.8966C43.1579 27.883 38.8869 42.0028 39.9588 51.6492C35.2807 46.5178 32.0068 40.2618 30.5028 33.2977C28.2676 22.9266 30.212 12.3138 35.9454 3.40048C36.6019 2.37586 36.311 1.00971 35.289 0.351622C34.2669 -0.306467 32.9125 -0.0149045 32.2561 1.00971C19.5012 20.819 24.6779 47.1009 43.5734 60.7125L-12.523 147.83C-13.8276 148.372 -14.9328 149.03 -15.9299 149.763C-17.5336 150.987 -18.8049 152.428 -19.7854 154.036C-20.7659 155.661 -21.4639 157.443 -21.8295 159.442C-22.1453 161.458 -22.2533 163.616 -21.4889 166.298C-18.7468 165.765 -16.8855 164.69 -15.2319 163.491Z" fill="#ECE3CF"/>
<path d="M209.746 51.2977C209.272 50.6063 208.333 50.4231 207.643 50.8896C201.619 54.963 194.39 56.4458 187.252 55.0547C182.499 54.1217 178.245 51.9058 174.688 48.807C175.179 48.8486 175.636 48.9236 176.151 48.9236C177.588 48.9236 179.134 48.7737 180.812 48.4571C186.812 47.3325 193.708 44.2837 200.231 39.877C200.921 39.4022 201.112 38.4692 200.638 37.7694C200.181 37.0863 199.234 36.8948 198.544 37.3696C192.354 41.5514 185.864 44.4336 180.247 45.4832C175.145 46.4412 171.373 45.7331 169.894 43.534C166.952 39.1522 172.852 28.3313 186.338 19.2097C187.028 18.7432 187.202 17.8019 186.737 17.1104C186.272 16.419 185.333 16.2358 184.643 16.7023C175.179 23.0999 168.764 30.847 166.853 37.228C165.274 32.7213 164.817 27.8898 165.747 23.0916C167.127 15.9359 171.207 9.76318 177.231 5.68969C177.921 5.2232 178.103 4.28188 177.638 3.59047C177.173 2.89906 176.234 2.70746 175.544 3.18229C168.855 7.7056 164.318 14.5697 162.789 22.5084C161.344 29.9473 162.723 37.4945 166.612 43.9338L110.366 81.9697C109.518 81.9613 108.737 82.0446 108.006 82.2029C106.66 82.5195 105.43 83.0193 104.358 83.7523C103.278 84.4687 102.355 85.4101 101.549 86.543C100.76 87.6759 100.087 89.0087 99.7961 90.8997C101.641 91.3495 103.128 91.2412 104.483 90.933C105.837 90.6331 107.058 90.125 108.13 89.4002C109.219 88.6922 110.15 87.7509 110.947 86.6179C111.388 85.9932 111.77 85.2684 112.094 84.4437L168.298 46.4412C172.802 52.4723 179.25 56.5708 186.679 58.0202C188.615 58.4034 190.559 58.5867 192.504 58.5867C198.461 58.5867 204.286 56.8124 209.33 53.397C210.02 52.9305 210.211 51.9891 209.746 51.2977Z" fill="#ECE3CF"/>
<path d="M173.416 220.826C161.185 225.258 147.89 220.643 140.777 210.43C142.572 211.047 144.674 211.455 147.084 211.605C147.807 211.646 148.555 211.663 149.311 211.663C155.161 211.663 161.966 210.355 168.747 207.89C169.553 207.598 169.976 206.707 169.686 205.89C169.386 205.074 168.481 204.666 167.683 204.949C160.421 207.59 153.167 208.839 147.275 208.481C141.916 208.156 138.301 206.482 137.37 203.908C136.44 201.325 138.152 197.727 142.065 194.028C146.353 189.971 152.726 186.281 159.988 183.64C160.794 183.349 161.21 182.457 160.919 181.641C160.628 180.825 159.739 180.408 158.925 180.7C151.264 183.482 144.508 187.405 139.921 191.754C138.168 193.412 136.805 195.069 135.825 196.702C134.77 184.29 142.04 172.211 154.247 167.771C155.061 167.48 155.485 166.58 155.194 165.772C154.895 164.955 153.997 164.539 153.183 164.822C137.478 170.537 129.128 187.63 133.98 203.466L68.1202 227.374C66.7824 226.949 65.5526 226.807 64.3727 226.816C62.6526 226.774 61.0739 227.124 59.5948 227.69C58.1241 228.29 56.7281 229.098 55.49 230.298C54.227 231.439 53.072 232.864 52.2161 235.054C54.3184 236.087 56.1298 236.346 57.8333 236.337C59.5616 236.387 61.1237 236.037 62.6194 235.479C64.0985 234.888 65.4945 234.08 66.7326 232.889C67.4721 232.214 68.1617 231.422 68.7849 230.456L135.085 206.398C140.054 218.269 151.571 225.641 163.869 225.641C167.384 225.641 170.973 225.041 174.472 223.775C175.294 223.467 175.702 222.576 175.411 221.759C175.12 220.951 174.231 220.535 173.416 220.826Z" fill="#ECE3CF"/>
</g>
</svg>
