<svg width="485" height="645" viewBox="0 0 485 645" fill="none" xmlns="http://www.w3.org/2000/svg">
<g opacity="0.5">
<path d="M141.537 322.718C132.58 313.121 120.241 308.365 107.918 308.781C116.086 299.526 120.282 286.956 118.604 273.928L187.098 261.532C188.527 267.505 191.252 272.886 194.917 277.443L141.537 322.718ZM95.728 240.698C97.34 240.157 98.9271 239.532 100.498 238.791C110.46 234.076 118.105 225.97 122.31 215.841L187.937 239.499C186.184 244.897 185.511 250.745 186.217 256.759C186.234 256.917 186.275 257.051 186.292 257.209L117.823 269.588C114.864 256.809 106.572 246.521 95.728 240.698ZM119.077 175.589C120.739 175.922 122.418 176.189 124.138 176.331C125.392 176.431 126.63 176.489 127.869 176.489C137.532 176.489 146.781 173.307 154.483 167.392L199.927 221.272C195.482 225.146 191.942 229.977 189.516 235.384L123.789 211.692C126.979 201.205 126.24 190.067 121.545 180.079C120.814 178.513 119.966 177.03 119.077 175.589ZM171.651 136.037C171.8 134.305 171.817 132.58 171.759 130.872C179.636 137.845 189.915 141.977 200.85 141.977C202.711 141.977 204.605 141.81 206.492 141.569L219.188 212.059C213.364 213.125 208.021 215.366 203.417 218.573L157.832 164.543C165.826 157.054 170.737 147.041 171.651 136.037ZM392.854 264.298C381.794 260.316 369.845 260.882 359.209 265.914C349.246 270.612 341.602 278.734 337.397 288.864L265.53 262.957C266.917 257.984 267.391 252.669 266.751 247.221C265.912 240.049 263.236 233.551 259.273 228.103L317.571 178.671C325.033 186.685 335.029 191.608 345.998 192.525C347.252 192.633 348.499 192.691 349.745 192.691C360.123 192.691 370.07 189.043 378.088 182.253C379.011 181.462 379.127 180.071 378.346 179.146C377.556 178.213 376.177 178.113 375.246 178.88C367.161 185.735 356.908 189.034 346.363 188.143C339.317 187.543 332.719 185.094 327.061 181.145C329.744 181.087 332.727 180.604 335.993 179.613C344.518 177.039 354.024 171.532 362.782 164.102C363.705 163.319 363.821 161.928 363.032 160.995C362.251 160.07 360.871 159.962 359.941 160.745C351.64 167.775 342.682 172.982 334.73 175.389C327.484 177.588 321.917 177.155 319.424 174.215V174.206H319.416C316.931 171.257 317.438 165.668 320.795 158.879C324.493 151.423 331.091 143.426 339.392 136.387C340.322 135.604 340.439 134.213 339.649 133.28C338.868 132.347 337.48 132.247 336.558 133.022C327.8 140.444 320.804 148.932 316.857 156.929C315.353 159.978 314.372 162.836 313.865 165.46C306.428 149.607 310.118 130.081 324.086 118.244C325.008 117.461 325.133 116.07 324.343 115.145C323.554 114.212 322.175 114.104 321.244 114.878C312.27 122.492 306.794 133.147 305.813 144.892C304.891 155.905 308.082 166.593 314.729 175.306L256.489 224.688C248.354 215.733 236.389 210.56 223.551 211.493L210.821 140.769C233.48 135.487 248.346 113.237 244.175 90.021C243.95 88.8215 242.812 88.0218 241.615 88.2467C240.419 88.4633 239.629 89.6129 239.845 90.8041C243.094 108.847 233.547 126.258 217.743 133.73C219.022 131.389 220.078 128.557 220.85 125.25C222.886 116.561 222.878 105.549 220.842 94.2444C220.634 93.0449 219.479 92.2285 218.291 92.4618C217.103 92.6784 216.305 93.8279 216.513 95.0275C218.449 105.757 218.474 116.128 216.571 124.242C214.843 131.622 211.685 136.254 207.896 136.937C204.107 137.628 199.528 134.396 195.349 128.082C190.737 121.143 187.139 111.413 185.211 100.692C184.987 99.4925 183.849 98.6845 182.652 98.9094C181.464 99.126 180.666 100.276 180.882 101.467C182.918 112.779 186.749 123.1 191.684 130.523C193.571 133.355 195.54 135.637 197.559 137.387C187.164 136.512 177.65 131.539 170.961 123.817C169.532 116.536 166.308 109.697 161.405 103.874C161.339 103.799 161.247 103.766 161.172 103.699C161.073 103.599 160.956 103.508 160.823 103.424C160.715 103.358 160.591 103.308 160.458 103.258C160.325 103.208 160.184 103.166 160.042 103.141C159.901 103.124 159.76 103.133 159.627 103.133C159.527 103.141 159.427 103.108 159.336 103.133C159.286 103.141 159.245 103.174 159.195 103.183C159.062 103.216 158.946 103.274 158.813 103.341C158.68 103.399 158.538 103.466 158.414 103.549C158.381 103.583 158.331 103.583 158.306 103.616C158.231 103.683 158.198 103.766 158.131 103.833C158.023 103.941 157.932 104.049 157.857 104.182C157.782 104.307 157.732 104.432 157.683 104.574C157.633 104.699 157.599 104.824 157.575 104.965C157.55 105.115 157.558 105.265 157.566 105.415C157.566 105.507 157.541 105.599 157.558 105.69C158.937 113.337 162.228 120.143 166.823 125.758C167.363 128.998 167.554 132.314 167.28 135.671C166.682 142.735 164.247 149.349 160.308 155.005C160.25 152.323 159.752 149.341 158.771 146.067C156.203 137.528 150.711 127.999 143.307 119.218C142.51 118.285 141.13 118.186 140.208 118.96C139.277 119.743 139.161 121.134 139.95 122.067C146.963 130.389 152.157 139.369 154.558 147.341C156.752 154.597 156.32 160.195 153.378 162.686C150.445 165.185 144.869 164.677 138.097 161.311C130.644 157.613 122.667 150.998 115.654 142.668C114.873 141.735 113.485 141.635 112.554 142.41C111.624 143.193 111.516 144.584 112.297 145.517C119.7 154.28 128.168 161.303 136.145 165.26C139.211 166.776 142.069 167.742 144.712 168.25C138.48 171.216 131.566 172.532 124.503 171.941C121.171 171.657 117.955 170.933 114.873 169.866C110.003 164.268 103.788 159.945 96.6254 157.363C96.5257 157.329 96.4343 157.338 96.3512 157.329C96.1933 157.296 96.052 157.271 95.9108 157.263C95.7695 157.263 95.6449 157.288 95.5036 157.313C95.354 157.329 95.2294 157.354 95.0798 157.413C94.9552 157.463 94.8389 157.538 94.7225 157.613C94.6311 157.671 94.5397 157.688 94.4566 157.754C94.4151 157.788 94.3985 157.837 94.3652 157.871C94.2738 157.971 94.199 158.071 94.116 158.187C94.0245 158.321 93.9331 158.437 93.8833 158.579C93.8584 158.629 93.8251 158.654 93.8085 158.695C93.7753 158.779 93.7919 158.87 93.767 158.962C93.7337 159.112 93.7005 159.254 93.7005 159.412C93.7005 159.553 93.7254 159.687 93.7503 159.82C93.7753 159.962 93.8002 160.095 93.85 160.228C93.9082 160.37 93.983 160.486 94.0661 160.62C94.116 160.695 94.1409 160.795 94.199 160.861C99.1265 166.692 105.334 171.024 112.272 173.64C114.341 176.156 116.144 178.921 117.565 181.962C120.59 188.368 121.769 195.307 121.18 202.188C119.792 199.897 117.872 197.556 115.396 195.215C108.898 189.117 99.3924 183.611 88.6068 179.729C87.4518 179.296 86.2054 179.904 85.79 181.054C85.3828 182.195 85.9728 183.461 87.1195 183.869C97.3483 187.56 106.322 192.733 112.38 198.431C117.897 203.62 120.315 208.685 119.011 212.309C117.715 215.949 112.629 218.307 105.084 218.781C96.7749 219.323 86.5877 217.574 76.3505 213.892C75.2122 213.483 73.9491 214.075 73.5337 215.216C73.1348 216.357 73.7248 217.624 74.8715 218.04C84.3608 221.464 93.8999 223.28 102.101 223.28C103.215 223.28 104.312 223.255 105.359 223.188C108.765 222.963 111.723 222.388 114.258 221.505C110.336 227.187 105.01 231.785 98.6196 234.801C95.5867 236.233 92.4291 237.216 89.2217 237.849C82.3665 235.484 74.8382 234.767 67.2019 236.15C67.1105 236.167 67.0441 236.225 66.9527 236.25C66.8114 236.3 66.6618 236.35 66.5289 236.425C66.4042 236.492 66.3045 236.567 66.2131 236.658C66.0968 236.758 65.9888 236.841 65.8891 236.958C65.806 237.083 65.7395 237.2 65.6647 237.333C65.6232 237.425 65.5567 237.491 65.5234 237.574C65.5068 237.624 65.5234 237.666 65.5068 237.716C65.4653 237.849 65.457 237.991 65.4403 238.141C65.432 238.283 65.4154 238.433 65.432 238.574C65.4403 238.624 65.4237 238.666 65.432 238.716C65.4487 238.807 65.5068 238.882 65.5318 238.966C65.5733 239.116 65.6232 239.249 65.6979 239.382C65.7644 239.515 65.8558 239.607 65.9389 239.715C66.0303 239.832 66.1217 239.932 66.2297 240.024C66.3461 240.115 66.4707 240.182 66.5953 240.248C66.6868 240.29 66.7532 240.357 66.8529 240.398C71.7139 242.148 76.7411 243.022 81.7682 243.022C84.1115 243.022 86.4381 242.764 88.7564 242.381C98.3786 245.971 106.397 253.21 110.851 262.74C102.375 258.059 87.7427 256.592 71.4148 259.541C70.2182 259.75 69.4205 260.899 69.6449 262.099C69.8526 263.29 70.9993 264.09 72.1876 263.881C95.5036 259.658 112.629 264.939 114 272.52C115.363 280.1 101.162 291.046 77.8379 295.27C76.6414 295.478 75.852 296.628 76.068 297.827C76.2674 298.893 77.1898 299.635 78.2285 299.635C78.3531 299.635 78.486 299.635 78.6273 299.61C94.9552 296.652 108.142 290.147 114.449 282.791C113.601 293.262 108.624 302.842 100.88 309.573C93.7836 310.972 86.9283 314.129 81.0204 319.136C80.9456 319.194 80.9041 319.286 80.8376 319.361C80.7462 319.469 80.6548 319.569 80.5717 319.702C80.4969 319.827 80.4471 319.952 80.4055 320.094C80.3557 320.219 80.3141 320.344 80.2892 320.477C80.2726 320.635 80.2726 320.785 80.2809 320.935C80.2892 321.035 80.2559 321.118 80.2809 321.21C80.2809 321.235 80.3141 321.252 80.3224 321.285C80.3972 321.627 80.5218 321.951 80.7628 322.235C80.821 322.318 80.9124 322.351 80.9789 322.418C81.0453 322.476 81.1035 322.518 81.1617 322.551C81.5273 322.834 81.9427 322.984 82.3831 323.001C82.4081 323.001 82.4164 323.018 82.4413 323.018C82.5659 323.018 82.6989 323.009 82.8318 322.984C90.4515 321.61 97.2403 318.319 102.841 313.721C112.912 312.03 123.415 314.263 132.007 320.227C129.331 320.294 126.356 320.793 123.107 321.776C114.59 324.351 105.076 329.857 96.3262 337.279C95.3956 338.062 95.2876 339.453 96.0686 340.386C96.858 341.311 98.2457 341.428 99.168 340.644C107.469 333.605 116.427 328.399 124.379 325.992C131.616 323.792 137.2 324.226 139.676 327.166V327.174H139.684C144.637 333.064 137.798 349.658 119.717 364.994C118.786 365.785 118.67 367.176 119.459 368.101C119.9 368.617 120.515 368.884 121.138 368.884C121.628 368.884 122.143 368.709 122.551 368.359C135.222 357.613 143.415 345.368 145.194 335.838C152.697 351.707 149.008 371.275 135.023 383.137C134.092 383.928 133.984 385.32 134.765 386.244C135.197 386.752 135.821 387.027 136.444 387.027C136.942 387.027 137.449 386.852 137.865 386.502C146.839 378.889 152.315 368.234 153.295 356.489C154.209 345.484 151.027 334.788 144.379 326.075L197.85 280.733C201.78 284.665 206.475 287.789 211.677 289.838C171.833 418.441 99.1182 536.338 2.80441 629.212L2.67146 629.345C-0.893256 632.919 -0.893249 638.725 2.68808 642.291C6.26111 645.864 12.0444 645.864 15.6091 642.274C112.322 545.127 183.724 423.505 221.415 292.287C224.614 292.696 227.905 292.754 231.245 292.362C232.101 292.262 232.94 292.079 233.788 291.938L255.243 362.786C233.339 370.667 221.149 394.499 227.98 417.066C228.271 418.016 229.143 418.632 230.082 418.632C230.298 418.632 230.514 418.599 230.722 418.532C231.885 418.182 232.542 416.958 232.193 415.783C226.875 398.215 234.378 379.78 249.26 370.525C245.604 379.497 245.845 394.25 250.664 410.16C250.955 411.11 251.819 411.726 252.767 411.726C252.974 411.726 253.199 411.701 253.406 411.635C254.57 411.277 255.226 410.044 254.877 408.886C247.989 386.153 251.238 368.492 258.591 366.252C265.887 364.027 278.434 376.881 285.323 399.614C285.672 400.78 286.868 401.447 288.056 401.08C289.211 400.73 289.876 399.506 289.527 398.331C284.699 382.421 276.731 370.034 268.712 364.602C286.203 364.002 302.673 375.132 307.999 392.708C308.348 393.875 309.586 394.541 310.733 394.183C311.896 393.825 312.552 392.6 312.203 391.434C305.365 368.867 282.007 355.847 259.439 361.495L238.067 290.913C250.099 287.323 259.597 278.418 264.125 267.13L335.918 293.012C329.138 315.321 340.945 339.353 363.082 347.334C363.323 347.425 363.58 347.467 363.821 347.467C364.727 347.467 365.574 346.9 365.89 346.009C366.306 344.86 365.716 343.602 364.569 343.185C347.36 336.987 337.09 319.994 338.536 302.534C339.923 304.824 341.835 307.157 344.311 309.481C350.8 315.587 360.315 321.085 371.1 324.975C371.341 325.059 371.599 325.1 371.84 325.1C372.737 325.1 373.585 324.542 373.909 323.642C374.324 322.501 373.726 321.235 372.587 320.819C362.35 317.137 353.376 311.972 347.327 306.266C341.81 301.076 339.392 296.019 340.696 292.379C341.992 288.755 347.069 286.398 354.623 285.915C362.899 285.373 373.111 287.123 383.356 290.813C384.503 291.23 385.758 290.621 386.157 289.48C386.572 288.339 385.982 287.081 384.835 286.665C374.05 282.774 363.214 280.958 354.332 281.516C350.942 281.733 347.975 282.308 345.449 283.191C349.363 277.51 354.681 272.911 361.087 269.896C370.651 265.381 381.404 264.864 391.367 268.446C392.522 268.863 393.768 268.271 394.175 267.122C394.591 265.972 394.001 264.714 392.854 264.298Z" fill="#ECE3CF"/>
<path d="M258.997 163.491C260.6 162.258 261.88 160.825 262.869 159.209C263.858 157.601 264.556 155.819 264.921 153.828C265.079 152.803 265.187 151.745 265.146 150.604L321.516 63.0616C328.247 66.9685 335.717 69.0677 343.362 69.0677C346.478 69.0677 349.61 68.7345 352.718 68.0598C364.21 65.5857 374.056 58.7632 380.421 48.8586C381.086 47.8423 380.787 46.4761 379.773 45.818C378.751 45.1516 377.388 45.4515 376.732 46.4761C366.777 61.9454 347.832 68.1097 331.147 62.6368C340.362 59.6796 351.471 50.0165 360.52 35.9717C361.177 34.9471 360.878 33.5893 359.864 32.9312C358.842 32.2731 357.487 32.5646 356.814 33.5893C343.976 53.5402 328.43 62.4868 321.973 58.2967C315.517 54.1233 317.237 36.2466 330.091 16.2874C330.748 15.2627 330.457 13.8966 329.435 13.2385C328.413 12.5804 327.05 12.872 326.394 13.8966C317.386 27.883 313.115 42.0028 314.187 51.6492C309.509 46.5178 306.235 40.2618 304.731 33.2977C302.496 22.9266 304.44 12.3138 310.174 3.40048C310.83 2.37586 310.54 1.00971 309.518 0.351622C308.495 -0.306467 307.141 -0.0149045 306.485 1.00971C293.73 20.819 298.906 47.1009 317.802 60.7125L261.705 147.83C260.401 148.372 259.296 149.03 258.299 149.763C256.695 150.987 255.424 152.428 254.443 154.036C253.463 155.661 252.765 157.443 252.399 159.442C252.083 161.458 251.975 163.616 252.74 166.298C255.482 165.765 257.343 164.69 258.997 163.491Z" fill="#ECE3CF"/>
<path d="M483.974 51.2977C483.5 50.6063 482.561 50.4231 481.872 50.8896C475.847 54.963 468.618 56.4458 461.481 55.0547C456.728 54.1217 452.473 51.9058 448.917 48.807C449.407 48.8486 449.864 48.9236 450.379 48.9236C451.817 48.9236 453.362 48.7737 455.041 48.4571C461.04 47.3325 467.937 44.2837 474.46 39.877C475.149 39.4022 475.341 38.4692 474.867 37.7694C474.41 37.0863 473.463 36.8948 472.773 37.3696C466.583 41.5514 460.093 44.4336 454.476 45.4832C449.374 46.4412 445.601 45.7331 444.122 43.534C441.181 39.1522 447.081 28.3313 460.567 19.2097C461.256 18.7432 461.431 17.8019 460.965 17.1104C460.5 16.419 459.561 16.2358 458.871 16.7023C449.407 23.0999 442.992 30.847 441.081 37.228C439.502 32.7213 439.045 27.8898 439.976 23.0916C441.355 15.9359 445.435 9.76318 451.46 5.68969C452.149 5.2232 452.332 4.28188 451.867 3.59047C451.401 2.89906 450.462 2.70746 449.773 3.18229C443.084 7.7056 438.547 14.5697 437.018 22.5084C435.572 29.9473 436.951 37.4945 440.84 43.9338L384.594 81.9697C383.747 81.9613 382.965 82.0446 382.234 82.2029C380.888 82.5195 379.658 83.0193 378.586 83.7523C377.506 84.4687 376.584 85.4101 375.778 86.543C374.988 87.6759 374.315 89.0087 374.025 90.8997C375.869 91.3495 377.357 91.2412 378.711 90.933C380.065 90.6331 381.287 90.125 382.359 89.4002C383.447 88.6922 384.378 87.7509 385.176 86.6179C385.616 85.9932 385.998 85.2684 386.322 84.4437L442.527 46.4412C447.031 52.4723 453.479 56.5708 460.907 58.0202C462.843 58.4034 464.788 58.5867 466.732 58.5867C472.69 58.5867 478.515 56.8124 483.559 53.397C484.248 52.9305 484.439 51.9891 483.974 51.2977Z" fill="#ECE3CF"/>
<path d="M447.645 220.826C435.414 225.258 422.119 220.643 415.006 210.43C416.801 211.047 418.903 211.455 421.313 211.605C422.035 211.646 422.783 211.663 423.539 211.663C429.389 211.663 436.195 210.355 442.975 207.89C443.781 207.598 444.205 206.707 443.914 205.89C443.615 205.074 442.709 204.666 441.911 204.949C434.649 207.59 427.395 208.839 421.504 208.481C416.144 208.156 412.53 206.482 411.599 203.908C410.668 201.325 412.38 197.727 416.294 194.028C420.581 189.971 426.955 186.281 434.217 183.64C435.023 183.349 435.439 182.457 435.148 181.641C434.857 180.825 433.968 180.408 433.153 180.7C425.492 183.482 418.737 187.405 414.15 191.754C412.397 193.412 411.034 195.069 410.053 196.702C408.998 184.29 416.269 172.211 428.475 167.771C429.29 167.48 429.713 166.58 429.423 165.772C429.123 164.955 428.226 164.539 427.412 164.822C411.707 170.537 403.356 187.63 408.209 203.466L342.349 227.374C341.011 226.949 339.781 226.807 338.601 226.816C336.881 226.774 335.302 227.124 333.823 227.69C332.353 228.29 330.957 229.098 329.719 230.298C328.455 231.439 327.3 232.864 326.445 235.054C328.547 236.087 330.358 236.346 332.062 236.337C333.79 236.387 335.352 236.037 336.848 235.479C338.327 234.888 339.723 234.08 340.961 232.889C341.701 232.214 342.39 231.422 343.013 230.456L409.314 206.398C414.283 218.269 425.8 225.641 438.097 225.641C441.612 225.641 445.202 225.041 448.7 223.775C449.523 223.467 449.93 222.576 449.639 221.759C449.348 220.951 448.459 220.535 447.645 220.826Z" fill="#ECE3CF"/>
</g>
</svg>
