<svg width="33" height="33" viewBox="0 0 33 33" fill="none" xmlns="http://www.w3.org/2000/svg">
<circle cx="16.25" cy="16.4863" r="12.6875" fill="#BA9568"/>
<path d="M16.25 0.486328C7.41667 0.486328 0.25 7.653 0.25 16.4863C0.25 25.3197 7.41667 32.4863 16.25 32.4863C25.0833 32.4863 32.25 25.3197 32.25 16.4863C32.25 7.653 25.0833 0.486328 16.25 0.486328ZM24.4833 12.6197L15.0833 22.053C14.7833 22.353 14.35 22.553 13.9167 22.553C13.4833 22.553 13.05 22.3863 12.75 22.053L8.01667 17.3197C7.35 16.653 7.35 15.6197 8.01667 14.953C8.68333 14.2863 9.71667 14.2863 10.3833 14.953L13.9167 18.4863L22.15 10.253C22.8167 9.58633 23.85 9.58633 24.5167 10.253C25.15 10.9197 25.15 11.953 24.4833 12.6197Z" fill="#FBFAF8"/>
</svg>
