<svg width="74" height="100" viewBox="0 0 74 100" fill="none" xmlns="http://www.w3.org/2000/svg">
<path d="M62.4057 18.7214C61.411 21.6819 54.4404 24.648 49.4673 27.6084C54.1088 28.5952 62.3995 29.5815 64.3888 32.542C66.378 42.4099 62.4036 50.3155 47.4843 55.2495C44.7246 56.1622 41.9487 52.0481 39.9748 49.8585C40.7932 53.311 40.7268 60.6718 39.6823 69.0048C40.984 68.2271 42.5425 67.6421 44.5911 67.1751C45.1827 64.4931 46.7157 62.4371 48.4596 61.4247C51.9389 59.8915 54.9665 59.3003 57.7245 59.3988C63.7921 59.6165 68.4989 63.1513 73.4586 67.1751C57.9202 73.8589 55.0948 86.5677 46.3465 76.6828C45.1157 74.5387 44.6454 73.7114 44.4935 71.8145C47.7336 70.163 52.3513 67.2543 59.675 65.4106C46.0373 68.8435 41.2171 71.7143 38.772 74.8204C37.2022 83.464 35.2725 92.0102 30.8074 99.619C28.8021 100.627 25.8011 99.6377 25.8011 96.6132C28.5727 92.433 30.3278 87.8637 31.6852 82.8252C30.6076 78.6146 27.7685 74.4343 13.2528 66.3256C20.9383 70.6188 24.5554 74.9797 27.1665 77.6629C26.5092 78.8012 26.4163 78.7829 25.3135 79.8847C13.8327 87.4271 14.4191 73.9183 0.541992 63.0257C5.51995 60.8226 10.2387 58.9187 15.1708 59.0723C19.0069 59.1915 22.9599 60.5726 27.2965 64.0385C29.1663 65.9062 30.2418 69.3196 29.312 73.0887C31.037 74.2268 32.1888 75.4359 33.083 76.8788C34.7231 69.1094 36.0396 60.2621 38.837 49.9564C36.4626 52.239 34.3142 55.3279 31.5876 56.2297C22.6362 57.2165 11.6986 51.2908 9.7094 37.4755C11.6986 33.5283 19.6252 30.5883 24.5983 29.6013C19.6252 28.6148 9.69624 26.6153 8.70164 23.655C8.70164 7.86604 20.6207 0.980123 29.5721 0.980123C32.556 1.9671 34.2407 10.8468 36.5615 15.7808C36.5615 10.8468 37.5436 1.97354 40.5275 0C51.9732 0.0791666 62.5359 7.57701 62.4057 18.7214ZM36.789 19.9629C32.3423 19.9629 28.6944 23.66 28.6944 28.1312C28.6944 32.6022 32.3423 36.2666 36.789 36.2666C41.2357 36.2666 44.8836 32.6022 44.8836 28.1312C44.8836 23.66 41.2357 19.9629 36.789 19.9629Z" fill="#D8C69E"/>
</svg>
