<svg width="24" height="24" viewBox="0 0 24 24" fill="none" xmlns="http://www.w3.org/2000/svg">
<path d="M9 19.9995L9.28735 20.9573C9.69033 20.8364 9.97454 20.4762 9.99839 20.0561C10.0222 19.6361 9.78063 19.246 9.39392 19.0803L9 19.9995ZM2 16.9994L2.24254 16.0293C1.73679 15.9029 1.21876 16.1862 1.05233 16.6802C0.885901 17.1742 1.12692 17.7132 1.60608 17.9186L2 16.9994ZM15 22.9994C15 23.5517 15.4477 23.9994 16 23.9994C16.5523 23.9994 17 23.5517 17 22.9994H15ZM16 19.1294L15.0031 19.051C15.001 19.0771 15 19.1033 15 19.1294H16ZM15.06 16.5194L14.9492 15.5256C14.57 15.5679 14.2479 15.8222 14.1189 16.1813C13.9899 16.5404 14.0764 16.9416 14.342 17.2155L15.06 16.5194ZM21.5 9.51945H22.5V9.51926L21.5 9.51945ZM20 5.76945L19.0631 5.41981C18.9293 5.77834 19.0119 6.1818 19.2757 6.45897L20 5.76945ZM19.91 1.99945L20.8291 1.6055C20.712 1.33225 20.4794 1.12527 20.1944 1.04073L19.91 1.99945ZM16 3.47945L15.7384 4.44463C16.0178 4.52036 16.3163 4.47128 16.5568 4.31009L16 3.47945ZM9 3.47945L8.44319 4.31009C8.68366 4.47128 8.98217 4.52036 9.26158 4.44463L9 3.47945ZM5.09 1.99945L4.80563 1.04073C4.52061 1.12527 4.28799 1.33225 4.17087 1.6055L5.09 1.99945ZM5 5.76945L5.72425 6.45899C5.98813 6.18182 6.07069 5.77835 5.93688 5.41981L5 5.76945ZM3.5 9.54945H4.50001L4.49999 9.54413L3.5 9.54945ZM9.94 16.5494L10.6586 17.2449C10.9223 16.9724 11.0092 16.5743 10.8831 16.2168C10.7569 15.8593 10.4395 15.6038 10.0633 15.5571L9.94 16.5494ZM9 19.1294H10C10 19.106 9.99918 19.0826 9.99754 19.0593L9 19.1294ZM8 22.9994C8 23.5517 8.44771 23.9994 9 23.9994C9.55228 23.9994 10 23.5517 10 22.9994H8ZM8.71265 19.0416C7.57636 19.3825 6.82286 19.3811 6.30601 19.2601C5.80203 19.1422 5.42857 18.8888 5.08211 18.5423C4.90325 18.3635 4.73545 18.1637 4.5569 17.94C4.39069 17.7318 4.18875 17.4683 3.99562 17.2416C3.60492 16.783 3.05841 16.2333 2.24254 16.0293L1.75746 17.9696C1.94159 18.0156 2.14508 18.1534 2.47313 18.5385C2.63937 18.7337 2.789 18.9312 2.99388 19.1878C3.18643 19.429 3.40925 19.6979 3.66789 19.9566C4.19643 20.4851 4.88547 20.9817 5.85024 21.2075C6.80214 21.4303 7.92364 21.3664 9.28735 20.9573L8.71265 19.0416ZM1.60608 17.9186L8.60608 20.9186L9.39392 19.0803L2.39392 16.0803L1.60608 17.9186ZM17 22.9994V19.1294H15V22.9994H17ZM16.9969 19.2079C17.0953 17.957 16.6513 16.7243 15.778 15.8234L14.342 17.2155C14.8157 17.7041 15.0564 18.3727 15.0031 19.051L16.9969 19.2079ZM15.1708 17.5133C16.797 17.332 18.652 16.9195 20.1011 15.7011C21.5987 14.4418 22.5 12.4657 22.5 9.51945H20.5C20.5 12.0332 19.7513 13.3821 18.8139 14.1703C17.828 14.9994 16.463 15.3569 14.9492 15.5256L15.1708 17.5133ZM22.5 9.51926C22.4997 7.86644 21.8639 6.27701 20.7243 5.07993L19.2757 6.45897C20.0615 7.28429 20.4998 8.38011 20.5 9.51963L22.5 9.51926ZM20.9369 6.11909C21.4827 4.65667 21.4441 3.04021 20.8291 1.6055L18.9909 2.3934C19.4032 3.35539 19.4291 4.43924 19.0631 5.41981L20.9369 6.11909ZM19.91 1.99945C20.1944 1.04073 20.1934 1.04045 20.1924 1.04016C20.1921 1.04006 20.1911 1.03978 20.1905 1.03958C20.1891 1.0392 20.1878 1.03881 20.1864 1.03841C20.1837 1.03763 20.1809 1.03684 20.178 1.03603C20.1723 1.03443 20.1662 1.03278 20.1598 1.03111C20.1471 1.02777 20.1331 1.02432 20.1178 1.02086C20.0873 1.01392 20.0519 1.00691 20.0115 1.00046C19.9305 0.987561 19.8304 0.977034 19.7105 0.973734C19.4702 0.96712 19.1553 0.989658 18.762 1.07697C17.9773 1.25119 16.8856 1.68189 15.4432 2.64881L16.5568 4.31009C17.8444 3.44701 18.7077 3.13771 19.1955 3.02943C19.4385 2.97549 19.5892 2.97115 19.6555 2.97298C19.6889 2.9739 19.7022 2.97642 19.6965 2.9755C19.6937 2.97506 19.6863 2.97378 19.6744 2.97108C19.6684 2.96972 19.6614 2.96802 19.6532 2.96589C19.6492 2.96483 19.6448 2.96366 19.6402 2.96237C19.6379 2.96173 19.6356 2.96106 19.6331 2.96036C19.6319 2.96001 19.6307 2.95965 19.6294 2.95928C19.6288 2.9591 19.6279 2.95882 19.6275 2.95873C19.6266 2.95845 19.6256 2.95817 19.91 1.99945ZM16.2616 2.51427C13.7983 1.84666 11.2017 1.84666 8.73842 2.51427L9.26158 4.44463C11.3823 3.86988 13.6177 3.86988 15.7384 4.44463L16.2616 2.51427ZM9.5568 2.64881C8.11435 1.68189 7.02274 1.25119 6.23798 1.07697C5.8447 0.989658 5.52982 0.96712 5.28952 0.973734C5.16963 0.977034 5.06945 0.987561 4.98854 1.00046C4.94814 1.00691 4.91271 1.01392 4.8822 1.02086C4.86695 1.02432 4.85294 1.02777 4.84018 1.03111C4.8338 1.03278 4.82773 1.03443 4.82197 1.03603C4.81909 1.03684 4.81629 1.03763 4.81357 1.03841C4.81221 1.03881 4.81087 1.0392 4.80954 1.03958C4.80888 1.03978 4.8079 1.04006 4.80757 1.04016C4.8066 1.04045 4.80563 1.04073 5.09 1.99945C5.37436 2.95817 5.37341 2.95845 5.37245 2.95873C5.37214 2.95882 5.37119 2.9591 5.37056 2.95928C5.36931 2.95965 5.36808 2.96001 5.36686 2.96036C5.36443 2.96106 5.36206 2.96173 5.35976 2.96237C5.35516 2.96366 5.35082 2.96483 5.34676 2.96589C5.33862 2.96802 5.33158 2.96972 5.32564 2.97108C5.31374 2.97378 5.30633 2.97506 5.30353 2.9755C5.29781 2.97642 5.31115 2.9739 5.34454 2.97298C5.4108 2.97115 5.56155 2.97549 5.80452 3.02943C6.29226 3.13771 7.15565 3.44701 8.44319 4.31009L9.5568 2.64881ZM4.17087 1.6055C3.55594 3.04021 3.51735 4.65667 4.06312 6.11909L5.93688 5.41981C5.57094 4.43924 5.59681 3.35539 6.00913 2.3934L4.17087 1.6055ZM4.27575 5.07991C3.12759 6.28587 2.49116 7.88967 2.50001 9.55477L4.49999 9.54413C4.49388 8.39615 4.93266 7.29042 5.72425 6.45899L4.27575 5.07991ZM2.5 9.54945C2.5 12.4789 3.40326 14.4434 4.89892 15.7011C6.34442 16.9165 8.19555 17.3405 9.81674 17.5418L10.0633 15.5571C8.54445 15.3684 7.17558 15.0024 6.18608 14.1703C5.24674 13.3805 4.5 12.04 4.5 9.54945H2.5ZM9.2214 15.854C8.35857 16.7456 7.91542 17.9619 8.00246 19.1996L9.99754 19.0593C9.95033 18.3881 10.1907 17.7284 10.6586 17.2449L9.2214 15.854ZM8 19.1294V22.9994H10V19.1294H8Z" fill="white"/>
</svg>
