<svg width="25" height="24" viewBox="0 0 25 24" fill="none" xmlns="http://www.w3.org/2000/svg">
<path fill-rule="evenodd" clip-rule="evenodd" d="M22.6502 14.3892L12.0002 22.1292L1.3502 14.3892C1.05732 14.1738 0.936243 13.7945 1.0502 13.4492L2.2702 9.66923L4.7102 2.15923C4.73387 2.09804 4.77154 2.04324 4.8202 1.99923C4.98443 1.84922 5.23597 1.84922 5.4002 1.99923C5.45158 2.04889 5.48944 2.11085 5.5102 2.17923L7.9502 9.66923H16.0502L18.4902 2.15923C18.5139 2.09804 18.5515 2.04324 18.6002 1.99923C18.7644 1.84922 19.016 1.84922 19.1802 1.99923C19.2316 2.04889 19.2694 2.11085 19.2902 2.17923L21.7302 9.68923L23.0002 13.4492C23.1039 13.8055 22.9617 14.1876 22.6502 14.3892Z" stroke="white" stroke-width="2" stroke-linecap="round" stroke-linejoin="round"/>
</svg>
