<svg width="24" height="24" viewBox="0 0 24 24" fill="none" xmlns="http://www.w3.org/2000/svg">
    <path fill-rule="evenodd" clip-rule="evenodd" d="M12.0025 2C14.7606 2 17.2612 3.11909 19.0735 4.93142C20.8809 6.7388 22 9.23942 22 12.0025C22 14.7606 20.8809 17.2612 19.0735 19.0735C17.2612 20.8809 14.7606 22 12.0025 22C9.23942 22 6.7388 20.8809 4.93142 19.0735C3.11909 17.2612 2 14.7606 2 12.0025C2 9.23942 3.11909 6.7388 4.93142 4.93142C6.7388 3.11909 9.23942 2 12.0025 2ZM17.9693 6.03565C17.3751 5.43649 16.6918 4.93142 15.944 4.53528C16.0629 4.71849 16.1768 4.90666 16.2857 5.10473C17.1721 6.70909 17.7514 8.84823 17.8554 11.2201H20.4055C20.2223 9.1998 19.3261 7.38747 17.9693 6.03565ZM17.9693 17.9693C19.3261 16.6125 20.2223 14.8002 20.4055 12.7799H17.8554C17.7514 15.1518 17.1721 17.2909 16.2857 18.8953C16.1768 19.0933 16.0629 19.2865 15.944 19.4647C16.6918 19.0686 17.3751 18.5635 17.9693 17.9693ZM6.03565 17.9693C6.62986 18.5635 7.30824 19.0686 8.06091 19.4647C7.94206 19.2865 7.82818 19.0933 7.71924 18.8953C6.83288 17.2909 6.25353 15.1518 6.14459 12.7799H3.59941C3.78262 14.8002 4.67888 16.6125 6.03565 17.9693ZM6.03565 6.03565C4.67888 7.38747 3.78262 9.1998 3.59941 11.2201H6.14459C6.25353 8.84823 6.83288 6.70909 7.71924 5.10473C7.82818 4.90666 7.94206 4.71849 8.06091 4.53528C7.30824 4.93142 6.62986 5.43649 6.03565 6.03565ZM12.7799 3.70834V11.2201H16.2956C16.1916 9.12057 15.6866 7.24387 14.919 5.85739C14.3248 4.77792 13.587 4.01535 12.7799 3.70834ZM12.7799 12.7799V20.2917C13.587 19.9846 14.3248 19.2221 14.919 18.1476C15.6866 16.7561 16.1916 14.8794 16.2956 12.7799H12.7799ZM11.2201 20.2917V12.7799H7.70933C7.80837 14.8794 8.3184 16.7561 9.08591 18.1476C9.68012 19.2221 10.4179 19.9846 11.2201 20.2917ZM11.2201 11.2201V3.70834C10.4179 4.01535 9.68012 4.77792 9.08591 5.85739C8.3184 7.24387 7.80837 9.12057 7.70933 11.2201H11.2201Z" fill="#D8C69E"/>
</svg>
