<svg width="193" height="70" viewBox="0 0 193 70" fill="none" xmlns="http://www.w3.org/2000/svg">
<path d="M141.484 45.6469H143.61V31.7456H141.484V45.6469ZM160.635 36.7531L158.198 42.7801H158.125L155.595 36.7531H153.305L157.098 45.1769L154.936 49.8625H157.154L163 36.7531H160.635ZM148.577 44.068C147.88 44.068 146.909 43.7283 146.909 42.8874C146.909 41.8144 148.119 41.4031 149.163 41.4031C150.099 41.4031 150.537 41.5998 151.106 41.8684C150.941 43.1558 149.805 44.068 148.577 44.068V44.068ZM148.834 36.449C147.294 36.449 145.7 37.111 145.041 38.5775L146.927 39.3463C147.331 38.5775 148.082 38.3268 148.87 38.3268C149.97 38.3268 151.088 38.971 151.106 40.1156V40.2585C150.721 40.0439 149.897 39.7221 148.888 39.7221C146.855 39.7221 144.783 40.8127 144.783 42.8517C144.783 44.7117 146.451 45.9102 148.32 45.9102C149.75 45.9102 150.537 45.2842 151.033 44.5511H151.106V45.6239H153.158V40.2941C153.158 37.8264 151.271 36.449 148.834 36.449V36.449ZM135.694 38.4454H132.669V33.6803H135.694C137.283 33.6803 138.186 34.9647 138.186 36.0628C138.186 37.1401 137.283 38.4454 135.694 38.4454ZM135.639 31.7456H130.544V45.6469H132.669V40.3802H135.639C137.995 40.3802 140.312 38.7152 140.312 36.0628C140.312 33.4106 137.995 31.7456 135.639 31.7456ZM107.858 44.0706C106.389 44.0706 105.159 42.8704 105.159 41.2219C105.159 39.5562 106.389 38.3377 107.858 38.3377C109.308 38.3377 110.446 39.5562 110.446 41.2219C110.446 42.8704 109.308 44.0706 107.858 44.0706V44.0706ZM110.299 37.5315H110.226C109.748 36.9763 108.83 36.4747 107.674 36.4747C105.251 36.4747 103.03 38.5527 103.03 41.2219C103.03 43.8734 105.251 45.9336 107.674 45.9336C108.83 45.9336 109.748 45.4319 110.226 44.859H110.299V45.5396C110.299 47.3493 109.308 48.3166 107.711 48.3166C106.407 48.3166 105.6 47.4027 105.269 46.6325L103.415 47.3849C103.947 48.6389 105.361 50.1797 107.711 50.1797C110.207 50.1797 112.318 48.7462 112.318 45.253V36.7614H110.299V37.5315ZM113.787 45.6469H115.916V31.7451H113.787V45.6469ZM119.055 41.0608C119 39.2333 120.506 38.302 121.589 38.302C122.434 38.302 123.149 38.7138 123.387 39.3055L119.055 41.0608ZM125.664 39.4844C125.261 38.4271 124.03 36.4747 121.515 36.4747C119.019 36.4747 116.944 38.3916 116.944 41.2042C116.944 43.8556 119 45.9336 121.754 45.9336C123.975 45.9336 125.261 44.6079 125.793 43.8377L124.141 42.7626C123.59 43.551 122.837 44.0706 121.754 44.0706C120.671 44.0706 119.9 43.5867 119.404 42.6375L125.884 40.0218L125.664 39.4844ZM74.0371 37.9259V39.9322H78.9567C78.8098 41.0608 78.4243 41.8848 77.8368 42.4582C77.1211 43.1571 76.0013 43.9272 74.0371 43.9272C71.008 43.9272 68.6401 41.5446 68.6401 38.5887C68.6401 35.6328 71.008 33.2499 74.0371 33.2499C75.6709 33.2499 76.8638 33.877 77.7451 34.6833L79.1953 33.2681C77.9655 32.1213 76.3315 31.2435 74.0371 31.2435C69.8882 31.2435 66.4004 34.5399 66.4004 38.5887C66.4004 42.6375 69.8882 45.9336 74.0371 45.9336C76.2768 45.9336 77.9655 45.2174 79.287 43.8734C80.6455 42.5477 81.0679 40.6846 81.0679 39.18C81.0679 38.7138 81.0313 38.2843 80.9575 37.9259H74.0371ZM86.661 44.0706C85.1921 44.0706 83.9254 42.8882 83.9254 41.2042C83.9254 39.5022 85.1921 38.3377 86.661 38.3377C88.1293 38.3377 89.3961 39.5022 89.3961 41.2042C89.3961 42.8882 88.1293 44.0706 86.661 44.0706V44.0706ZM86.661 36.4747C83.9806 36.4747 81.796 38.4632 81.796 41.2042C81.796 43.9272 83.9806 45.9336 86.661 45.9336C89.3409 45.9336 91.5255 43.9272 91.5255 41.2042C91.5255 38.4632 89.3409 36.4747 86.661 36.4747ZM97.2731 44.0706C95.8047 44.0706 94.5379 42.8882 94.5379 41.2042C94.5379 39.5022 95.8047 38.3377 97.2731 38.3377C98.7415 38.3377 100.008 39.5022 100.008 41.2042C100.008 42.8882 98.7415 44.0706 97.2731 44.0706ZM97.2731 36.4747C94.5927 36.4747 92.4086 38.4632 92.4086 41.2042C92.4086 43.9272 94.5927 45.9336 97.2731 45.9336C99.9531 45.9336 102.138 43.9272 102.138 41.2042C102.138 38.4632 99.9531 36.4747 97.2731 36.4747Z" fill="white"/>
<path d="M31.612 48.3047L31.5273 48.2256C31.1958 47.8832 31 47.3516 31 46.6631V46.8252V22.2321C31 22.2299 31 22.2282 31 22.2264C31 22.2285 31 22.2303 31 22.2325V22.395C31 21.6495 31.2282 21.088 31.6106 20.7512L45.7283 34.5284L31.612 48.3047ZM31 22.2251C31 22.1638 31.0017 22.1043 31.0049 22.0457C31.0017 22.1039 31 22.1638 31 22.2251ZM31.0049 22.0431C31.0049 22.0423 31.0049 22.0414 31.0052 22.0405C31.0049 22.0414 31.0049 22.0423 31.0049 22.0431ZM31.0052 22.0353C31.0052 22.0348 31.0052 22.0344 31.0052 22.0339C31.0052 22.0344 31.0052 22.0348 31.0052 22.0353Z" fill="url(#paint0_linear_3490:34240)"/>
<path d="M50.4317 39.2852L50.5391 39.2257L56.1143 36.1342C56.6459 35.8393 57.0002 35.4818 57.1769 35.1035C57.0006 35.4818 56.6462 35.8397 56.1143 36.1346L50.5391 39.2261L50.4317 39.2852V39.2852ZM50.4331 39.1222L45.7266 34.5283L50.4326 29.9352L56.1143 33.0853C56.8358 33.4854 57.2409 34.001 57.3086 34.5279C57.3086 34.5283 57.3086 34.5292 57.3086 34.53C57.2409 35.0557 56.8358 35.5717 56.1143 35.9717L50.4331 39.1222" fill="url(#paint1_linear_3490:34240)"/>
<path d="M32.6171 48.8281C32.2227 48.8281 31.8786 48.703 31.6102 48.4667L31.6107 48.4663C31.879 48.7026 32.2236 48.8281 32.618 48.8281C32.6522 48.8281 32.6869 48.8272 32.7221 48.8256C32.6865 48.8272 32.6512 48.8281 32.6171 48.8281V48.8281ZM32.6175 48.6652C32.2231 48.6657 31.879 48.5401 31.6107 48.3038V48.3035L45.727 34.5272L50.4335 39.1211L33.8941 48.2921C33.4364 48.5453 33.0029 48.6652 32.6175 48.6652V48.6652ZM31.6067 48.4637C31.5817 48.4416 31.5572 48.4181 31.5332 48.3938L31.6067 48.4637Z" fill="url(#paint2_linear_3490:34240)"/>
<path d="M45.7271 34.5273L31.6094 20.7502C31.8777 20.5143 32.2214 20.3892 32.6153 20.3892C33.0017 20.3892 33.4356 20.5095 33.8941 20.7632L50.4331 29.9342L45.7271 34.5273V34.5273ZM50.5396 29.8305L33.8941 20.6008C33.4356 20.3471 33.0017 20.2268 32.6153 20.2268C32.6135 20.2268 32.6122 20.2268 32.6104 20.2268C32.6127 20.2268 32.6144 20.2268 32.6171 20.2268C33.0026 20.2268 33.436 20.3466 33.8941 20.6004L50.5396 29.8305V29.8305Z" fill="url(#paint3_linear_3490:34240)"/>
<path d="M32.7254 48.8262C33.0836 48.8062 33.4803 48.6858 33.8973 48.4552L50.4355 39.2846L33.8973 48.4552C33.4806 48.6863 33.0836 48.8062 32.7254 48.8262V48.8262ZM31.6135 48.4673L31.61 48.4643C31.6112 48.4652 31.6126 48.4664 31.6135 48.4673ZM31.5365 48.3944L31.5293 48.3875V48.387C31.532 48.3896 31.5342 48.3922 31.5365 48.3944Z" fill="black"/>
<path d="M50.4316 39.2852L50.5396 39.2253L50.4316 39.2852Z" fill="url(#paint4_linear_3490:34240)"/>
<path d="M32.6212 48.8281C32.2269 48.8281 31.8823 48.7026 31.614 48.4663L31.6135 48.4667C31.6126 48.4658 31.6112 48.4646 31.61 48.4637L31.5365 48.3938C31.5342 48.3916 31.532 48.389 31.5293 48.3864L31.614 48.3038C31.8823 48.5401 32.2264 48.6657 32.6208 48.6652C33.0062 48.6652 33.4397 48.5453 33.8973 48.2921L50.4368 39.1211L50.5428 39.2245L50.4355 39.284L33.8973 48.4546C33.4803 48.6852 33.0836 48.8056 32.7254 48.8256C32.6902 48.8272 32.6554 48.8281 32.6212 48.8281" fill="url(#paint5_linear_3490:34240)"/>
<path d="M31.5273 48.3848C31.1958 48.0424 31 47.5107 31 46.8223V46.8218C31 47.5107 31.1958 48.0419 31.5273 48.3843V48.3848" fill="black"/>
<path d="M31.5273 48.3867C31.1958 48.0443 31 47.5131 31 46.8242V46.6622C31 47.3507 31.1958 47.8823 31.5273 48.2247L31.612 48.3038L31.5273 48.3867" fill="url(#paint6_linear_3490:34240)"/>
<path d="M31.5273 48.3867L31.6125 48.3032V48.3036L31.5273 48.3867" fill="url(#paint7_linear_3490:34240)"/>
<path d="M57.1777 35.1016C57.2654 34.9139 57.3095 34.721 57.3095 34.5281C57.3095 34.5278 57.3095 34.5273 57.3095 34.5273C57.3095 34.7206 57.2654 34.9134 57.1777 35.1016Z" fill="black"/>
<path d="M50.5396 39.2246L50.4336 39.1212L56.1148 35.9707C56.8363 35.5707 57.2414 35.0546 57.3091 34.529C57.3091 34.7219 57.265 34.9147 57.1774 35.1024C57.0007 35.4807 56.6464 35.8382 56.1148 36.1331L50.5396 39.2246Z" fill="url(#paint8_linear_3490:34240)"/>
<path d="M57.3091 34.5273V34.5269C57.3086 33.9452 56.9102 33.3636 56.1148 32.9223L50.5395 29.8308H50.5391L50.5395 29.8305L56.1148 32.9218C56.9112 33.3632 57.31 33.9457 57.3091 34.5273Z" fill="#404040"/>
<path d="M57.3096 34.5273C57.2419 34.0005 56.8368 33.4848 56.1153 33.0847L50.4336 29.9347L50.5396 29.8312H50.54L56.1153 32.9227C56.9107 33.3641 57.3091 33.9457 57.3096 34.5273Z" fill="url(#paint9_linear_3490:34240)"/>
<path d="M31 22.2266C31 22.2261 31 22.2257 31 22.2252C31 22.2257 31 22.2261 31 22.2266ZM31.0049 22.0459C31.0049 22.045 31.0049 22.0441 31.0049 22.0432C31.0049 22.0441 31.0049 22.045 31.0049 22.0459ZM31.0052 22.0406C31.0052 22.0389 31.0052 22.0372 31.0052 22.0354C31.0052 22.0372 31.0052 22.0389 31.0052 22.0406ZM31.0052 22.0341C31.0712 20.8917 31.7077 20.2318 32.6081 20.228C32.2177 20.2302 31.8777 20.3553 31.6115 20.5894V20.5889L31.6084 20.592C31.5803 20.6167 31.5537 20.6428 31.5273 20.6698C31.2282 20.9786 31.0395 21.4412 31.0052 22.0341Z" fill="#404040"/>
<path d="M31 22.3945V22.2321C31 22.2298 31 22.2281 31 22.226C31 22.2255 31 22.2251 31 22.2246C31 22.1633 31.0017 22.1034 31.0049 22.0453C31.0049 22.0444 31.0049 22.0435 31.0049 22.0426C31.0049 22.0418 31.0049 22.0409 31.0052 22.04C31.0052 22.0382 31.0052 22.0366 31.0052 22.0348C31.0052 22.0344 31.0052 22.0339 31.0052 22.0335C31.0395 21.4405 31.2282 20.978 31.5273 20.6691L31.6106 20.7508C31.2282 21.0875 31 21.649 31 22.3945V22.3945ZM31.6084 20.5914L31.6115 20.5883C31.6106 20.5896 31.6093 20.5905 31.6084 20.5914Z" fill="url(#paint10_linear_3490:34240)"/>
<path d="M50.4364 29.9336L33.8973 20.7626C33.4388 20.5089 33.0049 20.3886 32.6185 20.3886C32.2246 20.3886 31.8809 20.5137 31.6126 20.7496L31.5293 20.6679C31.5556 20.641 31.5823 20.6149 31.6103 20.5902C31.6112 20.5893 31.6126 20.5884 31.6135 20.5875C31.8797 20.3535 32.2197 20.2284 32.6101 20.2261C32.611 20.2261 32.6122 20.2261 32.6136 20.2261C32.6154 20.2261 32.6167 20.2261 32.6185 20.2261C33.0049 20.2261 33.4388 20.3464 33.8973 20.6002L50.5428 29.8298L50.5423 29.8302L50.4364 29.9336Z" fill="url(#paint11_linear_3490:34240)"/>
<path d="M73.9385 23.7467C73.9385 24.6941 73.658 25.4487 73.096 26.0115C72.4577 26.6808 71.6259 27.0156 70.6032 27.0156C69.6239 27.0156 68.7912 26.6764 68.1064 25.9969C67.4204 25.3179 67.0781 24.476 67.0781 23.4714C67.0781 22.4664 67.4204 21.6249 68.1064 20.9455C68.7912 20.2665 69.6239 19.9268 70.6032 19.9268C71.0891 19.9268 71.5544 20.0218 71.9961 20.2113C72.4378 20.4013 72.7921 20.6535 73.0572 20.9693L72.4608 21.5661C72.0116 21.0294 71.3931 20.7613 70.6032 20.7613C69.8889 20.7613 69.2714 21.0122 68.7501 21.5144C68.2288 22.0172 67.9682 22.6692 67.9682 23.4714C67.9682 24.2737 68.2288 24.9256 68.7501 25.4284C69.2714 25.9307 69.8889 26.1816 70.6032 26.1816C71.3609 26.1816 71.9926 25.9293 72.4983 25.424C72.8266 25.0948 73.0165 24.6373 73.0673 24.0497H70.6032V23.2346H73.8913C73.923 23.4118 73.9385 23.5819 73.9385 23.7467" fill="white"/>
<path d="M73.9383 23.7469H73.8252C73.8243 24.6727 73.5539 25.3919 73.0159 25.9317L73.0146 25.9327L73.0142 25.9336C72.3961 26.5797 71.6018 26.9014 70.603 26.9027C69.6498 26.9014 68.8519 26.5762 68.1857 25.9172C67.521 25.2567 67.1923 24.4505 67.191 23.4716C67.1923 22.4923 67.521 21.6865 68.1857 21.0265C68.8519 20.367 69.6498 20.0414 70.603 20.0401C71.0744 20.0401 71.5232 20.132 71.9513 20.3153C72.3797 20.5 72.7182 20.742 72.9704 21.0425L73.057 20.9695L72.9771 20.8896L72.3806 21.4868L72.4606 21.5663L72.5477 21.4939C72.0776 20.9306 71.4177 20.6467 70.603 20.6484C69.8623 20.6475 69.2107 20.9121 68.6717 21.4334C68.1275 21.9565 67.8541 22.6451 67.855 23.4716C67.8541 24.2982 68.1275 24.9868 68.6717 25.5098C69.2107 26.0312 69.8623 26.2958 70.603 26.2949C71.3858 26.2962 72.0529 26.0307 72.5781 25.5042C72.9289 25.1525 73.1277 24.6653 73.1798 24.0596L73.1904 23.9368H70.7161V23.3479H73.8911V23.2348L73.7797 23.2547C73.8107 23.4262 73.8252 23.5891 73.8252 23.7469H73.9383H74.0514C74.0514 23.575 74.0355 23.3983 74.0023 23.2146L73.9856 23.1217H70.4899V24.0498V24.1629H73.0671V24.0498L72.9545 24.0401C72.9046 24.6092 72.7234 25.0377 72.4182 25.3443C71.9323 25.8284 71.3359 26.0673 70.603 26.0687C69.9152 26.0678 69.3317 25.831 68.8285 25.3473C68.3303 24.8653 68.0824 24.25 68.0811 23.4716C68.0824 22.6932 68.3303 22.0779 68.8285 21.5959C69.3317 21.1123 69.9152 20.8755 70.603 20.8745C71.3677 20.8764 71.9451 21.129 72.3741 21.6392L72.4536 21.7338L73.137 21.0495L73.2103 20.9762L73.1435 20.8971C72.8657 20.5658 72.4955 20.3029 72.0405 20.1077C71.5846 19.9119 71.1035 19.8139 70.603 19.8139C69.5977 19.813 68.73 20.1664 68.0263 20.8657C67.3199 21.5637 66.9639 22.441 66.9648 23.4716C66.9639 24.5017 67.3199 25.3795 68.0267 26.078C68.73 26.7769 69.5977 27.1298 70.603 27.1289C71.65 27.1298 72.5185 26.7821 73.1776 26.0898L73.0958 26.0117L73.1758 26.0917C73.7616 25.5063 74.0522 24.7156 74.0514 23.7469H73.9383Z" fill="white"/>
<path d="M79.1506 20.9115H76.0606V23.0629H78.8472V23.8783H76.0606V26.0297H79.1506V26.8633H75.1895V20.078H79.1506V20.9115Z" fill="white"/>
<path d="M79.1504 20.9117V20.7987H75.9473V23.1762H78.7339V23.7651L75.9473 23.7654V26.143H79.0373V26.7504H75.3023V20.1913H79.0373V20.9117H79.1504V20.7987V20.9117H79.2635V20.0782V19.9651H75.0762V26.9766H79.2635V26.0299V25.9168H76.1735V23.9916H78.9601V23.0631V22.95H76.1735V21.0248H79.2635V20.9117H79.1504" fill="white"/>
<path d="M82.8262 26.8633H81.9537V20.9115H80.0586V20.078H84.7213V20.9115H82.8262V26.8633Z" fill="white"/>
<path d="M82.828 26.8635V26.7504H82.0686V20.7987H80.1734V20.1913H84.61V20.7987H82.7149V26.8635H82.828V26.7504V26.8635H82.9411V21.0248H84.8362V20.0782V19.9651H79.9473V20.9117V21.0248H81.8424V26.9766H82.828H82.9411V26.8635H82.828" fill="white"/>
<path d="M88.0957 26.8633V20.078H88.9673V26.8633H88.0957Z" fill="white"/>
<path d="M88.0936 26.8635H88.2066V20.1913H88.852V26.7504H88.0936V26.8635H88.2066H88.0936V26.9766H88.9651H89.0782V19.9651H88.0936H87.9805V26.9766H88.0936V26.8635Z" fill="white"/>
<path d="M92.8339 26.8633H91.9614V20.9115H90.0664V20.078H94.729V20.9115H92.8339V26.8633Z" fill="white"/>
<path d="M92.8337 26.8635V26.7504H92.0743V20.7987H90.1793V20.1913H94.6158V20.7987H92.7206V26.8635H92.8337V26.7504V26.8635H92.9468V21.0248H94.8419V20.0782V19.9651H89.9531V20.9117V21.0248H91.8482V26.9766H92.8337H92.9468V26.8635H92.8337" fill="white"/>
<path d="M99.2253 25.4192C99.7275 25.9276 100.342 26.1816 101.069 26.1816C101.795 26.1816 102.41 25.9276 102.912 25.4192C103.414 24.9107 103.666 24.2608 103.666 23.4714C103.666 22.6821 103.414 22.0322 102.912 21.5237C102.41 21.0153 101.795 20.7613 101.069 20.7613C100.342 20.7613 99.7275 21.0153 99.2253 21.5237C98.7239 22.0322 98.4721 22.6821 98.4721 23.4714C98.4721 24.2608 98.7239 24.9107 99.2253 25.4192ZM103.557 25.9872C102.89 26.6732 102.06 27.0156 101.069 27.0156C100.077 27.0156 99.2474 26.6732 98.5817 25.9872C97.9142 25.302 97.582 24.4632 97.582 23.4714C97.582 22.4796 97.9142 21.6408 98.5817 20.9557C99.2474 20.2696 100.077 19.9268 101.069 19.9268C102.055 19.9268 102.882 20.2714 103.552 20.9601C104.222 21.6488 104.556 22.4859 104.556 23.4714C104.556 24.4632 104.222 25.302 103.557 25.9872Z" fill="white"/>
<path d="M99.2251 25.4193L99.1447 25.4988C99.6656 26.0276 100.315 26.2962 101.069 26.2949C101.821 26.2962 102.472 26.0276 102.992 25.4988C103.516 24.9696 103.78 24.2848 103.779 23.4716C103.78 22.6584 103.516 21.9737 102.992 21.4444C102.472 20.9156 101.821 20.647 101.069 20.6484C100.315 20.647 99.6656 20.9156 99.1447 21.4444C98.6217 21.9737 98.3575 22.6584 98.3589 23.4716C98.3575 24.2848 98.6217 24.9696 99.1447 25.4988L99.2251 25.4193L99.3055 25.3398C98.8258 24.8516 98.5859 24.2376 98.585 23.4716C98.5859 22.7057 98.8258 22.0916 99.3055 21.6034C99.7897 21.1153 100.368 20.8759 101.069 20.8745C101.769 20.8759 102.348 21.1153 102.831 21.6034C103.312 22.0916 103.552 22.7057 103.553 23.4716C103.552 24.2376 103.312 24.8516 102.831 25.3398C102.348 25.8279 101.769 26.0673 101.069 26.0687C100.368 26.0673 99.7897 25.8279 99.3055 25.3398L99.2251 25.4193ZM103.557 25.9874L103.476 25.9088C102.827 26.5732 102.034 26.9014 101.069 26.9027C100.102 26.9014 99.3095 26.5732 98.6623 25.9088L98.6592 25.9053L98.6623 25.9088C98.0152 25.2421 97.6958 24.4382 97.6949 23.4716C97.6958 22.5051 98.0152 21.7011 98.6623 21.0345C99.3095 20.3701 100.102 20.0414 101.069 20.0401C102.028 20.0414 102.819 20.3714 103.471 21.0393C104.121 21.709 104.442 22.5117 104.443 23.4716C104.442 24.4382 104.122 25.2421 103.476 25.9088L103.557 25.9874L103.638 26.066C104.323 25.3619 104.67 24.4885 104.669 23.4716C104.67 22.4605 104.322 21.5889 103.633 20.8817C102.944 20.1717 102.081 19.8126 101.069 19.8139C100.051 19.8126 99.185 20.17 98.5002 20.8773V20.8768C97.8133 21.5813 97.4678 22.4547 97.4688 23.4716C97.4678 24.4885 97.8133 25.3619 98.5002 26.0664L98.5033 26.0696L98.5002 26.066C99.185 26.7732 100.051 27.1298 101.069 27.1289C102.086 27.1298 102.952 26.7732 103.638 26.066L103.557 25.9874" fill="white"/>
<path d="M105.779 26.8633V20.078H106.84L110.138 25.3565H110.176L110.138 24.0488V20.078H111.011V26.8633H110.101L106.65 21.329H106.613L106.65 22.6371V26.8633H105.779Z" fill="white"/>
<path d="M105.781 26.8635H105.894V20.1913H106.779L110.077 25.4698H110.177H110.294L110.253 24.0473V20.1913H110.899V26.7504H110.165L106.715 21.2161H106.615H106.498L106.539 22.6391V26.7504H105.781V26.8635H105.894H105.781V26.9766H106.652H106.765V22.6354L106.728 21.3261L106.615 21.3292V21.4422H106.652V21.3292L106.556 21.3893L110.04 26.9766H111.012H111.125V19.9651H110.14H110.027V24.0504L110.064 25.3597L110.177 25.3567V25.2436H110.14V25.3567L110.236 25.2966L106.905 19.9651H105.781H105.668V26.9766H105.781V26.8635Z" fill="white"/>
<defs>
<linearGradient id="paint0_linear_3490:34240" x1="44.4765" y1="21.9727" x2="25.8199" y2="41.09" gradientUnits="userSpaceOnUse">
<stop stop-color="#00A0FF"/>
<stop offset="0.00657445" stop-color="#00A1FF"/>
<stop offset="0.2601" stop-color="#00BEFF"/>
<stop offset="0.5122" stop-color="#00D2FF"/>
<stop offset="0.7604" stop-color="#00DFFF"/>
<stop offset="1" stop-color="#00E3FF"/>
</linearGradient>
<linearGradient id="paint1_linear_3490:34240" x1="58.1877" y1="34.529" x2="30.6162" y2="34.529" gradientUnits="userSpaceOnUse">
<stop stop-color="#FFE000"/>
<stop offset="0.4087" stop-color="#FFBD00"/>
<stop offset="0.7754" stop-color="#FFA500"/>
<stop offset="1" stop-color="#FF9C00"/>
</linearGradient>
<linearGradient id="paint2_linear_3490:34240" x1="47.9246" y1="37.0796" x2="22.6248" y2="63.0041" gradientUnits="userSpaceOnUse">
<stop stop-color="#FF3A44"/>
<stop offset="1" stop-color="#C31162"/>
</linearGradient>
<linearGradient id="paint3_linear_3490:34240" x1="27.9502" y1="12.4823" x2="39.2476" y2="24.0586" gradientUnits="userSpaceOnUse">
<stop stop-color="#32A071"/>
<stop offset="0.0685" stop-color="#2DA771"/>
<stop offset="0.4762" stop-color="#15CF74"/>
<stop offset="0.8009" stop-color="#06E775"/>
<stop offset="1" stop-color="#00F076"/>
</linearGradient>
<linearGradient id="paint4_linear_3490:34240" x1="58.2361" y1="34.4991" x2="30.4923" y2="34.4991" gradientUnits="userSpaceOnUse">
<stop stop-color="#CCB300"/>
<stop offset="0.4087" stop-color="#CC9700"/>
<stop offset="0.7754" stop-color="#CC8400"/>
<stop offset="1" stop-color="#CC7D00"/>
</linearGradient>
<linearGradient id="paint5_linear_3490:34240" x1="47.9278" y1="37.0796" x2="22.6281" y2="63.0041" gradientUnits="userSpaceOnUse">
<stop stop-color="#CC2E36"/>
<stop offset="1" stop-color="#9C0E4E"/>
</linearGradient>
<linearGradient id="paint6_linear_3490:34240" x1="44.4766" y1="21.9717" x2="25.8199" y2="41.0891" gradientUnits="userSpaceOnUse">
<stop stop-color="#008DE0"/>
<stop offset="0.00657445" stop-color="#008DE0"/>
<stop offset="0.2601" stop-color="#00A7E0"/>
<stop offset="0.5122" stop-color="#00B8E0"/>
<stop offset="0.7604" stop-color="#00C4E0"/>
<stop offset="1" stop-color="#00C7E0"/>
</linearGradient>
<linearGradient id="paint7_linear_3490:34240" x1="48.029" y1="37.0091" x2="22.571" y2="63.0966" gradientUnits="userSpaceOnUse">
<stop stop-color="#E0333C"/>
<stop offset="1" stop-color="#AB0F56"/>
</linearGradient>
<linearGradient id="paint8_linear_3490:34240" x1="58.1882" y1="34.528" x2="30.6167" y2="34.528" gradientUnits="userSpaceOnUse">
<stop stop-color="#E0C500"/>
<stop offset="0.4087" stop-color="#E0A600"/>
<stop offset="0.7754" stop-color="#E09100"/>
<stop offset="1" stop-color="#E08900"/>
</linearGradient>
<linearGradient id="paint9_linear_3490:34240" x1="58.1886" y1="34.5285" x2="30.6171" y2="34.5285" gradientUnits="userSpaceOnUse">
<stop stop-color="#FFE840"/>
<stop offset="0.4087" stop-color="#FFCE40"/>
<stop offset="0.7754" stop-color="#FFBC40"/>
<stop offset="1" stop-color="#FFB540"/>
</linearGradient>
<linearGradient id="paint10_linear_3490:34240" x1="44.4765" y1="21.9722" x2="25.8199" y2="41.0895" gradientUnits="userSpaceOnUse">
<stop stop-color="#40B8FF"/>
<stop offset="0.00657445" stop-color="#40B9FF"/>
<stop offset="0.2601" stop-color="#40CEFF"/>
<stop offset="0.5122" stop-color="#40DDFF"/>
<stop offset="0.7604" stop-color="#40E7FF"/>
<stop offset="1" stop-color="#40EAFF"/>
</linearGradient>
<linearGradient id="paint11_linear_3490:34240" x1="27.9534" y1="12.4817" x2="39.2508" y2="24.058" gradientUnits="userSpaceOnUse">
<stop stop-color="#65B895"/>
<stop offset="0.0685" stop-color="#62BD95"/>
<stop offset="0.4762" stop-color="#50DB97"/>
<stop offset="0.8009" stop-color="#44ED98"/>
<stop offset="1" stop-color="#40F498"/>
</linearGradient>
</defs>
</svg>
