<svg width="193" height="70" viewBox="0 0 193 70" fill="none" xmlns="http://www.w3.org/2000/svg">
<path d="M141.941 45.6667H144.069V31.7523H141.941V45.6667ZM161.11 36.7645L158.67 42.7971H158.597L156.065 36.7645H153.773L157.57 45.1962L155.405 49.8862H157.626L163.477 36.7645H161.11ZM149.041 44.0862C148.343 44.0862 147.371 43.7462 147.371 42.9045C147.371 41.8306 148.582 41.4188 149.627 41.4188C150.564 41.4188 151.003 41.6157 151.572 41.8845C151.406 43.1732 150.269 44.0862 149.041 44.0862ZM149.298 36.4601C147.757 36.4601 146.161 37.1227 145.501 38.5906L147.389 39.3602C147.793 38.5906 148.545 38.3397 149.334 38.3397C150.435 38.3397 151.554 38.9845 151.572 40.1302V40.2732C151.186 40.0584 150.362 39.7362 149.352 39.7362C147.316 39.7362 145.243 40.8279 145.243 42.8688C145.243 44.7306 146.913 45.9301 148.783 45.9301C150.215 45.9301 151.003 45.3036 151.499 44.5698H151.572V45.6436H153.626V40.3088C153.626 37.8388 151.737 36.4601 149.298 36.4601ZM136.145 38.4584H133.118V33.6889H136.145C137.736 33.6889 138.639 34.9744 138.639 36.0736C138.639 37.1519 137.736 38.4584 136.145 38.4584ZM136.09 31.7523H130.991V45.6667H133.118V40.3949H136.09C138.449 40.3949 140.768 38.7284 140.768 36.0736C140.768 33.4188 138.449 31.7523 136.09 31.7523ZM108.283 44.0888C106.813 44.0888 105.582 42.8875 105.582 41.2375C105.582 39.5702 106.813 38.3506 108.283 38.3506C109.735 38.3506 110.874 39.5702 110.874 41.2375C110.874 42.8875 109.735 44.0888 108.283 44.0888ZM110.727 37.5437H110.653C110.176 36.9879 109.257 36.4858 108.099 36.4858C105.674 36.4858 103.451 38.5658 103.451 41.2375C103.451 43.8915 105.674 45.9536 108.099 45.9536C109.257 45.9536 110.176 45.4514 110.653 44.878H110.727V45.5592C110.727 47.3706 109.735 48.3389 108.136 48.3389C106.832 48.3389 106.023 47.424 105.692 46.6531L103.836 47.4062C104.369 48.6614 105.784 50.2036 108.136 50.2036C110.635 50.2036 112.748 48.7688 112.748 45.2723V36.7728H110.727V37.5437ZM114.218 45.6667H116.349V31.7518H114.218V45.6667ZM119.491 41.0762C119.436 39.2471 120.943 38.3149 122.027 38.3149C122.873 38.3149 123.589 38.7271 123.827 39.3193L119.491 41.0762ZM126.106 39.4984C125.702 38.4401 124.471 36.4858 121.953 36.4858C119.454 36.4858 117.378 38.4045 117.378 41.2197C117.378 43.8737 119.436 45.9536 122.192 45.9536C124.416 45.9536 125.702 44.6266 126.235 43.8557L124.581 42.7796C124.03 43.5688 123.276 44.0888 122.192 44.0888C121.108 44.0888 120.337 43.6045 119.84 42.6544L126.326 40.0362L126.106 39.4984ZM74.4309 37.9384V39.9466H79.3551C79.2081 41.0762 78.8223 41.901 78.2342 42.4749C77.5179 43.1744 76.397 43.9453 74.4309 43.9453C71.3991 43.9453 69.0289 41.5605 69.0289 38.6018C69.0289 35.6431 71.3991 33.258 74.4309 33.258C76.0663 33.258 77.2603 33.8858 78.1424 34.6927L79.594 33.2763C78.363 32.1284 76.7275 31.2497 74.4309 31.2497C70.2781 31.2497 66.7871 34.5492 66.7871 38.6018C66.7871 42.6544 70.2781 45.9536 74.4309 45.9536C76.6727 45.9536 78.363 45.2367 79.6858 43.8915C81.0455 42.5645 81.4683 40.6997 81.4683 39.1936C81.4683 38.7271 81.4317 38.2971 81.3578 37.9384H74.4309ZM87.0667 44.0888C85.5964 44.0888 84.3285 42.9053 84.3285 41.2197C84.3285 39.5162 85.5964 38.3506 87.0667 38.3506C88.5364 38.3506 89.8043 39.5162 89.8043 41.2197C89.8043 42.9053 88.5364 44.0888 87.0667 44.0888ZM87.0667 36.4858C84.3837 36.4858 82.1971 38.4762 82.1971 41.2197C82.1971 43.9453 84.3837 45.9536 87.0667 45.9536C89.7491 45.9536 91.9357 43.9453 91.9357 41.2197C91.9357 38.4762 89.7491 36.4858 87.0667 36.4858ZM97.6886 44.0888C96.219 44.0888 94.9509 42.9053 94.9509 41.2197C94.9509 39.5162 96.219 38.3506 97.6886 38.3506C99.1584 38.3506 100.426 39.5162 100.426 41.2197C100.426 42.9053 99.1584 44.0888 97.6886 44.0888ZM97.6886 36.4858C95.0058 36.4858 92.8196 38.4762 92.8196 41.2197C92.8196 43.9453 95.0058 45.9536 97.6886 45.9536C100.371 45.9536 102.558 43.9453 102.558 41.2197C102.558 38.4762 100.371 36.4858 97.6886 36.4858Z" fill="white"/>
<path d="M31.9651 48.3263L31.8804 48.2472C31.5485 47.9045 31.3525 47.3723 31.3525 46.6832V46.8454V22.2294C31.3525 22.2271 31.3525 22.2255 31.3525 22.2237C31.3525 22.2258 31.3525 22.2276 31.3525 22.2298V22.3924C31.3525 21.6462 31.581 21.0841 31.9637 20.7471L46.0946 34.5372L31.9651 48.3263ZM31.3525 22.2223C31.3525 22.161 31.3542 22.1015 31.3574 22.0428C31.3542 22.101 31.3525 22.161 31.3525 22.2223ZM31.3574 22.0401C31.3574 22.0394 31.3574 22.0385 31.3578 22.0376C31.3574 22.0385 31.3574 22.0394 31.3574 22.0401ZM31.3578 22.0323C31.3578 22.0319 31.3578 22.0315 31.3578 22.031C31.3578 22.0315 31.3578 22.0319 31.3578 22.0323Z" fill="url(#paint0_linear)"/>
<path d="M50.8043 39.2983L50.9117 39.2388L56.4922 36.1444C57.0243 35.8492 57.3789 35.4914 57.5558 35.1127C57.3793 35.4914 57.0246 35.8497 56.4922 36.1449L50.9117 39.2392L50.8043 39.2983ZM50.8057 39.1353L46.0947 34.5371L50.8052 29.9396L56.4922 33.0927C57.2144 33.4932 57.6199 34.0093 57.6876 34.5366C57.6876 34.5371 57.6876 34.538 57.6876 34.5387C57.6199 35.0649 57.2144 35.5814 56.4922 35.9818L50.8057 39.1353Z" fill="url(#paint1_linear)"/>
<path d="M32.9726 48.8514C32.5778 48.8514 32.2334 48.7262 31.9648 48.4897L31.9653 48.4892C32.2338 48.7257 32.5787 48.8514 32.9735 48.8514C33.0077 48.8514 33.0425 48.8505 33.0777 48.8488C33.042 48.8505 33.0068 48.8514 32.9726 48.8514ZM32.973 48.6883C32.5783 48.6888 32.2338 48.5631 31.9653 48.3266V48.3263L46.0948 34.5371L50.8057 39.1353L34.2508 48.3149C33.7927 48.5684 33.3587 48.6883 32.973 48.6883ZM31.9613 48.4867C31.9363 48.4645 31.9118 48.441 31.8877 48.4167L31.9613 48.4867Z" fill="url(#paint2_linear)"/>
<path d="M46.0948 34.5371L31.9639 20.7471C32.2325 20.511 32.5764 20.3858 32.9707 20.3858C33.3575 20.3858 33.7918 20.5062 34.2507 20.7601L50.8052 29.9397L46.0948 34.5371ZM50.9118 29.8359L34.2507 20.5976C33.7918 20.3436 33.3575 20.2232 32.9707 20.2232C32.9689 20.2232 32.9676 20.2232 32.9658 20.2232C32.9681 20.2232 32.9698 20.2232 32.9725 20.2232C33.3584 20.2232 33.7922 20.3432 34.2507 20.5972L50.9118 29.8359Z" fill="url(#paint3_linear)"/>
<path d="M33.0781 48.8488C33.4367 48.8288 33.8337 48.7084 34.2511 48.4775L50.8047 39.2984L34.2511 48.4775C33.834 48.7088 33.4367 48.8288 33.0781 48.8488ZM31.9651 48.4897L31.9616 48.4867C31.9629 48.4876 31.9642 48.4888 31.9651 48.4897ZM31.888 48.4167L31.8809 48.4098V48.4093C31.8836 48.4119 31.8858 48.4144 31.888 48.4167Z" fill="black"/>
<path d="M50.8047 39.2983L50.9121 39.2388L50.8047 39.2983Z" fill="url(#paint4_linear)"/>
<path d="M32.9738 48.8514C32.5791 48.8514 32.2342 48.7257 31.9656 48.4892L31.9651 48.4897C31.9642 48.4888 31.9629 48.4876 31.9616 48.4867L31.888 48.4167C31.8858 48.4144 31.8836 48.4119 31.8809 48.4093L31.9656 48.3266C32.2342 48.5631 32.5786 48.6888 32.9734 48.6883C33.3591 48.6883 33.7931 48.5684 34.2511 48.3149L50.8061 39.1353L50.9121 39.2388L50.8047 39.2984L34.2511 48.4775C33.8337 48.7084 33.4367 48.8288 33.0781 48.8488C33.0428 48.8505 33.008 48.8514 32.9738 48.8514Z" fill="url(#paint5_linear)"/>
<path d="M31.8804 48.4097C31.5485 48.067 31.3525 47.5349 31.3525 46.8458V46.8453C31.3525 47.5349 31.5485 48.0666 31.8804 48.4093V48.4097Z" fill="black"/>
<path d="M31.8804 48.4093C31.5485 48.0666 31.3525 47.5349 31.3525 46.8453V46.6832C31.3525 47.3722 31.5485 47.9044 31.8804 48.2471L31.9651 48.3262L31.8804 48.4093Z" fill="url(#paint6_linear)"/>
<path d="M31.8809 48.4093L31.9656 48.3262V48.3266L31.8809 48.4093Z" fill="url(#paint7_linear)"/>
<path d="M57.5557 35.1128C57.6434 34.9249 57.6875 34.7319 57.6875 34.5388C57.6875 34.5385 57.6875 34.538 57.6875 34.538C57.6875 34.7315 57.6434 34.9245 57.5557 35.1128Z" fill="black"/>
<path d="M50.9117 39.2389L50.8057 39.1353L56.4922 35.9819C57.2144 35.5815 57.6199 35.065 57.6876 34.5388C57.6876 34.7319 57.6435 34.9249 57.5558 35.1128C57.3789 35.4915 57.0243 35.8493 56.4922 36.1445L50.9117 39.2389Z" fill="url(#paint8_linear)"/>
<path d="M57.6884 34.5371V34.5367C57.688 33.9545 57.2892 33.3723 56.493 32.9306L50.9126 29.8362H50.9121L50.9126 29.8359L56.493 32.9301C57.2902 33.3719 57.6893 33.9549 57.6884 34.5371Z" fill="#404040"/>
<path d="M57.6881 34.5367C57.6203 34.0093 57.2148 33.4932 56.4927 33.0927L50.8057 29.9397L50.9117 29.8362H50.9122L56.4927 32.9306C57.2889 33.3723 57.6876 33.9544 57.6881 34.5367Z" fill="url(#paint9_linear)"/>
<path d="M31.3525 22.2236C31.3525 22.2232 31.3525 22.2227 31.3525 22.2223C31.3525 22.2227 31.3525 22.2232 31.3525 22.2236ZM31.3574 22.0428C31.3574 22.0419 31.3574 22.041 31.3574 22.0401C31.3574 22.041 31.3574 22.0419 31.3574 22.0428ZM31.3578 22.0375C31.3578 22.0358 31.3578 22.0341 31.3578 22.0323C31.3578 22.0341 31.3578 22.0358 31.3578 22.0375ZM31.3578 22.031C31.4238 20.8875 32.0609 20.2271 32.9622 20.2232C32.5714 20.2254 32.2311 20.3506 31.9647 20.5849V20.5845L31.9615 20.5876C31.9334 20.6123 31.9067 20.6384 31.8804 20.6654C31.581 20.9745 31.3921 21.4375 31.3578 22.031Z" fill="#404040"/>
<path d="M31.3525 22.3924V22.2297C31.3525 22.2275 31.3525 22.2257 31.3525 22.2236C31.3525 22.2232 31.3525 22.2227 31.3525 22.2223C31.3525 22.161 31.3542 22.101 31.3574 22.0428C31.3574 22.0419 31.3574 22.041 31.3574 22.0401C31.3574 22.0393 31.3574 22.0384 31.3578 22.0375C31.3578 22.0357 31.3578 22.0341 31.3578 22.0323C31.3578 22.0319 31.3578 22.0314 31.3578 22.031C31.3921 21.4375 31.581 20.9745 31.8804 20.6654L31.9637 20.7471C31.581 21.0841 31.3525 21.6462 31.3525 22.3924ZM31.9615 20.5876L31.9647 20.5845C31.9637 20.5858 31.9624 20.5867 31.9615 20.5876Z" fill="url(#paint10_linear)"/>
<path d="M50.8056 29.9396L34.2511 20.76C33.7922 20.5061 33.3578 20.3857 32.9711 20.3857C32.5768 20.3857 32.2328 20.5109 31.9642 20.747L31.8809 20.6653C31.9072 20.6384 31.9339 20.6122 31.962 20.5875C31.9629 20.5866 31.9642 20.5857 31.9651 20.5848C32.2316 20.3505 32.5719 20.2253 32.9626 20.2231C32.9636 20.2231 32.9648 20.2231 32.9662 20.2231C32.968 20.2231 32.9693 20.2231 32.9711 20.2231C33.3578 20.2231 33.7922 20.3435 34.2511 20.5975L50.9121 29.8358L50.9117 29.8361L50.8056 29.9396Z" fill="url(#paint11_linear)"/>
<path d="M69.5877 23.3689C69.6011 24.4254 69.3841 25.2775 68.9385 25.9245H72.398V20.8871H69.5877V23.3689ZM68.0106 28.1623H67.1699V25.9245H67.8391C68.4316 25.4262 68.7212 24.575 68.7092 23.3689V20.0667H73.2779V25.9245H74.042V28.1623H73.2009V26.7449H68.0106V28.1623Z" fill="white"/>
<path d="M69.5875 23.3689L69.4735 23.3702L69.4744 23.4602C69.4739 24.4598 69.2601 25.2581 68.8434 25.8623L68.7241 26.0358H72.5118V20.7758H69.4735V23.3698V23.3702L69.5875 23.3689H69.7016V20.9984H72.2837V25.8132H68.9383V25.9245L69.0329 25.9863C69.4814 25.335 69.7025 24.4897 69.7025 23.4602L69.7016 23.3675L69.5875 23.3689H69.7016H69.5875ZM68.0104 28.1623V28.051H67.2838V26.0358H67.8389H67.8812L67.9132 26.0089C68.5298 25.4898 68.8235 24.625 68.8235 23.4419L68.823 23.368V23.3689V20.178H73.1636V26.0358H73.9278V28.051H73.3148V26.745V26.6337H67.8963V28.1623H68.0104V28.051V28.1623H68.1245V26.8563H73.0867V28.1623V28.2736H74.0418H74.1559V25.8132H73.3917V19.9554H68.5949V23.3693V23.3698L68.5954 23.4419C68.5949 24.5937 68.3089 25.3837 67.7644 25.8397L67.8389 25.9245V25.8132H67.1697H67.0557V28.2736H68.0104H68.1245V28.1623H68.0104Z" fill="white"/>
<path d="M76.5313 25.3227C77.0383 25.8232 77.6576 26.0731 78.3905 26.0731C79.1233 26.0731 79.7435 25.8232 80.2491 25.3227C80.7562 24.8223 81.01 24.1826 81.01 23.4057C81.01 22.6288 80.7562 21.9892 80.2491 21.4887C79.7435 20.9883 79.1233 20.7383 78.3905 20.7383C77.6576 20.7383 77.0383 20.9883 76.5313 21.4887C76.0256 21.9892 75.7717 22.6288 75.7717 23.4057C75.7717 24.1826 76.0256 24.8223 76.5313 25.3227ZM80.8996 25.8818C80.2269 26.557 79.3906 26.894 78.3905 26.894C77.3903 26.894 76.5536 26.557 75.8821 25.8818C75.2095 25.2074 74.874 24.3819 74.874 23.4057C74.874 22.4296 75.2095 21.6039 75.8821 20.9297C76.5536 20.2544 77.3903 19.917 78.3905 19.917C79.3848 19.917 80.2193 20.2562 80.8951 20.934C81.57 21.6118 81.9078 22.4357 81.9078 23.4057C81.9078 24.3819 81.5714 25.2074 80.8996 25.8818Z" fill="white"/>
<path d="M76.5311 25.3228L76.45 25.401C76.9752 25.9215 77.6306 26.1858 78.3903 26.1845C79.1494 26.1858 79.8061 25.9215 80.33 25.401C80.8588 24.8801 81.1248 24.2061 81.1239 23.4058C81.1248 22.6054 80.8588 21.9314 80.33 21.4105C79.8061 20.8901 79.1494 20.6257 78.3903 20.627C77.6306 20.6257 76.9752 20.8901 76.45 21.4105C75.9225 21.9314 75.6566 22.6054 75.6575 23.4058C75.6566 24.2061 75.9225 24.8801 76.45 25.401L76.5311 25.3228L76.6127 25.2445C76.1287 24.764 75.8868 24.1596 75.8856 23.4058C75.8868 22.6519 76.1287 22.0475 76.6127 21.567H76.6122C77.1005 21.0866 77.6836 20.851 78.3903 20.8497C79.0964 20.851 79.6809 21.0866 80.1678 21.567L80.1696 21.5688L80.1678 21.567C80.653 22.0475 80.8945 22.6519 80.8958 23.4058C80.8945 24.1596 80.653 24.764 80.1678 25.2445C79.6809 25.7249 79.0964 25.9605 78.3903 25.9619C77.6836 25.9605 77.1005 25.7249 76.6122 25.2445L76.5311 25.3228ZM80.8995 25.8818L80.8179 25.8045C80.1643 26.4584 79.3642 26.7814 78.3903 26.7827C77.4159 26.7814 76.6162 26.4584 75.9635 25.8045C75.3112 25.1483 74.9891 24.3571 74.9879 23.4058C74.9891 22.4544 75.3112 21.6632 75.9635 21.007C76.6162 20.3531 77.4159 20.0297 78.3903 20.0283C79.3584 20.0297 80.1563 20.3545 80.8135 21.0118C81.4683 21.671 81.7923 22.461 81.7935 23.4058C81.7923 24.3571 81.4693 25.1483 80.8179 25.8045L80.8995 25.8818L80.9813 25.9592C81.6728 25.2662 82.0225 24.4066 82.0216 23.4058C82.0225 22.4106 81.6719 21.5528 80.9769 20.8567C80.2819 20.1579 79.4114 19.8045 78.3903 19.8057C77.3638 19.8045 76.4905 20.1562 75.8 20.8523V20.8519C75.1072 21.5453 74.7589 22.4049 74.7598 23.4058C74.7589 24.4066 75.1072 25.2662 75.8 25.9596V25.9592C76.4905 26.6553 77.3638 27.0062 78.3903 27.0053C79.4163 27.0062 80.2895 26.6553 80.9813 25.9592L80.8995 25.8818Z" fill="white"/>
<path d="M86.3336 26.894C85.3267 26.894 84.4825 26.5614 83.8008 25.8957C83.1179 25.2306 82.7783 24.4005 82.7783 23.4057C82.7783 22.4109 83.1179 21.5809 83.8008 20.9157C84.4825 20.25 85.3267 19.917 86.3336 19.917C87.365 19.917 88.2035 20.281 88.8472 21.0083L88.2346 21.587C87.7704 21.0209 87.1355 20.7383 86.3336 20.7383C85.5873 20.7383 84.9578 20.984 84.4454 21.4753C83.9322 21.9666 83.676 22.6101 83.676 23.4057C83.676 24.2013 83.9322 24.8453 84.4454 25.3362C84.9578 25.8275 85.5873 26.0731 86.3336 26.0731C87.1556 26.0731 87.8559 25.75 88.4364 25.1036L89.0477 25.7001C88.735 26.067 88.3437 26.3579 87.8715 26.5718C87.4005 26.7866 86.887 26.894 86.3336 26.894Z" fill="white"/>
<path d="M86.3334 26.894V26.7827C85.352 26.7814 84.5433 26.4618 83.8812 25.8171C83.2196 25.1714 82.8931 24.3758 82.8922 23.4058C82.8931 22.4357 83.2196 21.6401 83.8812 20.9945C84.5433 20.3492 85.352 20.0297 86.3334 20.0283C87.3376 20.0301 88.136 20.3771 88.7605 21.081L88.847 21.0084L88.7677 20.9284L88.1551 21.5075L88.2344 21.5871L88.3235 21.5175C87.8397 20.9253 87.1621 20.6254 86.3334 20.6271C85.5612 20.6262 84.897 20.8849 84.3655 21.3957C83.8287 21.9084 83.5604 22.5875 83.5618 23.4058C83.5604 24.2241 83.8287 24.904 84.3655 25.4158C84.897 25.9266 85.5612 26.1854 86.3334 26.1845C87.1865 26.1858 87.9257 25.844 88.5217 25.1771L88.4362 25.1036L88.3555 25.1823L88.9668 25.7788L89.0475 25.7001L88.9597 25.6293C88.6576 25.9831 88.2816 26.2632 87.8231 26.471C87.3674 26.6788 86.872 26.7823 86.3334 26.7827V26.894V27.0053C86.9018 27.0053 87.4329 26.8949 87.9194 26.6728C88.4059 26.4527 88.8114 26.1514 89.1352 25.7714L89.2016 25.6936L88.5169 25.0249L88.4305 24.9405L88.3503 25.0301C87.7862 25.6567 87.1242 25.9605 86.3334 25.9619C85.6126 25.9605 85.0187 25.7283 84.5254 25.2566H84.5251C84.035 24.787 83.7908 24.1788 83.7899 23.4058C83.7908 22.6328 84.035 22.0254 84.5251 21.5549H84.5254C85.0187 21.0832 85.6126 20.851 86.3334 20.8497C87.1081 20.8514 87.7002 21.1167 88.1453 21.6566L88.2237 21.7523L88.9262 21.0884L89.0038 21.0153L88.9334 20.9358C88.2709 20.1845 87.3919 19.8045 86.3334 19.8057C85.3006 19.8048 84.4207 20.1514 83.72 20.8371C83.0156 21.5214 82.6627 22.3867 82.6641 23.4058C82.6627 24.4249 83.0156 25.2901 83.72 25.9749C84.4207 26.6601 85.3006 27.0062 86.3334 27.0053V26.894Z" fill="white"/>
<path d="M92.6036 26.7449H91.7238V20.8871H89.8125V20.0667H94.5149V20.8871H92.6036V26.7449Z" fill="white"/>
<path d="M92.6044 26.7449V26.6336H91.8386V20.7758H89.9273V20.178H94.4016V20.7758H92.4903V26.7449H92.6044V26.6336V26.7449H92.7184V20.9984H94.6297V20.0667V19.9554H89.6992V20.8871V20.9984H91.6105V26.8562H92.6044H92.7184V26.7449H92.6044Z" fill="white"/>
<path d="M100.553 20.0666L97.964 25.7001C97.6063 26.4962 97.0757 26.894 96.3682 26.894C96.1579 26.894 95.9315 26.8445 95.6888 26.7449L95.9182 25.9518C96.0652 26.0331 96.218 26.0731 96.3771 26.0731C96.5812 26.0731 96.7392 26.0344 96.8507 25.9571C96.9621 25.8793 97.0654 25.737 97.1612 25.5322L97.4097 25.0001L95.1064 20.0666H96.1387L97.8304 23.9H97.8682L99.5206 20.0666H100.553Z" fill="white"/>
<path d="M100.553 20.0666L100.449 20.021L97.8594 25.6549L97.859 25.6558C97.507 26.4275 97.0263 26.7788 96.3678 26.7827C96.1758 26.7827 95.9645 26.7376 95.7324 26.6423L95.6884 26.7449L95.7984 26.7753L96.0274 25.9822L95.9178 25.9519L95.8621 26.0488C96.0243 26.1384 96.1976 26.1849 96.3767 26.1845C96.5946 26.1845 96.7772 26.1441 96.9166 26.0475C97.0539 25.9505 97.1639 25.7927 97.2646 25.5788L97.5133 25.0466L97.5346 25.0001L95.2834 20.1779H96.0635L97.7547 24.0114H97.8679H97.9436L99.596 20.1779H100.553V20.0666L100.449 20.021L100.553 20.0666V19.9553H99.5202H99.4445L97.7622 23.8571L97.8679 23.9001V23.7888H97.83V23.9001L97.9347 23.8562L96.2136 19.9553H95.1061H94.9287L97.2838 25.0001L97.057 25.4862C96.9666 25.6814 96.8694 25.8075 96.7839 25.8662C96.7006 25.9249 96.5665 25.9623 96.3767 25.9619C96.2372 25.9619 96.1058 25.9275 95.9739 25.8549L95.8474 25.7853L95.5788 26.7145L95.5511 26.8092L95.6443 26.8475C95.8977 26.9514 96.1388 27.0054 96.3678 27.0054C97.1238 27.0088 97.7048 26.5645 98.0679 25.7449L98.0674 25.7457L100.729 19.9553H100.553V20.0666Z" fill="white"/>
<path d="M101.549 26.7449V20.0667H106.5V26.7449H105.62V20.8871H102.427V26.7449H101.549Z" fill="white"/>
<path d="M101.549 26.7449H101.663V20.178H106.385V26.6336H105.734V20.7758H102.313V26.6336H101.549V26.7449H101.663H101.549V26.8562H102.427H102.541V20.9984H105.506V26.8562H106.5H106.614V19.9554H101.435V26.8562H101.549V26.7449Z" fill="white"/>
<path d="M108.066 26.7449V20.0667H108.945V22.9298H112.367V20.0667H113.247V26.7449H112.367V23.7319H108.945V26.7449H108.066Z" fill="white"/>
<path d="M108.066 26.7449H108.18V20.178H108.831V23.0411H112.481V20.178H113.133V26.6336H112.481V23.6206H108.831V26.6336H108.066V26.7449H108.18H108.066V26.8562H108.945H109.059V23.8432H112.253V26.8562H113.247H113.361V19.9554H112.367H112.253V22.8184H109.059V19.9554H108.066H107.952V26.8562H108.066V26.7449Z" fill="white"/>
<path d="M116.042 25.3227C116.549 25.8232 117.168 26.0731 117.901 26.0731C118.634 26.0731 119.254 25.8232 119.76 25.3227C120.267 24.8223 120.521 24.1826 120.521 23.4057C120.521 22.6288 120.267 21.9892 119.76 21.4887C119.254 20.9883 118.634 20.7383 117.901 20.7383C117.168 20.7383 116.549 20.9883 116.042 21.4887C115.537 21.9892 115.282 22.6288 115.282 23.4057C115.282 24.1826 115.537 24.8223 116.042 25.3227ZM120.41 25.8818C119.738 26.557 118.901 26.894 117.901 26.894C116.901 26.894 116.065 26.557 115.393 25.8818C114.72 25.2074 114.385 24.3819 114.385 23.4057C114.385 22.4296 114.72 21.6039 115.393 20.9297C116.065 20.2544 116.901 19.917 117.901 19.917C118.896 19.917 119.73 20.2562 120.406 20.934C121.081 21.6118 121.419 22.4357 121.419 23.4057C121.419 24.3819 121.082 25.2074 120.41 25.8818Z" fill="white"/>
<path d="M116.042 25.3228L115.961 25.401C116.487 25.9215 117.141 26.1858 117.901 26.1845C118.661 26.1858 119.317 25.9215 119.841 25.401C120.37 24.8801 120.636 24.2061 120.635 23.4058C120.636 22.6054 120.37 21.9314 119.841 21.4105C119.317 20.8901 118.661 20.6257 117.901 20.627C117.141 20.6257 116.487 20.8901 115.961 21.4105C115.433 21.9314 115.167 22.6054 115.168 23.4058C115.167 24.2061 115.433 24.8801 115.961 25.401L116.042 25.3228L116.123 25.2445C115.64 24.764 115.398 24.1596 115.396 23.4058C115.398 22.6519 115.64 22.0475 116.123 21.567C116.611 21.0866 117.195 20.851 117.901 20.8497C118.607 20.851 119.192 21.0866 119.679 21.567L119.682 21.5706L119.679 21.567C120.164 22.0475 120.406 22.6519 120.407 23.4058C120.406 24.1596 120.164 24.764 119.679 25.2445C119.192 25.7249 118.607 25.9605 117.901 25.9619C117.195 25.9605 116.611 25.7249 116.123 25.2445L116.042 25.3228ZM120.41 25.8818L120.329 25.8045C119.675 26.4584 118.875 26.7814 117.901 26.7827C116.927 26.7814 116.127 26.4584 115.475 25.8045L115.471 25.801L115.475 25.8045C114.822 25.1483 114.5 24.3571 114.499 23.4058C114.5 22.4544 114.822 21.6632 115.475 21.007C116.127 20.3531 116.927 20.0297 117.901 20.0283C118.869 20.0297 119.667 20.3545 120.324 21.0118C120.979 21.671 121.303 22.461 121.304 23.4058C121.303 24.3571 120.98 25.1483 120.329 25.8045L120.41 25.8818L120.492 25.9592C121.184 25.2662 121.533 24.4066 121.532 23.4058C121.533 22.4106 121.183 21.5528 120.488 20.8567C119.793 20.1579 118.922 19.8045 117.901 19.8057C116.875 19.8045 116.002 20.1562 115.311 20.8523V20.8519C114.618 21.5453 114.27 22.4049 114.271 23.4058C114.27 24.4066 114.618 25.2662 115.311 25.9596V25.9592C116.002 26.6553 116.875 27.0062 117.901 27.0053C118.927 27.0062 119.8 26.6553 120.492 25.9592L120.41 25.8818Z" fill="white"/>
<path d="M125.892 25.9245H127.661C127.998 25.9245 128.272 25.8093 128.483 25.5785C128.693 25.3493 128.798 25.0971 128.798 24.8232C128.798 24.5497 128.69 24.2997 128.473 24.0727C128.257 23.8458 127.972 23.7319 127.622 23.7319H125.892V25.9245ZM125.892 22.9298H127.489C127.821 22.9298 128.086 22.8232 128.287 22.608C128.488 22.3936 128.588 22.1593 128.588 21.9041C128.588 21.6493 128.491 21.4153 128.296 21.205C128.102 20.9932 127.846 20.8871 127.527 20.8871H125.892V22.9298ZM125.014 26.7449V20.0667H127.489C128.024 20.0667 128.488 20.2398 128.879 20.584C129.271 20.9297 129.467 21.3631 129.467 21.8854C129.467 22.2023 129.383 22.4823 129.213 22.725C129.045 22.9675 128.821 23.151 128.54 23.2754V23.3123C128.877 23.4241 129.155 23.6171 129.372 23.8905C129.587 24.1645 129.697 24.4819 129.697 24.8423C129.697 25.3892 129.491 25.8431 129.08 26.2037C128.669 26.5645 128.183 26.7449 127.622 26.7449H125.014Z" fill="white"/>
<path d="M125.893 25.9245V26.0358H127.662C128.025 26.0371 128.339 25.9067 128.568 25.6527C128.794 25.4079 128.914 25.1253 128.913 24.8231C128.914 24.5206 128.79 24.2392 128.557 23.9967C128.321 23.7466 127.998 23.6193 127.623 23.6206H125.779V26.0358H125.893V25.9245H126.007V23.8432H127.623C127.949 23.8444 128.194 23.9454 128.39 24.1484C128.591 24.3606 128.684 24.5793 128.685 24.8231C128.684 25.0688 128.593 25.2906 128.398 25.5044C128.208 25.7115 127.973 25.8114 127.662 25.8132H125.893V25.9245H126.007H125.893ZM125.893 22.9297V23.0411H127.489C127.845 23.0423 128.151 22.9223 128.372 22.6828V22.6832C128.588 22.4536 128.703 22.1883 128.703 21.9041C128.703 21.6215 128.592 21.3571 128.381 21.1302V21.1306C128.168 20.8949 127.871 20.7745 127.528 20.7758H125.779V23.0411H125.893V22.9297H126.007V20.9984H127.528C127.821 21.0002 128.038 21.0914 128.211 21.2789L128.212 21.2797L128.211 21.2793C128.39 21.4741 128.474 21.6776 128.475 21.9041C128.474 22.1297 128.388 22.334 128.203 22.5327V22.5332C128.023 22.7241 127.796 22.8171 127.489 22.8184H125.893V22.9297H126.007H125.893ZM125.014 26.7449H125.128V20.178H127.489C127.999 20.1789 128.43 20.3397 128.803 20.6667C129.174 20.9945 129.353 21.3906 129.354 21.8854C129.354 22.1832 129.275 22.4385 129.12 22.6623C128.963 22.8885 128.756 23.0571 128.493 23.1741L128.427 23.2037V23.3123V23.3919L128.503 23.4175C128.822 23.5237 129.078 23.7019 129.282 23.9589L129.283 23.9601L129.282 23.9584C129.483 24.2141 129.583 24.5036 129.583 24.8423C129.582 25.3623 129.393 25.7784 129.004 26.1211C128.612 26.4641 128.159 26.6327 127.623 26.6336H125.014V26.7449H125.128H125.014V26.8562H127.623C128.209 26.8571 128.727 26.6649 129.157 26.2862C129.59 25.9084 129.813 25.4166 129.811 24.8423C129.813 24.4602 129.694 24.1149 129.462 23.8227L129.461 23.8214L129.462 23.8223C129.233 23.5328 128.934 23.3249 128.577 23.2071L128.541 23.3123H128.655V23.2753H128.541L128.588 23.3766C128.885 23.245 129.129 23.0471 129.309 22.7871V22.7875C129.491 22.5263 129.582 22.2214 129.582 21.8854C129.583 21.3362 129.371 20.8649 128.956 20.5014L128.954 20.4993L128.956 20.5014C128.546 20.1392 128.049 19.9545 127.489 19.9554H124.9V26.8562H125.014V26.7449Z" fill="white"/>
<defs>
<linearGradient id="paint0_linear" x1="44.8417" y1="21.9697" x2="26.1676" y2="41.1049" gradientUnits="userSpaceOnUse">
<stop stop-color="#00A0FF"/>
<stop offset="0.00657445" stop-color="#00A1FF"/>
<stop offset="0.2601" stop-color="#00BEFF"/>
<stop offset="0.5122" stop-color="#00D2FF"/>
<stop offset="0.7604" stop-color="#00DFFF"/>
<stop offset="1" stop-color="#00E3FF"/>
</linearGradient>
<linearGradient id="paint1_linear" x1="58.5675" y1="34.5377" x2="30.9702" y2="34.5377" gradientUnits="userSpaceOnUse">
<stop stop-color="#FFE000"/>
<stop offset="0.4087" stop-color="#FFBD00"/>
<stop offset="0.7754" stop-color="#FFA500"/>
<stop offset="1" stop-color="#FF9C00"/>
</linearGradient>
<linearGradient id="paint2_linear" x1="48.2944" y1="37.0919" x2="22.9709" y2="63.0406" gradientUnits="userSpaceOnUse">
<stop stop-color="#FF3A44"/>
<stop offset="1" stop-color="#C31162"/>
</linearGradient>
<linearGradient id="paint3_linear" x1="28.3013" y1="12.4715" x2="39.6092" y2="24.0586" gradientUnits="userSpaceOnUse">
<stop stop-color="#32A071"/>
<stop offset="0.0685" stop-color="#2DA771"/>
<stop offset="0.4762" stop-color="#15CF74"/>
<stop offset="0.8009" stop-color="#06E775"/>
<stop offset="1" stop-color="#00F076"/>
</linearGradient>
<linearGradient id="paint4_linear" x1="58.5678" y1="34.5376" x2="30.9709" y2="34.5376" gradientUnits="userSpaceOnUse">
<stop stop-color="#CCB300"/>
<stop offset="0.4087" stop-color="#CC9700"/>
<stop offset="0.7754" stop-color="#CC8400"/>
<stop offset="1" stop-color="#CC7D00"/>
</linearGradient>
<linearGradient id="paint5_linear" x1="48.2947" y1="37.0919" x2="22.9713" y2="63.0406" gradientUnits="userSpaceOnUse">
<stop stop-color="#CC2E36"/>
<stop offset="1" stop-color="#9C0E4E"/>
</linearGradient>
<linearGradient id="paint6_linear" x1="44.8417" y1="21.9696" x2="26.1676" y2="41.1049" gradientUnits="userSpaceOnUse">
<stop stop-color="#008DE0"/>
<stop offset="0.00657445" stop-color="#008DE0"/>
<stop offset="0.2601" stop-color="#00A7E0"/>
<stop offset="0.5122" stop-color="#00B8E0"/>
<stop offset="0.7604" stop-color="#00C4E0"/>
<stop offset="1" stop-color="#00C7E0"/>
</linearGradient>
<linearGradient id="paint7_linear" x1="48.2952" y1="37.0919" x2="22.9719" y2="63.0413" gradientUnits="userSpaceOnUse">
<stop stop-color="#E0333C"/>
<stop offset="1" stop-color="#AB0F56"/>
</linearGradient>
<linearGradient id="paint8_linear" x1="58.5675" y1="34.5378" x2="30.9702" y2="34.5378" gradientUnits="userSpaceOnUse">
<stop stop-color="#E0C500"/>
<stop offset="0.4087" stop-color="#E0A600"/>
<stop offset="0.7754" stop-color="#E09100"/>
<stop offset="1" stop-color="#E08900"/>
</linearGradient>
<linearGradient id="paint9_linear" x1="58.568" y1="34.5378" x2="30.9707" y2="34.5378" gradientUnits="userSpaceOnUse">
<stop stop-color="#FFE840"/>
<stop offset="0.4087" stop-color="#FFCE40"/>
<stop offset="0.7754" stop-color="#FFBC40"/>
<stop offset="1" stop-color="#FFB540"/>
</linearGradient>
<linearGradient id="paint10_linear" x1="44.8417" y1="21.9696" x2="26.1676" y2="41.1049" gradientUnits="userSpaceOnUse">
<stop stop-color="#40B8FF"/>
<stop offset="0.00657445" stop-color="#40B9FF"/>
<stop offset="0.2601" stop-color="#40CEFF"/>
<stop offset="0.5122" stop-color="#40DDFF"/>
<stop offset="0.7604" stop-color="#40E7FF"/>
<stop offset="1" stop-color="#40EAFF"/>
</linearGradient>
<linearGradient id="paint11_linear" x1="28.3017" y1="12.4714" x2="39.6096" y2="24.0586" gradientUnits="userSpaceOnUse">
<stop stop-color="#65B895"/>
<stop offset="0.0685" stop-color="#62BD95"/>
<stop offset="0.4762" stop-color="#50DB97"/>
<stop offset="0.8009" stop-color="#44ED98"/>
<stop offset="1" stop-color="#40F498"/>
</linearGradient>
</defs>
</svg>
