<svg width="243" height="42" viewBox="0 0 243 42" fill="none" xmlns="http://www.w3.org/2000/svg">
<path d="M166.45 32.0001H168.553V18.2487H166.45V32.0001ZM185.394 23.2023L182.983 29.1641H182.911L180.409 23.2023H178.143L181.896 31.5351L179.756 36.1702H181.951L187.733 23.2023H185.394ZM173.467 30.4382C172.777 30.4382 171.817 30.1021 171.817 29.2703C171.817 28.2089 173.014 27.802 174.046 27.802C174.971 27.802 175.405 27.9966 175.968 28.2623C175.804 29.5358 174.681 30.4382 173.467 30.4382ZM173.72 22.9014C172.198 22.9014 170.621 23.5562 169.968 25.0069L171.835 25.7675C172.234 25.0069 172.976 24.759 173.756 24.759C174.844 24.759 175.95 25.3962 175.968 26.5284V26.6698C175.587 26.4575 174.772 26.1391 173.774 26.1391C171.762 26.1391 169.713 27.218 169.713 29.235C169.713 31.075 171.363 32.2604 173.212 32.2604C174.627 32.2604 175.405 31.6412 175.896 30.916H175.968V31.9773H177.998V26.705C177.998 24.264 176.131 22.9014 173.72 22.9014ZM160.722 24.8762H157.73V20.1626H160.722C162.294 20.1626 163.187 21.4331 163.187 22.5194C163.187 23.5851 162.294 24.8762 160.722 24.8762ZM160.668 18.2487H155.628V32.0001H157.73V26.7901H160.668C162.999 26.7901 165.29 25.1431 165.29 22.5194C165.29 19.8958 162.999 18.2487 160.668 18.2487ZM133.186 30.4407C131.733 30.4407 130.517 29.2535 130.517 27.6228C130.517 25.975 131.733 24.7698 133.186 24.7698C134.621 24.7698 135.747 25.975 135.747 27.6228C135.747 29.2535 134.621 30.4407 133.186 30.4407ZM135.602 23.9723H135.529C135.057 23.423 134.149 22.9268 133.005 22.9268C130.608 22.9268 128.411 24.9824 128.411 27.6228C128.411 30.2457 130.608 32.2836 133.005 32.2836C134.149 32.2836 135.057 31.7873 135.529 31.2206H135.602V31.8939C135.602 33.684 134.621 34.6409 133.041 34.6409C131.752 34.6409 130.953 33.7368 130.626 32.975L128.792 33.7192C129.319 34.9597 130.717 36.4839 133.041 36.4839C135.511 36.4839 137.599 35.0659 137.599 31.6103V23.2104H135.602V23.9723ZM139.052 32.0001H141.158V18.2483H139.052V32.0001ZM144.263 27.4634C144.209 25.6557 145.698 24.7344 146.769 24.7344C147.605 24.7344 148.313 25.1418 148.549 25.7271L144.263 27.4634ZM150.801 25.9041C150.402 24.8582 149.184 22.9268 146.697 22.9268C144.227 22.9268 142.175 24.823 142.175 27.6052C142.175 30.2281 144.209 32.2836 146.933 32.2836C149.13 32.2836 150.402 30.9722 150.928 30.2104L149.294 29.1469C148.749 29.9268 148.004 30.4407 146.933 30.4407C145.861 30.4407 145.099 29.9621 144.608 29.0231L151.018 26.4356L150.801 25.9041ZM99.731 24.3623V26.347H104.598C104.452 27.4634 104.071 28.2785 103.49 28.8457C102.782 29.537 101.674 30.2989 99.731 30.2989C96.7347 30.2989 94.3923 27.942 94.3923 25.018C94.3923 22.094 96.7347 19.7368 99.731 19.7368C101.347 19.7368 102.527 20.3572 103.399 21.1547L104.834 19.7549C103.617 18.6204 102.001 17.7521 99.731 17.7521C95.6269 17.7521 92.1768 21.0129 92.1768 25.018C92.1768 29.0231 95.6269 32.2836 99.731 32.2836C101.947 32.2836 103.617 31.5751 104.924 30.2457C106.268 28.9342 106.686 27.0913 106.686 25.6029C106.686 25.1418 106.65 24.7168 106.577 24.3623H99.731ZM112.219 30.4407C110.766 30.4407 109.513 29.2711 109.513 27.6052C109.513 25.9217 110.766 24.7698 112.219 24.7698C113.671 24.7698 114.924 25.9217 114.924 27.6052C114.924 29.2711 113.671 30.4407 112.219 30.4407ZM112.219 22.9268C109.567 22.9268 107.406 24.8938 107.406 27.6052C107.406 30.2989 109.567 32.2836 112.219 32.2836C114.87 32.2836 117.031 30.2989 117.031 27.6052C117.031 24.8938 114.87 22.9268 112.219 22.9268ZM122.716 30.4407C121.264 30.4407 120.011 29.2711 120.011 27.6052C120.011 25.9217 121.264 24.7698 122.716 24.7698C124.169 24.7698 125.422 25.9217 125.422 27.6052C125.422 29.2711 124.169 30.4407 122.716 30.4407ZM122.716 22.9268C120.065 22.9268 117.904 24.8938 117.904 27.6052C117.904 30.2989 120.065 32.2836 122.716 32.2836C125.367 32.2836 127.528 30.2989 127.528 27.6052C127.528 24.8938 125.367 22.9268 122.716 22.9268Z" fill="white"/>
<path d="M57.7626 34.6285L57.6789 34.5503C57.3509 34.2116 57.1572 33.6857 57.1572 33.0047V33.1649V8.83735C57.1572 8.83515 57.1572 8.8335 57.1572 8.83174C57.1572 8.83383 57.1572 8.83559 57.1572 8.83779V8.9985C57.1572 8.26106 57.383 7.70556 57.7613 7.37248L71.7266 21.0009L57.7626 34.6285ZM57.1572 8.83042C57.1572 8.76981 57.1589 8.71096 57.1621 8.65299C57.1589 8.71052 57.1572 8.76981 57.1572 8.83042ZM57.1621 8.65035C57.1621 8.64958 57.1621 8.6487 57.1624 8.64782C57.1621 8.6487 57.1621 8.64958 57.1621 8.65035ZM57.1624 8.64265C57.1624 8.64221 57.1624 8.64177 57.1624 8.64133C57.1624 8.64177 57.1624 8.64221 57.1624 8.64265Z" fill="url(#paint0_linear)"/>
<path d="M76.3809 25.7063L76.4871 25.6475L82.0022 22.5894C82.528 22.2977 82.8785 21.944 83.0533 21.5698C82.8789 21.944 82.5284 22.2981 82.0022 22.5898L76.4871 25.6479L76.3809 25.7063ZM76.3823 25.5452L71.7266 21.0009L76.3818 16.4573L82.0022 19.5734C82.7159 19.9692 83.1166 20.4792 83.1836 21.0004C83.1836 21.0009 83.1836 21.0017 83.1836 21.0025C83.1166 21.5225 82.7159 22.033 82.0022 22.4287L76.3823 25.5452Z" fill="url(#paint1_linear)"/>
<path d="M58.7587 35.1475C58.3686 35.1475 58.0282 35.0237 57.7627 34.79L57.7632 34.7895C58.0286 35.0233 58.3695 35.1475 58.7596 35.1475C58.7934 35.1475 58.8278 35.1466 58.8626 35.1449C58.8273 35.1466 58.7925 35.1475 58.7587 35.1475ZM58.7591 34.9863C58.369 34.9868 58.0286 34.8626 57.7632 34.6288V34.6285L71.7271 21.0009L76.3828 25.5452L60.0219 34.6173C59.5692 34.8677 59.1403 34.9863 58.7591 34.9863ZM57.7592 34.787C57.7345 34.7651 57.7103 34.7419 57.6865 34.7178L57.7592 34.787Z" fill="url(#paint2_linear)"/>
<path d="M71.727 21.0008L57.7617 7.37239C58.0272 7.13908 58.3671 7.01533 58.7568 7.01533C59.139 7.01533 59.5682 7.13435 60.0218 7.38526L76.3823 16.4573L71.727 21.0008ZM76.4876 16.3547L60.0218 7.22466C59.5682 6.97364 59.139 6.85462 58.7568 6.85462C58.755 6.85462 58.7537 6.85462 58.7519 6.85462C58.7542 6.85462 58.7559 6.85462 58.7586 6.85462C59.1399 6.85462 59.5687 6.9732 60.0218 7.22422L76.4876 16.3547Z" fill="url(#paint3_linear)"/>
<path d="M58.8619 35.1449C59.2163 35.1251 59.6086 35.0061 60.0212 34.778L76.3808 25.7064L60.0212 34.778C59.609 35.0065 59.2163 35.1251 58.8619 35.1449ZM57.762 34.7899L57.7585 34.787C57.7598 34.7879 57.7611 34.7891 57.762 34.7899ZM57.6858 34.7178L57.6787 34.711V34.7105C57.6814 34.7131 57.6836 34.7156 57.6858 34.7178Z" fill="black"/>
<path d="M76.3809 25.7063L76.487 25.6475L76.3809 25.7063Z" fill="url(#paint4_linear)"/>
<path d="M58.7589 35.1475C58.3688 35.1475 58.0279 35.0233 57.7625 34.7895L57.762 34.79C57.7611 34.7891 57.7598 34.7879 57.7585 34.787L57.6858 34.7178C57.6836 34.7156 57.6814 34.7131 57.6787 34.7106L57.7625 34.6288C58.0279 34.8626 58.3683 34.9868 58.7584 34.9863C59.1396 34.9863 59.5685 34.8677 60.0212 34.6173L76.3821 25.5452L76.487 25.6475L76.3808 25.7064L60.0212 34.778C59.6086 35.0061 59.2163 35.1251 58.8619 35.1449C58.8271 35.1466 58.7927 35.1475 58.7589 35.1475Z" fill="url(#paint5_linear)"/>
<path d="M57.6789 34.711C57.3509 34.3723 57.1572 33.8464 57.1572 33.1654V33.1649C57.1572 33.8464 57.3509 34.3718 57.6789 34.7105V34.711Z" fill="black"/>
<path d="M57.6789 34.7105C57.3509 34.3718 57.1572 33.8464 57.1572 33.1649V33.0046C57.1572 33.6857 57.3509 34.2116 57.6789 34.5503L57.7626 34.6285L57.6789 34.7105Z" fill="url(#paint6_linear)"/>
<path d="M57.6787 34.7105L57.7625 34.6285V34.6288L57.6787 34.7105Z" fill="url(#paint7_linear)"/>
<path d="M83.0527 21.5698C83.1394 21.3841 83.183 21.1934 83.183 21.0025C83.183 21.0022 83.183 21.0018 83.183 21.0018C83.183 21.1929 83.1394 21.3837 83.0527 21.5698Z" fill="black"/>
<path d="M76.4867 25.6475L76.3818 25.5452L82.0018 22.4287C82.7155 22.033 83.1162 21.5225 83.1831 21.0025C83.1831 21.1934 83.1395 21.3841 83.0528 21.5698C82.878 21.944 82.5276 22.2976 82.0018 22.5894L76.4867 25.6475Z" fill="url(#paint8_linear)"/>
<path d="M83.1832 21.0009V21.0005C83.1828 20.4251 82.7887 19.8498 82.0019 19.4132L76.4868 16.3551H76.4863L76.4868 16.3547L82.0019 19.4127C82.7896 19.8493 83.1841 20.4255 83.1832 21.0009Z" fill="#404040"/>
<path d="M83.1836 21.0004C83.1166 20.4792 82.7159 19.9692 82.0022 19.5734L76.3818 16.4573L76.4867 16.355H76.4871L82.0022 19.4131C82.7891 19.8497 83.1831 20.425 83.1836 21.0004Z" fill="url(#paint9_linear)"/>
<path d="M57.1572 8.8317C57.1572 8.83126 57.1572 8.83082 57.1572 8.83038C57.1572 8.83082 57.1572 8.83126 57.1572 8.8317ZM57.1621 8.65295C57.1621 8.65207 57.1621 8.65119 57.1621 8.65031C57.1621 8.65119 57.1621 8.65207 57.1621 8.65295ZM57.1624 8.64778C57.1624 8.64602 57.1624 8.64437 57.1624 8.64261C57.1624 8.64437 57.1624 8.64602 57.1624 8.64778ZM57.1624 8.64129C57.2277 7.51126 57.8573 6.85851 58.748 6.85466C58.3618 6.85686 58.0255 6.98061 57.7622 7.21216V7.21172L57.759 7.2148C57.7313 7.23922 57.7049 7.26507 57.6789 7.29169C57.383 7.59716 57.1963 8.05477 57.1624 8.64129Z" fill="#404040"/>
<path d="M57.1572 8.99841V8.8377C57.1572 8.8355 57.1572 8.83374 57.1572 8.83165C57.1572 8.83121 57.1572 8.83077 57.1572 8.83033C57.1572 8.76972 57.1589 8.71043 57.1621 8.6529C57.1621 8.65202 57.1621 8.65115 57.1621 8.65027C57.1621 8.6495 57.1621 8.64861 57.1624 8.64773C57.1624 8.64597 57.1624 8.64432 57.1624 8.64256C57.1624 8.64212 57.1624 8.64169 57.1624 8.64125C57.1963 8.05473 57.383 7.59712 57.6789 7.29165L57.7613 7.3724C57.383 7.70548 57.1572 8.26097 57.1572 8.99841ZM57.759 7.21476L57.7622 7.21169C57.7613 7.21301 57.7599 7.21388 57.759 7.21476Z" fill="url(#paint10_linear)"/>
<path d="M76.3817 16.4573L60.0212 7.38527C59.5676 7.13436 59.1384 7.01534 58.7562 7.01534C58.3665 7.01534 58.0266 7.13909 57.7611 7.3724L57.6787 7.29166C57.7047 7.26504 57.7311 7.23919 57.7589 7.21477C57.7598 7.21389 57.7611 7.21301 57.762 7.21213C58.0253 6.98058 58.3617 6.85683 58.7478 6.85463C58.7487 6.85463 58.75 6.85463 58.7513 6.85463C58.7531 6.85463 58.7544 6.85463 58.7562 6.85463C59.1384 6.85463 59.5676 6.97365 60.0212 7.22467L76.487 16.3547L76.4865 16.355L76.3817 16.4573Z" fill="url(#paint11_linear)"/>
<path d="M94.9442 9.96347C94.9573 11.0076 94.743 11.8497 94.3026 12.4892H97.7215V7.51079H94.9442V9.96347ZM93.3855 14.7007H92.5547V12.4892H93.216C93.8016 11.9967 94.0877 11.1554 94.0759 9.96347V6.69998H98.5911V12.4892H99.3463V14.7007H98.515V13.3H93.3855V14.7007Z" fill="white"/>
<path d="M94.9436 9.96358L94.8309 9.9649L94.8318 10.0538C94.8313 11.0417 94.62 11.8306 94.2082 12.4278L94.0903 12.5993H97.8336V7.40091H94.8309V9.96446V9.9649L94.9436 9.96358H95.0563V7.62091H97.6082V12.3793H94.302V12.4893L94.3954 12.5503C94.8388 11.9066 95.0572 11.0713 95.0572 10.0538L95.0563 9.96226L94.9436 9.96358H95.0563H94.9436ZM93.385 14.7008V14.5908H92.6668V12.5993H93.2154H93.2572L93.2889 12.5727C93.8983 12.0596 94.1885 11.2049 94.1885 10.0357L94.1881 9.9627V9.96358V6.8101H98.4778V12.5993H99.233V14.5908H98.6271V13.3001V13.1901H93.2722V14.7008H93.385V14.5908V14.7008H93.4977V13.4101H98.4017V14.7008V14.8108H99.3457H99.4584V12.3793H98.7032V6.5901H93.9626V9.96402V9.96446L93.9631 10.0357C93.9626 11.174 93.6799 11.9548 93.1418 12.4055L93.2154 12.4893V12.3793H92.5541H92.4414V14.8108H93.385H93.4977V14.7008H93.385Z" fill="white"/>
<path d="M101.806 11.8945C102.307 12.3891 102.919 12.6361 103.643 12.6361C104.367 12.6361 104.98 12.3891 105.48 11.8945C105.981 11.3999 106.232 10.7678 106.232 9.99997C106.232 9.23217 105.981 8.6 105.48 8.10544C104.98 7.61088 104.367 7.36382 103.643 7.36382C102.919 7.36382 102.307 7.61088 101.806 8.10544C101.306 8.6 101.055 9.23217 101.055 9.99997C101.055 10.7678 101.306 11.3999 101.806 11.8945ZM106.123 12.447C105.458 13.1143 104.632 13.4474 103.643 13.4474C102.655 13.4474 101.828 13.1143 101.164 12.447C100.499 11.7805 100.168 10.9647 100.168 9.99997C100.168 9.03527 100.499 8.21929 101.164 7.55291C101.828 6.88554 102.655 6.55213 103.643 6.55213C104.626 6.55213 105.451 6.8873 106.118 7.5572C106.786 8.2271 107.119 9.04132 107.119 9.99997C107.119 10.9647 106.787 11.7805 106.123 12.447Z" fill="white"/>
<path d="M101.805 11.8945L101.725 11.9718C102.244 12.4862 102.892 12.7474 103.643 12.7461C104.393 12.7474 105.042 12.4862 105.56 11.9718C106.082 11.457 106.345 10.791 106.344 9.99996C106.345 9.20895 106.082 8.5429 105.56 8.0281C105.042 7.51374 104.393 7.25249 103.643 7.25381C102.892 7.25249 102.244 7.51374 101.725 8.0281C101.204 8.5429 100.941 9.20895 100.942 9.99996C100.941 10.791 101.204 11.457 101.725 11.9718L101.805 11.8945L101.886 11.8172C101.408 11.3423 101.169 10.745 101.167 9.99996C101.169 9.25493 101.408 8.65763 101.886 8.18276H101.885C102.368 7.708 102.944 7.47513 103.643 7.47381C104.34 7.47513 104.918 7.708 105.399 8.18276L105.401 8.18452L105.399 8.18276C105.879 8.65763 106.118 9.25493 106.119 9.99996C106.118 10.745 105.879 11.3423 105.399 11.8172C104.918 12.2919 104.34 12.5248 103.643 12.5261C102.944 12.5248 102.368 12.2919 101.885 11.8172L101.805 11.8945ZM106.122 12.447L106.042 12.3706C105.396 13.0168 104.605 13.336 103.643 13.3374C102.68 13.336 101.889 13.0168 101.244 12.3706C100.6 11.7221 100.281 10.9401 100.28 9.99996C100.281 9.05979 100.6 8.2778 101.244 7.62935C101.889 6.9831 102.68 6.66344 103.643 6.66212C104.599 6.66344 105.388 6.98442 106.037 7.63408C106.685 8.2855 107.005 9.06628 107.006 9.99996C107.005 10.9401 106.686 11.7221 106.042 12.3706L106.122 12.447L106.203 12.5235C106.887 11.8386 107.232 10.9891 107.231 9.99996C107.232 9.01645 106.886 8.16868 106.199 7.48074C105.512 6.79016 104.652 6.44091 103.643 6.44212C102.628 6.44091 101.765 6.78851 101.083 7.47645V7.47601C100.398 8.16131 100.054 9.01084 100.055 9.99996C100.054 10.9891 100.398 11.8386 101.083 12.5239V12.5235C101.765 13.2114 102.628 13.5582 103.643 13.5574C104.657 13.5582 105.52 13.2114 106.203 12.5235L106.122 12.447Z" fill="white"/>
<path d="M111.494 13.4474C110.499 13.4474 109.665 13.1187 108.991 12.4608C108.316 11.8034 107.98 10.983 107.98 9.99997C107.98 9.01679 108.316 8.19652 108.991 7.53916C109.665 6.88125 110.499 6.55213 111.494 6.55213C112.513 6.55213 113.342 6.91183 113.978 7.63068L113.373 8.20257C112.914 7.64311 112.287 7.36382 111.494 7.36382C110.757 7.36382 110.134 7.60659 109.628 8.09213C109.121 8.57767 108.868 9.21369 108.868 9.99997C108.868 10.7863 109.121 11.4227 109.628 11.9078C110.134 12.3934 110.757 12.6361 111.494 12.6361C112.306 12.6361 112.999 12.3168 113.572 11.6779L114.176 12.2674C113.867 12.6301 113.481 12.9175 113.014 13.1289C112.549 13.3412 112.041 13.4474 111.494 13.4474Z" fill="white"/>
<path d="M111.493 13.4474V13.3374C110.524 13.336 109.724 13.0202 109.07 12.383C108.416 11.7449 108.094 10.9586 108.093 9.99996C108.094 9.04131 108.416 8.25503 109.07 7.61692C109.724 6.97925 110.524 6.66345 111.493 6.66213C112.486 6.66389 113.275 7.00676 113.892 7.70239L113.978 7.63067L113.899 7.55158L113.294 8.12391L113.372 8.20256L113.46 8.13381C112.982 7.54861 112.312 7.25216 111.493 7.25382C110.73 7.25293 110.074 7.50869 109.549 8.01347C109.018 8.52013 108.753 9.19124 108.754 9.99996C108.753 10.8087 109.018 11.4807 109.549 11.9864C110.074 12.4912 110.73 12.747 111.493 12.7461C112.337 12.7474 113.067 12.4096 113.656 11.7505L113.572 11.6779L113.492 11.7557L114.096 12.3452L114.176 12.2674L114.089 12.1974C113.791 12.5471 113.419 12.8239 112.966 13.0292C112.515 13.2346 112.026 13.3369 111.493 13.3374V13.4474V13.5574C112.055 13.5574 112.58 13.4482 113.061 13.2287C113.542 13.0112 113.942 12.7134 114.262 12.3379L114.328 12.261L113.651 11.6001L113.566 11.5167L113.487 11.6053C112.929 12.2245 112.275 12.5248 111.493 12.5261C110.781 12.5248 110.194 12.2953 109.707 11.8291H109.706C109.222 11.3651 108.981 10.7639 108.98 9.99996C108.981 9.23601 109.222 8.63574 109.706 8.17077H109.707C110.194 7.70459 110.781 7.47513 111.493 7.47381C112.259 7.47557 112.844 7.7377 113.284 8.27131L113.362 8.36591L114.056 7.70976L114.133 7.6375L114.063 7.55895C113.408 6.81645 112.54 6.44092 111.493 6.44213C110.473 6.44125 109.603 6.78378 108.911 7.46138C108.215 8.13766 107.866 8.9928 107.867 9.99996C107.866 11.0071 108.215 11.8623 108.911 12.539C109.603 13.2161 110.473 13.5582 111.493 13.5574V13.4474Z" fill="white"/>
<path d="M117.691 13.3H116.822V7.51082H114.933V6.70001H119.58V7.51082H117.691V13.3Z" fill="white"/>
<path d="M117.69 13.3V13.19H116.934V7.4008H115.045V6.80999H119.467V7.4008H117.578V13.3H117.69V13.19V13.3H117.803V7.6208H119.692V6.69999V6.58999H114.819V7.5108V7.6208H116.708V13.41H117.69H117.803V13.3H117.69Z" fill="white"/>
<path d="M125.547 6.69997L122.988 12.2674C122.635 13.0542 122.11 13.4474 121.411 13.4474C121.203 13.4474 120.979 13.3984 120.74 13.3L120.966 12.5162C121.112 12.5965 121.263 12.6361 121.42 12.6361C121.621 12.6361 121.778 12.5978 121.888 12.5214C121.998 12.4445 122.1 12.3039 122.195 12.1015L122.44 11.5756L120.164 6.69997H121.184L122.856 10.4885H122.893L124.527 6.69997H125.547Z" fill="white"/>
<path d="M125.547 6.69994L125.444 6.65484L122.885 12.2227L122.884 12.2236C122.536 12.9862 122.061 13.3335 121.411 13.3373C121.221 13.3373 121.012 13.2927 120.783 13.1985L120.739 13.2999L120.848 13.33L121.074 12.5462L120.966 12.5162L120.911 12.612C121.071 12.7005 121.242 12.7465 121.419 12.7461C121.635 12.7461 121.815 12.7062 121.953 12.6107C122.089 12.5149 122.197 12.3589 122.297 12.1475L122.543 11.6216L122.564 11.5756L120.339 6.80994H121.11L122.781 10.5985H122.893H122.968L124.601 6.80994H125.547V6.69994L125.444 6.65484L125.547 6.69994V6.58994H124.526H124.451L122.789 10.446L122.893 10.4885V10.3785H122.856V10.4885L122.959 10.4451L121.258 6.58994H120.164H119.988L122.316 11.5756L122.092 12.056C122.002 12.2489 121.906 12.3735 121.822 12.4315C121.739 12.4896 121.607 12.5265 121.419 12.5261C121.281 12.5261 121.152 12.4921 121.021 12.4204L120.896 12.3516L120.631 13.2699L120.603 13.3635L120.695 13.4014C120.946 13.504 121.184 13.5573 121.411 13.5573C122.158 13.5607 122.732 13.1216 123.091 12.3117L123.09 12.3125L125.721 6.58994H125.547V6.69994Z" fill="white"/>
<path d="M126.53 13.3V6.70001H131.423V13.3H130.554V7.51082H127.399V13.3H126.53Z" fill="white"/>
<path d="M126.53 13.3H126.642V6.80999H131.31V13.19H130.666V7.4008H127.285V13.19H126.53V13.3H126.642H126.53V13.41H127.398H127.511V7.6208H130.441V13.41H131.423H131.535V6.58999H126.417V13.41H126.53V13.3Z" fill="white"/>
<path d="M132.972 13.3V6.70001H133.84V9.52953H137.222V6.70001H138.091V13.3H137.222V10.3223H133.84V13.3H132.972Z" fill="white"/>
<path d="M132.972 13.3H133.085V6.80999H133.728V9.63952H137.335V6.80999H137.979V13.19H137.335V10.2123H133.728V13.19H132.972V13.3H133.085H132.972V13.41H133.841H133.954V10.4323H137.11V13.41H138.092H138.205V6.58999H137.222H137.11V9.41952H133.954V6.58999H132.972H132.859V13.41H132.972V13.3Z" fill="white"/>
<path d="M140.854 11.8945C141.355 12.3891 141.967 12.6361 142.691 12.6361C143.415 12.6361 144.028 12.3891 144.528 11.8945C145.029 11.3999 145.28 10.7678 145.28 9.99997C145.28 9.23217 145.029 8.6 144.528 8.10544C144.028 7.61088 143.415 7.36382 142.691 7.36382C141.967 7.36382 141.355 7.61088 140.854 8.10544C140.354 8.6 140.103 9.23217 140.103 9.99997C140.103 10.7678 140.354 11.3999 140.854 11.8945ZM145.171 12.447C144.506 13.1143 143.68 13.4474 142.691 13.4474C141.703 13.4474 140.876 13.1143 140.212 12.447C139.547 11.7805 139.216 10.9647 139.216 9.99997C139.216 9.03527 139.547 8.21929 140.212 7.55291C140.876 6.88554 141.703 6.55213 142.691 6.55213C143.674 6.55213 144.498 6.8873 145.166 7.5572C145.833 8.2271 146.167 9.04132 146.167 9.99997C146.167 10.9647 145.835 11.7805 145.171 12.447Z" fill="white"/>
<path d="M140.853 11.8945L140.773 11.9718C141.293 12.4862 141.94 12.7474 142.691 12.7461C143.441 12.7474 144.09 12.4862 144.608 11.9718C145.13 11.457 145.393 10.791 145.392 9.99996C145.393 9.20895 145.13 8.5429 144.608 8.0281C144.09 7.51374 143.441 7.25249 142.691 7.25381C141.94 7.25249 141.293 7.51374 140.773 8.0281C140.252 8.5429 139.989 9.20895 139.99 9.99996C139.989 10.791 140.252 11.457 140.773 11.9718L140.853 11.8945L140.934 11.8172C140.456 11.3423 140.217 10.745 140.215 9.99996C140.217 9.25493 140.456 8.65763 140.934 8.18276C141.416 7.708 141.993 7.47513 142.691 7.47381C143.388 7.47513 143.966 7.708 144.447 8.18276L144.451 8.18628L144.447 8.18276C144.927 8.65763 145.166 9.25493 145.167 9.99996C145.166 10.745 144.927 11.3423 144.447 11.8172C143.966 12.2919 143.388 12.5248 142.691 12.5261C141.993 12.5248 141.416 12.2919 140.934 11.8172L140.853 11.8945ZM145.17 12.447L145.09 12.3706C144.444 13.0168 143.653 13.336 142.691 13.3374C141.728 13.336 140.937 13.0168 140.293 12.3706L140.289 12.3672L140.293 12.3706C139.648 11.7221 139.329 10.9401 139.328 9.99996C139.329 9.05979 139.648 8.2778 140.293 7.62935C140.937 6.9831 141.728 6.66344 142.691 6.66212C143.647 6.66344 144.436 6.98442 145.085 7.63408C145.733 8.2855 146.053 9.06628 146.054 9.99996C146.053 10.9401 145.733 11.7221 145.09 12.3706L145.17 12.447L145.251 12.5235C145.935 11.8386 146.28 10.9891 146.279 9.99996C146.28 9.01645 145.934 8.16868 145.247 7.48074C144.56 6.79016 143.7 6.44091 142.691 6.44212C141.676 6.44091 140.814 6.78851 140.131 7.47645V7.47601C139.446 8.16131 139.102 9.01084 139.103 9.99996C139.102 10.9891 139.446 11.8386 140.131 12.5239V12.5235C140.814 13.2114 141.676 13.5582 142.691 13.5574C143.705 13.5582 144.568 13.2114 145.251 12.5235L145.17 12.447Z" fill="white"/>
<path d="M150.589 12.4892H152.337C152.67 12.4892 152.941 12.3753 153.15 12.1472C153.357 11.9207 153.461 11.6715 153.461 11.4007C153.461 11.1305 153.354 10.8834 153.139 10.6591C152.926 10.4348 152.645 10.3223 152.299 10.3223H150.589V12.4892ZM150.589 9.52953H152.167C152.495 9.52953 152.757 9.42426 152.956 9.21152C153.154 8.99967 153.253 8.76811 153.253 8.51588C153.253 8.26409 153.157 8.03287 152.965 7.82497C152.773 7.61564 152.519 7.51082 152.205 7.51082H150.589V9.52953ZM149.721 13.3V6.70001H152.167C152.695 6.70001 153.154 6.87106 153.541 7.21129C153.928 7.55295 154.122 7.98129 154.122 8.49741C154.122 8.81058 154.039 9.08733 153.871 9.32713C153.705 9.56682 153.483 9.74821 153.206 9.87108V9.90761C153.538 10.018 153.813 10.2088 154.028 10.4791C154.241 10.7498 154.349 11.0635 154.349 11.4197C154.349 11.9602 154.146 12.4088 153.739 12.7651C153.333 13.1217 152.853 13.3 152.299 13.3H149.721Z" fill="white"/>
<path d="M150.589 12.4892V12.5992H152.337C152.697 12.6005 153.007 12.4716 153.233 12.2206C153.457 11.9787 153.575 11.6994 153.574 11.4007C153.575 11.1017 153.452 10.8237 153.222 10.584C152.989 10.3368 152.67 10.211 152.299 10.2123H150.476V12.5992H150.589V12.4892H150.702V10.4323H152.299C152.621 10.4335 152.864 10.5333 153.058 10.7339C153.256 10.9436 153.347 11.1597 153.348 11.4007C153.347 11.6435 153.258 11.8627 153.065 12.074C152.877 12.2786 152.645 12.3774 152.337 12.3792H150.589V12.4892H150.702H150.589ZM150.589 9.52952V9.63952H152.167C152.519 9.64073 152.821 9.52215 153.039 9.28543V9.28587C153.253 9.05894 153.366 8.79681 153.366 8.51587C153.366 8.23658 153.257 7.97533 153.048 7.75104V7.75148C152.838 7.5185 152.545 7.39948 152.205 7.4008H150.476V9.63952H150.589V9.52952H150.702V7.6208H152.205C152.495 7.62256 152.709 7.71276 152.881 7.898L152.882 7.89877L152.881 7.89844C153.057 8.09094 153.14 8.29202 153.141 8.51587C153.14 8.73884 153.055 8.9408 152.873 9.13715V9.13759C152.695 9.32624 152.47 9.4182 152.167 9.41952H150.589V9.52952H150.702H150.589ZM149.721 13.3H149.834V6.80999H152.167C152.671 6.81087 153.097 6.96982 153.466 7.293C153.832 7.61695 154.009 8.00844 154.01 8.49739C154.01 8.79175 153.932 9.04398 153.779 9.26519C153.623 9.48871 153.419 9.65536 153.159 9.77097L153.094 9.80023V9.90759V9.98624L153.169 10.0115C153.484 10.1165 153.737 10.2926 153.939 10.5466L153.94 10.5478L153.939 10.5461C154.137 10.7988 154.237 11.0849 154.237 11.4196C154.235 11.9336 154.048 12.3447 153.664 12.6834C153.276 13.0225 152.829 13.1891 152.299 13.19H149.721V13.3H149.834H149.721V13.41H152.299C152.878 13.4109 153.39 13.2209 153.815 12.8467C154.243 12.4732 154.463 11.9872 154.462 11.4196C154.463 11.042 154.346 10.7008 154.117 10.412L154.116 10.4107L154.117 10.4116C153.89 10.1255 153.595 9.92002 153.242 9.80364L153.206 9.90759H153.319V9.87107H153.206L153.253 9.97117C153.547 9.84104 153.788 9.64546 153.965 9.3885V9.38894C154.145 9.13077 154.235 8.82948 154.235 8.49739C154.237 7.95465 154.027 7.48891 153.617 7.12965L153.614 7.12756L153.617 7.12965C153.211 6.77171 152.72 6.58911 152.167 6.58999H149.608V13.41H149.721V13.3Z" fill="white"/>
<defs>
<linearGradient id="paint0_linear" x1="70.4883" y1="8.58072" x2="52.033" y2="27.4917" gradientUnits="userSpaceOnUse">
<stop stop-color="#00A0FF"/>
<stop offset="0.00657445" stop-color="#00A1FF"/>
<stop offset="0.2601" stop-color="#00BEFF"/>
<stop offset="0.5122" stop-color="#00D2FF"/>
<stop offset="0.7604" stop-color="#00DFFF"/>
<stop offset="1" stop-color="#00E3FF"/>
</linearGradient>
<linearGradient id="paint1_linear" x1="84.0532" y1="21.0015" x2="56.7793" y2="21.0015" gradientUnits="userSpaceOnUse">
<stop stop-color="#FFE000"/>
<stop offset="0.4087" stop-color="#FFBD00"/>
<stop offset="0.7754" stop-color="#FFA500"/>
<stop offset="1" stop-color="#FF9C00"/>
</linearGradient>
<linearGradient id="paint2_linear" x1="73.901" y1="23.5258" x2="48.8743" y2="49.1704" gradientUnits="userSpaceOnUse">
<stop stop-color="#FF3A44"/>
<stop offset="1" stop-color="#C31162"/>
</linearGradient>
<linearGradient id="paint3_linear" x1="54.1421" y1="-0.806221" x2="65.3175" y2="10.6451" gradientUnits="userSpaceOnUse">
<stop stop-color="#32A071"/>
<stop offset="0.0685" stop-color="#2DA771"/>
<stop offset="0.4762" stop-color="#15CF74"/>
<stop offset="0.8009" stop-color="#06E775"/>
<stop offset="1" stop-color="#00F076"/>
</linearGradient>
<linearGradient id="paint4_linear" x1="84.053" y1="21.0014" x2="56.7795" y2="21.0014" gradientUnits="userSpaceOnUse">
<stop stop-color="#CCB300"/>
<stop offset="0.4087" stop-color="#CC9700"/>
<stop offset="0.7754" stop-color="#CC8400"/>
<stop offset="1" stop-color="#CC7D00"/>
</linearGradient>
<linearGradient id="paint5_linear" x1="73.9002" y1="23.5258" x2="48.8736" y2="49.1704" gradientUnits="userSpaceOnUse">
<stop stop-color="#CC2E36"/>
<stop offset="1" stop-color="#9C0E4E"/>
</linearGradient>
<linearGradient id="paint6_linear" x1="70.4883" y1="8.58069" x2="52.0331" y2="27.4917" gradientUnits="userSpaceOnUse">
<stop stop-color="#008DE0"/>
<stop offset="0.00657445" stop-color="#008DE0"/>
<stop offset="0.2601" stop-color="#00A7E0"/>
<stop offset="0.5122" stop-color="#00B8E0"/>
<stop offset="0.7604" stop-color="#00C4E0"/>
<stop offset="1" stop-color="#00C7E0"/>
</linearGradient>
<linearGradient id="paint7_linear" x1="73.9007" y1="23.5258" x2="48.8741" y2="49.1711" gradientUnits="userSpaceOnUse">
<stop stop-color="#E0333C"/>
<stop offset="1" stop-color="#AB0F56"/>
</linearGradient>
<linearGradient id="paint8_linear" x1="84.0527" y1="21.0015" x2="56.7788" y2="21.0015" gradientUnits="userSpaceOnUse">
<stop stop-color="#E0C500"/>
<stop offset="0.4087" stop-color="#E0A600"/>
<stop offset="0.7754" stop-color="#E09100"/>
<stop offset="1" stop-color="#E08900"/>
</linearGradient>
<linearGradient id="paint9_linear" x1="84.0532" y1="21.0015" x2="56.7793" y2="21.0015" gradientUnits="userSpaceOnUse">
<stop stop-color="#FFE840"/>
<stop offset="0.4087" stop-color="#FFCE40"/>
<stop offset="0.7754" stop-color="#FFBC40"/>
<stop offset="1" stop-color="#FFB540"/>
</linearGradient>
<linearGradient id="paint10_linear" x1="70.4883" y1="8.58063" x2="52.0331" y2="27.4916" gradientUnits="userSpaceOnUse">
<stop stop-color="#40B8FF"/>
<stop offset="0.00657445" stop-color="#40B9FF"/>
<stop offset="0.2601" stop-color="#40CEFF"/>
<stop offset="0.5122" stop-color="#40DDFF"/>
<stop offset="0.7604" stop-color="#40E7FF"/>
<stop offset="1" stop-color="#40EAFF"/>
</linearGradient>
<linearGradient id="paint11_linear" x1="54.1415" y1="-0.806213" x2="65.3169" y2="10.6451" gradientUnits="userSpaceOnUse">
<stop stop-color="#65B895"/>
<stop offset="0.0685" stop-color="#62BD95"/>
<stop offset="0.4762" stop-color="#50DB97"/>
<stop offset="0.8009" stop-color="#44ED98"/>
<stop offset="1" stop-color="#40F498"/>
</linearGradient>
</defs>
</svg>
