<svg width="33" height="32" viewBox="0 0 33 32" fill="none" xmlns="http://www.w3.org/2000/svg">
<path d="M23.9334 0H9.71115C4.80271 0 0.822266 3.98044 0.822266 8.88889V23.1111C0.822266 28.0196 4.80271 32 9.71115 32H23.9334C28.8418 32 32.8223 28.0196 32.8223 23.1111V8.88889C32.8223 3.98044 28.8418 0 23.9334 0ZM16.8223 24.8889C11.9138 24.8889 7.93338 20.9084 7.93338 16C7.93338 11.0916 11.9138 7.11111 16.8223 7.11111C21.7307 7.11111 25.7112 11.0916 25.7112 16C25.7112 20.9084 21.7307 24.8889 16.8223 24.8889ZM27.4889 7.11111C26.5076 7.11111 25.7112 6.31467 25.7112 5.33333C25.7112 4.352 26.5076 3.55556 27.4889 3.55556C28.4703 3.55556 29.2667 4.352 29.2667 5.33333C29.2667 6.31467 28.4703 7.11111 27.4889 7.11111Z" fill="#D8C69E"/>
<path d="M16.8223 10.6667C15.4078 10.6667 14.0512 11.2286 13.051 12.2288C12.0508 13.229 11.4889 14.5855 11.4889 16C11.4889 17.4145 12.0508 18.771 13.051 19.7712C14.0512 20.7714 15.4078 21.3333 16.8223 21.3333C18.2368 21.3333 19.5933 20.7714 20.5935 19.7712C21.5937 18.771 22.1556 17.4145 22.1556 16C22.1556 14.5855 21.5937 13.229 20.5935 12.2288C19.5933 11.2286 18.2368 10.6667 16.8223 10.6667Z" fill="#D8C69E"/>
</svg>
