<svg width="24" height="24" viewBox="0 0 24 24" fill="none" xmlns="http://www.w3.org/2000/svg">
<path fill-rule="evenodd" clip-rule="evenodd" d="M2 7C2 4.23858 4.23858 2 7 2H17C19.7614 2 22 4.23858 22 7V17C22 19.7614 19.7614 22 17 22H7C4.23858 22 2 19.7614 2 17V7Z" stroke="white" stroke-width="2" stroke-linecap="round" stroke-linejoin="round"/>
<path fill-rule="evenodd" clip-rule="evenodd" d="M15.9998 11.3705C16.2529 13.0775 15.3828 14.7543 13.8414 15.5302C12.3 16.306 10.4349 16.0059 9.21465 14.7856C7.99444 13.5654 7.69431 11.7003 8.47014 10.1589C9.24597 8.61746 10.9228 7.74736 12.6298 8.00048C14.3728 8.25894 15.7414 9.62751 15.9998 11.3705Z" stroke="white" stroke-width="2" stroke-linecap="round" stroke-linejoin="round"/>
</svg>
