<svg width="24" height="24" viewBox="0 0 24 24" fill="none" xmlns="http://www.w3.org/2000/svg">
<path d="M10 13C10.869 14.1617 12.1996 14.8887 13.6466 14.9923C15.0937 15.0959 16.5144 14.566 17.54 13.54L20.54 10.54C22.4349 8.57807 22.4078 5.45954 20.4791 3.53087C18.5504 1.6022 15.4319 1.57511 13.47 3.46997L11.75 5.17997" stroke="white" stroke-width="2" stroke-linecap="round" stroke-linejoin="round"/>
<path d="M14.0002 10.9993C13.1312 9.83757 11.8006 9.11056 10.3536 9.00693C8.90653 8.9033 7.48583 9.43326 6.4602 10.4593L3.4602 13.4593C1.56534 15.4212 1.59244 18.5397 3.52111 20.4684C5.44978 22.397 8.56831 22.4241 10.5302 20.5293L12.2402 18.8193" stroke="white" stroke-width="2" stroke-linecap="round" stroke-linejoin="round"/>
</svg>
