<svg width="164" height="83" viewBox="0 0 164 83" fill="none" xmlns="http://www.w3.org/2000/svg">
<path d="M71.53 32.495V40.475C71.53 40.82 71.815 41.105 72.175 41.105C72.52 41.105 72.805 40.82 72.805 40.475V31.145C72.805 30.785 72.55 30.425 72.07 30.425C71.725 30.425 71.485 30.635 71.335 30.86L67.81 35.885L64.135 30.905C63.94 30.635 63.7 30.425 63.31 30.425C62.875 30.425 62.575 30.755 62.575 31.235V40.475C62.575 40.82 62.86 41.105 63.22 41.105C63.565 41.105 63.85 40.82 63.85 40.475V32.585L67.03 36.935C67.24 37.22 67.48 37.34 67.705 37.34C67.945 37.34 68.17 37.22 68.38 36.935L71.53 32.495ZM77.224 39.8V36.29H80.839C81.154 36.29 81.424 36.02 81.424 35.69C81.424 35.36 81.154 35.09 80.839 35.09H77.224V31.7H81.289C81.604 31.7 81.874 31.43 81.874 31.1C81.874 30.77 81.604 30.5 81.289 30.5H76.579C76.234 30.5 75.949 30.785 75.949 31.13V40.37C75.949 40.715 76.234 41 76.579 41H81.439C81.754 41 82.024 40.73 82.024 40.4C82.024 40.07 81.754 39.8 81.439 39.8H77.224ZM93.532 32.495V40.475C93.532 40.82 93.817 41.105 94.177 41.105C94.522 41.105 94.807 40.82 94.807 40.475V31.145C94.807 30.785 94.552 30.425 94.072 30.425C93.727 30.425 93.487 30.635 93.337 30.86L89.812 35.885L86.137 30.905C85.942 30.635 85.702 30.425 85.312 30.425C84.877 30.425 84.577 30.755 84.577 31.235V40.475C84.577 40.82 84.862 41.105 85.222 41.105C85.567 41.105 85.852 40.82 85.852 40.475V32.585L89.032 36.935C89.242 37.22 89.482 37.34 89.707 37.34C89.947 37.34 90.172 37.22 90.382 36.935L93.532 32.495ZM102.481 41.15C105.526 41.15 107.836 38.87 107.836 35.75C107.836 32.555 105.526 30.35 102.481 30.35C99.361 30.35 97.126 32.705 97.126 35.75C97.126 38.945 99.436 41.15 102.481 41.15ZM102.481 31.55C104.731 31.55 106.486 33.305 106.486 35.75C106.486 38.12 104.881 39.95 102.481 39.95C100.231 39.95 98.476 38.135 98.476 35.75C98.476 33.305 100.201 31.55 102.481 31.55ZM112.373 41.15C114.278 41.15 115.793 40.025 115.793 38.3C115.793 34.715 110.663 35.69 110.663 33.095C110.663 32.165 111.383 31.55 112.553 31.55C113.258 31.55 113.738 31.73 114.233 32.03C114.353 32.09 114.458 32.135 114.578 32.135C114.758 32.135 114.938 32.03 115.073 31.85C115.148 31.76 115.178 31.64 115.178 31.535C115.178 31.34 115.088 31.16 114.938 31.055C114.278 30.635 113.453 30.35 112.478 30.35C110.483 30.35 109.313 31.58 109.313 33.095C109.313 36.575 114.443 35.75 114.443 38.315C114.443 39.38 113.483 39.95 112.388 39.95C111.638 39.95 111.023 39.62 110.228 39.035C110.123 38.96 110.003 38.93 109.883 38.93C109.718 38.93 109.538 39.005 109.418 39.155C109.328 39.26 109.283 39.395 109.283 39.53C109.283 39.68 109.343 39.845 109.463 39.95C110.333 40.685 111.263 41.15 112.373 41.15ZM121.588 31.7H124.678C124.993 31.7 125.263 31.43 125.263 31.1C125.263 30.77 124.993 30.5 124.678 30.5H117.223C116.908 30.5 116.638 30.77 116.638 31.1C116.638 31.43 116.908 31.7 117.223 31.7H120.313V40.475C120.313 40.82 120.598 41.105 120.958 41.105C121.303 41.105 121.588 40.82 121.588 40.475V31.7ZM131.016 41.15C134.061 41.15 136.371 38.87 136.371 35.75C136.371 32.555 134.061 30.35 131.016 30.35C127.896 30.35 125.661 32.705 125.661 35.75C125.661 38.945 127.971 41.15 131.016 41.15ZM131.016 31.55C133.266 31.55 135.021 33.305 135.021 35.75C135.021 38.12 133.416 39.95 131.016 39.95C128.766 39.95 127.011 38.135 127.011 35.75C127.011 33.305 128.736 31.55 131.016 31.55ZM145.933 40.52C145.933 40.385 145.873 40.22 145.768 40.085L142.978 36.56C144.133 36.26 145.258 35.225 145.258 33.59C145.258 31.895 144.388 30.47 141.523 30.47C141.298 30.47 140.128 30.485 139.333 30.5C138.988 30.5 138.703 30.785 138.703 31.13V40.475C138.703 40.82 138.988 41.105 139.348 41.105C139.693 41.105 139.978 40.82 139.978 40.475V36.8H141.688L144.703 40.745C144.883 40.97 145.078 41.105 145.348 41.105C145.708 41.105 145.933 40.835 145.933 40.52ZM139.978 31.7C140.473 31.685 141.118 31.67 141.448 31.67C143.308 31.67 143.908 32.525 143.908 33.605C143.908 34.85 142.738 35.6 141.523 35.6H139.978V31.7ZM146.322 31.04C146.322 31.16 146.352 31.28 146.427 31.4L149.607 36.5V40.475C149.607 40.82 149.892 41.105 150.252 41.105C150.597 41.105 150.882 40.82 150.882 40.475V36.5L154.137 31.31C154.197 31.205 154.242 31.085 154.242 30.965C154.242 30.68 154.047 30.425 153.672 30.425C153.387 30.425 153.192 30.59 153.012 30.89L150.297 35.3L147.597 30.89C147.402 30.56 147.237 30.425 146.967 30.425C146.577 30.425 146.322 30.71 146.322 31.04Z" fill="#D8C69E"/>
<mask id="mask0" mask-type="alpha" maskUnits="userSpaceOnUse" x="0" y="8" width="54" height="70">
<path d="M16.0955 43.0253C15.1243 41.9838 13.7865 41.4676 12.4504 41.5128C13.336 40.5083 13.791 39.144 13.609 37.73L21.0351 36.3847C21.19 37.033 21.4855 37.617 21.8828 38.1116L16.0955 43.0253ZM11.1288 34.1236C11.3036 34.0648 11.4756 33.997 11.6459 33.9165C12.7261 33.4048 13.5549 32.5251 14.0108 31.4257L21.1261 33.9934C20.936 34.5792 20.863 35.2139 20.9396 35.8667C20.9414 35.8839 20.9459 35.8983 20.9477 35.9155L13.5243 37.259C13.2036 35.8721 12.3045 34.7555 11.1288 34.1236ZM13.6603 27.0571C13.8405 27.0933 14.0225 27.1222 14.209 27.1376C14.345 27.1484 14.4792 27.1548 14.6135 27.1548C15.6612 27.1548 16.6639 26.8094 17.4991 26.1675L22.4261 32.0152C21.9441 32.4356 21.5603 32.96 21.2972 33.5468L14.1711 30.9755C14.5171 29.8372 14.4369 28.6285 13.9279 27.5444C13.8486 27.3745 13.7567 27.2135 13.6603 27.0571ZM19.3603 22.7645C19.3765 22.5764 19.3783 22.3893 19.372 22.2039C20.2261 22.9607 21.3405 23.4091 22.5261 23.4091C22.7279 23.4091 22.9333 23.391 23.1378 23.3648L24.5144 31.0153C23.8828 31.131 23.3035 31.3742 22.8044 31.7223L17.8621 25.8583C18.7288 25.0455 19.2612 23.9588 19.3603 22.7645ZM43.3431 36.6849C42.144 36.2527 40.8485 36.3142 39.6954 36.8603C38.6152 37.3702 37.7864 38.2517 37.3305 39.3511L29.5387 36.5393C29.6891 35.9996 29.7405 35.4228 29.6711 34.8315C29.5801 34.0531 29.29 33.3479 28.8603 32.7566L35.181 27.3916C35.99 28.2614 37.0738 28.7957 38.263 28.8952C38.399 28.9069 38.5341 28.9132 38.6693 28.9132C39.7945 28.9132 40.8729 28.5173 41.7422 27.7804C41.8422 27.6945 41.8549 27.5435 41.7702 27.4432C41.6846 27.3419 41.535 27.3311 41.4341 27.4143C40.5576 28.1583 39.4458 28.5163 38.3026 28.4196C37.5386 28.3545 36.8233 28.0887 36.2098 27.6602C36.5008 27.6538 36.8242 27.6014 37.1783 27.4938C38.1026 27.2144 39.1332 26.6168 40.0828 25.8104C40.1828 25.7254 40.1954 25.5744 40.1098 25.4731C40.0251 25.3728 39.8756 25.361 39.7747 25.446C38.8747 26.2091 37.9035 26.7741 37.0413 27.0354C36.2558 27.2741 35.6522 27.2271 35.3819 26.908V26.9071H35.381C35.1116 26.587 35.1666 25.9804 35.5305 25.2435C35.9314 24.4343 36.6468 23.5664 37.5468 22.8024C37.6477 22.7175 37.6603 22.5665 37.5747 22.4652C37.49 22.364 37.3395 22.3531 37.2395 22.4372C36.29 23.2427 35.5314 24.164 35.1035 25.0319C34.9405 25.3628 34.8341 25.673 34.7792 25.9577C33.9729 24.2372 34.3729 22.118 35.8873 20.8333C35.9873 20.7483 36.0008 20.5973 35.9152 20.497C35.8296 20.3957 35.6801 20.384 35.5792 20.4681C34.6062 21.2944 34.0125 22.4507 33.9062 23.7255C33.8062 24.9207 34.1522 26.0807 34.8729 27.0264L28.5585 32.3859C27.6765 31.414 26.3792 30.8525 24.9873 30.9538L23.6071 23.278C26.0639 22.7048 27.6756 20.2899 27.2234 17.7702C27.199 17.64 27.0756 17.5532 26.9459 17.5776C26.8161 17.6012 26.7306 17.7259 26.754 17.8552C27.1062 19.8135 26.0711 21.7031 24.3576 22.514C24.4963 22.26 24.6108 21.9526 24.6945 21.5937C24.9153 20.6507 24.9144 19.4555 24.6936 18.2286C24.6711 18.0984 24.5459 18.0098 24.4171 18.0351C24.2882 18.0586 24.2017 18.1834 24.2243 18.3136C24.4342 19.4781 24.4369 20.6037 24.2306 21.4843C24.0432 22.2853 23.7008 22.788 23.29 22.8621C22.8792 22.9371 22.3828 22.5864 21.9297 21.9011C21.4297 21.1479 21.0396 20.0919 20.8306 18.9284C20.8063 18.7982 20.6828 18.7105 20.5531 18.7349C20.4243 18.7584 20.3378 18.8832 20.3612 19.0125C20.5819 20.2402 20.9972 21.3604 21.5324 22.166C21.7369 22.4733 21.9504 22.7211 22.1693 22.9109C21.0423 22.816 20.0108 22.2763 19.2855 21.4382C19.1306 20.648 18.781 19.9057 18.2495 19.2737C18.2423 19.2656 18.2324 19.262 18.2243 19.2547C18.2135 19.2439 18.2009 19.234 18.1864 19.2249C18.1747 19.2177 18.1612 19.2123 18.1468 19.2068C18.1324 19.2014 18.1171 19.1969 18.1018 19.1942C18.0864 19.1924 18.0711 19.1933 18.0567 19.1933C18.0459 19.1942 18.0351 19.1906 18.0252 19.1933C18.0198 19.1942 18.0153 19.1978 18.0099 19.1987C17.9955 19.2023 17.9828 19.2086 17.9684 19.2159C17.954 19.2222 17.9387 19.2294 17.9252 19.2385C17.9216 19.2421 17.9162 19.2421 17.9135 19.2457C17.9054 19.2529 17.9018 19.262 17.8946 19.2692C17.8828 19.281 17.8729 19.2927 17.8648 19.3072C17.8567 19.3207 17.8513 19.3343 17.8459 19.3497C17.8405 19.3632 17.8369 19.3768 17.8342 19.3922C17.8315 19.4084 17.8324 19.4247 17.8333 19.441C17.8333 19.4509 17.8306 19.4609 17.8324 19.4708C17.9819 20.3008 18.3387 21.0394 18.8369 21.6488C18.8954 22.0005 18.9162 22.3603 18.8864 22.7247C18.8216 23.4914 18.5576 24.2092 18.1306 24.8231C18.1243 24.532 18.0702 24.2083 17.9639 23.853C17.6855 22.9263 17.09 21.892 16.2873 20.9391C16.2009 20.8378 16.0513 20.827 15.9513 20.9111C15.8504 20.996 15.8378 21.147 15.9234 21.2483C16.6837 22.1515 17.2468 23.1261 17.5072 23.9913C17.745 24.7788 17.6982 25.3864 17.3792 25.6567C17.0612 25.9279 16.4567 25.8728 15.7225 25.5075C14.9144 25.1061 14.0495 24.3882 13.2892 23.4841C13.2045 23.3829 13.054 23.372 12.9531 23.4561C12.8522 23.5411 12.8405 23.6921 12.9252 23.7933C13.7279 24.7444 14.6459 25.5066 15.5108 25.936C15.8432 26.1006 16.1531 26.2055 16.4396 26.2606C15.7639 26.5825 15.0144 26.7253 14.2486 26.6611C13.8874 26.6304 13.5387 26.5517 13.2045 26.436C12.6765 25.8285 12.0027 25.3592 11.2261 25.079C11.2153 25.0753 11.2054 25.0762 11.1964 25.0753C11.1793 25.0717 11.1639 25.069 11.1486 25.0681C11.1333 25.0681 11.1198 25.0708 11.1045 25.0735C11.0883 25.0753 11.0747 25.0781 11.0585 25.0844C11.045 25.0898 11.0324 25.0979 11.0198 25.1061C11.0099 25.1124 11 25.1142 10.991 25.1215C10.9865 25.1251 10.9847 25.1305 10.9811 25.1341C10.9711 25.145 10.963 25.1558 10.954 25.1685C10.9441 25.1829 10.9342 25.1956 10.9288 25.211C10.9261 25.2164 10.9225 25.2191 10.9207 25.2236C10.9171 25.2327 10.9189 25.2426 10.9162 25.2525C10.9126 25.2688 10.909 25.2842 10.909 25.3014C10.909 25.3167 10.9117 25.3312 10.9144 25.3457C10.9171 25.361 10.9198 25.3755 10.9252 25.39C10.9315 25.4053 10.9396 25.418 10.9486 25.4325C10.954 25.4406 10.9567 25.4515 10.963 25.4587C11.4973 26.0916 12.1702 26.5617 12.9225 26.8456C13.1468 27.1186 13.3423 27.4188 13.4964 27.7488C13.8243 28.444 13.9522 29.1971 13.8883 29.9439C13.7378 29.6953 13.5297 29.4412 13.2612 29.1872C12.5567 28.5254 11.5261 27.9278 10.3567 27.5065C10.2315 27.4595 10.0964 27.5255 10.0513 27.6502C10.0072 27.7741 10.0711 27.9115 10.1955 27.9558C11.3045 28.3563 12.2774 28.9178 12.9342 29.5362C13.5324 30.0994 13.7946 30.6491 13.6531 31.0424C13.5126 31.4375 12.9612 31.6934 12.1432 31.7449C11.2423 31.8037 10.1378 31.6138 9.02791 31.2142C8.90448 31.1699 8.76755 31.2341 8.7225 31.3579C8.67926 31.4818 8.74322 31.6192 8.86755 31.6644C9.89637 32.036 10.9306 32.2331 11.8198 32.2331C11.9405 32.2331 12.0594 32.2304 12.1729 32.2232C12.5423 32.1987 12.863 32.1364 13.1378 32.0405C12.7126 32.6571 12.1351 33.1562 11.4423 33.4835C11.1135 33.639 10.7711 33.7457 10.4234 33.8144C9.68016 33.5576 8.86394 33.4799 8.03602 33.6299C8.02611 33.6317 8.0189 33.6381 8.00899 33.6408C7.99367 33.6462 7.97746 33.6516 7.96304 33.6598C7.94953 33.667 7.93872 33.6751 7.92881 33.6851C7.9162 33.6959 7.90449 33.705 7.89367 33.7176C7.88467 33.7312 7.87746 33.7439 7.86935 33.7583C7.86485 33.7683 7.85764 33.7755 7.85404 33.7845C7.85223 33.79 7.85404 33.7945 7.85223 33.7999C7.84773 33.8144 7.84683 33.8297 7.84503 33.846C7.84413 33.8614 7.84232 33.8777 7.84413 33.893C7.84503 33.8985 7.84322 33.903 7.84413 33.9084C7.84593 33.9183 7.85223 33.9265 7.85494 33.9355C7.85944 33.9518 7.86485 33.9663 7.87295 33.9807C7.88016 33.9952 7.89007 34.0051 7.89908 34.0169C7.90899 34.0296 7.9189 34.0404 7.93061 34.0503C7.94322 34.0603 7.95674 34.0675 7.97025 34.0748C7.98016 34.0793 7.98737 34.0865 7.99818 34.091C8.52521 34.2809 9.07025 34.3758 9.61529 34.3758C9.86935 34.3758 10.1216 34.3478 10.3729 34.3062C11.4162 34.6959 12.2856 35.4815 12.7684 36.5158C11.8495 36.0077 10.263 35.8486 8.49277 36.1687C8.36304 36.1913 8.27656 36.316 8.30088 36.4462C8.3234 36.5755 8.44773 36.6623 8.57656 36.6397C11.1045 36.1813 12.9612 36.7545 13.1099 37.5772C13.2576 38.4 11.718 39.588 9.18917 40.0463C9.05944 40.0689 8.97385 40.1937 8.99728 40.3239C9.0189 40.4396 9.1189 40.5201 9.23151 40.5201C9.24502 40.5201 9.25944 40.5201 9.27475 40.5174C11.045 40.1964 12.4747 39.4903 13.1585 38.692C13.0666 39.8284 12.527 40.8682 11.6874 41.5987C10.918 41.7506 10.1748 42.0932 9.53421 42.6366C9.5261 42.6429 9.5216 42.6529 9.51439 42.661C9.50448 42.6727 9.49457 42.6836 9.48556 42.6981C9.47746 42.7116 9.47205 42.7252 9.46755 42.7406C9.46214 42.7541 9.45764 42.7677 9.45493 42.7821C9.45313 42.7993 9.45313 42.8156 9.45403 42.8319C9.45493 42.8427 9.45133 42.8518 9.45403 42.8617C9.45403 42.8644 9.45763 42.8662 9.45854 42.8698C9.46664 42.9069 9.48016 42.9422 9.50628 42.9729C9.51259 42.9819 9.5225 42.9856 9.52971 42.9928C9.53691 42.9991 9.54322 43.0037 9.54953 43.0073C9.58917 43.038 9.63421 43.0543 9.68196 43.0561C9.68466 43.0561 9.68556 43.0579 9.68827 43.0579C9.70178 43.0579 9.71619 43.057 9.73061 43.0543C10.5567 42.9051 11.2928 42.548 11.9 42.0489C12.9919 41.8654 14.1306 42.1077 15.0621 42.755C14.772 42.7623 14.4495 42.8165 14.0973 42.9232C13.1738 43.2025 12.1423 43.8002 11.1937 44.6057C11.0928 44.6907 11.0811 44.8417 11.1657 44.9429C11.2513 45.0433 11.4018 45.056 11.5018 44.971C12.4018 44.207 13.3729 43.6419 14.2351 43.3807C15.0198 43.142 15.6252 43.189 15.8937 43.5081V43.509H15.8946C16.4315 44.1482 15.6901 45.9492 13.7297 47.6137C13.6288 47.6995 13.6162 47.8505 13.7018 47.9509C13.7495 48.0069 13.8162 48.0359 13.8837 48.0359C13.9369 48.0359 13.9928 48.0169 14.0369 47.9789C15.4108 46.8126 16.2991 45.4836 16.4919 44.4493C17.3054 46.1716 16.9054 48.2953 15.3892 49.5828C15.2883 49.6687 15.2765 49.8197 15.3612 49.92C15.4081 49.9752 15.4756 50.005 15.5432 50.005C15.5973 50.005 15.6522 49.986 15.6973 49.948C16.6702 49.1217 17.2639 47.9653 17.3702 46.6906C17.4693 45.4963 17.1243 44.3354 16.4036 43.3897L22.2008 38.4687C22.627 38.8954 23.136 39.2345 23.6999 39.4569C19.3801 53.4144 11.4964 66.2101 1.05405 76.2899L1.03964 76.3044C0.653153 76.6922 0.653154 77.3224 1.04144 77.7093C1.42883 78.0972 2.05585 78.0972 2.44234 77.7075C12.9279 67.1639 20.6693 53.9641 24.7558 39.7227C25.1026 39.767 25.4594 39.7733 25.8216 39.7308C25.9144 39.72 26.0053 39.7001 26.0972 39.6847L28.4234 47.3741C26.0486 48.2293 24.727 50.816 25.4675 53.2652C25.499 53.3682 25.5936 53.4352 25.6954 53.4352C25.7189 53.4352 25.7423 53.4315 25.7648 53.4243C25.8909 53.3863 25.9621 53.2534 25.9243 53.1259C25.3477 51.2192 26.1612 49.2184 27.7747 48.214C27.3783 49.1877 27.4044 50.7889 27.927 52.5157C27.9585 52.6187 28.0522 52.6857 28.1549 52.6857C28.1774 52.6857 28.2017 52.6829 28.2243 52.6757C28.3504 52.6368 28.4216 52.503 28.3837 52.3774C27.6369 49.9101 27.9891 47.9934 28.7864 47.7502C29.5774 47.5088 30.9378 48.9038 31.6846 51.3711C31.7224 51.4977 31.8522 51.57 31.981 51.5302C32.1062 51.4922 32.1783 51.3593 32.1405 51.2319C31.617 49.505 30.7531 48.1606 29.8837 47.5712C31.7801 47.5061 33.5657 48.7139 34.1432 50.6216C34.181 50.7482 34.3152 50.8205 34.4396 50.7816C34.5657 50.7427 34.6368 50.6098 34.599 50.4833C33.8576 48.0341 31.3251 46.621 28.8783 47.2339L26.5612 39.5735C27.8657 39.1838 28.8954 38.2173 29.3864 36.9923L37.1702 39.8013C36.435 42.2225 37.7152 44.8308 40.1152 45.697C40.1413 45.7069 40.1693 45.7114 40.1954 45.7114C40.2936 45.7114 40.3855 45.6499 40.4197 45.5532C40.4648 45.4284 40.4008 45.2919 40.2765 45.2467C38.4107 44.5741 37.2972 42.7297 37.454 40.8347C37.6044 41.0833 37.8116 41.3365 38.0801 41.5887C38.7837 42.2514 39.8152 42.8481 40.9846 43.2704C41.0107 43.2794 41.0386 43.2839 41.0648 43.2839C41.1621 43.2839 41.254 43.2233 41.2891 43.1257C41.3341 43.0018 41.2693 42.8644 41.1458 42.8192C40.0359 42.4196 39.063 41.8591 38.4071 41.2397C37.8089 40.6765 37.5468 40.1277 37.6882 39.7326C37.8287 39.3393 38.3792 39.0835 39.1981 39.031C40.0954 38.9723 41.2026 39.1621 42.3134 39.5626C42.4377 39.6078 42.5738 39.5419 42.617 39.418C42.6621 39.2941 42.5981 39.1576 42.4738 39.1124C41.3044 38.6902 40.1296 38.4931 39.1666 38.5537C38.799 38.5772 38.4774 38.6396 38.2035 38.7354C38.6278 38.1188 39.2044 37.6197 39.899 37.2924C40.9359 36.8024 42.1017 36.7464 43.1819 37.1351C43.3071 37.1803 43.4422 37.1161 43.4864 36.9914C43.5314 36.8666 43.4675 36.7301 43.3431 36.6849Z" fill="#D7C59D"/>
<path d="M28.8302 25.7441C29.004 25.6103 29.1428 25.4548 29.25 25.2794C29.3572 25.1049 29.4329 24.9114 29.4725 24.6953C29.4896 24.5841 29.5013 24.4693 29.4968 24.3454L35.6085 14.8443C36.3382 15.2683 37.1481 15.4961 37.977 15.4961C38.3148 15.4961 38.6545 15.4599 38.9914 15.3867C40.2373 15.1182 41.3049 14.3777 41.995 13.3028C42.0671 13.1925 42.0346 13.0442 41.9247 12.9728C41.8139 12.9004 41.6662 12.933 41.595 13.0442C40.5157 14.7231 38.4617 15.3921 36.6527 14.7981C37.6517 14.4772 38.8563 13.4284 39.8373 11.9041C39.9085 11.7929 39.8761 11.6456 39.7662 11.5741C39.6553 11.5027 39.5085 11.5343 39.4355 11.6456C38.0436 13.8109 36.3581 14.7819 35.6581 14.3271C34.9581 13.8742 35.1445 11.934 36.5382 9.76774C36.6094 9.65653 36.5779 9.50826 36.4671 9.43683C36.3563 9.36541 36.2085 9.39705 36.1373 9.50826C35.1608 11.0262 34.6977 12.5587 34.8139 13.6056C34.3067 13.0487 33.9518 12.3697 33.7887 11.6139C33.5464 10.4883 33.7572 9.33648 34.3788 8.36909C34.45 8.25789 34.4184 8.10962 34.3076 8.03819C34.1968 7.96677 34.05 7.99841 33.9788 8.10962C32.5959 10.2596 33.1572 13.112 35.2058 14.5893L29.1238 24.0444C28.9824 24.1031 28.8626 24.1746 28.7545 24.2541C28.5806 24.387 28.4428 24.5434 28.3365 24.7179C28.2302 24.8942 28.1545 25.0877 28.1148 25.3047C28.0806 25.5235 28.0689 25.7576 28.1518 26.0488C28.4491 25.9909 28.6509 25.8743 28.8302 25.7441Z" fill="#D7C59D"/>
<path d="M53.2224 13.5675C53.1711 13.4924 53.0693 13.4726 52.9945 13.5232C52.3414 13.9653 51.5576 14.1262 50.7837 13.9752C50.2684 13.874 49.8071 13.6335 49.4216 13.2972C49.4747 13.3017 49.5243 13.3098 49.5801 13.3098C49.736 13.3098 49.9035 13.2935 50.0855 13.2592C50.736 13.1371 51.4837 12.8062 52.1909 12.328C52.2657 12.2764 52.2864 12.1752 52.2351 12.0992C52.1855 12.0251 52.0828 12.0043 52.008 12.0558C51.3369 12.5097 50.6333 12.8225 50.0243 12.9364C49.4711 13.0404 49.0621 12.9635 48.9017 12.7249C48.5828 12.2493 49.2225 11.0749 50.6846 10.0849C50.7594 10.0343 50.7783 9.9321 50.7279 9.85706C50.6774 9.78202 50.5756 9.76213 50.5008 9.81276C49.4747 10.5071 48.7792 11.3479 48.572 12.0405C48.4008 11.5513 48.3513 11.027 48.4522 10.5062C48.6017 9.72958 49.0441 9.05965 49.6972 8.61754C49.772 8.56691 49.7918 8.46475 49.7414 8.38971C49.6909 8.31467 49.5891 8.29387 49.5143 8.34541C48.7891 8.83633 48.2972 9.58131 48.1315 10.4429C47.9747 11.2503 48.1243 12.0694 48.5459 12.7683L42.4477 16.8964C42.3558 16.8955 42.2711 16.9045 42.1918 16.9217C42.0459 16.9561 41.9126 17.0103 41.7964 17.0899C41.6792 17.1676 41.5792 17.2698 41.4918 17.3927C41.4063 17.5157 41.3333 17.6603 41.3018 17.8656C41.5018 17.9144 41.663 17.9026 41.8099 17.8692C41.9567 17.8366 42.0891 17.7815 42.2054 17.7028C42.3234 17.626 42.4243 17.5238 42.5108 17.4009C42.5585 17.3331 42.6 17.2544 42.6351 17.1649L48.7288 13.0404C49.2171 13.695 49.9162 14.1398 50.7216 14.2971C50.9315 14.3387 51.1423 14.3586 51.3531 14.3586C51.999 14.3586 52.6306 14.166 53.1774 13.7953C53.2522 13.7447 53.2729 13.6425 53.2224 13.5675Z" fill="#D7C59D"/>
<path d="M49.2831 31.9668C47.957 32.4478 46.5155 31.9469 45.7444 30.8385C45.939 30.9054 46.1669 30.9497 46.4281 30.966C46.5065 30.9705 46.5876 30.9723 46.6696 30.9723C47.3038 30.9723 48.0417 30.8304 48.7768 30.5628C48.8642 30.5311 48.9101 30.4344 48.8786 30.3458C48.8462 30.2572 48.748 30.2129 48.6615 30.2436C47.8741 30.5302 47.0876 30.6658 46.4489 30.627C45.8678 30.5917 45.4759 30.41 45.375 30.1306C45.2741 29.8503 45.4597 29.4598 45.884 29.0583C46.3489 28.6181 47.0399 28.2175 47.8272 27.9309C47.9146 27.8993 47.9597 27.8026 47.9281 27.714C47.8966 27.6253 47.8002 27.5801 47.7119 27.6118C46.8813 27.9138 46.1489 28.3396 45.6516 28.8115C45.4615 28.9914 45.3137 29.1714 45.2074 29.3486C45.093 28.0015 45.8813 26.6905 47.2047 26.2086C47.293 26.177 47.339 26.0793 47.3074 25.9916C47.275 25.903 47.1777 25.8578 47.0894 25.8886C45.3867 26.5088 44.4813 28.364 45.0074 30.0827L37.8669 32.6775C37.7219 32.6314 37.5885 32.616 37.4606 32.6169C37.2741 32.6124 37.1029 32.6503 36.9426 32.7118C36.7831 32.7769 36.6318 32.8646 36.4975 32.9948C36.3606 33.1187 36.2354 33.2733 36.1426 33.511C36.3705 33.6232 36.5669 33.6512 36.7516 33.6503C36.939 33.6557 37.1083 33.6177 37.2705 33.5572C37.4309 33.493 37.5822 33.4053 37.7164 33.276C37.7966 33.2027 37.8714 33.1169 37.939 33.012L45.1272 30.4009C45.666 31.6893 46.9146 32.4894 48.248 32.4894C48.629 32.4894 49.0182 32.4243 49.3975 32.2869C49.4867 32.2534 49.5308 32.1567 49.4993 32.0681C49.4678 31.9804 49.3714 31.9352 49.2831 31.9668Z" fill="#D7C59D"/>
</mask>
<g mask="url(#mask0)">
<path d="M-8 0H64V72H22C5.43146 72 -8 58.5685 -8 42V0Z" fill="#D8C69E"/>
</g>
</svg>
