<svg width="337" height="115" viewBox="0 0 337 115" fill="none" xmlns="http://www.w3.org/2000/svg">
<path d="M116.92 44.8921L123.544 54.0361C124.012 54.6841 124.66 55.0081 125.272 55.0081C125.884 55.0081 126.496 54.6841 126.964 54.0361L133.552 44.7841V61.6681C133.552 62.3881 134.164 63.0001 134.884 63.0001H136.612C137.332 63.0001 137.944 62.3881 137.944 61.6681V39.1321C137.944 38.4121 137.332 37.8001 136.612 37.8001H134.848C134.2 37.8001 133.516 38.1601 133.156 38.7001L125.56 49.5721L117.604 38.7001C117.208 38.1601 116.524 37.8001 115.876 37.8001H113.824C113.104 37.8001 112.492 38.4121 112.492 39.1321V61.6681C112.492 62.3881 113.104 63.0001 113.824 63.0001H115.588C116.308 63.0001 116.92 62.3881 116.92 61.6681V44.8921Z" fill="#D8C69E"/>
<path d="M159.881 60.1921C159.881 59.4721 159.269 58.8601 158.549 58.8601H149.369V52.3441H157.109C157.829 52.3441 158.441 51.7321 158.441 51.0121V49.5361C158.441 48.8161 157.829 48.2041 157.109 48.2041H149.369V41.9401H158.189C158.909 41.9401 159.521 41.3281 159.521 40.6081V39.1321C159.521 38.4121 158.909 37.8001 158.189 37.8001H146.273C145.553 37.8001 144.941 38.4121 144.941 39.1321V61.6681C144.941 62.3881 145.553 63.0001 146.273 63.0001H158.549C159.269 63.0001 159.881 62.3881 159.881 61.6681V60.1921Z" fill="#D8C69E"/>
<path d="M170.076 44.8921L176.7 54.0361C177.168 54.6841 177.816 55.0081 178.428 55.0081C179.04 55.0081 179.652 54.6841 180.12 54.0361L186.708 44.7841V61.6681C186.708 62.3881 187.32 63.0001 188.04 63.0001H189.768C190.488 63.0001 191.1 62.3881 191.1 61.6681V39.1321C191.1 38.4121 190.488 37.8001 189.768 37.8001H188.004C187.356 37.8001 186.672 38.1601 186.312 38.7001L178.716 49.5721L170.76 38.7001C170.364 38.1601 169.68 37.8001 169.032 37.8001H166.98C166.26 37.8001 165.648 38.4121 165.648 39.1321V61.6681C165.648 62.3881 166.26 63.0001 166.98 63.0001H168.744C169.464 63.0001 170.076 62.3881 170.076 61.6681V44.8921Z" fill="#D8C69E"/>
<path d="M196.225 50.4001C196.225 58.2481 201.841 63.3961 209.329 63.3961C216.817 63.3961 222.469 57.9601 222.469 50.4001C222.469 42.5521 216.817 37.4041 209.329 37.4041C201.589 37.4041 196.225 43.0921 196.225 50.4001ZM200.905 50.4001C200.905 45.1801 204.505 41.5441 209.329 41.5441C214.081 41.5441 217.789 45.1801 217.789 50.4001C217.789 55.3681 214.621 59.2561 209.329 59.2561C204.613 59.2561 200.905 55.4401 200.905 50.4001Z" fill="#D8C69E"/>
<path d="M226.046 58.5001C225.83 58.7161 225.722 59.0041 225.722 59.2921C225.722 59.6881 225.902 60.0841 226.19 60.3361C228.674 62.6401 230.906 63.3961 233.642 63.3961C238.358 63.3961 242.066 60.5161 242.066 56.2681C242.066 47.8801 230.654 49.5361 230.654 44.3161C230.654 42.6601 231.986 41.5441 234.182 41.5441C235.262 41.5441 236.45 41.8321 237.782 42.4801C237.998 42.5881 238.214 42.6241 238.43 42.6241C238.898 42.6241 239.33 42.3721 239.618 41.9041L240.302 40.7161C240.41 40.5361 240.482 40.3201 240.482 40.1041C240.482 39.6361 240.23 39.1681 239.834 38.9521C237.926 37.8721 236.126 37.4041 233.822 37.4041C228.926 37.4041 225.974 40.5721 225.974 44.3521C225.974 52.5601 237.386 51.3361 237.386 56.3041C237.386 58.2121 235.802 59.2561 233.714 59.2561C232.31 59.2561 230.762 58.5721 229.142 57.2401C228.854 56.9881 228.494 56.8441 228.134 56.8441C227.81 56.8441 227.522 56.9521 227.234 57.2401L226.046 58.5001Z" fill="#D8C69E"/>
<path d="M255.312 63.0001C256.032 63.0001 256.644 62.3881 256.644 61.6681V41.9401H263.484C264.204 41.9401 264.816 41.3281 264.816 40.6081V39.1321C264.816 38.4121 264.204 37.8001 263.484 37.8001H245.376C244.656 37.8001 244.044 38.4121 244.044 39.1321V40.6081C244.044 41.3281 244.656 41.9401 245.376 41.9401H252.216V61.6681C252.216 62.3881 252.828 63.0001 253.548 63.0001H255.312Z" fill="#D8C69E"/>
<path d="M265.624 50.4001C265.624 58.2481 271.24 63.3961 278.728 63.3961C286.216 63.3961 291.868 57.9601 291.868 50.4001C291.868 42.5521 286.216 37.4041 278.728 37.4041C270.988 37.4041 265.624 43.0921 265.624 50.4001ZM270.304 50.4001C270.304 45.1801 273.904 41.5441 278.728 41.5441C283.48 41.5441 287.188 45.1801 287.188 50.4001C287.188 55.3681 284.02 59.2561 278.728 59.2561C274.012 59.2561 270.304 55.4401 270.304 50.4001Z" fill="#D8C69E"/>
<path d="M310.816 62.1001C311.212 62.6401 311.896 63.0001 312.544 63.0001H314.2C314.956 63.0001 315.496 62.3881 315.496 61.7041C315.496 61.4521 315.424 61.1641 315.208 60.9121L308.944 52.7041C311.032 51.9841 313.804 49.8241 313.804 45.5041C313.804 41.1481 311.536 37.7281 304.66 37.7281C304.084 37.7281 300.484 37.7641 298.324 37.8001C297.568 37.8001 296.992 38.4121 296.992 39.1321V61.6681C296.992 62.3881 297.604 63.0001 298.324 63.0001H300.088C300.808 63.0001 301.42 62.3881 301.42 61.6681V53.5681H304.516L310.816 62.1001ZM301.42 49.4281V41.9401C302.608 41.9041 303.616 41.8681 304.444 41.8681C308.044 41.8681 309.124 43.5601 309.124 45.5401C309.124 48.1321 306.856 49.4281 304.3 49.4281H301.42Z" fill="#D8C69E"/>
<path d="M321.193 38.7361C320.833 38.1601 320.185 37.8001 319.537 37.8001H317.989C317.197 37.8001 316.621 38.4481 316.621 39.1321C316.621 39.3841 316.693 39.6361 316.837 39.8521L324.469 52.4881V61.6681C324.469 62.3881 325.081 63.0001 325.801 63.0001H327.565C328.285 63.0001 328.897 62.3881 328.897 61.6681V52.4881L336.601 39.8521C336.745 39.6361 336.781 39.3841 336.781 39.1681C336.781 38.4481 336.241 37.8001 335.449 37.8001H334.153C333.505 37.8001 332.857 38.1601 332.533 38.7361L326.881 48.3481L321.193 38.7361Z" fill="#D8C69E"/>
<mask id="mask0" style="mask-type:alpha" maskUnits="userSpaceOnUse" x="14" y="11" width="78" height="104">
<path d="M36.9207 62.6467C35.4886 61.111 33.5159 60.3497 31.5459 60.4164C32.8517 58.9353 33.5226 56.9236 33.2542 54.8385L44.2044 52.8548C44.4329 53.8107 44.8686 54.6719 45.4545 55.4011L36.9207 62.6467ZM29.5971 49.5206C29.8548 49.434 30.1085 49.334 30.3596 49.2153C31.9524 48.4608 33.1745 47.1636 33.8467 45.5425L44.3386 49.3286C44.0583 50.1925 43.9507 51.1284 44.0636 52.0909C44.0663 52.1162 44.0729 52.1376 44.0756 52.1629L33.1293 54.144C32.6564 52.0989 31.3307 50.4525 29.5971 49.5206ZM33.3299 39.1008C33.5956 39.1541 33.864 39.1967 34.139 39.2194C34.3395 39.2354 34.5375 39.2447 34.7354 39.2447C36.2804 39.2447 37.7589 38.7355 38.9904 37.7889L46.2555 46.4117C45.5448 47.0316 44.9789 47.8049 44.591 48.6701L34.0832 44.8786C34.5933 43.2002 34.475 41.4178 33.7245 39.8193C33.6076 39.5687 33.4721 39.3314 33.3299 39.1008ZM41.7349 32.771C41.7588 32.4937 41.7614 32.2177 41.7521 31.9444C43.0115 33.0603 44.6547 33.7215 46.403 33.7215C46.7005 33.7215 47.0034 33.6949 47.305 33.6562L49.3348 44.9373C48.4036 45.1079 47.5494 45.4665 46.8134 45.9798L39.5257 37.333C40.8036 36.1345 41.5887 34.5321 41.7349 32.771ZM77.0988 53.2974C75.3307 52.6602 73.4204 52.7508 71.72 53.556C70.1273 54.3079 68.9051 55.6077 68.2329 57.2288L56.7434 53.0828C56.9652 52.2869 57.041 51.4363 56.9387 50.5645C56.8045 49.4166 56.3768 48.3768 55.7431 47.5049L65.0633 39.594C66.2562 40.8765 67.8543 41.6644 69.6079 41.811C69.8084 41.8284 70.0077 41.8377 70.207 41.8377C71.8662 41.8377 73.4563 41.2538 74.7382 40.1673C74.8857 40.0406 74.9043 39.818 74.7794 39.67C74.6532 39.5207 74.4327 39.5047 74.2839 39.6273C72.9913 40.7245 71.3521 41.2524 69.6663 41.1098C68.5398 41.0138 67.485 40.6219 66.5804 39.99C67.0095 39.9806 67.4864 39.9033 68.0084 39.7447C69.3714 39.3327 70.8911 38.4515 72.2913 37.2623C72.4387 37.137 72.4573 36.9144 72.3311 36.7651C72.2062 36.6171 71.9857 36.5998 71.8369 36.7251C70.5099 37.8503 69.0778 38.6835 67.8065 39.0688C66.6481 39.4207 65.7581 39.3514 65.3596 38.8808V38.8794H65.3582C64.961 38.4075 65.0421 37.513 65.5787 36.4265C66.1699 35.2333 67.2247 33.9535 68.5518 32.827C68.7005 32.7017 68.7191 32.479 68.5929 32.3297C68.4681 32.1804 68.2462 32.1644 68.0988 32.2884C66.6986 33.4762 65.5801 34.8347 64.9491 36.1145C64.7086 36.6024 64.5519 37.0597 64.4708 37.4797C63.2819 34.9427 63.8717 31.8178 66.1048 29.9234C66.2523 29.7981 66.2722 29.5754 66.146 29.4275C66.0198 29.2781 65.7993 29.2608 65.6505 29.3848C64.2158 30.6033 63.3404 32.3084 63.1836 34.1881C63.0361 35.9505 63.5463 37.661 64.609 39.0554L55.2981 46.9583C53.9976 45.5252 52.0846 44.6973 50.0322 44.8466L47.9971 33.5282C51.6197 32.683 53.9962 29.1222 53.3294 25.4067C53.2935 25.2147 53.1115 25.0867 52.9202 25.1227C52.7289 25.1574 52.6027 25.3414 52.6372 25.532C53.1567 28.4196 51.6303 31.2059 49.1036 32.4017C49.3082 32.0271 49.4769 31.5738 49.6005 31.0446C49.9259 29.6541 49.9246 27.8917 49.5991 26.0826C49.5659 25.8906 49.3813 25.76 49.1913 25.7973C49.0014 25.832 48.8738 26.0159 48.907 26.2079C49.2166 27.925 49.2205 29.5848 48.9163 30.8833C48.64 32.0644 48.1352 32.8056 47.5295 32.915C46.9237 33.0256 46.1917 32.5084 45.5235 31.4978C44.7863 30.3873 44.2111 28.8302 43.9029 27.1145C43.867 26.9225 43.685 26.7932 43.4937 26.8292C43.3037 26.8638 43.1762 27.0478 43.2108 27.2384C43.5362 29.0489 44.1486 30.7006 44.9377 31.8884C45.2393 32.3417 45.5541 32.707 45.8769 32.987C44.215 32.847 42.694 32.0511 41.6246 30.8153C41.3961 29.6501 40.8807 28.5556 40.0969 27.6237C40.0863 27.6117 40.0717 27.6064 40.0597 27.5957C40.0438 27.5797 40.0252 27.5651 40.0039 27.5517C39.9867 27.5411 39.9667 27.5331 39.9455 27.5251C39.9242 27.5171 39.9016 27.5104 39.8791 27.5064C39.8565 27.5037 39.8339 27.5051 39.8126 27.5051C39.7967 27.5064 39.7808 27.5011 39.7661 27.5051C39.7582 27.5064 39.7515 27.5117 39.7436 27.5131C39.7223 27.5184 39.7037 27.5277 39.6825 27.5384C39.6612 27.5477 39.6386 27.5584 39.6187 27.5717C39.6134 27.5771 39.6054 27.5771 39.6014 27.5824C39.5895 27.593 39.5842 27.6064 39.5735 27.6171C39.5563 27.6344 39.5416 27.6517 39.5297 27.673C39.5177 27.693 39.5098 27.713 39.5018 27.7357C39.4938 27.7557 39.4885 27.7757 39.4845 27.7984C39.4805 27.8224 39.4819 27.8464 39.4832 27.8703C39.4832 27.885 39.4792 27.8997 39.4819 27.9143C39.7024 29.1382 40.2284 30.2273 40.9631 31.1259C41.0494 31.6445 41.08 32.1751 41.0361 32.7123C40.9405 33.8428 40.5512 34.9014 39.9216 35.8066C39.9123 35.3773 39.8326 34.9 39.6758 34.3761C39.2653 33.0096 38.3872 31.4845 37.2036 30.0794C37.0761 29.9301 36.8556 29.9141 36.7081 30.038C36.5593 30.1634 36.5407 30.386 36.6669 30.5353C37.7881 31.8671 38.6184 33.3042 39.0023 34.5801C39.353 35.7412 39.2839 36.6371 38.8137 37.0357C38.3447 37.4357 37.4534 37.3543 36.3707 36.8157C35.1791 36.2238 33.9038 35.1653 32.7826 33.8322C32.6578 33.6829 32.4359 33.6669 32.2871 33.7908C32.1383 33.9162 32.1211 34.1388 32.2459 34.2881C33.4296 35.6906 34.7832 36.8144 36.0585 37.4477C36.5487 37.6903 37.0057 37.8449 37.4281 37.9263C36.4318 38.4009 35.3266 38.6115 34.1974 38.5168C33.6647 38.4715 33.1506 38.3555 32.6578 38.1849C31.8793 37.289 30.8856 36.5971 29.7405 36.1838C29.7246 36.1785 29.71 36.1798 29.6967 36.1785C29.6715 36.1732 29.6489 36.1692 29.6263 36.1678C29.6037 36.1678 29.5838 36.1718 29.5612 36.1758C29.5373 36.1785 29.5174 36.1825 29.4935 36.1918C29.4735 36.1998 29.4549 36.2118 29.4363 36.2238C29.4217 36.2332 29.4071 36.2358 29.3938 36.2465C29.3872 36.2518 29.3845 36.2598 29.3792 36.2652C29.3646 36.2812 29.3526 36.2971 29.3394 36.3158C29.3247 36.3371 29.3101 36.3558 29.3022 36.3785C29.2982 36.3865 29.2929 36.3905 29.2902 36.3971C29.2849 36.4105 29.2875 36.4251 29.2836 36.4398C29.2782 36.4638 29.2729 36.4865 29.2729 36.5118C29.2729 36.5344 29.2769 36.5558 29.2809 36.5771C29.2849 36.5998 29.2889 36.6211 29.2968 36.6424C29.3061 36.6651 29.3181 36.6838 29.3314 36.7051C29.3394 36.7171 29.3433 36.7331 29.3526 36.7438C30.1404 37.677 31.1327 38.3702 32.242 38.7888C32.5727 39.1914 32.861 39.634 33.0882 40.1206C33.5717 41.1458 33.7603 42.2563 33.666 43.3575C33.4442 42.9909 33.1373 42.6163 32.7414 42.2416C31.7026 41.2658 30.1829 40.3846 28.4586 39.7633C28.274 39.694 28.0747 39.7913 28.0083 39.9753C27.9432 40.1579 28.0375 40.3606 28.2208 40.4259C29.8561 41.0165 31.2908 41.8444 32.2592 42.7562C33.1413 43.5868 33.5279 44.3973 33.3193 44.9773C33.1121 45.5598 32.2991 45.9371 31.0929 46.0131C29.7645 46.0998 28.1358 45.8198 26.4992 45.2306C26.3172 45.1652 26.1153 45.2599 26.0489 45.4425C25.9851 45.6252 26.0794 45.8278 26.2627 45.8945C27.7798 46.4424 29.3048 46.733 30.616 46.733C30.794 46.733 30.9693 46.729 31.1367 46.7183C31.6814 46.6823 32.1543 46.5904 32.5595 46.449C31.9324 47.3582 31.0809 48.0941 30.0594 48.5767C29.5745 48.806 29.0697 48.9633 28.5569 49.0647C27.461 48.6861 26.2574 48.5714 25.0366 48.7927C25.022 48.7954 25.0114 48.8047 24.9967 48.8087C24.9742 48.8167 24.9502 48.8247 24.929 48.8367C24.9091 48.8474 24.8931 48.8594 24.8785 48.874C24.8599 48.89 24.8426 48.9034 24.8267 48.922C24.8134 48.942 24.8028 48.9607 24.7908 48.982C24.7842 48.9967 24.7736 49.0073 24.7683 49.0207C24.7656 49.0287 24.7683 49.0353 24.7656 49.0433C24.759 49.0647 24.7576 49.0873 24.755 49.1113C24.7536 49.134 24.751 49.158 24.7536 49.1807C24.755 49.1887 24.7523 49.1953 24.7536 49.2033C24.7563 49.218 24.7656 49.23 24.7696 49.2433C24.7762 49.2673 24.7842 49.2886 24.7961 49.31C24.8068 49.3313 24.8214 49.346 24.8347 49.3633C24.8493 49.382 24.8639 49.398 24.8812 49.4126C24.8998 49.4273 24.9197 49.438 24.9396 49.4486C24.9542 49.4553 24.9649 49.466 24.9808 49.4726C25.7579 49.7526 26.5616 49.8926 27.3653 49.8926C27.7399 49.8926 28.1119 49.8512 28.4825 49.7899C30.0208 50.3645 31.3028 51.523 32.0148 53.0481C30.6598 52.2989 28.3205 52.0642 25.7101 52.5362C25.5188 52.5695 25.3913 52.7535 25.4271 52.9455C25.4604 53.1361 25.6437 53.2641 25.8336 53.2307C29.5612 52.5548 32.2991 53.4001 32.5183 54.6132C32.7361 55.8264 30.4659 57.5781 26.737 58.254C26.5457 58.2874 26.4195 58.4713 26.454 58.6633C26.4859 58.834 26.6334 58.9526 26.7994 58.9526C26.8193 58.9526 26.8406 58.9526 26.8632 58.9486C29.4735 58.4753 31.5817 57.4342 32.59 56.257C32.4545 57.9327 31.6588 59.4659 30.4207 60.543C29.2862 60.767 28.1903 61.2723 27.2458 62.0735C27.2338 62.0828 27.2272 62.0975 27.2165 62.1095C27.2019 62.1268 27.1873 62.1428 27.174 62.1641C27.1621 62.1841 27.1541 62.2041 27.1475 62.2268C27.1395 62.2468 27.1328 62.2668 27.1289 62.2881C27.1262 62.3135 27.1262 62.3375 27.1275 62.3615C27.1289 62.3774 27.1235 62.3908 27.1275 62.4054C27.1275 62.4094 27.1328 62.4121 27.1342 62.4174C27.1461 62.4721 27.1661 62.5241 27.2046 62.5694C27.2139 62.5828 27.2285 62.5881 27.2391 62.5987C27.2497 62.6081 27.259 62.6147 27.2683 62.6201C27.3268 62.6654 27.3932 62.6894 27.4636 62.6921C27.4676 62.6921 27.4689 62.6947 27.4729 62.6947C27.4928 62.6947 27.5141 62.6934 27.5354 62.6894C28.7535 62.4694 29.8388 61.9428 30.7342 61.2069C32.3442 60.9363 34.0234 61.2936 35.397 62.2481C34.9692 62.2588 34.4936 62.3388 33.9742 62.4961C32.6126 62.908 31.0915 63.7892 29.6927 64.9771C29.5439 65.1024 29.5267 65.325 29.6515 65.4743C29.7777 65.6223 29.9996 65.641 30.147 65.5157C31.4741 64.3892 32.9062 63.5559 34.1775 63.1707C35.3345 62.8187 36.2272 62.888 36.6231 63.3586V63.36H36.6244C37.4162 64.3025 36.3229 66.9581 33.4322 69.4124C33.2834 69.5391 33.2648 69.7617 33.391 69.9097C33.4615 69.9924 33.5598 70.035 33.6594 70.035C33.7378 70.035 33.8201 70.007 33.8852 69.951C35.9111 68.2313 37.2209 66.2716 37.5052 64.7464C38.7047 67.2861 38.1149 70.4176 35.8792 72.316C35.7304 72.4427 35.7131 72.6653 35.838 72.8133C35.9071 72.8946 36.0067 72.9386 36.1063 72.9386C36.1861 72.9386 36.2671 72.9106 36.3335 72.8546C37.7682 71.6361 38.6436 69.931 38.8004 68.0513C38.9465 66.2902 38.4377 64.5785 37.375 63.184L45.9234 55.9277C46.5517 56.5569 47.3023 57.0569 48.1339 57.3848C41.7641 77.9659 30.1391 96.8339 14.7413 111.697L14.7201 111.718C14.1502 112.29 14.1502 113.22 14.7227 113.79C15.2939 114.362 16.2185 114.362 16.7884 113.787C32.2499 98.2404 43.6651 78.7765 49.6908 57.7768C50.2022 57.8421 50.7283 57.8514 51.2623 57.7888C51.3992 57.7728 51.5333 57.7434 51.6688 57.7208L55.0988 69.0592C51.5971 70.3203 49.6483 74.1344 50.7403 77.7459C50.7868 77.8979 50.9262 77.9966 51.0763 77.9966C51.1109 77.9966 51.1454 77.9912 51.1786 77.9806C51.3646 77.9246 51.4696 77.7286 51.4138 77.5406C50.5636 74.729 51.7631 71.7788 54.1423 70.2977C53.5578 71.7335 53.5964 74.0945 54.3669 76.6408C54.4133 76.7927 54.5515 76.8914 54.7029 76.8914C54.7362 76.8914 54.772 76.8874 54.8052 76.8767C54.9912 76.8194 55.0962 76.6221 55.0404 76.4368C53.9391 72.7986 54.4585 69.9724 55.6342 69.6138C56.8005 69.2578 58.8064 71.3148 59.9077 74.953C59.9635 75.1396 60.1548 75.2463 60.3448 75.1876C60.5294 75.1316 60.6357 74.9357 60.5799 74.7477C59.8081 72.2014 58.5341 70.219 57.2522 69.3498C60.0485 69.2538 62.6815 71.0349 63.533 73.8478C63.5888 74.0345 63.7867 74.1411 63.97 74.0838C64.156 74.0265 64.2609 73.8305 64.2052 73.6438C63.1119 70.0324 59.3777 67.9487 55.7697 68.8525L52.353 57.5568C54.2765 56.9822 55.7949 55.5571 56.5189 53.7507L67.9965 57.8928C66.9125 61.4629 68.8002 65.309 72.3391 66.5862C72.3776 66.6008 72.4188 66.6075 72.4573 66.6075C72.6021 66.6075 72.7376 66.5169 72.7881 66.3742C72.8545 66.1902 72.7602 65.9889 72.5769 65.9223C69.8257 64.9304 68.1838 62.2108 68.4149 59.4165C68.6368 59.7832 68.9423 60.1564 69.3382 60.5284C70.3757 61.5056 71.8967 62.3854 73.621 63.008C73.6595 63.0214 73.7007 63.028 73.7393 63.028C73.8827 63.028 74.0182 62.9387 74.07 62.7947C74.1365 62.6121 74.0408 62.4094 73.8588 62.3428C72.2222 61.7535 70.7875 60.927 69.8204 60.0138C68.9383 59.1832 68.5518 58.374 68.7603 57.7914C68.9676 57.2115 69.7792 56.8342 70.9868 56.7569C72.3099 56.6703 73.9425 56.9502 75.5804 57.5408C75.7638 57.6075 75.9644 57.5101 76.0281 57.3275C76.0945 57.1449 76.0002 56.9436 75.8169 56.8769C74.0926 56.2543 72.3603 55.9637 70.9403 56.053C70.3983 56.0877 69.924 56.1797 69.5202 56.321C70.1459 55.4118 70.9961 54.6759 72.0203 54.1933C73.5493 53.4707 75.2683 53.3881 76.861 53.9613C77.0457 54.028 77.245 53.9333 77.3101 53.7493C77.3765 53.5654 77.2822 53.3641 77.0988 53.2974Z" fill="#D7C59D"/>
<path d="M55.6986 37.1645C55.9549 36.9672 56.1595 36.7379 56.3176 36.4793C56.4757 36.222 56.5873 35.9367 56.6457 35.6181C56.671 35.4541 56.6882 35.2848 56.6816 35.1021L65.6936 21.0921C66.7696 21.7174 67.9639 22.0533 69.186 22.0533C69.6842 22.0533 70.185 22 70.6819 21.892C72.5191 21.4961 74.0932 20.4042 75.1108 18.8191C75.2171 18.6565 75.1693 18.4378 75.0072 18.3325C74.8438 18.2259 74.6259 18.2739 74.521 18.4378C72.9295 20.9135 69.9007 21.9 67.2333 21.0241C68.7065 20.5509 70.4826 19.0044 71.9292 16.7567C72.0342 16.5928 71.9864 16.3755 71.8243 16.2701C71.6609 16.1648 71.4444 16.2115 71.3368 16.3755C69.2844 19.5683 66.7989 21.0001 65.7667 20.3296C64.7345 19.6617 65.0095 16.8007 67.0646 13.6065C67.1695 13.4425 67.123 13.2239 66.9596 13.1186C66.7962 13.0133 66.5784 13.0599 66.4734 13.2239C65.0334 15.4622 64.3506 17.7219 64.522 19.2657C63.774 18.4445 63.2507 17.4433 63.0102 16.3288C62.6529 14.669 62.9637 12.9706 63.8803 11.5441C63.9853 11.3802 63.9388 11.1615 63.7754 11.0562C63.612 10.9509 63.3954 10.9976 63.2905 11.1615C61.2514 14.3317 62.079 18.5378 65.0998 20.7162L56.1316 34.6582C55.9231 34.7448 55.7464 34.8502 55.587 34.9675C55.3306 35.1635 55.1273 35.3941 54.9706 35.6514C54.8138 35.9113 54.7022 36.1966 54.6438 36.5166C54.5933 36.8392 54.576 37.1845 54.6983 37.6138C55.1366 37.5284 55.4342 37.3565 55.6986 37.1645Z" fill="#D7C59D"/>
<path d="M91.6667 19.2094C91.591 19.0988 91.4409 19.0694 91.3306 19.1441C90.3675 19.796 89.2118 20.0333 88.0707 19.8107C87.3108 19.6614 86.6307 19.3067 86.0621 18.8108C86.1405 18.8175 86.2135 18.8295 86.2959 18.8295C86.5257 18.8295 86.7728 18.8055 87.0411 18.7548C88.0003 18.5748 89.1029 18.0869 90.1457 17.3817C90.2559 17.3057 90.2865 17.1564 90.2108 17.0444C90.1377 16.9351 89.9863 16.9044 89.876 16.9804C88.8863 17.6496 87.8488 18.1109 86.9508 18.2789C86.1352 18.4322 85.5321 18.3189 85.2956 17.9669C84.8253 17.2657 85.7685 15.5339 87.9246 14.0741C88.0348 13.9995 88.0627 13.8488 87.9883 13.7382C87.9139 13.6275 87.7638 13.5982 87.6536 13.6729C86.1405 14.6967 85.1149 15.9366 84.8094 16.9577C84.557 16.2365 84.4839 15.4633 84.6327 14.6954C84.8532 13.5502 85.5055 12.5624 86.4686 11.9105C86.5789 11.8358 86.6081 11.6852 86.5337 11.5745C86.4593 11.4639 86.3092 11.4332 86.1989 11.5092C85.1295 12.2331 84.4042 13.3316 84.1598 14.6021C83.9287 15.7926 84.1492 17.0004 84.7709 18.0309L75.7788 24.1181C75.6433 24.1167 75.5184 24.1301 75.4015 24.1554C75.1863 24.206 74.9897 24.286 74.8183 24.4034C74.6456 24.518 74.4982 24.6686 74.3693 24.85C74.2431 25.0313 74.1355 25.2446 74.089 25.5472C74.3839 25.6192 74.6217 25.6018 74.8383 25.5525C75.0548 25.5045 75.2501 25.4232 75.4214 25.3072C75.5955 25.1939 75.7442 25.0433 75.8718 24.862C75.9422 24.762 76.0033 24.646 76.0551 24.514L85.0405 18.4322C85.7605 19.3974 86.7914 20.0533 87.979 20.2853C88.2885 20.3466 88.5994 20.3759 88.9102 20.3759C89.8627 20.3759 90.7939 20.092 91.6003 19.5454C91.7106 19.4707 91.7411 19.3201 91.6667 19.2094Z" fill="#D7C59D"/>
<path d="M85.8582 46.3404C83.9028 47.0496 81.7773 46.3111 80.6402 44.6766C80.9271 44.7753 81.2632 44.8406 81.6484 44.8646C81.764 44.8713 81.8836 44.874 82.0044 44.874C82.9397 44.874 84.0276 44.6647 85.1116 44.27C85.2405 44.2234 85.3082 44.0807 85.2617 43.9501C85.2139 43.8194 85.0691 43.7541 84.9416 43.7994C83.7806 44.222 82.6208 44.422 81.679 44.3647C80.8221 44.3127 80.2443 44.0447 80.0955 43.6328C79.9467 43.2195 80.2204 42.6436 80.8461 42.0517C81.5315 41.4024 82.5504 40.8119 83.7115 40.3893C83.8403 40.3426 83.9067 40.1999 83.8603 40.0693C83.8138 39.9387 83.6716 39.872 83.5414 39.9187C82.3166 40.3639 81.2366 40.9918 80.5033 41.6877C80.223 41.953 80.0052 42.2183 79.8484 42.4796C79.6797 40.4932 80.8421 38.5602 82.7935 37.8496C82.9237 37.803 82.9915 37.659 82.945 37.5297C82.8971 37.399 82.7537 37.3324 82.6235 37.3777C80.1128 38.2922 78.7777 41.0278 79.5535 43.5621L69.0244 47.3883C68.8105 47.3203 68.6139 47.2976 68.4253 47.2989C68.1503 47.2923 67.8979 47.3483 67.6615 47.4389C67.4263 47.5349 67.2031 47.6642 67.0052 47.8562C66.8033 48.0388 66.6186 48.2668 66.4818 48.6174C66.8179 48.7827 67.1075 48.8241 67.3798 48.8227C67.6561 48.8307 67.9059 48.7747 68.145 48.6854C68.3815 48.5908 68.6046 48.4614 68.8026 48.2708C68.9208 48.1628 69.0311 48.0362 69.1307 47.8815L79.7302 44.0314C80.5246 45.9311 82.3658 47.111 84.3318 47.111C84.8938 47.111 85.4676 47.015 86.0269 46.8123C86.1584 46.763 86.2235 46.6204 86.177 46.4897C86.1305 46.3604 85.9884 46.2938 85.8582 46.3404Z" fill="#D7C59D"/>
</mask>
<g mask="url(#mask0)">
<path d="M0.390625 -6.16919H106.559V99.9987H30.3906C13.8221 99.9987 0.390625 86.5672 0.390625 69.9987V-6.16919Z" fill="#D8C69E"/>
</g>
</svg>
