<svg width="225" height="27" viewBox="0 0 225 27" fill="none" xmlns="http://www.w3.org/2000/svg">
<path d="M4.92019 7.89199L11.5442 17.036C12.0122 17.684 12.6602 18.008 13.2722 18.008C13.8842 18.008 14.4962 17.684 14.9642 17.036L21.5522 7.78399V24.668C21.5522 25.388 22.1642 26 22.8842 26H24.6122C25.3322 26 25.9442 25.388 25.9442 24.668V2.13199C25.9442 1.41199 25.3322 0.799991 24.6122 0.799991H22.8482C22.2002 0.799991 21.5162 1.15999 21.1562 1.69999L13.5602 12.572L5.60419 1.69999C5.20819 1.15999 4.52419 0.799991 3.87619 0.799991H1.82419C1.10419 0.799991 0.492188 1.41199 0.492188 2.13199V24.668C0.492188 25.388 1.10419 26 1.82419 26H3.58819C4.30819 26 4.92019 25.388 4.92019 24.668V7.89199Z" fill="#D8C69E"/>
<path d="M47.8814 23.192C47.8814 22.472 47.2694 21.86 46.5494 21.86H37.3694V15.344H45.1094C45.8294 15.344 46.4414 14.732 46.4414 14.012V12.536C46.4414 11.816 45.8294 11.204 45.1094 11.204H37.3694V4.93999H46.1894C46.9094 4.93999 47.5214 4.32799 47.5214 3.60799V2.13199C47.5214 1.41199 46.9094 0.799991 46.1894 0.799991H34.2734C33.5534 0.799991 32.9414 1.41199 32.9414 2.13199V24.668C32.9414 25.388 33.5534 26 34.2734 26H46.5494C47.2694 26 47.8814 25.388 47.8814 24.668V23.192Z" fill="#D8C69E"/>
<path d="M58.0764 7.89199L64.7004 17.036C65.1684 17.684 65.8164 18.008 66.4284 18.008C67.0404 18.008 67.6524 17.684 68.1204 17.036L74.7084 7.78399V24.668C74.7084 25.388 75.3204 26 76.0404 26H77.7684C78.4884 26 79.1004 25.388 79.1004 24.668V2.13199C79.1004 1.41199 78.4884 0.799991 77.7684 0.799991H76.0044C75.3564 0.799991 74.6724 1.15999 74.3124 1.69999L66.7164 12.572L58.7604 1.69999C58.3644 1.15999 57.6804 0.799991 57.0324 0.799991H54.9804C54.2604 0.799991 53.6484 1.41199 53.6484 2.13199V24.668C53.6484 25.388 54.2604 26 54.9804 26H56.7444C57.4644 26 58.0764 25.388 58.0764 24.668V7.89199Z" fill="#D8C69E"/>
<path d="M84.2257 13.4C84.2257 21.248 89.8417 26.396 97.3297 26.396C104.818 26.396 110.47 20.96 110.47 13.4C110.47 5.55199 104.818 0.403992 97.3297 0.403992C89.5897 0.403992 84.2257 6.09199 84.2257 13.4ZM88.9057 13.4C88.9057 8.17999 92.5057 4.54399 97.3297 4.54399C102.082 4.54399 105.79 8.17999 105.79 13.4C105.79 18.368 102.622 22.256 97.3297 22.256C92.6137 22.256 88.9057 18.44 88.9057 13.4Z" fill="#D8C69E"/>
<path d="M114.046 21.5C113.83 21.716 113.722 22.004 113.722 22.292C113.722 22.688 113.902 23.084 114.19 23.336C116.674 25.64 118.906 26.396 121.642 26.396C126.358 26.396 130.066 23.516 130.066 19.268C130.066 10.88 118.654 12.536 118.654 7.31599C118.654 5.65999 119.986 4.54399 122.182 4.54399C123.262 4.54399 124.45 4.83199 125.782 5.47999C125.998 5.58799 126.214 5.62399 126.43 5.62399C126.898 5.62399 127.33 5.37199 127.618 4.90399L128.302 3.71599C128.41 3.53599 128.482 3.31999 128.482 3.10399C128.482 2.63599 128.23 2.16799 127.834 1.95199C125.926 0.871992 124.126 0.403992 121.822 0.403992C116.926 0.403992 113.974 3.57199 113.974 7.35199C113.974 15.56 125.386 14.336 125.386 19.304C125.386 21.212 123.802 22.256 121.714 22.256C120.31 22.256 118.762 21.572 117.142 20.24C116.854 19.988 116.494 19.844 116.134 19.844C115.81 19.844 115.522 19.952 115.234 20.24L114.046 21.5Z" fill="#D8C69E"/>
<path d="M143.312 26C144.032 26 144.644 25.388 144.644 24.668V4.93999H151.484C152.204 4.93999 152.816 4.32799 152.816 3.60799V2.13199C152.816 1.41199 152.204 0.799991 151.484 0.799991H133.376C132.656 0.799991 132.044 1.41199 132.044 2.13199V3.60799C132.044 4.32799 132.656 4.93999 133.376 4.93999H140.216V24.668C140.216 25.388 140.828 26 141.548 26H143.312Z" fill="#D8C69E"/>
<path d="M153.624 13.4C153.624 21.248 159.24 26.396 166.728 26.396C174.216 26.396 179.868 20.96 179.868 13.4C179.868 5.55199 174.216 0.403992 166.728 0.403992C158.988 0.403992 153.624 6.09199 153.624 13.4ZM158.304 13.4C158.304 8.17999 161.904 4.54399 166.728 4.54399C171.48 4.54399 175.188 8.17999 175.188 13.4C175.188 18.368 172.02 22.256 166.728 22.256C162.012 22.256 158.304 18.44 158.304 13.4Z" fill="#D8C69E"/>
<path d="M198.816 25.1C199.212 25.64 199.896 26 200.544 26H202.2C202.956 26 203.496 25.388 203.496 24.704C203.496 24.452 203.424 24.164 203.208 23.912L196.944 15.704C199.032 14.984 201.804 12.824 201.804 8.50399C201.804 4.14799 199.536 0.727992 192.66 0.727992C192.084 0.727992 188.484 0.763991 186.324 0.799991C185.568 0.799991 184.992 1.41199 184.992 2.13199V24.668C184.992 25.388 185.604 26 186.324 26H188.088C188.808 26 189.42 25.388 189.42 24.668V16.568H192.516L198.816 25.1ZM189.42 12.428V4.93999C190.608 4.90399 191.616 4.86799 192.444 4.86799C196.044 4.86799 197.124 6.55999 197.124 8.53999C197.124 11.132 194.856 12.428 192.3 12.428H189.42Z" fill="#D8C69E"/>
<path d="M209.193 1.73599C208.833 1.15999 208.185 0.799991 207.537 0.799991H205.989C205.197 0.799991 204.621 1.44799 204.621 2.13199C204.621 2.38399 204.693 2.63599 204.837 2.85199L212.469 15.488V24.668C212.469 25.388 213.081 26 213.801 26H215.565C216.285 26 216.897 25.388 216.897 24.668V15.488L224.601 2.85199C224.745 2.63599 224.781 2.38399 224.781 2.16799C224.781 1.44799 224.241 0.799991 223.449 0.799991H222.153C221.505 0.799991 220.857 1.15999 220.533 1.73599L214.881 11.348L209.193 1.73599Z" fill="#D8C69E"/>
</svg>
