<svg width="24" height="25" viewBox="0 0 24 25" fill="none" xmlns="http://www.w3.org/2000/svg">
<path d="M1 2L23 24" stroke="white" stroke-width="2" stroke-linecap="round" stroke-linejoin="round"/>
<path d="M10 9.99928C10 9.447 9.55228 8.99928 9 8.99928C8.44772 8.99928 8 9.447 8 9.99928H10ZM9 12.9993H8L8 13.0002L9 12.9993ZM10.8523 15.7684L11.2349 14.8445L10.8523 15.7684ZM14.8267 15.8268C15.2174 15.4365 15.2178 14.8034 14.8275 14.4126C14.4373 14.0218 13.8041 14.0215 13.4133 14.4117L14.8267 15.8268ZM14.0001 10.3393C14.0001 10.8916 14.4478 11.3393 15.0001 11.3393C15.5523 11.3393 16.0001 10.8916 16.0001 10.3393H14.0001ZM15.0001 4.99928L14.0001 4.99828V4.99928H15.0001ZM12.3016 2.01145L12.4021 1.01652L12.3016 2.01145ZM8.08006 4.20029C7.97016 4.74152 8.31982 5.26938 8.86106 5.37928C9.4023 5.48918 9.93016 5.13951 10.0401 4.59828L8.08006 4.20029ZM8 9.99928V12.9993H10V9.99928H8ZM8 13.0002C8.00142 14.6169 8.97597 16.0738 10.4697 16.6924L11.2349 14.8445C10.488 14.5352 10.0007 13.8068 10 12.9984L8 13.0002ZM10.4697 16.6924C11.9635 17.3109 13.6827 16.9693 14.8267 15.8268L13.4133 14.4117C12.8414 14.983 11.9818 15.1538 11.2349 14.8445L10.4697 16.6924ZM16.0001 10.3393V4.99928H14.0001V10.3393H16.0001ZM16.0001 5.00029C16.0021 2.94527 14.4467 1.22304 12.4021 1.01652L12.2011 3.00639C13.2234 3.10965 14.0011 3.97077 14.0001 4.99828L16.0001 5.00029ZM12.4021 1.01652C10.3574 0.80999 8.489 2.18637 8.08006 4.20029L10.0401 4.59828C10.2445 3.59132 11.1788 2.90313 12.2011 3.00639L12.4021 1.01652Z" fill="white"/>
<path d="M17.7145 18.6498C18.101 18.2553 18.0945 17.6222 17.7 17.2357C17.3055 16.8492 16.6724 16.8557 16.2859 17.2502L17.7145 18.6498ZM5.00019 13L6.00019 13.0073V13H5.00019ZM6.00019 11C6.00019 10.4477 5.55247 10 5.00019 10C4.4479 10 4.00019 10.4477 4.00019 11H6.00019ZM20.0001 11C20.0001 10.4477 19.5524 10 19.0001 10C18.4479 10 18.0001 10.4477 18.0001 11H20.0001ZM19.0001 13L20.0001 13.0009V13H19.0001ZM17.9059 14.0534C17.8083 14.597 18.1699 15.1168 18.7136 15.2143C19.2572 15.3118 19.7769 14.9502 19.8744 14.4066L17.9059 14.0534ZM16.2859 17.2502C14.5741 18.9974 11.9732 19.5306 9.71202 18.5978L8.94935 20.4467C11.9642 21.6903 15.4322 20.9794 17.7145 18.6498L16.2859 17.2502ZM9.71202 18.5978C7.45087 17.6651 5.98227 15.4532 6.00016 13.0073L4.00022 12.9927C3.97636 16.2539 5.9345 19.2031 8.94935 20.4467L9.71202 18.5978ZM6.00019 13V11H4.00019V13H6.00019ZM18.0001 11V13H20.0001V11H18.0001ZM18.0001 12.9991C17.9998 13.3526 17.9683 13.7055 17.9059 14.0534L19.8744 14.4066C19.9577 13.9426 19.9997 13.4722 20.0001 13.0009L18.0001 12.9991Z" fill="white"/>
<path d="M12 20V24" stroke="white" stroke-width="2" stroke-linecap="round" stroke-linejoin="round"/>
<path d="M8 24H16" stroke="white" stroke-width="2" stroke-linecap="round" stroke-linejoin="round"/>
</svg>
