<svg width="24" height="24" viewBox="0 0 24 24" fill="none" xmlns="http://www.w3.org/2000/svg">
<path fill-rule="evenodd" clip-rule="evenodd" d="M12 23C18.0751 23 23 18.0751 23 12C23 5.92487 18.0751 1 12 1C5.92487 1 1 5.92487 1 12C1 18.0751 5.92487 23 12 23Z" stroke="white" stroke-width="2" stroke-linecap="round" stroke-linejoin="round"/>
<path d="M9.2192 14.275H8.3042C8.0042 14.275 7.7492 14.53 7.7492 14.83V15.1C7.7492 15.4 8.0042 15.655 8.3042 15.655H9.2192V16.945C9.2192 17.245 9.4742 17.5 9.7742 17.5H10.4942C10.7942 17.5 11.0492 17.245 11.0492 16.945V15.655H12.9542C13.2542 15.655 13.5092 15.4 13.5092 15.1V14.83C13.5092 14.53 13.2542 14.275 12.9542 14.275H11.0492V13.03H12.4292C14.9192 13.03 16.2542 11.845 16.2542 10.045C16.2542 8.32 15.2942 6.97 12.1892 6.97C11.6192 6.97 10.5242 6.985 9.7742 7C9.4592 7 9.2192 7.255 9.2192 7.555V11.65H8.3042C8.0042 11.65 7.7492 11.905 7.7492 12.205V12.475C7.7492 12.775 8.0042 13.03 8.3042 13.03H9.2192V14.275ZM11.0492 11.65V8.725C11.5442 8.71 12.0092 8.695 12.3842 8.695C13.6292 8.695 14.3042 9.115 14.3042 10.21C14.3042 11.275 13.4492 11.65 12.3692 11.65H11.0492Z" fill="white"/>
</svg>
