<svg width="24" height="24" viewBox="0 0 24 24" fill="none" xmlns="http://www.w3.org/2000/svg">
<path fill-rule="evenodd" clip-rule="evenodd" d="M12.89 1.44917L20.89 5.44917C21.5697 5.7869 21.9996 6.48023 22 7.23917V16.7692C21.9996 17.5281 21.5697 18.2214 20.89 18.5592L12.89 22.5592C12.3267 22.8411 11.6634 22.8411 11.1 22.5592L3.10005 18.5592C2.42104 18.217 1.99476 17.5195 2.00005 16.7592V7.23917C2.00045 6.48023 2.43039 5.7869 3.11005 5.44917L11.11 1.44917C11.6707 1.17059 12.3294 1.17059 12.89 1.44917Z" stroke="white" stroke-width="2" stroke-linecap="round" stroke-linejoin="round"/>
<path d="M2.32031 6.16016L12.0003 11.0002L21.6803 6.16016" stroke="white" stroke-width="2" stroke-linecap="round" stroke-linejoin="round"/>
<path d="M12 22.76V11" stroke="white" stroke-width="2" stroke-linecap="round" stroke-linejoin="round"/>
<path d="M7 3.5L17 8.5" stroke="white" stroke-width="2" stroke-linecap="round" stroke-linejoin="round"/>
</svg>
