<svg width="43" height="48" viewBox="0 0 43 48" fill="none" xmlns="http://www.w3.org/2000/svg">
<path d="M11.0611 29.103H9.05859V32.0895H11.0611C11.8651 32.0895 12.5011 31.3815 12.5011 30.6375C12.4996 29.799 11.8651 29.103 11.0611 29.103Z" fill="#234052"/>
<path d="M19.1233 29.163H17.1328V34.536H19.1233C22.3618 34.536 22.5043 29.163 19.1233 29.163Z" fill="#234052"/>
<path d="M35.4375 22.5H2.4375C1.6125 22.5 0.9375 23.175 0.9375 24V39C0.9375 39.825 1.6125 40.5 2.4375 40.5H35.4375C36.264 40.5 36.9375 39.825 36.9375 39V24C36.9375 23.175 36.264 22.5 35.4375 22.5ZM11.0625 33.5895H9.06V35.1735C9.06 35.7015 8.724 36 8.292 36C7.896 36 7.4775 35.7015 7.4775 35.172V28.4205C7.4775 28.0245 7.7895 27.591 8.292 27.591H11.0625C12.6225 27.591 14.0265 28.635 14.0265 30.6375C14.025 32.5335 12.6225 33.5895 11.0625 33.5895ZM19.23 36H16.3755C15.9795 36 15.5475 35.7825 15.5475 35.256V28.4445C15.5475 28.0125 15.9795 27.7005 16.3755 27.7005H19.122C24.603 27.7005 24.483 36 19.23 36ZM29.9175 29.259H26.4255V31.1655H29.484C29.9175 31.1655 30.348 31.5975 30.348 32.0175C30.348 32.4135 29.9175 32.736 29.484 32.736H26.4255V35.2545C26.4255 35.6745 26.127 35.9985 25.707 35.9985C25.179 35.9985 24.855 35.6745 24.855 35.2545V28.443C24.855 28.011 25.1805 27.699 25.707 27.699H29.9175C30.4455 27.699 30.756 28.011 30.756 28.443C30.756 28.8285 30.4455 29.259 29.9175 29.259Z" fill="#234052"/>
<path d="M41.4375 11.379L31.5585 1.5C30.6915 0.63 29.1675 0 27.9375 0H11.4375C8.9565 0 6.9375 2.019 6.9375 4.5V19.5C6.9375 20.3295 7.608 21 8.4375 21C9.267 21 9.9375 20.3295 9.9375 19.5V4.5C9.9375 3.6735 10.6095 3 11.4375 3H24.9375C26.595 3 27.9375 4.344 27.9375 6V11.625C27.9375 13.482 29.4585 15 31.3125 15H36.9375C38.595 15 39.9375 16.344 39.9375 18V43.5C39.9375 44.3265 39.267 45 38.4375 45H11.4375C10.6095 45 9.9375 44.3265 9.9375 43.5C9.9375 42.6705 9.267 42 8.4375 42C7.608 42 6.9375 42.6705 6.9375 43.5C6.9375 45.981 8.9565 48 11.4375 48H38.4375C40.9185 48 42.9375 45.981 42.9375 43.5V15C42.9375 13.7715 42.3075 12.2475 41.4375 11.379Z" fill="#234052"/>
</svg>
