<svg width="51" height="64" viewBox="0 0 51 64" fill="none" xmlns="http://www.w3.org/2000/svg">
    <path d="M28.467 31.786C28.484 29.287 27.021 27.966 24.682 27.966C24.074 27.966 23.682 28.02 23.451 28.073V35.945C23.682 35.999 24.057 35.999 24.397 35.999C26.86 36.017 28.467 34.66 28.467 31.786Z" fill="#BA9568"/>
    <path d="M7.629 64H42.87C46.946 64 50.25 60.696 50.25 56.621V7.379C50.25 3.304 46.946 0 42.871 0H7.629C3.554 0 0.25 3.304 0.25 7.379V56.621C0.25 60.696 3.554 64 7.629 64ZM32.973 25.967H40.326V28.198H35.704V30.947H40.024V33.161H35.704V37.998H32.973V25.967ZM20.72 26.127C21.719 25.966 23.022 25.877 24.397 25.877C26.682 25.877 28.163 26.288 29.323 27.163C30.573 28.091 31.358 29.572 31.358 31.696C31.358 33.999 30.519 35.588 29.359 36.57C28.092 37.623 26.163 38.123 23.807 38.123C22.397 38.123 21.397 38.034 20.72 37.944V26.127ZM10.522 26.127C11.361 25.984 12.538 25.877 14.199 25.877C15.876 25.877 17.073 26.198 17.875 26.841C18.644 27.449 19.161 28.448 19.161 29.626C19.161 30.804 18.769 31.804 18.053 32.482C17.126 33.357 15.751 33.749 14.145 33.749C13.787 33.749 13.466 33.732 13.216 33.695V37.997H10.521L10.522 26.127Z" fill="#BA9568"/>
    <path d="M16.466 29.697C16.466 28.591 15.699 27.93 14.342 27.93C13.788 27.93 13.413 27.983 13.217 28.037V31.589C13.45 31.643 13.734 31.66 14.127 31.66C15.573 31.661 16.466 30.929 16.466 29.697Z" fill="#BA9568"/>
</svg>
