<svg width="24" height="24" viewBox="0 0 24 24" fill="none" xmlns="http://www.w3.org/2000/svg">
<path d="M14.0495 6L14.2409 5.01851C13.8093 4.93429 13.3733 5.14198 13.1667 5.53022C12.9601 5.91847 13.0314 6.39612 13.3423 6.70711L14.0495 6ZM17.9995 9.95L17.2923 10.6571C17.6033 10.9681 18.081 11.0394 18.4692 10.8328C18.8575 10.6262 19.0652 10.1902 18.9809 9.75851L17.9995 9.95ZM14.0495 2L14.1599 1.00611C13.7377 0.959211 13.3319 1.18417 13.148 1.5671C12.9641 1.95004 13.0422 2.40736 13.3428 2.70755L14.0495 2ZM21.9995 9.94L21.2928 10.6476C21.5934 10.9477 22.0508 11.0253 22.4335 10.8409C22.8162 10.6565 23.0406 10.2505 22.9932 9.82834L21.9995 9.94ZM20.9995 17.92L19.9998 17.8952C19.9996 17.9035 19.9995 17.9117 19.9995 17.92H20.9995ZM20.9995 20.92H19.9994L19.9995 20.9241L20.9995 20.92ZM18.8195 22.92L18.7114 23.9142C18.7174 23.9148 18.7234 23.9154 18.7294 23.9159L18.8195 22.92ZM10.1895 19.85L10.7336 19.0109L10.7258 19.006L10.1895 19.85ZM4.18945 13.85L5.0335 13.3137L5.02873 13.3063L4.18945 13.85ZM1.11945 5.18L0.12351 5.27C0.12398 5.2752 0.124491 5.2804 0.125043 5.2856L1.11945 5.18ZM1.63422 3.65162L2.37278 4.32581L1.63422 3.65162ZM3.10945 3V2L3.10851 2L3.10945 3ZM6.10945 3V4.00005L6.11929 3.99995L6.10945 3ZM8.10945 4.72L9.10091 4.58924L9.09961 4.58005L8.10945 4.72ZM8.80945 7.53L7.87255 7.87961L7.8734 7.88186L8.80945 7.53ZM8.35945 9.64L9.06657 10.3471L9.0705 10.3431L8.35945 9.64ZM7.08945 10.91L6.38234 10.2029C6.06403 10.5212 5.99764 11.013 6.22016 11.4043L7.08945 10.91ZM13.0895 16.91L12.5952 17.7793C12.9865 18.0018 13.4782 17.9354 13.7966 17.6171L13.0895 16.91ZM14.3595 15.64L13.6563 14.9289L13.6523 14.9329L14.3595 15.64ZM16.4695 15.19L16.1176 16.1261L16.1198 16.1269L16.4695 15.19ZM19.2795 15.89L19.4191 14.8998L19.4102 14.8986L19.2795 15.89ZM13.858 6.98149C15.4563 7.29335 16.7061 8.5431 17.018 10.1415L18.9809 9.75851C18.5132 7.36092 16.6385 5.48629 14.2409 5.01851L13.858 6.98149ZM18.7066 9.24289L14.7566 5.29289L13.3423 6.70711L17.2923 10.6571L18.7066 9.24289ZM13.939 2.99389C17.6542 3.40661 20.5883 6.33703 21.0057 10.0517L22.9932 9.82834C22.4714 5.18505 18.8038 1.52202 14.1599 1.00611L13.939 2.99389ZM22.7061 9.23245L14.7561 1.29245L13.3428 2.70755L21.2928 10.6476L22.7061 9.23245ZM19.9995 17.92V20.92H21.9995V17.92H19.9995ZM19.9995 20.9241C20.0006 21.2056 19.883 21.4746 19.6755 21.665L21.0276 23.1387C21.65 22.5677 22.0029 21.7607 21.9994 20.9159L19.9995 20.9241ZM19.6755 21.665C19.468 21.8553 19.1899 21.9494 18.9095 21.9241L18.7294 23.9159C19.5707 23.992 20.4051 23.7098 21.0276 23.1387L19.6755 21.665ZM18.9275 21.9259C16.0058 21.6084 13.1993 20.61 10.7336 19.011L9.64535 20.689C12.3736 22.4583 15.4788 23.5629 18.7114 23.9142L18.9275 21.9259ZM10.7258 19.006C8.43351 17.5494 6.49007 15.6059 5.03347 13.3137L3.34544 14.3863C4.95951 16.9264 7.11305 19.0799 9.65313 20.694L10.7258 19.006ZM5.02873 13.3063C3.42411 10.8293 2.42552 8.00921 2.11386 5.0744L0.125043 5.2856C0.469872 8.53278 1.57475 11.6531 3.35017 14.3937L5.02873 13.3063ZM2.11539 5.09C2.09013 4.81044 2.18353 4.53313 2.37278 4.32581L0.895659 2.97743C0.327918 3.59938 0.0477201 4.43131 0.12351 5.27L2.11539 5.09ZM2.37278 4.32581C2.56202 4.11849 2.82969 4.00026 3.11039 4L3.10851 2C2.2664 2.00079 1.4634 2.35548 0.895659 2.97743L2.37278 4.32581ZM3.10945 4H6.10945V2H3.10945V4ZM6.11929 3.99995C6.62123 3.99501 7.04904 4.36294 7.11929 4.85995L9.09961 4.58005C8.88886 3.089 7.60541 1.98523 6.09961 2.00005L6.11929 3.99995ZM7.11804 4.85076C7.25452 5.8856 7.50764 6.90167 7.87255 7.8796L9.74635 7.1804C9.43417 6.34378 9.21763 5.47454 9.10087 4.58924L7.11804 4.85076ZM7.8734 7.88186C8.01077 8.2473 7.92291 8.65926 7.6484 8.93686L9.0705 10.3431C9.89403 9.51035 10.1576 8.27445 9.7455 7.17814L7.8734 7.88186ZM7.65234 8.93289L6.38234 10.2029L7.79656 11.6171L9.06656 10.3471L7.65234 8.93289ZM6.22016 11.4043C7.73269 14.0643 9.93514 16.2668 12.5952 17.7793L13.5837 16.0407C11.2367 14.7061 9.29333 12.7628 7.95875 10.4157L6.22016 11.4043ZM13.7966 17.6171L15.0666 16.3471L13.6523 14.9329L12.3823 16.2029L13.7966 17.6171ZM15.0626 16.3511C15.3402 16.0765 15.7522 15.9887 16.1176 16.1261L16.8213 14.2539C15.725 13.8418 14.4891 14.1054 13.6563 14.9289L15.0626 16.3511ZM16.1198 16.1269C17.0978 16.4918 18.1139 16.7449 19.1487 16.8814L19.4102 14.8986C18.5249 14.7818 17.6557 14.5653 16.8191 14.2531L16.1198 16.1269ZM19.1398 16.8802C19.6425 16.9511 20.0124 17.3876 19.9998 17.8952L21.9991 17.9448C22.0369 16.422 20.9275 15.1126 19.4191 14.8998L19.1398 16.8802Z" fill="white"/>
</svg>
