<svg width="24" height="24" viewBox="0 0 24 24" fill="none" xmlns="http://www.w3.org/2000/svg">
<path d="M11.3869 12.6033C10.9965 12.2126 10.3634 12.2123 9.97266 12.6027C9.58196 12.993 9.58168 13.6262 9.97203 14.0169L11.3869 12.6033ZM14.0895 15.9101L13.5952 16.7794C13.9865 17.0019 14.4782 16.9355 14.7966 16.6172L14.0895 15.9101ZM15.3595 14.6401L14.6563 13.929L14.6523 13.933L15.3595 14.6401ZM17.4695 14.1901L17.1176 15.1262L17.1198 15.127L17.4695 14.1901ZM20.2795 14.8901L20.4194 13.8999L20.4102 13.8987L20.2795 14.8901ZM21.9995 16.8901L20.9995 16.8803V16.8901H21.9995ZM21.9995 19.8901H20.9994L20.9995 19.8942L21.9995 19.8901ZM21.3515 21.372L20.6755 20.6351L21.3515 21.372ZM19.8195 21.8901L19.7114 22.8842C19.7174 22.8849 19.7234 22.8855 19.7294 22.886L19.8195 21.8901ZM11.1895 18.8201L11.7336 17.981L11.7255 17.9759L11.1895 18.8201ZM8.56695 15.4434C8.17664 15.0526 7.54348 15.0523 7.15274 15.4426C6.762 15.8329 6.76164 16.4661 7.15195 16.8568L8.56695 15.4434ZM4.35043 13.3542C4.65093 13.8176 5.27018 13.9496 5.73355 13.6491C6.19693 13.3486 6.32897 12.7294 6.02847 12.266L4.35043 13.3542ZM2.11945 4.1801L1.12351 4.2701C1.12405 4.27611 1.12465 4.28212 1.1253 4.28812L2.11945 4.1801ZM2.63422 2.65172L3.37278 3.32591V3.32591L2.63422 2.65172ZM4.10945 2.0001V1.0001L4.10851 1.0001L4.10945 2.0001ZM7.10945 2.0001V3.00015L7.11929 3.00005L7.10945 2.0001ZM9.10945 3.7201L10.1009 3.58934L10.0996 3.58015L9.10945 3.7201ZM9.80945 6.5301L8.87255 6.8797L8.8734 6.88196L9.80945 6.5301ZM9.35945 8.6401L10.0666 9.34722L10.0705 9.34324L9.35945 8.6401ZM7.38234 9.20299C6.99182 9.59352 6.99182 10.2267 7.38235 10.6172C7.77287 11.0077 8.40603 11.0077 8.79656 10.6172L7.38234 9.20299ZM9.97203 14.0169C11.0503 15.0961 12.269 16.0253 13.5952 16.7794L14.5837 15.0408C13.4136 14.3754 12.3383 13.5556 11.3869 12.6033L9.97203 14.0169ZM14.7966 16.6172L16.0666 15.3472L14.6523 13.933L13.3823 15.203L14.7966 16.6172ZM16.0626 15.3512C16.3402 15.0766 16.7522 14.9888 17.1176 15.1262L17.8213 13.254C16.725 12.8419 15.4891 13.1055 14.6563 13.929L16.0626 15.3512ZM17.1198 15.127C18.0978 15.4919 19.1139 15.745 20.1487 15.8815L20.4102 13.8987C19.5249 13.7819 18.6557 13.5654 17.8191 13.2532L17.1198 15.127ZM20.1395 15.8803C20.6365 15.9505 21.0044 16.3783 20.9995 16.8803L22.9994 16.8999C23.0142 15.3941 21.9105 14.1107 20.4194 13.8999L20.1395 15.8803ZM20.9995 16.8901V19.8901H22.9995V16.8901H20.9995ZM20.9995 19.8942C21.0006 20.1757 20.883 20.4447 20.6755 20.6351L22.0276 22.1088C22.65 21.5378 23.0029 20.7308 22.9994 19.886L20.9995 19.8942ZM20.6755 20.6351C20.468 20.8254 20.1899 20.9195 19.9095 20.8942L19.7294 22.886C20.5707 22.9621 21.4051 22.6799 22.0276 22.1088L20.6755 20.6351ZM19.9275 20.896C17.0058 20.5785 14.1993 19.5801 11.7336 17.9811L10.6454 19.6591C13.3736 21.4284 16.4788 22.533 19.7114 22.8842L19.9275 20.896ZM11.7255 17.9759C10.5828 17.2503 9.52355 16.401 8.56695 15.4434L7.15195 16.8568C8.21241 17.9185 9.38666 18.86 10.6534 19.6643L11.7255 17.9759ZM6.02847 12.266C4.42943 9.80023 3.43106 6.99375 3.1136 4.07208L1.1253 4.28812C1.47656 7.52078 2.58119 10.626 4.35043 13.3542L6.02847 12.266ZM3.11539 4.0901C3.09013 3.81053 3.18353 3.53322 3.37278 3.32591L1.89566 1.97753C1.32792 2.59948 1.04772 3.43141 1.12351 4.2701L3.11539 4.0901ZM3.37278 3.32591C3.56202 3.11859 3.82969 3.00036 4.11039 3.0001L4.10851 1.0001C3.2664 1.00089 2.4634 1.35558 1.89566 1.97753L3.37278 3.32591ZM4.10945 3.0001H7.10945V1.0001H4.10945V3.0001ZM7.11929 3.00005C7.62123 2.99511 8.04904 3.36303 8.11929 3.86005L10.0996 3.58015C9.88886 2.0891 8.60541 0.985327 7.09961 1.00015L7.11929 3.00005ZM8.11804 3.85086C8.25452 4.88569 8.50764 5.90177 8.87255 6.8797L10.7463 6.18049C10.4342 5.34388 10.2176 4.47464 10.1009 3.58934L8.11804 3.85086ZM8.8734 6.88196C9.01077 7.2474 8.92291 7.65936 8.6484 7.93696L10.0705 9.34324C10.894 8.51045 11.1576 7.27455 10.7455 6.17824L8.8734 6.88196ZM8.65234 7.93299L7.38234 9.20299L8.79656 10.6172L10.0666 9.3472L8.65234 7.93299Z" fill="white"/>
<path d="M23 1L1 23" stroke="white" stroke-width="2" stroke-linecap="round" stroke-linejoin="round"/>
</svg>
