<svg width="24" height="24" viewBox="0 0 24 24" fill="none" xmlns="http://www.w3.org/2000/svg">
<path d="M22 8V2H16" stroke="white" stroke-width="2" stroke-linecap="round" stroke-linejoin="round"/>
<path d="M15 9L22 2" stroke="white" stroke-width="2" stroke-linecap="round" stroke-linejoin="round"/>
<path fill-rule="evenodd" clip-rule="evenodd" d="M20.9995 17.9201V20.9201C21.0017 21.4832 20.7665 22.0213 20.3515 22.402C19.9366 22.7827 19.3803 22.9708 18.8195 22.9201C15.7423 22.5857 12.7865 21.5342 10.1895 19.8501C7.77328 18.3148 5.72479 16.2663 4.18945 13.8501C2.49943 11.2413 1.44769 8.27109 1.11945 5.1801C1.06893 4.62097 1.25572 4.06635 1.63422 3.65172C2.01271 3.23709 2.54805 3.00063 3.10945 3.0001H6.10945C7.11332 2.99022 7.96895 3.72607 8.10945 4.7201C8.23607 5.68016 8.4709 6.62283 8.80945 7.5301C9.08419 8.26097 8.90847 9.0849 8.35945 9.6401L7.08945 10.9101C8.51301 13.4136 10.5859 15.4865 13.0895 16.9101L14.3595 15.6401C14.9146 15.0911 15.7386 14.9154 16.4695 15.1901C17.3767 15.5286 18.3194 15.7635 19.2795 15.8901C20.285 16.032 21.0246 16.9049 20.9995 17.9201Z" stroke="white" stroke-width="2" stroke-linecap="round" stroke-linejoin="round"/>
</svg>
