<svg width="101" height="25" viewBox="0 0 101 25" fill="none" xmlns="http://www.w3.org/2000/svg">
<path d="M35.572 24.274C35.272 24.223 34.972 24.16 34.672 24.089C34.5844 23.6138 34.5366 23.1321 34.5291 22.649C34.5348 22.181 34.5826 21.7144 34.672 21.255C35.0579 21.3788 35.4509 21.479 35.849 21.555C36.5932 21.6975 37.3493 21.7691 38.1071 21.769C39.09 21.8651 40.072 21.5786 40.849 20.969C41.1408 20.6535 41.3646 20.2814 41.5063 19.8757C41.6481 19.4701 41.7049 19.0396 41.6731 18.611V18.374H41.6571C41.255 18.5109 40.8431 18.6172 40.425 18.692C39.9637 18.7808 39.4949 18.8254 39.025 18.825C38.0795 18.8546 37.1374 18.6969 36.2531 18.361C35.5636 18.0851 34.9561 17.6375 34.488 17.061C34.0303 16.472 33.7086 15.789 33.546 15.061C33.35 14.2084 33.2543 13.3358 33.261 12.461V4.66101C33.7939 4.57278 34.3329 4.52497 34.873 4.51801C35.4093 4.52401 35.9442 4.57183 36.473 4.66101V11.961C36.4632 12.5974 36.5112 13.2333 36.6161 13.861C36.6862 14.3137 36.8481 14.7473 37.092 15.135C37.3095 15.4575 37.6199 15.7062 37.9821 15.848C38.4231 16.0107 38.8912 16.0871 39.3611 16.073C39.7977 16.0716 40.2331 16.027 40.661 15.94C40.9922 15.8792 41.3198 15.7998 41.6421 15.702V4.66602C42.1787 4.57775 42.7212 4.52994 43.265 4.52301C43.7973 4.52917 44.3282 4.57699 44.853 4.66602V16.506V18.124C44.853 20.324 44.299 21.931 43.177 22.954C41.7129 24.0876 39.879 24.6349 38.0331 24.489C37.2081 24.4882 36.3847 24.4162 35.572 24.274ZM69.389 18.945C68.3038 18.9688 67.2239 18.7844 66.208 18.402C65.3612 18.0745 64.6011 17.5568 63.9861 16.889C63.3944 16.2301 62.951 15.452 62.686 14.607C62.3936 13.6767 62.2492 12.7062 62.2581 11.731C62.2354 10.6371 62.4193 9.54875 62.8 8.52301C63.1219 7.66862 63.6134 6.88826 64.245 6.229C64.8306 5.63039 65.535 5.161 66.313 4.85101C67.0713 4.54501 67.8814 4.38713 68.6991 4.38599C69.5273 4.33953 70.3556 4.47438 71.1262 4.78113C71.8969 5.08788 72.5913 5.55913 73.161 6.16199C74.3341 7.66861 74.9044 9.55791 74.761 11.462C74.761 11.639 74.761 11.837 74.748 12.062C74.735 12.287 74.725 12.481 74.708 12.662H65.562C65.5762 13.1498 65.688 13.6299 65.8906 14.0739C66.0933 14.5178 66.3828 14.9167 66.7421 15.247C67.6086 15.9112 68.6879 16.2362 69.7771 16.161C70.496 16.1684 71.2134 16.0976 71.917 15.95C72.4366 15.8474 72.9461 15.6985 73.4391 15.505C73.5266 15.9715 73.5744 16.4445 73.582 16.919C73.5759 17.3804 73.5281 17.8403 73.4391 18.293C73.4391 18.293 72.7391 18.531 72.0741 18.674C71.6513 18.7705 71.2222 18.8373 70.79 18.874C70.3279 18.9273 69.8632 18.9539 69.3981 18.954L69.389 18.945ZM67.4281 7.34497C67.0683 7.52167 66.7481 7.7697 66.4871 8.07397C66.2264 8.37968 66.0232 8.72997 65.8871 9.10797C65.7474 9.49125 65.6498 9.88865 65.5961 10.293H71.561C71.5626 9.86615 71.5003 9.44143 71.3761 9.03302C71.2633 8.65692 71.0789 8.30613 70.833 8C70.5947 7.70896 70.2958 7.47347 69.957 7.31C69.571 7.13321 69.1496 7.04736 68.7251 7.05902H68.677C68.2449 7.05769 67.818 7.15374 67.4281 7.34003V7.34497ZM93.176 18.915C92.332 18.9369 91.4913 18.8012 90.697 18.515C90.0762 18.2809 89.5307 17.8823 89.119 17.362C88.7139 16.8202 88.4332 16.1957 88.297 15.533C88.1275 14.7269 88.0464 13.9047 88.0551 13.081V1.41602C88.5962 1.32844 89.1429 1.28064 89.691 1.27301C90.217 1.27863 90.7417 1.32646 91.26 1.41602V4.72699H94.316C94.4047 5.11257 94.4527 5.50638 94.4591 5.90198C94.4519 6.30577 94.4039 6.70781 94.316 7.10199H91.26V13.063C91.1909 13.8938 91.3761 14.7259 91.791 15.449C92.0118 15.7035 92.2907 15.9012 92.604 16.0253C92.9173 16.1494 93.2558 16.1963 93.5911 16.162C94.114 16.1705 94.6358 16.1083 95.1421 15.977C95.5048 15.8793 95.8619 15.7621 96.212 15.626C96.2997 16.0779 96.3476 16.5367 96.3551 16.997C96.3489 17.4452 96.301 17.8917 96.212 18.331C95.913 18.4675 95.6029 18.5783 95.285 18.662C94.6389 18.8286 93.9743 18.9129 93.307 18.913L93.176 18.915ZM23.729 18.653C23.0953 18.5188 22.4955 18.2572 21.9661 17.884C21.4769 17.5268 21.0847 17.0532 20.8251 16.506C20.5322 15.8478 20.3917 15.132 20.4141 14.412C20.3927 13.7132 20.5526 13.0207 20.8781 12.402C21.1827 11.8596 21.6152 11.4 22.1381 11.063C22.7018 10.7049 23.3265 10.4534 23.9811 10.321C24.6988 10.1607 25.4328 10.0852 26.1681 10.096C27.3051 10.07 28.5271 10.096 28.5271 10.096C28.5112 9.65858 28.4667 9.22266 28.394 8.79102C28.31 8.4527 28.144 8.14027 27.9106 7.88129C27.6773 7.62231 27.3838 7.42475 27.056 7.30603C26.6177 7.1529 26.1551 7.08133 25.691 7.09497C25.0066 7.09062 24.3231 7.14518 23.6481 7.258C23.0051 7.35075 22.3677 7.4793 21.739 7.64301C21.6515 7.21093 21.6037 6.77177 21.5961 6.33099C21.6031 5.89415 21.6509 5.45893 21.739 5.03101C22.3203 4.84574 22.9141 4.70272 23.516 4.60303C24.3382 4.45717 25.172 4.38587 26.0071 4.39001C26.9165 4.36701 27.823 4.50232 28.686 4.78998C29.3468 5.01427 29.9428 5.39672 30.422 5.90399C30.8662 6.39989 31.1849 6.99529 31.3511 7.64001C31.5456 8.37062 31.6414 9.12397 31.636 9.88V18.594C31.636 18.594 30.291 18.687 28.864 18.769C27.744 18.835 26.57 18.895 26.011 18.895H25.921C25.1832 18.8928 24.4478 18.81 23.728 18.648L23.729 18.653ZM25.9561 12.453C25.4867 12.4684 25.0248 12.5737 24.5951 12.763C24.3127 12.8975 24.0711 13.1045 23.895 13.363C23.7094 13.6504 23.6169 13.9881 23.63 14.33C23.5959 14.6329 23.6442 14.9393 23.7697 15.217C23.8951 15.4947 24.0932 15.7334 24.343 15.908C24.9359 16.2269 25.6047 16.3777 26.2771 16.344C27.0307 16.3307 27.7829 16.2779 28.531 16.186L28.537 12.491C28.537 12.491 27.7071 12.435 26.8251 12.435H26.7511C26.4771 12.431 26.2091 12.438 25.9551 12.453H25.9561ZM84.1791 18.594L80.9081 13.887C80.9081 13.887 77.998 17.922 77.608 18.594C77.1183 18.6886 76.6208 18.7364 76.1221 18.737C75.5247 18.7264 74.9285 18.6786 74.337 18.594L79.2571 11.507L74.55 4.72803C75.1676 4.64253 75.7898 4.59477 76.4131 4.58502C76.9703 4.58834 77.5264 4.63617 78.076 4.72803L81.014 8.97498L83.9611 4.72803C85.075 4.53784 86.2131 4.53784 87.327 4.72803L82.671 11.37L87.671 18.594C87.0661 18.6809 86.4562 18.7286 85.8451 18.737C85.2868 18.7335 84.7297 18.6857 84.1791 18.594ZM46.479 18.594V0.221985C47.0257 0.133743 47.5783 0.0859417 48.1321 0.0789795C48.671 0.0843428 49.2086 0.132163 49.74 0.221985L57.5851 13.213V0.221985C58.1419 0.133484 58.7043 0.0856852 59.2681 0.0789795C59.8153 0.0845378 60.3612 0.132352 60.901 0.221985V18.589C60.3385 18.6771 59.7704 18.7249 59.201 18.732C58.6429 18.7264 58.086 18.6786 57.535 18.589L49.7681 5.70502V18.593C49.2296 18.6826 48.6849 18.7305 48.139 18.736C47.5819 18.7303 47.0261 18.6828 46.4761 18.594H46.479ZM15.8101 18.594L15.8461 0.143005C16.3784 0.0548146 16.9166 0.00700618 17.4561 0C17.9923 0.00614403 18.5272 0.05396 19.056 0.143005L19.035 18.594C18.5168 18.6839 17.9921 18.7318 17.4661 18.737C16.9103 18.7304 16.3557 18.6826 15.807 18.594H15.8101ZM1.0011 18.594V0.487C1.85203 0.299987 2.71633 0.180312 3.58606 0.129028C4.53139 0.0670283 5.402 0.0360107 6.198 0.0360107C8.34273 -0.0980371 10.4789 0.409533 12.3341 1.49402C13.0513 2.00682 13.6243 2.6956 13.998 3.49408C14.3718 4.29256 14.5336 5.1738 14.468 6.05298C14.4939 7.00864 14.2986 7.95739 13.8971 8.82501C13.5221 9.58805 12.9505 10.2373 12.2411 10.706C11.4321 11.2266 10.5324 11.5906 9.58899 11.779C8.41192 12.0227 7.21196 12.1384 6.01001 12.124H4.34009V18.593C3.78319 18.6806 3.22079 18.7284 2.6571 18.736C2.10133 18.7302 1.54672 18.6827 0.998047 18.594H1.0011ZM6.43604 2.927C5.58804 2.927 4.89004 2.95331 4.34204 3.00598V9.26202H5.96106C7.23306 9.3269 8.50273 9.09546 9.67004 8.586C10.1128 8.33314 10.4719 7.95616 10.7029 7.50159C10.9339 7.04701 11.0269 6.53476 10.9701 6.02802C10.9871 5.504 10.8682 4.9845 10.625 4.52002C10.4019 4.11949 10.0716 3.78907 9.67102 3.56598C9.22157 3.31772 8.73284 3.14859 8.22607 3.06598C7.66071 2.97078 7.08833 2.92294 6.51501 2.92297L6.43604 2.927ZM96.365 5.89899C96.3643 5.59422 96.4239 5.29231 96.54 5.01056C96.6562 4.72881 96.8267 4.47277 97.042 4.25702C97.2574 4.04135 97.5132 3.87028 97.7948 3.7536C98.0764 3.63692 98.3783 3.57691 98.6831 3.57703C99.2979 3.57703 99.8874 3.82121 100.322 4.25592C100.757 4.69063 101.001 5.28025 101.001 5.89502C101.001 6.50979 100.757 7.09935 100.322 7.53406C99.8874 7.96877 99.2979 8.21301 98.6831 8.21301C98.0688 8.21354 97.4792 7.97028 97.0441 7.53662C96.6089 7.10296 96.3636 6.51437 96.3621 5.90002L96.365 5.89899ZM98.6111 6.05798H98.666C98.694 6.09298 99.033 6.61099 99.066 6.66699C99.1186 6.67857 99.1723 6.68461 99.2261 6.685C99.2832 6.68404 99.34 6.67801 99.396 6.66699C99.373 6.60799 99.0111 6.04099 98.9801 6.00299C99.0619 5.97491 99.1345 5.92521 99.1903 5.85919C99.2461 5.79317 99.2829 5.71329 99.297 5.62799C99.3113 5.54285 99.3023 5.45545 99.271 5.375C99.2397 5.29455 99.1871 5.22408 99.119 5.17102C98.9586 5.0768 98.7737 5.03257 98.588 5.04401C98.5253 5.04401 98.4534 5.04667 98.3721 5.052C98.2947 5.05708 98.2179 5.06776 98.1421 5.08398V6.664C98.1906 6.67547 98.2402 6.68151 98.29 6.68201C98.3369 6.68111 98.3835 6.67507 98.4291 6.664V6.05701L98.6111 6.05798ZM98.5541 5.82397H98.425V5.30402C98.4822 5.29806 98.5396 5.2957 98.597 5.297C98.6499 5.29695 98.7027 5.30099 98.755 5.30902C98.7988 5.31632 98.841 5.33082 98.88 5.35199C98.9136 5.37162 98.9413 5.39999 98.9601 5.43402C98.9785 5.47365 98.988 5.51679 98.988 5.56049C98.988 5.60419 98.9785 5.64739 98.9601 5.68701C98.9412 5.72199 98.9123 5.75051 98.8771 5.76898C98.8339 5.79176 98.7866 5.80601 98.738 5.81097C98.6833 5.81834 98.6282 5.82207 98.573 5.82202L98.5541 5.82397Z" fill="white"/>
</svg>
