<svg width="128" height="128" viewBox="0 0 128 128" fill="none" xmlns="http://www.w3.org/2000/svg">
<circle cx="64" cy="64" r="58" fill="#234052"/>
<path d="M64 0C51.342 0 38.9683 3.75353 28.4435 10.7859C17.9188 17.8183 9.71574 27.8138 4.87174 39.5082C0.02773 51.2027 -1.23968 64.071 1.22977 76.4858C3.69922 88.9005 9.79463 100.304 18.7452 109.255C27.6958 118.205 39.0995 124.301 51.5142 126.77C63.929 129.24 76.7973 127.972 88.4917 123.128C100.186 118.284 110.182 110.081 117.214 99.5565C124.246 89.0317 128 76.658 128 64C127.98 47.0322 121.231 30.7649 109.233 18.7668C97.2351 6.76875 80.9678 0.0196111 64 0ZM63.9994 103.385C62.5389 103.385 61.1111 102.951 59.8967 102.14C58.6823 101.329 57.7358 100.175 57.1769 98.8259C56.618 97.4766 56.4717 95.9918 56.7567 94.5593C57.0416 93.1268 57.7449 91.811 58.7777 90.7783C59.8104 89.7455 61.1263 89.0422 62.5587 88.7573C63.9912 88.4723 65.476 88.6186 66.8254 89.1775C68.1747 89.7364 69.328 90.6829 70.1395 91.8973C70.9509 93.1117 71.384 94.5394 71.384 96C71.384 97.9585 70.606 99.8368 69.2211 101.222C67.8362 102.607 65.9579 103.385 63.9994 103.385ZM81.4038 71.5577C78.0006 74.984 73.6569 77.3232 68.9231 78.2788V78.7692C68.9231 80.0749 68.4044 81.3271 67.4811 82.2504C66.5579 83.1736 65.3057 83.6923 64 83.6923C62.6943 83.6923 61.4421 83.1736 60.5189 82.2504C59.5956 81.3271 59.0769 80.0749 59.0769 78.7692V73.8461C59.0765 73.1995 59.2036 72.5592 59.4509 71.9617C59.6982 71.3643 60.0608 70.8214 60.518 70.3642C60.9753 69.9069 61.5181 69.5443 62.1156 69.297C62.713 69.0498 63.3534 68.9227 64 68.9231C66.9211 68.9234 69.7766 68.0574 72.2055 66.4346C74.6344 64.8118 76.5274 62.5052 77.6452 59.8064C78.763 57.1077 79.0553 54.138 78.4852 51.2731C77.9151 48.4082 76.5081 45.7767 74.4423 43.7115C68.8654 38.125 59.1298 38.125 53.5625 43.7115C52.1841 45.0779 51.0913 46.7048 50.3476 48.4975C49.604 50.2903 49.2243 52.213 49.2308 54.1538C49.2308 55.4595 48.7121 56.7117 47.7889 57.635C46.8656 58.5582 45.6134 59.0769 44.3077 59.0769C43.002 59.0769 41.7498 58.5582 40.8266 57.635C39.9033 56.7117 39.3846 55.4595 39.3846 54.1538C39.3755 50.9193 40.0082 47.7152 41.2461 44.7269C42.484 41.7387 44.3025 39.0257 46.5962 36.7452C55.8846 27.4567 72.1106 27.4519 81.4087 36.75C83.6939 39.0358 85.5066 41.7493 86.7431 44.7356C87.9796 47.722 88.6158 50.9226 88.6154 54.1548C88.6149 57.387 87.9779 60.5875 86.7405 63.5735C85.5031 66.5595 83.6897 69.2725 81.4038 71.5577Z" fill="#D8C69E"/>
</svg>
