<svg width="24" height="24" viewBox="0 0 24 24" fill="none" xmlns="http://www.w3.org/2000/svg">
<path fill-rule="evenodd" clip-rule="evenodd" d="M12 14C13.1046 14 14 13.1046 14 12C14 10.8954 13.1046 10 12 10C10.8954 10 10 10.8954 10 12C10 13.1046 10.8954 14 12 14Z" stroke="white" stroke-width="2" stroke-linecap="round" stroke-linejoin="round"/>
<path d="M16.9465 7.05219C16.5558 6.66188 15.9226 6.66223 15.5323 7.05297C15.142 7.44372 15.1424 8.07688 15.5331 8.46719L16.9465 7.05219ZM15.5331 15.5422C15.1424 15.9325 15.142 16.5657 15.5323 16.9564C15.9226 17.3471 16.5558 17.3475 16.9465 16.9572L15.5331 15.5422ZM7.0531 16.9472C7.44385 17.3375 8.07701 17.3371 8.46732 16.9464C8.85762 16.5557 8.85727 15.9225 8.46653 15.5322L7.0531 16.9472ZM8.46653 8.45719C8.85727 8.06688 8.85762 7.43372 8.46732 7.04297C8.07701 6.65223 7.44385 6.65188 7.0531 7.04219L8.46653 8.45719ZM19.0698 4.92969L19.777 4.22269C19.4911 3.93663 19.0609 3.85102 18.6872 4.00578C18.3135 4.16054 18.0698 4.5252 18.0698 4.92969H19.0698ZM19.0698 19.0697H18.0698C18.0698 19.4742 18.3135 19.8388 18.6872 19.9936C19.0609 20.1484 19.4911 20.0627 19.777 19.7767L19.0698 19.0697ZM4.92982 19.0697L4.2226 19.7767C4.50858 20.0627 4.93872 20.1484 5.31243 19.9936C5.68614 19.8388 5.92982 19.4742 5.92982 19.0697H4.92982ZM4.92982 4.92969H5.92982C5.92982 4.5252 5.68614 4.16054 5.31243 4.00578C4.93872 3.85102 4.50858 3.93663 4.2226 4.22269L4.92982 4.92969ZM15.5331 8.46719C16.472 9.40503 16.9995 10.6776 16.9995 12.0047H18.9995C18.9995 10.1468 18.261 8.36517 16.9465 7.05219L15.5331 8.46719ZM16.9995 12.0047C16.9995 13.3317 16.472 14.6043 15.5331 15.5422L16.9465 16.9572C18.261 15.6442 18.9995 13.8626 18.9995 12.0047H16.9995ZM8.46653 15.5322C7.52765 14.5943 7.0001 13.3217 7.0001 11.9947H5.0001C5.0001 13.8526 5.73867 15.6342 7.0531 16.9472L8.46653 15.5322ZM7.0001 11.9947C7.0001 10.6676 7.52765 9.39503 8.46653 8.45719L7.0531 7.04219C5.73867 8.35517 5.0001 10.1368 5.0001 11.9947H7.0001ZM18.3626 5.63669C21.876 9.15119 21.876 14.8482 18.3626 18.3627L19.777 19.7767C24.0712 15.4812 24.0712 8.51819 19.777 4.22269L18.3626 5.63669ZM20.0698 19.0697V4.92969H18.0698V19.0697H20.0698ZM5.63703 18.3627C2.12359 14.8482 2.12359 9.15119 5.63703 5.63669L4.2226 4.22269C-0.0715971 8.51819 -0.0715971 15.4812 4.2226 19.7767L5.63703 18.3627ZM3.92982 4.92969V19.0697H5.92982V4.92969H3.92982Z" fill="white"/>
</svg>
