<svg width="24" height="24" viewBox="0 0 24 24" fill="none" xmlns="http://www.w3.org/2000/svg">
<path d="M1 4V10H7" stroke="white" stroke-width="2" stroke-linecap="round" stroke-linejoin="round"/>
<path d="M23 20V14H17" stroke="white" stroke-width="2" stroke-linecap="round" stroke-linejoin="round"/>
<path d="M19.5473 9.33335C19.7315 9.854 20.3029 10.1267 20.8236 9.94247C21.3442 9.75823 21.617 9.18681 21.4327 8.66616L19.5473 9.33335ZM13.9917 3.22402L14.2124 2.24867L13.9917 3.22402ZM5.64 5.63976L6.32478 6.36851C6.33239 6.36135 6.3399 6.35408 6.34728 6.34669L5.64 5.63976ZM0.315223 9.271C-0.0872558 9.6492 -0.106945 10.2821 0.271247 10.6845C0.649439 11.087 1.2823 11.1067 1.68478 10.7285L0.315223 9.271ZM23.6848 14.7285C24.0873 14.3503 24.107 13.7175 23.7288 13.315C23.3506 12.9125 22.7177 12.8928 22.3152 13.271L23.6848 14.7285ZM18.36 18.3598L17.6752 17.631C17.6676 17.6382 17.6601 17.6454 17.6527 17.6528L18.36 18.3598ZM4.45273 14.6662C4.26849 14.1455 3.69706 13.8728 3.17641 14.057C2.65577 14.2413 2.38305 14.8127 2.56729 15.3334L4.45273 14.6662ZM21.4327 8.66616C20.2873 5.42929 17.5613 3.0064 14.2124 2.24867L13.771 4.19936C16.4502 4.80555 18.6309 6.74385 19.5473 9.33335L21.4327 8.66616ZM14.2124 2.24867C10.8635 1.49094 7.36 2.50432 4.93272 4.93283L6.34728 6.34669C8.28911 4.40388 11.0919 3.59317 13.771 4.19936L14.2124 2.24867ZM4.95522 4.911L0.315223 9.271L1.68478 10.7285L6.32478 6.36851L4.95522 4.911ZM22.3152 13.271L17.6752 17.631L19.0448 19.0885L23.6848 14.7285L22.3152 13.271ZM17.6527 17.6528C15.7109 19.5956 12.9081 20.4063 10.229 19.8002L9.78761 21.7508C13.1365 22.5086 16.64 21.4952 19.0673 19.0667L17.6527 17.6528ZM10.229 19.8002C7.54985 19.194 5.36906 17.2557 4.45273 14.6662L2.56729 15.3334C3.71272 18.5702 6.4387 20.9931 9.78761 21.7508L10.229 19.8002Z" fill="white"/>
</svg>
