<svg width="24" height="24" viewBox="0 0 24 24" fill="none" xmlns="http://www.w3.org/2000/svg">
<path d="M23 4V10H17" stroke="white" stroke-width="2" stroke-linecap="round" stroke-linejoin="round"/>
<path d="M1 20V14H7" stroke="white" stroke-width="2" stroke-linecap="round" stroke-linejoin="round"/>
<path d="M2.56729 8.66616C2.38305 9.18681 2.65577 9.75823 3.17641 9.94247C3.69706 10.1267 4.26849 9.854 4.45273 9.33335L2.56729 8.66616ZM10.0083 3.22402L9.78761 2.24867L10.0083 3.22402ZM18.36 5.63976L17.6527 6.34669C17.6601 6.35408 17.6676 6.36135 17.6752 6.36851L18.36 5.63976ZM22.3152 10.7285C22.7177 11.1067 23.3506 11.087 23.7288 10.6845C24.107 10.2821 24.0873 9.6492 23.6848 9.271L22.3152 10.7285ZM1.68478 13.271C1.2823 12.8928 0.649439 12.9125 0.271247 13.315C-0.106945 13.7175 -0.0872558 14.3503 0.315223 14.7285L1.68478 13.271ZM5.64 18.3598L6.34728 17.6528C6.3399 17.6454 6.33239 17.6382 6.32478 17.631L5.64 18.3598ZM21.4327 15.3334C21.617 14.8127 21.3442 14.2413 20.8236 14.057C20.3029 13.8728 19.7315 14.1455 19.5473 14.6662L21.4327 15.3334ZM4.45273 9.33335C5.36907 6.74385 7.54985 4.80555 10.229 4.19936L9.78761 2.24867C6.4387 3.0064 3.71272 5.42929 2.56729 8.66616L4.45273 9.33335ZM10.229 4.19936C12.9081 3.59317 15.7109 4.40388 17.6527 6.34669L19.0673 4.93283C16.64 2.50432 13.1365 1.49094 9.78761 2.24867L10.229 4.19936ZM17.6752 6.36851L22.3152 10.7285L23.6848 9.271L19.0448 4.911L17.6752 6.36851ZM0.315223 14.7285L4.95522 19.0885L6.32478 17.631L1.68478 13.271L0.315223 14.7285ZM4.93272 19.0667C7.36 21.4952 10.8635 22.5086 14.2124 21.7508L13.771 19.8002C11.0919 20.4063 8.28911 19.5956 6.34728 17.6528L4.93272 19.0667ZM14.2124 21.7508C17.5613 20.9931 20.2873 18.5702 21.4327 15.3334L19.5473 14.6662C18.6309 17.2557 16.4502 19.194 13.771 19.8002L14.2124 21.7508Z" fill="white"/>
</svg>
