<svg width="68" height="100" viewBox="0 0 68 100" fill="none" xmlns="http://www.w3.org/2000/svg">
<path d="M0 83.6198C0 90.5597 3.88 96.7598 10.12 99.7997C10.74 100.1 11.48 100.06 12.06 99.6997C12.64 99.3397 13 98.6797 13 97.9998V88.5397L18 84.2598L22.9999 88.5397V97.9998C22.9999 98.6797 23.3599 99.3397 23.9399 99.6997C24.26 99.8998 24.64 99.9998 24.9999 99.9998C25.3 99.9998 25.5999 99.9397 25.8799 99.7997C32.1199 96.7598 35.9999 90.5597 35.9999 83.6198C35.9999 76.7198 32.1199 70.5398 25.9999 67.4998V34.1199C32.1199 31.0999 35.9999 24.9 35.9999 18C35.9999 11.0799 32.1199 4.87999 25.8799 1.83996C25.26 1.52002 24.52 1.55993 23.9399 1.93994C23.3599 2.29992 22.9999 2.93993 22.9999 3.61999V13.0799L18 17.3599L13 13.0799V3.61999C13 2.93993 12.64 2.29992 12.06 1.93994C11.48 1.55993 10.74 1.52002 10.12 1.83996C3.88 4.87999 0 11.0799 0 18C0 24.9 3.88 31.0999 9.99998 34.1199V67.4998C3.88 70.5398 0 76.7198 0 83.6198Z" fill="#D8C69E"/>
<path d="M43.9999 61.9999V93.9998C43.9999 97.2997 46.6998 99.9998 49.9999 99.9998H53.9999V55.9999H49.9999C46.6998 55.9999 43.9999 58.6998 43.9999 61.9999Z" fill="#D8C69E"/>
<path d="M61.9598 1.59997C61.7799 0.67993 60.9598 0 59.9999 0H51.9999C51.0399 0 50.2199 0.67993 50.0399 1.59997L48.0399 11.5999C47.9799 11.9399 47.9999 12.2999 48.0999 12.64L49.9999 18.3199V51.9999H61.9999V18.3199L63.8999 12.64C63.9999 12.2999 64.0199 11.9399 63.9598 11.5999L61.9598 1.59997Z" fill="#D8C69E"/>
<path d="M61.9999 55.9999H57.9999V99.9998H61.9999C65.2999 99.9998 67.9998 97.2997 67.9998 93.9998V61.9999C67.9998 58.6998 65.2999 55.9999 61.9999 55.9999Z" fill="#D8C69E"/>
</svg>
