<svg width="25" height="24" viewBox="0 0 25 24" fill="none" xmlns="http://www.w3.org/2000/svg">
<circle cx="2" cy="20" r="1" fill="#234052"/>
<circle cx="6" cy="23" r="1" fill="#234052"/>
<circle cx="1" cy="23" r="1" fill="#234052"/>
<circle cx="4.5" cy="21.5" r="0.5" fill="#234052"/>
<circle cx="0.5" cy="16.5" r="0.5" fill="#234052"/>
<path d="M12.842 23.3917L16.9144 17.9777L17.3083 17.5838C17.4046 17.4844 18.0573 16.2874 18.342 14.9815C18.6267 13.6756 18.5315 12.3156 18.0676 11.0621L19.6694 9.46033C19.8038 9.32521 19.8885 9.14856 19.9098 8.95915C19.931 8.76973 19.8875 8.57871 19.7863 8.41717L24.3365 3.86696C24.7613 3.44215 25 2.86598 25 2.26521C25 1.66444 24.7613 1.08828 24.3365 0.663465C23.9117 0.238656 23.3356 2.51002e-08 22.7348 0C22.134 -2.51002e-08 21.5579 0.238656 21.133 0.663466L16.5828 5.21367C16.4213 5.11251 16.2303 5.06901 16.0409 5.09025C15.8514 5.11149 15.6748 5.19621 15.5397 5.33064L13.9379 6.93239C12.6844 6.46853 11.3244 6.37332 10.0185 6.65802C8.71262 6.94271 7.51558 7.5954 7.41616 7.69168L7.02228 8.08555L1.33678 11.8737C1.23896 11.9473 1.1583 12.0412 1.1004 12.149C1.04251 12.2569 1.00876 12.376 1.00149 12.4982C0.994222 12.6203 1.01362 12.7426 1.05832 12.8566C1.10303 12.9705 1.17198 13.0733 1.2604 13.158L4.04437 15.9546L11.5817 23.4919C11.667 23.5776 11.7698 23.6439 11.883 23.6864C11.9963 23.7289 12.1173 23.7466 12.238 23.7382C12.3586 23.7298 12.4761 23.6956 12.5824 23.6379C12.6886 23.5802 12.7813 23.5003 12.854 23.4036L12.842 23.3917ZM22.3266 1.85702C22.4349 1.74876 22.5817 1.68794 22.7348 1.68794C22.8879 1.68794 23.0347 1.74876 23.143 1.85702C23.2512 1.96528 23.3121 2.11211 23.3121 2.26521C23.3121 2.41832 23.2512 2.56515 23.143 2.67341L18.6095 7.2069L17.7931 6.39052L22.3266 1.85702ZM15.511 7.74639L16.1364 7.12097L17.879 8.86356L17.2536 9.48898C17.2059 9.44124 17.1557 9.3911 17.1271 9.32427C17.0531 9.22162 16.9815 9.12136 16.9003 9.02588C16.7595 8.85639 16.6163 8.69407 16.4611 8.53891C16.3059 8.38375 16.1532 8.23097 15.9741 8.09968C15.8858 8.01136 15.7784 7.94691 15.6757 7.87291C15.6208 7.83233 15.5683 7.78458 15.511 7.74639ZM13.778 8.69168C13.9164 8.75852 14.0501 8.82536 14.179 8.90175L14.1957 8.91846C14.3214 8.99007 14.4408 9.06646 14.5538 9.14762L14.6159 9.20969C14.7161 9.2813 14.814 9.3553 14.9095 9.43646C14.9524 9.47943 14.9954 9.5224 15.0408 9.56775C15.1783 9.69101 15.309 9.8217 15.4322 9.95924C15.4776 10.0046 15.5206 10.0476 15.5635 10.0905C15.6519 10.1789 15.7187 10.2839 15.7903 10.3841L15.8524 10.4462C15.9335 10.5624 16.0099 10.6817 16.0815 10.8043L16.103 10.8067C16.1794 10.9356 16.2463 11.0692 16.3131 11.2077C16.7624 12.1605 16.9185 13.2253 16.7617 14.2669C16.6048 15.3086 16.1421 16.2802 16.2795 16.2113L8.78397 8.71575C8.71521 8.8566 9.68559 8.39682 10.7253 8.24174C11.7649 8.08666 12.8273 8.24324 13.778 8.69168ZM9.53113 19.0543L11.7631 16.8224C11.9213 16.6641 12.0103 16.4494 12.0103 16.2256C12.0103 16.0017 11.9213 15.7871 11.7631 15.6288C11.6048 15.4705 11.3901 15.3816 11.1663 15.3816C10.9425 15.3816 10.7278 15.4705 10.5695 15.6288L8.33758 17.8607L6.26796 15.7911L7.62861 14.4305C7.78689 14.2722 7.8758 14.0575 7.8758 13.8337C7.8758 13.6099 7.78689 13.3952 7.62861 13.2369C7.47034 13.0786 7.25567 12.9897 7.03183 12.9897C6.808 12.9897 6.59333 13.0786 6.43506 13.2369L5.07441 14.5976L3.13189 12.6424L7.49255 9.8544L15.1552 17.517L12.0829 21.6061L9.53113 19.0543Z" fill="#234052"/>
</svg>
