<svg width="33" height="30" viewBox="0 0 33 30" fill="none" xmlns="http://www.w3.org/2000/svg">
<path d="M32.218 0.400204C31.6721 -0.0626772 30.8148 -0.128907 29.9283 0.226988H29.9269C28.9946 0.601077 3.53609 11.521 2.49971 11.9671C2.31121 12.0326 0.664922 12.6469 0.834499 14.0152C0.985882 15.2488 2.30902 15.7597 2.47059 15.8187L8.94293 18.0348C9.37233 19.4642 10.9553 24.7379 11.3054 25.8645C11.5237 26.5668 11.8796 27.4897 12.5033 27.6796C13.0506 27.8907 13.595 27.6978 13.9473 27.4213L17.9043 23.751L24.2922 28.7328L24.4444 28.8237C24.8781 29.0159 25.2937 29.1119 25.6903 29.1119C25.9967 29.1119 26.2908 29.0544 26.5717 28.9394C27.5288 28.5464 27.9116 27.6345 27.9516 27.5312L32.7231 2.72989C33.0142 1.4053 32.6095 0.731353 32.218 0.400204ZM14.6511 18.9213L12.4677 24.7437L10.2843 17.4657L27.0237 5.09306L14.6511 18.9213Z" fill="#D8C69E"/>
</svg>
