<svg width="24" height="24" viewBox="0 0 24 24" fill="none" xmlns="http://www.w3.org/2000/svg">
<path d="M9.99907 15.0004H10.9991C10.9991 14.4481 10.5514 14.0004 9.99907 14.0004V15.0004ZM12.9991 22.0004V23.0004C13.3943 23.0004 13.7524 22.7676 13.9129 22.4065L12.9991 22.0004ZM16.9991 13.0004L17.9129 13.4065C17.9697 13.2786 17.9991 13.1403 17.9991 13.0004H16.9991ZM16.9991 2.00037H17.9991C17.9991 1.44808 17.5514 1.00037 16.9991 1.00037V2.00037ZM5.71907 2.00037L5.70776 3.00037H5.71907V2.00037ZM3.71907 3.70037L4.70752 3.85193L4.70776 3.8503L3.71907 3.70037ZM2.33907 12.7004L1.35062 12.5488L1.35039 12.5503L2.33907 12.7004ZM2.80721 14.3129L2.0526 14.969H2.0526L2.80721 14.3129ZM4.33907 15.0004V14.0003L4.32775 14.0004L4.33907 15.0004ZM16.9991 2.00037V1.00037C16.4468 1.00037 15.9991 1.44808 15.9991 2.00037H16.9991ZM19.6691 2.00037V3.00037C19.675 3.00037 19.6809 3.00031 19.6868 3.00021L19.6691 2.00037ZM21.9991 4.00037H22.9991C22.9991 3.95553 22.9961 3.91075 22.99 3.86632L21.9991 4.00037ZM21.9991 11.0004L22.99 11.1344C22.9961 11.09 22.9991 11.0452 22.9991 11.0004H21.9991ZM19.6691 13.0004L19.6868 12.0005C19.6809 12.0004 19.675 12.0004 19.6691 12.0004L19.6691 13.0004ZM16.9991 13.0004H15.9991C15.9991 13.5527 16.4468 14.0004 16.9991 14.0004V13.0004ZM8.99907 15.0004V19.0004H10.9991V15.0004H8.99907ZM8.99907 19.0004C8.99907 21.2095 10.7899 23.0004 12.9991 23.0004V21.0004C11.8945 21.0004 10.9991 20.1049 10.9991 19.0004H8.99907ZM13.9129 22.4065L17.9129 13.4065L16.0853 12.5942L12.0853 21.5942L13.9129 22.4065ZM17.9991 13.0004V2.00037H15.9991V13.0004H17.9991ZM16.9991 1.00037H5.71907V3.00037H16.9991V1.00037ZM5.73037 1.00043C4.23444 0.983519 2.95468 2.07132 2.73037 3.55043L4.70776 3.8503C4.78253 3.35726 5.20912 2.99467 5.70776 3.0003L5.73037 1.00043ZM2.73062 3.5488L1.35062 12.5488L3.32752 12.8519L4.70752 3.85193L2.73062 3.5488ZM1.35039 12.5503C1.21831 13.4205 1.47505 14.3048 2.0526 14.969L3.56182 13.6567C3.3693 13.4353 3.28372 13.1405 3.32774 12.8504L1.35039 12.5503ZM2.0526 14.969C2.63016 15.6332 3.47027 16.0103 4.35039 16.0003L4.32775 14.0004C4.03437 14.0038 3.75433 13.8781 3.56182 13.6567L2.0526 14.969ZM4.33907 16.0004H9.99907V14.0004H4.33907V16.0004ZM16.9991 3.00037H19.6691V1.00037H16.9991V3.00037ZM19.6868 3.00021C20.3511 2.98846 20.919 3.47595 21.0081 4.13441L22.99 3.86632C22.765 2.20258 21.33 0.970836 19.6514 1.00052L19.6868 3.00021ZM20.9991 4.00037V11.0004H22.9991V4.00037H20.9991ZM21.0081 10.8663C20.919 11.5248 20.3511 12.0123 19.6868 12.0005L19.6514 14.0002C21.33 14.0299 22.765 12.7981 22.99 11.1344L21.0081 10.8663ZM19.6691 12.0004H16.9991V14.0004H19.6691V12.0004ZM17.9991 13.0004V2.00037H15.9991V13.0004H17.9991Z" fill="white"/>
</svg>
