<svg width="24" height="24" viewBox="0 0 24 24" fill="none" xmlns="http://www.w3.org/2000/svg">
<path d="M23 12V13C23.2817 13 23.5504 12.8811 23.7399 12.6727C23.9295 12.4642 24.0222 12.1854 23.9955 11.905L23 12ZM1 12L0.00452489 11.905C-0.0222473 12.1854 0.0705377 12.4642 0.26006 12.6727C0.449582 12.8811 0.718255 13 1 13L1 12ZM18 19H19C19 18.7613 18.9146 18.5305 18.7593 18.3492L18 19ZM12 12L12.7593 11.3492C12.4869 11.0315 12.0455 10.9169 11.6531 11.0621C11.2606 11.2073 11 11.5815 11 12H12ZM23.9955 11.905C23.4052 5.7216 18.2115 1 12 1V3C17.1805 3 21.5123 6.93793 22.0045 12.095L23.9955 11.905ZM12 1C5.78852 1 0.594756 5.7216 0.00452489 11.905L1.99548 12.095C2.48774 6.93793 6.81947 3 12 3V1ZM1 13H23V11H1V13ZM17 19C17 20.1046 16.1046 21 15 21V23C17.2091 23 19 21.2091 19 19H17ZM15 21C13.8954 21 13 20.1046 13 19H11C11 21.2091 12.7909 23 15 23V21ZM13 19V12H11V19H13ZM11.2407 12.6508L17.2407 19.6508L18.7593 18.3492L12.7593 11.3492L11.2407 12.6508Z" fill="white"/>
</svg>
