<svg width="100" height="86" viewBox="0 0 100 86" fill="none" xmlns="http://www.w3.org/2000/svg">
<path d="M56.4701 0.827165C51.0499 -1.18544 44.5223 0.571597 40.8485 5.04406C38.9211 7.38678 37.7923 10.1448 37.5261 13.1797C37.2812 16.0655 38.0159 19.0684 39.5067 21.5389C40.955 23.9242 43.138 25.9581 45.6936 27.0975C48.5262 28.3647 51.5717 28.7375 54.6173 28.1305C60.1865 27.0337 64.84 22.2524 65.7026 16.6299C65.8197 15.8419 65.8943 15.0539 65.9049 14.2552C65.9049 14.2445 65.8836 14.2445 65.8836 14.2339V14.1913C65.8943 8.18543 62.0714 2.90367 56.4701 0.827165Z" fill="#D8C69E"/>
<path d="M22.1706 0.827165C16.7504 -1.18544 10.2228 0.571597 6.54896 5.04406C4.62154 7.38678 3.48213 10.1448 3.22656 13.1797C2.98164 16.0655 3.7164 19.0684 5.20722 21.5389C6.6448 23.9242 8.83844 25.9581 11.3941 27.0975C14.2267 28.3647 17.2722 28.7375 20.3178 28.1305C25.887 27.0337 30.5405 22.2524 31.4031 16.6299C31.5202 15.8419 31.616 15.0539 31.616 14.2552C31.616 14.2445 31.616 14.2445 31.616 14.2339V14.202C31.6054 8.19608 27.7612 2.90367 22.1706 0.827165Z" fill="#D8C69E"/>
<path d="M64.6697 35.329C62.5399 33.6359 60.0055 32.6775 57.2794 32.6668C55.4479 32.6668 53.6269 32.6455 51.7954 32.6455H16.3671C14.7911 32.6455 13.2257 32.6562 11.6497 32.6668C8.42314 32.6881 5.21787 34.0725 3.07748 36.511C1.18201 38.6727 0.117136 41.3988 0.106487 44.2739C0.0958384 46.7444 0.0851897 49.2149 0.0851897 51.6748V62.0573C0.0638922 64.5384 0.042595 67.0196 0.0212975 69.5007C0.0212975 69.9693 0.0106486 70.4378 0.0106486 70.8957C0.0106486 71.0022 0.0106486 71.1087 0.0106486 71.2258C0.0106486 71.0555 0.0212973 70.8851 0.0638921 70.736C0.0745409 70.6934 0.0851897 70.6508 0.0851897 70.6189C0.0851897 70.6082 0.0851897 70.6082 0.0851897 70.5976V71.9925C0.0851897 71.9925 0.0851897 71.9819 0.0851897 71.9712C0.0851897 71.9286 0.0745409 71.8861 0.0638921 71.8541C0.0212973 71.705 0 71.5453 0 71.3856C0 71.4708 0 71.5559 0 71.6411C0.0106487 72.0458 0.0425948 72.4398 0.0851897 72.8338V73.4301C0.0851897 75.4427 0.489841 77.3595 1.40563 79.1698C2.89645 82.1088 5.82485 84.3664 9.04076 85.0798C11.0321 85.5164 13.1618 85.3673 15.1851 85.3673H57.0132C58.8342 85.3673 60.5592 85.0372 62.2311 84.2918C65.2553 82.9394 67.5874 80.1282 68.4713 76.9442C68.8333 75.6344 68.8865 74.2927 68.8865 72.9509V44.21C68.8546 40.8237 67.3425 37.4588 64.6697 35.329ZM47.2803 62.1531C47.1419 62.2916 47.0034 62.398 46.8437 62.4832C46.7266 62.5471 46.5988 62.6217 46.4817 62.6856C41.8495 65.2945 37.2173 67.9034 32.5851 70.5124C32.0952 70.7892 31.616 71.0768 31.1262 71.3323C29.9974 71.9286 28.6663 72.312 27.3991 71.9393C26.2384 71.5985 25.4504 70.6614 25.0458 69.554C24.8328 68.9683 24.7796 68.34 24.7796 67.7224C24.7902 66.8173 24.7902 65.9015 24.8009 64.9963C24.8328 61.8869 24.8541 58.7881 24.8754 55.6787C24.8967 53.7726 24.8648 51.8558 24.9286 49.9497C24.9712 48.789 25.2801 47.6496 26.1107 46.8083C26.9945 45.9138 28.2936 45.7328 29.4863 45.9564C30.1572 46.0842 30.7961 46.3611 31.3711 46.7231C33.3944 47.9477 35.407 49.1723 37.4302 50.3969C39.954 51.9304 42.4777 53.4531 45.0015 54.9865C45.5659 55.3273 46.1302 55.6468 46.684 56.0088C47.8234 56.7436 48.6327 57.9575 48.6007 59.3419C48.5794 60.3641 48.047 61.461 47.2803 62.1531Z" fill="#D8C69E"/>
<path d="M99.9702 75.5386V39.3755C99.9702 37.0115 99.4271 34.2641 97.1376 33.0502C94.9653 31.9001 92.1859 32.4326 90.0988 33.572C89.8432 33.7104 89.6196 33.9021 89.3853 34.0725C88.608 34.6368 87.8413 35.2012 87.0639 35.7656C83.0174 38.7153 78.9709 41.665 74.9244 44.604C74.8072 44.6892 74.7007 44.7638 74.5836 44.849C73.9021 45.3494 73.5613 45.9564 73.54 46.819C73.5294 47.3621 73.5613 47.8945 73.5613 48.4376V71.4601C73.4229 72.3014 73.8169 73.1107 74.573 73.6431C78.2361 76.1881 81.9099 78.7332 85.5731 81.2782C86.9468 82.2366 88.2992 83.2802 89.7261 84.1534C90.4928 84.6326 91.4299 84.9733 92.3031 85.2182C93.336 85.5058 94.3476 85.5697 95.4018 85.4206C96.914 85.1969 98.2238 84.1747 98.9798 82.8755C100.268 80.6499 99.9702 77.9984 99.9702 75.5386Z" fill="#D8C69E"/>
</svg>
