<svg width="24" height="24" viewBox="0 0 24 24" fill="none" xmlns="http://www.w3.org/2000/svg">
<path fill-rule="evenodd" clip-rule="evenodd" d="M11 5L6 9H2V15H6L11 19V5V5Z" stroke="white" stroke-width="2" stroke-linecap="round" stroke-linejoin="round"/>
<path d="M19.0691 4.92969L19.7763 4.22269C19.4903 3.93663 19.0602 3.85102 18.6864 4.00578C18.3127 4.16054 18.0691 4.5252 18.0691 4.92969H19.0691ZM19.0691 19.0697H18.0691C18.0691 19.4742 18.3127 19.8388 18.6864 19.9936C19.0602 20.1484 19.4903 20.0627 19.7763 19.7767L19.0691 19.0697ZM15.5391 8.45969L16.2463 7.75269C15.9603 7.46663 15.5302 7.38102 15.1564 7.53578C14.7827 7.69054 14.5391 8.0552 14.5391 8.45969H15.5391ZM15.5391 15.5297H14.5391C14.5391 15.9342 14.7827 16.2988 15.1564 16.4536C15.5302 16.6084 15.9603 16.5227 16.2463 16.2367L15.5391 15.5297ZM18.3618 5.63669C21.8753 9.15119 21.8753 14.8482 18.3618 18.3627L19.7763 19.7767C24.0705 15.4812 24.0705 8.51819 19.7763 4.22269L18.3618 5.63669ZM20.0691 19.0697V4.92969H18.0691V19.0697H20.0691ZM14.8318 9.16669C16.3934 10.7287 16.3934 13.2607 14.8318 14.8227L16.2463 16.2367C18.5886 13.8937 18.5886 10.0957 16.2463 7.75269L14.8318 9.16669ZM16.5391 15.5297V8.45969H14.5391V15.5297H16.5391Z" fill="white"/>
</svg>
