<svg width="24" height="24" viewBox="0 0 24 24" fill="none" xmlns="http://www.w3.org/2000/svg">
<path fill-rule="evenodd" clip-rule="evenodd" d="M12 19C15.866 19 19 15.866 19 12C19 8.13401 15.866 5 12 5C8.13401 5 5 8.13401 5 12C5 15.866 8.13401 19 12 19Z" stroke="white" stroke-width="2" stroke-linecap="round" stroke-linejoin="round"/>
<path d="M12 9V12L13.5 13.5" stroke="white" stroke-width="2" stroke-linecap="round" stroke-linejoin="round"/>
<path d="M17.5063 17.441C17.5566 16.891 17.1515 16.4044 16.6015 16.3542C16.0515 16.3039 15.5649 16.709 15.5146 17.259L17.5063 17.441ZM16.1605 21.18L15.1646 21.089L15.1645 21.09L16.1605 21.18ZM14.1605 23L14.1645 22H14.1605V23ZM9.83047 23V22L9.82641 22L9.83047 23ZM7.83047 21.18L8.82641 21.09L8.82632 21.089L7.83047 21.18ZM8.47632 17.259C8.42606 16.709 7.93946 16.3039 7.38946 16.3542C6.83947 16.4044 6.43436 16.891 6.48462 17.441L8.47632 17.259ZM6.49463 6.55901C6.44437 7.109 6.84948 7.59561 7.39947 7.64587C7.94947 7.69613 8.43607 7.29101 8.48633 6.74102L6.49463 6.55901ZM7.84048 2.82002L8.83633 2.91102L8.83642 2.91002L7.84048 2.82002ZM9.83048 1.00002V1.63317e-05L9.82954 1.71661e-05L9.83048 1.00002ZM14.1805 1.00002V2.00003L14.1845 2.00001L14.1805 1.00002ZM16.1805 2.82002L15.1845 2.91001L15.1846 2.91102L16.1805 2.82002ZM15.5346 6.74102C15.5849 7.29101 16.0715 7.69613 16.6215 7.64587C17.1715 7.59561 17.5766 7.109 17.5263 6.55901L15.5346 6.74102ZM15.5146 17.259L15.1646 21.089L17.1563 21.271L17.5063 17.441L15.5146 17.259ZM15.1645 21.09C15.1178 21.6069 14.6835 22.0021 14.1645 22L14.1564 24C15.7133 24.0063 17.0163 22.8206 17.1564 21.27L15.1645 21.09ZM14.1605 22H9.83047V24H14.1605V22ZM9.82641 22C9.30745 22.0021 8.87311 21.6069 8.82641 21.09L6.83453 21.27C6.97464 22.8206 8.27763 24.0063 9.83453 24L9.82641 22ZM8.82632 21.089L8.47632 17.259L6.48462 17.441L6.83462 21.271L8.82632 21.089ZM8.48633 6.74102L8.83633 2.91102L6.84463 2.72901L6.49463 6.55901L8.48633 6.74102ZM8.83642 2.91002C8.88295 2.39507 9.31437 2.0005 9.83142 2.00002L9.82954 1.71661e-05C8.27839 0.00147808 6.98414 1.18517 6.84454 2.73002L8.83642 2.91002ZM9.83048 2.00002H14.1805V1.67489e-05H9.83048V2.00002ZM14.1845 2.00001C14.7035 1.9979 15.1378 2.39314 15.1845 2.91001L17.1764 2.73003C17.0363 1.17943 15.7333 -0.0062921 14.1764 2.49743e-05L14.1845 2.00001ZM15.1846 2.91102L15.5346 6.74102L17.5263 6.55901L17.1763 2.72901L15.1846 2.91102Z" fill="white"/>
</svg>
