<svg width="12" height="13" viewBox="0 0 12 13" fill="none" xmlns="http://www.w3.org/2000/svg">
<path d="M11.2044 12.1056L10.2924 3.42025C10.2732 3.23843 10.12 3.10037 9.93713 3.10037H8.2229V2.70953C8.2229 1.49124 7.23166 0.5 6.01337 0.5C4.79499 0.5 3.80375 1.49124 3.80375 2.70953V3.10037H2.08952C1.90669 3.10037 1.75343 3.23843 1.7343 3.42025L0.822252 12.1056C0.811723 12.2062 0.844407 12.3066 0.912065 12.3819C0.979814 12.457 1.07631 12.5 1.17748 12.5H10.8491C10.9503 12.5 11.0468 12.457 11.1145 12.3819C11.1823 12.3066 11.2149 12.2062 11.2044 12.1056ZM4.51804 2.70953C4.51804 1.8851 5.18885 1.21429 6.01337 1.21429C6.8378 1.21429 7.50861 1.8851 7.50861 2.70953V3.10037H4.51804V2.70953ZM1.57408 11.7857L2.41115 3.81466H3.80375V4.60174C3.80375 4.79894 3.96369 4.95888 4.1609 4.95888C4.3581 4.95888 4.51804 4.79894 4.51804 4.60174V3.81466H7.50861V4.60174C7.50861 4.79894 7.66855 4.95888 7.86576 4.95888C8.06296 4.95888 8.2229 4.79894 8.2229 4.60174V3.81466H9.61551L10.4526 11.7857H1.57408Z" fill="#140E14"/>
</svg>
