<svg width="4622" height="141" viewBox="0 0 4622 141" fill="none" xmlns="http://www.w3.org/2000/svg">
<path d="M19.3758 39.968H20.3758V38.968H19.3758V39.968ZM19.3758 70.064H18.3758V71.064H19.3758V70.064ZM28.0158 70.064V71.064H28.495L28.7952 70.6905L28.0158 70.064ZM52.2078 39.968V38.968H51.7286L51.4284 39.3415L52.2078 39.968ZM73.6638 39.968L74.4218 40.6202L75.8435 38.968H73.6638V39.968ZM41.6958 77.12L40.9378 76.4678L40.3806 77.1153L40.9332 77.7668L41.6958 77.12ZM74.6718 116V117H76.8312L75.4345 115.353L74.6718 116ZM53.6478 116L52.8755 116.635L53.1755 117H53.6478V116ZM28.3038 85.184L29.0762 84.5488L28.7761 84.184H28.3038V85.184ZM19.3758 85.184V84.184H18.3758V85.184H19.3758ZM19.3758 116V117H20.3758V116H19.3758ZM1.80781 116H0.807813V117H1.80781V116ZM1.80781 39.968V38.968H0.807813V39.968H1.80781ZM18.3758 39.968V70.064H20.3758V39.968H18.3758ZM19.3758 71.064H28.0158V69.064H19.3758V71.064ZM28.7952 70.6905L52.9872 40.5945L51.4284 39.3415L27.2364 69.4375L28.7952 70.6905ZM52.2078 40.968H73.6638V38.968H52.2078V40.968ZM72.9058 39.3158L40.9378 76.4678L42.4538 77.7722L74.4218 40.6202L72.9058 39.3158ZM40.9332 77.7668L73.9092 116.647L75.4345 115.353L42.4585 76.4732L40.9332 77.7668ZM74.6718 115H53.6478V117H74.6718V115ZM54.4202 115.365L29.0762 84.5488L27.5315 85.8192L52.8755 116.635L54.4202 115.365ZM28.3038 84.184H19.3758V86.184H28.3038V84.184ZM18.3758 85.184V116H20.3758V85.184H18.3758ZM19.3758 115H1.80781V117H19.3758V115ZM2.80781 116V39.968H0.807813V116H2.80781ZM1.80781 40.968H19.3758V38.968H1.80781V40.968ZM90.8583 106.352L90.1512 107.059L90.1557 107.064L90.8583 106.352ZM91.0023 50.048L91.705 50.7595L91.7094 50.7551L91.0023 50.048ZM148.89 49.904L148.183 50.6111L148.188 50.6155L148.89 49.904ZM148.746 106.064L149.453 106.771L149.453 106.771L148.746 106.064ZM136.65 95.552L137.388 96.2278L137.394 96.2201L136.65 95.552ZM136.362 60.848L135.626 61.5251L135.633 61.5324L136.362 60.848ZM103.098 60.704L103.836 61.3798L103.842 61.3721L103.098 60.704ZM103.386 95.408L102.65 96.0851L102.657 96.0924L103.386 95.408ZM119.658 116.728C108.382 116.728 99.0403 113.026 91.561 105.64L90.1557 107.064C98.0363 114.846 107.895 118.728 119.658 118.728V116.728ZM91.5654 105.645C84.0746 98.154 80.3383 89.0971 80.3383 78.416H78.3383C78.3383 89.6229 82.2821 99.19 90.1512 107.059L91.5654 105.645ZM80.3383 78.416V78.128H78.3383V78.416H80.3383ZM80.3383 78.128C80.3383 67.3523 84.1214 58.2495 91.705 50.7595L90.2996 49.3365C82.3312 57.2065 78.3383 66.8237 78.3383 78.128H80.3383ZM91.7094 50.7551C99.2882 43.1763 108.677 39.384 119.946 39.384V37.384C108.175 37.384 98.2684 41.3676 90.2952 49.3409L91.7094 50.7551ZM119.946 39.384C131.318 39.384 140.705 43.1326 148.183 50.6111L149.597 49.1969C141.716 41.3154 131.807 37.384 119.946 37.384V39.384ZM148.188 50.6155C155.673 58.0069 159.41 67.0605 159.41 77.84H161.41C161.41 66.5395 157.468 56.9691 149.593 49.1925L148.188 50.6155ZM159.41 77.84V78.128H161.41V77.84H159.41ZM159.41 78.128C159.41 88.7067 155.631 97.7655 148.039 105.357L149.453 106.771C157.414 98.8105 161.41 89.2453 161.41 78.128H159.41ZM148.039 105.357C140.462 112.934 131.026 116.728 119.658 116.728V118.728C131.523 118.728 141.478 114.746 149.453 106.771L148.039 105.357ZM119.946 103.464C127.106 103.464 132.953 101.065 137.387 96.2277L135.913 94.8763C131.9 99.2545 126.611 101.464 119.946 101.464V103.464ZM137.394 96.2201C141.794 91.3204 143.986 85.3657 143.986 78.416H141.986C141.986 84.9063 139.954 90.3756 135.906 94.8839L137.394 96.2201ZM143.986 78.416V78.128H141.986V78.416H143.986ZM143.986 78.128C143.986 71.0735 141.692 65.0642 137.091 60.1636L135.633 61.5324C139.865 66.0398 141.986 71.5505 141.986 78.128H143.986ZM137.098 60.1709C132.486 55.1582 126.648 52.648 119.658 52.648V54.648C126.108 54.648 131.406 56.9378 135.626 61.5251L137.098 60.1709ZM119.658 52.648C112.583 52.648 106.784 55.1028 102.354 60.0359L103.842 61.3721C107.861 56.8972 113.101 54.648 119.658 54.648V52.648ZM102.361 60.0283C97.9522 64.8381 95.7623 70.7984 95.7623 77.84H97.7623C97.7623 71.2496 99.7964 65.7859 103.835 61.3797L102.361 60.0283ZM95.7623 77.84V78.128H97.7623V77.84H95.7623ZM95.7623 78.128C95.7623 85.0904 98.059 91.0944 102.65 96.0851L104.122 94.7309C99.8817 90.1216 97.7623 84.6056 97.7623 78.128H95.7623ZM102.657 96.0924C107.268 101.004 113.054 103.464 119.946 103.464V101.464C113.59 101.464 108.337 99.2202 104.115 94.7236L102.657 96.0924ZM178.011 116H177.011V117H178.011V116ZM178.011 39.968V38.968H177.011V39.968H178.011ZM195.579 39.968H196.579V38.968H195.579V39.968ZM195.579 69.776H194.579V70.776H195.579V69.776ZM230.715 69.776V70.776H231.715V69.776H230.715ZM230.715 39.968V38.968H229.715V39.968H230.715ZM248.139 39.968H249.139V38.968H248.139V39.968ZM248.139 116V117H249.139V116H248.139ZM230.715 116H229.715V117H230.715V116ZM230.715 85.76H231.715V84.76H230.715V85.76ZM195.579 85.76V84.76H194.579V85.76H195.579ZM195.579 116V117H196.579V116H195.579ZM179.011 116V39.968H177.011V116H179.011ZM178.011 40.968H195.579V38.968H178.011V40.968ZM194.579 39.968V69.776H196.579V39.968H194.579ZM195.579 70.776H230.715V68.776H195.579V70.776ZM231.715 69.776V39.968H229.715V69.776H231.715ZM230.715 40.968H248.139V38.968H230.715V40.968ZM247.139 39.968V116H249.139V39.968H247.139ZM248.139 115H230.715V117H248.139V115ZM231.715 116V85.76H229.715V116H231.715ZM230.715 84.76H195.579V86.76H230.715V84.76ZM194.579 85.76V116H196.579V85.76H194.579ZM195.579 115H178.011V117H195.579V115ZM287.266 39.968H288.266V38.968H287.266V39.968ZM287.266 70.064H286.266V71.064H287.266V70.064ZM295.906 70.064V71.064H296.386L296.686 70.6905L295.906 70.064ZM320.098 39.968V38.968H319.619L319.319 39.3415L320.098 39.968ZM341.554 39.968L342.312 40.6202L343.734 38.968H341.554V39.968ZM309.586 77.12L308.828 76.4678L308.271 77.1153L308.824 77.7668L309.586 77.12ZM342.562 116V117H344.722L343.325 115.353L342.562 116ZM321.538 116L320.766 116.635L321.066 117H321.538V116ZM296.194 85.184L296.967 84.5488L296.667 84.184H296.194V85.184ZM287.266 85.184V84.184H286.266V85.184H287.266ZM287.266 116V117H288.266V116H287.266ZM269.698 116H268.698V117H269.698V116ZM269.698 39.968V38.968H268.698V39.968H269.698ZM286.266 39.968V70.064H288.266V39.968H286.266ZM287.266 71.064H295.906V69.064H287.266V71.064ZM296.686 70.6905L320.878 40.5945L319.319 39.3415L295.127 69.4375L296.686 70.6905ZM320.098 40.968H341.554V38.968H320.098V40.968ZM340.796 39.3158L308.828 76.4678L310.344 77.7722L342.312 40.6202L340.796 39.3158ZM308.824 77.7668L341.8 116.647L343.325 115.353L310.349 76.4732L308.824 77.7668ZM342.562 115H321.538V117H342.562V115ZM322.311 115.365L296.967 84.5488L295.422 85.8192L320.766 116.635L322.311 115.365ZM296.194 84.184H287.266V86.184H296.194V84.184ZM286.266 85.184V116H288.266V85.184H286.266ZM287.266 115H269.698V117H287.266V115ZM270.698 116V39.968H268.698V116H270.698ZM269.698 40.968H287.266V38.968H269.698V40.968ZM387.049 96.416L386.114 96.7692L387.082 99.3341L387.993 96.7481L387.049 96.416ZM406.921 39.968V38.968H406.213L405.978 39.6359L406.921 39.968ZM425.065 39.968L425.998 40.3293L426.525 38.968H425.065V39.968ZM394.825 118.016L395.757 118.38L395.758 118.377L394.825 118.016ZM384.601 134.576L383.955 133.813L383.95 133.817L383.944 133.822L384.601 134.576ZM351.769 134.72L350.861 134.302L350.477 135.135L351.275 135.589L351.769 134.72ZM357.673 121.904L358.139 121.019L357.206 120.528L356.765 121.486L357.673 121.904ZM374.089 122.768L373.482 121.974L373.456 121.994L373.431 122.015L374.089 122.768ZM378.697 116.144L379.608 116.558L379.788 116.162L379.621 115.76L378.697 116.144ZM347.017 39.968V38.968H345.519L346.094 40.352L347.017 39.968ZM365.737 39.968L366.673 39.6148L366.429 38.968H365.737V39.968ZM387.993 96.7481L407.865 40.3001L405.978 39.6359L386.106 96.0839L387.993 96.7481ZM406.921 40.968H425.065V38.968H406.921V40.968ZM424.133 39.6067L393.893 117.655L395.758 118.377L425.998 40.3293L424.133 39.6067ZM393.894 117.652C390.844 125.467 387.511 130.804 383.955 133.813L385.247 135.339C389.18 132.012 392.663 126.309 395.757 118.38L393.894 117.652ZM383.944 133.822C380.423 136.892 375.731 138.472 369.769 138.472V140.472C376.096 140.472 381.292 138.788 385.259 135.33L383.944 133.822ZM369.769 138.472C363.51 138.472 357.681 136.933 352.264 133.851L351.275 135.589C356.994 138.843 363.165 140.472 369.769 140.472V138.472ZM352.678 135.138L358.582 122.322L356.765 121.486L350.861 134.302L352.678 135.138ZM357.208 122.789C360.957 124.762 364.526 125.784 367.897 125.784V123.784C364.933 123.784 361.685 122.886 358.139 121.019L357.208 122.789ZM367.897 125.784C370.664 125.784 372.985 125.063 374.748 123.521L373.431 122.015C372.122 123.161 370.315 123.784 367.897 123.784V125.784ZM374.697 123.562C376.521 122.167 378.141 119.785 379.608 116.558L377.787 115.73C376.374 118.839 374.922 120.873 373.482 121.974L374.697 123.562ZM379.621 115.76L347.941 39.584L346.094 40.352L377.774 116.528L379.621 115.76ZM347.017 40.968H365.737V38.968H347.017V40.968ZM364.802 40.3212L386.114 96.7692L387.985 96.0628L366.673 39.6148L364.802 40.3212ZM439.855 139.04H438.855V140.04H439.855V139.04ZM439.855 39.968V38.968H438.855V39.968H439.855ZM457.423 39.968H458.423V38.968H457.423V39.968ZM457.423 52.64H456.423V55.7864L458.239 53.2173L457.423 52.64ZM508.111 106.928L507.399 106.226L507.394 106.231L508.111 106.928ZM457.423 104.192L458.222 103.591L456.423 101.201V104.192H457.423ZM457.423 139.04V140.04H458.423V139.04H457.423ZM463.471 95.696L462.741 96.38L462.748 96.3876L463.471 95.696ZM494.575 95.84L493.845 95.1566L493.844 95.1571L494.575 95.84ZM494.575 60.272L495.305 59.5886L495.305 59.5886L494.575 60.272ZM463.471 60.416L464.193 61.1076L464.2 61.0999L463.471 60.416ZM440.855 139.04V39.968H438.855V139.04H440.855ZM439.855 40.968H457.423V38.968H439.855V40.968ZM456.423 39.968V52.64H458.423V39.968H456.423ZM458.239 53.2173C464.794 43.9468 473.144 39.384 483.343 39.384V37.384C472.421 37.384 463.491 42.3252 456.606 52.0627L458.239 53.2173ZM483.343 39.384C492.565 39.384 500.568 42.8181 507.399 49.7423L508.823 48.3377C501.637 41.0538 493.129 37.384 483.343 37.384V39.384ZM507.399 49.7423C514.184 56.6207 517.623 65.9475 517.623 77.84H519.623C519.623 65.5405 516.053 55.6672 508.823 48.3377L507.399 49.7423ZM517.623 77.84V78.128H519.623V77.84H517.623ZM517.623 78.128C517.623 90.0205 514.184 99.3472 507.399 106.226L508.823 107.63C516.053 100.301 519.623 90.4275 519.623 78.128H517.623ZM507.394 106.231C500.663 113.148 492.663 116.584 483.343 116.584V118.584C493.222 118.584 501.734 114.916 508.827 107.625L507.394 106.231ZM483.343 116.584C473.118 116.584 464.766 112.285 458.222 103.591L456.624 104.793C463.52 113.955 472.448 118.584 483.343 118.584V116.584ZM456.423 104.192V139.04H458.423V104.192H456.423ZM457.423 138.04H439.855V140.04H457.423V138.04ZM462.748 96.3876C467.253 101.093 472.745 103.464 479.167 103.464V101.464C473.301 101.464 468.328 99.3231 464.193 95.0044L462.748 96.3876ZM479.167 103.464C485.582 103.464 490.985 101.145 495.305 96.5229L493.844 95.1571C489.909 99.3671 485.039 101.464 479.167 101.464V103.464ZM495.305 96.5234C499.733 91.7933 501.911 85.629 501.911 78.128H499.911C499.911 85.219 497.865 90.8626 493.845 95.1566L495.305 96.5234ZM501.911 78.128V77.84H499.911V78.128H501.911ZM501.911 77.84C501.911 70.431 499.731 64.3161 495.305 59.5886L493.845 60.9554C497.867 65.2518 499.911 70.849 499.911 77.84H501.911ZM495.305 59.5886C490.896 54.8796 485.498 52.504 479.167 52.504V54.504C484.931 54.504 489.805 56.6404 493.845 60.9554L495.305 59.5886ZM479.167 52.504C472.738 52.504 467.244 54.9288 462.741 59.7321L464.2 61.0999C468.337 56.6872 473.308 54.504 479.167 54.504V52.504ZM462.748 59.7244C458.225 64.4485 455.991 70.5165 455.991 77.84H457.991C457.991 70.9555 460.076 65.4075 464.193 61.1076L462.748 59.7244ZM455.991 77.84V78.128H457.991V77.84H455.991ZM455.991 78.128C455.991 85.4518 458.225 91.563 462.741 96.3799L464.2 95.0121C460.076 90.613 457.991 85.0122 457.991 78.128H455.991ZM543.664 106.352L542.948 107.05L542.952 107.055L543.664 106.352ZM543.664 50.048L542.948 49.3498L542.944 49.3544L543.664 50.048ZM602.416 51.488L603.145 52.1722L603.79 51.4855L603.143 50.8011L602.416 51.488ZM591.472 63.152L590.749 63.8425L591.478 64.6068L592.201 63.8362L591.472 63.152ZM556.192 60.704L556.936 61.3721L556.936 61.3721L556.192 60.704ZM556.192 95.408L555.448 96.0762L555.456 96.0844L556.192 95.408ZM592.336 93.104L593.038 92.392L592.331 91.6946L591.629 92.3969L592.336 93.104ZM602.848 103.472L603.593 104.139L604.229 103.429L603.55 102.76L602.848 103.472ZM589.456 114.128L589.903 115.022L589.91 115.019L589.917 115.015L589.456 114.128ZM571.744 116.728C560.763 116.728 551.665 113.032 544.376 105.649L542.952 107.055C550.639 114.84 560.261 118.728 571.744 118.728V116.728ZM544.38 105.654C537.078 98.1648 533.432 89.1051 533.432 78.416H531.432C531.432 89.6149 535.274 99.1792 542.948 107.05L544.38 105.654ZM533.432 78.416V78.128H531.432V78.416H533.432ZM533.432 78.128C533.432 67.4387 537.079 58.3285 544.384 50.7416L542.944 49.3544C535.274 57.3195 531.432 66.9293 531.432 78.128H533.432ZM544.38 50.7462C551.767 43.1723 560.961 39.384 572.032 39.384V37.384C560.447 37.384 550.729 41.3717 542.948 49.3498L544.38 50.7462ZM572.032 39.384C583.757 39.384 593.622 43.6384 601.689 52.1749L603.143 50.8011C594.698 41.8656 584.308 37.384 572.032 37.384V39.384ZM601.687 50.8038L590.743 62.4678L592.201 63.8362L603.145 52.1722L601.687 50.8038ZM592.195 62.4615C586.009 55.9804 579.234 52.648 571.888 52.648V54.648C578.558 54.648 584.839 57.6516 590.749 63.8425L592.195 62.4615ZM571.888 52.648C565.36 52.648 559.859 55.1238 555.448 60.0359L556.936 61.3721C560.973 56.8762 565.936 54.648 571.888 54.648V52.648ZM555.448 60.0359C551.048 64.9356 548.856 70.8903 548.856 77.84H550.856C550.856 71.3497 552.888 65.8804 556.936 61.3721L555.448 60.0359ZM548.856 77.84V78.128H550.856V77.84H548.856ZM548.856 78.128C548.856 85.1697 551.046 91.1736 555.448 96.0761L556.936 94.7399C552.89 90.2344 550.856 84.7183 550.856 78.128H548.856ZM555.456 96.0844C559.973 101.003 565.716 103.464 572.608 103.464V101.464C566.252 101.464 561.051 99.2209 556.929 94.7316L555.456 96.0844ZM572.608 103.464C579.853 103.464 586.67 100.184 593.043 93.8111L591.629 92.3969C585.522 98.5038 579.187 101.464 572.608 101.464V103.464ZM591.634 93.816L602.146 104.184L603.55 102.76L593.038 92.392L591.634 93.816ZM602.103 102.805C598.044 107.336 593.674 110.808 588.995 113.241L589.917 115.015C594.839 112.456 599.396 108.824 603.593 104.139L602.103 102.805ZM589.009 113.234C584.384 115.546 578.643 116.728 571.744 116.728V118.728C578.862 118.728 584.929 117.51 589.903 115.022L589.009 113.234ZM647.502 134.432L646.603 133.993L645.901 135.432H647.502V134.432ZM712.59 1.08799V0.0879946H711.965L711.691 0.649342L712.59 1.08799ZM727.71 1.08799L728.608 1.52665L729.31 0.0879946H727.71V1.08799ZM662.622 134.432V135.432H663.246L663.52 134.871L662.622 134.432ZM648.4 134.871L713.488 1.52665L711.691 0.649342L646.603 133.993L648.4 134.871ZM712.59 2.08799H727.71V0.0879946H712.59V2.08799ZM726.811 0.649342L661.723 133.993L663.52 134.871L728.608 1.52665L726.811 0.649342ZM662.622 133.432H647.502V135.432H662.622V133.432ZM797.735 39.968H798.735V38.968H797.735V39.968ZM797.735 70.064H796.735V71.064H797.735V70.064ZM806.375 70.064V71.064H806.854L807.155 70.6905L806.375 70.064ZM830.567 39.968V38.968H830.088L829.788 39.3415L830.567 39.968ZM852.023 39.968L852.781 40.6202L854.203 38.968H852.023V39.968ZM820.055 77.12L819.297 76.4678L818.74 77.1153L819.293 77.7668L820.055 77.12ZM853.031 116V117H855.191L853.794 115.353L853.031 116ZM832.007 116L831.235 116.635L831.535 117H832.007V116ZM806.663 85.184L807.436 84.5488L807.136 84.184H806.663V85.184ZM797.735 85.184V84.184H796.735V85.184H797.735ZM797.735 116V117H798.735V116H797.735ZM780.167 116H779.167V117H780.167V116ZM780.167 39.968V38.968H779.167V39.968H780.167ZM796.735 39.968V70.064H798.735V39.968H796.735ZM797.735 71.064H806.375V69.064H797.735V71.064ZM807.155 70.6905L831.347 40.5945L829.788 39.3415L805.596 69.4375L807.155 70.6905ZM830.567 40.968H852.023V38.968H830.567V40.968ZM851.265 39.3158L819.297 76.4678L820.813 77.7722L852.781 40.6202L851.265 39.3158ZM819.293 77.7668L852.269 116.647L853.794 115.353L820.818 76.4732L819.293 77.7668ZM853.031 115H832.007V117H853.031V115ZM832.78 115.365L807.436 84.5488L805.891 85.8192L831.235 116.635L832.78 115.365ZM806.663 84.184H797.735V86.184H806.663V84.184ZM796.735 85.184V116H798.735V85.184H796.735ZM797.735 115H780.167V117H797.735V115ZM781.167 116V39.968H779.167V116H781.167ZM780.167 40.968H797.735V38.968H780.167V40.968ZM869.218 106.352L868.511 107.059L868.515 107.064L869.218 106.352ZM869.362 50.048L870.064 50.7595L870.069 50.7551L869.362 50.048ZM927.25 49.904L926.543 50.6111L926.547 50.6155L927.25 49.904ZM927.106 106.064L927.813 106.771L927.813 106.771L927.106 106.064ZM915.01 95.552L915.747 96.2278L915.754 96.2201L915.01 95.552ZM914.722 60.848L913.986 61.5251L913.993 61.5324L914.722 60.848ZM881.458 60.704L882.195 61.3798L882.202 61.3721L881.458 60.704ZM881.746 95.408L881.01 96.0851L881.017 96.0924L881.746 95.408ZM898.018 116.728C886.741 116.728 877.4 113.026 869.92 105.64L868.515 107.064C876.396 114.846 886.254 118.728 898.018 118.728V116.728ZM869.925 105.645C862.434 98.154 858.698 89.0971 858.698 78.416H856.698C856.698 89.6229 860.641 99.19 868.511 107.059L869.925 105.645ZM858.698 78.416V78.128H856.698V78.416H858.698ZM858.698 78.128C858.698 67.3523 862.481 58.2495 870.064 50.7595L868.659 49.3365C860.691 57.2065 856.698 66.8237 856.698 78.128H858.698ZM870.069 50.7551C877.648 43.1763 887.037 39.384 898.306 39.384V37.384C886.535 37.384 876.628 41.3676 868.655 49.3409L870.069 50.7551ZM898.306 39.384C909.677 39.384 919.064 43.1326 926.543 50.6111L927.957 49.1969C920.075 41.3154 910.166 37.384 898.306 37.384V39.384ZM926.547 50.6155C934.032 58.0069 937.77 67.0605 937.77 77.84H939.77C939.77 66.5395 935.827 56.9691 927.952 49.1925L926.547 50.6155ZM937.77 77.84V78.128H939.77V77.84H937.77ZM937.77 78.128C937.77 88.7067 933.99 97.7655 926.399 105.357L927.813 106.771C935.773 98.8105 939.77 89.2453 939.77 78.128H937.77ZM926.399 105.357C918.822 112.934 909.385 116.728 898.018 116.728V118.728C909.882 118.728 919.838 114.746 927.813 106.771L926.399 105.357ZM898.306 103.464C905.465 103.464 911.312 101.065 915.747 96.2277L914.273 94.8763C910.259 99.2545 904.97 101.464 898.306 101.464V103.464ZM915.754 96.2201C920.154 91.3204 922.346 85.3657 922.346 78.416H920.346C920.346 84.9063 918.314 90.3756 914.266 94.8839L915.754 96.2201ZM922.346 78.416V78.128H920.346V78.416H922.346ZM922.346 78.128C922.346 71.0735 920.051 65.0642 915.451 60.1636L913.993 61.5324C918.224 66.0398 920.346 71.5505 920.346 78.128H922.346ZM915.458 60.1709C910.846 55.1582 905.008 52.648 898.018 52.648V54.648C904.468 54.648 909.766 56.9378 913.986 61.5251L915.458 60.1709ZM898.018 52.648C890.943 52.648 885.143 55.1028 880.714 60.0359L882.202 61.3721C886.22 56.8972 891.461 54.648 898.018 54.648V52.648ZM880.721 60.0283C876.312 64.8381 874.122 70.7984 874.122 77.84H876.122C876.122 71.2496 878.156 65.7859 882.195 61.3797L880.721 60.0283ZM874.122 77.84V78.128H876.122V77.84H874.122ZM874.122 78.128C874.122 85.0904 876.418 91.0944 881.01 96.0851L882.482 94.7309C878.241 90.1216 876.122 84.6056 876.122 78.128H874.122ZM881.017 96.0924C885.627 101.004 891.414 103.464 898.306 103.464V101.464C891.95 101.464 886.696 99.2202 882.475 94.7236L881.017 96.0924ZM956.37 116H955.37V117H956.37V116ZM956.37 39.968V38.968H955.37V39.968H956.37ZM973.938 39.968H974.938V38.968H973.938V39.968ZM973.938 69.776H972.938V70.776H973.938V69.776ZM1009.07 69.776V70.776H1010.07V69.776H1009.07ZM1009.07 39.968V38.968H1008.07V39.968H1009.07ZM1026.5 39.968H1027.5V38.968H1026.5V39.968ZM1026.5 116V117H1027.5V116H1026.5ZM1009.07 116H1008.07V117H1009.07V116ZM1009.07 85.76H1010.07V84.76H1009.07V85.76ZM973.938 85.76V84.76H972.938V85.76H973.938ZM973.938 116V117H974.938V116H973.938ZM957.37 116V39.968H955.37V116H957.37ZM956.37 40.968H973.938V38.968H956.37V40.968ZM972.938 39.968V69.776H974.938V39.968H972.938ZM973.938 70.776H1009.07V68.776H973.938V70.776ZM1010.07 69.776V39.968H1008.07V69.776H1010.07ZM1009.07 40.968H1026.5V38.968H1009.07V40.968ZM1025.5 39.968V116H1027.5V39.968H1025.5ZM1026.5 115H1009.07V117H1026.5V115ZM1010.07 116V85.76H1008.07V116H1010.07ZM1009.07 84.76H973.938V86.76H1009.07V84.76ZM972.938 85.76V116H974.938V85.76H972.938ZM973.938 115H956.37V117H973.938V115ZM1065.63 39.968H1066.63V38.968H1065.63V39.968ZM1065.63 70.064H1064.63V71.064H1065.63V70.064ZM1074.27 70.064V71.064H1074.75L1075.05 70.6905L1074.27 70.064ZM1098.46 39.968V38.968H1097.98L1097.68 39.3415L1098.46 39.968ZM1119.91 39.968L1120.67 40.6202L1122.09 38.968H1119.91V39.968ZM1087.95 77.12L1087.19 76.4678L1086.63 77.1153L1087.18 77.7668L1087.95 77.12ZM1120.92 116V117H1123.08L1121.68 115.353L1120.92 116ZM1099.9 116L1099.13 116.635L1099.43 117H1099.9V116ZM1074.55 85.184L1075.33 84.5488L1075.03 84.184H1074.55V85.184ZM1065.63 85.184V84.184H1064.63V85.184H1065.63ZM1065.63 116V117H1066.63V116H1065.63ZM1048.06 116H1047.06V117H1048.06V116ZM1048.06 39.968V38.968H1047.06V39.968H1048.06ZM1064.63 39.968V70.064H1066.63V39.968H1064.63ZM1065.63 71.064H1074.27V69.064H1065.63V71.064ZM1075.05 70.6905L1099.24 40.5945L1097.68 39.3415L1073.49 69.4375L1075.05 70.6905ZM1098.46 40.968H1119.91V38.968H1098.46V40.968ZM1119.16 39.3158L1087.19 76.4678L1088.7 77.7722L1120.67 40.6202L1119.16 39.3158ZM1087.18 77.7668L1120.16 116.647L1121.68 115.353L1088.71 76.4732L1087.18 77.7668ZM1120.92 115H1099.9V117H1120.92V115ZM1100.67 115.365L1075.33 84.5488L1073.78 85.8192L1099.13 116.635L1100.67 115.365ZM1074.55 84.184H1065.63V86.184H1074.55V84.184ZM1064.63 85.184V116H1066.63V85.184H1064.63ZM1065.63 115H1048.06V117H1065.63V115ZM1049.06 116V39.968H1047.06V116H1049.06ZM1048.06 40.968H1065.63V38.968H1048.06V40.968ZM1165.41 96.416L1164.47 96.7692L1165.44 99.3341L1166.35 96.7481L1165.41 96.416ZM1185.28 39.968V38.968H1184.57L1184.34 39.6359L1185.28 39.968ZM1203.42 39.968L1204.36 40.3293L1204.88 38.968H1203.42V39.968ZM1173.18 118.016L1174.12 118.38L1174.12 118.377L1173.18 118.016ZM1162.96 134.576L1162.31 133.813L1162.31 133.817L1162.3 133.822L1162.96 134.576ZM1130.13 134.72L1129.22 134.302L1128.84 135.135L1129.63 135.589L1130.13 134.72ZM1136.03 121.904L1136.5 121.019L1135.57 120.528L1135.12 121.486L1136.03 121.904ZM1152.45 122.768L1151.84 121.974L1151.82 121.994L1151.79 122.015L1152.45 122.768ZM1157.06 116.144L1157.97 116.558L1158.15 116.162L1157.98 115.76L1157.06 116.144ZM1125.38 39.968V38.968H1123.88L1124.45 40.352L1125.38 39.968ZM1144.1 39.968L1145.03 39.6148L1144.79 38.968H1144.1V39.968ZM1166.35 96.7481L1186.22 40.3001L1184.34 39.6359L1164.47 96.0839L1166.35 96.7481ZM1185.28 40.968H1203.42V38.968H1185.28V40.968ZM1202.49 39.6067L1172.25 117.655L1174.12 118.377L1204.36 40.3293L1202.49 39.6067ZM1172.25 117.652C1169.2 125.467 1165.87 130.804 1162.31 133.813L1163.61 135.339C1167.54 132.012 1171.02 126.309 1174.12 118.38L1172.25 117.652ZM1162.3 133.822C1158.78 136.892 1154.09 138.472 1148.13 138.472V140.472C1154.45 140.472 1159.65 138.788 1163.62 135.33L1162.3 133.822ZM1148.13 138.472C1141.87 138.472 1136.04 136.933 1130.62 133.851L1129.63 135.589C1135.35 138.843 1141.52 140.472 1148.13 140.472V138.472ZM1131.04 135.138L1136.94 122.322L1135.12 121.486L1129.22 134.302L1131.04 135.138ZM1135.57 122.789C1139.32 124.762 1142.89 125.784 1146.26 125.784V123.784C1143.29 123.784 1140.04 122.886 1136.5 121.019L1135.57 122.789ZM1146.26 125.784C1149.02 125.784 1151.34 125.063 1153.11 123.521L1151.79 122.015C1150.48 123.161 1148.67 123.784 1146.26 123.784V125.784ZM1153.06 123.562C1154.88 122.167 1156.5 119.785 1157.97 116.558L1156.15 115.73C1154.73 118.839 1153.28 120.873 1151.84 121.974L1153.06 123.562ZM1157.98 115.76L1126.3 39.584L1124.45 40.352L1156.13 116.528L1157.98 115.76ZM1125.38 40.968H1144.1V38.968H1125.38V40.968ZM1143.16 40.3212L1164.47 96.7692L1166.34 96.0628L1145.03 39.6148L1143.16 40.3212ZM1218.21 139.04H1217.21V140.04H1218.21V139.04ZM1218.21 39.968V38.968H1217.21V39.968H1218.21ZM1235.78 39.968H1236.78V38.968H1235.78V39.968ZM1235.78 52.64H1234.78V55.7864L1236.6 53.2173L1235.78 52.64ZM1286.47 106.928L1285.76 106.226L1285.75 106.231L1286.47 106.928ZM1235.78 104.192L1236.58 103.591L1234.78 101.201V104.192H1235.78ZM1235.78 139.04V140.04H1236.78V139.04H1235.78ZM1241.83 95.696L1241.1 96.38L1241.11 96.3876L1241.83 95.696ZM1272.93 95.84L1272.2 95.1566L1272.2 95.1571L1272.93 95.84ZM1272.93 60.272L1273.66 59.5886L1273.66 59.5886L1272.93 60.272ZM1241.83 60.416L1242.55 61.1076L1242.56 61.0999L1241.83 60.416ZM1219.21 139.04V39.968H1217.21V139.04H1219.21ZM1218.21 40.968H1235.78V38.968H1218.21V40.968ZM1234.78 39.968V52.64H1236.78V39.968H1234.78ZM1236.6 53.2173C1243.15 43.9468 1251.5 39.384 1261.7 39.384V37.384C1250.78 37.384 1241.85 42.3252 1234.97 52.0627L1236.6 53.2173ZM1261.7 39.384C1270.92 39.384 1278.93 42.8181 1285.76 49.7423L1287.18 48.3377C1280 41.0538 1271.49 37.384 1261.7 37.384V39.384ZM1285.76 49.7423C1292.54 56.6207 1295.98 65.9475 1295.98 77.84H1297.98C1297.98 65.5405 1294.41 55.6672 1287.18 48.3377L1285.76 49.7423ZM1295.98 77.84V78.128H1297.98V77.84H1295.98ZM1295.98 78.128C1295.98 90.0205 1292.54 99.3472 1285.76 106.226L1287.18 107.63C1294.41 100.301 1297.98 90.4275 1297.98 78.128H1295.98ZM1285.75 106.231C1279.02 113.148 1271.02 116.584 1261.7 116.584V118.584C1271.58 118.584 1280.09 114.916 1287.19 107.625L1285.75 106.231ZM1261.7 116.584C1251.48 116.584 1243.12 112.285 1236.58 103.591L1234.98 104.793C1241.88 113.955 1250.81 118.584 1261.7 118.584V116.584ZM1234.78 104.192V139.04H1236.78V104.192H1234.78ZM1235.78 138.04H1218.21V140.04H1235.78V138.04ZM1241.11 96.3876C1245.61 101.093 1251.1 103.464 1257.53 103.464V101.464C1251.66 101.464 1246.69 99.3231 1242.55 95.0044L1241.11 96.3876ZM1257.53 103.464C1263.94 103.464 1269.34 101.145 1273.66 96.5229L1272.2 95.1571C1268.27 99.3671 1263.4 101.464 1257.53 101.464V103.464ZM1273.66 96.5234C1278.09 91.7933 1280.27 85.629 1280.27 78.128H1278.27C1278.27 85.219 1276.22 90.8626 1272.2 95.1566L1273.66 96.5234ZM1280.27 78.128V77.84H1278.27V78.128H1280.27ZM1280.27 77.84C1280.27 70.431 1278.09 64.3161 1273.66 59.5886L1272.2 60.9554C1276.23 65.2518 1278.27 70.849 1278.27 77.84H1280.27ZM1273.66 59.5886C1269.26 54.8796 1263.86 52.504 1257.53 52.504V54.504C1263.29 54.504 1268.16 56.6404 1272.2 60.9554L1273.66 59.5886ZM1257.53 52.504C1251.1 52.504 1245.6 54.9288 1241.1 59.7321L1242.56 61.0999C1246.7 56.6872 1251.67 54.504 1257.53 54.504V52.504ZM1241.11 59.7244C1236.58 64.4485 1234.35 70.5165 1234.35 77.84H1236.35C1236.35 70.9555 1238.44 65.4075 1242.55 61.1076L1241.11 59.7244ZM1234.35 77.84V78.128H1236.35V77.84H1234.35ZM1234.35 78.128C1234.35 85.4518 1236.58 91.563 1241.1 96.3799L1242.56 95.0121C1238.44 90.613 1236.35 85.0122 1236.35 78.128H1234.35ZM1322.02 106.352L1321.31 107.05L1321.31 107.055L1322.02 106.352ZM1322.02 50.048L1321.31 49.3498L1321.3 49.3544L1322.02 50.048ZM1380.78 51.488L1381.5 52.1722L1382.15 51.4855L1381.5 50.8011L1380.78 51.488ZM1369.83 63.152L1369.11 63.8425L1369.84 64.6068L1370.56 63.8362L1369.83 63.152ZM1334.55 60.704L1335.3 61.3721L1335.3 61.3721L1334.55 60.704ZM1334.55 95.408L1333.81 96.0762L1333.81 96.0844L1334.55 95.408ZM1370.7 93.104L1371.4 92.392L1370.69 91.6946L1369.99 92.3969L1370.7 93.104ZM1381.21 103.472L1381.95 104.139L1382.59 103.429L1381.91 102.76L1381.21 103.472ZM1367.82 114.128L1368.26 115.022L1368.27 115.019L1368.28 115.015L1367.82 114.128ZM1350.1 116.728C1339.12 116.728 1330.02 113.032 1322.74 105.649L1321.31 107.055C1329 114.84 1338.62 118.728 1350.1 118.728V116.728ZM1322.74 105.654C1315.44 98.1648 1311.79 89.1051 1311.79 78.416H1309.79C1309.79 89.6149 1313.63 99.1792 1321.31 107.05L1322.74 105.654ZM1311.79 78.416V78.128H1309.79V78.416H1311.79ZM1311.79 78.128C1311.79 67.4387 1315.44 58.3285 1322.74 50.7416L1321.3 49.3544C1313.63 57.3195 1309.79 66.9293 1309.79 78.128H1311.79ZM1322.74 50.7462C1330.13 43.1723 1339.32 39.384 1350.39 39.384V37.384C1338.81 37.384 1329.09 41.3717 1321.31 49.3498L1322.74 50.7462ZM1350.39 39.384C1362.12 39.384 1371.98 43.6384 1380.05 52.1749L1381.5 50.8011C1373.06 41.8656 1362.67 37.384 1350.39 37.384V39.384ZM1380.05 50.8038L1369.1 62.4678L1370.56 63.8362L1381.5 52.1722L1380.05 50.8038ZM1370.55 62.4615C1364.37 55.9804 1357.59 52.648 1350.25 52.648V54.648C1356.92 54.648 1363.2 57.6516 1369.11 63.8425L1370.55 62.4615ZM1350.25 52.648C1343.72 52.648 1338.22 55.1238 1333.81 60.0359L1335.3 61.3721C1339.33 56.8762 1344.3 54.648 1350.25 54.648V52.648ZM1333.81 60.0359C1329.41 64.9356 1327.22 70.8903 1327.22 77.84H1329.22C1329.22 71.3497 1331.25 65.8804 1335.3 61.3721L1333.81 60.0359ZM1327.22 77.84V78.128H1329.22V77.84H1327.22ZM1327.22 78.128C1327.22 85.1697 1329.41 91.1736 1333.81 96.0761L1335.3 94.7399C1331.25 90.2344 1329.22 84.7183 1329.22 78.128H1327.22ZM1333.81 96.0844C1338.33 101.003 1344.08 103.464 1350.97 103.464V101.464C1344.61 101.464 1339.41 99.2209 1335.29 94.7316L1333.81 96.0844ZM1350.97 103.464C1358.21 103.464 1365.03 100.184 1371.4 93.8111L1369.99 92.3969C1363.88 98.5038 1357.55 101.464 1350.97 101.464V103.464ZM1369.99 93.816L1380.51 104.184L1381.91 102.76L1371.4 92.392L1369.99 93.816ZM1380.46 102.805C1376.4 107.336 1372.03 110.808 1367.35 113.241L1368.28 115.015C1373.2 112.456 1377.76 108.824 1381.95 104.139L1380.46 102.805ZM1367.37 113.234C1362.74 115.546 1357 116.728 1350.1 116.728V118.728C1357.22 118.728 1363.29 117.51 1368.26 115.022L1367.37 113.234ZM1425.86 134.432L1424.96 133.993L1424.26 135.432H1425.86V134.432ZM1490.95 1.08799V0.0879946H1490.32L1490.05 0.649342L1490.95 1.08799ZM1506.07 1.08799L1506.97 1.52665L1507.67 0.0879946H1506.07V1.08799ZM1440.98 134.432V135.432H1441.61L1441.88 134.871L1440.98 134.432ZM1426.76 134.871L1491.85 1.52665L1490.05 0.649342L1424.96 133.993L1426.76 134.871ZM1490.95 2.08799H1506.07V0.0879946H1490.95V2.08799ZM1505.17 0.649342L1440.08 133.993L1441.88 134.871L1506.97 1.52665L1505.17 0.649342ZM1440.98 133.432H1425.86V135.432H1440.98V133.432ZM1576.09 39.968H1577.09V38.968H1576.09V39.968ZM1576.09 70.064H1575.09V71.064H1576.09V70.064ZM1584.73 70.064V71.064H1585.21L1585.51 70.6905L1584.73 70.064ZM1608.93 39.968V38.968H1608.45L1608.15 39.3415L1608.93 39.968ZM1630.38 39.968L1631.14 40.6202L1632.56 38.968H1630.38V39.968ZM1598.41 77.12L1597.66 76.4678L1597.1 77.1153L1597.65 77.7668L1598.41 77.12ZM1631.39 116V117H1633.55L1632.15 115.353L1631.39 116ZM1610.37 116L1609.59 116.635L1609.89 117H1610.37V116ZM1585.02 85.184L1585.79 84.5488L1585.49 84.184H1585.02V85.184ZM1576.09 85.184V84.184H1575.09V85.184H1576.09ZM1576.09 116V117H1577.09V116H1576.09ZM1558.53 116H1557.53V117H1558.53V116ZM1558.53 39.968V38.968H1557.53V39.968H1558.53ZM1575.09 39.968V70.064H1577.09V39.968H1575.09ZM1576.09 71.064H1584.73V69.064H1576.09V71.064ZM1585.51 70.6905L1609.71 40.5945L1608.15 39.3415L1583.96 69.4375L1585.51 70.6905ZM1608.93 40.968H1630.38V38.968H1608.93V40.968ZM1629.62 39.3158L1597.66 76.4678L1599.17 77.7722L1631.14 40.6202L1629.62 39.3158ZM1597.65 77.7668L1630.63 116.647L1632.15 115.353L1599.18 76.4732L1597.65 77.7668ZM1631.39 115H1610.37V117H1631.39V115ZM1611.14 115.365L1585.79 84.5488L1584.25 85.8192L1609.59 116.635L1611.14 115.365ZM1585.02 84.184H1576.09V86.184H1585.02V84.184ZM1575.09 85.184V116H1577.09V85.184H1575.09ZM1576.09 115H1558.53V117H1576.09V115ZM1559.53 116V39.968H1557.53V116H1559.53ZM1558.53 40.968H1576.09V38.968H1558.53V40.968ZM1647.58 106.352L1646.87 107.059L1646.87 107.064L1647.58 106.352ZM1647.72 50.048L1648.42 50.7595L1648.43 50.7551L1647.72 50.048ZM1705.61 49.904L1704.9 50.6111L1704.91 50.6155L1705.61 49.904ZM1705.47 106.064L1706.17 106.771L1706.17 106.771L1705.47 106.064ZM1693.37 95.552L1694.11 96.2278L1694.11 96.2201L1693.37 95.552ZM1693.08 60.848L1692.35 61.5251L1692.35 61.5324L1693.08 60.848ZM1659.82 60.704L1660.55 61.3798L1660.56 61.3721L1659.82 60.704ZM1660.11 95.408L1659.37 96.0851L1659.38 96.0924L1660.11 95.408ZM1676.38 116.728C1665.1 116.728 1655.76 113.026 1648.28 105.64L1646.87 107.064C1654.76 114.846 1664.61 118.728 1676.38 118.728V116.728ZM1648.28 105.645C1640.79 98.154 1637.06 89.0971 1637.06 78.416H1635.06C1635.06 89.6229 1639 99.19 1646.87 107.059L1648.28 105.645ZM1637.06 78.416V78.128H1635.06V78.416H1637.06ZM1637.06 78.128C1637.06 67.3523 1640.84 58.2495 1648.42 50.7595L1647.02 49.3365C1639.05 57.2065 1635.06 66.8237 1635.06 78.128H1637.06ZM1648.43 50.7551C1656.01 43.1763 1665.4 39.384 1676.67 39.384V37.384C1664.89 37.384 1654.99 41.3676 1647.01 49.3409L1648.43 50.7551ZM1676.67 39.384C1688.04 39.384 1697.42 43.1326 1704.9 50.6111L1706.32 49.1969C1698.43 41.3154 1688.53 37.384 1676.67 37.384V39.384ZM1704.91 50.6155C1712.39 58.0069 1716.13 67.0605 1716.13 77.84H1718.13C1718.13 66.5395 1714.19 56.9691 1706.31 49.1925L1704.91 50.6155ZM1716.13 77.84V78.128H1718.13V77.84H1716.13ZM1716.13 78.128C1716.13 88.7067 1712.35 97.7655 1704.76 105.357L1706.17 106.771C1714.13 98.8105 1718.13 89.2453 1718.13 78.128H1716.13ZM1704.76 105.357C1697.18 112.934 1687.74 116.728 1676.38 116.728V118.728C1688.24 118.728 1698.2 114.746 1706.17 106.771L1704.76 105.357ZM1676.67 103.464C1683.82 103.464 1689.67 101.065 1694.11 96.2277L1692.63 94.8763C1688.62 99.2545 1683.33 101.464 1676.67 101.464V103.464ZM1694.11 96.2201C1698.51 91.3204 1700.71 85.3657 1700.71 78.416H1698.71C1698.71 84.9063 1696.67 90.3756 1692.63 94.8839L1694.11 96.2201ZM1700.71 78.416V78.128H1698.71V78.416H1700.71ZM1700.71 78.128C1700.71 71.0735 1698.41 65.0642 1693.81 60.1636L1692.35 61.5324C1696.58 66.0398 1698.71 71.5505 1698.71 78.128H1700.71ZM1693.82 60.1709C1689.21 55.1582 1683.37 52.648 1676.38 52.648V54.648C1682.83 54.648 1688.12 56.9378 1692.35 61.5251L1693.82 60.1709ZM1676.38 52.648C1669.3 52.648 1663.5 55.1028 1659.07 60.0359L1660.56 61.3721C1664.58 56.8972 1669.82 54.648 1676.38 54.648V52.648ZM1659.08 60.0283C1654.67 64.8381 1652.48 70.7984 1652.48 77.84H1654.48C1654.48 71.2496 1656.52 65.7859 1660.55 61.3797L1659.08 60.0283ZM1652.48 77.84V78.128H1654.48V77.84H1652.48ZM1652.48 78.128C1652.48 85.0904 1654.78 91.0944 1659.37 96.0851L1660.84 94.7309C1656.6 90.1216 1654.48 84.6056 1654.48 78.128H1652.48ZM1659.38 96.0924C1663.99 101.004 1669.77 103.464 1676.67 103.464V101.464C1670.31 101.464 1665.06 99.2202 1660.83 94.7236L1659.38 96.0924ZM1734.73 116H1733.73V117H1734.73V116ZM1734.73 39.968V38.968H1733.73V39.968H1734.73ZM1752.3 39.968H1753.3V38.968H1752.3V39.968ZM1752.3 69.776H1751.3V70.776H1752.3V69.776ZM1787.43 69.776V70.776H1788.43V69.776H1787.43ZM1787.43 39.968V38.968H1786.43V39.968H1787.43ZM1804.86 39.968H1805.86V38.968H1804.86V39.968ZM1804.86 116V117H1805.86V116H1804.86ZM1787.43 116H1786.43V117H1787.43V116ZM1787.43 85.76H1788.43V84.76H1787.43V85.76ZM1752.3 85.76V84.76H1751.3V85.76H1752.3ZM1752.3 116V117H1753.3V116H1752.3ZM1735.73 116V39.968H1733.73V116H1735.73ZM1734.73 40.968H1752.3V38.968H1734.73V40.968ZM1751.3 39.968V69.776H1753.3V39.968H1751.3ZM1752.3 70.776H1787.43V68.776H1752.3V70.776ZM1788.43 69.776V39.968H1786.43V69.776H1788.43ZM1787.43 40.968H1804.86V38.968H1787.43V40.968ZM1803.86 39.968V116H1805.86V39.968H1803.86ZM1804.86 115H1787.43V117H1804.86V115ZM1788.43 116V85.76H1786.43V116H1788.43ZM1787.43 84.76H1752.3V86.76H1787.43V84.76ZM1751.3 85.76V116H1753.3V85.76H1751.3ZM1752.3 115H1734.73V117H1752.3V115ZM1843.99 39.968H1844.99V38.968H1843.99V39.968ZM1843.99 70.064H1842.99V71.064H1843.99V70.064ZM1852.63 70.064V71.064H1853.1L1853.4 70.6905L1852.63 70.064ZM1876.82 39.968V38.968H1876.34L1876.04 39.3415L1876.82 39.968ZM1898.27 39.968L1899.03 40.6202L1900.45 38.968H1898.27V39.968ZM1866.31 77.12L1865.55 76.4678L1864.99 77.1153L1865.54 77.7668L1866.31 77.12ZM1899.28 116V117H1901.44L1900.04 115.353L1899.28 116ZM1878.26 116L1877.48 116.635L1877.78 117H1878.26V116ZM1852.91 85.184L1853.69 84.5488L1853.39 84.184H1852.91V85.184ZM1843.99 85.184V84.184H1842.99V85.184H1843.99ZM1843.99 116V117H1844.99V116H1843.99ZM1826.42 116H1825.42V117H1826.42V116ZM1826.42 39.968V38.968H1825.42V39.968H1826.42ZM1842.99 39.968V70.064H1844.99V39.968H1842.99ZM1843.99 71.064H1852.63V69.064H1843.99V71.064ZM1853.4 70.6905L1877.6 40.5945L1876.04 39.3415L1851.85 69.4375L1853.4 70.6905ZM1876.82 40.968H1898.27V38.968H1876.82V40.968ZM1897.52 39.3158L1865.55 76.4678L1867.06 77.7722L1899.03 40.6202L1897.52 39.3158ZM1865.54 77.7668L1898.52 116.647L1900.04 115.353L1867.07 76.4732L1865.54 77.7668ZM1899.28 115H1878.26V117H1899.28V115ZM1879.03 115.365L1853.69 84.5488L1852.14 85.8192L1877.48 116.635L1879.03 115.365ZM1852.91 84.184H1843.99V86.184H1852.91V84.184ZM1842.99 85.184V116H1844.99V85.184H1842.99ZM1843.99 115H1826.42V117H1843.99V115ZM1827.42 116V39.968H1825.42V116H1827.42ZM1826.42 40.968H1843.99V38.968H1826.42V40.968ZM1943.77 96.416L1942.83 96.7692L1943.8 99.3341L1944.71 96.7481L1943.77 96.416ZM1963.64 39.968V38.968H1962.93L1962.7 39.6359L1963.64 39.968ZM1981.78 39.968L1982.72 40.3293L1983.24 38.968H1981.78V39.968ZM1951.54 118.016L1952.48 118.38L1952.48 118.377L1951.54 118.016ZM1941.32 134.576L1940.67 133.813L1940.67 133.817L1940.66 133.822L1941.32 134.576ZM1908.49 134.72L1907.58 134.302L1907.2 135.135L1907.99 135.589L1908.49 134.72ZM1914.39 121.904L1914.86 121.019L1913.93 120.528L1913.48 121.486L1914.39 121.904ZM1930.81 122.768L1930.2 121.974L1930.17 121.994L1930.15 122.015L1930.81 122.768ZM1935.42 116.144L1936.33 116.558L1936.51 116.162L1936.34 115.76L1935.42 116.144ZM1903.74 39.968V38.968H1902.24L1902.81 40.352L1903.74 39.968ZM1922.46 39.968L1923.39 39.6148L1923.15 38.968H1922.46V39.968ZM1944.71 96.7481L1964.58 40.3001L1962.7 39.6359L1942.82 96.0839L1944.71 96.7481ZM1963.64 40.968H1981.78V38.968H1963.64V40.968ZM1980.85 39.6067L1950.61 117.655L1952.48 118.377L1982.72 40.3293L1980.85 39.6067ZM1950.61 117.652C1947.56 125.467 1944.23 130.804 1940.67 133.813L1941.97 135.339C1945.9 132.012 1949.38 126.309 1952.48 118.38L1950.61 117.652ZM1940.66 133.822C1937.14 136.892 1932.45 138.472 1926.49 138.472V140.472C1932.81 140.472 1938.01 138.788 1941.98 135.33L1940.66 133.822ZM1926.49 138.472C1920.23 138.472 1914.4 136.933 1908.98 133.851L1907.99 135.589C1913.71 138.843 1919.88 140.472 1926.49 140.472V138.472ZM1909.4 135.138L1915.3 122.322L1913.48 121.486L1907.58 134.302L1909.4 135.138ZM1913.93 122.789C1917.68 124.762 1921.24 125.784 1924.62 125.784V123.784C1921.65 123.784 1918.4 122.886 1914.86 121.019L1913.93 122.789ZM1924.62 125.784C1927.38 125.784 1929.7 125.063 1931.47 123.521L1930.15 122.015C1928.84 123.161 1927.03 123.784 1924.62 123.784V125.784ZM1931.42 123.562C1933.24 122.167 1934.86 119.785 1936.33 116.558L1934.51 115.73C1933.09 118.839 1931.64 120.873 1930.2 121.974L1931.42 123.562ZM1936.34 115.76L1904.66 39.584L1902.81 40.352L1934.49 116.528L1936.34 115.76ZM1903.74 40.968H1922.46V38.968H1903.74V40.968ZM1921.52 40.3212L1942.83 96.7692L1944.7 96.0628L1923.39 39.6148L1921.52 40.3212ZM1996.57 139.04H1995.57V140.04H1996.57V139.04ZM1996.57 39.968V38.968H1995.57V39.968H1996.57ZM2014.14 39.968H2015.14V38.968H2014.14V39.968ZM2014.14 52.64H2013.14V55.7864L2014.96 53.2173L2014.14 52.64ZM2064.83 106.928L2064.12 106.226L2064.11 106.231L2064.83 106.928ZM2014.14 104.192L2014.94 103.591L2013.14 101.201V104.192H2014.14ZM2014.14 139.04V140.04H2015.14V139.04H2014.14ZM2020.19 95.696L2019.46 96.38L2019.47 96.3876L2020.19 95.696ZM2051.29 95.84L2050.56 95.1566L2050.56 95.1571L2051.29 95.84ZM2051.29 60.272L2052.02 59.5886L2052.02 59.5886L2051.29 60.272ZM2020.19 60.416L2020.91 61.1076L2020.92 61.0999L2020.19 60.416ZM1997.57 139.04V39.968H1995.57V139.04H1997.57ZM1996.57 40.968H2014.14V38.968H1996.57V40.968ZM2013.14 39.968V52.64H2015.14V39.968H2013.14ZM2014.96 53.2173C2021.51 43.9468 2029.86 39.384 2040.06 39.384V37.384C2029.14 37.384 2020.21 42.3252 2013.32 52.0627L2014.96 53.2173ZM2040.06 39.384C2049.28 39.384 2057.29 42.8181 2064.12 49.7423L2065.54 48.3377C2058.36 41.0538 2049.85 37.384 2040.06 37.384V39.384ZM2064.12 49.7423C2070.9 56.6207 2074.34 65.9475 2074.34 77.84H2076.34C2076.34 65.5405 2072.77 55.6672 2065.54 48.3377L2064.12 49.7423ZM2074.34 77.84V78.128H2076.34V77.84H2074.34ZM2074.34 78.128C2074.34 90.0205 2070.9 99.3472 2064.12 106.226L2065.54 107.63C2072.77 100.301 2076.34 90.4275 2076.34 78.128H2074.34ZM2064.11 106.231C2057.38 113.148 2049.38 116.584 2040.06 116.584V118.584C2049.94 118.584 2058.45 114.916 2065.55 107.625L2064.11 106.231ZM2040.06 116.584C2029.84 116.584 2021.48 112.285 2014.94 103.591L2013.34 104.793C2020.24 113.955 2029.17 118.584 2040.06 118.584V116.584ZM2013.14 104.192V139.04H2015.14V104.192H2013.14ZM2014.14 138.04H1996.57V140.04H2014.14V138.04ZM2019.47 96.3876C2023.97 101.093 2029.46 103.464 2035.89 103.464V101.464C2030.02 101.464 2025.05 99.3231 2020.91 95.0044L2019.47 96.3876ZM2035.89 103.464C2042.3 103.464 2047.7 101.145 2052.02 96.5229L2050.56 95.1571C2046.63 99.3671 2041.76 101.464 2035.89 101.464V103.464ZM2052.02 96.5234C2056.45 91.7933 2058.63 85.629 2058.63 78.128H2056.63C2056.63 85.219 2054.58 90.8626 2050.56 95.1566L2052.02 96.5234ZM2058.63 78.128V77.84H2056.63V78.128H2058.63ZM2058.63 77.84C2058.63 70.431 2056.45 64.3161 2052.02 59.5886L2050.56 60.9554C2054.59 65.2518 2056.63 70.849 2056.63 77.84H2058.63ZM2052.02 59.5886C2047.62 54.8796 2042.22 52.504 2035.89 52.504V54.504C2041.65 54.504 2046.52 56.6404 2050.56 60.9554L2052.02 59.5886ZM2035.89 52.504C2029.46 52.504 2023.96 54.9288 2019.46 59.7321L2020.92 61.0999C2025.06 56.6872 2030.03 54.504 2035.89 54.504V52.504ZM2019.47 59.7244C2014.94 64.4485 2012.71 70.5165 2012.71 77.84H2014.71C2014.71 70.9555 2016.79 65.4075 2020.91 61.1076L2019.47 59.7244ZM2012.71 77.84V78.128H2014.71V77.84H2012.71ZM2012.71 78.128C2012.71 85.4518 2014.94 91.563 2019.46 96.3799L2020.92 95.0121C2016.79 90.613 2014.71 85.0122 2014.71 78.128H2012.71ZM2100.38 106.352L2099.67 107.05L2099.67 107.055L2100.38 106.352ZM2100.38 50.048L2099.67 49.3498L2099.66 49.3544L2100.38 50.048ZM2159.13 51.488L2159.86 52.1722L2160.51 51.4855L2159.86 50.8011L2159.13 51.488ZM2148.19 63.152L2147.47 63.8425L2148.2 64.6068L2148.92 63.8362L2148.19 63.152ZM2112.91 60.704L2113.65 61.3721L2113.65 61.3721L2112.91 60.704ZM2112.91 95.408L2112.17 96.0762L2112.17 96.0844L2112.91 95.408ZM2149.05 93.104L2149.76 92.392L2149.05 91.6946L2148.35 92.3969L2149.05 93.104ZM2159.57 103.472L2160.31 104.139L2160.95 103.429L2160.27 102.76L2159.57 103.472ZM2146.17 114.128L2146.62 115.022L2146.63 115.019L2146.64 115.015L2146.17 114.128ZM2128.46 116.728C2117.48 116.728 2108.38 113.032 2101.09 105.649L2099.67 107.055C2107.36 114.84 2116.98 118.728 2128.46 118.728V116.728ZM2101.1 105.654C2093.8 98.1648 2090.15 89.1051 2090.15 78.416H2088.15C2088.15 89.6149 2091.99 99.1792 2099.67 107.05L2101.1 105.654ZM2090.15 78.416V78.128H2088.15V78.416H2090.15ZM2090.15 78.128C2090.15 67.4387 2093.8 58.3285 2101.1 50.7416L2099.66 49.3544C2091.99 57.3195 2088.15 66.9293 2088.15 78.128H2090.15ZM2101.1 50.7462C2108.49 43.1723 2117.68 39.384 2128.75 39.384V37.384C2117.17 37.384 2107.45 41.3717 2099.67 49.3498L2101.1 50.7462ZM2128.75 39.384C2140.48 39.384 2150.34 43.6384 2158.41 52.1749L2159.86 50.8011C2151.42 41.8656 2141.03 37.384 2128.75 37.384V39.384ZM2158.41 50.8038L2147.46 62.4678L2148.92 63.8362L2159.86 52.1722L2158.41 50.8038ZM2148.91 62.4615C2142.73 55.9804 2135.95 52.648 2128.61 52.648V54.648C2135.28 54.648 2141.56 57.6516 2147.47 63.8425L2148.91 62.4615ZM2128.61 52.648C2122.08 52.648 2116.58 55.1238 2112.17 60.0359L2113.65 61.3721C2117.69 56.8762 2122.65 54.648 2128.61 54.648V52.648ZM2112.17 60.0359C2107.77 64.9356 2105.57 70.8903 2105.57 77.84H2107.57C2107.57 71.3497 2109.61 65.8804 2113.65 61.3721L2112.17 60.0359ZM2105.57 77.84V78.128H2107.57V77.84H2105.57ZM2105.57 78.128C2105.57 85.1697 2107.76 91.1736 2112.17 96.0761L2113.65 94.7399C2109.61 90.2344 2107.57 84.7183 2107.57 78.128H2105.57ZM2112.17 96.0844C2116.69 101.003 2122.43 103.464 2129.33 103.464V101.464C2122.97 101.464 2117.77 99.2209 2113.65 94.7316L2112.17 96.0844ZM2129.33 103.464C2136.57 103.464 2143.39 100.184 2149.76 93.8111L2148.35 92.3969C2142.24 98.5038 2135.91 101.464 2129.33 101.464V103.464ZM2148.35 93.816L2158.86 104.184L2160.27 102.76L2149.76 92.392L2148.35 93.816ZM2158.82 102.805C2154.76 107.336 2150.39 110.808 2145.71 113.241L2146.64 115.015C2151.56 112.456 2156.11 108.824 2160.31 104.139L2158.82 102.805ZM2145.73 113.234C2141.1 115.546 2135.36 116.728 2128.46 116.728V118.728C2135.58 118.728 2141.65 117.51 2146.62 115.022L2145.73 113.234ZM2204.22 134.432L2203.32 133.993L2202.62 135.432H2204.22V134.432ZM2269.31 1.08799V0.0879946H2268.68L2268.41 0.649342L2269.31 1.08799ZM2284.43 1.08799L2285.33 1.52665L2286.03 0.0879946H2284.43V1.08799ZM2219.34 134.432V135.432H2219.96L2220.24 134.871L2219.34 134.432ZM2205.12 134.871L2270.21 1.52665L2268.41 0.649342L2203.32 133.993L2205.12 134.871ZM2269.31 2.08799H2284.43V0.0879946H2269.31V2.08799ZM2283.53 0.649342L2218.44 133.993L2220.24 134.871L2285.33 1.52665L2283.53 0.649342ZM2219.34 133.432H2204.22V135.432H2219.34V133.432ZM2354.45 39.968H2355.45V38.968H2354.45V39.968ZM2354.45 70.064H2353.45V71.064H2354.45V70.064ZM2363.09 70.064V71.064H2363.57L2363.87 70.6905L2363.09 70.064ZM2387.29 39.968V38.968H2386.81L2386.51 39.3415L2387.29 39.968ZM2408.74 39.968L2409.5 40.6202L2410.92 38.968H2408.74V39.968ZM2376.77 77.12L2376.02 76.4678L2375.46 77.1153L2376.01 77.7668L2376.77 77.12ZM2409.75 116V117H2411.91L2410.51 115.353L2409.75 116ZM2388.73 116L2387.95 116.635L2388.25 117H2388.73V116ZM2363.38 85.184L2364.15 84.5488L2363.85 84.184H2363.38V85.184ZM2354.45 85.184V84.184H2353.45V85.184H2354.45ZM2354.45 116V117H2355.45V116H2354.45ZM2336.89 116H2335.89V117H2336.89V116ZM2336.89 39.968V38.968H2335.89V39.968H2336.89ZM2353.45 39.968V70.064H2355.45V39.968H2353.45ZM2354.45 71.064H2363.09V69.064H2354.45V71.064ZM2363.87 70.6905L2388.07 40.5945L2386.51 39.3415L2362.31 69.4375L2363.87 70.6905ZM2387.29 40.968H2408.74V38.968H2387.29V40.968ZM2407.98 39.3158L2376.02 76.4678L2377.53 77.7722L2409.5 40.6202L2407.98 39.3158ZM2376.01 77.7668L2408.99 116.647L2410.51 115.353L2377.54 76.4732L2376.01 77.7668ZM2409.75 115H2388.73V117H2409.75V115ZM2389.5 115.365L2364.15 84.5488L2362.61 85.8192L2387.95 116.635L2389.5 115.365ZM2363.38 84.184H2354.45V86.184H2363.38V84.184ZM2353.45 85.184V116H2355.45V85.184H2353.45ZM2354.45 115H2336.89V117H2354.45V115ZM2337.89 116V39.968H2335.89V116H2337.89ZM2336.89 40.968H2354.45V38.968H2336.89V40.968ZM2425.94 106.352L2425.23 107.059L2425.23 107.064L2425.94 106.352ZM2426.08 50.048L2426.78 50.7595L2426.79 50.7551L2426.08 50.048ZM2483.97 49.904L2483.26 50.6111L2483.27 50.6155L2483.97 49.904ZM2483.82 106.064L2484.53 106.771L2484.53 106.771L2483.82 106.064ZM2471.73 95.552L2472.47 96.2278L2472.47 96.2201L2471.73 95.552ZM2471.44 60.848L2470.7 61.5251L2470.71 61.5324L2471.44 60.848ZM2438.18 60.704L2438.91 61.3798L2438.92 61.3721L2438.18 60.704ZM2438.46 95.408L2437.73 96.0851L2437.74 96.0924L2438.46 95.408ZM2454.74 116.728C2443.46 116.728 2434.12 113.026 2426.64 105.64L2425.23 107.064C2433.11 114.846 2442.97 118.728 2454.74 118.728V116.728ZM2426.64 105.645C2419.15 98.154 2415.42 89.0971 2415.42 78.416H2413.42C2413.42 89.6229 2417.36 99.19 2425.23 107.059L2426.64 105.645ZM2415.42 78.416V78.128H2413.42V78.416H2415.42ZM2415.42 78.128C2415.42 67.3523 2419.2 58.2495 2426.78 50.7595L2425.38 49.3365C2417.41 57.2065 2413.42 66.8237 2413.42 78.128H2415.42ZM2426.79 50.7551C2434.37 43.1763 2443.76 39.384 2455.02 39.384V37.384C2443.25 37.384 2433.35 41.3676 2425.37 49.3409L2426.79 50.7551ZM2455.02 39.384C2466.4 39.384 2475.78 43.1326 2483.26 50.6111L2484.68 49.1969C2476.79 41.3154 2466.89 37.384 2455.02 37.384V39.384ZM2483.27 50.6155C2490.75 58.0069 2494.49 67.0605 2494.49 77.84H2496.49C2496.49 66.5395 2492.55 56.9691 2484.67 49.1925L2483.27 50.6155ZM2494.49 77.84V78.128H2496.49V77.84H2494.49ZM2494.49 78.128C2494.49 88.7067 2490.71 97.7655 2483.12 105.357L2484.53 106.771C2492.49 98.8105 2496.49 89.2453 2496.49 78.128H2494.49ZM2483.12 105.357C2475.54 112.934 2466.1 116.728 2454.74 116.728V118.728C2466.6 118.728 2476.56 114.746 2484.53 106.771L2483.12 105.357ZM2455.02 103.464C2462.18 103.464 2468.03 101.065 2472.47 96.2277L2470.99 94.8763C2466.98 99.2545 2461.69 101.464 2455.02 101.464V103.464ZM2472.47 96.2201C2476.87 91.3204 2479.06 85.3657 2479.06 78.416H2477.06C2477.06 84.9063 2475.03 90.3756 2470.98 94.8839L2472.47 96.2201ZM2479.06 78.416V78.128H2477.06V78.416H2479.06ZM2479.06 78.128C2479.06 71.0735 2476.77 65.0642 2472.17 60.1636L2470.71 61.5324C2474.94 66.0398 2477.06 71.5505 2477.06 78.128H2479.06ZM2472.18 60.1709C2467.56 55.1582 2461.73 52.648 2454.74 52.648V54.648C2461.19 54.648 2466.48 56.9378 2470.7 61.5251L2472.18 60.1709ZM2454.74 52.648C2447.66 52.648 2441.86 55.1028 2437.43 60.0359L2438.92 61.3721C2442.94 56.8972 2448.18 54.648 2454.74 54.648V52.648ZM2437.44 60.0283C2433.03 64.8381 2430.84 70.7984 2430.84 77.84H2432.84C2432.84 71.2496 2434.87 65.7859 2438.91 61.3797L2437.44 60.0283ZM2430.84 77.84V78.128H2432.84V77.84H2430.84ZM2430.84 78.128C2430.84 85.0904 2433.14 91.0944 2437.73 96.0851L2439.2 94.7309C2434.96 90.1216 2432.84 84.6056 2432.84 78.128H2430.84ZM2437.74 96.0924C2442.35 101.004 2448.13 103.464 2455.02 103.464V101.464C2448.67 101.464 2443.41 99.2202 2439.19 94.7236L2437.74 96.0924ZM2513.09 116H2512.09V117H2513.09V116ZM2513.09 39.968V38.968H2512.09V39.968H2513.09ZM2530.66 39.968H2531.66V38.968H2530.66V39.968ZM2530.66 69.776H2529.66V70.776H2530.66V69.776ZM2565.79 69.776V70.776H2566.79V69.776H2565.79ZM2565.79 39.968V38.968H2564.79V39.968H2565.79ZM2583.22 39.968H2584.22V38.968H2583.22V39.968ZM2583.22 116V117H2584.22V116H2583.22ZM2565.79 116H2564.79V117H2565.79V116ZM2565.79 85.76H2566.79V84.76H2565.79V85.76ZM2530.66 85.76V84.76H2529.66V85.76H2530.66ZM2530.66 116V117H2531.66V116H2530.66ZM2514.09 116V39.968H2512.09V116H2514.09ZM2513.09 40.968H2530.66V38.968H2513.09V40.968ZM2529.66 39.968V69.776H2531.66V39.968H2529.66ZM2530.66 70.776H2565.79V68.776H2530.66V70.776ZM2566.79 69.776V39.968H2564.79V69.776H2566.79ZM2565.79 40.968H2583.22V38.968H2565.79V40.968ZM2582.22 39.968V116H2584.22V39.968H2582.22ZM2583.22 115H2565.79V117H2583.22V115ZM2566.79 116V85.76H2564.79V116H2566.79ZM2565.79 84.76H2530.66V86.76H2565.79V84.76ZM2529.66 85.76V116H2531.66V85.76H2529.66ZM2530.66 115H2513.09V117H2530.66V115ZM2622.34 39.968H2623.34V38.968H2622.34V39.968ZM2622.34 70.064H2621.34V71.064H2622.34V70.064ZM2630.98 70.064V71.064H2631.46L2631.76 70.6905L2630.98 70.064ZM2655.18 39.968V38.968H2654.7L2654.4 39.3415L2655.18 39.968ZM2676.63 39.968L2677.39 40.6202L2678.81 38.968H2676.63V39.968ZM2644.66 77.12L2643.91 76.4678L2643.35 77.1153L2643.9 77.7668L2644.66 77.12ZM2677.64 116V117H2679.8L2678.4 115.353L2677.64 116ZM2656.62 116L2655.84 116.635L2656.14 117H2656.62V116ZM2631.27 85.184L2632.04 84.5488L2631.74 84.184H2631.27V85.184ZM2622.34 85.184V84.184H2621.34V85.184H2622.34ZM2622.34 116V117H2623.34V116H2622.34ZM2604.78 116H2603.78V117H2604.78V116ZM2604.78 39.968V38.968H2603.78V39.968H2604.78ZM2621.34 39.968V70.064H2623.34V39.968H2621.34ZM2622.34 71.064H2630.98V69.064H2622.34V71.064ZM2631.76 70.6905L2655.96 40.5945L2654.4 39.3415L2630.21 69.4375L2631.76 70.6905ZM2655.18 40.968H2676.63V38.968H2655.18V40.968ZM2675.87 39.3158L2643.91 76.4678L2645.42 77.7722L2677.39 40.6202L2675.87 39.3158ZM2643.9 77.7668L2676.88 116.647L2678.4 115.353L2645.43 76.4732L2643.9 77.7668ZM2677.64 115H2656.62V117H2677.64V115ZM2657.39 115.365L2632.04 84.5488L2630.5 85.8192L2655.84 116.635L2657.39 115.365ZM2631.27 84.184H2622.34V86.184H2631.27V84.184ZM2621.34 85.184V116H2623.34V85.184H2621.34ZM2622.34 115H2604.78V117H2622.34V115ZM2605.78 116V39.968H2603.78V116H2605.78ZM2604.78 40.968H2622.34V38.968H2604.78V40.968ZM2722.13 96.416L2721.19 96.7692L2722.16 99.3341L2723.07 96.7481L2722.13 96.416ZM2742 39.968V38.968H2741.29L2741.06 39.6359L2742 39.968ZM2760.14 39.968L2761.08 40.3293L2761.6 38.968H2760.14V39.968ZM2729.9 118.016L2730.84 118.38L2730.84 118.377L2729.9 118.016ZM2719.68 134.576L2719.03 133.813L2719.03 133.817L2719.02 133.822L2719.68 134.576ZM2686.85 134.72L2685.94 134.302L2685.56 135.135L2686.35 135.589L2686.85 134.72ZM2692.75 121.904L2693.22 121.019L2692.28 120.528L2691.84 121.486L2692.75 121.904ZM2709.17 122.768L2708.56 121.974L2708.53 121.994L2708.51 122.015L2709.17 122.768ZM2713.78 116.144L2714.69 116.558L2714.87 116.162L2714.7 115.76L2713.78 116.144ZM2682.1 39.968V38.968H2680.6L2681.17 40.352L2682.1 39.968ZM2700.82 39.968L2701.75 39.6148L2701.51 38.968H2700.82V39.968ZM2723.07 96.7481L2742.94 40.3001L2741.06 39.6359L2721.18 96.0839L2723.07 96.7481ZM2742 40.968H2760.14V38.968H2742V40.968ZM2759.21 39.6067L2728.97 117.655L2730.84 118.377L2761.08 40.3293L2759.21 39.6067ZM2728.97 117.652C2725.92 125.467 2722.59 130.804 2719.03 133.813L2720.33 135.339C2724.26 132.012 2727.74 126.309 2730.84 118.38L2728.97 117.652ZM2719.02 133.822C2715.5 136.892 2710.81 138.472 2704.85 138.472V140.472C2711.17 140.472 2716.37 138.788 2720.34 135.33L2719.02 133.822ZM2704.85 138.472C2698.59 138.472 2692.76 136.933 2687.34 133.851L2686.35 135.589C2692.07 138.843 2698.24 140.472 2704.85 140.472V138.472ZM2687.76 135.138L2693.66 122.322L2691.84 121.486L2685.94 134.302L2687.76 135.138ZM2692.29 122.789C2696.04 124.762 2699.6 125.784 2702.98 125.784V123.784C2700.01 123.784 2696.76 122.886 2693.22 121.019L2692.29 122.789ZM2702.98 125.784C2705.74 125.784 2708.06 125.063 2709.83 123.521L2708.51 122.015C2707.2 123.161 2705.39 123.784 2702.98 123.784V125.784ZM2709.78 123.562C2711.6 122.167 2713.22 119.785 2714.69 116.558L2712.87 115.73C2711.45 118.839 2710 120.873 2708.56 121.974L2709.78 123.562ZM2714.7 115.76L2683.02 39.584L2681.17 40.352L2712.85 116.528L2714.7 115.76ZM2682.1 40.968H2700.82V38.968H2682.1V40.968ZM2699.88 40.3212L2721.19 96.7692L2723.06 96.0628L2701.75 39.6148L2699.88 40.3212ZM2774.93 139.04H2773.93V140.04H2774.93V139.04ZM2774.93 39.968V38.968H2773.93V39.968H2774.93ZM2792.5 39.968H2793.5V38.968H2792.5V39.968ZM2792.5 52.64H2791.5V55.7864L2793.32 53.2173L2792.5 52.64ZM2843.19 106.928L2842.48 106.226L2842.47 106.231L2843.19 106.928ZM2792.5 104.192L2793.3 103.591L2791.5 101.201V104.192H2792.5ZM2792.5 139.04V140.04H2793.5V139.04H2792.5ZM2798.55 95.696L2797.82 96.38L2797.83 96.3876L2798.55 95.696ZM2829.65 95.84L2828.92 95.1566L2828.92 95.1571L2829.65 95.84ZM2829.65 60.272L2830.38 59.5886L2830.38 59.5886L2829.65 60.272ZM2798.55 60.416L2799.27 61.1076L2799.28 61.0999L2798.55 60.416ZM2775.93 139.04V39.968H2773.93V139.04H2775.93ZM2774.93 40.968H2792.5V38.968H2774.93V40.968ZM2791.5 39.968V52.64H2793.5V39.968H2791.5ZM2793.32 53.2173C2799.87 43.9468 2808.22 39.384 2818.42 39.384V37.384C2807.5 37.384 2798.57 42.3252 2791.68 52.0627L2793.32 53.2173ZM2818.42 39.384C2827.64 39.384 2835.65 42.8181 2842.48 49.7423L2843.9 48.3377C2836.72 41.0538 2828.21 37.384 2818.42 37.384V39.384ZM2842.48 49.7423C2849.26 56.6207 2852.7 65.9475 2852.7 77.84H2854.7C2854.7 65.5405 2851.13 55.6672 2843.9 48.3377L2842.48 49.7423ZM2852.7 77.84V78.128H2854.7V77.84H2852.7ZM2852.7 78.128C2852.7 90.0205 2849.26 99.3472 2842.48 106.226L2843.9 107.63C2851.13 100.301 2854.7 90.4275 2854.7 78.128H2852.7ZM2842.47 106.231C2835.74 113.148 2827.74 116.584 2818.42 116.584V118.584C2828.3 118.584 2836.81 114.916 2843.91 107.625L2842.47 106.231ZM2818.42 116.584C2808.2 116.584 2799.84 112.285 2793.3 103.591L2791.7 104.793C2798.6 113.955 2807.53 118.584 2818.42 118.584V116.584ZM2791.5 104.192V139.04H2793.5V104.192H2791.5ZM2792.5 138.04H2774.93V140.04H2792.5V138.04ZM2797.83 96.3876C2802.33 101.093 2807.82 103.464 2814.24 103.464V101.464C2808.38 101.464 2803.41 99.3231 2799.27 95.0044L2797.83 96.3876ZM2814.24 103.464C2820.66 103.464 2826.06 101.145 2830.38 96.5229L2828.92 95.1571C2824.99 99.3671 2820.12 101.464 2814.24 101.464V103.464ZM2830.38 96.5234C2834.81 91.7933 2836.99 85.629 2836.99 78.128H2834.99C2834.99 85.219 2832.94 90.8626 2828.92 95.1566L2830.38 96.5234ZM2836.99 78.128V77.84H2834.99V78.128H2836.99ZM2836.99 77.84C2836.99 70.431 2834.81 64.3161 2830.38 59.5886L2828.92 60.9554C2832.94 65.2518 2834.99 70.849 2834.99 77.84H2836.99ZM2830.38 59.5886C2825.97 54.8796 2820.58 52.504 2814.24 52.504V54.504C2820.01 54.504 2824.88 56.6404 2828.92 60.9554L2830.38 59.5886ZM2814.24 52.504C2807.82 52.504 2802.32 54.9288 2797.82 59.7321L2799.28 61.0999C2803.42 56.6872 2808.39 54.504 2814.24 54.504V52.504ZM2797.83 59.7244C2793.3 64.4485 2791.07 70.5165 2791.07 77.84H2793.07C2793.07 70.9555 2795.15 65.4075 2799.27 61.1076L2797.83 59.7244ZM2791.07 77.84V78.128H2793.07V77.84H2791.07ZM2791.07 78.128C2791.07 85.4518 2793.3 91.563 2797.82 96.3799L2799.28 95.0121C2795.15 90.613 2793.07 85.0122 2793.07 78.128H2791.07ZM2878.74 106.352L2878.03 107.05L2878.03 107.055L2878.74 106.352ZM2878.74 50.048L2878.03 49.3498L2878.02 49.3544L2878.74 50.048ZM2937.49 51.488L2938.22 52.1722L2938.87 51.4855L2938.22 50.8011L2937.49 51.488ZM2926.55 63.152L2925.83 63.8425L2926.56 64.6068L2927.28 63.8362L2926.55 63.152ZM2891.27 60.704L2892.01 61.3721L2892.01 61.3721L2891.27 60.704ZM2891.27 95.408L2890.53 96.0762L2890.53 96.0844L2891.27 95.408ZM2927.41 93.104L2928.12 92.392L2927.41 91.6946L2926.71 92.3969L2927.41 93.104ZM2937.93 103.472L2938.67 104.139L2939.31 103.429L2938.63 102.76L2937.93 103.472ZM2924.53 114.128L2924.98 115.022L2924.99 115.019L2925 115.015L2924.53 114.128ZM2906.82 116.728C2895.84 116.728 2886.74 113.032 2879.45 105.649L2878.03 107.055C2885.72 114.84 2895.34 118.728 2906.82 118.728V116.728ZM2879.46 105.654C2872.16 98.1648 2868.51 89.1051 2868.51 78.416H2866.51C2866.51 89.6149 2870.35 99.1792 2878.03 107.05L2879.46 105.654ZM2868.51 78.416V78.128H2866.51V78.416H2868.51ZM2868.51 78.128C2868.51 67.4387 2872.16 58.3285 2879.46 50.7416L2878.02 49.3544C2870.35 57.3195 2866.51 66.9293 2866.51 78.128H2868.51ZM2879.46 50.7462C2886.85 43.1723 2896.04 39.384 2907.11 39.384V37.384C2895.53 37.384 2885.81 41.3717 2878.03 49.3498L2879.46 50.7462ZM2907.11 39.384C2918.83 39.384 2928.7 43.6384 2936.77 52.1749L2938.22 50.8011C2929.78 41.8656 2919.39 37.384 2907.11 37.384V39.384ZM2936.76 50.8038L2925.82 62.4678L2927.28 63.8362L2938.22 52.1722L2936.76 50.8038ZM2927.27 62.4615C2921.09 55.9804 2914.31 52.648 2906.97 52.648V54.648C2913.64 54.648 2919.92 57.6516 2925.83 63.8425L2927.27 62.4615ZM2906.97 52.648C2900.44 52.648 2894.94 55.1238 2890.53 60.0359L2892.01 61.3721C2896.05 56.8762 2901.01 54.648 2906.97 54.648V52.648ZM2890.53 60.0359C2886.13 64.9356 2883.93 70.8903 2883.93 77.84H2885.93C2885.93 71.3497 2887.97 65.8804 2892.01 61.3721L2890.53 60.0359ZM2883.93 77.84V78.128H2885.93V77.84H2883.93ZM2883.93 78.128C2883.93 85.1697 2886.12 91.1736 2890.53 96.0761L2892.01 94.7399C2887.97 90.2344 2885.93 84.7183 2885.93 78.128H2883.93ZM2890.53 96.0844C2895.05 101.003 2900.79 103.464 2907.69 103.464V101.464C2901.33 101.464 2896.13 99.2209 2892.01 94.7316L2890.53 96.0844ZM2907.69 103.464C2914.93 103.464 2921.75 100.184 2928.12 93.8111L2926.71 92.3969C2920.6 98.5038 2914.26 101.464 2907.69 101.464V103.464ZM2926.71 93.816L2937.22 104.184L2938.63 102.76L2928.12 92.392L2926.71 93.816ZM2937.18 102.805C2933.12 107.336 2928.75 110.808 2924.07 113.241L2925 115.015C2929.92 112.456 2934.47 108.824 2938.67 104.139L2937.18 102.805ZM2924.09 113.234C2919.46 115.546 2913.72 116.728 2906.82 116.728V118.728C2913.94 118.728 2920.01 117.51 2924.98 115.022L2924.09 113.234ZM2982.58 134.432L2981.68 133.993L2980.98 135.432H2982.58V134.432ZM3047.67 1.08799V0.0879946H3047.04L3046.77 0.649342L3047.67 1.08799ZM3062.79 1.08799L3063.69 1.52665L3064.39 0.0879946H3062.79V1.08799ZM2997.7 134.432V135.432H2998.32L2998.6 134.871L2997.7 134.432ZM2983.48 134.871L3048.57 1.52665L3046.77 0.649342L2981.68 133.993L2983.48 134.871ZM3047.67 2.08799H3062.79V0.0879946H3047.67V2.08799ZM3061.89 0.649342L2996.8 133.993L2998.6 134.871L3063.69 1.52665L3061.89 0.649342ZM2997.7 133.432H2982.58V135.432H2997.7V133.432ZM3132.81 39.968H3133.81V38.968H3132.81V39.968ZM3132.81 70.064H3131.81V71.064H3132.81V70.064ZM3141.45 70.064V71.064H3141.93L3142.23 70.6905L3141.45 70.064ZM3165.65 39.968V38.968H3165.17L3164.87 39.3415L3165.65 39.968ZM3187.1 39.968L3187.86 40.6202L3189.28 38.968H3187.1V39.968ZM3155.13 77.12L3154.38 76.4678L3153.82 77.1153L3154.37 77.7668L3155.13 77.12ZM3188.11 116V117H3190.27L3188.87 115.353L3188.11 116ZM3167.09 116L3166.31 116.635L3166.61 117H3167.09V116ZM3141.74 85.184L3142.51 84.5488L3142.21 84.184H3141.74V85.184ZM3132.81 85.184V84.184H3131.81V85.184H3132.81ZM3132.81 116V117H3133.81V116H3132.81ZM3115.25 116H3114.25V117H3115.25V116ZM3115.25 39.968V38.968H3114.25V39.968H3115.25ZM3131.81 39.968V70.064H3133.81V39.968H3131.81ZM3132.81 71.064H3141.45V69.064H3132.81V71.064ZM3142.23 70.6905L3166.42 40.5945L3164.87 39.3415L3140.67 69.4375L3142.23 70.6905ZM3165.65 40.968H3187.1V38.968H3165.65V40.968ZM3186.34 39.3158L3154.38 76.4678L3155.89 77.7722L3187.86 40.6202L3186.34 39.3158ZM3154.37 77.7668L3187.35 116.647L3188.87 115.353L3155.9 76.4732L3154.37 77.7668ZM3188.11 115H3167.09V117H3188.11V115ZM3167.86 115.365L3142.51 84.5488L3140.97 85.8192L3166.31 116.635L3167.86 115.365ZM3141.74 84.184H3132.81V86.184H3141.74V84.184ZM3131.81 85.184V116H3133.81V85.184H3131.81ZM3132.81 115H3115.25V117H3132.81V115ZM3116.25 116V39.968H3114.25V116H3116.25ZM3115.25 40.968H3132.81V38.968H3115.25V40.968ZM3204.3 106.352L3203.59 107.059L3203.59 107.064L3204.3 106.352ZM3204.44 50.048L3205.14 50.7595L3205.15 50.7551L3204.44 50.048ZM3262.33 49.904L3261.62 50.6111L3261.63 50.6155L3262.33 49.904ZM3262.18 106.064L3262.89 106.771L3262.89 106.771L3262.18 106.064ZM3250.09 95.552L3250.83 96.2278L3250.83 96.2201L3250.09 95.552ZM3249.8 60.848L3249.06 61.5251L3249.07 61.5324L3249.8 60.848ZM3216.54 60.704L3217.27 61.3798L3217.28 61.3721L3216.54 60.704ZM3216.82 95.408L3216.09 96.0851L3216.09 96.0924L3216.82 95.408ZM3233.1 116.728C3221.82 116.728 3212.48 113.026 3205 105.64L3203.59 107.064C3211.47 114.846 3221.33 118.728 3233.1 118.728V116.728ZM3205 105.645C3197.51 98.154 3193.78 89.0971 3193.78 78.416H3191.78C3191.78 89.6229 3195.72 99.19 3203.59 107.059L3205 105.645ZM3193.78 78.416V78.128H3191.78V78.416H3193.78ZM3193.78 78.128C3193.78 67.3523 3197.56 58.2495 3205.14 50.7595L3203.74 49.3365C3195.77 57.2065 3191.78 66.8237 3191.78 78.128H3193.78ZM3205.15 50.7551C3212.73 43.1763 3222.11 39.384 3233.38 39.384V37.384C3221.61 37.384 3211.71 41.3676 3203.73 49.3409L3205.15 50.7551ZM3233.38 39.384C3244.76 39.384 3254.14 43.1326 3261.62 50.6111L3263.03 49.1969C3255.15 41.3154 3245.24 37.384 3233.38 37.384V39.384ZM3261.63 50.6155C3269.11 58.0069 3272.85 67.0605 3272.85 77.84H3274.85C3274.85 66.5395 3270.91 56.9691 3263.03 49.1925L3261.63 50.6155ZM3272.85 77.84V78.128H3274.85V77.84H3272.85ZM3272.85 78.128C3272.85 88.7067 3269.07 97.7655 3261.48 105.357L3262.89 106.771C3270.85 98.8105 3274.85 89.2453 3274.85 78.128H3272.85ZM3261.48 105.357C3253.9 112.934 3244.46 116.728 3233.1 116.728V118.728C3244.96 118.728 3254.92 114.746 3262.89 106.771L3261.48 105.357ZM3233.38 103.464C3240.54 103.464 3246.39 101.065 3250.82 96.2277L3249.35 94.8763C3245.34 99.2545 3240.05 101.464 3233.38 101.464V103.464ZM3250.83 96.2201C3255.23 91.3204 3257.42 85.3657 3257.42 78.416H3255.42C3255.42 84.9063 3253.39 90.3756 3249.34 94.8839L3250.83 96.2201ZM3257.42 78.416V78.128H3255.42V78.416H3257.42ZM3257.42 78.128C3257.42 71.0735 3255.13 65.0642 3250.53 60.1636L3249.07 61.5324C3253.3 66.0398 3255.42 71.5505 3255.42 78.128H3257.42ZM3250.54 60.1709C3245.92 55.1582 3240.09 52.648 3233.1 52.648V54.648C3239.55 54.648 3244.84 56.9378 3249.06 61.5251L3250.54 60.1709ZM3233.1 52.648C3226.02 52.648 3220.22 55.1028 3215.79 60.0359L3217.28 61.3721C3221.3 56.8972 3226.54 54.648 3233.1 54.648V52.648ZM3215.8 60.0283C3211.39 64.8381 3209.2 70.7984 3209.2 77.84H3211.2C3211.2 71.2496 3213.23 65.7859 3217.27 61.3797L3215.8 60.0283ZM3209.2 77.84V78.128H3211.2V77.84H3209.2ZM3209.2 78.128C3209.2 85.0904 3211.5 91.0944 3216.09 96.0851L3217.56 94.7309C3213.32 90.1216 3211.2 84.6056 3211.2 78.128H3209.2ZM3216.09 96.0924C3220.71 101.004 3226.49 103.464 3233.38 103.464V101.464C3227.03 101.464 3221.77 99.2202 3217.55 94.7236L3216.09 96.0924ZM3291.45 116H3290.45V117H3291.45V116ZM3291.45 39.968V38.968H3290.45V39.968H3291.45ZM3309.02 39.968H3310.02V38.968H3309.02V39.968ZM3309.02 69.776H3308.02V70.776H3309.02V69.776ZM3344.15 69.776V70.776H3345.15V69.776H3344.15ZM3344.15 39.968V38.968H3343.15V39.968H3344.15ZM3361.58 39.968H3362.58V38.968H3361.58V39.968ZM3361.58 116V117H3362.58V116H3361.58ZM3344.15 116H3343.15V117H3344.15V116ZM3344.15 85.76H3345.15V84.76H3344.15V85.76ZM3309.02 85.76V84.76H3308.02V85.76H3309.02ZM3309.02 116V117H3310.02V116H3309.02ZM3292.45 116V39.968H3290.45V116H3292.45ZM3291.45 40.968H3309.02V38.968H3291.45V40.968ZM3308.02 39.968V69.776H3310.02V39.968H3308.02ZM3309.02 70.776H3344.15V68.776H3309.02V70.776ZM3345.15 69.776V39.968H3343.15V69.776H3345.15ZM3344.15 40.968H3361.58V38.968H3344.15V40.968ZM3360.58 39.968V116H3362.58V39.968H3360.58ZM3361.58 115H3344.15V117H3361.58V115ZM3345.15 116V85.76H3343.15V116H3345.15ZM3344.15 84.76H3309.02V86.76H3344.15V84.76ZM3308.02 85.76V116H3310.02V85.76H3308.02ZM3309.02 115H3291.45V117H3309.02V115ZM3400.7 39.968H3401.7V38.968H3400.7V39.968ZM3400.7 70.064H3399.7V71.064H3400.7V70.064ZM3409.34 70.064V71.064H3409.82L3410.12 70.6905L3409.34 70.064ZM3433.54 39.968V38.968H3433.06L3432.76 39.3415L3433.54 39.968ZM3454.99 39.968L3455.75 40.6202L3457.17 38.968H3454.99V39.968ZM3423.02 77.12L3422.27 76.4678L3421.71 77.1153L3422.26 77.7668L3423.02 77.12ZM3456 116V117H3458.16L3456.76 115.353L3456 116ZM3434.98 116L3434.2 116.635L3434.5 117H3434.98V116ZM3409.63 85.184L3410.4 84.5488L3410.1 84.184H3409.63V85.184ZM3400.7 85.184V84.184H3399.7V85.184H3400.7ZM3400.7 116V117H3401.7V116H3400.7ZM3383.14 116H3382.14V117H3383.14V116ZM3383.14 39.968V38.968H3382.14V39.968H3383.14ZM3399.7 39.968V70.064H3401.7V39.968H3399.7ZM3400.7 71.064H3409.34V69.064H3400.7V71.064ZM3410.12 70.6905L3434.32 40.5945L3432.76 39.3415L3408.56 69.4375L3410.12 70.6905ZM3433.54 40.968H3454.99V38.968H3433.54V40.968ZM3454.23 39.3158L3422.27 76.4678L3423.78 77.7722L3455.75 40.6202L3454.23 39.3158ZM3422.26 77.7668L3455.24 116.647L3456.76 115.353L3423.79 76.4732L3422.26 77.7668ZM3456 115H3434.98V117H3456V115ZM3435.75 115.365L3410.4 84.5488L3408.86 85.8192L3434.2 116.635L3435.75 115.365ZM3409.63 84.184H3400.7V86.184H3409.63V84.184ZM3399.7 85.184V116H3401.7V85.184H3399.7ZM3400.7 115H3383.14V117H3400.7V115ZM3384.14 116V39.968H3382.14V116H3384.14ZM3383.14 40.968H3400.7V38.968H3383.14V40.968ZM3500.49 96.416L3499.55 96.7692L3500.52 99.3341L3501.43 96.7481L3500.49 96.416ZM3520.36 39.968V38.968H3519.65L3519.42 39.6359L3520.36 39.968ZM3538.5 39.968L3539.44 40.3293L3539.96 38.968H3538.5V39.968ZM3508.26 118.016L3509.19 118.38L3509.2 118.377L3508.26 118.016ZM3498.04 134.576L3497.39 133.813L3497.39 133.817L3497.38 133.822L3498.04 134.576ZM3465.21 134.72L3464.3 134.302L3463.91 135.135L3464.71 135.589L3465.21 134.72ZM3471.11 121.904L3471.58 121.019L3470.64 120.528L3470.2 121.486L3471.11 121.904ZM3487.53 122.768L3486.92 121.974L3486.89 121.994L3486.87 122.015L3487.53 122.768ZM3492.13 116.144L3493.05 116.558L3493.23 116.162L3493.06 115.76L3492.13 116.144ZM3460.45 39.968V38.968H3458.96L3459.53 40.352L3460.45 39.968ZM3479.17 39.968L3480.11 39.6148L3479.87 38.968H3479.17V39.968ZM3501.43 96.7481L3521.3 40.3001L3519.42 39.6359L3499.54 96.0839L3501.43 96.7481ZM3520.36 40.968H3538.5V38.968H3520.36V40.968ZM3537.57 39.6067L3507.33 117.655L3509.2 118.377L3539.44 40.3293L3537.57 39.6067ZM3507.33 117.652C3504.28 125.467 3500.95 130.804 3497.39 133.813L3498.68 135.339C3502.62 132.012 3506.1 126.309 3509.19 118.38L3507.33 117.652ZM3497.38 133.822C3493.86 136.892 3489.17 138.472 3483.21 138.472V140.472C3489.53 140.472 3494.73 138.788 3498.7 135.33L3497.38 133.822ZM3483.21 138.472C3476.95 138.472 3471.12 136.933 3465.7 133.851L3464.71 135.589C3470.43 138.843 3476.6 140.472 3483.21 140.472V138.472ZM3466.12 135.138L3472.02 122.322L3470.2 121.486L3464.3 134.302L3466.12 135.138ZM3470.65 122.789C3474.39 124.762 3477.96 125.784 3481.33 125.784V123.784C3478.37 123.784 3475.12 122.886 3471.58 121.019L3470.65 122.789ZM3481.33 125.784C3484.1 125.784 3486.42 125.063 3488.19 123.521L3486.87 122.015C3485.56 123.161 3483.75 123.784 3481.33 123.784V125.784ZM3488.13 123.562C3489.96 122.167 3491.58 119.785 3493.05 116.558L3491.22 115.73C3489.81 118.839 3488.36 120.873 3486.92 121.974L3488.13 123.562ZM3493.06 115.76L3461.38 39.584L3459.53 40.352L3491.21 116.528L3493.06 115.76ZM3460.45 40.968H3479.17V38.968H3460.45V40.968ZM3478.24 40.3212L3499.55 96.7692L3501.42 96.0628L3480.11 39.6148L3478.24 40.3212ZM3553.29 139.04H3552.29V140.04H3553.29V139.04ZM3553.29 39.968V38.968H3552.29V39.968H3553.29ZM3570.86 39.968H3571.86V38.968H3570.86V39.968ZM3570.86 52.64H3569.86V55.7864L3571.68 53.2173L3570.86 52.64ZM3621.55 106.928L3620.84 106.226L3620.83 106.231L3621.55 106.928ZM3570.86 104.192L3571.66 103.591L3569.86 101.201V104.192H3570.86ZM3570.86 139.04V140.04H3571.86V139.04H3570.86ZM3576.91 95.696L3576.18 96.38L3576.19 96.3876L3576.91 95.696ZM3608.01 95.84L3607.28 95.1566L3607.28 95.1571L3608.01 95.84ZM3608.01 60.272L3608.74 59.5886L3608.74 59.5886L3608.01 60.272ZM3576.91 60.416L3577.63 61.1076L3577.64 61.0999L3576.91 60.416ZM3554.29 139.04V39.968H3552.29V139.04H3554.29ZM3553.29 40.968H3570.86V38.968H3553.29V40.968ZM3569.86 39.968V52.64H3571.86V39.968H3569.86ZM3571.68 53.2173C3578.23 43.9468 3586.58 39.384 3596.78 39.384V37.384C3585.86 37.384 3576.93 42.3252 3570.04 52.0627L3571.68 53.2173ZM3596.78 39.384C3606 39.384 3614.01 42.8181 3620.84 49.7423L3622.26 48.3377C3615.07 41.0538 3606.57 37.384 3596.78 37.384V39.384ZM3620.84 49.7423C3627.62 56.6207 3631.06 65.9475 3631.06 77.84H3633.06C3633.06 65.5405 3629.49 55.6672 3622.26 48.3377L3620.84 49.7423ZM3631.06 77.84V78.128H3633.06V77.84H3631.06ZM3631.06 78.128C3631.06 90.0205 3627.62 99.3472 3620.84 106.226L3622.26 107.63C3629.49 100.301 3633.06 90.4275 3633.06 78.128H3631.06ZM3620.83 106.231C3614.1 113.148 3606.1 116.584 3596.78 116.584V118.584C3606.66 118.584 3615.17 114.916 3622.26 107.625L3620.83 106.231ZM3596.78 116.584C3586.56 116.584 3578.2 112.285 3571.66 103.591L3570.06 104.793C3576.96 113.955 3585.89 118.584 3596.78 118.584V116.584ZM3569.86 104.192V139.04H3571.86V104.192H3569.86ZM3570.86 138.04H3553.29V140.04H3570.86V138.04ZM3576.19 96.3876C3580.69 101.093 3586.18 103.464 3592.6 103.464V101.464C3586.74 101.464 3581.77 99.3231 3577.63 95.0044L3576.19 96.3876ZM3592.6 103.464C3599.02 103.464 3604.42 101.145 3608.74 96.5229L3607.28 95.1571C3603.35 99.3671 3598.48 101.464 3592.6 101.464V103.464ZM3608.74 96.5234C3613.17 91.7933 3615.35 85.629 3615.35 78.128H3613.35C3613.35 85.219 3611.3 90.8626 3607.28 95.1566L3608.74 96.5234ZM3615.35 78.128V77.84H3613.35V78.128H3615.35ZM3615.35 77.84C3615.35 70.431 3613.17 64.3161 3608.74 59.5886L3607.28 60.9554C3611.3 65.2518 3613.35 70.849 3613.35 77.84H3615.35ZM3608.74 59.5886C3604.33 54.8796 3598.94 52.504 3592.6 52.504V54.504C3598.37 54.504 3603.24 56.6404 3607.28 60.9554L3608.74 59.5886ZM3592.6 52.504C3586.18 52.504 3580.68 54.9288 3576.18 59.7321L3577.64 61.0999C3581.77 56.6872 3586.75 54.504 3592.6 54.504V52.504ZM3576.19 59.7244C3571.66 64.4485 3569.43 70.5165 3569.43 77.84H3571.43C3571.43 70.9555 3573.51 65.4075 3577.63 61.1076L3576.19 59.7244ZM3569.43 77.84V78.128H3571.43V77.84H3569.43ZM3569.43 78.128C3569.43 85.4518 3571.66 91.563 3576.18 96.3799L3577.64 95.0121C3573.51 90.613 3571.43 85.0122 3571.43 78.128H3569.43ZM3657.1 106.352L3656.39 107.05L3656.39 107.055L3657.1 106.352ZM3657.1 50.048L3656.39 49.3498L3656.38 49.3544L3657.1 50.048ZM3715.85 51.488L3716.58 52.1722L3717.23 51.4855L3716.58 50.8011L3715.85 51.488ZM3704.91 63.152L3704.19 63.8425L3704.92 64.6068L3705.64 63.8362L3704.91 63.152ZM3669.63 60.704L3670.37 61.3721L3670.37 61.3721L3669.63 60.704ZM3669.63 95.408L3668.89 96.0762L3668.89 96.0844L3669.63 95.408ZM3705.77 93.104L3706.48 92.392L3705.77 91.6946L3705.07 92.3969L3705.77 93.104ZM3716.29 103.472L3717.03 104.139L3717.67 103.429L3716.99 102.76L3716.29 103.472ZM3702.89 114.128L3703.34 115.022L3703.35 115.019L3703.35 115.015L3702.89 114.128ZM3685.18 116.728C3674.2 116.728 3665.1 113.032 3657.81 105.649L3656.39 107.055C3664.08 114.84 3673.7 118.728 3685.18 118.728V116.728ZM3657.82 105.654C3650.52 98.1648 3646.87 89.1051 3646.87 78.416H3644.87C3644.87 89.6149 3648.71 99.1792 3656.39 107.05L3657.82 105.654ZM3646.87 78.416V78.128H3644.87V78.416H3646.87ZM3646.87 78.128C3646.87 67.4387 3650.52 58.3285 3657.82 50.7416L3656.38 49.3544C3648.71 57.3195 3644.87 66.9293 3644.87 78.128H3646.87ZM3657.82 50.7462C3665.2 43.1723 3674.4 39.384 3685.47 39.384V37.384C3673.88 37.384 3664.17 41.3717 3656.39 49.3498L3657.82 50.7462ZM3685.47 39.384C3697.19 39.384 3707.06 43.6384 3715.13 52.1749L3716.58 50.8011C3708.14 41.8656 3697.75 37.384 3685.47 37.384V39.384ZM3715.12 50.8038L3704.18 62.4678L3705.64 63.8362L3716.58 52.1722L3715.12 50.8038ZM3705.63 62.4615C3699.45 55.9804 3692.67 52.648 3685.33 52.648V54.648C3692 54.648 3698.28 57.6516 3704.19 63.8425L3705.63 62.4615ZM3685.33 52.648C3678.8 52.648 3673.3 55.1238 3668.89 60.0359L3670.37 61.3721C3674.41 56.8762 3679.37 54.648 3685.33 54.648V52.648ZM3668.89 60.0359C3664.49 64.9356 3662.29 70.8903 3662.29 77.84H3664.29C3664.29 71.3497 3666.33 65.8804 3670.37 61.3721L3668.89 60.0359ZM3662.29 77.84V78.128H3664.29V77.84H3662.29ZM3662.29 78.128C3662.29 85.1697 3664.48 91.1736 3668.89 96.0761L3670.37 94.7399C3666.33 90.2344 3664.29 84.7183 3664.29 78.128H3662.29ZM3668.89 96.0844C3673.41 101.003 3679.15 103.464 3686.05 103.464V101.464C3679.69 101.464 3674.49 99.2209 3670.37 94.7316L3668.89 96.0844ZM3686.05 103.464C3693.29 103.464 3700.11 100.184 3706.48 93.8111L3705.07 92.3969C3698.96 98.5038 3692.62 101.464 3686.05 101.464V103.464ZM3705.07 93.816L3715.58 104.184L3716.99 102.76L3706.48 92.392L3705.07 93.816ZM3715.54 102.805C3711.48 107.336 3707.11 110.808 3702.43 113.241L3703.35 115.015C3708.28 112.456 3712.83 108.824 3717.03 104.139L3715.54 102.805ZM3702.45 113.234C3697.82 115.546 3692.08 116.728 3685.18 116.728V118.728C3692.3 118.728 3698.37 117.51 3703.34 115.022L3702.45 113.234ZM3760.94 134.432L3760.04 133.993L3759.34 135.432H3760.94V134.432ZM3826.03 1.08799V0.0879946H3825.4L3825.13 0.649342L3826.03 1.08799ZM3841.15 1.08799L3842.05 1.52665L3842.75 0.0879946H3841.15V1.08799ZM3776.06 134.432V135.432H3776.68L3776.96 134.871L3776.06 134.432ZM3761.84 134.871L3826.93 1.52665L3825.13 0.649342L3760.04 133.993L3761.84 134.871ZM3826.03 2.08799H3841.15V0.0879946H3826.03V2.08799ZM3840.25 0.649342L3775.16 133.993L3776.96 134.871L3842.05 1.52665L3840.25 0.649342ZM3776.06 133.432H3760.94V135.432H3776.06V133.432ZM3911.17 39.968H3912.17V38.968H3911.17V39.968ZM3911.17 70.064H3910.17V71.064H3911.17V70.064ZM3919.81 70.064V71.064H3920.29L3920.59 70.6905L3919.81 70.064ZM3944 39.968V38.968H3943.53L3943.23 39.3415L3944 39.968ZM3965.46 39.968L3966.22 40.6202L3967.64 38.968H3965.46V39.968ZM3933.49 77.12L3932.73 76.4678L3932.18 77.1153L3932.73 77.7668L3933.49 77.12ZM3966.47 116V117H3968.63L3967.23 115.353L3966.47 116ZM3945.44 116L3944.67 116.635L3944.97 117H3945.44V116ZM3920.1 85.184L3920.87 84.5488L3920.57 84.184H3920.1V85.184ZM3911.17 85.184V84.184H3910.17V85.184H3911.17ZM3911.17 116V117H3912.17V116H3911.17ZM3893.6 116H3892.6V117H3893.6V116ZM3893.6 39.968V38.968H3892.6V39.968H3893.6ZM3910.17 39.968V70.064H3912.17V39.968H3910.17ZM3911.17 71.064H3919.81V69.064H3911.17V71.064ZM3920.59 70.6905L3944.78 40.5945L3943.23 39.3415L3919.03 69.4375L3920.59 70.6905ZM3944 40.968H3965.46V38.968H3944V40.968ZM3964.7 39.3158L3932.73 76.4678L3934.25 77.7722L3966.22 40.6202L3964.7 39.3158ZM3932.73 77.7668L3965.71 116.647L3967.23 115.353L3934.26 76.4732L3932.73 77.7668ZM3966.47 115H3945.44V117H3966.47V115ZM3946.22 115.365L3920.87 84.5488L3919.33 85.8192L3944.67 116.635L3946.22 115.365ZM3920.1 84.184H3911.17V86.184H3920.1V84.184ZM3910.17 85.184V116H3912.17V85.184H3910.17ZM3911.17 115H3893.6V117H3911.17V115ZM3894.6 116V39.968H3892.6V116H3894.6ZM3893.6 40.968H3911.17V38.968H3893.6V40.968ZM3982.66 106.352L3981.95 107.059L3981.95 107.064L3982.66 106.352ZM3982.8 50.048L3983.5 50.7595L3983.51 50.7551L3982.8 50.048ZM4040.69 49.904L4039.98 50.6111L4039.98 50.6155L4040.69 49.904ZM4040.54 106.064L4041.25 106.771L4041.25 106.771L4040.54 106.064ZM4028.45 95.552L4029.18 96.2278L4029.19 96.2201L4028.45 95.552ZM4028.16 60.848L4027.42 61.5251L4027.43 61.5324L4028.16 60.848ZM3994.9 60.704L3995.63 61.3798L3995.64 61.3721L3994.9 60.704ZM3995.18 95.408L3994.45 96.0851L3994.45 96.0924L3995.18 95.408ZM4011.46 116.728C4000.18 116.728 3990.84 113.026 3983.36 105.64L3981.95 107.064C3989.83 114.846 3999.69 118.728 4011.46 118.728V116.728ZM3983.36 105.645C3975.87 98.154 3972.14 89.0971 3972.14 78.416H3970.14C3970.14 89.6229 3974.08 99.19 3981.95 107.059L3983.36 105.645ZM3972.14 78.416V78.128H3970.14V78.416H3972.14ZM3972.14 78.128C3972.14 67.3523 3975.92 58.2495 3983.5 50.7595L3982.1 49.3365C3974.13 57.2065 3970.14 66.8237 3970.14 78.128H3972.14ZM3983.51 50.7551C3991.09 43.1763 4000.47 39.384 4011.74 39.384V37.384C3999.97 37.384 3990.07 41.3676 3982.09 49.3409L3983.51 50.7551ZM4011.74 39.384C4023.11 39.384 4032.5 43.1326 4039.98 50.6111L4041.39 49.1969C4033.51 41.3154 4023.6 37.384 4011.74 37.384V39.384ZM4039.98 50.6155C4047.47 58.0069 4051.21 67.0605 4051.21 77.84H4053.21C4053.21 66.5395 4049.26 56.9691 4041.39 49.1925L4039.98 50.6155ZM4051.21 77.84V78.128H4053.21V77.84H4051.21ZM4051.21 78.128C4051.21 88.7067 4047.43 97.7655 4039.84 105.357L4041.25 106.771C4049.21 98.8105 4053.21 89.2453 4053.21 78.128H4051.21ZM4039.84 105.357C4032.26 112.934 4022.82 116.728 4011.46 116.728V118.728C4023.32 118.728 4033.28 114.746 4041.25 106.771L4039.84 105.357ZM4011.74 103.464C4018.9 103.464 4024.75 101.065 4029.18 96.2277L4027.71 94.8763C4023.7 99.2545 4018.41 101.464 4011.74 101.464V103.464ZM4029.19 96.2201C4033.59 91.3204 4035.78 85.3657 4035.78 78.416H4033.78C4033.78 84.9063 4031.75 90.3756 4027.7 94.8839L4029.19 96.2201ZM4035.78 78.416V78.128H4033.78V78.416H4035.78ZM4035.78 78.128C4035.78 71.0735 4033.49 65.0642 4028.89 60.1636L4027.43 61.5324C4031.66 66.0398 4033.78 71.5505 4033.78 78.128H4035.78ZM4028.9 60.1709C4024.28 55.1582 4018.45 52.648 4011.46 52.648V54.648C4017.91 54.648 4023.2 56.9378 4027.42 61.5251L4028.9 60.1709ZM4011.46 52.648C4004.38 52.648 3998.58 55.1028 3994.15 60.0359L3995.64 61.3721C3999.66 56.8972 4004.9 54.648 4011.46 54.648V52.648ZM3994.16 60.0283C3989.75 64.8381 3987.56 70.7984 3987.56 77.84H3989.56C3989.56 71.2496 3991.59 65.7859 3995.63 61.3797L3994.16 60.0283ZM3987.56 77.84V78.128H3989.56V77.84H3987.56ZM3987.56 78.128C3987.56 85.0904 3989.86 91.0944 3994.45 96.0851L3995.92 94.7309C3991.68 90.1216 3989.56 84.6056 3989.56 78.128H3987.56ZM3994.45 96.0924C3999.06 101.004 4004.85 103.464 4011.74 103.464V101.464C4005.39 101.464 4000.13 99.2202 3995.91 94.7236L3994.45 96.0924ZM4069.81 116H4068.81V117H4069.81V116ZM4069.81 39.968V38.968H4068.81V39.968H4069.81ZM4087.38 39.968H4088.38V38.968H4087.38V39.968ZM4087.38 69.776H4086.38V70.776H4087.38V69.776ZM4122.51 69.776V70.776H4123.51V69.776H4122.51ZM4122.51 39.968V38.968H4121.51V39.968H4122.51ZM4139.94 39.968H4140.94V38.968H4139.94V39.968ZM4139.94 116V117H4140.94V116H4139.94ZM4122.51 116H4121.51V117H4122.51V116ZM4122.51 85.76H4123.51V84.76H4122.51V85.76ZM4087.38 85.76V84.76H4086.38V85.76H4087.38ZM4087.38 116V117H4088.38V116H4087.38ZM4070.81 116V39.968H4068.81V116H4070.81ZM4069.81 40.968H4087.38V38.968H4069.81V40.968ZM4086.38 39.968V69.776H4088.38V39.968H4086.38ZM4087.38 70.776H4122.51V68.776H4087.38V70.776ZM4123.51 69.776V39.968H4121.51V69.776H4123.51ZM4122.51 40.968H4139.94V38.968H4122.51V40.968ZM4138.94 39.968V116H4140.94V39.968H4138.94ZM4139.94 115H4122.51V117H4139.94V115ZM4123.51 116V85.76H4121.51V116H4123.51ZM4122.51 84.76H4087.38V86.76H4122.51V84.76ZM4086.38 85.76V116H4088.38V85.76H4086.38ZM4087.38 115H4069.81V117H4087.38V115ZM4179.06 39.968H4180.06V38.968H4179.06V39.968ZM4179.06 70.064H4178.06V71.064H4179.06V70.064ZM4187.7 70.064V71.064H4188.18L4188.48 70.6905L4187.7 70.064ZM4211.9 39.968V38.968H4211.42L4211.12 39.3415L4211.9 39.968ZM4233.35 39.968L4234.11 40.6202L4235.53 38.968H4233.35V39.968ZM4201.38 77.12L4200.63 76.4678L4200.07 77.1153L4200.62 77.7668L4201.38 77.12ZM4234.36 116V117H4236.52L4235.12 115.353L4234.36 116ZM4213.34 116L4212.56 116.635L4212.86 117H4213.34V116ZM4187.99 85.184L4188.76 84.5488L4188.46 84.184H4187.99V85.184ZM4179.06 85.184V84.184H4178.06V85.184H4179.06ZM4179.06 116V117H4180.06V116H4179.06ZM4161.5 116H4160.5V117H4161.5V116ZM4161.5 39.968V38.968H4160.5V39.968H4161.5ZM4178.06 39.968V70.064H4180.06V39.968H4178.06ZM4179.06 71.064H4187.7V69.064H4179.06V71.064ZM4188.48 70.6905L4212.67 40.5945L4211.12 39.3415L4186.92 69.4375L4188.48 70.6905ZM4211.9 40.968H4233.35V38.968H4211.9V40.968ZM4232.59 39.3158L4200.63 76.4678L4202.14 77.7722L4234.11 40.6202L4232.59 39.3158ZM4200.62 77.7668L4233.6 116.647L4235.12 115.353L4202.15 76.4732L4200.62 77.7668ZM4234.36 115H4213.34V117H4234.36V115ZM4214.11 115.365L4188.76 84.5488L4187.22 85.8192L4212.56 116.635L4214.11 115.365ZM4187.99 84.184H4179.06V86.184H4187.99V84.184ZM4178.06 85.184V116H4180.06V85.184H4178.06ZM4179.06 115H4161.5V117H4179.06V115ZM4162.5 116V39.968H4160.5V116H4162.5ZM4161.5 40.968H4179.06V38.968H4161.5V40.968ZM4278.85 96.416L4277.91 96.7692L4278.88 99.3341L4279.79 96.7481L4278.85 96.416ZM4298.72 39.968V38.968H4298.01L4297.78 39.6359L4298.72 39.968ZM4316.86 39.968L4317.79 40.3293L4318.32 38.968H4316.86V39.968ZM4286.62 118.016L4287.55 118.38L4287.55 118.377L4286.62 118.016ZM4276.4 134.576L4275.75 133.813L4275.75 133.817L4275.74 133.822L4276.4 134.576ZM4243.57 134.72L4242.66 134.302L4242.27 135.135L4243.07 135.589L4243.57 134.72ZM4249.47 121.904L4249.94 121.019L4249 120.528L4248.56 121.486L4249.47 121.904ZM4265.89 122.768L4265.28 121.974L4265.25 121.994L4265.23 122.015L4265.89 122.768ZM4270.49 116.144L4271.4 116.558L4271.58 116.162L4271.42 115.76L4270.49 116.144ZM4238.81 39.968V38.968H4237.32L4237.89 40.352L4238.81 39.968ZM4257.53 39.968L4258.47 39.6148L4258.23 38.968H4257.53V39.968ZM4279.79 96.7481L4299.66 40.3001L4297.78 39.6359L4277.9 96.0839L4279.79 96.7481ZM4298.72 40.968H4316.86V38.968H4298.72V40.968ZM4315.93 39.6067L4285.69 117.655L4287.55 118.377L4317.79 40.3293L4315.93 39.6067ZM4285.69 117.652C4282.64 125.467 4279.31 130.804 4275.75 133.813L4277.04 135.339C4280.98 132.012 4284.46 126.309 4287.55 118.38L4285.69 117.652ZM4275.74 133.822C4272.22 136.892 4267.53 138.472 4261.57 138.472V140.472C4267.89 140.472 4273.09 138.788 4277.06 135.33L4275.74 133.822ZM4261.57 138.472C4255.31 138.472 4249.48 136.933 4244.06 133.851L4243.07 135.589C4248.79 138.843 4254.96 140.472 4261.57 140.472V138.472ZM4244.47 135.138L4250.38 122.322L4248.56 121.486L4242.66 134.302L4244.47 135.138ZM4249 122.789C4252.75 124.762 4256.32 125.784 4259.69 125.784V123.784C4256.73 123.784 4253.48 122.886 4249.94 121.019L4249 122.789ZM4259.69 125.784C4262.46 125.784 4264.78 125.063 4266.54 123.521L4265.23 122.015C4263.92 123.161 4262.11 123.784 4259.69 123.784V125.784ZM4266.49 123.562C4268.32 122.167 4269.94 119.785 4271.4 116.558L4269.58 115.73C4268.17 118.839 4266.72 120.873 4265.28 121.974L4266.49 123.562ZM4271.42 115.76L4239.74 39.584L4237.89 40.352L4269.57 116.528L4271.42 115.76ZM4238.81 40.968H4257.53V38.968H4238.81V40.968ZM4256.6 40.3212L4277.91 96.7692L4279.78 96.0628L4258.47 39.6148L4256.6 40.3212ZM4331.65 139.04H4330.65V140.04H4331.65V139.04ZM4331.65 39.968V38.968H4330.65V39.968H4331.65ZM4349.22 39.968H4350.22V38.968H4349.22V39.968ZM4349.22 52.64H4348.22V55.7864L4350.04 53.2173L4349.22 52.64ZM4399.91 106.928L4399.2 106.226L4399.19 106.231L4399.91 106.928ZM4349.22 104.192L4350.02 103.591L4348.22 101.201V104.192H4349.22ZM4349.22 139.04V140.04H4350.22V139.04H4349.22ZM4355.27 95.696L4354.54 96.38L4354.55 96.3876L4355.27 95.696ZM4386.37 95.84L4385.64 95.1566L4385.64 95.1571L4386.37 95.84ZM4386.37 60.272L4387.1 59.5886L4387.1 59.5886L4386.37 60.272ZM4355.27 60.416L4355.99 61.1076L4356 61.0999L4355.27 60.416ZM4332.65 139.04V39.968H4330.65V139.04H4332.65ZM4331.65 40.968H4349.22V38.968H4331.65V40.968ZM4348.22 39.968V52.64H4350.22V39.968H4348.22ZM4350.04 53.2173C4356.59 43.9468 4364.94 39.384 4375.14 39.384V37.384C4364.22 37.384 4355.29 42.3252 4348.4 52.0627L4350.04 53.2173ZM4375.14 39.384C4384.36 39.384 4392.37 42.8181 4399.2 49.7423L4400.62 48.3377C4393.43 41.0538 4384.93 37.384 4375.14 37.384V39.384ZM4399.2 49.7423C4405.98 56.6207 4409.42 65.9475 4409.42 77.84H4411.42C4411.42 65.5405 4407.85 55.6672 4400.62 48.3377L4399.2 49.7423ZM4409.42 77.84V78.128H4411.42V77.84H4409.42ZM4409.42 78.128C4409.42 90.0205 4405.98 99.3472 4399.2 106.226L4400.62 107.63C4407.85 100.301 4411.42 90.4275 4411.42 78.128H4409.42ZM4399.19 106.231C4392.46 113.148 4384.46 116.584 4375.14 116.584V118.584C4385.02 118.584 4393.53 114.916 4400.62 107.625L4399.19 106.231ZM4375.14 116.584C4364.91 116.584 4356.56 112.285 4350.02 103.591L4348.42 104.793C4355.32 113.955 4364.24 118.584 4375.14 118.584V116.584ZM4348.22 104.192V139.04H4350.22V104.192H4348.22ZM4349.22 138.04H4331.65V140.04H4349.22V138.04ZM4354.55 96.3876C4359.05 101.093 4364.54 103.464 4370.96 103.464V101.464C4365.1 101.464 4360.12 99.3231 4355.99 95.0044L4354.55 96.3876ZM4370.96 103.464C4377.38 103.464 4382.78 101.145 4387.1 96.5229L4385.64 95.1571C4381.71 99.3671 4376.84 101.464 4370.96 101.464V103.464ZM4387.1 96.5234C4391.53 91.7933 4393.71 85.629 4393.71 78.128H4391.71C4391.71 85.219 4389.66 90.8626 4385.64 95.1566L4387.1 96.5234ZM4393.71 78.128V77.84H4391.71V78.128H4393.71ZM4393.71 77.84C4393.71 70.431 4391.53 64.3161 4387.1 59.5886L4385.64 60.9554C4389.66 65.2518 4391.71 70.849 4391.71 77.84H4393.71ZM4387.1 59.5886C4382.69 54.8796 4377.3 52.504 4370.96 52.504V54.504C4376.73 54.504 4381.6 56.6404 4385.64 60.9554L4387.1 59.5886ZM4370.96 52.504C4364.53 52.504 4359.04 54.9288 4354.54 59.7321L4356 61.0999C4360.13 56.6872 4365.1 54.504 4370.96 54.504V52.504ZM4354.55 59.7244C4350.02 64.4485 4347.79 70.5165 4347.79 77.84H4349.79C4349.79 70.9555 4351.87 65.4075 4355.99 61.1076L4354.55 59.7244ZM4347.79 77.84V78.128H4349.79V77.84H4347.79ZM4347.79 78.128C4347.79 85.4518 4350.02 91.563 4354.54 96.3799L4356 95.0121C4351.87 90.613 4349.79 85.0122 4349.79 78.128H4347.79ZM4435.46 106.352L4434.74 107.05L4434.75 107.055L4435.46 106.352ZM4435.46 50.048L4434.75 49.3498L4434.74 49.3544L4435.46 50.048ZM4494.21 51.488L4494.94 52.1722L4495.59 51.4855L4494.94 50.8011L4494.21 51.488ZM4483.27 63.152L4482.55 63.8425L4483.28 64.6068L4484 63.8362L4483.27 63.152ZM4447.99 60.704L4448.73 61.3721L4448.73 61.3721L4447.99 60.704ZM4447.99 95.408L4447.24 96.0762L4447.25 96.0844L4447.99 95.408ZM4484.13 93.104L4484.84 92.392L4484.13 91.6946L4483.43 92.3969L4484.13 93.104ZM4494.64 103.472L4495.39 104.139L4496.03 103.429L4495.35 102.76L4494.64 103.472ZM4481.25 114.128L4481.7 115.022L4481.71 115.019L4481.71 115.015L4481.25 114.128ZM4463.54 116.728C4452.56 116.728 4443.46 113.032 4436.17 105.649L4434.75 107.055C4442.44 114.84 4452.06 118.728 4463.54 118.728V116.728ZM4436.18 105.654C4428.88 98.1648 4425.23 89.1051 4425.23 78.416H4423.23C4423.23 89.6149 4427.07 99.1792 4434.74 107.05L4436.18 105.654ZM4425.23 78.416V78.128H4423.23V78.416H4425.23ZM4425.23 78.128C4425.23 67.4387 4428.88 58.3285 4436.18 50.7416L4434.74 49.3544C4427.07 57.3195 4423.23 66.9293 4423.23 78.128H4425.23ZM4436.18 50.7462C4443.56 43.1723 4452.76 39.384 4463.83 39.384V37.384C4452.24 37.384 4442.53 41.3717 4434.75 49.3498L4436.18 50.7462ZM4463.83 39.384C4475.55 39.384 4485.42 43.6384 4493.49 52.1749L4494.94 50.8011C4486.5 41.8656 4476.1 37.384 4463.83 37.384V39.384ZM4493.48 50.8038L4482.54 62.4678L4484 63.8362L4494.94 52.1722L4493.48 50.8038ZM4483.99 62.4615C4477.81 55.9804 4471.03 52.648 4463.68 52.648V54.648C4470.35 54.648 4476.64 57.6516 4482.55 63.8425L4483.99 62.4615ZM4463.68 52.648C4457.16 52.648 4451.66 55.1238 4447.24 60.0359L4448.73 61.3721C4452.77 56.8762 4457.73 54.648 4463.68 54.648V52.648ZM4447.24 60.0359C4442.85 64.9356 4440.65 70.8903 4440.65 77.84H4442.65C4442.65 71.3497 4444.68 65.8804 4448.73 61.3721L4447.24 60.0359ZM4440.65 77.84V78.128H4442.65V77.84H4440.65ZM4440.65 78.128C4440.65 85.1697 4442.84 91.1736 4447.24 96.0761L4448.73 94.7399C4444.69 90.2344 4442.65 84.7183 4442.65 78.128H4440.65ZM4447.25 96.0844C4451.77 101.003 4457.51 103.464 4464.4 103.464V101.464C4458.05 101.464 4452.85 99.2209 4448.73 94.7316L4447.25 96.0844ZM4464.4 103.464C4471.65 103.464 4478.47 100.184 4484.84 93.8111L4483.43 92.3969C4477.32 98.5038 4470.98 101.464 4464.4 101.464V103.464ZM4483.43 93.816L4493.94 104.184L4495.35 102.76L4484.84 92.392L4483.43 93.816ZM4493.9 102.805C4489.84 107.336 4485.47 110.808 4480.79 113.241L4481.71 115.015C4486.64 112.456 4491.19 108.824 4495.39 104.139L4493.9 102.805ZM4480.81 113.234C4476.18 115.546 4470.44 116.728 4463.54 116.728V118.728C4470.66 118.728 4476.73 117.51 4481.7 115.022L4480.81 113.234ZM4539.3 134.432L4538.4 133.993L4537.7 135.432H4539.3V134.432ZM4604.39 1.08799V0.0879946H4603.76L4603.49 0.649342L4604.39 1.08799ZM4619.51 1.08799L4620.41 1.52665L4621.11 0.0879946H4619.51V1.08799ZM4554.42 134.432V135.432H4555.04L4555.32 134.871L4554.42 134.432ZM4540.2 134.871L4605.29 1.52665L4603.49 0.649342L4538.4 133.993L4540.2 134.871ZM4604.39 2.08799H4619.51V0.0879946H4604.39V2.08799ZM4618.61 0.649342L4553.52 133.993L4555.32 134.871L4620.41 1.52665L4618.61 0.649342ZM4554.42 133.432H4539.3V135.432H4554.42V133.432Z" fill="#BABABA"/>
</svg>
