<svg width="50" height="27" viewBox="0 0 50 27" fill="none" xmlns="http://www.w3.org/2000/svg">
<path d="M1.53884 1.58652L0 2.94814V12.8922L1.53884 14.2538L3.07148 15.6154L6.34773 15.6216H9.61777V21.4131H4.77786V19.3183H0V23.5017L1.53884 24.8571L3.07148 26.2126H11.3862L12.8878 24.8756L14.3956 23.5387L14.3894 18.5173V13.496L11.3862 10.8221L8.08513 10.8159H4.77786V5.02444H9.61157L9.6488 6.9652L12.0253 6.98368L14.3956 6.996V2.89885L12.8878 1.56188L11.3862 0.224913H3.07148L1.53884 1.58652Z" fill="white"/>
<path d="M16.7535 12.2823L16.2447 12.7567L15.7297 13.2249L16.7597 14.1737L16.7535 20.1932V26.2188H21.5314V15.6216H26.9918V26.2188H31.7697L31.7821 14.1121L32.7501 13.2249L32.2599 12.7567L31.7697 12.2946V0.21875H26.9918V10.8159H21.5314V0.21875H16.7535V12.2823Z" fill="white"/>
<path d="M34.0655 12.2638L33.0789 13.2434L33.5691 13.6993L34.0655 14.1552V23.5017L35.6044 24.8571L37.137 26.2188H45.8861L47.4559 24.851L49.0196 23.4832V14.1614L49.5098 13.6932L50 13.2311L49.5098 12.7505L49.0196 12.2638V0.21875H44.2417V12.2823L43.2241 13.2311L44.2417 14.1552V21.4131H38.8434V17.7903L38.8372 14.1737L39.8672 13.2249L38.8434 12.2823V0.21875H34.0655V12.2638Z" fill="white"/>
</svg>
